<svg xmlns="http://www.w3.org/2000/svg" viewBox="0 0 20 20">
    <path fill="#000" fill-rule="evenodd" d="M5.4,15.2056 C5.4,15.8686 4.863,16.4056 4.2,16.4056 C3.537,16.4056 3,15.8686 3,15.2056 C3,14.5426 3.537,14.0056 4.2,14.0056 C4.863,14.0056 5.4,14.5426 5.4,15.2056 L5.4,15.2056 Z M7.7419,15.8053 C7.4109,15.8053 7.1419,15.5363 7.1419,15.2053 C7.1419,14.8743 7.4109,14.6063 7.7419,14.6063 L10.9139,14.6063 C11.2459,14.6063 11.5139,14.8743 11.5139,15.2053 C11.5139,15.5363 11.2459,15.8053 10.9139,15.8053 L7.7419,15.8053 L7.7419,15.8053 Z M5.425,10.2008 C5.425,10.8638 4.888,11.4008 4.225,11.4008 C3.562,11.4008 3.025,10.8638 3.025,10.2008 C3.025,9.5378 3.562,9.0008 4.225,9.0008 C4.888,9.0008 5.425,9.5378 5.425,10.2008 L5.425,10.2008 Z M7.7668,10.8009 C7.4358,10.8009 7.1668,10.5319 7.1668,10.2009 C7.1668,9.8689 7.4358,9.6009 7.7668,9.6009 L13.9388,9.6009 C14.2708,9.6009 14.5388,9.8689 14.5388,10.2009 C14.5388,10.5319 14.2708,10.8009 13.9388,10.8009 L7.7668,10.8009 L7.7668,10.8009 Z M5.425,5.2 C5.425,5.863 4.888,6.4 4.225,6.4 C3.562,6.4 3.025,5.863 3.025,5.2 C3.025,4.537 3.562,4 4.225,4 C4.888,4 5.425,4.537 5.425,5.2 L5.425,5.2 Z M15.9388,5.8 L7.7668,5.8 C7.4358,5.8 7.1668,5.531 7.1668,5.2 C7.1668,4.868 7.4358,4.6 7.7668,4.6 L15.9388,4.6 C16.2708,4.6 16.5388,4.868 16.5388,5.2 C16.5388,5.531 16.2708,5.8 15.9388,5.8 L15.9388,5.8 Z"/>
</svg>
