<svg xmlns="http://www.w3.org/2000/svg" viewBox="0 0 16 16">
    <path fill="#000" fill-rule="evenodd" d="M2.836 13.243a1.418 1.418 0 1 1-2.835 0 1.418 1.418 0 0 1 2.835 0m2.768.708a.71.71 0 0 1 0-1.417h3.749a.708.708 0 1 1 0 1.417h-3.75M2.867 7.328a1.418 1.418 0 1 1-2.836 0 1.418 1.418 0 0 1 2.836 0m2.767.71a.71.71 0 0 1 0-1.419h7.294a.708.708 0 1 1 0 1.418H5.633M2.866 1.418a1.418 1.418 0 1 1-2.836 0 1.418 1.418 0 0 1 2.836 0m12.425.71H5.633a.71.71 0 0 1 0-1.419h9.658a.708.708 0 1 1 0 1.418"/>
</svg>
