<svg xmlns="http://www.w3.org/2000/svg" viewBox="0 0 16 17">
    <path fill="#000" fill-rule="evenodd" d="M1.043 15.53a.564.564 0 0 1-.56-.68l.576-2.772a.576.576 0 0 1 .049-.138c.242-.48.658-.844 1.17-1.024L5.73 9.7a.248.248 0 0 0 .166-.232v-.497c0-.3-.135-.58-.37-.772A3.518 3.518 0 0 1 4.21 5.465V4.036A3.594 3.594 0 0 1 7.822.47c1.992 0 3.613 1.6 3.613 3.566v1.43a3.527 3.527 0 0 1-1.31 2.728 1.015 1.015 0 0 0-.375.787v.488c0 .103.067.198.166.232a.561.561 0 0 1 .346.721.573.573 0 0 1-.73.343 1.381 1.381 0 0 1-.926-1.296V8.98c0-.642.288-1.247.79-1.657a2.404 2.404 0 0 0 .895-1.859V4.036A2.455 2.455 0 0 0 7.822 1.6a2.456 2.456 0 0 0-2.469 2.436v1.43c0 .717.33 1.397.901 1.863.5.405.786 1.004.786 1.642v.497a1.38 1.38 0 0 1-.926 1.296L2.662 11.98a.942.942 0 0 0-.499.407l-.56 2.692a.57.57 0 0 1-.56.451m13.914-3.294h-1.62v-1.6a.568.568 0 0 0-.572-.565.568.568 0 0 0-.572.565v1.6h-1.621a.568.568 0 0 0-.572.565c0 .311.255.563.572.563h1.62v1.6c0 .312.257.565.573.565a.568.568 0 0 0 .572-.565v-1.6h1.62a.567.567 0 0 0 .572-.563.568.568 0 0 0-.572-.565"/>
</svg>
