<svg xmlns="http://www.w3.org/2000/svg" viewBox="0 0 20 20">
    <path fill="#000" fill-rule="evenodd" d="M6.308 16.215l-1.372 1.371a.6.6 0 1 0 .849.849l1.621-1.622a6.652 6.652 0 0 0 5.561-.142l1.765 1.764a.6.6 0 1 0 .848-.849l-1.56-1.56a6.673 6.673 0 1 0-7.713.188m9.198-5.538a5.473 5.473 0 1 1-10.947 0 5.473 5.473 0 0 1 10.947 0m-6.074 0a.6.6 0 0 0 .176.425l2.062 2.061a.6.6 0 0 0 .848-.848l-1.885-1.892V7.49a.6.6 0 0 0-1.2 0m6.987-3.936L13.538 1.78a.6.6 0 0 0-.63 1.021l2.882 1.774a.6.6 0 0 0 .63-1.022M4.272 4.576l2.881-1.774a.6.6 0 0 0-.628-1.021L3.644 3.554a.6.6 0 0 0 .629 1.022"/>
</svg>
