<svg xmlns="http://www.w3.org/2000/svg" viewBox="0 0 16 16">
    <path fill="#000" fill-rule="evenodd" d="M4.308 14.215l-1.372 1.371a.6.6 0 1 0 .849.849l1.621-1.622a6.652 6.652 0 0 0 5.561-.142l1.765 1.764a.6.6 0 1 0 .848-.849l-1.56-1.56a6.673 6.673 0 1 0-7.713.188m9.198-5.538a5.473 5.473 0 1 1-10.947 0 5.473 5.473 0 0 1 10.947 0m-6.074 0a.6.6 0 0 0 .176.425l2.062 2.061a.6.6 0 0 0 .848-.848L8.632 8.422V5.49a.6.6 0 1 0-1.2 0m6.987-3.936L11.538-.22a.6.6 0 0 0-.63 1.021l2.882 1.774a.6.6 0 0 0 .63-1.022M2.272 2.576L5.154.802a.6.6 0 1 0-.628-1.021L1.644 1.554a.6.6 0 0 0 .629 1.022"/>
</svg>
