<svg xmlns="http://www.w3.org/2000/svg" viewBox="0 0 20 20">
    <path fill="#000" fill-rule="evenodd" d="M4.6,14.2053 C4.269,14.2053 4,13.9363 4,13.6053 C4,13.2743 4.269,13.0063 4.6,13.0063 L8.772,13.0063 C9.104,13.0063 9.372,13.2743 9.372,13.6053 C9.372,13.9363 9.104,14.2053 8.772,14.2053 L4.6,14.2053 L4.6,14.2053 Z M4.6249,10.2009 C4.2939,10.2009 4.0249,9.9319 4.0249,9.6009 C4.0249,9.2689 4.2939,9.0009 4.6249,9.0009 L12.7969,9.0009 C13.1289,9.0009 13.3969,9.2689 13.3969,9.6009 C13.3969,9.9319 13.1289,10.2009 12.7969,10.2009 L4.6249,10.2009 L4.6249,10.2009 Z M4.6249,6.2 C4.2939,6.2 4.0249,5.931 4.0249,5.6 C4.0249,5.268 4.2939,5 4.6249,5 L15.7969,5 C16.1289,5 16.3969,5.268 16.3969,5.6 C16.3969,5.931 16.1289,6.2 15.7969,6.2 L4.6249,6.2 L4.6249,6.2 Z"/>
</svg>
