<svg xmlns="http://www.w3.org/2000/svg" viewBox="0 0 20 20">
    <path fill="#000" fill-rule="evenodd" d="M15.7969,14.2053 C16.1279,14.2053 16.3969,13.9363 16.3969,13.6053 C16.3969,13.2743 16.1279,13.0063 15.7969,13.0063 L11.6249,13.0063 C11.2929,13.0063 11.0249,13.2743 11.0249,13.6053 C11.0249,13.9363 11.2929,14.2053 11.6249,14.2053 L15.7969,14.2053 L15.7969,14.2053 L15.7969,14.2053 Z M15.772,10.2009 C16.103,10.2009 16.372,9.9319 16.372,9.6009 C16.372,9.2689 16.103,9.0009 15.772,9.0009 L7.6,9.0009 C7.268,9.0009 7,9.2689 7,9.6009 C7,9.9319 7.268,10.2009 7.6,10.2009 L15.772,10.2009 L15.772,10.2009 L15.772,10.2009 Z M15.772,6.2 C16.103,6.2 16.372,5.931 16.372,5.6 C16.372,5.268 16.103,5 15.772,5 L4.6,5 C4.268,5 4,5.268 4,5.6 C4,5.931 4.268,6.2 4.6,6.2 L15.772,6.2 L15.772,6.2 L15.772,6.2 Z"/>
</svg>
