<svg xmlns="http://www.w3.org/2000/svg" viewBox="0 0 20 20">
    <path fill="#000" fill-rule="evenodd" d="M8.228,14.2053 C7.897,14.2053 7.628,13.9363 7.628,13.6053 C7.628,13.2743 7.897,13.0063 8.228,13.0063 L12.4,13.0063 C12.732,13.0063 13,13.2743 13,13.6053 C13,13.9363 12.732,14.2053 12.4,14.2053 L8.228,14.2053 L8.228,14.2053 Z M6.228,10.2009 C5.897,10.2009 5.628,9.9319 5.628,9.6009 C5.628,9.2689 5.897,9.0009 6.228,9.0009 L14.4,9.0009 C14.732,9.0009 15,9.2689 15,9.6009 C15,9.9319 14.732,10.2009 14.4,10.2009 L6.228,10.2009 L6.228,10.2009 Z M4.6,6.2 C4.269,6.2 4,5.931 4,5.6 C4,5.268 4.269,5 4.6,5 L15.772,5 C16.104,5 16.372,5.268 16.372,5.6 C16.372,5.931 16.104,6.2 15.772,6.2 L4.6,6.2 L4.6,6.2 Z" transform="matrix(-1 0 0 1 20 0)"/>
</svg>
