<svg xmlns="http://www.w3.org/2000/svg" viewBox="0 0 16 16">
    <path d="M13.973 0C15.091 0 16 .93 16 2.07v7.291a2.05 2.05 0 0 1-2 2.068h-.802v.3c0 1.071-.848 1.94-1.896 1.94H7.269l-2.106 2.15c-.378.386-1.024.113-1.024-.433v-1.718H1.897A1.918 1.918 0 0 1 0 11.73V5.103c0-.968.694-1.77 1.602-1.915V2.071C1.601.93 2.51 0 3.627 0zm-2.671 4.39H1.897a.704.704 0 0 0-.697.713v6.626c0 .394.312.713.697.713h2.842c.331 0 .6.275.6.613v.851l1.257-1.284a.594.594 0 0 1 .424-.18h4.282c.385 0 .697-.319.697-.713V5.103a.704.704 0 0 0-.697-.712zM6.599 9.16c.332 0 .6.274.6.613a.607.607 0 0 1-.6.613H2.708a.607.607 0 0 1-.6-.613c0-.339.268-.613.6-.613zm7.374-7.934H3.628a.837.837 0 0 0-.827.845v1.093h8.501c1.048 0 1.897.868 1.897 1.939V10.2H14l.1-.01a.836.836 0 0 0 .7-.829v-7.29a.837.837 0 0 0-.827-.845zm-3.482 5.279c.331 0 .6.274.6.613a.607.607 0 0 1-.6.613H2.708a.607.607 0 0 1-.6-.613c0-.339.268-.613.6-.613z"/>
</svg>
