<svg xmlns="http://www.w3.org/2000/svg" viewBox="0 0 16 16">
    <path d="M1.601 3.188V2.071C1.601.93 2.511 0 3.628 0h10.345C15.091 0 16 .93 16 2.07v7.291a2.05 2.05 0 0 1-2 2.068H13.2v.3c0 1.071-.85 1.94-1.897 1.94H7.269l-2.106 2.15c-.378.386-1.024.113-1.024-.433v-1.718H1.897A1.918 1.918 0 0 1 0 11.73V5.103c0-.968.694-1.77 1.601-1.915zm1.2-.023h8.501c1.048 0 1.897.867 1.897 1.938V10.2H14a.834.834 0 0 0 .8-.839v-7.29a.837.837 0 0 0-.827-.845H3.628a.837.837 0 0 0-.827.845v1.094zm3.795 9.457a.594.594 0 0 1 .424-.18h4.282c.385 0 .697-.319.697-.713V5.103a.704.704 0 0 0-.697-.712H1.897a.704.704 0 0 0-.697.712v6.626c0 .394.312.713.697.713h2.842c.331 0 .6.275.6.613v.851l1.257-1.284zm-3.888-2.236a.607.607 0 0 1-.6-.613c0-.339.268-.613.6-.613h3.891c.332 0 .6.274.6.613a.607.607 0 0 1-.6.613H2.708zm0-2.655a.607.607 0 0 1-.6-.613c0-.339.268-.613.6-.613h7.783c.331 0 .6.274.6.613a.607.607 0 0 1-.6.613H2.708z"/>
</svg>
