<svg xmlns="http://www.w3.org/2000/svg" viewBox="0 0 16 16">
    <path d="M13.9 12.47a8.758 8.758 0 0 1-.84 1.545 7.814 7.814 0 0 1-1.084 1.34 2.078 2.078 0 0 1-1.392.627c-.357 0-.786-.104-1.287-.314a3.613 3.613 0 0 0-1.385-.313c-.442 0-.916.104-1.423.313-.508.21-.918.32-1.23.33-.477.022-.95-.193-1.424-.643A8.193 8.193 0 0 1 2.7 13.968a9.679 9.679 0 0 1-1.198-2.434A9.088 9.088 0 0 1 1 8.632a5.39 5.39 0 0 1 .68-2.772 4.04 4.04 0 0 1 1.425-1.474A3.769 3.769 0 0 1 5.03 3.83c.378 0 .874.12 1.49.355a4.694 4.694 0 0 0 1.182.355c.129 0 .567-.14 1.31-.419a4.239 4.239 0 0 1 1.78-.323c1.317.109 2.306.64 2.963 1.595-1.176.73-1.76 1.752-1.747 3.062A3.413 3.413 0 0 0 13.093 11c.315.308.682.555 1.083.727a12.47 12.47 0 0 1-.276.742zM10.882.32c0 .8-.286 1.547-.856 2.239-.687.822-1.519 1.297-2.421 1.222a2.544 2.544 0 0 1-.018-.303c0-.769.327-1.59.908-2.263.29-.34.658-.623 1.105-.849A3.238 3.238 0 0 1 10.865 0c.011.107.017.214.017.32z"/>
</svg>
