<svg xmlns="http://www.w3.org/2000/svg" viewBox="0 0 16 16">
    <path d="M10.842 6.702a.823.823 0 0 0 .258-.6V3.394a.819.819 0 0 0-.4-.707L8.4 1.333a.787.787 0 0 0-.8 0L5.3 2.687a.819.819 0 0 0-.4.707v2.708c0 .23.096.447.258.6.048.023.096.049.142.076l2.3 1.354c.053.031.104.064.153.1.16.053.334.053.494 0 .05-.036.1-.069.153-.1l2.3-1.354a1.99 1.99 0 0 1 .142-.076zM8.858 9.298a.823.823 0 0 0-.258.6v2.708c0 .292.152.561.4.707l2.3 1.354a.787.787 0 0 0 .8 0l2.3-1.354a.819.819 0 0 0 .4-.707V9.898a.819.819 0 0 0-.4-.706l-2.3-1.354a.786.786 0 0 0-.647-.07c-.05.036-.1.069-.153.1L9 9.222a1.99 1.99 0 0 1-.142.076zm3.386-2.716c.157.045.31.11.456.196L15 8.132c.619.364 1 1.038 1 1.766v2.708c0 .73-.381 1.402-1 1.767l-2.3 1.354a1.967 1.967 0 0 1-2 0l-2.3-1.354a2.003 2.003 0 0 1-.4-.31 2.003 2.003 0 0 1-.4.31l-2.3 1.354a1.967 1.967 0 0 1-2 0L1 14.373a2.047 2.047 0 0 1-1-1.767V9.898c0-.728.381-1.402 1-1.766l2.3-1.354c.145-.086.299-.151.456-.196a2.077 2.077 0 0 1-.056-.48V3.394c0-.73.381-1.402 1-1.767L7 .273a1.967 1.967 0 0 1 2 0l2.3 1.354c.619.365 1 1.038 1 1.767v2.708c0 .163-.02.324-.056.48zM7.4 12.606V9.898a.823.823 0 0 0-.258-.6A1.99 1.99 0 0 1 7 9.222L4.7 7.868a1.999 1.999 0 0 1-.153-.1.786.786 0 0 0-.647.07L1.6 9.192a.819.819 0 0 0-.4.706v2.708c0 .292.152.561.4.707l2.3 1.354a.787.787 0 0 0 .8 0L7 13.313a.819.819 0 0 0 .4-.707zm1.204-7.508l.012 1.442a.594.594 0 0 1-.603.598.618.618 0 0 1-.614-.609l-.013-1.446-1.231-.698a.594.594 0 0 1-.216-.821.618.618 0 0 1 .834-.228l1.236.7 1.22-.718a.594.594 0 0 1 .82.224.618.618 0 0 1-.22.835l-1.225.721zm-3.7 6.505l.012 1.441a.594.594 0 0 1-.603.598.618.618 0 0 1-.614-.608l-.013-1.447-1.231-.697a.594.594 0 0 1-.216-.822.618.618 0 0 1 .834-.227l1.236.7 1.22-.718a.594.594 0 0 1 .82.223.618.618 0 0 1-.22.836l-1.225.721zm7.4 0l.012 1.441a.594.594 0 0 1-.603.598.618.618 0 0 1-.614-.608l-.013-1.447-1.231-.697a.594.594 0 0 1-.216-.822.618.618 0 0 1 .834-.227l1.236.7 1.22-.718a.594.594 0 0 1 .82.223.618.618 0 0 1-.22.836l-1.225.721z"/>
</svg>
