<svg xmlns="http://www.w3.org/2000/svg" viewBox="0 0 16 16">
    <path d="M9 .273l2.3 1.354c.619.365 1 1.038 1 1.767v2.708c0 .164-.02.325-.056.48.157.045.31.11.456.196L15 8.132c.619.364 1 1.038 1 1.766v2.708c0 .73-.381 1.402-1 1.767l-2.3 1.354a1.967 1.967 0 0 1-2 0l-2.3-1.354a2.003 2.003 0 0 1-.4-.31 1.976 1.976 0 0 1-.4.31l-2.3 1.354a1.967 1.967 0 0 1-2 0L1 14.373a2.047 2.047 0 0 1-1-1.767V9.898c0-.728.381-1.402 1-1.766l2.3-1.354c.146-.086.3-.151.457-.197a2.013 2.013 0 0 1-.057-.48V3.395c0-.73.381-1.402 1-1.767L7 .273a1.967 1.967 0 0 1 2 0zM3.9 7.838L1.6 9.192a.819.819 0 0 0-.4.706v2.708c0 .292.152.561.4.707l2.3 1.354a.787.787 0 0 0 .8 0L7 13.313a.819.819 0 0 0 .4-.707V9.898a.823.823 0 0 0-.265-.606A1.18 1.18 0 0 1 7 9.222L4.7 7.868a1.999 1.999 0 0 1-.146-.095.776.776 0 0 0-.654.065zm7.624-.09l-.078.025a1.999 1.999 0 0 1-.146.095L9 9.222l-.135.07a.823.823 0 0 0-.265.606v2.708c0 .292.152.561.4.707l2.3 1.354a.787.787 0 0 0 .8 0l2.3-1.354a.819.819 0 0 0 .4-.707V9.898a.819.819 0 0 0-.4-.706l-2.3-1.354a.787.787 0 0 0-.576-.09zm-5.176 2.298a.618.618 0 0 1-.22.836l-1.224.72.012 1.442a.594.594 0 0 1-.603.598.618.618 0 0 1-.614-.608l-.013-1.447-1.231-.697a.594.594 0 0 1-.216-.822.618.618 0 0 1 .834-.227l1.235.699 1.22-.717a.594.594 0 0 1 .82.223zm7.4 0a.618.618 0 0 1-.22.836l-1.224.72.012 1.442a.594.594 0 0 1-.603.598.618.618 0 0 1-.614-.608l-.013-1.447-1.231-.697a.594.594 0 0 1-.216-.822.618.618 0 0 1 .834-.227l1.235.699 1.22-.717a.594.594 0 0 1 .82.223zM7.6 1.333L5.3 2.687a.819.819 0 0 0-.4.707v2.708c0 .234.098.453.265.606.047.02.091.044.135.07l2.3 1.354c.05.03.099.061.146.095.164.059.344.059.51.002.045-.036.094-.067.144-.097l2.3-1.354.135-.07a.823.823 0 0 0 .265-.606V3.394a.819.819 0 0 0-.4-.707L8.4 1.333a.787.787 0 0 0-.8 0zm2.448 2.209a.618.618 0 0 1-.22.835l-1.224.721.012 1.442a.594.594 0 0 1-.603.598.618.618 0 0 1-.614-.609l-.013-1.447-1.231-.697a.594.594 0 0 1-.216-.821.618.618 0 0 1 .834-.228l1.235.699 1.22-.717a.594.594 0 0 1 .82.224z"/>
</svg>
