<svg xmlns="http://www.w3.org/2000/svg" viewBox="0 0 16 16">
    <path d="M1.186 4.651v10.536c0 .316.257.572.573.572H14.24a.572.572 0 0 0 .572-.572V4.651h.615A.572.572 0 0 0 16 4.08V.813a.572.572 0 0 0-.572-.572H.572A.572.572 0 0 0 0 .813v3.266c0 .316.256.572.572.572h.614m12.483 9.965H2.33V4.65h11.338v9.965M1.152 1.385h13.725l-.021 2.122H1.152V1.385m7.42 8.585l.952-.952a.572.572 0 0 1 .81.809l-1.93 1.929a.572.572 0 0 1-.809 0l-1.929-1.93a.572.572 0 0 1 .81-.808l.952.952V7.283a.572.572 0 0 1 1.144 0V9.97"/>
</svg>
