<svg xmlns="http://www.w3.org/2000/svg" viewBox="0 0 16 16">
    <path d="M1.2 1a.6.6 0 0 1 .6.6v12.8a.6.6 0 1 1-1.2 0V1.6a.6.6 0 0 1 .6-.6zm11.9 8.2a2.5 2.5 0 0 1 2.5 2.5v.2a2.5 2.5 0 0 1-2.5 2.5h-7a2.5 2.5 0 0 1-2.5-2.5v-.2a2.5 2.5 0 0 1 2.5-2.5h7zm0 1.2h-7a1.3 1.3 0 0 0-1.3 1.3v.2a1.3 1.3 0 0 0 1.3 1.3h7a1.3 1.3 0 0 0 1.3-1.3v-.2a1.3 1.3 0 0 0-1.3-1.3zm0-8.8a2.5 2.5 0 0 1 2.5 2.5v.2a2.5 2.5 0 0 1-2.5 2.5h-7a2.5 2.5 0 0 1-2.5-2.5v-.2a2.5 2.5 0 0 1 2.5-2.5h7zm0 1.2h-7a1.3 1.3 0 0 0-1.3 1.3v.2a1.3 1.3 0 0 0 1.3 1.3h7a1.3 1.3 0 0 0 1.3-1.3v-.2a1.3 1.3 0 0 0-1.3-1.3z"/>
</svg>
