<svg xmlns="http://www.w3.org/2000/svg" viewBox="0 0 16 16">
    <path d="M.6 1.6a.6.6 0 0 1 1.2 0v12.8a.6.6 0 1 1-1.2 0V1.6zm5.5 0h7a2.5 2.5 0 0 1 2.5 2.5v.2a2.5 2.5 0 0 1-2.5 2.5h-7a2.5 2.5 0 0 1-2.5-2.5v-.2a2.5 2.5 0 0 1 2.5-2.5zm0 1.2a1.3 1.3 0 0 0-1.3 1.3v.2a1.3 1.3 0 0 0 1.3 1.3h7a1.3 1.3 0 0 0 1.3-1.3v-.2a1.3 1.3 0 0 0-1.3-1.3h-7zm0 6.4h7a2.5 2.5 0 0 1 2.5 2.5v.2a2.5 2.5 0 0 1-2.5 2.5h-7a2.5 2.5 0 0 1-2.5-2.5v-.2a2.5 2.5 0 0 1 2.5-2.5zm0 1.2a1.3 1.3 0 0 0-1.3 1.3v.2a1.3 1.3 0 0 0 1.3 1.3h7a1.3 1.3 0 0 0 1.3-1.3v-.2a1.3 1.3 0 0 0-1.3-1.3h-7z"/>
</svg>
