<svg xmlns="http://www.w3.org/2000/svg" viewBox="0 0 20 20">
    <path fill="#000" fill-rule="evenodd" d="M3.6,10.522 L15.485,10.522 L10.186,15.82 C9.952,16.055 9.952,16.435 10.186,16.669 C10.421,16.903 10.801,16.903 11.035,16.669 L17.358,10.346 C17.47,10.233 17.534,10.081 17.534,9.922 C17.534,9.763 17.47,9.61 17.358,9.498 L11.035,3.176 C10.918,3.059 10.764,3 10.611,3 C10.457,3 10.304,3.059 10.186,3.176 C9.952,3.41 9.952,3.79 10.186,4.023 L15.485,9.322 L3.6,9.322 C3.268,9.322 3,9.59 3,9.922 C3,10.253 3.268,10.522 3.6,10.522 L3.6,10.522 L3.6,10.522 L3.6,10.522 Z"/>
</svg>
