<svg xmlns="http://www.w3.org/2000/svg" viewBox="0 0 20 20">
    <path fill="#000" fill-rule="evenodd" d="M16.934,9.3225 L5.049,9.3225 L10.348,4.0245 C10.582,3.7895 10.582,3.4095 10.348,3.1755 C10.113,2.9415 9.733,2.9415 9.499,3.1755 L3.176,9.4985 C3.064,9.6115 3,9.7635 3,9.9225 C3,10.0815 3.064,10.2345 3.176,10.3465 L9.499,16.6685 C9.616,16.7855 9.77,16.8445 9.923,16.8445 C10.077,16.8445 10.23,16.7855 10.348,16.6685 C10.582,16.4345 10.582,16.0545 10.348,15.8215 L5.049,10.5225 L16.934,10.5225 C17.266,10.5225 17.534,10.2545 17.534,9.9225 C17.534,9.5915 17.266,9.3225 16.934,9.3225 L16.934,9.3225 Z"/>
</svg>
