<svg xmlns="http://www.w3.org/2000/svg" viewBox="0 0 20 20">
    <path fill="#000" fill-rule="evenodd" d="M10.4482,4.04912814 L10.4482,17.595 C10.4482,17.9263708 10.1795708,18.195 9.8482,18.195 C9.51682915,18.195 9.2482,17.9263708 9.2482,17.595 L9.2482,4.04872814 L5.02426407,8.27266407 C4.78994949,8.50697864 4.41005051,8.50697864 4.17573593,8.27266407 C3.94142136,8.03834949 3.94142136,7.65845051 4.17573593,7.42413593 L9.41479607,2.18507579 C9.52401683,2.07102155 9.67781443,2 9.8482,2 C10.0220263,2 10.178588,2.07391892 10.2881659,2.1920378 L15.5202641,7.42413593 C15.7545786,7.65845051 15.7545786,8.03834949 15.5202641,8.27266407 C15.2859495,8.50697864 14.9060505,8.50697864 14.6717359,8.27266407 L10.4482,4.04912814 L10.4482,4.04912814 Z"/>
</svg>
