<svg xmlns="http://www.w3.org/2000/svg" viewBox="0 0 16 16">
    <path d="M7.919 0c2.089 0 3.789 1.7 3.789 3.789v1.518a3.766 3.766 0 0 1-1.373 2.899c-.25.207-.394.512-.394.837v.518c0 .11.07.21.174.247a.599.599 0 1 1-.403 1.13 1.466 1.466 0 0 1-.971-1.377v-.518c0-.683.302-1.325.828-1.761a2.567 2.567 0 0 0 .939-1.975V3.789a2.591 2.591 0 0 0-5.18 0v1.518c0 .763.346 1.485.946 1.98.524.431.824 1.067.824 1.745v.528c0 .616-.39 1.17-.971 1.377l-3.621 1.292a.99.99 0 0 0-.523.432l-.588 2.861a.6.6 0 1 1-1.175-.243l.605-2.946a.617.617 0 0 1 .05-.146c.255-.51.69-.897 1.228-1.089l3.62-1.291a.263.263 0 0 0 .175-.247v-.528a1.06 1.06 0 0 0-.387-.82 3.757 3.757 0 0 1-1.382-2.905V3.789C4.129 1.7 5.829 0 7.919 0zm5.848 10.626l2.023 2.023a.6.6 0 0 1 0 .848l-2.023 2.023a.6.6 0 0 1-.848-.848l.998-.999H10.1a.6.6 0 0 1 0-1.2h3.818l-1-.999a.6.6 0 0 1 .85-.848z"/>
</svg>
