<svg xmlns="http://www.w3.org/2000/svg" viewBox="0 0 20 20">
    <path fill="#000" fill-rule="evenodd" d="M3,10.26 C3,14.26 6.24,17.5 10.24,17.5 C11.74,17.5 13.14,17.04 14.32,16.24 L13.64,15.26 C12.66,15.92 11.5,16.3 10.26,16.3 C6.92,16.3 4.2,13.58 4.2,10.26 C4.2,6.92 6.92,4.18 10.26,4.18 C13.52,4.18 15.9,6.42 15.9,9.54 C15.9,11.84 14.6,13.1 13.38,13.1 C12.56,13.1 12.18,12.52 12.52,11.4 L13.88,6.64 L12.42,6.64 L12.1,7.34 C11.76,6.86 11.14,6.44 10.3,6.44 C7.74,6.44 6.32,9.08 6.32,11.26 C6.32,13 7.42,13.98 8.74,13.98 C9.66,13.98 10.44,13.5 10.94,12.88 C11.16,13.64 11.86,14.26 13.1,14.26 C14.94,14.26 17.08,12.66 17.08,9.54 C17.08,5.76 14.16,3 10.24,3 C6.24,3 3,6.26 3,10.26 L3,10.26 L3,10.26 L3,10.26 Z M8.04,11.16 C8.04,9.76 8.94,7.84 10.44,7.84 C11.02,7.84 11.44,8.08 11.72,8.36 L10.96,10.96 C10.64,12.1 9.92,12.62 9.18,12.62 C8.46,12.62 8.04,12.08 8.04,11.16 L8.04,11.16 L8.04,11.16 L8.04,11.16 Z"/>
</svg>
