<svg xmlns="http://www.w3.org/2000/svg" viewBox="0 0 16 16">
    <path fill="#000" fill-rule="evenodd" d="M1 8.26a7.238 7.238 0 0 0 11.32 5.98l-.68-.98c-.98.66-2.14 1.04-3.38 1.04-3.34 0-6.06-2.72-6.06-6.04 0-3.34 2.72-6.08 6.06-6.08 3.26 0 5.64 2.24 5.64 5.36 0 2.3-1.3 3.56-2.52 3.56-.82 0-1.2-.58-.86-1.7l1.36-4.76h-1.46l-.32.7c-.34-.48-.96-.9-1.8-.9-2.56 0-3.98 2.64-3.98 4.82 0 1.74 1.1 2.72 2.42 2.72.92 0 1.7-.48 2.2-1.1.22.76.92 1.38 2.16 1.38 1.84 0 3.98-1.6 3.98-4.72C15.08 3.76 12.16 1 8.24 1 4.24 1 1 4.26 1 8.26m5.04.9c0-1.4.9-3.32 2.4-3.32.58 0 1 .24 1.28.52l-.76 2.6c-.32 1.14-1.04 1.66-1.78 1.66-.72 0-1.14-.54-1.14-1.46"/>
</svg>
