<svg xmlns="http://www.w3.org/2000/svg" viewBox="0 0 16 16">
    <path fill="#000" fill-rule="evenodd" d="M.23 8.013a7.989 7.989 0 0 0 12.494 6.6l-.75-1.082a6.65 6.65 0 0 1-3.731 1.148 6.693 6.693 0 0 1-6.689-6.666 6.717 6.717 0 0 1 6.689-6.71c3.598 0 6.225 2.472 6.225 5.915 0 2.539-1.435 3.93-2.782 3.93-.905 0-1.324-.64-.949-1.877l1.501-5.254h-1.611l-.353.773a2.402 2.402 0 0 0-1.987-.993c-2.825 0-4.393 2.913-4.393 5.32 0 1.92 1.214 3.002 2.671 3.002a3.15 3.15 0 0 0 2.428-1.215c.243.84 1.016 1.524 2.384 1.524 2.031 0 4.393-1.766 4.393-5.21C15.77 3.046 12.547 0 8.22 0A8.008 8.008 0 0 0 .23 8.013m5.563.993c0-1.545.993-3.664 2.648-3.664.64 0 1.104.265 1.413.574l-.839 2.87c-.353 1.258-1.147 1.832-1.964 1.832-.795 0-1.258-.596-1.258-1.612"/>
</svg>
