<svg xmlns="http://www.w3.org/2000/svg" viewBox="0 0 16 16">
    <path d="M2.719 1.263V14.33l2.056-1.102a.59.59 0 0 1 .56 0L8 14.657l2.665-1.43a.59.59 0 0 1 .56 0l2.056 1.103V1.263H2.72zm-.33 14.666c-.405.217-.889-.088-.889-.561V.632A.62.62 0 0 1 2.11 0h11.78a.62.62 0 0 1 .61.632v14.736c0 .473-.484.778-.89.56L10.946 14.5 8.28 15.929a.59.59 0 0 1-.56 0l-2.665-1.43-2.666 1.43zm3.773-6.641h1.171V8.51H6.162c-.493 0-.74-.169-.74-.507 0-.33.247-.496.74-.496h.661L5.266 4.976a4.184 4.184 0 0 1-.244-.432.7.7 0 0 1-.058-.286c0-.187.055-.337.164-.45.11-.114.251-.17.425-.17.177 0 .32.055.43.167.109.111.236.291.382.54l1.682 2.73 1.505-2.574c.055-.1.114-.206.177-.316.062-.11.123-.203.182-.28a.726.726 0 0 1 .221-.192.627.627 0 0 1 .315-.076c.174 0 .315.055.425.165.109.11.164.244.164.402a.89.89 0 0 1-.065.345 3.307 3.307 0 0 1-.206.394l-1.5 2.564h.662c.49 0 .734.165.734.496 0 .338-.245.507-.734.507H8.75v.778h1.177c.49 0 .734.169.734.507 0 .33-.245.496-.734.496H8.75v.432c0 .73-.234 1.096-.703 1.096-.476 0-.714-.366-.714-1.096v-.432H6.162c-.493 0-.74-.165-.74-.496 0-.338.247-.507.74-.507z"/>
</svg>
