<svg xmlns="http://www.w3.org/2000/svg" viewBox="0 0 16 16">
    <path fill="#000" fill-rule="evenodd" d="M13.2 0H3.6C2.72 0 2 .72 2 1.6v12.8c0 .88.72 1.6 1.6 1.6h4.761a1.6 1.6 0 0 0 1.131-.468l4.839-4.839c.3-.3.469-.707.469-1.131V1.6c0-.88-.72-1.6-1.6-1.6M9.183 14.144V10.85c0-.216.183-.4.4-.4h3.294l-3.694 3.694M3.2 14.4V1.6c0-.216.183-.4.4-.4h9.6c.217 0 .4.184.4.4v7.65H9.583c-.88 0-1.6.72-1.6 1.6v3.95H3.6a.405.405 0 0 1-.4-.4m5.533-6.64a.6.6 0 1 0 0-1.2H5.066a.6.6 0 1 0 0 1.2h3.667M5.066 4.61h6.667a.6.6 0 0 0 0-1.2H5.066a.6.6 0 1 0 0 1.2"/>
</svg>
