<svg xmlns="http://www.w3.org/2000/svg" viewBox="0 0 20 20">
    <path fill="#000" fill-rule="evenodd" d="M15.2 2H5.6C4.72 2 4 2.72 4 3.6v12.8c0 .88.72 1.6 1.6 1.6h4.761a1.6 1.6 0 0 0 1.131-.468l4.839-4.839c.3-.3.469-.707.469-1.131V3.6c0-.88-.72-1.6-1.6-1.6m-4.017 14.144V12.85c0-.216.183-.4.4-.4h3.294l-3.694 3.694M5.2 16.4V3.6c0-.216.183-.4.4-.4h9.6c.217 0 .4.184.4.4v7.65h-4.017c-.88 0-1.6.72-1.6 1.6v3.95H5.6a.405.405 0 0 1-.4-.4m5.533-6.64a.6.6 0 1 0 0-1.2H7.066a.6.6 0 1 0 0 1.2h3.667M7.066 6.61h6.667a.6.6 0 0 0 0-1.2H7.066a.6.6 0 1 0 0 1.2"/>
</svg>
