<svg xmlns="http://www.w3.org/2000/svg" viewBox="0 0 16 16">
    <path d="M6.938.284a2.14 2.14 0 0 1 2.13 0l5.113 2.934a2.14 2.14 0 0 1 1.075 1.856v5.852a2.14 2.14 0 0 1-1.075 1.856l-5.113 2.934a2.14 2.14 0 0 1-2.13 0l-5.113-2.934A2.14 2.14 0 0 1 .75 10.926V5.074c0-.766.41-1.474 1.075-1.856L6.938.284zm.564.982L2.388 4.201c-.312.18-.505.512-.505.873v5.852c0 .36.193.694.505.873l5.114 2.935c.31.178.692.178 1.002 0l5.113-2.935c.313-.18.506-.512.506-.873V5.074c0-.36-.193-.694-.506-.873L8.504 1.266a1.007 1.007 0 0 0-1.002 0zM8.569 8.44v4.404a.566.566 0 0 1-1.133 0v-4.39l-4.12-2.355a.566.566 0 0 1 .563-.984l4.112 2.35 4.04-2.497a.566.566 0 1 1 .596.964L8.57 8.439z"/>
</svg>
