<svg xmlns="http://www.w3.org/2000/svg" viewBox="0 0 16 16">
    <path d="M14.67 12.336H9.335c0 .4-.266.667-.666.667H7.335c-.4 0-.667-.267-.667-.667H1.334c-.4 0-.667.267-.667.667v2c0 .4.267.667.667.667H14.67c.4 0 .667-.267.667-.667v-2c0-.4-.267-.667-.667-.667M15.337 3h-4.001V1.667c0-.4-.267-.667-.667-.667H5.335c-.4 0-.667.267-.667.667V3H.667C.267 3 0 3.267 0 3.667v6.668c0 .4.267.667.667.667h6.001v-.667c0-.4.267-.666.667-.666h1.334c.4 0 .666.266.666.666v.667h6.002c.4 0 .667-.266.667-.667V3.667c0-.4-.267-.667-.667-.667"/>
</svg>
