<svg xmlns="http://www.w3.org/2000/svg" viewBox="0 0 16 16">
    <path d="M10.512.54c.718 0 1.32.55 1.34 1.227l.025.849h2.102c1.112 0 2.021.909 2.021 2.02v5.017c0 .486-.18.927-.47 1.277v2.506c0 1.11-.91 2.02-2.021 2.02H2.439a2.027 2.027 0 0 1-2.02-2.02v-2.567A2.002 2.002 0 0 1 0 9.653V4.636c0-1.111.91-2.02 2.021-2.02h2.14l.033-.853A1.307 1.307 0 0 1 5.539.54zM1.63 11.634v1.802c0 .438.37.808.808.808h11.07c.439 0 .808-.37.808-.808v-1.797c-.11.019-.222.034-.338.034l-4.605-.001-.017.319a.8.8 0 0 1-.8.754H7.443a.8.8 0 0 1-.8-.754l-.018-.319-4.603.001c-.089 0-.176-.006-.262-.018l-.128-.021zm12.348-7.806H2.02a.82.82 0 0 0-.808.808v5.017c0 .438.37.808.808.808l4.534-.001-.023-.404a.8.8 0 0 1 .753-.845h1.383a.8.8 0 0 1 .8.845l-.024.404h4.535a.82.82 0 0 0 .802-.707l.006-.1V4.636a.82.82 0 0 0-.808-.808zm-3.467-2.076H5.539c-.079 0-.129.044-.135.06l-.03.804h5.29l-.024-.812c-.004-.007-.047-.052-.128-.052z"/>
</svg>
