<svg xmlns="http://www.w3.org/2000/svg" viewBox="0 0 17 17">
    <path d="M14.346 15.003H2.604a.427.427 0 0 1-.421-.42v-2.101h2.726v.666a.632.632 0 0 0 1.263 0v-.666h4.658v.666a.631.631 0 1 0 1.263 0v-.666h2.674v2.1a.427.427 0 0 1-.421.421zM1.763 5.105c0-.228.193-.421.421-.421h12.632c.228 0 .42.193.42.421v5.693a.427.427 0 0 1-.42.42h-2.723v-.937a.632.632 0 0 0-1.263 0v.938H6.172v-.938a.632.632 0 0 0-1.263 0v.938H2.184a.427.427 0 0 1-.42-.421V5.105zm4.165-2.477c.006-.012.046-.046.111-.046h4.972c.068 0 .103.03.103.028l.024.81H5.9l.028-.792zM16.5 5.105a1.69 1.69 0 0 0-1.684-1.684h-2.413l-.026-.85c-.021-.69-.634-1.252-1.366-1.252H6.04c-.742 0-1.344.548-1.37 1.248l-.033.854H2.184A1.69 1.69 0 0 0 .5 5.105v5.693c0 .42.162.802.42 1.098v2.686a1.69 1.69 0 0 0 1.684 1.684h11.742a1.69 1.69 0 0 0 1.684-1.684v-2.625c.289-.303.47-.71.47-1.16V5.106z"/>
</svg>
