<svg xmlns="http://www.w3.org/2000/svg" viewBox="0 0 16 16">
    <path fill="#000" fill-rule="evenodd" d="M14.75 11.625h-5c0 .375-.25.625-.625.625h-1.25c-.375 0-.625-.25-.625-.625h-5c-.375 0-.625.25-.625.625v1.875c0 .375.25.625.625.625h12.5c.375 0 .625-.25.625-.625V12.25c0-.375-.25-.625-.625-.625m.625-8.75h-3.75v-1.25c0-.375-.25-.625-.625-.625H6c-.375 0-.625.25-.625.625v1.25h-3.75c-.375 0-.625.25-.625.625v6.25c0 .375.25.625.625.625H7.25V9.75c0-.375.25-.625.625-.625h1.25c.375 0 .625.25.625.625v.625h5.625c.375 0 .625-.25.625-.625V3.5c0-.375-.25-.625-.625-.625"/>
</svg>
