<svg xmlns="http://www.w3.org/2000/svg" viewBox="0 0 16 16">
    <path d="M11.6 0H4.4a2.603 2.603 0 0 0-2.6 2.6v12.8c0 .332.268.6.6.6h11.2c.332 0 .6-.268.6-.6V2.6c0-1.433-1.166-2.6-2.6-2.6M13 14.8H9.6v-2.987a.6.6 0 0 0-.6-.6H7a.6.6 0 0 0-.6.6V14.8H3V2.6c0-.772.628-1.4 1.4-1.4h7.2c.772 0 1.4.628 1.4 1.4v12.2M6.02 8.037H5.3a.6.6 0 0 0-.6.6v.72a.6.6 0 0 0 .6.6h.72a.6.6 0 0 0 .6-.6v-.72a.6.6 0 0 0-.6-.6m4.68 0h-.72a.6.6 0 0 0-.6.6v.72a.6.6 0 0 0 .6.6h.72a.6.6 0 0 0 .6-.6v-.72a.6.6 0 0 0-.6-.6m-4.68-2.72H5.3a.6.6 0 0 0-.6.6v.72a.6.6 0 0 0 .6.6h.72a.6.6 0 0 0 .6-.6v-.72a.6.6 0 0 0-.6-.6m4.68 0h-.72a.6.6 0 0 0-.6.6v.72a.6.6 0 0 0 .6.6h.72a.6.6 0 0 0 .6-.6v-.72a.6.6 0 0 0-.6-.6M6.02 2.597H5.3a.6.6 0 0 0-.6.6v.72a.6.6 0 0 0 .6.6h.72a.6.6 0 0 0 .6-.6v-.72a.6.6 0 0 0-.6-.6m4.68 0h-.72a.6.6 0 0 0-.6.6v.72a.6.6 0 0 0 .6.6h.72a.6.6 0 0 0 .6-.6v-.72a.6.6 0 0 0-.6-.6"/>
</svg>
