<svg xmlns="http://www.w3.org/2000/svg" viewBox="0 0 20 20">
    <path fill="#000" fill-rule="evenodd" d="M13.6 2H6.4a2.603 2.603 0 0 0-2.6 2.6v12.8c0 .332.268.6.6.6h11.2c.332 0 .6-.268.6-.6V4.6c0-1.433-1.166-2.6-2.6-2.6M15 16.8h-3.4v-2.987a.6.6 0 0 0-.6-.6H9a.6.6 0 0 0-.6.6V16.8H5V4.6c0-.772.628-1.4 1.4-1.4h7.2c.772 0 1.4.628 1.4 1.4v12.2m-6.98-6.764H7.3a.6.6 0 0 0-.6.6v.72a.6.6 0 0 0 .6.6h.72a.6.6 0 0 0 .6-.6v-.72a.6.6 0 0 0-.6-.6m4.68 0h-.72a.6.6 0 0 0-.6.6v.72a.6.6 0 0 0 .6.6h.72a.6.6 0 0 0 .6-.6v-.72a.6.6 0 0 0-.6-.6m-4.68-2.72H7.3a.6.6 0 0 0-.6.6v.72a.6.6 0 0 0 .6.6h.72a.6.6 0 0 0 .6-.6v-.72a.6.6 0 0 0-.6-.6m4.68 0h-.72a.6.6 0 0 0-.6.6v.72a.6.6 0 0 0 .6.6h.72a.6.6 0 0 0 .6-.6v-.72a.6.6 0 0 0-.6-.6M8.02 4.597H7.3a.6.6 0 0 0-.6.6v.72a.6.6 0 0 0 .6.6h.72a.6.6 0 0 0 .6-.6v-.72a.6.6 0 0 0-.6-.6m4.68 0h-.72a.6.6 0 0 0-.6.6v.72a.6.6 0 0 0 .6.6h.72a.6.6 0 0 0 .6-.6v-.72a.6.6 0 0 0-.6-.6"/>
</svg>
