<svg xmlns="http://www.w3.org/2000/svg" viewBox="0 0 16 16">
    <path d="M9.6 16v-4.187a.6.6 0 0 0-.6-.6H7a.6.6 0 0 0-.6.6V16h3.2zm2-16c1.434 0 2.6 1.167 2.6 2.6v12.8a.599.599 0 0 1-.6.6H2.4a.599.599 0 0 1-.6-.6V2.6C1.8 1.167 2.966 0 4.4 0zM6.02 8.036H5.3a.6.6 0 0 0-.6.6v.72a.6.6 0 0 0 .6.6h.72a.6.6 0 0 0 .6-.6v-.72a.6.6 0 0 0-.6-.6zm4.68 0h-.72a.6.6 0 0 0-.6.6v.72a.6.6 0 0 0 .6.6h.72a.6.6 0 0 0 .6-.6v-.72a.6.6 0 0 0-.6-.6zm-4.68-2.72H5.3a.6.6 0 0 0-.6.6v.72a.6.6 0 0 0 .6.6h.72a.6.6 0 0 0 .6-.6v-.72a.6.6 0 0 0-.6-.6zm4.68 0h-.72a.6.6 0 0 0-.6.6v.72a.6.6 0 0 0 .6.6h.72a.6.6 0 0 0 .6-.6v-.72a.6.6 0 0 0-.6-.6zM6.02 2.597H5.3a.6.6 0 0 0-.6.6v.72a.6.6 0 0 0 .6.6h.72a.6.6 0 0 0 .6-.6v-.72a.6.6 0 0 0-.6-.6zm4.68 0h-.72a.6.6 0 0 0-.6.6v.72a.6.6 0 0 0 .6.6h.72a.6.6 0 0 0 .6-.6v-.72a.6.6 0 0 0-.6-.6z"/>
</svg>
