<svg xmlns="http://www.w3.org/2000/svg" viewBox="0 0 16 16">
    <path d="M9.333 14.667H6.667c-.4 0-.667.266-.667.666s.267.667.667.667h2.666c.4 0 .667-.267.667-.667s-.267-.666-.667-.666M8 3.333A4.638 4.638 0 0 0 3.333 8c0 1.8 1.067 3.467 2.667 4.2v1.133c0 .4.267.667.667.667h2.666c.4 0 .667-.267.667-.667V12.2A4.652 4.652 0 0 0 12.667 8c0-2.6-2.067-4.667-4.667-4.667m-6 4H.667C.267 7.333 0 7.6 0 8s.267.667.667.667H2c.4 0 .667-.267.667-.667S2.4 7.333 2 7.333M4.2 4.2a.644.644 0 0 0 0-.933l-.933-.934a.644.644 0 0 0-.934 0 .644.644 0 0 0 0 .934l.934.933a.72.72 0 0 0 .466.2.72.72 0 0 0 .467-.2M8 2.667c.4 0 .667-.267.667-.667V.667C8.667.267 8.4 0 8 0s-.667.267-.667.667V2c0 .4.267.667.667.667m5.667-.334a.644.644 0 0 0-.934 0l-.933.934a.644.644 0 0 0 0 .933.72.72 0 0 0 .467.2.72.72 0 0 0 .466-.2l.934-.933a.644.644 0 0 0 0-.934m1.666 5H14c-.4 0-.667.267-.667.667s.267.667.667.667h1.333c.4 0 .667-.267.667-.667s-.267-.667-.667-.667"/>
</svg>
