<svg xmlns="http://www.w3.org/2000/svg" viewBox="0 0 16 16">
    <path fill="#000" fill-rule="evenodd" d="M12 1H4c-1.133 0-2 .867-2 2v10c0 .4.267.667.667.667V15c0 .4.266.667.666.667h2c.4 0 .667-.267.667-.667v-1.333h4V15c0 .4.267.667.667.667h2c.4 0 .666-.267.666-.667v-1.333c.4 0 .667-.267.667-.667V3c0-1.133-.867-2-2-2M6 11.667H4.667C4.267 11.667 4 11.4 4 11s.267-.667.667-.667H6c.4 0 .667.267.667.667s-.267.667-.667.667M3.333 3.222c0-.49.401-.889.895-.889h7.544c.494 0 .895.398.895.89V7H3.333V3.222M.667 5.667c-.4 0-.667.266-.667.666v2c0 .4.267.667.667.667s.666-.267.666-.667v-2c0-.4-.266-.666-.666-.666m14.666 0c-.4 0-.666.266-.666.666v2c0 .4.266.667.666.667S16 8.733 16 8.333v-2c0-.4-.267-.666-.667-.666"/>
</svg>
