<svg xmlns="http://www.w3.org/2000/svg" viewBox="0 0 16 16">
    <path d="M13.82 14.8H2.58a.403.403 0 0 1-.395-.4V6.282h12.03V14.4c0 .217-.18.4-.394.4zM2.58 2.612h1.816v.426c0 .33.265.6.592.6a.596.596 0 0 0 .592-.6v-.426h5.24v.426c0 .33.265.6.592.6a.596.596 0 0 0 .592-.6v-.426h1.817c.214 0 .394.183.394.4v2.07H2.185v-2.07c0-.217.18-.4.394-.4zM11.411 0c.327 0 .592.269.592.6v.812h1.817c.868 0 1.579.72 1.579 1.6V14.4c0 .88-.71 1.6-1.58 1.6H2.58C1.71 16 1 15.28 1 14.4V3.012c0-.88.71-1.6 1.58-1.6h1.816V.6c0-.331.265-.6.592-.6.327 0 .592.269.592.6v.812h5.24V.6c0-.331.265-.6.592-.6zm-.284 8.956a.576.576 0 0 0-.815 0l-2.559 2.556-1.26-1.238a.576.576 0 1 0-.807.822l1.667 1.638c.226.221.587.22.811-.004l2.962-2.96a.576.576 0 0 0 0-.814z"/>
</svg>
