<svg xmlns="http://www.w3.org/2000/svg" viewBox="0 0 20 20">
    <path fill="#000" fill-rule="evenodd" d="M15.588 3.412h-1.44V2.6a.6.6 0 1 0-1.2 0v.812H7.64V2.6a.6.6 0 1 0-1.2 0v.812H5c-1.1 0-2 .9-2 2V16c0 1.1.9 2 2 2h10.588c1.1 0 2-.9 2-2V5.412c0-1.1-.9-2-2-2m0 13.388H5a.81.81 0 0 1-.8-.8V8.282h12.188V16a.81.81 0 0 1-.8.8M5 4.612h1.44v.426a.6.6 0 0 0 1.2 0v-.426h5.308v.426a.6.6 0 1 0 1.2 0v-.426h1.44c.434 0 .8.366.8.8v1.67H4.2v-1.67c0-.434.366-.8.8-.8M7.231 9.5h-.437a1 1 0 0 0-1 1v.437a1 1 0 0 0 1 1h.437a1 1 0 0 0 1-1V10.5a1 1 0 0 0-1-1"/>
</svg>
