<svg xmlns="http://www.w3.org/2000/svg" viewBox="0 0 20 20">
    <path fill="#000" fill-rule="evenodd" d="M11.891 3H8.108c-.666 0-1.263.414-1.498 1.038l-.319.851H3.6c-.88 0-1.6.72-1.6 1.6v8.8c0 .88.72 1.6 1.6 1.6h12.8c.88 0 1.6-.72 1.6-1.6v-8.8c0-.88-.72-1.6-1.6-1.6h-2.692l-.319-.851A1.6 1.6 0 0 0 11.891 3m0 1.2c.166 0 .316.104.375.26l.319.85c.175.469.623.779 1.123.779H16.4c.217 0 .4.183.4.4v8.8c0 .217-.183.4-.4.4H3.6a.405.405 0 0 1-.4-.4v-8.8c0-.217.183-.4.4-.4h2.691a1.2 1.2 0 0 0 1.124-.779l.319-.85a.401.401 0 0 1 .374-.26h3.783M10 7.456a3.433 3.433 0 1 0 0 6.866 3.433 3.433 0 0 0 0-6.866m0 1.2a2.236 2.236 0 1 1-.006 4.472A2.236 2.236 0 0 1 10 8.656m5.6-.724a.8.8 0 1 1-1.6 0 .8.8 0 0 1 1.6 0"/>
</svg>
