<svg xmlns="http://www.w3.org/2000/svg" viewBox="0 0 17 17">
    <path d="M12.025 1.713c.935 0 1.7.765 1.7 1.7v1.89h.9c.825 0 1.5.675 1.5 1.5v8.262a.75.75 0 0 1-1.2.6l-1.813-1.362H5.625c-.825 0-1.5-.675-1.5-1.5v-.89h-.586l-2.054 1.543a.845.845 0 0 1-.89.08.85.85 0 0 1-.47-.76V3.413c0-.935.765-1.7 1.7-1.7zm2.6 4.79h-.9v3.71c0 .936-.765 1.7-1.7 1.7h-6.7v.89c0 .163.137.3.3.3h7.487c.26 0 .513.085.72.24l1.093.82v-7.36c0-.162-.137-.3-.3-.3zm-2.6-3.59h-10.2c-.271 0-.5.229-.5.5v8.663l1.494-1.122c.208-.156.46-.241.72-.241h8.486c.27 0 .5-.228.5-.5v-6.8c0-.271-.23-.5-.5-.5zm-5.16 4.71a.6.6 0 1 1 0 1.2H3.558a.6.6 0 1 1 0-1.2zm3.31-2.924a.6.6 0 1 1 0 1.2H3.557a.6.6 0 1 1 0-1.2z"/>
</svg>
