<svg xmlns="http://www.w3.org/2000/svg" viewBox="0 0 17 17">
    <path d="M6.668 12.018c.615 0 1.206-.082 1.76-.232a.857.857 0 0 0 .534.726 7.793 7.793 0 0 1-2.306.345c-.727 0-1.412-.182-2.08-.28-.07-.01-.182.086-.253.14a5.5 5.5 0 0 1-1.033.624c-.19.072-.58.145-1.028-.17 0 0-.367-.234-.275-1.089 0 0 .059-.298.126-.504.01-.028.066-.128.036-.2C.865 10.38.062 8.962.062 7.388c0-3.02 2.952-5.47 6.594-5.47 3.641 0 6.593 2.45 6.593 5.47 0 .057-.003.114-.005.17a.909.909 0 0 0-.93-.131l.002-.071c0-2.575-2.529-4.663-5.648-4.663-3.119 0-5.647 2.088-5.647 4.663 0 1.364.71 2.592 1.842 3.445.11.083.248.142.318.261.058.1-.219 1.347-.219 1.347s1.018-.723 1.349-.754c.172-.016.281.039.396.074a6.712 6.712 0 0 0 1.961.289zm4.208-.247l-.002.003a.893.893 0 0 1-.81.502.874.874 0 0 1-.891-.855c0-.437.341-.796.782-.848.134-.03.357-.09.588-.19.276-.121.745-.364 1.001-.658a.195.195 0 0 1 .28-.02.18.18 0 0 1 .06.134.18.18 0 0 1-.067.138s-.684.743-.794 1.115c-.027.091-.047.247-.072.392a.824.824 0 0 1-.075.287zm2.126 1.315a.854.854 0 0 1 .522.778.874.874 0 0 1-.89.855.879.879 0 0 1-.884-.75 3.059 3.059 0 0 0-.199-.565 2.948 2.948 0 0 0-.685-.961.18.18 0 0 1-.072-.143.18.18 0 0 1 .052-.126.194.194 0 0 1 .283.007s.774.656 1.162.762c.095.026.257.045.408.07a.917.917 0 0 1 .3.072l.003.001zm2.156-2.598a.875.875 0 0 1 .904.842.867.867 0 0 1-.768.859 3.374 3.374 0 0 0-.585.199c-.274.124-.74.374-.991.672a.195.195 0 0 1-.28.023.18.18 0 0 1-.062-.132c0-.056.025-.105.065-.14 0 0 .672-.752.777-1.126.025-.091.042-.247.065-.393a.82.82 0 0 1 .071-.288l.002-.003a.891.891 0 0 1 .802-.513zm-2.772-2.37a.889.889 0 0 1 1.083.72c.033.13.097.343.204.563.128.264.386.712.695.955a.18.18 0 0 1 .073.142.18.18 0 0 1-.051.127.194.194 0 0 1-.283-.004s-.78-.65-1.17-.752c-.094-.025-.257-.043-.408-.065a.915.915 0 0 1-.3-.07l-.004-.002a.848.848 0 0 1-.512-.956.853.853 0 0 1 .673-.659z"/>
</svg>
