<svg xmlns="http://www.w3.org/2000/svg" viewBox="0 0 16 16">
    <path d="M13.8 0H2.2C.987 0 0 .987 0 2.2v8c0 1.214.987 2.2 2.2 2.2h2.905v2.214a.601.601 0 0 0 1.025.425l2.814-2.814a.601.601 0 0 0-.849-.85l-1.79 1.791V11.8a.599.599 0 0 0-.6-.599H2.2c-.551 0-1-.45-1-1.001v-8c0-.552.449-1 1-1h11.6c.551 0 1 .448 1 1v4.776a.6.6 0 0 0 1.2 0V2.2C16 .987 15.013 0 13.8 0m1.6 11.203h-1.8v-1.8a.6.6 0 1 0-1.2 0v1.8h-1.8a.6.6 0 0 0 0 1.199h1.8v1.8a.6.6 0 0 0 1.2 0v-1.8h1.8a.599.599 0 1 0 0-1.2M3.2 7.238a.6.6 0 1 0 0 1.2H8a.6.6 0 1 0 0-1.2H3.2m10.2-2.604a.6.6 0 0 0-.6-.6H3.2a.6.6 0 1 0 0 1.2h9.6a.6.6 0 0 0 .6-.6"/>
</svg>
