<svg xmlns="http://www.w3.org/2000/svg" viewBox="0 0 20 20">
    <path fill="#000" fill-rule="evenodd" d="M15.8 2H4.2C2.987 2 2 2.987 2 4.2v8c0 1.214.987 2.2 2.2 2.2h2.905v2.214a.601.601 0 0 0 1.025.425l2.814-2.814a.601.601 0 0 0-.849-.85l-1.79 1.791V13.8a.599.599 0 0 0-.6-.599H4.2c-.551 0-1-.45-1-1.001v-8c0-.552.449-1 1-1h11.6c.551 0 1 .448 1 1v4.776a.6.6 0 0 0 1.2 0V4.2c0-1.213-.987-2.2-2.2-2.2m1.6 11.203h-1.8v-1.8a.6.6 0 1 0-1.2 0v1.8h-1.8a.6.6 0 0 0 0 1.199h1.8v1.8a.6.6 0 0 0 1.2 0v-1.8h1.8a.599.599 0 1 0 0-1.2M5.2 9.238a.6.6 0 1 0 0 1.2H10a.6.6 0 1 0 0-1.2H5.2m10.2-2.604a.6.6 0 0 0-.6-.6H5.2a.6.6 0 1 0 0 1.2h9.6a.6.6 0 0 0 .6-.6"/>
</svg>
