<svg xmlns="http://www.w3.org/2000/svg" viewBox="0 0 17 17">
    <path d="M14.625 5.303h-.9v-1.89c0-.935-.765-1.7-1.7-1.7h-10.2c-.935 0-1.7.765-1.7 1.7v9.363a.85.85 0 0 0 1.36.68l2.054-1.543h.586v.89c0 .825.675 1.5 1.5 1.5h7.487l1.813 1.362a.751.751 0 0 0 1.2-.6V6.803c0-.825-.675-1.5-1.5-1.5zm.3 4.812v4.048l-1.092-.82a1.202 1.202 0 0 0-.721-.24H5.625a.304.304 0 0 1-.3-.3v-.89h6.7c.935 0 1.7-.764 1.7-1.7v-3.71h.9c.163 0 .3.138.3.3v3.312zm-12.106.839l-1.494 1.122V3.413c0-.271.229-.5.5-.5h10.2c.27 0 .5.229.5.5v6.8c0 .272-.23.5-.5.5H3.539c-.26 0-.512.085-.72.24zm7.356-6.255H3.557a.6.6 0 0 0 0 1.2h6.618a.6.6 0 1 0 0-1.2zm-3.31 2.923H3.558a.6.6 0 0 0 0 1.2h3.309a.6.6 0 1 0 0-1.2z"/>
</svg>
