<svg xmlns="http://www.w3.org/2000/svg" viewBox="0 0 16 16">
    <path d="M14.875.078c.313 0 .578.115.797.344.219.229.328.51.328.844v7.906a1.123 1.123 0 0 1-1.125 1.156h-.438v1.375c0 .521-.182.964-.546 1.328a1.772 1.772 0 0 1-1.297.547h-3L6.75 15.766a.75.75 0 0 1-.438.156c-.02 0-.036-.005-.046-.016-.01-.01-.037-.015-.079-.015a.684.684 0 0 1-.468-.313l-1.25-2H1.844c-.5 0-.933-.182-1.297-.547A1.808 1.808 0 0 1 0 11.703V3.391c0-.542.182-.995.547-1.36a1.772 1.772 0 0 1 1.297-.547h2.031v-.218c0-.334.11-.615.328-.844A1.06 1.06 0 0 1 5 .078h9.875zM13 3.391a.478.478 0 0 0-.125-.329.37.37 0 0 0-.281-.14H1.844a.37.37 0 0 0-.282.14.478.478 0 0 0-.125.329v8.312c0 .292.136.438.407.438h3.031c.27 0 .469.114.594.343L6.5 14.141l2.438-1.844a.714.714 0 0 1 .406-.156h3.25c.27 0 .406-.146.406-.438V3.391zM4.125 5.67h6.281v1.126H4.125V5.672zm0 2.97h6.281v1.093H4.125V8.641z"/>
</svg>
