<svg xmlns="http://www.w3.org/2000/svg" viewBox="0 0 17 17">
    <path d="M10.985 12.117c.039 0 .074.01.104.03l.04.034.012.01c.097.08.79.654 1.15.752.095.026.257.045.408.07a.917.917 0 0 1 .3.072l.003.001a.854.854 0 0 1 .522.778.874.874 0 0 1-.89.855.879.879 0 0 1-.884-.75 3.317 3.317 0 0 0-.756-1.409l-.128-.117-.038-.04a.175.175 0 0 1 .018-.23.194.194 0 0 1 .139-.056zM6.655 1.919c3.642 0 6.594 2.448 6.594 5.469 0 .057-.003.114-.005.17a.909.909 0 0 0-.93-.131l.002-.071c0-2.575-2.529-4.663-5.648-4.663-3.119 0-5.647 2.088-5.647 4.663 0 1.364.71 2.592 1.842 3.445.11.083.248.142.318.261.058.1-.219 1.347-.219 1.347s1.018-.723 1.349-.754c.172-.016.281.039.396.074a6.712 6.712 0 0 0 3.72.057.857.857 0 0 0 .535.726 7.793 7.793 0 0 1-2.306.345c-.727 0-1.412-.182-2.08-.28-.07-.01-.182.086-.253.14a5.5 5.5 0 0 1-1.033.624c-.19.072-.58.145-1.028-.17 0 0-.367-.234-.275-1.089 0 0 .059-.298.126-.504.01-.028.066-.128.036-.2C.865 10.38.062 8.962.062 7.388c0-3.02 2.952-5.47 6.594-5.47zm8.503 8.569a.875.875 0 0 1 .904.842.867.867 0 0 1-.768.859 3.374 3.374 0 0 0-.585.199c-.274.124-.74.374-.991.672l-.04.037a.195.195 0 0 1-.24-.014.18.18 0 0 1-.062-.132c0-.056.025-.105.065-.14l.01-.01c.083-.095.67-.769.767-1.116.025-.091.042-.247.065-.393a.82.82 0 0 1 .071-.288l.002-.003a.891.891 0 0 1 .802-.513zm-3.465-.833c.051 0 .097.02.132.05a.18.18 0 0 1 .06.134.175.175 0 0 1-.032.1l-.036.038-.01.011c-.084.094-.682.759-.784 1.104-.027.091-.047.247-.072.392a.824.824 0 0 1-.075.287l-.002.003a.893.893 0 0 1-.81.502.874.874 0 0 1-.891-.855c0-.437.341-.796.782-.848a3.498 3.498 0 0 0 1.468-.726l.121-.122a.194.194 0 0 1 .15-.07zm1.776-.816a3.323 3.323 0 0 0 .77 1.402l.129.115.038.039a.175.175 0 0 1-.016.23.194.194 0 0 1-.243.03l-.04-.034-.012-.01c-.098-.08-.796-.647-1.157-.742-.095-.025-.258-.043-.41-.065a.915.915 0 0 1-.3-.07l-.003-.002a.848.848 0 0 1-.512-.956.853.853 0 0 1 .673-.659.889.889 0 0 1 1.083.722z"/>
</svg>
