<svg xmlns="http://www.w3.org/2000/svg" viewBox="0 0 17 17">
    <path d="M6.668 12.018c-.69 0-1.35-.102-1.96-.289-.116-.035-.225-.09-.397-.074-.33.03-1.349.754-1.349.754s.277-1.246.219-1.347c-.07-.12-.207-.178-.318-.261-1.132-.853-1.842-2.08-1.842-3.445 0-2.575 2.528-4.663 5.647-4.663 3.12 0 5.648 2.088 5.648 4.663l-.002.07a.917.917 0 0 1 .93.132c.002-.056.005-.113.005-.17 0-3.02-2.952-5.47-6.593-5.47-3.642 0-6.594 2.45-6.594 5.47 0 1.574.803 2.992 2.087 3.99.03.072-.027.172-.036.2a5.33 5.33 0 0 0-.126.504c-.092.855.275 1.09.275 1.09.448.314.839.241 1.028.169a5.5 5.5 0 0 0 1.033-.623c.071-.055.183-.15.254-.14.667.097 1.352.279 2.079.279.811 0 1.588-.123 2.306-.345a.857.857 0 0 1-.534-.726 6.737 6.737 0 0 1-1.76.232zm4.208-.247a.824.824 0 0 0 .075-.287c.025-.145.045-.3.072-.392.11-.372.794-1.114.794-1.114a.18.18 0 0 0 .067-.14.18.18 0 0 0-.06-.132.195.195 0 0 0-.28.019 3.083 3.083 0 0 1-1.001.657c-.23.1-.454.16-.588.19a.868.868 0 0 0-.782.849c0 .472.399.855.89.855.361 0 .67-.206.811-.502l.002-.003zm2.126 1.315l-.003-.001a.917.917 0 0 0-.3-.073c-.151-.024-.313-.043-.408-.069-.388-.106-1.162-.762-1.162-.762a.194.194 0 0 0-.283-.007.18.18 0 0 0-.052.126.18.18 0 0 0 .072.143c.307.246.56.696.685.961.105.221.167.435.199.564.054.423.428.75.883.75.492 0 .891-.382.891-.854a.854.854 0 0 0-.522-.778zm2.156-2.598a.891.891 0 0 0-.802.513l-.002.003a.82.82 0 0 0-.07.288c-.024.146-.04.302-.066.393-.105.374-.777 1.126-.777 1.126a.179.179 0 0 0-.065.14c.001.052.025.1.062.132a.195.195 0 0 0 .28-.023c.252-.298.717-.548.99-.672.23-.104.452-.167.586-.2a.867.867 0 0 0 .768-.858.875.875 0 0 0-.904-.842zm-2.772-2.37a.853.853 0 0 0-.673.658.848.848 0 0 0 .512.956l.004.002c.092.039.193.063.3.07.151.022.314.04.409.065.389.102 1.169.752 1.169.752a.194.194 0 0 0 .283.004.18.18 0 0 0 .051-.127.18.18 0 0 0-.074-.142 2.953 2.953 0 0 1-.694-.955 3.068 3.068 0 0 1-.204-.562.889.889 0 0 0-1.083-.722z"/>
</svg>
