<svg xmlns="http://www.w3.org/2000/svg" viewBox="0 0 20 20">
    <path fill="#000" fill-rule="evenodd" d="M15,3 L5,3 C3.9,3 3,3.9 3,5 L3,15 C3,16.1 3.9,17 5,17 L15,17 C16.1,17 17,16.1 17,15 L17,5 C17,3.9 16.1,3 15,3 L15,3 Z M15,4.2 C15.434,4.2 15.8,4.566 15.8,5 L15.8,15 C15.8,15.434 15.434,15.8 15,15.8 L5,15.8 C4.566,15.8 4.2,15.434 4.2,15 L4.2,5 C4.2,4.566 4.566,4.2 5,4.2 L15,4.2 L15,4.2 Z M8.924,12.9336 C8.765,12.9336 8.612,12.8706 8.5,12.7576 L5.985,10.2436 C5.751,10.0086 5.751,9.6286 5.985,9.3946 C6.219,9.1606 6.599,9.1606 6.834,9.3946 L8.924,11.4846 L13.166,7.2426 C13.401,7.0076 13.78,7.0076 14.015,7.2426 C14.249,7.4766 14.249,7.8566 14.015,8.0906 L9.348,12.7576 C9.236,12.8706 9.083,12.9336 8.924,12.9336 L8.924,12.9336 Z"/>
</svg>
