<svg xmlns="http://www.w3.org/2000/svg" viewBox="0 0 16 16">
    <path fill="#000" fill-rule="evenodd" d="M13.714 0H2.286A2.292 2.292 0 0 0 0 2.286v11.428A2.292 2.292 0 0 0 2.286 16h11.428A2.292 2.292 0 0 0 16 13.714V2.286A2.292 2.292 0 0 0 13.714 0m0 1.371c.496 0 .915.419.915.915v11.428a.926.926 0 0 1-.915.915H2.286a.926.926 0 0 1-.915-.915V2.286c0-.496.419-.915.915-.915h11.428M6.77 11.353a.682.682 0 0 1-.484-.201L3.41 8.278a.687.687 0 0 1 .97-.97l2.39 2.389 4.847-4.848a.685.685 0 1 1 .97.969l-5.333 5.334a.682.682 0 0 1-.485.2"/>
</svg>
