<svg xmlns="http://www.w3.org/2000/svg" viewBox="0 0 20 20">
    <path fill="#000" fill-rule="evenodd" d="M10.0004,1.9996 C5.5814,1.9996 2.0004,5.5816 2.0004,9.9996 C2.0004,14.4186 5.5814,17.9996 10.0004,17.9996 C14.4184,17.9996 18.0004,14.4186 18.0004,9.9996 C18.0004,5.5816 14.4184,1.9996 10.0004,1.9996 L10.0004,1.9996 L10.0004,1.9996 L10.0004,1.9996 Z M12.7814,11.9326 C13.0154,12.1666 13.0154,12.5466 12.7814,12.7816 C12.6644,12.8986 12.5104,12.9566 12.3574,12.9566 C12.2034,12.9566 12.0504,12.8986 11.9324,12.7816 L10.0004,10.8486 L8.0674,12.7816 C7.9504,12.8986 7.7964,12.9566 7.6434,12.9566 C7.4894,12.9566 7.3364,12.8986 7.2194,12.7816 C6.9844,12.5466 6.9844,12.1666 7.2194,11.9326 L9.1514,9.9996 L7.2194,8.0676 C6.9844,7.8326 6.9844,7.4536 7.2194,7.2186 C7.4534,6.9846 7.8334,6.9846 8.0674,7.2186 L10.0004,9.1516 L11.9324,7.2186 C12.1674,6.9846 12.5474,6.9846 12.7814,7.2186 C13.0154,7.4536 13.0154,7.8326 12.7814,8.0676 L10.8484,9.9996 L12.7814,11.9326 L12.7814,11.9326 L12.7814,11.9326 L12.7814,11.9326 Z"/>
</svg>
