<svg xmlns="http://www.w3.org/2000/svg" viewBox="0 0 17 17">
    <path d="M4.092 14.5a7.425 7.425 0 0 0 4.542 1.483 5.958 5.958 0 0 0 3.78-1.446 2.881 2.881 0 0 0 2.272-5.278c-.209-2.641-1.686-4.728-3.605-5.7l.003-.134a2.884 2.884 0 1 0-5.754.287C3.28 4.74 1.914 6.749 1.714 9.259A2.883 2.883 0 0 0 4.092 14.5zM2.875 8.921a5.475 5.475 0 0 1 2.788-4.124 2.883 2.883 0 0 0 5.139-.127c1.392.802 2.448 2.352 2.723 4.251a2.884 2.884 0 0 0-2.149 5.01 4.745 4.745 0 0 1-2.742.936 6.437 6.437 0 0 1-3.526-1.016 2.884 2.884 0 0 0-2.233-4.93zm-1.559 2.876a1.767 1.767 0 1 1 3.535 0 1.767 1.767 0 0 1-3.535 0zm10.233 0a1.767 1.767 0 1 1 3.535 0 1.767 1.767 0 0 1-3.535 0zM6.433 3.425a1.767 1.767 0 1 1 3.534 0 1.767 1.767 0 0 1-3.534 0z"/>
</svg>
