<svg xmlns="http://www.w3.org/2000/svg" viewBox="0 0 20 20">
    <path fill="#000" fill-rule="evenodd" d="M10,2 C5.582,2 2,5.582 2,10 C2,14.418 5.582,18 10,18 C14.418,18 18,14.418 18,10 C18,5.582 14.418,2 10,2 L10,2 Z M10,3.2 C13.75,3.2 16.8,6.25 16.8,10 C16.8,13.75 13.75,16.8 10,16.8 C6.25,16.8 3.2,13.75 3.2,10 C3.2,6.25 6.25,3.2 10,3.2 L10,3.2 Z M10.0006,11.6564 C9.6686,11.6564 9.4006,11.3874 9.4006,11.0564 L9.4006,6.2564 C9.4006,5.9254 9.6686,5.6564 10.0006,5.6564 C10.3326,5.6564 10.6006,5.9254 10.6006,6.2564 L10.6006,11.0564 C10.6006,11.3874 10.3326,11.6564 10.0006,11.6564 L10.0006,11.6564 Z M10.8,13.5436 C10.8,13.9856 10.442,14.3436 10,14.3436 C9.558,14.3436 9.2,13.9856 9.2,13.5436 C9.2,13.1016 9.558,12.7436 10,12.7436 C10.442,12.7436 10.8,13.1016 10.8,13.5436 L10.8,13.5436 Z" transform="matrix(1 0 0 -1 0 20)"/>
</svg>
