<svg xmlns="http://www.w3.org/2000/svg" viewBox="0 0 20 20">
    <path fill="#000" fill-rule="evenodd" d="M10,18 C5.582,18 2,14.418 2,10 C2,5.582 5.582,2 10,2 C14.418,2 18,5.582 18,10 C18,14.418 14.418,18 10,18 L10,18 Z M6.1476936,10.9440908 C6.04951092,11.0422735 6,11.1715054 6,11.2998982 C6,11.4282909 6.04951092,11.5575228 6.1476936,11.6557055 C6.34321978,11.85291 6.66210369,11.85291 6.85846904,11.6557055 L10.0003147,8.51553815 L13.140482,11.6557055 C13.3368474,11.85291 13.6557313,11.85291 13.8520966,11.6557055 C14.0493011,11.4593401 14.0493011,11.1404562 13.8520966,10.9440908 L10.356122,7.44727707 C10.1597566,7.25091171 9.84087273,7.25091171 9.64366821,7.44727707"/>
</svg>
