<svg xmlns="http://www.w3.org/2000/svg" viewBox="0 0 20 20">
    <path fill="#000" fill-rule="evenodd" d="M10,2 C5.582,2 2,5.582 2,10 C2,14.418 5.582,18 10,18 C14.418,18 18,14.418 18,10 C18,5.582 14.418,2 10,2 L10,2 Z M10,3.2 C13.75,3.2 16.8,6.25 16.8,10 C16.8,13.75 13.75,16.8 10,16.8 C6.25,16.8 3.2,13.75 3.2,10 C3.2,6.25 6.25,3.2 10,3.2 L10,3.2 Z M10.0001,12.6011 C9.8411,12.6011 9.6881,12.5381 9.5761,12.4251 L7.1741,10.0241 C6.9401,9.7891 6.9401,9.4101 7.1741,9.1751 C7.4091,8.9411 7.7891,8.9411 8.0231,9.1751 L10.0001,11.1521 L11.9771,9.1751 C12.2111,8.9421 12.5911,8.9411 12.8251,9.1751 C13.0601,9.4101 13.0601,9.7891 12.8251,10.0241 L10.4241,12.4251 C10.3121,12.5381 10.1591,12.6011 10.0001,12.6011 L10.0001,12.6011 Z"/>
</svg>
