<svg xmlns="http://www.w3.org/2000/svg" viewBox="0 0 20 20">
    <path fill="#000" fill-rule="evenodd" d="M18,10 C18,5.582 14.418,2 10,2 C5.582,2 2,5.582 2,10 C2,14.418 5.582,18 10,18 C14.418,18 18,14.418 18,10 L18,10 L18,10 L18,10 Z M6.4856,10.5998 C6.1536,10.5998 5.8856,10.3308 5.8856,9.9998 C5.8856,9.6678 6.1536,9.3998 6.4856,9.3998 L12.0666,9.3998 L9.7576,7.0908 C9.5236,6.8568 9.5236,6.4758 9.7576,6.2428 C9.8746,6.1258 10.0286,6.0668 10.1816,6.0668 C10.3356,6.0668 10.4886,6.1258 10.6066,6.2428 L13.9396,9.5758 C14.1736,9.8098 14.1736,10.1898 13.9396,10.4238 L10.6066,13.7578 C10.3716,13.9918 9.9916,13.9918 9.7576,13.7578 C9.5236,13.5228 9.5236,13.1428 9.7576,12.9088 L12.0666,10.5998"/>
</svg>
