<svg xmlns="http://www.w3.org/2000/svg" viewBox="0 0 17 17">
    <path d="M8.372 11.027c.237 0 .428.178.428.4 0 .22-.191.4-.428.4H5.228c-.236 0-.428-.18-.428-.4 0-.222.192-.4.428-.4h3.144zm1.638-1.92c.216 0 .39.18.39.4 0 .22-.175.4-.39.4H5.19a.395.395 0 0 1-.39-.4c0-.221.175-.4.39-.4h4.82zm0-2.88c.216 0 .39.18.39.4 0 .22-.175.4-.39.4H5.19a.395.395 0 0 1-.39-.4c0-.221.175-.4.39-.4h4.82zM8 15.267a6.75 6.75 0 0 0 4.814-1.997 6.781 6.781 0 0 0 1.453-7.447A6.767 6.767 0 0 0 10.652 2.2a6.777 6.777 0 0 0-8.92 3.623A6.752 6.752 0 0 0 1.2 8.465c0 .92.179 1.807.531 2.643.214.504.227.89.185 1.976l-.007.178c-.028.815.025 1.164.097 1.236.045.046.268.097.682.097.18 0 .35-.007.703-.026.386-.022.554-.029.772-.029.477 0 .852.05 1.185.19.84.356 1.731.537 2.652.537zm0 1.2a7.953 7.953 0 0 1-3.12-.632 1.964 1.964 0 0 0-.717-.095c-.226 0-.465.013-.706.027-.26.014-.521.028-.77.028-.504 0-1.134-.05-1.531-.45-.507-.508-.473-1.422-.44-2.306.022-.563.044-1.146-.09-1.464A7.952 7.952 0 0 1 0 8.465a7.952 7.952 0 0 1 2.336-5.65 7.976 7.976 0 0 1 8.784-1.72 7.964 7.964 0 0 1 4.253 4.262c.416.984.627 2.03.627 3.108a7.951 7.951 0 0 1-2.336 5.652A7.964 7.964 0 0 1 8 16.467z"/>
</svg>
