<svg xmlns="http://www.w3.org/2000/svg" viewBox="0 0 16 16">
    <path fill="#000" fill-rule="evenodd" d="M8 0a8 8 0 1 0 0 16A8 8 0 0 0 8 0M3.385 13.185c.01-.026.027-.048.034-.076l.155-.759a.682.682 0 0 1 .353-.286l2.74-.978c.468-.166.781-.611.781-1.106v-.4c0-.534-.237-1.035-.648-1.375a1.872 1.872 0 0 1-.69-1.445V5.613a1.892 1.892 0 0 1 3.78 0v1.148c0 .555-.25 1.08-.685 1.442a1.793 1.793 0 0 0-.652 1.386v.392c0 .495.313.94.78 1.107l2.739.977c.149.053.272.153.354.287l.174.847a6.914 6.914 0 0 1-9.215-.013m10.093-.92l-.042-.202a.498.498 0 0 0-.045-.128 1.725 1.725 0 0 0-.967-.858l-2.738-.976a.129.129 0 0 1-.086-.121v-.392c0-.225.1-.437.273-.58a2.916 2.916 0 0 0 1.064-2.248V5.613a2.941 2.941 0 0 0-5.874 0v1.148c0 .871.39 1.692 1.07 2.254a.73.73 0 0 1 .268.565v.4a.13.13 0 0 1-.086.122l-2.74.976a1.728 1.728 0 0 0-.967.859.567.567 0 0 0-.045.127l-.04.202A6.91 6.91 0 0 1 1.046 8 6.96 6.96 0 0 1 8 1.046 6.961 6.961 0 0 1 14.953 8a6.91 6.91 0 0 1-1.475 4.266"/>
</svg>
