<?xml version="1.0" encoding="UTF-8" standalone="no"?>
<svg width="20px" height="20px" viewBox="0 0 20 20" version="1.1" xmlns="http://www.w3.org/2000/svg" xmlns:xlink="http://www.w3.org/1999/xlink">
    <defs></defs>
    <g id="Icons" stroke="none" stroke-width="1" fill="none" fill-rule="evenodd">
        <g id="Web" transform="translate(-193.000000, -792.000000)" fill="#000000">
            <g id="arrow/circle-right" transform="translate(193.000000, 792.000000)">
                <path d="M2,10 C2,5.582 5.582,2 10,2 C14.418,2 18,5.582 18,10 C18,14.418 14.418,18 10,18 C5.582,18 2,14.418 2,10 M9.05590915,6.1476936 C8.95772647,6.04951092 8.82849457,6 8.70010184,6 C8.57170911,6 8.44247721,6.04951092 8.34429454,6.1476936 C8.14709002,6.34321978 8.14709002,6.66210369 8.34429454,6.85846904 L11.4844618,10.0003147 L8.34429454,13.140482 C8.14709002,13.3368474 8.14709002,13.6557313 8.34429454,13.8520966 C8.54065989,14.0493011 8.8595438,14.0493011 9.05590915,13.8520966 L12.5527229,10.356122 C12.7490883,10.1597566 12.7490883,9.84087273 12.5527229,9.64366821" id="Shape"></path>
            </g>
        </g>
    </g>
</svg>