<svg xmlns="http://www.w3.org/2000/svg" viewBox="0 0 17 17">
    <path d="M6.919 9.315a1.43 1.43 0 0 1-1.965 0 1.393 1.393 0 0 1 1.965-1.964l.983.982-.983.982zm6.475-2.812a2.592 2.592 0 0 0-3.662 0l-.982.982-.982-.982a2.591 2.591 0 1 0 0 3.661l2.812-2.813a1.391 1.391 0 0 1 1.965 1.964 1.43 1.43 0 0 1-1.965 0 .6.6 0 1 0-.848.85 2.572 2.572 0 0 0 1.832.755 2.573 2.573 0 0 0 2.586-2.587c0-.693-.269-1.343-.756-1.83zm-4.644 8.63c-3.75 0-6.8-3.05-6.8-6.8s3.05-6.8 6.8-6.8 6.8 3.05 6.8 6.8-3.05 6.8-6.8 6.8m0-14.8a8 8 0 1 0 0 16 8 8 0 0 0 0-16"/>
</svg>
