<svg xmlns="http://www.w3.org/2000/svg" viewBox="0 0 20 20">
    <path fill="#000" fill-rule="evenodd" d="M10,2 C5.59376,2 2,5.59376 2,10 C2,14.40624 5.59376,18 10,18 C14.40624,18 18,14.40624 18,10 C18,5.59376 14.40624,2 10,2 L10,2 L10,2 L10,2 Z M10,16.28128 C6.5312,16.28128 3.71872,13.4688 3.71872,10 C3.71872,6.5312 6.5312,3.71872 10,3.71872 C13.4688,3.71872 16.28128,6.5312 16.28128,10 C16.28128,13.4688 13.4688,16.28128 10,16.28128 L10,16.28128 L10,16.28128 L10,16.28128 Z M8.84368,14.56256 L11.15632,14.56256 L11.15632,12.28128 L8.84368,12.28128 L8.84368,14.56256 L8.84368,14.56256 L8.84368,14.56256 Z M8.84368,11.15632 L11.15632,11.15632 L11.15632,5.43744 L8.84368,5.43744 L8.84368,11.15632 L8.84368,11.15632 L8.84368,11.15632 Z"/>
</svg>
