<svg xmlns="http://www.w3.org/2000/svg" viewBox="0 0 17 17">
    <path d="M8.2.542a2.884 2.884 0 0 1 2.88 3.016c1.92.973 3.397 3.06 3.606 5.701a2.883 2.883 0 0 1-2.272 5.278 5.958 5.958 0 0 1-3.78 1.446A7.425 7.425 0 0 1 4.092 14.5a2.884 2.884 0 0 1-2.377-5.241c.2-2.51 1.564-4.519 3.616-5.548A2.884 2.884 0 0 1 8.2.541zm2.602 4.128l-.011.023a2.884 2.884 0 0 1-5.128.104 5.474 5.474 0 0 0-2.789 4.125l.04-.003.17-.005a2.884 2.884 0 0 1 2.024 4.937 6.433 6.433 0 0 0 3.526 1.016c.977 0 1.934-.355 2.743-.937a2.884 2.884 0 0 1 2.148-5.009c-.275-1.898-1.33-3.449-2.723-4.25zm-7.718 5.36a1.767 1.767 0 1 0 0 3.535 1.767 1.767 0 0 0 0-3.535zm10.232 0a1.767 1.767 0 1 0 0 3.535 1.767 1.767 0 0 0 0-3.535zM8.2 1.658a1.767 1.767 0 1 0 0 3.535 1.767 1.767 0 0 0 0-3.535z"/>
</svg>
