<svg xmlns="http://www.w3.org/2000/svg" viewBox="0 0 20 20">
    <path fill="#000" fill-rule="evenodd" d="M10 2a8 8 0 1 0 0 16 8 8 0 0 0 0-16zm0 1.2c3.75 0 6.8 3.05 6.8 6.8s-3.05 6.8-6.8 6.8-6.8-3.05-6.8-6.8S6.25 3.2 10 3.2zm.567 10.705a.684.684 0 1 1-1.367 0 .684.684 0 0 1 1.367 0zm-.684-1.766a.6.6 0 0 1-.6-.6V11.2c0-.783.464-1.49 1.18-1.804a1.457 1.457 0 0 0-.58-2.785 1.45 1.45 0 0 0-1.287.778.6.6 0 1 1-1.063-.558 2.648 2.648 0 0 1 5.003 1.232c0 1.055-.625 2.01-1.591 2.432a.77.77 0 0 0-.462.705v.34a.6.6 0 0 1-.6.6z"/>
</svg>
