<svg xmlns="http://www.w3.org/2000/svg" viewBox="0 0 20 20">
    <path fill="#000" fill-rule="evenodd" d="M18,10 C18,14.418 14.418,18 10,18 C5.582,18 2,14.418 2,10 C2,5.582 5.582,2 10,2 C14.418,2 18,5.582 18,10 Z M10.9440908,13.8523064 C11.0422735,13.9504891 11.1715054,14 11.2998982,14 C11.4282909,14 11.5575228,13.9504891 11.6557055,13.8523064 C11.85291,13.6567802 11.85291,13.3378963 11.6557055,13.141531 L8.51553815,9.99968531 L11.6557055,6.859518 C11.85291,6.66315265 11.85291,6.34426874 11.6557055,6.14790339 C11.4593401,5.95069887 11.1404562,5.95069887 10.9440908,6.14790339 L7.44727707,9.64387801 C7.25091171,9.84024336 7.25091171,10.1591273 7.44727707,10.3563318"/>
</svg>
