<svg xmlns="http://www.w3.org/2000/svg" viewBox="0 0 16 16">
    <path d="M8 0c1.104 0 2.14.208 3.11.625a8.08 8.08 0 0 1 4.265 4.266C15.792 5.859 16 6.896 16 8s-.208 2.14-.625 3.11a8.08 8.08 0 0 1-4.266 4.265A7.785 7.785 0 0 1 8 16a7.785 7.785 0 0 1-3.11-.625 8.08 8.08 0 0 1-4.265-4.266A7.785 7.785 0 0 1 0 8c0-1.104.208-2.14.625-3.11A8.08 8.08 0 0 1 4.891.626 7.785 7.785 0 0 1 8 0zM4 9a.973.973 0 0 0 .719-.281A.973.973 0 0 0 5 8a.973.973 0 0 0-.281-.719A.973.973 0 0 0 4 7a.973.973 0 0 0-.719.281A.973.973 0 0 0 3 8c0 .292.094.531.281.719A.973.973 0 0 0 4 9zm4 0a.973.973 0 0 0 .719-.281A.973.973 0 0 0 9 8a.973.973 0 0 0-.281-.719A.973.973 0 0 0 8 7a.973.973 0 0 0-.719.281A.973.973 0 0 0 7 8c0 .292.094.531.281.719A.973.973 0 0 0 8 9zm4 0a.973.973 0 0 0 .719-.281A.973.973 0 0 0 13 8a.973.973 0 0 0-.281-.719A.973.973 0 0 0 12 7a.973.973 0 0 0-.719.281A.973.973 0 0 0 11 8c0 .292.094.531.281.719A.973.973 0 0 0 12 9z"/>
</svg>
