<svg xmlns="http://www.w3.org/2000/svg" viewBox="0 0 20 20">
    <path fill="#000" fill-rule="evenodd" d="M10.166 1a9.167 9.167 0 1 0 .001 18.333A9.167 9.167 0 0 0 10.166 1M4.879 16.11c.012-.03.031-.055.038-.087l.178-.87a.782.782 0 0 1 .405-.328l3.14-1.12a1.35 1.35 0 0 0 .894-1.268v-.459c0-.611-.271-1.185-.743-1.574a2.145 2.145 0 0 1-.79-1.656V7.433a2.167 2.167 0 0 1 4.33 0v1.315c0 .636-.286 1.238-.784 1.652a2.055 2.055 0 0 0-.747 1.588v.449c0 .568.359 1.078.894 1.269l3.138 1.119a.781.781 0 0 1 .406.329l.199.971a7.923 7.923 0 0 1-10.558-.015m11.564-1.054l-.048-.232a.57.57 0 0 0-.051-.147 1.976 1.976 0 0 0-1.108-.983l-3.138-1.118a.148.148 0 0 1-.098-.139v-.449c0-.258.114-.5.313-.665a3.342 3.342 0 0 0 1.219-2.575V7.433a3.37 3.37 0 0 0-6.731 0v1.315a3.34 3.34 0 0 0 1.227 2.582c.195.16.306.397.306.648v.459a.15.15 0 0 1-.098.139l-3.139 1.118a1.98 1.98 0 0 0-1.109.984.65.65 0 0 0-.051.146l-.047.232a7.918 7.918 0 0 1-1.69-4.889A7.976 7.976 0 0 1 10.166 2.2a7.976 7.976 0 0 1 7.967 7.967 7.918 7.918 0 0 1-1.69 4.889"/>
</svg>
