<svg xmlns="http://www.w3.org/2000/svg" viewBox="0 0 20 20">
    <path fill="#000" fill-rule="evenodd" d="M2,10 C2,14.418 5.582,18 10,18 C14.418,18 18,14.418 18,10 C18,5.582 14.418,2 10,2 C5.582,2 2,5.582 2,10 L2,10 L2,10 L2,10 Z M13.5144,9.4002 C13.8464,9.4002 14.1144,9.6692 14.1144,10.0002 C14.1144,10.3322 13.8464,10.6002 13.5144,10.6002 L7.9334,10.6002 L10.2424,12.9092 C10.4764,13.1432 10.4764,13.5242 10.2424,13.7572 C10.1254,13.8742 9.9714,13.9332 9.8184,13.9332 C9.6644,13.9332 9.5114,13.8742 9.3934,13.7572 L6.0604,10.4242 C5.8264,10.1902 5.8264,9.8102 6.0604,9.5762 L9.3934,6.2422 C9.6284,6.0082 10.0084,6.0082 10.2424,6.2422 C10.4764,6.4772 10.4764,6.8572 10.2424,7.0912 L7.9334,9.4002"/>
</svg>
