<svg xmlns="http://www.w3.org/2000/svg" viewBox="0 0 20 20">
    <path fill="#000" fill-rule="evenodd" d="M18,10 C18,5.582 14.418,2 10,2 C5.582,2 2,5.582 2,10 C2,14.418 5.582,18 10,18 C14.418,18 18,14.418 18,10 L18,10 L18,10 Z M16.8,10 C16.8,13.75 13.75,16.8 10,16.8 C6.25,16.8 3.2,13.75 3.2,10 C3.2,6.25 6.25,3.2 10,3.2 C13.75,3.2 16.8,6.25 16.8,10 L16.8,10 L16.8,10 Z M7.3989,10.0001 C7.3989,9.8411 7.4619,9.6881 7.5749,9.5761 L9.9759,7.1741 C10.2109,6.9401 10.5899,6.9401 10.8249,7.1741 C11.0589,7.4091 11.0589,7.7891 10.8249,8.0231 L8.8479,10.0001 L10.8249,11.9771 C11.0579,12.2111 11.0589,12.5911 10.8249,12.8251 C10.5899,13.0601 10.2109,13.0601 9.9759,12.8251 L7.5749,10.4241 C7.4619,10.3121 7.3989,10.1591 7.3989,10.0001 L7.3989,10.0001 L7.3989,10.0001 Z"/>
</svg>
