<svg xmlns="http://www.w3.org/2000/svg" viewBox="0 0 16 16">
    <path d="M8 0c1.104 0 2.14.208 3.11.625a8.08 8.08 0 0 1 4.265 4.266C15.792 5.859 16 6.896 16 8s-.208 2.14-.625 3.11a8.08 8.08 0 0 1-4.266 4.265A7.785 7.785 0 0 1 8 16a7.785 7.785 0 0 1-3.11-.625 8.08 8.08 0 0 1-4.265-4.266A7.785 7.785 0 0 1 0 8c0-1.104.208-2.14.625-3.11A8.08 8.08 0 0 1 4.891.626 7.785 7.785 0 0 1 8 0zm3.344 8.594a.574.574 0 0 0 .422-.172.574.574 0 0 0 .171-.422.574.574 0 0 0-.171-.422.574.574 0 0 0-.422-.172h-2.75v-2.75a.574.574 0 0 0-.172-.422A.574.574 0 0 0 8 4.063a.574.574 0 0 0-.422.171.574.574 0 0 0-.172.422v2.75h-2.75a.574.574 0 0 0-.422.172.574.574 0 0 0-.171.422.6.6 0 0 0 .187.438.55.55 0 0 0 .406.156h2.75v2.75a.55.55 0 0 0 .157.406.6.6 0 0 0 .437.188.574.574 0 0 0 .422-.172.574.574 0 0 0 .172-.422v-2.75h2.75z"/>
</svg>
