<svg xmlns="http://www.w3.org/2000/svg" viewBox="0 0 20 20">
    <path fill="#000" fill-rule="evenodd" d="M10,2 C14.418,2 18,5.582 18,10 C18,14.418 14.418,18 10,18 C5.582,18 2,14.418 2,10 C2,5.582 5.582,2 10,2 L10,2 L10,2 Z M13.8523064,9.05590915 C13.9504891,8.95772647 14,8.82849457 14,8.70010184 C14,8.57170911 13.9504891,8.44247721 13.8523064,8.34429454 C13.6567802,8.14709002 13.3378963,8.14709002 13.141531,8.34429454 L9.99968531,11.4844618 L6.859518,8.34429454 C6.66315265,8.14709002 6.34426874,8.14709002 6.14790339,8.34429454 C5.95069887,8.54065989 5.95069887,8.8595438 6.14790339,9.05590915 L9.64387801,12.5527229 C9.84024336,12.7490883 10.1591273,12.7490883 10.3563318,12.5527229"/>
</svg>
