<svg xmlns="http://www.w3.org/2000/svg" viewBox="0 0 17 17">
    <path d="M4.084 14.968a7.982 7.982 0 0 0 4.883 1.595c1.485 0 2.919-.598 4.063-1.555a3.097 3.097 0 0 0 2.443-5.674c-.225-2.84-1.813-5.083-3.876-6.129a3.1 3.1 0 1 0-6.182.165C3.21 4.476 1.743 6.636 1.527 9.334a3.1 3.1 0 0 0 2.557 5.634zM2.775 8.97a5.886 5.886 0 0 1 2.998-4.434 3.1 3.1 0 0 0 5.524-.136c1.497.862 2.632 2.528 2.927 4.57a3.1 3.1 0 0 0-2.31 5.385 5.1 5.1 0 0 1-2.947 1.007 6.92 6.92 0 0 1-3.79-1.093 3.1 3.1 0 0 0-2.4-5.3zM1.1 12.062a1.9 1.9 0 1 1 3.8 0 1.9 1.9 0 0 1-3.8 0zm11 0a1.9 1.9 0 1 1 3.8 0 1.9 1.9 0 0 1-3.8 0zm-5.5-9a1.9 1.9 0 1 1 3.8 0 1.9 1.9 0 0 1-3.8 0z"/>
</svg>
