<svg xmlns="http://www.w3.org/2000/svg" viewBox="0 0 17 17">
    <path d="M4.092 14.5A2.878 2.878 0 0 1 .2 11.797c0-1.096.612-2.05 1.514-2.538.2-2.51 1.565-4.519 3.616-5.547a2.884 2.884 0 1 1 5.75-.154c1.92.973 3.397 3.06 3.606 5.701a2.883 2.883 0 0 1-2.272 5.278 5.958 5.958 0 0 1-3.78 1.446A7.425 7.425 0 0 1 4.092 14.5zm1.016-.649a6.437 6.437 0 0 0 3.526 1.016c.976 0 1.933-.355 2.742-.936a2.884 2.884 0 0 1 2.149-5.01c-.275-1.899-1.33-3.449-2.723-4.25a2.884 2.884 0 0 1-5.139.126 5.475 5.475 0 0 0-2.788 4.124 2.884 2.884 0 0 1 2.233 4.93zm-3.792-2.054a1.767 1.767 0 1 0 3.535 0 1.767 1.767 0 0 0-3.535 0zm10.233 0a1.767 1.767 0 1 0 3.535 0 1.767 1.767 0 0 0-3.535 0zM6.433 3.425a1.767 1.767 0 1 0 3.534 0 1.767 1.767 0 0 0-3.534 0z"/>
</svg>
