<svg xmlns="http://www.w3.org/2000/svg" viewBox="0 0 16 16">
    <path d="M14.25 14.067a.528.528 0 0 1-.516-.421l-.516-2.516a.873.873 0 0 0-.46-.38L9.576 9.617a1.289 1.289 0 0 1-.853-1.21V7.95c0-.6.265-1.165.727-1.548a2.257 2.257 0 0 0 .826-1.737V3.331a2.279 2.279 0 0 0-4.553 0v1.334c0 .671.303 1.306.83 1.74.461.38.725.94.725 1.535v.464c0 .542-.343 1.029-.853 1.21l-3.183 1.137a.87.87 0 0 0-.46.38l-.517 2.515a.528.528 0 0 1-1.034-.214l.532-2.59a.542.542 0 0 1 .045-.128 1.92 1.92 0 0 1 1.079-.958l3.182-1.134a.231.231 0 0 0 .154-.218V7.94a.932.932 0 0 0-.34-.72 3.303 3.303 0 0 1-1.215-2.555V3.331a3.335 3.335 0 0 1 6.663 0v1.334a3.31 3.31 0 0 1-1.207 2.55.953.953 0 0 0-.346.735v.455c0 .097.061.185.152.217l3.182 1.134c.473.17.856.51 1.079.958.02.04.035.083.045.128l.531 2.59a.527.527 0 0 1-.517.635zM7.128 9.59a.44.44 0 0 1 .432-.36h.879a.44.44 0 0 1 .432.36l.88 4.748a.44.44 0 0 1-.145.413l-1.319 1.142a.44.44 0 0 1-.575 0L6.393 14.75a.44.44 0 0 1-.144-.413l.879-4.748zm.03 4.66L8 14.98l.841-.728-.767-4.141h-.147l-.767 4.14z"/>
</svg>
