<svg xmlns="http://www.w3.org/2000/svg" viewBox="0 0 16 16">
    <path d="M9.209 6.583c.119.008.253.078.402.211.148.133.294.31.438.53a5.224 5.224 0 0 1 .69 1.66c.035.156.055.304.06.445.004.14.016.314.036.523.14.01.276.023.41.036a10.284 10.284 0 0 0 .663.052 1.486 1.486 0 0 0 .566-.06c.153-.048.31-.1.473-.159.162-.058.33-.112.504-.163.175-.051.363-.081.564-.09a1.345 1.345 0 0 1 1.07.31 1.287 1.287 0 0 1 .454.91c.013.17-.006.337-.057.502a1.251 1.251 0 0 1-.257.456 1.316 1.316 0 0 1-1.458.368 2.626 2.626 0 0 1-.5-.196 1.558 1.558 0 0 1-.303-.21.993.993 0 0 1-.18-.21 4.25 4.25 0 0 0-.13-.203.675.675 0 0 0-.415-.3.744.744 0 0 1-.123-.012l-.06-.01-.063-.003a36.134 36.134 0 0 0-1.003-.054 1.47 1.47 0 0 0 .028.135 6.06 6.06 0 0 0 .272.855c.089.121.206.241.351.36l.444.364c.15.123.285.251.406.386a.968.968 0 0 1 .234.424c.003.04.009.074.017.103a.47.47 0 0 1 .016.091c.059.206.068.419.027.637a1.239 1.239 0 0 1-.292.592c-.12.138-.259.244-.416.318a1.389 1.389 0 0 1-.987.07 1.287 1.287 0 0 1-.46-.261 1.328 1.328 0 0 1-.446-1.195c-.004-.115.01-.23.046-.347l.11-.379c.04-.135.075-.284.104-.446a2 2 0 0 0 .015-.544 44.492 44.492 0 0 0-.332-1.185 14.701 14.701 0 0 1-.435-.013l-.43-.02a4.618 4.618 0 0 1-1.21-.206 4.051 4.051 0 0 1-.833-.371 2.02 2.02 0 0 1-.484-.388c-.104-.123-.158-.209-.161-.256a.328.328 0 0 1 .091-.24c.065-.07.133-.1.205-.088a35.205 35.205 0 0 0 1.839.383 12.756 12.756 0 0 0 .964.136l.084.011.083.008a83.243 83.243 0 0 0-.467-1.665 115.98 115.98 0 0 0-.376-1.333c-.022-.078-.004-.14.054-.185a.424.424 0 0 1 .158-.084zm-3.325 7.103v1h-2v-1h2zm5.542-.37a.623.623 0 0 0-.447.22.61.61 0 0 0-.152.47c.016.179.091.327.227.445a.629.629 0 0 0 .47.16.653.653 0 0 0 .536-.931.64.64 0 0 0-.158-.204.636.636 0 0 0-.476-.16zm-9.93-.354c.096.325.356.586.68.682l-.28.95a1.993 1.993 0 0 1-1.349-1.352l.95-.28zm12.643-2.779a.623.623 0 0 0-.447.22.61.61 0 0 0-.152.47c.015.179.09.327.226.445a.643.643 0 0 0 .473.163.61.61 0 0 0 .444-.216.623.623 0 0 0 .155-.473.636.636 0 0 0-.224-.45.636.636 0 0 0-.475-.159zM1.457 9.254v2h-1v-2h1zm0-4v2h-1v-2h1zm12.971-2.853c.013.096.029.191.029.29V4.4h-1V2.691c0-.05-.003-.1-.011-.149zM1.375 1.01l.542.837c-.288.186-.46.502-.46.845v.562h-1v-.562c0-.706.366-1.324.918-1.682zM12.451.686c.298 0 .577.069.831.185l-.414.905a.993.993 0 0 0-.417-.09h-1.14v-1zm-3.14 0v1h-2v-1h2zm-4 0v1h-2v-1h2z"/>
</svg>
