<svg xmlns="http://www.w3.org/2000/svg" viewBox="0 0 17 17">
    <path d="M15.376 14.83c0 .355-.207.574-.32.574h-5.48l.012-10.128 1.24 1.393a.602.602 0 0 0 .439.202h.009a.6.6 0 0 0 .436-.188L13.52 4.77l1.624 1.1c.115.078.23.275.23.542v8.417zm-12.801 0V6.411c0-.267.115-.464.23-.542l1.625-1.1 1.808 1.913a.6.6 0 0 0 .436.188h.01a.604.604 0 0 0 .439-.202l1.265-1.421-.012 10.156H2.895c-.113 0-.32-.219-.32-.575zm9.603-12.66l.507 1.736-1.396 1.477-1.428-1.607 2.317-1.605zm-6.405 0L8.09 3.777 6.661 5.383 5.265 3.906l.508-1.735zm10.045 2.706l-1.993-1.348-.728-2.492a.6.6 0 0 0-.376-.398 1.334 1.334 0 0 0-.284-.034H5.489c-.028 0-.2.013-.26.034a.599.599 0 0 0-.375.398l-.728 2.49-1.993 1.35a1.848 1.848 0 0 0-.758 1.536v8.417c0 .98.68 1.775 1.52 1.775h12.16c.84 0 1.52-.795 1.52-1.775V6.412c0-.633-.288-1.218-.757-1.536z"/>
</svg>
