<svg xmlns="http://www.w3.org/2000/svg" viewBox="0 0 17 17">
    <path d="M11.313 8.018a.6.6 0 0 0 0 1.2h2.4a.6.6 0 0 0 0-1.2h-2.4zm4.012 6.822c0 .356-.207.575-.32.575h-5.48l.012-10.128 1.24 1.393a.602.602 0 0 0 .44.202h.008a.6.6 0 0 0 .436-.188l1.81-1.913 1.624 1.1c.114.078.23.275.23.542v8.417zm-12.8 0V6.423c0-.267.115-.464.23-.542l1.625-1.1 1.808 1.913a.6.6 0 0 0 .436.188h.01a.604.604 0 0 0 .439-.202L8.337 5.26l-.012 10.156h-5.48c-.113 0-.32-.219-.32-.575zm9.603-12.658l.507 1.735-1.396 1.477L9.81 3.788l2.318-1.606zm-6.406 0L8.04 3.788 6.61 5.394 5.215 3.917l.507-1.735zm10.046 2.706l-1.994-1.35-.728-2.491a.6.6 0 0 0-.376-.398 1.334 1.334 0 0 0-.284-.034H5.438c-.027 0-.2.013-.259.034a.599.599 0 0 0-.375.398l-.728 2.491-1.994 1.35a1.848 1.848 0 0 0-.757 1.535v8.417c0 .98.68 1.775 1.52 1.775h12.16c.84 0 1.52-.795 1.52-1.775V6.423c0-.633-.288-1.218-.757-1.535z"/>
</svg>
