<svg xmlns="http://www.w3.org/2000/svg" viewBox="0 0 16 16">
    <path d="M8 6.2a1.801 1.801 0 1 0 .003 3.603A1.801 1.801 0 0 0 8 6.2zM9.133 0a.6.6 0 0 1 .549.358l.825 1.871c.441.192.857.431 1.24.715l2.03-.222a.604.604 0 0 1 .586.297l1.132 1.962a.6.6 0 0 1-.035.654l-1.21 1.651a5.894 5.894 0 0 1 0 1.428l1.21 1.651c.14.192.153.449.034.655l-1.131 1.961a.599.599 0 0 1-.585.297l-2.03-.221c-.384.284-.8.523-1.241.715l-.825 1.871a.597.597 0 0 1-.549.357H6.868a.598.598 0 0 1-.55-.357l-.824-1.871a6.284 6.284 0 0 1-1.241-.715l-2.03.221a.605.605 0 0 1-.584-.297L.506 11.02a.602.602 0 0 1 .034-.655l1.21-1.651a5.881 5.881 0 0 1 0-1.428L.54 5.635a.6.6 0 0 1-.035-.654l1.133-1.962a.615.615 0 0 1 .585-.297l2.03.222a6.227 6.227 0 0 1 1.24-.715L6.319.358A.6.6 0 0 1 6.869 0h2.264zm-.391 1.2H7.258l-.764 1.734a.599.599 0 0 1-.332.318 5.089 5.089 0 0 0-1.357.781.626.626 0 0 1-.442.13l-1.88-.205-.743 1.284 1.121 1.532a.594.594 0 0 1 .108.445A5.165 5.165 0 0 0 2.905 8c0 .266.026.526.066.781a.597.597 0 0 1-.109.446l-1.12 1.531.741 1.284 1.881-.204a.61.61 0 0 1 .441.13c.406.327.862.59 1.357.781a.599.599 0 0 1 .333.318l.764 1.734h1.484l.764-1.734a.599.599 0 0 1 .332-.318 5.079 5.079 0 0 0 1.359-.782.608.608 0 0 1 .44-.129l1.881.204.741-1.284-1.12-1.531a.602.602 0 0 1-.11-.446c.04-.255.068-.515.068-.781s-.027-.525-.067-.781a.599.599 0 0 1 .109-.445l1.12-1.532-.74-1.284-1.882.205a.618.618 0 0 1-.44-.13 5.072 5.072 0 0 0-1.358-.781.599.599 0 0 1-.332-.318L8.742 1.2zM8 5a3.004 3.004 0 0 1 0 6 3.004 3.004 0 0 1 0-6z"/>
</svg>
