<svg xmlns="http://www.w3.org/2000/svg" viewBox="0 0 20 20">
    <path fill="#000" fill-rule="evenodd" d="M15.825 10.714a5.892 5.892 0 0 0 0-1.428l1.21-1.651a.6.6 0 0 0 .034-.654l-1.132-1.962a.602.602 0 0 0-.585-.297l-2.029.221a6.259 6.259 0 0 0-1.242-.714l-.825-1.871A.6.6 0 0 0 10.707 2H8.442a.602.602 0 0 0-.549.358l-.825 1.871a6.215 6.215 0 0 0-1.24.714l-2.03-.221a.615.615 0 0 0-.585.297L2.08 6.981a.6.6 0 0 0 .036.654l1.21 1.651a5.708 5.708 0 0 0 0 1.428l-1.21 1.651a.602.602 0 0 0-.036.655l1.133 1.961a.603.603 0 0 0 .584.296l2.031-.22c.382.284.798.523 1.24.715l.825 1.871a.6.6 0 0 0 .55.357h2.265a.6.6 0 0 0 .55-.357l.823-1.871a6.32 6.32 0 0 0 1.242-.715l2.03.22a.596.596 0 0 0 .584-.296l1.132-1.961a.602.602 0 0 0-.035-.655l-1.209-1.651M9.575 12.4a2.4 2.4 0 1 1 .001-4.801 2.4 2.4 0 0 1 0 4.801"/>
</svg>
