<svg xmlns="http://www.w3.org/2000/svg" viewBox="0 0 20 20">
    <path fill="#000" fill-rule="evenodd" d="M6.47 14.791h4.137l3.933 2.627a.6.6 0 0 0 .933-.5v-2.127H17.6a.6.6 0 0 0 .6-.6V5.327a.6.6 0 0 0-.6-.6h-2.127V2.6a.6.6 0 0 0-.6-.6H2.6a.6.6 0 0 0-.6.6v8.864a.6.6 0 0 0 .6.6h2.128v2.809a.6.6 0 0 0 .949.488l.794-.57m1.672-1.2l2.128-1.527h4.602a.6.6 0 0 0 .6-.6V5.927H17v7.664h-2.127a.6.6 0 0 0-.6.6l.021 1.62-3.18-2.119a.6.6 0 0 0-.332-.1m-.682-2.728a.6.6 0 0 0-.349.112l-3.823 2.727v-2.239a.6.6 0 0 0-.6-.6h-2.1V3.2h11.059v7.664H10.1"/>
</svg>
