<svg xmlns="http://www.w3.org/2000/svg" viewBox="0 0 16 16">
    <path d="M4.47 12.791h4.137l3.933 2.627a.6.6 0 0 0 .933-.5v-2.127H15.6a.6.6 0 0 0 .6-.6V3.327a.6.6 0 0 0-.6-.6h-2.127V.6a.6.6 0 0 0-.6-.6H.6a.6.6 0 0 0-.6.6v8.864a.6.6 0 0 0 .6.6h2.128v2.809a.6.6 0 0 0 .949.488l.794-.57m1.672-1.2l2.128-1.527h4.602a.6.6 0 0 0 .6-.6V3.927H15v7.664h-2.127a.6.6 0 0 0-.6.6l.021 1.62-3.18-2.119a.6.6 0 0 0-.332-.1M8.1 8.863a.6.6 0 0 0-.349.112l-3.823 2.727V9.464a.6.6 0 0 0-.6-.6h-2.1V1.2h11.059v7.664H8.1"/>
</svg>
