<?xml version="1.0" encoding="UTF-8" standalone="no"?>
<svg width="20px" height="20px" viewBox="0 0 20 20" version="1.1" xmlns="http://www.w3.org/2000/svg" xmlns:xlink="http://www.w3.org/1999/xlink">
    <defs></defs>
    <g id="Icons" stroke="none" stroke-width="1" fill="none" fill-rule="evenodd">
        <g id="Web" transform="translate(-289.000000, -262.000000)" fill="#000000">
            <g id="app/comment-line" transform="translate(289.000000, 262.000000)">
                <path d="M7.705,17.213 C7.628,17.213 7.55,17.199 7.476,17.168 C7.252,17.075 7.105,16.856 7.105,16.614 L7.105,14.4 L4.2,14.4 C2.987,14.4 2,13.413 2,12.2 L2,4.2 C2,2.987 2.987,2 4.2,2 L15.8,2 C17.013,2 18,2.987 18,4.2 L18,12.2 C18,13.413 17.013,14.4 15.8,14.4 L10.768,14.4 L8.13,17.038 C8.015,17.153 7.861,17.213 7.705,17.213 M4.2,3.2 C3.649,3.2 3.2,3.648 3.2,4.2 L3.2,12.2 C3.2,12.751 3.649,13.2 4.2,13.2 L7.705,13.2 C8.037,13.2 8.305,13.469 8.305,13.8 L8.305,15.165 L10.096,13.375 C10.208,13.263 10.361,13.2 10.52,13.2 L15.8,13.2 C16.351,13.2 16.8,12.751 16.8,12.2 L16.8,4.2 C16.8,3.648 16.351,3.2 15.8,3.2 L4.2,3.2" id="Shape"></path>
            </g>
        </g>
    </g>
</svg>