<?xml version="1.0" encoding="UTF-8" standalone="no"?>
<svg width="20px" height="20px" viewBox="0 0 20 20" version="1.1" xmlns="http://www.w3.org/2000/svg" xmlns:xlink="http://www.w3.org/1999/xlink">
    <defs></defs>
    <g id="Icons" stroke="none" stroke-width="1" fill="none" fill-rule="evenodd">
        <g id="Web" transform="translate(-145.000000, -1710.000000)" fill="#000000">
            <g id="git/commit" transform="translate(145.000000, 1710.000000)">
                <path d="M14.43744,9.35959391 C13.93744,7.41791306 12.12496,6 10,6 C7.87504,6 6.09376,7.41791306 5.56256,9.35959391 L2,9.35959391 L2,11.6096334 L5.56256,11.6096334 C6.09376,13.5822447 7.87504,15 10,15 C12.12496,15 13.93744,13.5822447 14.43744,11.6096334 L18,11.6096334 L18,9.35959391 L14.43744,9.35959391 L14.43744,9.35959391 M10,12.7501184 C8.75008,12.7501184 7.71872,11.7328821 7.71872,10.5000789 C7.71872,9.23634515 8.75008,8.25003945 10,8.25003945 C11.24992,8.25003945 12.28128,9.23634515 12.28128,10.5000789 C12.28128,11.7328821 11.24992,12.7501184 10,12.7501184 L10,12.7501184 L10,12.7501184" id="Shape"></path>
            </g>
        </g>
    </g>
</svg>