<svg xmlns="http://www.w3.org/2000/svg" viewBox="0 0 16 16">
    <path fill="#000" fill-rule="evenodd" d="M8.5 1A7.509 7.509 0 0 0 1 8.5C1 12.636 4.364 16 8.5 16S16 12.636 16 8.5 12.636 1 8.5 1m3.323 4.705l-2.14 3.982-3.976 2.145c-.345.185-.72-.19-.535-.536l2.14-3.983 3.976-2.144c.345-.186.72.19.535.536m-2.948 9.17a.375.375 0 1 1-.75 0V13.75a.375.375 0 1 1 .75 0v1.125m-5.625-6H2.125a.375.375 0 1 1 0-.75H3.25a.375.375 0 1 1 0 .75m4.875-6.75a.375.375 0 1 1 .75 0V3.25a.375.375 0 1 1-.75 0V2.125m6.75 6.75H13.75a.375.375 0 1 1 0-.75h1.125a.375.375 0 1 1 0 .75"/>
</svg>
