<svg xmlns="http://www.w3.org/2000/svg" viewBox="0 0 17 17">
    <path d="M14.06 12.914H1.94a.755.755 0 0 1-.754-.755v-.753h13.63v.753a.756.756 0 0 1-.755.755zm-7.488 2.694h2.855V14.1H6.572v1.51zM1.939 1.978H14.06c.416 0 .755.338.755.754v7.488H1.185V2.732c0-.416.338-.754.754-.754zM14.06.793H1.94C.87.793 0 1.663 0 2.733v9.426c0 1.07.87 1.94 1.939 1.94h3.448v1.51H3.96a.592.592 0 1 0 0 1.184h8.08a.593.593 0 0 0 0-1.185h-1.428v-1.51h3.448c1.07 0 1.94-.869 1.94-1.939V2.732c0-1.07-.87-1.94-1.94-1.94z"/>
</svg>
