<svg xmlns="http://www.w3.org/2000/svg" viewBox="0 0 16 16">
    <path d="M3.015 15.995A3 3 0 0 1 0 12.98a3 3 0 0 1 .888-2.137l5.32-4.67a4.936 4.936 0 0 1 1.289-4.72 4.965 4.965 0 0 1 5.82-.883.6.6 0 0 1 .148.957l-2.722 2.721 1.013 1.014 2.722-2.723a.598.598 0 0 1 .957.148 4.966 4.966 0 0 1-.884 5.821 4.93 4.93 0 0 1-4.718 1.29l-4.644 5.29a3.059 3.059 0 0 1-2.174.908m7.986-14.794A3.743 3.743 0 0 0 7.46 6.18a.6.6 0 0 1-.173.642l-5.578 4.896a1.817 1.817 0 0 0 .028 2.551 1.828 1.828 0 0 0 2.577 0l4.869-5.55a.6.6 0 0 1 .642-.174 3.754 3.754 0 0 0 4.853-4.508l-2.497 2.498a.62.62 0 0 1-.849 0L9.47 4.672a.603.603 0 0 1 0-.849l2.498-2.497a3.841 3.841 0 0 0-.967-.125M3.694 13.428a.79.79 0 1 1-1.117-1.12.79.79 0 0 1 1.117 1.12"/>
</svg>
