<svg xmlns="http://www.w3.org/2000/svg" viewBox="0 0 16 16">
    <path fill="#000" fill-rule="evenodd" d="M14.438 4.219c.062.062.098.12.109.172.01.052.015.13.015.234v7.313c0 .416-.145.77-.437 1.062a1.447 1.447 0 0 1-1.063.438h-.906V14.5c0 .417-.146.77-.437 1.063a1.447 1.447 0 0 1-1.063.437H2.937c-.416 0-.77-.146-1.062-.438a1.447 1.447 0 0 1-.438-1.062V4.062c0-.416.146-.77.438-1.062a1.447 1.447 0 0 1 1.063-.438h5.156c.146 0 .27.063.375.188l3.594 4.031c.062.084.093.219.093.407v5.406h.938a.627.627 0 0 0 .437-.172.55.55 0 0 0 .188-.422V4.781h-2.125c-.417 0-.771-.146-1.063-.437a1.447 1.447 0 0 1-.437-1.063V.844H5.28a.574.574 0 0 0-.422.172.574.574 0 0 0-.171.421v1.125h-.844V1.5A1.474 1.474 0 0 1 5.313 0H10.5c.146 0 .27.052.375.156l3.563 4.063zm-3.126 3.156H9.188c-.417 0-.771-.151-1.063-.453a1.499 1.499 0 0 1-.438-1.078V3.406H2.875a.574.574 0 0 0-.422.172.574.574 0 0 0-.172.422v10.563c0 .166.058.307.172.421a.574.574 0 0 0 .422.172h7.844a.574.574 0 0 0 .422-.172.574.574 0 0 0 .171-.421V7.375z"/>
</svg>
