<svg xmlns="http://www.w3.org/2000/svg" viewBox="0 0 20 20">
    <path fill="#000" fill-rule="evenodd" d="M5.628 4.526H4.347C3.606 4.526 3 5.133 3 5.874v10.779A1.35 1.35 0 0 0 4.347 18h8.085a1.35 1.35 0 0 0 1.347-1.347v-1.179h1.281c.741 0 1.347-.607 1.347-1.348V7.422c0-.357-.142-.7-.395-.953l-4.074-4.074A1.348 1.348 0 0 0 10.985 2h-4.01a1.35 1.35 0 0 0-1.347 1.347v1.179m6.951 10.948v1.179a.151.151 0 0 1-.147.147H4.347a.151.151 0 0 1-.147-.147V5.873c0-.078.069-.147.147-.147h1.281v8.4c0 .741.606 1.348 1.347 1.348h5.604m2.628-7.748v6.4a.151.151 0 0 1-.147.148H6.975a.151.151 0 0 1-.147-.148V3.347c0-.078.07-.147.147-.147h3.721v3.18a1.35 1.35 0 0 0 1.347 1.346h3.164M11.895 4.05l2.478 2.477h-2.33a.151.151 0 0 1-.148-.147V4.05"/>
</svg>
