<svg xmlns="http://www.w3.org/2000/svg" viewBox="0 0 16 16">
    <path fill="#000" fill-rule="evenodd" d="M3.628 2.526H2.347C1.606 2.526 1 3.133 1 3.874v10.779A1.35 1.35 0 0 0 2.347 16h8.085a1.35 1.35 0 0 0 1.347-1.347v-1.179h1.281c.741 0 1.347-.607 1.347-1.348V5.422c0-.357-.142-.7-.395-.953L9.938.395A1.348 1.348 0 0 0 8.985 0h-4.01a1.35 1.35 0 0 0-1.347 1.347v1.179m6.951 10.948v1.179a.151.151 0 0 1-.147.147H2.347a.151.151 0 0 1-.147-.147V3.873c0-.078.069-.147.147-.147h1.281v8.4c0 .741.606 1.348 1.347 1.348h5.604m2.628-7.748v6.4a.151.151 0 0 1-.147.148H4.975a.151.151 0 0 1-.147-.148V1.347c0-.078.07-.147.147-.147h3.721v3.18a1.35 1.35 0 0 0 1.347 1.346h3.164M9.895 2.05l2.478 2.477h-2.33a.151.151 0 0 1-.148-.147V2.05"/>
</svg>
