<svg xmlns="http://www.w3.org/2000/svg" viewBox="0 0 16 16">
    <path d="M15.406 12.469c.167 0 .308.052.422.156.115.104.172.24.172.406a.574.574 0 0 1-.172.422.574.574 0 0 1-.422.172h-1.781v1.781a.574.574 0 0 1-.172.422.574.574 0 0 1-.422.172.524.524 0 0 1-.406-.172.604.604 0 0 1-.156-.422v-1.781h-1.781a.574.574 0 0 1-.422-.172.574.574 0 0 1-.172-.422c0-.166.057-.302.172-.406a.604.604 0 0 1 .421-.156h1.782v-1.781c0-.167.052-.308.156-.422a.524.524 0 0 1 .406-.172c.167 0 .308.057.422.172a.574.574 0 0 1 .172.421v1.782h1.781zM8.812 1.156H5.376V0h3.438v1.156zm3.72 1.782v-1a.776.776 0 0 0-.782-.782h-.5V0h.5c.542 0 1.005.188 1.39.563.386.375.579.833.579 1.375v1H12.53zm0 4.874V5.376h1.187v2.438H12.53zm-7.157 4.72h3.438v1.187H5.374V12.53zm-4.219-2.25v1.468a.776.776 0 0 0 .781.781h1v1.188h-1c-.541 0-1-.193-1.375-.578A1.923 1.923 0 0 1 0 11.75v-1.469h1.156zm0-4.907v2.438H0V5.374h1.156zM0 2.937v-1c0-.541.188-1 .563-1.375A1.87 1.87 0 0 1 1.938 0h1v1.156h-1a.75.75 0 0 0-.547.235.75.75 0 0 0-.235.546v1H0z"/>
</svg>
