<svg xmlns="http://www.w3.org/2000/svg" viewBox="0 0 16 16">
    <path d="M12.833 4.96c.34 0 .567.234.567.585 0 .352-.227.587-.567.587H8.297c-.34 0-.567-.235-.567-.587 0-.351.227-.586.567-.586zM3.086 2.718a1.027 1.027 0 1 1 0 2.053 1.027 1.027 0 0 1 0-2.053zM15.251 1.44c.348 0 .579.234.579.586s-.231.587-.579.587H8.31c-.348 0-.579-.235-.579-.587s.231-.586.579-.586zm-14.03.439v3.73h3.73V1.88h-3.73zm2.063 9.358l.863 1.554c.109.195.016.353-.218.353H2.247c-.229 0-.324-.163-.218-.353l.863-1.554c.108-.195.286-.19.392 0zM5.58.8c.272 0 .453.181.453.453v4.985c0 .272-.181.453-.453.453H.594c-.272 0-.453-.181-.453-.453V1.253C.14.981.322.8.594.8H5.58zm0 8.39c.272 0 .453.18.453.452v4.985c0 .272-.181.453-.453.453H.594c-.272 0-.453-.181-.453-.453V9.642c0-.272.181-.453.453-.453H5.58zm-.627 1.08H1.22V14h3.73v-3.73zm10.3-.44H8.308c-.348 0-.579.235-.579.586 0 .352.231.587.579.587h6.942c.348 0 .579-.235.579-.587 0-.351-.231-.586-.579-.586zm-2.419 3.518H8.297c-.34 0-.567.235-.567.587 0 .351.227.586.567.586h4.536c.34 0 .567-.235.567-.586 0-.352-.227-.587-.567-.587z"/>
</svg>
