<svg xmlns="http://www.w3.org/2000/svg" viewBox="0 0 16 16">
    <path stroke="#000" stroke-width=".3" d="M1 14c-.55 0-1-.458-1-1V3c0-.542.45-1 1-1h14c.55 0 1 .458 1 1v10c0 .542-.45 1-1 1H1zm14-1V3H1v10h14zm-4.474-6.1c-.42 0-.752.07-.995.223a1.112 1.112 0 0 0-.535.797l.72.057a.572.572 0 0 1 .274-.382.895.895 0 0 1 .485-.108c.472 0 .708.21.708.643v.128l-.72.019c-.485.013-.861.115-1.13.306a.965.965 0 0 0-.433.854c0 .274.102.498.306.676.198.172.466.261.81.261.287 0 .535-.05.746-.146.185-.09.344-.21.472-.376v.433h.675V8.181c0-.401-.102-.707-.306-.918-.23-.242-.593-.363-1.077-.363zm.657 1.88v.166a.805.805 0 0 1-.294.632 1.07 1.07 0 0 1-.707.242.629.629 0 0 1-.39-.121.34.34 0 0 1-.146-.287c0-.395.287-.6.867-.612l.67-.02zM5.49 5.8l-1.74 4.552h.797L4.96 9.21h1.906l.415 1.14h.797L6.339 5.8H5.49zm-.306 2.799l.72-1.996h.026L6.644 8.6h-1.46z"/>
</svg>
