<svg xmlns="http://www.w3.org/2000/svg" viewBox="0 0 16 16">
    <path d="M1 13.6a.6.6 0 0 1 .6-.6H5v1.2H1.6a.6.6 0 0 1-.6-.6zm8 0a.6.6 0 0 1 .6-.6h4.8a.6.6 0 0 1 0 1.2H9.6a.6.6 0 0 1-.6-.6zm-2.499 1.8h-1a.5.5 0 0 1-.5-.5v-2.6a.5.5 0 0 1 .5-.5h1a.5.5 0 0 1 .5.5v2.6a.5.5 0 0 1-.5.5zM1 2.4a.6.6 0 0 1 .6-.6H5V3H1.6a.6.6 0 0 1-.6-.6zm8 0a.6.6 0 0 1 .6-.6h4.8a.6.6 0 0 1 0 1.2H9.6a.6.6 0 0 1-.6-.6zM6.501 4.2h-1a.5.5 0 0 1-.5-.5V1.1a.5.5 0 0 1 .5-.5h1a.5.5 0 0 1 .5.5v2.6a.5.5 0 0 1-.5.5zM8 8.6H1.6a.6.6 0 1 1 0-1.2H8v-.7a.5.5 0 0 1 .5-.5h1a.5.5 0 0 1 .5.5v2.6a.5.5 0 0 1-.5.5h-1a.5.5 0 0 1-.5-.5v-.7zm6.4 0h-1.8a.6.6 0 0 1 0-1.2h1.8a.6.6 0 0 1 0 1.2z"/>
</svg>
