<svg xmlns="http://www.w3.org/2000/svg" viewBox="0 0 16 16">
    <path d="M8.309 2.614h6.942c.348 0 .579-.235.579-.587s-.231-.586-.579-.586H8.31c-.348 0-.579.234-.579.586s.231.587.579.587zm-.012 3.518h4.536c.34 0 .567-.235.567-.587 0-.351-.227-.586-.567-.586H8.297c-.34 0-.567.235-.567.586 0 .352.227.587.567.587zm-5.21-1.36a1.027 1.027 0 1 0 0-2.053 1.027 1.027 0 0 0 0 2.053zM5.578.8H.594C.322.8.141.981.141 1.253v4.985c0 .272.181.453.453.453H5.58c.272 0 .453-.181.453-.453V1.253C6.032.981 5.85.8 5.579.8zM2.892 11.238c.108-.195.286-.19.392 0l.863 1.554c.109.195.016.353-.218.353H2.247c-.229 0-.324-.163-.218-.353l.863-1.554zm2.687-2.049H.594c-.272 0-.453.181-.453.453v4.985c0 .272.181.453.453.453H5.58c.272 0 .453-.181.453-.453V9.642c0-.272-.181-.453-.453-.453zm9.672.641H8.31c-.348 0-.579.235-.579.586 0 .352.231.587.579.587h6.942c.348 0 .579-.235.579-.587 0-.351-.231-.586-.579-.586zm-2.418 3.518H8.297c-.34 0-.567.235-.567.587 0 .351.227.586.567.586h4.536c.34 0 .567-.235.567-.586 0-.352-.227-.587-.567-.587z"/>
</svg>
