<svg xmlns="http://www.w3.org/2000/svg" viewBox="0 0 16 16">
    <path stroke="#000" stroke-width=".3" d="M3.653 5.724a2.704 2.704 0 0 1-1.224.714v.74c.42-.122.765-.306 1.04-.555v3.653h.745V5.724h-.561zm3.684-.09c-.49 0-.886.167-1.186.498-.293.313-.44.72-.446 1.23h.746a1.39 1.39 0 0 1 .23-.81c.14-.19.35-.286.63-.286.262 0 .46.057.593.178.128.122.198.306.198.555 0 .255-.102.497-.3.72a4.193 4.193 0 0 1-.624.51c-.53.364-.88.644-1.046.836a1.755 1.755 0 0 0-.452 1.21h3.174V9.62H6.61c.102-.23.383-.497.848-.803.446-.3.765-.542.944-.733.293-.325.446-.682.446-1.078 0-.407-.14-.733-.42-.988a1.58 1.58 0 0 0-1.091-.382zm4.366 0c-.446 0-.816.122-1.103.377a1.483 1.483 0 0 0-.51 1.071h.733c.026-.274.115-.478.268-.612.147-.134.35-.198.619-.198.26 0 .459.058.592.172.122.115.185.281.185.504 0 .223-.07.395-.204.51-.14.115-.344.172-.612.172h-.318v.561h.318c.294 0 .517.058.67.185.153.121.236.313.236.574a.736.736 0 0 1-.224.542.948.948 0 0 1-.682.242.897.897 0 0 1-.63-.223c-.18-.16-.269-.389-.281-.682H10c.038.51.217.905.536 1.173.286.242.669.363 1.14.363.498 0 .9-.14 1.206-.414.293-.268.44-.612.44-1.033a.964.964 0 0 0-.23-.663 1.287 1.287 0 0 0-.618-.37c.503-.165.758-.497.758-.994 0-.396-.14-.702-.414-.925a1.747 1.747 0 0 0-1.116-.331zM15 13V3H1v10h14zM1 14c-.55 0-1-.458-1-1V3c0-.542.45-1 1-1h14c.55 0 1 .458 1 1v10c0 .542-.45 1-1 1H1z"/>
</svg>
