<svg xmlns="http://www.w3.org/2000/svg" viewBox="0 0 16 16">
    <path d="M8.309 2.614c-.348 0-.579-.235-.579-.587s.231-.586.579-.586h6.942c.348 0 .579.234.579.586s-.231.587-.579.587H8.31zm-.012 3.518c-.34 0-.567-.235-.567-.587 0-.351.227-.586.567-.586h4.536c.34 0 .567.235.567.586 0 .352-.227.587-.567.587H8.297zm-5.21-1.36a1.027 1.027 0 1 1 0-2.053 1.027 1.027 0 0 1 0 2.053zM1.22 1.88v3.73h3.73V1.88h-3.73zM5.579.8c.272 0 .453.181.453.453v4.985c0 .272-.181.453-.453.453H.594c-.272 0-.453-.181-.453-.453V1.253C.14.981.322.8.594.8H5.58zM2.892 11.238c.108-.195.286-.19.392 0l.863 1.554c.109.195.016.353-.218.353H2.247c-.229 0-.324-.163-.218-.353l.863-1.554zm2.687-2.049c.272 0 .453.181.453.453v4.985c0 .272-.181.453-.453.453H.594c-.272 0-.453-.181-.453-.453V9.642c0-.272.181-.453.453-.453H5.58zM1.22 10.27V14h3.73v-3.73h-3.73zm14.03-.439H8.31c-.348 0-.579.235-.579.586 0 .352.231.587.579.587h6.942c.348 0 .579-.235.579-.587 0-.351-.231-.586-.579-.586zm-2.418 3.518H8.297c-.34 0-.567.235-.567.587 0 .351.227.586.567.586h4.536c.34 0 .567-.235.567-.586 0-.352-.227-.587-.567-.587z"/>
</svg>
