<svg xmlns="http://www.w3.org/2000/svg" viewBox="0 0 16 16">
    <path d="M3.536 10.5l1.846-4.857H6.43L8.286 10.5H7.179l-.393-1.143H5.07L4.643 10.5H3.536zm1.821-2.036H6.43L5.91 7l-.554 1.464zm5.143-.821c-.714 0-.679.5-.679.5l-1-.072s-.027-.428.29-.785c.318-.357.576-.536 1.25-.536.675 0 1.675.143 1.675 1.5v2.179h-.996v-.215s-.857.715-1.929.072c-.573-.345-.495-1.429.179-1.857.674-.429 1.233-.322 1.714-.322 0 0 .21-.464-.504-.464zm.536 1.286s-.893 0-1.072.142c-.178.143-.218.372-.101.49.117.116.507.235.923-.07.25-.185.25-.562.25-.562zM15 13V3H1v10h14zM1 14c-.55 0-1-.458-1-1V3c0-.542.45-1 1-1h14c.55 0 1 .458 1 1v10c0 .542-.45 1-1 1H1z"/>
</svg>
