<svg xmlns="http://www.w3.org/2000/svg" viewBox="0 0 16 16">
    <path d="M1.6 10.87v3.53h4.53v-3.53H1.6zm-.4-1.2h5.33a.8.8 0 0 1 .8.8v4.33a.8.8 0 0 1-.8.8H1.2a.8.8 0 0 1-.8-.8v-4.33a.8.8 0 0 1 .8-.8zM9.87 1.6v3.53h4.53V1.6H9.87zM9.47.4h5.33a.8.8 0 0 1 .8.8v4.33a.8.8 0 0 1-.8.8H9.47a.8.8 0 0 1-.8-.8V1.2a.8.8 0 0 1 .8-.8zM1.6 1.6v5.53h4.53V1.6H1.6zM1.2.4h5.33a.8.8 0 0 1 .8.8v6.33a.8.8 0 0 1-.8.8H1.2a.8.8 0 0 1-.8-.8V1.2a.8.8 0 0 1 .8-.8zm8.67 14h4.53V8.87H9.87v5.53zm-.4-6.73h5.33a.8.8 0 0 1 .8.8v6.33a.8.8 0 0 1-.8.8H9.47a.8.8 0 0 1-.8-.8V8.47a.8.8 0 0 1 .8-.8z"/>
</svg>
