<svg xmlns="http://www.w3.org/2000/svg" viewBox="0 0 16 17">
    <path d="M12.015 5.732l-3.727 2-.947-1.354a.601.601 0 0 0-.79-.178L3.406 7.991a.6.6 0 1 0 .594 1.043l2.672-1.52.94 1.343c.175.25.508.33.775.185l4.196-2.252a.6.6 0 0 0-.567-1.058M2.44 4.142c0-.434.366-.8.8-.8h2.24a1.598 1.598 0 0 0 1.512 1.1h2.016c.706 0 1.3-.464 1.512-1.1h2.24c.434 0 .8.366.8.8v6.962H2.44V4.143zm4.152-1.538c0-.216.183-.4.4-.4h2.016c.217 0 .4.183.4.4v.236c0 .218-.183.4-.4.4H6.992a.405.405 0 0 1-.4-.4v-.236zm8.808 8.54h-.64V4.141c0-1.1-.9-2-2-2h-2.228a1.597 1.597 0 0 0-1.524-1.137H8.6V.9a.6.6 0 1 0-1.2 0v.104h-.408c-.721 0-1.324.482-1.524 1.139H3.24c-1.1 0-2 .9-2 2v7H.6a.6.6 0 1 0 0 1.2h4.212L3.023 15.02a.6.6 0 1 0 .998.665l2.234-3.343H7.4v3.01a.6.6 0 0 0 1.2 0v-3.01h1.278l2.235 3.343a.599.599 0 0 0 .833.166.6.6 0 0 0 .166-.832l-1.79-2.677H15.4a.6.6 0 1 0 0-1.199z"/>
</svg>
