<svg xmlns="http://www.w3.org/2000/svg" viewBox="0 0 16 16">
    <path d="M6.482 0c.54 0 1.006.454 1.006 1.022v2.11c0 .435-.28.814-.69.953C4.395 4.896 3 7.877 5.012 10.717c.072.102.167.198.27.27.95.673 1.917.965 2.813.965a4.03 4.03 0 0 0 3.818-2.75c.14-.41.519-.691.954-.691h2.11c.645 0 1.141.6.996 1.228A8.089 8.089 0 1 1 6.26.025.997.997 0 0 1 6.48 0zM6.36 1.164a6.96 6.96 0 0 0 1.736 13.707 6.924 6.924 0 0 0 6.74-5.23h-1.878a5.16 5.16 0 0 1-4.862 3.44 6.013 6.013 0 0 1-3.466-1.173 2.298 2.298 0 0 1-.539-.538C2.957 9.768 2.63 7.972 3.17 6.31a5.192 5.192 0 0 1 3.19-3.268V1.164zm2.343-.143A1.02 1.02 0 0 1 9.93.025a8.092 8.092 0 0 1 6.045 6.046 1.014 1.014 0 0 1-.996 1.226h-2.112a.993.993 0 0 1-.946-.674 4.03 4.03 0 0 0-2.544-2.544.993.993 0 0 1-.673-.945V1.021z"/>
</svg>
