<svg xmlns="http://www.w3.org/2000/svg" viewBox="0 0 16 16">
    <path d="M13.046 5.231H9.271V1.916A1.918 1.918 0 0 0 7.355 0h-.926a.991.991 0 0 0-.99.99v1.183a6.706 6.706 0 0 1-1.456 4.162c-.056.072-.101.15-.15.225a1.585 1.585 0 0 0-.873-.262H1.6c-.882 0-1.6.718-1.6 1.6V14.4c0 .882.718 1.6 1.6 1.6h1.36c.74 0 1.359-.508 1.54-1.191a2.845 2.845 0 0 0 1.727.592h4.82a4.07 4.07 0 0 0 4.067-4.066V7.298a2.07 2.07 0 0 0-2.068-2.067M3.36 14.4a.406.406 0 0 1-.4.401H1.6a.406.406 0 0 1-.4-.401V7.898a.4.4 0 0 1 .4-.4h1.36c.217 0 .4.183.4.4V14.4m10.554-3.065a2.87 2.87 0 0 1-2.867 2.867h-4.82a1.67 1.67 0 0 1-1.667-1.667V8.123c0-.383.125-.743.362-1.04a7.919 7.919 0 0 0 1.717-4.91V1.2h.716c.395 0 .716.322.716.716v3.915a.6.6 0 0 0 .6.6h4.375c.479 0 .868.389.868.867v4.037"/>
</svg>
