<svg xmlns="http://www.w3.org/2000/svg" viewBox="0 0 20 20">
    <path fill="#000" fill-rule="evenodd" d="M15.046 7.231h-3.775V3.916A1.918 1.918 0 0 0 9.355 2h-.926a.991.991 0 0 0-.99.99v1.183a6.706 6.706 0 0 1-1.456 4.162c-.056.072-.101.15-.15.225a1.585 1.585 0 0 0-.873-.262H3.6c-.882 0-1.6.718-1.6 1.6V16.4c0 .882.718 1.6 1.6 1.6h1.36c.74 0 1.359-.508 1.54-1.191a2.845 2.845 0 0 0 1.727.592h4.82a4.07 4.07 0 0 0 4.067-4.066V9.298a2.07 2.07 0 0 0-2.068-2.067m.868 6.104a2.87 2.87 0 0 1-2.867 2.867h-4.82a1.67 1.67 0 0 1-1.667-1.667v-4.412c0-.383.125-.743.362-1.04a7.919 7.919 0 0 0 1.717-4.91V3.2h.716c.395 0 .716.322.716.716v3.915a.6.6 0 0 0 .6.6h4.375c.479 0 .868.389.868.867v4.037"/>
</svg>
