<svg xmlns="http://www.w3.org/2000/svg" viewBox="0 0 16 16">
    <path d="M8.5 1.5a5.5 5.5 0 0 1 5.49 5.832 3.499 3.499 0 0 1-.99 6.632V14H4a4 4 0 0 1-.928-7.892A5.501 5.501 0 0 1 8.5 1.5zm0 1.2a4.301 4.301 0 0 0-4.243 3.601 1.2 1.2 0 0 1-.782.938l-.294.082A2.802 2.802 0 0 0 4 12.8h8.71l.06-.013.22-.039a2.302 2.302 0 0 0 .645-4.249l-.272-.144a1.2 1.2 0 0 1-.57-1.094A4.3 4.3 0 0 0 8.5 2.7zm1.313 5.871a.6.6 0 0 1 1.145.36 3.1 3.1 0 0 1-5.916 0 .6.6 0 1 1 1.145-.36 1.901 1.901 0 0 0 3.626 0z"/>
</svg>
