<svg xmlns="http://www.w3.org/2000/svg" viewBox="0 0 16 16">
    <path d="M11.957 1a1 1 0 0 1 .988 1.156l-.107.677a2.172 2.172 0 0 1-2.145 1.834h-.401l-.15 1.676c1.598.557 2.858 1.79 3.78 3.7a.667.667 0 0 1-.6.957H8.805l-.198 4.165a.53.53 0 0 1-.526.502h-.148a.53.53 0 0 1-.527-.502L7.195 11H2.68a.667.667 0 0 1-.6-.956C3 8.134 4.26 6.9 5.858 6.344l-.15-1.677h-.402a2.172 2.172 0 0 1-2.145-1.834l-.107-.677A1 1 0 0 1 4.043 1h7.914zm-.39 1.333H4.433l.046.293a.838.838 0 0 0 .828.707h.401c.69 0 1.267.527 1.328 1.215l.15 1.676a1.333 1.333 0 0 1-.89 1.378c-.971.339-1.796 1.014-2.481 2.065h8.37c-.685-1.051-1.51-1.726-2.481-2.065a1.333 1.333 0 0 1-.89-1.377l.15-1.677a1.333 1.333 0 0 1 1.328-1.215h.401c.413 0 .764-.3.828-.707l.046-.293z"/>
</svg>
