<svg xmlns="http://www.w3.org/2000/svg" viewBox="0 0 20 20">
    <path fill="#000" fill-rule="evenodd" d="M16.968 7.974c0 .125-.097.313-.194.5v.031c-.582 1.187-2.101 3.53-2.101 3.53l-.42.75h2.1L12.315 18l.905-3.56h-1.68l.581-2.343c-.452.094-1.002.25-1.68.469 0 0-.873.5-2.554-.969 0 0-1.13-.968-.484-1.218.29-.093 1.357-.218 2.197-.343 1.164-.156 1.842-.219 1.842-.219s-3.522.031-4.33-.093c-.84-.125-1.907-1.468-2.133-2.655 0 0-.356-.656.743-.344 1.099.313 5.656 1.218 5.656 1.218s-5.914-1.78-6.302-2.186c-.388-.437-1.164-2.343-1.067-3.53 0 0 .033-.28.356-.218 0 0 4.363 1.937 7.368 2.998 2.973 1.062 5.591 1.593 5.236 2.967z"/>
</svg>
