<svg xmlns="http://www.w3.org/2000/svg" viewBox="0 0 16 16">
    <path d="M11.9 14.8h2.5a.4.4 0 0 0 .4-.4V7.176a1.4 1.4 0 0 0-.287-.85l-3.49-4.575A1.4 1.4 0 0 0 9.91 1.2H1.6a.4.4 0 0 0-.4.4v12.8c0 .22.18.4.4.4h2.5V8.5a1.1 1.1 0 0 1 1.1-1.1h5.6a1.1 1.1 0 0 1 1.1 1.1v6.3zM5.3 8.6v6.2h2.8V16H1.6A1.6 1.6 0 0 1 0 14.4V1.6A1.6 1.6 0 0 1 1.6 0h8.31a2.6 2.6 0 0 1 2.067 1.023l3.49 4.576A2.6 2.6 0 0 1 16 7.176V14.4a1.6 1.6 0 0 1-1.6 1.6H8v-1.2h2.7V8.6H5.3zM4.1 5.1a1.1 1.1 0 1 1 0-2.2 1.1 1.1 0 0 1 0 2.2zM6.9 11h2.2a.6.6 0 0 1 0 1.2H6.9a.6.6 0 0 1 0-1.2z"/>
</svg>
