<svg xmlns="http://www.w3.org/2000/svg" viewBox="0 0 16 17">
    <path d="M2.3 9.85a1 1 0 0 1-1-1v-.8a1 1 0 0 1 1-1h.8a1 1 0 0 1 1 1v.8a1 1 0 0 1-1 1h-.8zm0-5.25a1 1 0 0 1-1-1v-.8a1 1 0 0 1 1-1h.8a1 1 0 0 1 1 1v.8a1 1 0 0 1-1 1h-.8zm0 10.5a1 1 0 0 1-1-1v-.8a1 1 0 0 1 1-1h.8a1 1 0 0 1 1 1v.8a1 1 0 0 1-1 1h-.8zm5.25 0a1 1 0 0 1-1-1v-.8a1 1 0 0 1 1-1h.8a1 1 0 0 1 1 1v.8a1 1 0 0 1-1 1h-.8zm5.25-5.25a1 1 0 0 1-1-1v-.8a1 1 0 0 1 1-1h.8a1 1 0 0 1 1 1v.8a1 1 0 0 1-1 1h-.8zm-5.25 0a1 1 0 0 1-1-1v-.8a1 1 0 0 1 1-1h.8a1 1 0 0 1 1 1v.8a1 1 0 0 1-1 1h-.8zm5.25 5.25a1 1 0 0 1-1-1v-.8a1 1 0 0 1 1-1h.8a1 1 0 0 1 1 1v.8a1 1 0 0 1-1 1h-.8zm-.9-12.3a1 1 0 0 1 1-1h.8a1 1 0 0 1 1 1v.8a1 1 0 0 1-1 1h-.8a1 1 0 0 1-1-1v-.8zM7.55 4.6a1 1 0 0 1-1-1v-.8a1 1 0 0 1 1-1h.8a1 1 0 0 1 1 1v.8a1 1 0 0 1-1 1h-.8z"/>
</svg>
