<svg xmlns="http://www.w3.org/2000/svg" viewBox="0 0 16 17">
    <path d="M3.1 12.3a1 1 0 0 1 1 1v.8a1 1 0 0 1-1 1h-.8a1 1 0 0 1-1-1v-.8a1 1 0 0 1 1-1zm5.25 0a1 1 0 0 1 1 1v.8a1 1 0 0 1-1 1h-.8a1 1 0 0 1-1-1v-.8a1 1 0 0 1 1-1zm5.25 0a1 1 0 0 1 1 1v.8a1 1 0 0 1-1 1h-.8a1 1 0 0 1-1-1v-.8a1 1 0 0 1 1-1zM3.1 7.05a1 1 0 0 1 1 1v.8a1 1 0 0 1-1 1h-.8a1 1 0 0 1-1-1v-.8a1 1 0 0 1 1-1zm10.5 0a1 1 0 0 1 1 1v.8a1 1 0 0 1-1 1h-.8a1 1 0 0 1-1-1v-.8a1 1 0 0 1 1-1zm-5.25 0a1 1 0 0 1 1 1v.8a1 1 0 0 1-1 1h-.8a1 1 0 0 1-1-1v-.8a1 1 0 0 1 1-1zM3.1 1.8a1 1 0 0 1 1 1v.8a1 1 0 0 1-1 1h-.8a1 1 0 0 1-1-1v-.8a1 1 0 0 1 1-1zm10.6 0a1 1 0 0 1 1 1v.8a1 1 0 0 1-1 1h-.8a1 1 0 0 1-1-1v-.8a1 1 0 0 1 1-1zm-5.35 0a1 1 0 0 1 1 1v.8a1 1 0 0 1-1 1h-.8a1 1 0 0 1-1-1v-.8a1 1 0 0 1 1-1z"/>
</svg>
