<svg xmlns="http://www.w3.org/2000/svg" viewBox="0 0 16 17">
    <path d="M2.3 9.85h.8a1 1 0 0 0 1-1v-.8a1 1 0 0 0-1-1h-.8a1 1 0 0 0-1 1v.8a1 1 0 0 0 1 1zm0-5.25h.8a1 1 0 0 0 1-1v-.8a1 1 0 0 0-1-1h-.8a1 1 0 0 0-1 1v.8a1 1 0 0 0 1 1zm0 10.5h.8a1 1 0 0 0 1-1v-.8a1 1 0 0 0-1-1h-.8a1 1 0 0 0-1 1v.8a1 1 0 0 0 1 1zm5.25 0h.8a1 1 0 0 0 1-1v-.8a1 1 0 0 0-1-1h-.8a1 1 0 0 0-1 1v.8a1 1 0 0 0 1 1zm5.25-5.25h.8a1 1 0 0 0 1-1v-.8a1 1 0 0 0-1-1h-.8a1 1 0 0 0-1 1v.8a1 1 0 0 0 1 1zm-5.25 0h.8a1 1 0 0 0 1-1v-.8a1 1 0 0 0-1-1h-.8a1 1 0 0 0-1 1v.8a1 1 0 0 0 1 1zm5.25 5.25h.8a1 1 0 0 0 1-1v-.8a1 1 0 0 0-1-1h-.8a1 1 0 0 0-1 1v.8a1 1 0 0 0 1 1zm-.9-12.3v.8a1 1 0 0 0 1 1h.8a1 1 0 0 0 1-1v-.8a1 1 0 0 0-1-1h-.8a1 1 0 0 0-1 1zM7.55 4.6h.8a1 1 0 0 0 1-1v-.8a1 1 0 0 0-1-1h-.8a1 1 0 0 0-1 1v.8a1 1 0 0 0 1 1z"/>
</svg>
