<svg xmlns="http://www.w3.org/2000/svg" viewBox="0 0 20 20">
    <path fill="#000" fill-rule="evenodd" d="M4.20985651,5.91550033 L4.20985651,12.4680566 L5.76542846,12.4680566 L6.60080909,15.3546043 L3,15.3546043 L3,16.9999852 L17,16.9999852 L17,15.3546043 L13.3991909,15.3546043 L14.2345715,12.4680566 L15.8189039,12.4680566 L15.8189039,5.91550033 L4.20985651,5.91550033 L4.20985651,5.91550033 L4.20985651,5.91550033 Z M7.3786688,12.4680566 L12.6213312,12.4680566 L11.7859506,15.3257846 L8.24280989,15.3257846 M6.19757274,10.8226757 L6.19757274,7.56088127 L13.8024273,7.56088127 L13.8024273,10.8226757 L6.19757274,10.8226757 Z M3.37447589,4.67418582 L16.6255241,4.67418582 L16.6255241,3 L3.37447589,3 L3.37447589,4.67418582 L3.37447589,4.67418582 L3.37447589,4.67418582 Z"/>
</svg>
