<?xml version="1.0" encoding="UTF-8" standalone="no"?>
<svg width="20px" height="20px" viewBox="0 0 20 20" version="1.1" xmlns="http://www.w3.org/2000/svg" xmlns:xlink="http://www.w3.org/1999/xlink">
    <defs></defs>
    <g id="Icons" stroke="none" stroke-width="1" fill="none" fill-rule="evenodd">
        <g id="Web" transform="translate(-289.000000, -792.000000)" fill="#000000">
            <g id="arrow/download" transform="translate(289.000000, 792.000000)">
                <path d="M10,18 C14.418,18 18,14.418 18,10 C18,5.582 14.418,2 10,2 C5.582,2 2,5.582 2,10 C2,14.418 5.582,18 10,18 L10,18 L10,18 M9.4002,6.4856 C9.4002,6.1536 9.6692,5.8856 10.0002,5.8856 C10.3322,5.8856 10.6002,6.1536 10.6002,6.4856 L10.6002,12.0666 L12.9092,9.7576 C13.1432,9.5236 13.5242,9.5236 13.7572,9.7576 C13.8742,9.8746 13.9332,10.0286 13.9332,10.1816 C13.9332,10.3356 13.8742,10.4886 13.7572,10.6066 L10.4242,13.9396 C10.1902,14.1736 9.8102,14.1736 9.5762,13.9396 L6.2422,10.6066 C6.0082,10.3716 6.0082,9.9916 6.2422,9.7576 C6.4772,9.5236 6.8572,9.5236 7.0912,9.7576 L9.4002,12.0666" id="Shape"></path>
            </g>
        </g>
    </g>
</svg>