<svg xmlns="http://www.w3.org/2000/svg" viewBox="0 0 16 16">
    <path d="M12.8 14.8H3.2a.405.405 0 0 1-.4-.4V1.6c0-.217.183-.4.4-.4h4.401v3.883c0 .917.75 1.667 1.667 1.667H13.2v7.65c0 .217-.183.4-.4.4zM8.801 1.874l3.676 3.676H9.268a.473.473 0 0 1-.467-.467V1.874zm5.13 3.433L9.093.469A1.6 1.6 0 0 0 7.961 0H3.2c-.88 0-1.6.72-1.6 1.6v12.8c0 .88.72 1.6 1.6 1.6h9.6c.88 0 1.6-.72 1.6-1.6V6.439a1.6 1.6 0 0 0-.469-1.132zm-7.497 5.537l.966.967v-3.55a.6.6 0 1 1 1.2 0v3.55l.967-.967a.6.6 0 0 1 .848.848l-1.99 1.991a.595.595 0 0 1-.85 0l-1.99-1.99a.6.6 0 1 1 .849-.849"/>
</svg>
