<?xml version="1.0" encoding="UTF-8" standalone="no"?>
<svg width="20px" height="20px" viewBox="0 0 20 20" version="1.1" xmlns="http://www.w3.org/2000/svg" xmlns:xlink="http://www.w3.org/1999/xlink">
    <defs></defs>
    <g id="Icons" stroke="none" stroke-width="1" fill="none" fill-rule="evenodd">
        <g id="Web" transform="translate(-145.000000, -988.000000)" fill="#000000">
            <g id="brand/dribbble" transform="translate(145.000000, 988.000000)">
                <path d="M10,2 C5.59376,2 2,5.59376 2,10 C2,14.40624 5.59376,18 10,18 C14.40624,18 18,14.40624 18,10 C18,5.59376 14.40624,2 10,2 L10,2 L10,2 Z M13.87504,15.18752 C13.71872,14.5 13.37504,12.87504 12.68752,10.93744 C13.06256,10.90624 13.43744,10.87504 13.81248,10.87504 C15,10.87504 15.9688,11.09376 16.37504,11.21872 C16.06256,12.81248 15.15632,14.21872 13.87504,15.18752 L13.87504,15.18752 L13.87504,15.18752 Z M10,16.5 C8.59376,16.5 7.28128,16.06256 6.15632,15.21872 C6.5,14.62496 7.87504,12.5 11.06256,11.34368 C11.87504,13.5 12.24992,15.31248 12.37504,16.0312 C11.62496,16.34368 10.81248,16.5 10,16.5 L10,16.5 L10,16.5 Z M15.15632,6.12496 C15.93744,7.15632 16.40624,8.40624 16.4688,9.71872 C15.9688,9.62496 14.84368,9.43744 13.56256,9.43744 C13.06256,9.43744 12.59376,9.4688 12.15632,9.5312 L12.06256,9.31248 L11.71872,8.5312 C13.68752,7.68752 14.78128,6.56256 15.15632,6.12496 L15.15632,6.12496 L15.15632,6.12496 Z M3.5312,10 L3.56256,10 C4.34368,10 7.18752,9.93744 10.09376,9.09376 L10.4688,9.87504 L10.40624,9.87504 C7.34368,10.87504 5.5312,13.34368 5.0312,14.15632 C4.06256,12.9688 3.5312,11.5312 3.5312,10 L3.5312,10 L3.5312,10 Z M14.15632,5.06256 C13.84368,5.43744 12.87504,6.4688 11.0312,7.18752 C10.12496,5.56256 9.18752,4.21872 8.78128,3.65632 C10.65632,3.28128 12.68752,3.81248 14.15632,5.06256 L14.15632,5.06256 L14.15632,5.06256 Z M7.09376,4.21872 C7.43744,4.65632 8.40624,6.06256 9.34368,7.71872 C6.78128,8.34368 4.5312,8.43744 3.71872,8.43744 C4.18752,6.62496 5.43744,5.06256 7.09376,4.21872 L7.09376,4.21872 L7.09376,4.21872 Z" id="Shape"></path>
            </g>
        </g>
    </g>
</svg>