<svg xmlns="http://www.w3.org/2000/svg" viewBox="0 0 16 16">
    <path fill="#000" fill-rule="evenodd" d="M8 0C3.594 0 0 3.594 0 8c0 4.406 3.594 8 8 8 4.406 0 8-3.594 8-8 0-4.406-3.594-8-8-8zm3.875 13.188c-.156-.688-.5-2.313-1.187-4.25.375-.032.75-.063 1.124-.063a9.36 9.36 0 0 1 2.563.344 6.578 6.578 0 0 1-2.5 3.969zM8 14.5a6.318 6.318 0 0 1-3.844-1.281c.344-.594 1.719-2.719 4.907-3.875a27.17 27.17 0 0 1 1.312 4.687A6.19 6.19 0 0 1 8 14.5zm5.156-10.375a6.47 6.47 0 0 1 1.313 3.594c-.5-.094-1.625-.282-2.906-.282-.5 0-.97.032-1.407.094l-.093-.219-.344-.78a9.46 9.46 0 0 0 3.437-2.407zM1.531 8h.032c.78 0 3.625-.063 6.53-.906l.376.781h-.063c-3.062 1-4.875 3.469-5.375 4.281A6.525 6.525 0 0 1 1.531 8zm10.625-4.937c-.312.374-1.281 1.406-3.125 2.125a37.471 37.471 0 0 0-2.25-3.532 6.457 6.457 0 0 1 5.375 1.407zm-7.062-.844a34.09 34.09 0 0 1 2.25 3.5 25.455 25.455 0 0 1-5.625.718A6.636 6.636 0 0 1 5.094 2.22z"/>
</svg>
