<svg xmlns="http://www.w3.org/2000/svg" viewBox="0 0 16 16">
    <path d="M9.132 6.264c.357.67.664 1.364.928 2.077 1.072-.21 2.17-.32 3.291-.32.73 0 1.835.091 2.639.19a7.898 7.898 0 0 0-1.801-5.28 17.706 17.706 0 0 1-5.057 3.332zm4.22 2.453c-1.04 0-2.062.101-3.058.288a16.962 16.962 0 0 1 .797 6.375 8.002 8.002 0 0 0 4.855-6.474c-.79-.098-1.9-.189-2.594-.189zM.098 6.812c.816.09 1.74.144 2.336.144 1.964 0 3.885-.36 5.699-1.04a16.712 16.712 0 0 0-4.264-4.758 7.995 7.995 0 0 0-3.77 5.654zM10.38 15.64a16.263 16.263 0 0 0-.772-6.487 16.79 16.79 0 0 0-7.6 4.135 7.976 7.976 0 0 0 8.371 2.352h.001zM9.375 8.49a16.422 16.422 0 0 0-.893-1.964 16.875 16.875 0 0 1-6.048 1.126c-.628 0-1.565-.056-2.408-.15C.014 7.666 0 7.83 0 8c0 1.779.588 3.416 1.57 4.744A17.489 17.489 0 0 1 9.375 8.49zM4.54.796a17.424 17.424 0 0 1 4.247 4.86 16.98 16.98 0 0 0 4.936-3.24A7.97 7.97 0 0 0 4.538.794h.001z"/>
</svg>
