<svg xmlns="http://www.w3.org/2000/svg" viewBox="0 0 20 20">
    <path fill="#000" fill-rule="evenodd" d="M6.71888,15.0378836 L5.25008,14.0924071 L5.25008,15.1324312 L9.9688,18 L14.68752,15.1324312 L14.68752,14.0924071 L13.31248,15.0378836 L9.9688,12.233239 L6.71888,15.0378836 L6.71888,15.0378836 L6.71888,15.0378836 L6.71888,15.0378836 Z M13.25008,3 L9.9688,5.77318246 L14.71888,8.73529886 L9.9688,11.6659532 L13.25008,14.4075122 L18,11.319386 L14.71888,8.73529886 L18,6.05682539 L13.25008,3 L13.25008,3 L13.25008,3 L13.25008,3 Z M6.71888,3 L2,6.05682539 L5.25008,8.73529886 L9.9688,5.77318246 L6.71888,3 L6.71888,3 L6.71888,3 L6.71888,3 Z M2,11.319386 L6.71888,14.4075122 L9.9688,11.6659532 L5.25008,8.73529886 L2,11.319386 L2,11.319386 L2,11.319386 L2,11.319386 Z"/>
</svg>
