<svg xmlns="http://www.w3.org/2000/svg" viewBox="0 0 16 16">
    <path d="M8 0a8 8 0 1 0 0 16A8 8 0 0 0 8 0M1.955 11.099h3.094a10.764 10.764 0 0 0 1.112 3.441 6.823 6.823 0 0 1-4.206-3.441M8 14.8c-.377 0-1.273-1.27-1.726-3.701h3.452C9.273 13.53 8.377 14.8 8 14.8m1.839-.26c.488-.86.877-2.048 1.112-3.441h3.094a6.823 6.823 0 0 1-4.206 3.441M1.476 9.902A6.76 6.76 0 0 1 1.475 6.1h3.419a19.716 19.716 0 0 0 0 3.8H1.487l-.011.002M6.107 9.9a17.574 17.574 0 0 1 0-3.8h3.786C9.955 6.688 10 7.309 10 8c0 .69-.045 1.312-.107 1.9H6.107m8.38 0h-3.382a19.394 19.394 0 0 0 0-3.8h3.362c.019 0 .036-.009.055-.011a6.777 6.777 0 0 1 .001 3.818c-.013-.001-.023-.007-.036-.007M6.161 1.459c-.488.86-.877 2.048-1.112 3.441H1.955a6.823 6.823 0 0 1 4.206-3.441M8 1.2c.377 0 1.273 1.269 1.725 3.7H6.274C6.727 2.469 7.623 1.2 8 1.2m6.045 3.7H10.95a10.74 10.74 0 0 0-1.111-3.441A6.823 6.823 0 0 1 14.045 4.9"/>
</svg>
