<svg xmlns="http://www.w3.org/2000/svg" viewBox="0 0 20 20">
    <path fill="#000" fill-rule="evenodd" d="M10 2a8 8 0 1 0 0 16 8 8 0 0 0 0-16M3.955 13.099h3.094a10.764 10.764 0 0 0 1.112 3.441 6.823 6.823 0 0 1-4.206-3.441M10 16.8c-.377 0-1.273-1.27-1.726-3.701h3.452C11.273 15.53 10.377 16.8 10 16.8m1.839-.26c.488-.86.877-2.048 1.112-3.441h3.094a6.823 6.823 0 0 1-4.206 3.441m-8.363-4.638A6.76 6.76 0 0 1 3.475 8.1h3.419a19.716 19.716 0 0 0 0 3.8H3.487l-.011.002m4.631-.002a17.574 17.574 0 0 1 0-3.8h3.786c.062.588.107 1.209.107 1.9 0 .69-.045 1.312-.107 1.9H8.107m8.38 0h-3.382a19.394 19.394 0 0 0 0-3.8h3.362c.019 0 .036-.009.055-.011a6.777 6.777 0 0 1 .001 3.818c-.013-.001-.023-.007-.036-.007M8.161 3.459c-.488.86-.877 2.048-1.112 3.441H3.955a6.823 6.823 0 0 1 4.206-3.441M10 3.2c.377 0 1.273 1.269 1.725 3.7H8.274C8.727 4.469 9.623 3.2 10 3.2m6.045 3.7H12.95a10.74 10.74 0 0 0-1.111-3.441A6.823 6.823 0 0 1 16.045 6.9"/>
</svg>
