<svg xmlns="http://www.w3.org/2000/svg" viewBox="0 0 20 20">
    <path fill="#000" fill-rule="evenodd" d="M10,2 C5.582,2 2,5.581 2,10 C2,14.418 5.582,18 10,18 C14.418,18 18,14.418 18,10 C18,5.581 14.418,2 10,2 L10,2 L10,2 L10,2 Z M3.955,13.099 L7.049,13.099 C7.284,14.492 7.673,15.68 8.161,16.54 C6.329,16.024 4.811,14.761 3.955,13.099 L3.955,13.099 L3.955,13.099 L3.955,13.099 Z M10,16.8 C9.623,16.8 8.727,15.53 8.274,13.099 L11.726,13.099 C11.273,15.53 10.377,16.8 10,16.8 L10,16.8 L10,16.8 L10,16.8 Z M11.839,16.54 C12.327,15.68 12.716,14.492 12.951,13.099 L16.045,13.099 C15.189,14.761 13.671,16.024 11.839,16.54 L11.839,16.54 L11.839,16.54 L11.839,16.54 Z M3.476,11.902 C3.299,11.297 3.2,10.66 3.2,10 C3.2,9.34 3.299,8.704 3.475,8.1 L6.894,8.1 C6.835,8.71 6.8,9.344 6.8,10 C6.8,10.656 6.835,11.29 6.894,11.9 L3.487,11.9 C3.483,11.9 3.48,11.902 3.476,11.902 L3.476,11.902 L3.476,11.902 L3.476,11.902 Z M8.107,11.9 C8.044,11.312 8,10.69 8,10 C8,9.309 8.044,8.688 8.107,8.1 L11.893,8.1 C11.955,8.688 12,9.309 12,10 C12,10.69 11.955,11.312 11.893,11.9 L8.107,11.9 L8.107,11.9 L8.107,11.9 L8.107,11.9 Z M16.487,11.9 L13.105,11.9 C13.165,11.29 13.2,10.656 13.2,10 C13.2,9.344 13.165,8.71 13.105,8.1 L16.467,8.1 C16.486,8.1 16.503,8.091 16.522,8.089 C16.7,8.696 16.8,9.336 16.8,10 C16.8,10.662 16.7,11.301 16.523,11.907 C16.51,11.906 16.5,11.9 16.487,11.9 L16.487,11.9 L16.487,11.9 L16.487,11.9 Z M8.161,3.459 C7.673,4.319 7.284,5.507 7.049,6.9 L3.955,6.9 C4.811,5.238 6.329,3.975 8.161,3.459 L8.161,3.459 L8.161,3.459 L8.161,3.459 Z M10,3.2 C10.377,3.2 11.273,4.469 11.725,6.9 L8.274,6.9 C8.727,4.469 9.623,3.2 10,3.2 L10,3.2 L10,3.2 L10,3.2 Z M16.045,6.9 L12.95,6.9 C12.716,5.507 12.327,4.319 11.839,3.459 C13.671,3.975 15.189,5.238 16.045,6.9 L16.045,6.9 L16.045,6.9 L16.045,6.9 Z"/>
</svg>
