<svg xmlns="http://www.w3.org/2000/svg" viewBox="0 0 17 17">
    <path d="M14.235 8.592c0-.33.27-.6.6-.6.33 0 .6.27.6.6V15c0 1.1-.9 2-2 2H3.002c-1.1 0-2-.9-2-2V4.565c0-1.1.9-2 2-2h6.107c.33 0 .6.27.6.6 0 .33-.27.6-.6.6H3.001a.81.81 0 0 0-.8.8v10.434c0 .433.367.8.8.8h10.435a.81.81 0 0 0 .8-.8V8.592zm1.095-7.269l1.334 1.335a1.148 1.148 0 0 1 0 1.619L10.13 10.81a1.09 1.09 0 0 1-.51.289l-2.671.668a.602.602 0 0 1-.728-.728l.668-2.673c.049-.192.148-.367.287-.508l6.536-6.536a1.172 1.172 0 0 1 1.619 0zm-1.426 1.504l1.258 1.258.653-.656-1.293-1.219-.618.617zM7.62 10.363l1.708-.428 4.986-5-1.26-1.259-5.03 5.03-.404 1.657z"/>
</svg>
