<svg xmlns="http://www.w3.org/2000/svg" viewBox="0 0 20 20">
    <path fill="#000" fill-rule="evenodd" d="M10 2a8 8 0 1 0 0 16 8 8 0 0 0 0-16m0 1.2c3.75 0 6.8 3.05 6.8 6.8s-3.05 6.8-6.8 6.8-6.8-3.05-6.8-6.8S6.25 3.2 10 3.2m0 11.14a4.729 4.729 0 0 1-4.44-3.065.599.599 0 1 1 1.12-.43A3.54 3.54 0 0 0 10 13.14a3.54 3.54 0 0 0 3.321-2.296.6.6 0 1 1 1.12.43 4.728 4.728 0 0 1-4.44 3.065m3.753-6a.833.833 0 1 1-1.667 0 .833.833 0 0 1 1.667 0m-5.841-.013a.833.833 0 1 1-1.666 0 .833.833 0 0 1 1.666 0"/>
</svg>
