<svg xmlns="http://www.w3.org/2000/svg" viewBox="0 0 20 20">
    <path fill="#000" fill-rule="evenodd" d="M10,2 C5.582,2 2,5.582 2,10 C2,14.418 5.582,18 10,18 C14.418,18 18,14.418 18,10 C18,5.582 14.418,2 10,2 L10,2 Z M10,3.2 C13.75,3.2 16.8,6.25 16.8,10 C16.8,13.75 13.75,16.8 10,16.8 C6.25,16.8 3.2,13.75 3.2,10 C3.2,6.25 6.25,3.2 10,3.2 L10,3.2 Z M10.0001,14.3398 C8.0161,14.3398 6.2731,13.1368 5.5591,11.2748 C5.4401,10.9648 5.5941,10.6188 5.9041,10.4998 C6.2121,10.3808 6.5601,10.5348 6.6791,10.8448 C7.2141,12.2388 8.5171,13.1408 10.0001,13.1408 C11.4831,13.1408 12.7861,12.2388 13.3211,10.8448 C13.4391,10.5358 13.7861,10.3808 14.0961,10.4998 C14.4051,10.6178 14.5601,10.9648 14.4411,11.2748 C13.7281,13.1368 11.9841,14.3398 10.0001,14.3398 L10.0001,14.3398 Z M13.7536,8.3403 C13.7536,8.8003 13.3806,9.1733 12.9206,9.1733 C12.4596,9.1733 12.0866,8.8003 12.0866,8.3403 C12.0866,7.8803 12.4596,7.5073 12.9206,7.5073 C13.3806,7.5073 13.7536,7.8803 13.7536,8.3403 L13.7536,8.3403 Z M7.913,8.3274 C7.913,8.7874 7.54,9.1604 7.08,9.1604 C6.619,9.1604 6.246,8.7874 6.246,8.3274 C6.246,7.8674 6.619,7.4944 7.08,7.4944 C7.54,7.4944 7.913,7.8674 7.913,8.3274 L7.913,8.3274 Z"/>
</svg>
