<svg xmlns="http://www.w3.org/2000/svg" viewBox="0 0 16 16">
    <path d="M12.12 14.814V1.185H5.227v1.427a.593.593 0 0 1-1.185 0V.592c0-.326.266-.592.592-.592h10.773c.328 0 .594.266.594.593v14.813a.593.593 0 0 1-.594.593H4.633a.593.593 0 0 1-.592-.593v-2.02a.593.593 0 1 1 1.185 0v1.428h6.895zm1.187 0h1.508V1.185h-1.508v13.629zM7.916 7.406L6.235 5.724a.594.594 0 0 1 .838-.837l2.668 2.668a.593.593 0 0 1 .01.88L7.072 11.11a.592.592 0 1 1-.838-.837l1.682-1.682H.594a.594.594 0 0 1 0-1.186h7.322z"/>
</svg>
