<svg xmlns="http://www.w3.org/2000/svg" viewBox="0 0 16 16">
    <path fill="#000" fill-rule="evenodd" d="M14 2H2C.9 2 0 2.9 0 4v8.8c0 1.1.9 2 2 2h12c1.1 0 2-.9 2-2V4c0-1.1-.9-2-2-2m.8 10.8a.81.81 0 0 1-.8.8H2a.81.81 0 0 1-.8-.8V4c0-.434.366-.8.8-.8h12c.434 0 .8.366.8.8v8.8m-.706-7.543a.601.601 0 0 0-.835-.152l-5.26 3.637-5.258-3.637a.6.6 0 0 0-.682.987l3.152 2.18-3.152 2.18a.6.6 0 0 0 .682.988l3.525-2.438 1.393.963a.598.598 0 0 0 .683 0l1.393-.963 3.524 2.438a.602.602 0 0 0 .683-.988l-3.152-2.18 3.152-2.18a.601.601 0 0 0 .152-.835"/>
</svg>
