<svg xmlns="http://www.w3.org/2000/svg" viewBox="0 0 16 16">
    <path d="M3.4 1.4V.6a.6.6 0 1 1 1.2 0v.8h4.6a.6.6 0 0 1 0 1.2H4.6v.5a.6.6 0 1 1-1.2 0v-.5H2.1a.9.9 0 0 0-.9.9v2.4h12.3A1.1 1.1 0 0 1 14.6 7v6.9a2.1 2.1 0 0 1-2.1 2.1H2.1A2.1 2.1 0 0 1 0 13.9V3.5c0-1.16.94-2.1 2.1-2.1h1.3zM1.2 7.1v6.8a.9.9 0 0 0 .9.9h10.4a.9.9 0 0 0 .9-.9V7.1H1.2zm10.655-2.138a.201.201 0 0 1-.075-.192l.456-1.768-1.285-.91a.203.203 0 0 1-.048-.202.19.19 0 0 1 .152-.134l1.7-.029.47-1.626c.064-.135.274-.135.337 0l.471 1.626 1.7.029c.071.01.13.062.152.134a.204.204 0 0 1-.048.202l-1.285.91.456 1.768a.201.201 0 0 1-.075.192.18.18 0 0 1-.197.015l-1.342-1.14-1.342 1.14a.18.18 0 0 1-.087.023l-.11-.038z"/>
</svg>
