<svg xmlns="http://www.w3.org/2000/svg" viewBox="0 0 20 20">
    <path fill="#000" fill-rule="evenodd" d="M15.719 4.156c-.281-.468-1.781-1.031-2.531-1.031h-1.97S10.564 2 9.095 2c-1.5 0-1.406.656-1.406 1.219v2.25L7 6.156H3.875S3 6.75 3 7.97c0 1.219.406 5.531 3.031 5.906 3.094.5 3.625-.938 3.625-1.094V10.97s.938 1.719 2.282 1.719c1.374 0 2.187.75 2.187 1.562v1.469s-.062.906-.875.906h-1.719s-.562-.406-.562-1.031c0-.594.281-.75.594-.75.343 0 .593.031.593.031v-1.25s-2.593 0-2.593 1.938C9.563 17.5 10.938 18 12 18h1.781S17 17.594 17 11.406c0-6.187-1-6.781-1.281-7.25M12.53 9.72s.157-1.031.75-1.031c.594 0 1.438 1.375 1.438 1.375s-1.906-.344-2.188-.344m-6.219-4.25H3.688L7 2.188v2.624l-.688.657"/>
</svg>
