<svg xmlns="http://www.w3.org/2000/svg" viewBox="0 0 16 16">
    <path d="M15.403 10c.33 0 .597.267.597.597v4.806c0 .33-.267.597-.597.597h-4.806a.597.597 0 0 1 0-1.194h4.21v-4.21c0-.329.267-.596.596-.596zM.597 10c.33 0 .597.267.597.597v4.21h4.21a.597.597 0 0 1 0 1.193H.596A.597.597 0 0 1 0 15.403v-4.806c0-.33.267-.597.597-.597zM15.403 0c.33 0 .597.267.597.597v4.806a.597.597 0 0 1-1.194 0v-4.21h-4.21a.597.597 0 0 1 0-1.193zm-10 0a.597.597 0 1 1 0 1.194h-4.21v4.21a.597.597 0 1 1-1.193 0V.596C0 .267.267 0 .597 0z"/>
</svg>
