<svg xmlns="http://www.w3.org/2000/svg" viewBox="0 0 16 16">
    <path d="M10.597 14.806a.597.597 0 0 0 0 1.194h4.806c.33 0 .597-.267.597-.597v-4.806a.597.597 0 0 0-1.194 0v4.21h-4.21zm-9.403-4.21a.597.597 0 0 0-1.194 0v4.807c0 .33.267.597.597.597h4.806a.597.597 0 0 0 0-1.194h-4.21v-4.21zm13.612-5.193a.597.597 0 0 0 1.194 0V.597A.597.597 0 0 0 15.403 0h-4.806a.597.597 0 0 0 0 1.194h4.21v4.21zm-9.403-4.21a.597.597 0 1 0 0-1.193H.597A.597.597 0 0 0 0 .597v4.806a.597.597 0 1 0 1.194 0v-4.21h4.21z"/>
</svg>
