<svg xmlns="http://www.w3.org/2000/svg" viewBox="0 0 16 16">
    <path d="M8 6.05c.327 0 .592.265.592.592v7.337l1.682-1.678a.593.593 0 0 1 .838.837L8.42 15.827a.593.593 0 0 1-.838 0l-2.694-2.69a.59.59 0 1 1 .838-.836l1.682 1.679V6.642c0-.294.215-.538.497-.584zM15.407 0c.328 0 .593.265.593.592v10.756a.592.592 0 0 1-.593.592h-2.02a.592.592 0 1 1 0-1.184h1.428l-.001-6.884H1.185v6.884h1.428a.592.592 0 1 1 0 1.184H.593A.592.592 0 0 1 0 11.348V.592C0 .265.266 0 .593 0zm-.592 1.183H1.185V2.69h13.629V1.183z"/>
</svg>
