<svg xmlns="http://www.w3.org/2000/svg" viewBox="0 0 16 16">
    <path d="M1.186 2.69h13.629V1.182H1.185V2.69zm0 1.182v6.884h1.427a.592.592 0 1 1 0 1.184H.593A.592.592 0 0 1 0 11.348V3.305a.601.601 0 0 1 0-.049V.592C0 .265.266 0 .593 0h14.814c.328 0 .593.265.593.592v10.756a.592.592 0 0 1-.593.592h-2.02a.592.592 0 1 1 0-1.184h1.428V3.872H1.185zM7.407 13.98V6.642a.592.592 0 0 1 1.185 0v7.338l1.682-1.679a.593.593 0 0 1 .838.837L8.42 15.827a.593.593 0 0 1-.838 0l-2.694-2.69a.59.59 0 1 1 .838-.836l1.682 1.68z"/>
</svg>
