<svg xmlns="http://www.w3.org/2000/svg" viewBox="0 0 16 16">
    <path d="M.48 15.988a.599.599 0 0 1-.467-.709l.605-2.946a.617.617 0 0 1 .05-.146c.255-.51.69-.897 1.228-1.089l3.62-1.291a.263.263 0 0 0 .175-.247v-.528a1.06 1.06 0 0 0-.387-.82 3.757 3.757 0 0 1-1.382-2.905V3.789a3.794 3.794 0 0 1 7.579 0v1.518a3.766 3.766 0 0 1-1.373 2.899c-.25.207-.394.512-.394.837 0 .3-.279.537-.6.53-.332-.007-.6-.271-.6-.53 0-.683.302-1.325.828-1.761a2.567 2.567 0 0 0 .939-1.975V3.789a2.591 2.591 0 0 0-5.18 0v1.518c0 .763.346 1.485.946 1.98.524.431.824 1.067.824 1.745v.528c0 .616-.39 1.17-.971 1.377l-3.621 1.292a.99.99 0 0 0-.523.432l-.588 2.861a.6.6 0 0 1-.708.466zM12 14.801a2.936 2.936 0 0 0 2.782-2.01 2.93 2.93 0 0 0-5.564.003A2.93 2.93 0 0 0 12 14.801zm-3.964-1.768a.822.822 0 0 1-.002-.474 4.13 4.13 0 0 1 7.93-.006.822.822 0 0 1 .002.474 4.13 4.13 0 0 1-7.93.006zm3.964.635a.875.875 0 1 1 0-1.75.875.875 0 0 1 0 1.75z"/>
</svg>
