<svg xmlns="http://www.w3.org/2000/svg" viewBox="0 0 16 16">
    <path d="M9.778 12.323l.924.924A7.208 7.208 0 0 1 8 13.8c-3.123 0-6.087-2.063-7.93-5.518a.6.6 0 0 1 0-.564 12.027 12.027 0 0 1 2.172-2.931l.84.84A10.774 10.774 0 0 0 1.286 8C2.938 10.929 5.372 12.6 8 12.6c.607 0 1.2-.102 1.778-.278zM5 8c0-.144.012-.285.032-.423l3.392 3.391A3.004 3.004 0 0 1 5 8zM2.34 3.188a.6.6 0 0 1 .851-.845l.962.962A7.596 7.596 0 0 1 8 2.2c3.123 0 6.086 2.063 7.93 5.518a.6.6 0 0 1 0 .564 11.635 11.635 0 0 1-3.074 3.726l.801.801a.599.599 0 1 1-.849.847L2.34 3.188zM8 3.4c-1.038 0-2.044.27-2.985.767L6.348 5.5A3.004 3.004 0 0 1 10.5 9.652l1.516 1.516A10.229 10.229 0 0 0 14.715 8C13.062 5.072 10.628 3.4 8 3.4zm-.771 2.981l2.39 2.39a1.801 1.801 0 0 0-2.39-2.39z"/>
</svg>
