<svg xmlns="http://www.w3.org/2000/svg" viewBox="0 0 16 17">
    <path d="M2.343 2.649a.6.6 0 0 1 .848 0l.962.962A7.596 7.596 0 0 1 8 2.506c3.123 0 6.086 2.063 7.93 5.518a.6.6 0 0 1 0 .564 11.635 11.635 0 0 1-3.074 3.726l.801.801a.599.599 0 1 1-.849.847L2.34 3.494a.6.6 0 0 1 .003-.845zm-.101 2.444l.84.84a10.774 10.774 0 0 0-1.797 2.373c1.653 2.928 4.087 4.6 6.715 4.6.607 0 1.2-.102 1.778-.278l.924.924A7.208 7.208 0 0 1 8 14.106c-3.123 0-6.087-2.063-7.93-5.518a.6.6 0 0 1 0-.564 12.027 12.027 0 0 1 2.172-2.93zM8 3.706c-1.038 0-2.044.27-2.985.767l1.333 1.333A3.004 3.004 0 0 1 10.5 9.958l1.516 1.516a10.229 10.229 0 0 0 2.699-3.168c-1.653-2.928-4.087-4.6-6.715-4.6zM5.032 7.883l3.392 3.391a3.004 3.004 0 0 1-3.392-3.391zM8 6.506c-.277 0-.537.068-.771.181l2.39 2.39A1.801 1.801 0 0 0 8 6.506z"/>
</svg>
