<svg xmlns="http://www.w3.org/2000/svg" viewBox="0 0 20 20">
    <path fill="#000" fill-rule="evenodd" d="M10 15.6c-3.123 0-6.088-2.063-7.93-5.518a.6.6 0 0 1 0-.564C3.913 6.063 6.877 4 10 4c3.123 0 6.087 2.063 7.93 5.518a.6.6 0 0 1 0 .564C16.087 13.537 13.123 15.6 10 15.6M3.283 9.8c1.654 2.928 4.088 4.601 6.715 4.601 2.628 0 5.063-1.673 6.716-4.601C15.062 6.872 12.627 5.2 10 5.2S4.937 6.872 3.284 9.8M10 12.9a3.104 3.104 0 0 1 0-6.2 3.103 3.103 0 0 1 0 6.2m0-5a1.902 1.902 0 1 0 .003 3.804A1.902 1.902 0 0 0 10 7.9"/>
</svg>
