<svg xmlns="http://www.w3.org/2000/svg" viewBox="0 0 20 20">
    <path fill="#000" fill-rule="evenodd" d="M9.9995,15.6 C6.8765,15.6 3.9125,13.537 2.0705,10.082 C1.9765,9.906 1.9765,9.694 2.0705,9.518 C3.9125,6.063 6.8765,4 9.9995,4 C13.1225,4 16.0865,6.063 17.9295,9.518 C18.0235,9.694 18.0235,9.906 17.9295,10.082 C16.0865,13.537 13.1225,15.6 9.9995,15.6 L9.9995,15.6 Z M3.2845,9.8 C4.9375,12.728 7.3715,14.401 9.9995,14.401 C12.6275,14.401 15.0615,12.728 16.7155,9.8 C15.0615,6.872 12.6275,5.2 9.9995,5.2 C7.3715,5.2 4.9375,6.872 3.2845,9.8 L3.2845,9.8 Z M9.9998,12.9001 C8.2908,12.9001 6.8998,11.5091 6.8998,9.8001 C6.8998,8.0901 8.2908,6.7001 9.9998,6.7001 C11.7088,6.7001 13.0998,8.0901 13.0998,9.8001 C13.0998,11.5091 11.7088,12.9001 9.9998,12.9001 L9.9998,12.9001 Z M9.9998,7.9001 C8.9518,7.9001 8.0998,8.7521 8.0998,9.8001 C8.0998,10.8481 8.9518,11.7001 9.9998,11.7001 C11.0478,11.7001 11.8998,10.8481 11.8998,9.8001 C11.8998,8.7521 11.0478,7.9001 9.9998,7.9001 L9.9998,7.9001 Z"/>
</svg>
