<svg xmlns="http://www.w3.org/2000/svg" viewBox="0 0 16 16">
    <path d="M12.476 4.832c.416 0 .756.344.756.764v.331c0 .42-.34.763-.756.763h-1.639l1.375 4.819a.924.924 0 0 1-.944 1.243c-1.76-.174-3.292.34-4.163 1.995-.159.302-.152.328-.488.328l-.055-.001c-.357-.022-.35-.092-.479-.429-.534-1.405-1.945-1.9-3.758-1.9-.13 0-.266.004-.404.01a.908.908 0 0 1-.76-.346.926.926 0 0 1-.162-.826L2.395 6.69H.756A.762.762 0 0 1 0 5.927v-.331c0-.42.34-.764.756-.764zM8.941 6.69H4.29L3.08 10.94c1.778.166 2.897 1.559 3.6 2.442.914-1.08 2.074-2.331 3.467-2.466L8.941 6.69zM15.478.925a.526.526 0 0 1 .521.531L16 3.337c0 .302-.242.55-.539.55a.542.542 0 0 1-.533-.55V2.024h-.84v1.313a.544.544 0 0 1-.539.55.546.546 0 0 1-.538-.55V1.474c0-.04.005-.079.013-.117a.535.535 0 0 1 .111-.24l.018-.019a.511.511 0 0 1 .32-.168l.047-.004.015-.001zm-4.765 0c.416 0 .756.343.756.763v.229c0 .42-.34.763-.756.763H2.52a.762.762 0 0 1-.756-.763v-.229c0-.42.34-.763.756-.763z"/>
</svg>
