<svg xmlns="http://www.w3.org/2000/svg" viewBox="0 0 20 20">
    <path fill="#000" fill-rule="evenodd" d="M15.018 18a.604.604 0 0 1-.236-.048L9.809 15.82l-4.973 2.132A.6.6 0 0 1 4 17.4V4.088A2.09 2.09 0 0 1 6.088 2h7.442a2.09 2.09 0 0 1 2.088 2.088V17.4a.598.598 0 0 1-.6.6m-5.209-3.432a.6.6 0 0 1 .236.048l4.373 1.874V4.088a.89.89 0 0 0-.888-.888H6.088a.89.89 0 0 0-.888.888V16.49l4.373-1.874a.6.6 0 0 1 .236-.048m1.978-1.725a.604.604 0 0 1-.28-.069l-1.698-.893-1.699.893a.598.598 0 1 1-.87-.633l.324-1.89L6.19 8.91a.602.602 0 0 1 .332-1.024l1.9-.276.849-1.72c.202-.41.874-.41 1.076 0l.849 1.72 1.899.276a.602.602 0 0 1 .333 1.024l-1.374 1.34.324 1.89a.601.601 0 0 1-.591.702m-1.978-2.24c.096 0 .192.023.279.07l.902.473-.172-1.004a.602.602 0 0 1 .172-.53l.73-.712-1.009-.147a.595.595 0 0 1-.451-.328l-.451-.913-.451.913a.595.595 0 0 1-.451.328L7.898 8.9l.73.711a.599.599 0 0 1 .172.531l-.172 1.004.902-.474a.597.597 0 0 1 .279-.069"/>
</svg>
