<svg xmlns="http://www.w3.org/2000/svg" viewBox="0 0 16 16">
    <path d="M14.331 5.307L9.493.469A1.6 1.6 0 0 0 8.361 0H3.6C2.72 0 2 .72 2 1.6v12.8c0 .88.72 1.6 1.6 1.6h9.6c.88 0 1.6-.72 1.6-1.6V6.439a1.6 1.6 0 0 0-.469-1.132M13.2 14.8H3.6a.405.405 0 0 1-.4-.4V1.6c0-.217.183-.4.4-.4h4.401v3.883c0 .917.75 1.667 1.667 1.667H13.6v7.65c0 .217-.183.4-.4.4M9.201 1.874l3.676 3.676H9.668a.473.473 0 0 1-.467-.467V1.874m-.716 7.319l.967.966h-3.55a.6.6 0 1 0 0 1.2h3.55l-.967.967a.6.6 0 0 0 .848.848l1.991-1.99a.595.595 0 0 0 0-.85l-1.99-1.99a.6.6 0 1 0-.849.849"/>
</svg>
