<svg xmlns="http://www.w3.org/2000/svg" viewBox="0 0 16 17">
    <path d="M10.392 8.828v5.88a.887.887 0 0 1-1.27.8l-3.043-1.462a.887.887 0 0 1-.503-.8V8.702a1.46 1.46 0 0 0-.24-.801l-4.09-3.92-.082-.093A2.082 2.082 0 0 1 2.858.595h10.284a2.082 2.082 0 0 1 1.694 3.292l-.076.088-4.126 4.048a1.46 1.46 0 0 0-.242.805zm-1.33 5.174V8.828c0-.582.181-1.149.52-1.622l.075-.088 4.123-4.045a.751.751 0 0 0-.638-1.148H2.858a.751.751 0 0 0-.64 1.145l4.088 3.916.081.094c.338.473.52 1.04.52 1.621v4.267l2.155 1.034z"/>
</svg>
