<svg xmlns="http://www.w3.org/2000/svg" viewBox="0 0 16 16">
    <path d="M8.96 1.4a4 4 0 1 1 1.513 6.298l-.922.903c-.154.231-.231.49-.231.775v5.702a.906.906 0 0 1-.082.379.898.898 0 0 1-.495.436.794.794 0 0 1-.659-.04l-2.95-1.418a.865.865 0 0 1-.478-.775v-4.4c0-.285-.082-.543-.247-.774L.454 4.679l-.082-.082a2.072 2.072 0 0 1-.198-2.01 1.85 1.85 0 0 1 .676-.808c.34-.253.73-.379 1.17-.379h6.94zm-.744 1.3H2.02a.757.757 0 0 0-.429.132.768.768 0 0 0-.288.461.712.712 0 0 0 .09.528l3.972 3.79.066.082c.34.473.51 1 .51 1.582v4.136l2.094 1.006V9.39c0-.572.164-1.094.494-1.566l.082-.082.75-.737A3.99 3.99 0 0 1 8.216 2.7zm5.277-.253l-2.046 2.046-.94-.94a.499.499 0 0 0-.707 0 .5.5 0 0 0 0 .707l1.293 1.293a.5.5 0 0 0 .707 0l2.4-2.4a.5.5 0 1 0-.707-.706z"/>
</svg>
