<svg xmlns="http://www.w3.org/2000/svg" viewBox="0 0 20 20">
    <path fill="#000" fill-rule="evenodd" d="M10,2 C5.582,2 2,5.582 2,10 C2,14.418 5.582,18 10,18 C14.418,18 18,14.418 18,10 C18,5.582 14.418,2 10,2 L10,2 L10,2 L10,2 Z M10,3.2 C13.75,3.2 16.8,6.25 16.8,10 C16.8,13.75 13.75,16.8 10,16.8 C6.25,16.8 3.2,13.75 3.2,10 C3.2,6.25 6.25,3.2 10,3.2 L10,3.2 Z M10.0001,14.6001 C7.4631,14.6001 5.4001,12.5371 5.4001,10.0001 C5.4001,7.4631 7.4631,5.4001 10.0001,5.4001 C12.5371,5.4001 14.6001,7.4631 14.6001,10.0001 C14.6001,12.5371 12.5371,14.6001 10.0001,14.6001 L10.0001,14.6001 Z M10.0001,6.6001 C8.1251,6.6001 6.6001,8.1251 6.6001,10.0001 C6.6001,11.8751 8.1251,13.4001 10.0001,13.4001 C11.8751,13.4001 13.4001,11.8751 13.4001,10.0001 C13.4001,8.1251 11.8751,6.6001 10.0001,6.6001 L10.0001,6.6001 Z M10,8.8 C9.337,8.8 8.8,9.337 8.8,10 C8.8,10.663 9.337,11.2 10,11.2 C10.663,11.2 11.2,10.663 11.2,10 C11.2,9.337 10.663,8.8 10,8.8 L10,8.8 Z"/>
</svg>
