<svg xmlns="http://www.w3.org/2000/svg" viewBox="0 0 16 16">
    <path d="M10.709 1.2c.754 0 1.405.525 1.564 1.261L12.52 3.6h1.88A1.6 1.6 0 0 1 16 5.2v8a1.6 1.6 0 0 1-1.6 1.6H1.6A1.6 1.6 0 0 1 0 13.2V2.8a1.6 1.6 0 0 1 1.6-1.6zm-4 1.2H1.6a.4.4 0 0 0-.4.4v10.4a.4.4 0 0 0 .4.4h12.8a.4.4 0 0 0 .4-.4v-8a.4.4 0 0 0-.4-.4H8.52a1.2 1.2 0 0 1-1.173-.946L7.1 2.715a.402.402 0 0 0-.391-.315zM8 6.3a.6.6 0 0 1 .6.6v1.7h1.7a.6.6 0 1 1 0 1.199H8.6v1.7a.6.6 0 1 1-1.2 0v-1.7H5.7a.599.599 0 1 1 0-1.199h1.7V6.9a.6.6 0 0 1 .6-.6zm2.709-3.9H8.248c.006.022.02.039.025.061L8.52 3.6h2.772l-.192-.885a.402.402 0 0 0-.391-.315z"/>
</svg>
