<?xml version="1.0" encoding="UTF-8" standalone="no"?>
<svg width="20px" height="20px" viewBox="0 0 20 20" version="1.1" xmlns="http://www.w3.org/2000/svg" xmlns:xlink="http://www.w3.org/1999/xlink">
    <defs></defs>
    <g id="Icons" stroke="none" stroke-width="1" fill="none" fill-rule="evenodd">
        <g id="Web" transform="translate(-97.000000, -1564.000000)" fill="#000000">
            <g id="file/folder" transform="translate(97.000000, 1564.000000)">
                <path d="M16.4,5.4 L15.938,5.4 L14.52,5.4 L14.273,4.261 C14.114,3.525 13.463,3 12.709,3 L3.6,3 C2.716,3 2,3.716 2,4.6 L2,15 C2,15.884 2.716,16.6 3.6,16.6 L16.4,16.6 C17.284,16.6 18,15.884 18,15 L18,7 C18,6.116 17.284,5.4 16.4,5.4 L16.4,5.4 L16.4,5.4 M16.8,15 C16.8,15.221 16.621,15.4 16.4,15.4 L3.6,15.4 C3.379,15.4 3.2,15.221 3.2,15 L3.2,4.6 C3.2,4.379 3.379,4.2 3.6,4.2 L8.709,4.2 C8.896,4.2 9.061,4.333 9.1,4.515 L9.347,5.654 C9.466,6.206 9.955,6.6 10.52,6.6 L16.4,6.6 C16.621,6.6 16.8,6.779 16.8,7 L16.8,15 L16.8,15 L16.8,15 M13.1,4.515 L13.292,5.4 L10.52,5.4 L10.273,4.261 C10.268,4.239 10.254,4.222 10.248,4.2 L12.709,4.2 C12.896,4.2 13.061,4.333 13.1,4.515 L13.1,4.515 L13.1,4.515" id="Shape"></path>
            </g>
        </g>
    </g>
</svg>