<svg xmlns="http://www.w3.org/2000/svg" viewBox="0 0 16 16">
    <path d="M14.8 13a.4.4 0 0 1-.4.4H1.6a.4.4 0 0 1-.4-.4V2.6a.4.4 0 0 1 .4-.4h5.109c.187 0 .352.133.391.315l.247 1.139A1.2 1.2 0 0 0 8.52 4.6h5.88a.4.4 0 0 1 .4.4v8zM11.1 2.515l.192.885H8.52l-.247-1.139c-.005-.022-.019-.039-.025-.061h2.461c.187 0 .352.133.391.315zm3.3.885h-1.88l-.247-1.139A1.599 1.599 0 0 0 10.709 1H1.6A1.6 1.6 0 0 0 0 2.6V13a1.6 1.6 0 0 0 1.6 1.6h12.8A1.6 1.6 0 0 0 16 13V5a1.6 1.6 0 0 0-1.6-1.6zm-7.8 7.8h2.8V9.4H6.6v1.8zm.7-3h1.4v-.71C8.7 7.246 8.408 7 8 7s-.7.245-.7.49v.71zm2.6.075c.41.16.7.559.7 1.025v2a1.1 1.1 0 0 1-1.1 1.1h-3a1.1 1.1 0 0 1-1.1-1.1v-2c0-.466.29-.865.7-1.025v-.784C6.1 6.53 6.972 5.8 8 5.8s1.9.731 1.9 1.69v.785z"/>
</svg>
