<svg xmlns="http://www.w3.org/2000/svg" viewBox="0 0 16 16">
    <path d="M14.4 13.6H1.6a.4.4 0 0 1-.4-.4V2.8a.4.4 0 0 1 .4-.4h5.109c.187 0 .352.133.391.315l.247 1.139A1.2 1.2 0 0 0 8.52 4.8h5.88a.4.4 0 0 1 .4.4v8a.4.4 0 0 1-.4.4zM11.1 2.715l.192.885H8.52l-.247-1.139c-.005-.022-.019-.039-.025-.061h2.461c.187 0 .352.133.391.315zm2.838.885h.462A1.6 1.6 0 0 1 16 5.2v8a1.6 1.6 0 0 1-1.6 1.6H1.6A1.6 1.6 0 0 1 0 13.2V2.8a1.6 1.6 0 0 1 1.6-1.6h9.109c.754 0 1.405.525 1.564 1.261L12.52 3.6h1.418zM8.6 8.6V6.9a.6.6 0 1 0-1.2 0v1.7H5.7a.6.6 0 1 0 0 1.199h1.7v1.7a.6.6 0 0 0 1.2 0v-1.7h1.7a.599.599 0 1 0 0-1.199H8.6z"/>
</svg>
