<svg xmlns="http://www.w3.org/2000/svg" viewBox="0 0 20 20">
    <path fill="#000" fill-rule="evenodd" d="M16.4 5.4h-1.88l-.247-1.139A1.599 1.599 0 0 0 12.709 3H3.6A1.6 1.6 0 0 0 2 4.6V15a1.6 1.6 0 0 0 1.6 1.6h12.8A1.6 1.6 0 0 0 18 15V7a1.6 1.6 0 0 0-1.6-1.6m.4 9.6a.4.4 0 0 1-.4.4H3.6a.4.4 0 0 1-.4-.4V4.6a.4.4 0 0 1 .4-.4h5.109c.187 0 .352.133.391.315l.247 1.139a1.2 1.2 0 0 0 1.173.946h5.88a.4.4 0 0 1 .4.4v8M13.1 4.515l.192.885H10.52l-.247-1.139c-.005-.022-.019-.039-.025-.061h2.461c.187 0 .352.133.391.315"/>
</svg>
