<svg xmlns="http://www.w3.org/2000/svg" viewBox="0 0 16 16">
    <path d="M4.79 10.366a.6.6 0 1 1 .848.848l-3.59 3.59h2.507a.6.6 0 1 1 0 1.2H.6a.6.6 0 0 1-.6-.6v-3.955a.6.6 0 0 1 1.2 0v2.506zm6.424 0l3.59 3.59v-2.507a.6.6 0 1 1 1.2 0v3.955a.6.6 0 0 1-.6.6h-3.955a.6.6 0 0 1 0-1.2h2.506l-3.59-3.59a.6.6 0 1 1 .85-.848zM4.554 0a.6.6 0 1 1 0 1.2H2.05l3.589 3.59a.6.6 0 1 1-.849.848L1.2 2.048v2.507a.6.6 0 1 1-1.2 0V.6A.6.6 0 0 1 .6 0h3.955zm10.85 0a.6.6 0 0 1 .6.6v3.955a.6.6 0 0 1-1.2 0V2.049l-3.59 3.589a.6.6 0 1 1-.848-.849L13.954 1.2h-2.505a.6.6 0 0 1-.592-.503L10.849.6a.6.6 0 0 1 .6-.6z"/>
</svg>
