<svg xmlns="http://www.w3.org/2000/svg" viewBox="0 0 16 16">
    <path d="M3.765 11.39H1.26a.6.6 0 1 1 0-1.2h3.955a.6.6 0 0 1 .6.6v3.955a.6.6 0 0 1-1.2 0v-2.506l-3.59 3.589a.6.6 0 0 1-.848-.849l3.59-3.589zm8.474 0l3.589 3.59a.6.6 0 0 1-.849.848l-3.589-3.59v2.507a.6.6 0 1 1-1.2 0V10.79a.6.6 0 0 1 .6-.6h3.955a.6.6 0 0 1 0 1.2h-2.506zM3.765 4.614l-3.59-3.59a.6.6 0 0 1 .85-.848l3.589 3.59V1.258a.6.6 0 1 1 1.2 0v3.955a.6.6 0 0 1-.6.6H1.259a.6.6 0 1 1 0-1.2h2.506zm8.474 0h2.506a.6.6 0 0 1 0 1.2H10.79a.6.6 0 0 1-.6-.6V1.259a.6.6 0 0 1 1.2 0v2.506l3.59-3.59a.6.6 0 0 1 .848.85l-3.59 3.589z"/>
</svg>
