<svg xmlns="http://www.w3.org/2000/svg" viewBox="0 0 16 17">
    <path d="M3.765 11.89l-3.59 3.59a.6.6 0 0 0 .85.848l3.589-3.59v2.507a.6.6 0 0 0 1.2 0V11.29a.6.6 0 0 0-.6-.6H1.259a.6.6 0 0 0 0 1.2h2.506zm8.474 0l3.589 3.59a.6.6 0 0 1-.849.848l-3.589-3.59v2.507a.6.6 0 1 1-1.2 0V11.29a.6.6 0 0 1 .6-.6h3.955a.6.6 0 0 1 0 1.2h-2.506zM3.765 5.114l-3.59-3.59a.6.6 0 0 1 .85-.848l3.589 3.59V1.758a.6.6 0 1 1 1.2 0v3.955a.6.6 0 0 1-.6.6H1.259a.6.6 0 1 1 0-1.2h2.506zm8.474 0l3.589-3.59a.6.6 0 0 0-.849-.848l-3.589 3.59V1.758a.6.6 0 1 0-1.2 0v3.955a.6.6 0 0 0 .6.6h3.955a.6.6 0 0 0 0-1.2h-2.506z"/>
</svg>
