<svg xmlns="http://www.w3.org/2000/svg" viewBox="0 0 16 16">
    <path d="M5.214 10.19a.6.6 0 0 1 .6.6v3.955a.6.6 0 0 1-1.2 0v-2.506l-3.59 3.589a.6.6 0 0 1-.848-.849l3.59-3.589H1.258a.6.6 0 1 1 0-1.2zm9.53 0a.6.6 0 0 1 0 1.2H12.24l3.589 3.59a.6.6 0 0 1-.849.848l-3.589-3.59v2.507a.6.6 0 1 1-1.2 0V10.79a.6.6 0 0 1 .6-.6h3.955zM1.025.176l3.59 3.59V1.258a.6.6 0 1 1 1.2 0v3.955a.6.6 0 0 1-.6.6H1.259a.6.6 0 1 1 0-1.2h2.506l-3.59-3.59a.6.6 0 0 1 .85-.848zm13.955 0a.6.6 0 0 1 .849.848l-3.59 3.59h2.507a.6.6 0 0 1 0 1.2H10.79a.6.6 0 0 1-.6-.6V1.259a.6.6 0 0 1 1.2 0v2.506z"/>
</svg>
