<svg xmlns="http://www.w3.org/2000/svg" viewBox="0 0 16 17">
    <path d="M2.049 15.304l3.589-3.59a.6.6 0 1 0-.849-.848L1.2 14.456v-2.507a.6.6 0 0 0-1.2 0v3.955a.6.6 0 0 0 .6.6h3.955a.6.6 0 0 0 0-1.2H2.049zm11.906 0l-3.59-3.59a.6.6 0 1 1 .85-.848l3.589 3.59v-2.507a.6.6 0 1 1 1.2 0v3.955a.6.6 0 0 1-.6.6h-3.955a.6.6 0 0 1 0-1.2h2.506zM2.05 1.7l3.589 3.59a.6.6 0 1 1-.849.848L1.2 2.548v2.507a.6.6 0 1 1-1.2 0V1.1A.6.6 0 0 1 .6.5h3.955a.6.6 0 1 1 0 1.2H2.049zm11.906 0l-3.59 3.59a.6.6 0 1 0 .85.848l3.589-3.59v2.507a.6.6 0 1 0 1.2 0V1.1a.6.6 0 0 0-.6-.6h-3.955a.6.6 0 0 0 0 1.2h2.506z"/>
</svg>
