<svg xmlns="http://www.w3.org/2000/svg" viewBox="0 0 16 16">
    <path d="M16 6.844v2.281h-3.563c-.25 1-.786 1.823-1.609 2.469A4.455 4.455 0 0 1 8 12.563a4.62 4.62 0 0 1-4.438-3.438H0V6.844h3.563a4.62 4.62 0 0 1 1.624-2.438A4.392 4.392 0 0 1 8 3.438a4.671 4.671 0 0 1 2.828.953 4.7 4.7 0 0 1 1 1.078c.281.416.485.875.61 1.375H16zM8 10.28c.625 0 1.161-.224 1.61-.672.447-.448.671-.984.671-1.609a2.18 2.18 0 0 0-.672-1.625A2.222 2.222 0 0 0 8 5.719c-.625 0-1.161.218-1.61.656A2.18 2.18 0 0 0 5.72 8c0 .625.224 1.161.672 1.61.448.447.984.671 1.609.671z"/>
</svg>
