<svg xmlns="http://www.w3.org/2000/svg" viewBox="0 0 16 16">
    <path d="M6.306 14.715l-.05-8.487a1.516 1.516 0 0 1 .591-2.908 1.516 1.516 0 1 1 .609 2.9l.03 4.998c.103-.074.207-.145.313-.213.284-.184 1.17-.686 1.027-.602.658-.387.945-.801 1.047-2.073a1.516 1.516 0 0 1 .647-2.883 1.515 1.515 0 1 1 .547 2.926c-.144 1.735-.6 2.467-1.635 3.077-.108.064-.57.323-.478.27a6.778 6.778 0 0 0-1.459 1.05l.013 2.142h.001v.164l.002.211-.003.004a.753.753 0 0 1-.866.7A7.293 7.293 0 0 1 5.11 15.6 8.071 8.071 0 0 1 0 8.07 8.036 8.036 0 0 1 8 0c4.418 0 8 3.613 8 8.07a8.07 8.07 0 0 1-6.17 7.86.606.606 0 0 1-.274-1.18 6.858 6.858 0 0 0 5.243-6.679A6.829 6.829 0 0 0 8 1.212a6.829 6.829 0 0 0-6.799 6.859 6.86 6.86 0 0 0 5.105 6.644z"/>
</svg>
