<svg xmlns="http://www.w3.org/2000/svg" viewBox="0 0 20 20">
    <path fill="#000" fill-rule="evenodd" d="M15.908 5.914a2.196 2.196 0 0 0-2.083-1.626 2.148 2.148 0 0 0-2.115 1.564c-.306.97.03 2.002.827 2.565.123.093.184.156.154.312-.03.282-.03.563-.123.845a2.008 2.008 0 0 1-1.96 1.564c-.705 0-1.41.094-2.054.375l-.245.125V6.415c0-.125.03-.188.123-.25a2.356 2.356 0 0 0 .858-2.628 2.22 2.22 0 0 0-2.237-1.533A2.262 2.262 0 0 0 5.03 3.85c0 .062-.031.094-.031.125v.594l.092.344c.153.532.46.939.889 1.252.091.062.122.125.122.218v7.195a.361.361 0 0 1-.092.219 2.208 2.208 0 0 0-.98 1.595L5 15.423v.563l.092.344c.245.907.98 1.533 1.9 1.658a2.242 2.242 0 0 0 2.144-1.157 2.373 2.373 0 0 0-.214-2.534.242.242 0 0 0-.123-.125c.43-.532.98-.72 1.594-.75.582 0 1.164-.063 1.716-.25 1.195-.439 1.96-1.283 2.42-2.472a5.687 5.687 0 0 0 .368-2.033c0-.063.03-.157.092-.188.551-.375.888-.907.98-1.595 0-.031.031-.031.031-.031V6.29l-.092-.376M7.206 16.862a1.138 1.138 0 0 1-1.103-1.157c0-.626.49-1.126 1.103-1.126s1.103.5 1.103 1.157c-.03.626-.52 1.126-1.103 1.126m6.588-9.165a1.11 1.11 0 0 1-1.103-1.126c0-.625.49-1.157 1.103-1.157a1.13 1.13 0 0 1 1.103 1.126c0 .657-.49 1.157-1.103 1.157m-7.691-3.41c0-.625.49-1.157 1.072-1.157.613 0 1.103.5 1.134 1.126 0 .657-.49 1.158-1.103 1.158a1.11 1.11 0 0 1-1.103-1.126"/>
</svg>
