<svg xmlns="http://www.w3.org/2000/svg" viewBox="0 0 16 16">
    <path d="M12.667 6.864c-.852 0-1.61.468-2.019 1.165v-.023C9.423 7.983 8 7.595 6.997 6.84a8.404 8.404 0 0 1-2.205-2.787 2.247 2.247 0 0 0 .741-2.534A2.323 2.323 0 0 0 3.333 0 2.31 2.31 0 0 0 1 2.296c.005.81.45 1.558 1.167 1.964v7.492A2.291 2.291 0 0 0 1 13.716 2.301 2.301 0 0 0 3.333 16a2.318 2.318 0 0 0 2.252-1.685A2.256 2.256 0 0 0 4.5 11.752V7.629c.782.8 1.68 1.45 2.683 1.93 1.004.48 2.369.72 3.465.73v-.022a2.363 2.363 0 0 0 2.019 1.165A2.301 2.301 0 0 0 15 9.148a2.301 2.301 0 0 0-2.333-2.284zm-7.934 6.852c0 .754-.641 1.37-1.4 1.37-.758 0-1.4-.628-1.4-1.37 0-.742.642-1.37 1.4-1.37.759 0 1.4.628 1.4 1.37zm-1.4-10.05c-.77 0-1.4-.628-1.4-1.37 0-.743.642-1.37 1.4-1.37.759 0 1.4.627 1.4 1.37 0 .742-.641 1.37-1.4 1.37zm9.334 6.852c-.77 0-1.4-.628-1.4-1.37 0-.743.641-1.37 1.4-1.37.758 0 1.4.627 1.4 1.37 0 .742-.642 1.37-1.4 1.37z"/>
</svg>
