<svg xmlns="http://www.w3.org/2000/svg" viewBox="0 0 16 16">
    <path d="M7.496 12.77l.012 2.142h.001v.18l.002.195-.003.004a.753.753 0 0 1-.866.7A7.293 7.293 0 0 1 5.11 15.6 8.071 8.071 0 0 1 0 8.07 8.036 8.036 0 0 1 8 0c4.418 0 8 3.613 8 8.07a8.07 8.07 0 0 1-6.17 7.86.606.606 0 0 1-.274-1.18 6.858 6.858 0 0 0 5.243-6.679A6.829 6.829 0 0 0 8 1.212a6.829 6.829 0 0 0-6.799 6.859 6.86 6.86 0 0 0 5.105 6.644l-.051-8.516a1.5 1.5 0 1 1 1.201-.007l.03 5.026c.103-.074.207-.145.313-.213.284-.184 1.17-.686 1.027-.602.662-.39.95-.807 1.049-2.1a1.5 1.5 0 1 1 1.194.04c-.141 1.757-.595 2.494-1.637 3.107-.108.064-.57.323-.478.27a6.778 6.778 0 0 0-1.459 1.05z"/>
</svg>
