<svg xmlns="http://www.w3.org/2000/svg" viewBox="0 0 16 16">
    <path d="M8 0c4.418 0 8 3.613 8 8.07a8.07 8.07 0 0 1-6.17 7.86.606.606 0 0 1-.274-1.18 6.858 6.858 0 0 0 5.243-6.679A6.829 6.829 0 0 0 8 1.212a6.829 6.829 0 0 0-6.799 6.859 6.86 6.86 0 0 0 5.104 6.644l-.05-8.517a1.5 1.5 0 1 1 1.202-.007l.03 5.027c.102-.074.207-.145.312-.213a28.497 28.497 0 0 1 1.043-.61l-.016.008c.662-.39.95-.807 1.049-2.1a1.5 1.5 0 1 1 1.193.041c-.14 1.756-.594 2.493-1.636 3.106-.097.057-.481.273-.49.277l.012-.006a6.778 6.778 0 0 0-1.459 1.05l.013 2.14h.001v.172l.002.204-.005.006-.004.056a.754.754 0 0 1-.746.651l-.057-.002-.057-.007A7.293 7.293 0 0 1 5.11 15.6 8.071 8.071 0 0 1 0 8.07 8.036 8.036 0 0 1 8 0z"/>
</svg>
