<svg xmlns="http://www.w3.org/2000/svg" viewBox="0 0 16 16">
    <path d="M14.331 13.27c.042.125.063.229.063.312v.53a.589.589 0 0 0-.031.187c0 .062-.021.114-.063.156a2.076 2.076 0 0 1-2.027 1.528c-.478 0-.9-.14-1.263-.42a2.214 2.214 0 0 1-.764-1.077 2.066 2.066 0 0 1 .842-2.401c.083-.042.124-.115.124-.219V5.441c0-.312-.093-.582-.28-.81a.982.982 0 0 0-.718-.375H9.092v2.121c-.541-.54-1.076-1.07-1.607-1.59-.53-.52-1.065-1.05-1.606-1.591a1.231 1.231 0 0 1-.062.437 2.067 2.067 0 0 1-.874 1.31.296.296 0 0 0-.124.249v6.674c0 .104.03.177.093.219.416.29.702.655.858 1.091.156.437.15.884-.016 1.341a2.2 2.2 0 0 1-2.152 1.466 2.14 2.14 0 0 1-1.263-.546 2.184 2.184 0 0 1-.717-1.263.138.138 0 0 1-.016-.062v-.53l.031-.031a2.095 2.095 0 0 1 .936-1.498c.062-.02.094-.083.094-.187V5.161a.21.21 0 0 0-.094-.187A1.988 1.988 0 0 1 1.7 3.788a.554.554 0 0 1-.047-.156.554.554 0 0 0-.047-.156v-.53c0-.041.005-.067.016-.078a2.112 2.112 0 0 1 .764-1.31 2.151 2.151 0 0 1 1.403-.483c.52 0 .973.171 1.357.515a2.134 2.134 0 0 1 .733 1.575c.02-.021.042-.032.063-.032L8.967.108 9.06.014v2.121h.905c.166.021.322.032.468.032.145 0 .301.02.468.062.415.104.8.265 1.154.483a2.647 2.647 0 0 1 1.2 1.763c.052.29.078.592.078.904v6.487c0 .084.042.156.125.219.416.27.707.665.873 1.185zm-9.512.592c0-.29-.104-.545-.312-.764a.997.997 0 0 0-.749-.327c-.29 0-.546.104-.764.312a.997.997 0 0 0-.327.748c0 .291.104.54.312.749.207.208.457.322.748.343.291 0 .546-.104.764-.312a.997.997 0 0 0 .328-.749zm-1.06-9.606c.29 0 .54-.104.748-.312a1.02 1.02 0 0 0 .312-.748c0-.291-.104-.54-.312-.749a1.073 1.073 0 0 0-1.513 0 .997.997 0 0 0-.327.749c0 .29.109.54.327.748.218.208.473.312.764.312zm8.514 10.667c.291 0 .54-.104.748-.312a1.073 1.073 0 0 0 0-1.513.997.997 0 0 0-.748-.327c-.291 0-.54.104-.749.312a1.02 1.02 0 0 0-.312.748c0 .291.104.54.312.749.208.208.458.322.749.343z"/>
</svg>
