<svg xmlns="http://www.w3.org/2000/svg" viewBox="0 0 16 16">
    <path d="M10.968 11.467c1.25-.469 1.906-1.47 2.062-2.782.094-.657.156-1.314-.094-1.939-.125-.375-.374-.688-.53-1.032-.063-.093-.095-.218-.063-.312a3.093 3.093 0 0 0-.094-1.845c-.031-.156-.125-.188-.25-.188a2.51 2.51 0 0 0-1.406.532 1.372 1.372 0 0 1-1.25.188 7.02 7.02 0 0 0-3.125.094.624.624 0 0 1-.406-.063 4.744 4.744 0 0 0-1.563-.72c-.406-.093-.468-.062-.562.376a2.878 2.878 0 0 0-.031 1.626c.03.094.03.219-.032.25-.75.938-.843 2-.656 3.127.281 1.72 1.25 2.657 2.969 2.97.187.031.375.062.5.062-.125.344-.25.688-.406 1-.032.063-.094.157-.157.188-.875.344-1.656.094-2.156-.719-.25-.437-.594-.781-1.125-.875-.031 0-.062-.032-.094 0l-.375.125c.063.094.125.219.22.281.468.313.75.782.968 1.313.312.657.875.97 1.562 1.032.375.032.75 0 1.125 0 0 .47.032.97 0 1.47 0 .312-.25.437-.562.344-.25-.063-.469-.188-.688-.282A8.25 8.25 0 0 1 .062 7.184C.5 3.62 3.187.712 6.624.118c4.5-.782 8.75 2.407 9.312 7.035.47 3.814-1.687 7.472-5.218 8.754a.444.444 0 0 1-.188.063c-.312.093-.53-.063-.53-.438V13.53c0-.594-.063-1.188-.5-1.657.53-.157 1-.25 1.468-.407z"/>
</svg>
