<svg xmlns="http://www.w3.org/2000/svg" viewBox="0 0 16 16">
    <path fill="#000" fill-rule="evenodd" d="M5.125 10a5.039 5.039 0 0 1-.813-.438 3.704 3.704 0 0 1-.687-.593 4.944 4.944 0 0 1-1.031-1.5 4.692 4.692 0 0 1-.344-1.844A4.55 4.55 0 0 1 3.625 2.25c.396-.396.896-.73 1.5-1A4.488 4.488 0 0 1 6.969.875a4.729 4.729 0 0 1 3.344 8.094A4.483 4.483 0 0 1 8.813 10a4.997 4.997 0 0 1-1.844.344c-.646 0-1.26-.115-1.844-.344zm0-1.063c.188.126.396.22.625.282a1.26 1.26 0 0 1-.11-.203 1.26 1.26 0 0 0-.109-.204 5.646 5.646 0 0 0-.187-.406.774.774 0 0 1-.078-.234.486.486 0 0 0-.079-.203L5.095 7.5H3.687c.146.25.282.438.407.563.104.166.26.333.468.5.146.124.334.25.563.374zm2.563-.906c.041-.104.072-.192.093-.265.021-.073.052-.162.094-.266H6.062c.042.104.073.193.094.266.021.073.052.161.094.265.042.167.115.323.219.469.041.083.078.161.11.234.03.073.067.151.109.235l.28.437.141-.203c.052-.073.1-.15.141-.234.042-.084.078-.162.11-.235a4.423 4.423 0 0 1 .234-.468.92.92 0 0 0 .093-.235zm2.156.031c.125-.124.26-.312.406-.562H8.844a.85.85 0 0 1-.031.234 7.3 7.3 0 0 0-.063.235.799.799 0 0 0-.078.218.799.799 0 0 1-.078.22.721.721 0 0 0-.094.202.721.721 0 0 1-.094.204 1.26 1.26 0 0 0-.11.203 1.26 1.26 0 0 1-.108.203c.229-.063.437-.156.624-.281.105-.063.204-.126.297-.188.094-.063.193-.125.297-.188l.235-.234.203-.265zm-.781-3.406v.25c0 .042.005.084.015.125.01.042.016.084.016.125v1.188a.346.346 0 0 1-.016.11.346.346 0 0 0-.015.109h1.593a.504.504 0 0 0 .063-.22.277.277 0 0 0 .031-.124c0-.042.01-.084.031-.125 0-.084.01-.157.031-.219v-.5a.813.813 0 0 1-.03-.25A.277.277 0 0 1 10.75 5a.277.277 0 0 0-.031-.125c0-.02-.021-.094-.063-.219H9.062zm-.25-2.343a2.127 2.127 0 0 0-.626-.282c.042.063.079.125.11.188l.11.219c.04.062.072.13.093.203.02.073.052.14.094.203a.799.799 0 0 1 .078.219 4.91 4.91 0 0 1 .14.422.85.85 0 0 1 .032.234h1.406a3.293 3.293 0 0 0-.188-.281 11.537 11.537 0 0 0-.421-.516l-.235-.235A7.387 7.387 0 0 1 9.11 2.5a7.387 7.387 0 0 0-.296-.188zm-2.563.906a1.221 1.221 0 0 0-.094.25c-.02.083-.052.166-.093.25h1.812a1.221 1.221 0 0 1-.094-.25 1.221 1.221 0 0 0-.093-.25.883.883 0 0 0-.094-.266 4.796 4.796 0 0 1-.235-.469 4.423 4.423 0 0 0-.109-.234l-.281-.438-.282.47a4.423 4.423 0 0 0-.109.234 1.26 1.26 0 0 1-.11.203 2.15 2.15 0 0 1-.124.265.92.92 0 0 0-.094.235zm-.469 2.656c0 .042.005.078.016.11.01.03.016.067.016.109.02.062.03.146.03.25 0 .041.006.078.016.11.01.03.016.067.016.109h2.188c0-.042.005-.079.015-.11a.346.346 0 0 0 .016-.11.277.277 0 0 0 .031-.124c0-.042.01-.084.031-.125 0-.042.005-.078.016-.11a.346.346 0 0 0 .015-.109v-.5a.536.536 0 0 0-.03-.219v-.25a.277.277 0 0 1-.032-.125.277.277 0 0 0-.031-.125H5.875a.514.514 0 0 1-.016.125.514.514 0 0 0-.015.125c0 .104-.01.188-.032.25a.346.346 0 0 1-.015.11.346.346 0 0 0-.016.109v.5zM4.094 3.156c-.063.104-.13.198-.203.281-.073.084-.141.178-.204.282h1.407c.041-.209.073-.354.093-.438a.799.799 0 0 0 .079-.219.799.799 0 0 1 .078-.218.721.721 0 0 0 .093-.203.721.721 0 0 1 .094-.204 1.48 1.48 0 0 1 .219-.406c-.23.063-.438.156-.625.281l-.563.376-.468.468zM3.25 6.344c.02.041.031.078.031.11 0 .03.01.067.031.109h1.626v-.22a.514.514 0 0 0-.016-.124.514.514 0 0 1-.016-.125v-.219a.813.813 0 0 1-.031-.25v-.469a.813.813 0 0 0 .031-.25c0-.104.01-.187.032-.25H3.313a.252.252 0 0 0-.032.11c0 .03-.01.067-.031.109A.514.514 0 0 1 3.234 5a.514.514 0 0 0-.015.125.813.813 0 0 0-.031.25.514.514 0 0 1-.016.125.514.514 0 0 0 0 .25c.01.042.015.083.015.125 0 .104.01.177.032.219 0 .041.005.083.015.125.01.041.016.083.016.125zm10.5-.719c0 .896-.167 1.74-.5 2.531a7.116 7.116 0 0 1-1.36 2.11 6.567 6.567 0 0 1-2.015 1.468 6.866 6.866 0 0 1-2.469.641v2.75h2.719V16H3.812v-.875h2.72v-2.75a5.87 5.87 0 0 1-1.282-.203 7.468 7.468 0 0 1-1.219-.453v.031l-.062-.063a5.144 5.144 0 0 1-.719-.406l.5-.719v.032l.219-.344.719.469L4.5 11c.77.354 1.594.531 2.469.531.812 0 1.578-.156 2.297-.469a6.013 6.013 0 0 0 1.875-1.265 6.013 6.013 0 0 0 1.265-1.875 5.698 5.698 0 0 0 .469-2.297 5.698 5.698 0 0 0-1.906-4.344l-.156.25-.72-.468.188-.344L10.75 0a6.658 6.658 0 0 1 3 5.625z"/>
</svg>
