<svg xmlns="http://www.w3.org/2000/svg" viewBox="0 0 20 20">
    <path fill="#000" fill-rule="evenodd" d="M13.928 3.656l.093-.062 1.144-.906L16 2H9.876C7.31 2 5.082 3.594 5.082 5.656c0 2.188 1.701 3.75 4.145 3.781-.062.188-.062.375-.062.532 0 .375.093.719.278 1.062h-.092C6.412 11.031 4 12.72 4 14.812 4 16.782 6.412 18 9.536 18c3.155 0 5.35-1.75 5.35-3.937 0-1.563-.525-2.532-1.917-3.5-.557-.375-1.175-1-1.175-1.188 0-.406.124-.563.835-1.094 1.113-.875 1.577-1.469 1.577-2.53 0-.814-.216-1.563-.618-2.095H13.928m-1.856 9.281c.433.313.619.563.712.907.03.125.061.281.061.406 0 1.375-.99 2.156-3.309 2.156-1.7 0-2.969-1-2.969-2.218 0-1.157 1.515-2.188 3.31-2.157.37 0 .742.063 1.113.157-.031 0-.062-.032-.062-.032l.093.032h-.031c.154.124.525.375.587.375l.495.374M7.65 5.344c-.186-1.407.463-2.219 1.577-2.188 1.175.032 2.196 1 2.412 2.407.186 1.437-.526 2.53-1.577 2.5-1.114-.032-2.196-1.25-2.412-2.72"/>
</svg>
