<svg xmlns="http://www.w3.org/2000/svg" viewBox="0 0 16 16">
    <path fill="#000" fill-rule="evenodd" d="M11.928 1.656l.093-.062 1.144-.906L14 0H7.876C5.31 0 3.082 1.594 3.082 3.656c0 2.188 1.701 3.75 4.145 3.781-.062.188-.062.375-.062.532 0 .375.093.719.278 1.062h-.092C4.412 9.031 2 10.72 2 12.812 2 14.782 4.412 16 7.536 16c3.155 0 5.35-1.75 5.35-3.937 0-1.563-.525-2.532-1.917-3.5-.557-.375-1.175-1-1.175-1.188 0-.406.124-.563.835-1.094 1.113-.875 1.577-1.469 1.577-2.53 0-.814-.216-1.563-.618-2.095H11.928m-1.856 9.281c.433.313.619.563.712.907.03.125.061.281.061.406 0 1.375-.99 2.156-3.309 2.156-1.7 0-2.969-1-2.969-2.218 0-1.157 1.515-2.188 3.31-2.157.37 0 .742.063 1.113.157-.031 0-.062-.032-.062-.032l.093.032H8.99c.154.124.525.375.587.375l.495.374M5.65 3.344c-.186-1.407.463-2.219 1.577-2.188 1.175.032 2.196 1 2.412 2.407.186 1.437-.526 2.53-1.577 2.5-1.114-.032-2.196-1.25-2.412-2.72"/>
</svg>
