<svg xmlns="http://www.w3.org/2000/svg" viewBox="0 0 16 16">
    <path d="M3.636 10.91H.727c-.436 0-.727.29-.727.726v3.637c0 .436.29.727.727.727h2.91c.436 0 .727-.29.727-.727v-3.637c0-.436-.291-.727-.728-.727M9.455 8h-2.91c-.436 0-.727.29-.727.727v6.546c0 .436.291.727.727.727h2.91c.436 0 .727-.29.727-.727V8.727c0-.436-.291-.727-.727-.727m5.818-2.91h-2.91c-.436 0-.727.292-.727.728v9.455c0 .436.291.727.728.727h2.909c.436 0 .727-.29.727-.727V5.818c0-.436-.29-.727-.727-.727M2.909 7.273a.66.66 0 0 0 .51-.218l2.4-2.4L7.49 6.327c.29.291.727.291 1.018 0l3.855-3.854v1.163c0 .437.29.728.727.728.436 0 .727-.291.727-.728V.727c0-.072 0-.218-.073-.29a.876.876 0 0 0-.363-.364C13.309 0 13.164 0 13.09 0h-2.91c-.436 0-.726.29-.726.727s.29.728.727.728h1.163L8 4.8 6.327 3.127a.703.703 0 0 0-1.018 0L2.4 6.037a.703.703 0 0 0 0 1.018.66.66 0 0 0 .51.218"/>
</svg>
