<svg xmlns="http://www.w3.org/2000/svg" viewBox="0 0 16 16">
    <path d="M14.848 10.297a.876.876 0 0 1-.886.864.568.568 0 0 1-.554-.444v-2.82h.554c.489 0 .886.387.886.863v1.537zm-6.482 3.58h-.73a.3.3 0 0 1-.3-.292.3.3 0 0 1 .3-.292h.73a.3.3 0 0 1 .3.292.3.3 0 0 1-.3.292zm-6.328-2.716a.876.876 0 0 1-.886-.864V8.76c0-.476.397-.863.886-.863h.556v2.812a.568.568 0 0 1-.556.452zm11.924-4.387h-.554v-.535C13.408 3.35 10.982 1 8 1 5.02 1 2.594 3.35 2.594 6.239v.535h-.556C.913 6.774 0 7.664 0 8.76v1.537c0 1.098.913 1.986 2.038 1.986.844 0 1.545-.588 1.698-1.367l.01-.095c.01-.074 0-4.582 0-4.582 0-2.27 1.908-4.116 4.254-4.116 2.348 0 4.256 1.846 4.256 4.116v5.847c0 .55-.465.998-1.035.998H9.72a1.455 1.455 0 0 0-1.354-.914h-.73c-.799 0-1.453.637-1.453 1.415 0 .779.654 1.415 1.453 1.415h.73c.57 0 1.06-.326 1.298-.793h1.557c1.171 0 2.123-.9 2.176-2.023.178.06.366.1.565.1A2.013 2.013 0 0 0 16 10.296V8.76a2.013 2.013 0 0 0-2.038-1.986z"/>
</svg>
