<svg xmlns="http://www.w3.org/2000/svg" viewBox="0 0 16 16">
    <path d="M4.41 2.197a3.2 3.2 0 0 0-3.208 3.209c0 .861.332 1.667.936 2.271l5.864 5.864 5.864-5.864c.604-.604.936-1.41.936-2.271 0-.86-.332-1.667-.936-2.27a3.3 3.3 0 0 0-4.54 0l-.899.898a.6.6 0 0 1-.849 0l-.898-.898a3.203 3.203 0 0 0-2.27-.939zm3.592 12.792a.6.6 0 0 1-.424-.176L1.29 8.526a4.419 4.419 0 0 1 0-6.239A4.382 4.382 0 0 1 4.41 1a4.38 4.38 0 0 1 3.12 1.287l.473.474.474-.474A4.38 4.38 0 0 1 11.596 1a4.38 4.38 0 0 1 4.406 4.406 4.38 4.38 0 0 1-1.287 3.12l-6.288 6.287a.601.601 0 0 1-.425.176z"/>
</svg>
