<svg xmlns="http://www.w3.org/2000/svg" viewBox="0 0 20 20">
    <path fill="#000" fill-rule="evenodd" d="M10,2 C5.581,2 2,5.582 2,10 C2,14.419 5.581,18 10,18 C14.418,18 18,14.419 18,10 C18,5.582 14.418,2 10,2 L10,2 L10,2 L10,2 L10,2 Z M9.882,14.589 C9.504,14.589 9.198,14.283 9.198,13.905 C9.198,13.527 9.504,13.221 9.882,13.221 C10.26,13.221 10.567,13.527 10.567,13.905 C10.567,14.283 10.26,14.589 9.882,14.589 L9.882,14.589 L9.882,14.589 L9.882,14.589 L9.882,14.589 Z M10.944,10.496 C10.664,10.619 10.483,10.895 10.483,11.201 L10.483,11.539 C10.483,11.871 10.214,12.14 9.882,12.14 C9.551,12.14 9.282,11.871 9.282,11.539 L9.282,11.201 C9.282,10.418 9.746,9.71 10.464,9.396 C10.993,9.165 11.335,8.642 11.335,8.064 C11.335,7.263 10.684,6.611 9.882,6.611 C9.34,6.611 8.847,6.91 8.595,7.39 C8.441,7.683 8.078,7.796 7.785,7.642 C7.492,7.488 7.379,7.125 7.533,6.832 C7.993,5.955 8.893,5.411 9.882,5.411 C11.345,5.411 12.535,6.601 12.535,8.064 C12.535,9.119 11.911,10.073 10.944,10.496 L10.944,10.496 L10.944,10.496 L10.944,10.496 L10.944,10.496 Z"/>
</svg>
