<svg xmlns="http://www.w3.org/2000/svg" viewBox="0 0 16 16">
    <path fill="#000" fill-rule="evenodd" d="M13.992 0L12.06.07 5.845.29 2.073.422a.6.6 0 0 0 .021 1.2h.022l1.467-.053.124 3.502c-.343.506-2.259 4.422-2.259 4.422a.599.599 0 0 0 .263.796l1.155.597v1.628c0 .331.268.6.6.6H5.06V15.4a.603.603 0 0 0 .784.572l5.14-1.655a.6.6 0 0 0 .415-.57v-.632c0-.678.256-1.32.721-1.814a5.3 5.3 0 0 0 .688-6.4c.006-.037-.107-3.654-.107-3.654l1.335-.047a.6.6 0 0 0-.043-1.2m-2.746 10.477a3.828 3.828 0 0 0-1.048 2.638v.194L6.26 14.577v-2.062a.6.6 0 0 0-.6-.6H4.066v-1.393a.601.601 0 0 0-.325-.533l-.957-.495s1.6-3.285 1.97-3.819l6.98-.247a4.117 4.117 0 0 1-.488 5.05"/>
</svg>
