<svg xmlns="http://www.w3.org/2000/svg" viewBox="0 0 16 16">
    <path d="M14.057 0C15.13 0 16 .87 16 1.943v12.114C16 15.13 15.13 16 14.057 16H1.943A1.943 1.943 0 0 1 0 14.057V1.943C0 .87.87 0 1.943 0h12.114zm-.228 1.2H2.17a.971.971 0 0 0-.971.971V13.83c0 .536.435.971.971.971H13.83a.971.971 0 0 0 .971-.971V2.17a.971.971 0 0 0-.971-.971zM4.495 4.832c.367 0 .664.297.664.663v5.014a.664.664 0 1 1-1.327 0V5.495c0-.366.297-.663.663-.663zm4.698-.005c1.885 0 2.975 1.143 2.975 3.13 0 2.06-1.076 3.216-2.975 3.216H7.474a.777.777 0 0 1-.777-.777V5.604c0-.429.348-.777.777-.777h1.72zm-.21 1.134h-.765a.194.194 0 0 0-.194.194v3.69c0 .107.087.194.194.194h.764c1.174 0 1.833-.72 1.833-2.061 0-1.283-.681-2.017-1.833-2.017z"/>
</svg>
