<svg xmlns="http://www.w3.org/2000/svg" viewBox="0 0 20 20">
    <path fill="#000" fill-rule="evenodd" d="M16 3H4c-1.1 0-2 .9-2 2v10.4c0 1.1.9 2 2 2h12c1.1 0 2-.9 2-2V5c0-1.1-.9-2-2-2M3.871 16.173l4.48-4.859 2.294 2.487a.597.597 0 0 0 .881.001l1.209-1.311 3.396 3.682c-.045.008-.085.027-.131.027H4m12-12c.434 0 .8.366.8.8v10.13l-3.624-3.931a.6.6 0 0 0-.882 0l-1.208 1.31-2.294-2.487a.62.62 0 0 0-.882 0l-4.71 5.11V5c0-.434.366-.8.8-.8m9.113 6.067a1.802 1.802 0 1 0-.004-3.605 1.802 1.802 0 0 0 .004 3.605m0-2.4a.6.6 0 1 1-.001 1.2.6.6 0 0 1 0-1.2"/>
</svg>
