<svg xmlns="http://www.w3.org/2000/svg" viewBox="0 0 16 16">
    <path d="M14 .8H2c-1.1 0-2 .9-2 2v10.4c0 1.1.9 2 2 2h12c1.1 0 2-.9 2-2V2.8c0-1.1-.9-2-2-2M1.871 13.973l4.48-4.859 2.294 2.487a.597.597 0 0 0 .881.001l1.209-1.311 3.396 3.682c-.045.008-.085.027-.131.027H2M14 2c.434 0 .8.366.8.8v10.13l-3.624-3.931a.6.6 0 0 0-.882 0l-1.208 1.31-2.294-2.487a.62.62 0 0 0-.882 0l-4.71 5.11V2.8c0-.434.366-.8.8-.8m9.113 6.066a1.802 1.802 0 1 0-.004-3.604 1.802 1.802 0 0 0 .004 3.604m0-2.4a.6.6 0 1 1-.001 1.201.6.6 0 0 1 0-1.2"/>
</svg>
