<svg xmlns="http://www.w3.org/2000/svg" viewBox="0 0 16 16">
    <path d="M8.1 6.136a.61.61 0 0 1 .037.001l.028.003a.513.513 0 0 1 .078.013l.018.005a.507.507 0 0 1 .07.024l.03.014a.532.532 0 0 1 .164.116l-.08-.066c.031.021.06.045.086.072l2.72 2.721a.6.6 0 0 1-.848.849L8.7 8.184V15.4a.6.6 0 0 1-.503.592L8.1 16a.6.6 0 0 1-.6-.6V8.184L5.796 9.888a.6.6 0 0 1-.765.07l-.083-.07a.6.6 0 0 1 0-.849l2.715-2.714a.603.603 0 0 1 .095-.082l.007-.004a.527.527 0 0 1 .078-.045l.023-.01a.502.502 0 0 1 .077-.027l.012-.003a.567.567 0 0 1 .145-.018l-.063.004a.603.603 0 0 1 .026-.002zM15.4 0a.6.6 0 0 1 .6.6v10.909a.6.6 0 0 1-.6.6h-2.05a.6.6 0 0 1 0-1.2h1.45V3.927H1.2v6.982h1.446a.6.6 0 0 1 0 1.2H.6a.6.6 0 0 1-.6-.6V.6A.6.6 0 0 1 .6 0z"/>
</svg>
