<svg xmlns="http://www.w3.org/2000/svg" viewBox="0 0 16 16">
    <path d="M8.592 8.083v7.324a.593.593 0 1 1-1.185 0V8.084L5.725 9.765a.593.593 0 1 1-.838-.838l2.675-2.674a.591.591 0 0 1 .868-.008l2.682 2.682a.593.593 0 1 1-.838.838L8.592 8.083M1.186 3.88H14.81l.004 6.895h-1.428a.593.593 0 1 0 0 1.185h2.02a.593.593 0 0 0 .593-.592V.593A.593.593 0 0 0 15.407 0H.593A.593.593 0 0 0 0 .593v2.669a.603.603 0 0 0 0 .048v8.057c0 .327.266.592.593.592h2.02a.593.593 0 0 0 0-1.185H1.186V3.879M14.81 2.693H1.186V1.185h13.623l.001 1.508"/>
</svg>
