<svg xmlns="http://www.w3.org/2000/svg" viewBox="0 0 20 20">
    <path fill="#000" fill-rule="evenodd" d="M10.7 10.185V17.6a.6.6 0 0 1-1.2 0v-7.415l-1.704 1.703a.6.6 0 1 1-.848-.849l2.709-2.707a.598.598 0 0 1 .878-.009l2.717 2.716a.6.6 0 0 1-.849.849L10.7 10.185M3.2 5.927h13.796l.005 6.982h-1.447a.6.6 0 0 0 0 1.2H17.6a.6.6 0 0 0 .6-.6V2.6a.6.6 0 0 0-.6-.6h-15a.6.6 0 0 0-.6.6v2.702a.61.61 0 0 0 0 .05v8.157a.6.6 0 0 0 .6.6h2.046a.6.6 0 0 0 0-1.2H3.2V5.927m13.795-1.2H3.2V3.2h13.794v1.527"/>
</svg>
