<svg xmlns="http://www.w3.org/2000/svg" viewBox="0 0 16 16">
    <path d="M11.467 1.5c.83 0 1.583.487 1.92 1.243l2.56 5.74.01.023a.615.615 0 0 1 .043.229v3.674c0 1.155-.94 2.091-2.099 2.091H2.1A2.095 2.095 0 0 1 0 12.41V8.734l.006-.086L0 8.735c0-.081.016-.159.044-.23l.01-.022 2.56-5.74A2.099 2.099 0 0 1 4.532 1.5h6.934zM1.247 12.41a.85.85 0 0 0 .852.848H13.9a.85.85 0 0 0 .852-.849V9.355h-3.469l-1.29 1.929a.624.624 0 0 1-.519.277h-2.95a.624.624 0 0 1-.519-.277l-1.29-1.928-3.47-.001v3.054zm10.22-9.668H4.533a.852.852 0 0 0-.78.505L1.582 8.113h3.467c.209 0 .403.105.52.277l1.29 1.928h2.283l1.29-1.928a.624.624 0 0 1 .519-.276l3.466-.001-2.17-4.866a.852.852 0 0 0-.78-.505z"/>
</svg>
