<svg xmlns="http://www.w3.org/2000/svg" viewBox="0 0 16 16">
    <path d="M11.467 1c.83 0 1.583.487 1.92 1.243l2.56 5.74.01.023a.616.616 0 0 1 .043.229v3.674C16 13.064 15.06 14 13.901 14H2.1A2.095 2.095 0 0 1 0 11.91V8.234l.006-.086L0 8.235c0-.081.016-.159.044-.23l.01-.022 2.56-5.74A2.099 2.099 0 0 1 4.532 1h6.934zm0 1.242H4.533a.852.852 0 0 0-.78.505L1.582 7.613h3.467c.209 0 .403.105.52.277l1.29 1.928h2.147c.144-.13.274-.27.41-.41l1.016-1.518a.624.624 0 0 1 .519-.276l3.466-.001-2.17-4.866a.852.852 0 0 0-.78-.505z"/>
</svg>
