<svg xmlns="http://www.w3.org/2000/svg" viewBox="0 0 16 16">
    <path d="M15.94 7.97a.615.615 0 0 1 .06.265v3.674C16 13.064 15.06 14 13.901 14H2.1A2.095 2.095 0 0 1 0 11.91V8.234a.619.619 0 0 1 .06-.265l2.553-5.726A2.099 2.099 0 0 1 4.533 1h6.934c.83 0 1.583.487 1.92 1.243L15.94 7.97zM9.418 9.407l1.015-1.517a.624.624 0 0 1 .519-.276h3.466l-2.17-4.867a.852.852 0 0 0-.78-.505H4.533a.852.852 0 0 0-.78.505l-2.17 4.867h3.466c.209 0 .403.104.52.276l1.29 1.928h2.147c.145-.132.275-.271.411-.411z"/>
</svg>
