<svg xmlns="http://www.w3.org/2000/svg" viewBox="0 0 16 16">
    <path d="M15.94 8.47a.616.616 0 0 1 .06.265v3.674c0 1.155-.94 2.091-2.099 2.091H2.1A2.095 2.095 0 0 1 0 12.41V8.734a.619.619 0 0 1 .06-.265l2.553-5.726A2.099 2.099 0 0 1 4.533 1.5h6.934c.83 0 1.583.487 1.92 1.243L15.94 8.47zm-1.187.886h-3.469l-1.29 1.928a.624.624 0 0 1-.519.277h-2.95a.624.624 0 0 1-.519-.277l-1.29-1.928h-3.47v3.053a.85.85 0 0 0 .853.849H13.9a.85.85 0 0 0 .852-.849V9.356zM1.583 8.114h3.466c.209 0 .403.104.52.276l1.29 1.928h2.283l1.29-1.928a.624.624 0 0 1 .519-.276h3.466l-2.17-4.867a.852.852 0 0 0-.78-.505H4.533a.852.852 0 0 0-.78.505l-2.17 4.867z"/>
</svg>
