<svg xmlns="http://www.w3.org/2000/svg" viewBox="0 0 16 16">
    <path fill="#000" fill-rule="evenodd" d="M15.324 13.285H.676a.676.676 0 1 0 0 1.352h14.648a.676.676 0 0 0 0-1.352m0-3.995h-3.995a.676.676 0 0 0 0 1.352h3.995a.676.676 0 0 0 0-1.352M6.44 8.644l-1.51 1.51a.676.676 0 0 0 .957.956L8.55 8.446a.676.676 0 0 0 0-.956L5.887 4.827a.676.676 0 1 0-.957.956l1.497 1.51H.677a.676.676 0 0 0 0 1.351H6.44m8.884-3.35h-3.995a.676.676 0 0 0 0 1.353h3.995a.676.676 0 0 0 0-1.352m0-3.995H.676a.676.676 0 1 0 0 1.352h14.648a.676.676 0 0 0 0-1.352"/>
</svg>
