<svg xmlns="http://www.w3.org/2000/svg" viewBox="0 0 16 16">
    <path fill="#000" fill-rule="evenodd" d="M7.809 0a5.808 5.808 0 0 0-4.588 9.37 6.568 6.568 0 0 1 1.259 2.76l.041.206c.101.514.445.916.888 1.141V14c0 1.1.9 2 2 2h.8c1.1 0 2-.9 2-2v-.524a1.64 1.64 0 0 0 .886-1.14l.04-.204a6.533 6.533 0 0 1 1.261-2.761A5.808 5.808 0 0 0 7.809 0m3.64 8.634a7.69 7.69 0 0 0-1.491 3.267l-.04.204a.46.46 0 0 1-.451.371H6.149a.461.461 0 0 1-.451-.371l-.04-.206a7.799 7.799 0 0 0-1.49-3.266A4.614 4.614 0 0 1 7.809 1.2a4.613 4.613 0 0 1 3.64 7.434M9.715 6.748a2.322 2.322 0 0 1-3.813 0 .6.6 0 0 0-.987.684 3.523 3.523 0 0 0 5.786 0 .6.6 0 0 0-.986-.684"/>
</svg>
