<svg xmlns="http://www.w3.org/2000/svg" viewBox="0 0 20 20">
    <path fill="#000" fill-rule="evenodd" d="M16,2 L6.4,2 C5.08,2 4,3.08 4,4.4 L4,15.6 C4,16.92 5.08,18 6.4,18 L16,18 C16.442,18 16.8,17.642 16.8,17.2 L16.8,14 L16.8,2.8 C16.8,2.358 16.442,2 16,2 L16,2 Z M15.6,16.8 L6.4,16.8 C5.738,16.8 5.2,16.262 5.2,15.6 C5.2,14.938 5.738,14.4 6.4,14.4 L15.6,14.4 L15.6,16.8 L15.6,16.8 Z M15.6,13.2 L6.4,13.2 C5.961,13.2 5.555,13.328 5.2,13.535 L5.2,4.4 C5.2,3.738 5.738,3.2 6.4,3.2 L9.8,3.2 L9.8,7.821 C9.8,8.054 9.935,8.266 10.146,8.364 C10.356,8.463 10.606,8.431 10.784,8.282 L12.067,7.213 L13.349,8.282 C13.459,8.374 13.595,8.421 13.733,8.421 C13.82,8.421 13.906,8.402 13.988,8.364 C14.198,8.266 14.333,8.054 14.333,7.821 L14.333,3.2 L15.6,3.2 L15.6,13.2 L15.6,13.2 Z M11,3.2 L13.133,3.2 L13.133,6.54 L12.451,5.971 C12.228,5.785 11.905,5.785 11.682,5.971 L11,6.54 L11,3.2 L11,3.2 Z"/>
</svg>
