<?xml version="1.0" encoding="UTF-8" standalone="no"?>
<svg width="20px" height="20px" viewBox="0 0 20 20" version="1.1" xmlns="http://www.w3.org/2000/svg" xmlns:xlink="http://www.w3.org/1999/xlink">
    <defs></defs>
    <g id="Icons" stroke="none" stroke-width="1" fill="none" fill-rule="evenodd">
        <g id="Web" transform="translate(-529.000000, -1376.000000)" fill="#000000">
            <g id="editor/italic" transform="translate(529.000000, 1376.000000)">
                <path d="M10.3394498,5.6 L7.9167225,14.4833333 L7,14.4833333 C6.66862915,14.4833333 6.4,14.7519625 6.4,15.0833333 C6.4,15.4147042 6.66862915,15.6833333 7,15.6833333 L8.3619653,15.6833333 C8.37091591,15.6835346 8.37984349,15.6835335 8.38874299,15.6833333 L9.75,15.6833333 C10.0813708,15.6833333 10.35,15.4147042 10.35,15.0833333 C10.35,14.7519625 10.0813708,14.4833333 9.75,14.4833333 L9.16055023,14.4833333 L11.5832775,5.6 L12.5,5.6 C12.8313708,5.6 13.1,5.33137085 13.1,5 C13.1,4.66862915 12.8313708,4.4 12.5,4.4 L11.138034,4.4 C11.1290841,4.39979873 11.1201565,4.39979982 11.111257,4.4 L9.75,4.4 C9.41862915,4.4 9.15,4.66862915 9.15,5 C9.15,5.33137085 9.41862915,5.6 9.75,5.6 L10.3394498,5.6" id="Shape"></path>
            </g>
        </g>
    </g>
</svg>