<svg xmlns="http://www.w3.org/2000/svg" viewBox="0 0 16 16">
    <path d="M14 0c1.1 0 2 .9 2 2v8.8c0 1.1-.9 2-2 2h-1.2V14c0 1.1-.9 2-2 2H2c-1.1 0-2-.9-2-2V5.2c0-1.1.9-2 2-2h1.2V2c0-1.1.9-2 2-2H14zm-2.4 14V5.2a.81.81 0 0 0-.8-.8H2a.81.81 0 0 0-.8.8V14c0 .434.366.8.8.8h8.8a.81.81 0 0 0 .8-.8zm3.2-3.2V2a.81.81 0 0 0-.8-.8H5.2a.81.81 0 0 0-.8.8v1.2h6.4c1.1 0 2 .9 2 2v6.4H14a.81.81 0 0 0 .8-.8zM5.816 9.6a.6.6 0 0 1-.6.6H3.95a.6.6 0 0 1-.6-.6 3.103 3.103 0 0 1 5.043-2.416.6.6 0 0 1-.753.935A1.896 1.896 0 0 0 4.656 9h.56a.6.6 0 0 1 .6.6zM8.85 9a.6.6 0 0 1 .6.6 3.104 3.104 0 0 1-5.043 2.416.6.6 0 0 1 .753-.935 1.896 1.896 0 0 0 2.984-.881h-.56a.6.6 0 0 1 0-1.2H8.85z"/>
</svg>
