<svg xmlns="http://www.w3.org/2000/svg" viewBox="0 0 16 16">
    <path d="M11.192 14.993l-.224-1.414s-.755.76-1.707.568a1.45 1.45 0 0 1-1.023-1.156s-.138-.582.035-1.232c.345-1.47 1.549-2.08 1.549-2.08l-.072-.957s-.654.816-1.547.462a.996.996 0 0 1-.535-.587c-.148-.385-.052-.776-.052-.776l-1.354.643c.157.12 1.033.763.758 2.624a4.676 4.676 0 0 1-.935 2.087s-.53.718-1.335.943c-.338.087-.513.067-.648.053l-.11.829 7.2-.007zm-8.779-4.18c.364.32.863.628 1.751.385 0 0 .4-.078.58-.301a.683.683 0 0 0 .139-.358c.03-.405.002-1.2-.572-1.638-.224-.207-1.396-.743-3.311.232 0 0 1.05 1.361 1.413 1.68zm4.772-3.91c.417-.436.42-1.488.35-2.022a2.963 2.963 0 0 0-.174-.759C6.645 2.477 5.143 2.44 3.186 1.84c-.001 0-1.813-.574-2.18-.839 0 0 .409 6.882 4.18 6.605.288-.016.568-.064.81-.111.293-.072.416-.104.751-.257.17-.086.313-.184.438-.334zm1.767-.498c.203.346.253.376.391.507.37.363 1.454-.042 1.706-.164.248-.1 3.267-1.206.716-5.748 0 0-4.587 2.034-2.813 5.405zm4.998 1.03a5.325 5.325 0 0 0-2.03.022 1.667 1.667 0 0 0-.516.208 1.99 1.99 0 0 0-.74 1c-.02.058-.307.76-.17 1.237.116.418.964.624 1.108.655.318.066.424.073.573.087.108.007.141.003.192 0 .585-.03 1.863-.547 2.633-3.018.002-.01-.97-.179-1.05-.192z"/>
</svg>
