<svg xmlns="http://www.w3.org/2000/svg" viewBox="0 0 20 20">
    <path fill="#000" fill-rule="evenodd" d="M15.6568542,4.34314575 C12.5328565,1.21914799 7.46714351,1.21914799 4.34314575,4.34314575 C1.21914799,7.46714351 1.21914799,12.5328565 4.34314575,15.6568542 C7.46714351,18.780852 12.5328565,18.780852 15.6568542,15.6568542 C18.780852,12.5328565 18.780852,7.46714351 15.6568542,4.34314575 L15.6568542,4.34314575 L15.6568542,4.34314575 L15.6568542,4.34314575 Z M7.93906658,12.9091787 C7.70430712,13.1439382 7.32459078,13.1432311 7.09053844,12.9091787 C6.85577899,12.6744193 6.85577899,12.29541 7.09053844,12.0606506 L11.0369014,8.11428764 L7.77148227,8.11428764 C7.44055629,8.11428764 7.17114861,7.84487995 7.17185572,7.51466109 C7.17185572,7.3491981 7.23903086,7.19858435 7.3472182,7.09039702 C7.45611264,6.98150257 7.60601928,6.91503454 7.77218938,6.91432743 L12.4857632,6.91432743 C12.8166892,6.91432743 13.0853897,7.18302801 13.0853897,7.51395398 L13.0860968,12.2282349 C13.0853897,12.559868 12.8166892,12.8285685 12.4857632,12.8285685 C12.1541301,12.8278614 11.8854295,12.5591609 11.8854295,12.2282349 L11.8854295,8.96281577"/>
</svg>
