<svg xmlns="http://www.w3.org/2000/svg" viewBox="0 0 16 16">
    <path d="M13.9 5.2c0-1.73-1.395-3.13-3.115-3.13A3.122 3.122 0 0 0 7.67 5.2c0 1.73 1.395 3.132 3.114 3.132A3.124 3.124 0 0 0 13.9 5.2zM10.785.87A4.323 4.323 0 0 1 15.1 5.2a4.324 4.324 0 0 1-4.315 4.332 4.285 4.285 0 0 1-2.773-1.014l-.044.056-2.01 2.12 1.539 1.545a.6.6 0 1 1-.85.847l-1.514-1.521-.986 1.041 1.492 1.499a.6.6 0 1 1-.85.846l-1.468-1.474-1.385 1.464a.6.6 0 1 1-.872-.826L7.096 7.75a.6.6 0 0 1 .129-.103A4.322 4.322 0 0 1 10.785.87z"/>
</svg>
