<svg xmlns="http://www.w3.org/2000/svg" viewBox="0 0 16 16">
    <path d="M13.9 5.2c0-1.73-1.395-3.13-3.115-3.13A3.122 3.122 0 0 0 7.67 5.2c0 1.73 1.395 3.132 3.114 3.132A3.124 3.124 0 0 0 13.9 5.2zM8.013 8.52a.606.606 0 0 1-.045.054l-2.01 2.12 1.539 1.545a.6.6 0 1 1-.85.847l-1.514-1.52-.986 1.04 1.492 1.499a.6.6 0 1 1-.85.846l-1.467-1.473-1.386 1.463a.6.6 0 1 1-.872-.826L7.096 7.75a.6.6 0 0 1 .128-.103A4.322 4.322 0 0 1 10.784.87 4.323 4.323 0 0 1 15.1 5.2a4.324 4.324 0 0 1-4.315 4.332A4.285 4.285 0 0 1 8.013 8.52z"/>
</svg>
