<svg xmlns="http://www.w3.org/2000/svg" viewBox="0 0 17 17">
    <path d="M8.527 7.67c0-.314.247-.571.552-.571.304 0 .551.257.551.57a.56.56 0 0 1-.551.57.56.56 0 0 1-.552-.57zm5.436 7.759c-.606.74-1.588.82-1.982.82-.096 0-.158-.005-.168-.006l-3.138.001v.001H4.142c-.003 0-.053.005-.14.005-.364 0-1.356-.075-1.966-.823a2.499 2.499 0 0 1-.37-2.439l3.606-7.82v-1.6a1.671 1.671 0 0 1-.746-.425 1.635 1.635 0 0 1-.45-1.189c0-.477.155-.888.447-1.189A1.859 1.859 0 0 1 5.782.25h4.439c.703.039 1.704.524 1.704 1.704 0 .91-.576 1.397-1.151 1.59l.003 1.627 3.55 7.802c.03.069.547 1.342-.364 2.456zm-9.989-4.794c.558.254 1.722.581 3.462.02 1.899-.612 3.45-.61 4.41-.506l-2.172-4.85-.006-2.782.537-.014c.182-.008.616-.08.616-.549 0-.48-.485-.554-.636-.566L8.34 1.39H5.78c-.221.004-.6.084-.6.565 0 .255.09.346.12.375a.738.738 0 0 0 .472.174l.561-.01.043.58-.054 2.47-2.348 5.092zm9.347 2.805l-.92-2.054c-.532-.118-2.29-.402-4.637.357-.81.26-1.528.358-2.146.358-.957 0-1.664-.23-2.117-.44l-.828 1.796c0 .004-.254.668.209 1.234.32.391.988.425 1.218.415l3.225-.001v-.001h4.533c.276.023.943-.023 1.263-.413.465-.57.203-1.244.2-1.25z"/>
</svg>
