<svg xmlns="http://www.w3.org/2000/svg" viewBox="0 0 16 16">
    <path d="M1.226 4.752h11.548V3.349a.818.818 0 0 0-.818-.797h-1.22v.324c0 .331-.274.598-.614.598a.605.605 0 0 1-.613-.598v-.324H4.491v.324c0 .331-.275.598-.613.598a.606.606 0 0 1-.615-.598v-.324H2.044a.818.818 0 0 0-.818.797v1.403zM14 3.349l-.001 4.364a.607.607 0 0 1-.613.598.607.607 0 0 1-.613-.598V5.947H1.227v7.061c0 .432.375.797.818.797h7.108c.338 0 .614.269.614.597a.607.607 0 0 1-.614.598H2.044A2.025 2.025 0 0 1 0 13.008v-9.66c0-1.095.92-1.991 2.044-1.991h1.22v-.76c0-.33.274-.597.614-.597.338 0 .613.267.613.598v.759h5.018v-.76c0-.33.275-.597.613-.597.34 0 .615.267.615.598v.759h1.219c1.124 0 2.044.896 2.044 1.992zm1.402 11.108l-2.609 1.393c-.797.426-1.793-.106-1.793-.957v-2.786c0-.852.998-1.383 1.793-.957l2.61 1.393c.796.425.796 1.489 0 1.914zm-.823-.957l-2.27-1.212v2.424l2.27-1.212z"/>
</svg>
