<svg xmlns="http://www.w3.org/2000/svg" viewBox="0 0 16 16">
    <path d="M6.253 6.19a4.966 4.966 0 0 1 1.655 2.374 5.03 5.03 0 0 1 1.857-2.532.583.583 0 1 1 .703.93C8.848 8.185 8.494 9.885 8.49 14.52v.06a.583.583 0 0 1-1.166 0v-.06c-.003-4.534-.342-6.26-1.872-7.477C2.379 6.423.372 4.522.004 1.493a.583.583 0 0 1 .64-.65c3.292.345 5.233 2.314 5.61 5.347zM1.305 2.126c.465 1.83 1.748 3.038 3.69 3.605-.418-1.916-1.648-3.17-3.69-3.605zm8.414 4.317c.298-3.177 2.255-5.246 5.637-5.6a.583.583 0 0 1 .64.65c-.373 3.074-2.436 4.987-5.589 5.577a.583.583 0 0 1-.688-.627zm4.976-4.317c-2.042.436-3.272 1.69-3.69 3.605 1.942-.567 3.225-1.775 3.69-3.605z"/>
</svg>
