<svg xmlns="http://www.w3.org/2000/svg" viewBox="0 0 16 16">
    <path d="M.644.843c3.292.345 5.234 2.314 5.61 5.349a4.956 4.956 0 0 1 1.655 2.373 5.024 5.024 0 0 1 1.856-2.533.583.583 0 1 1 .703.93C8.842 8.19 8.49 9.9 8.49 14.58a.583.583 0 1 1-1.136.184l-.022-.09-.008-.094c0-4.581-.335-6.316-1.875-7.54l.143.03C2.44 6.48.377 4.567.004 1.493a.583.583 0 0 1 .64-.65zm.66 1.283c.466 1.83 1.749 3.038 3.69 3.605-.417-1.916-1.647-3.17-3.69-3.605zM15.357.843a.583.583 0 0 1 .64.65c-.373 3.074-2.436 4.987-5.589 5.577a.583.583 0 0 1-.688-.627c.298-3.177 2.255-5.246 5.637-5.6zm-.66 1.283c-2.043.436-3.273 1.69-3.69 3.605 1.941-.567 3.224-1.775 3.69-3.605z"/>
</svg>
