<svg xmlns="http://www.w3.org/2000/svg" viewBox="0 0 16 16">
    <path d="M1.943 0h12.114C15.13 0 16 .87 16 1.943v12.114C16 15.13 15.13 16 14.057 16H1.943A1.943 1.943 0 0 1 0 14.057V1.943C0 .87.87 0 1.943 0zM1.3 2.257v11.486c0 .528.429.957.957.957h11.486a.957.957 0 0 0 .957-.957V2.257a.957.957 0 0 0-.957-.957H2.257a.957.957 0 0 0-.957.957zM11.4 11.4H9.541a6.801 6.801 0 0 0-.19-.883l-.215-.694H6.872l-.215.694c-.103.327-.158.58-.198.883H4.6c.12-.245.19-.441.381-.997l1.716-4.92a5.1 5.1 0 0 0 .254-.883h2.074c.055.237.111.45.27.883l1.724 4.92c.15.433.278.768.381.997zM8.747 8.45l-.755-2.452-.739 2.452h1.494z"/>
</svg>
