<svg xmlns="http://www.w3.org/2000/svg" viewBox="0 0 20 20">
    <path d="M12.2 16.8a.6.6 0 0 1 0 1.2H7.8a.6.6 0 0 1 0-1.2h4.4zM10 2c3.45 0 6.2 2.708 6.2 6.113a6.097 6.097 0 0 1-3.121 5.29l-.08.042.001.967a1.34 1.34 0 0 1-1.26 1.382l-.14.006H8.4c-.81 0-1.4-.581-1.4-1.388l-.001-.968-.078-.04a6.102 6.102 0 0 1-3.116-5.048L3.8 8.113A6.122 6.122 0 0 1 10 2zm0 1.2c-2.79 0-5 2.175-5 4.913a4.89 4.89 0 0 0 2.847 4.414.6.6 0 0 1 .353.547v1.338c0 .14.05.188.2.188h3.2c.15 0 .2-.049.2-.188v-1.338a.6.6 0 0 1 .353-.547A4.89 4.89 0 0 0 15 8.113 4.923 4.923 0 0 0 10 3.2z"/>
</svg>
