<svg xmlns="http://www.w3.org/2000/svg" viewBox="0 0 20 20">
    <path d="M10 2C6.55 2 3.8 4.708 3.8 8.113l.005.243a6.102 6.102 0 0 0 3.116 5.048l.078.04.001.968c0 .807.59 1.388 1.4 1.388h3.2l.14-.006A1.34 1.34 0 0 0 13 14.412l-.001-.967.08-.041A6.097 6.097 0 0 0 16.2 8.113 6.122 6.122 0 0 0 10 2zm0 1.2c2.79 0 5 2.175 5 4.913a4.89 4.89 0 0 1-2.847 4.414.6.6 0 0 0-.353.547v1.338c0 .14-.05.188-.2.188H8.4c-.15 0-.2-.049-.2-.188v-1.338a.6.6 0 0 0-.353-.547A4.89 4.89 0 0 1 5 8.113 4.923 4.923 0 0 1 10 3.2zM7.8 16.8h4.4a.6.6 0 0 1 0 1.2H7.8a.6.6 0 0 1 0-1.2z"/>
</svg>
