<svg xmlns="http://www.w3.org/2000/svg" viewBox="0 0 16 16">
    <path d="M14.222 1.5c.982 0 1.778.803 1.778 1.793a1.785 1.785 0 0 1-2.359 1.695l-1.24 2.001a1.795 1.795 0 0 1-1.29 3.028A1.781 1.781 0 0 1 9.39 8.672H6.611a1.781 1.781 0 0 1-2.288 1.252l-1.111 1.723A1.795 1.795 0 0 1 1.778 14.5 1.785 1.785 0 0 1 0 12.707a1.785 1.785 0 0 1 2.52-1.63l1.058-1.642a1.795 1.795 0 0 1 1.31-3.004c.829 0 1.525.571 1.722 1.344h2.78a1.781 1.781 0 0 1 2.256-1.261L12.9 4.49A1.795 1.795 0 0 1 14.222 1.5z"/>
</svg>
