<svg xmlns="http://www.w3.org/2000/svg" viewBox="0 0 16 16">
    <path d="M6.61 7.776h2.78a1.781 1.781 0 0 1 2.257-1.262L12.9 4.492A1.795 1.795 0 0 1 14.222 1.5c.982 0 1.778.803 1.778 1.793a1.785 1.785 0 0 1-2.36 1.695L12.4 6.989a1.795 1.795 0 0 1-1.289 3.028A1.781 1.781 0 0 1 9.39 8.672H6.611a1.781 1.781 0 0 1-2.288 1.252l-1.111 1.723A1.795 1.795 0 0 1 1.778 14.5 1.785 1.785 0 0 1 0 12.707a1.785 1.785 0 0 1 2.52-1.63l1.058-1.642a1.795 1.795 0 0 1 1.31-3.004c.83 0 1.525.571 1.723 1.345z"/>
</svg>
