<svg xmlns="http://www.w3.org/2000/svg" viewBox="0 0 20 20">
    <path fill="#000" fill-rule="evenodd" d="M14.309 7.352c-1.729 0-2.49.916-2.9 1.546v.028h-.03s0-.028.03-.028V7.552H8.184c.03.888 0 9.448 0 9.448h3.223v-5.268c0-.286 0-.573.088-.773a1.791 1.791 0 0 1 1.67-1.145c1.143 0 1.611.859 1.611 2.147V17H18v-5.411c0-2.892-1.582-4.237-3.691-4.237M3.176 17h3.222V7.552H3.176V17m1.64-14C3.732 3 3 3.716 3 4.632c0 .916.703 1.632 1.787 1.632 1.143 0 1.816-.716 1.816-1.632C6.603 3.716 5.93 3 4.816 3"/>
</svg>
