<svg xmlns="http://www.w3.org/2000/svg" viewBox="0 0 16 16">
    <path fill="#000" fill-rule="evenodd" d="M8.504 7.496a2.861 2.861 0 0 1 0 4.137l-2.037 2.036a2.86 2.86 0 0 1-4.136 0 2.857 2.857 0 0 1-.01-4.125l1.818-1.746-1.007-1.05-1.83 1.757a4.332 4.332 0 0 0 0 6.193A4.363 4.363 0 0 0 4.4 16a4.363 4.363 0 0 0 3.097-1.302l2.037-2.037a4.334 4.334 0 0 0 0-6.194L8.504 7.496m6.194-6.193a4.332 4.332 0 0 0-6.194 0L6.467 3.339a4.333 4.333 0 0 0 0 6.194l1.029-1.029a2.86 2.86 0 0 1 0-4.136l2.037-2.037a2.86 2.86 0 0 1 4.136 0 2.857 2.857 0 0 1 .011 4.126l-1.819 1.745 1.007 1.05 1.83-1.756a4.333 4.333 0 0 0 0-6.193"/>
</svg>
