<svg xmlns="http://www.w3.org/2000/svg" viewBox="0 0 16 16">
    <path d="M7.973 7.027a2.682 2.682 0 0 1 0 3.879l-1.91 1.909a2.682 2.682 0 0 1-3.878 0 2.679 2.679 0 0 1-.01-3.868L3.882 7.31l-.945-.984-1.715 1.647a4.061 4.061 0 0 0 0 5.806 4.09 4.09 0 0 0 2.903 1.22 4.09 4.09 0 0 0 2.903-1.22l1.91-1.909a4.063 4.063 0 0 0 0-5.807l-.964.964m0-5.806l-1.91 1.91a4.062 4.062 0 0 0 0 5.806l.964-.964a2.682 2.682 0 0 1 0-3.878l1.91-1.91a2.68 2.68 0 0 1 3.878 0 2.678 2.678 0 0 1 .01 3.868L11.12 7.69l.944.985 1.715-1.647a4.062 4.062 0 0 0 0-5.807 4.062 4.062 0 0 0-5.806 0z"/>
</svg>
