<?xml version="1.0" encoding="UTF-8" standalone="no"?>
<svg width="20px" height="20px" viewBox="0 0 20 20" version="1.1" xmlns="http://www.w3.org/2000/svg" xmlns:xlink="http://www.w3.org/1999/xlink">
    <defs></defs>
    <g id="Icons" stroke="none" stroke-width="1" fill="none" fill-rule="evenodd">
        <g id="Web" transform="translate(-49.000000, -1466.000000)" fill="#000000">
            <g id="editor/link2" transform="translate(49.000000, 1466.000000)">
                <path d="M8.4,13.6 L5.8,13.6 C3.705,13.6 2,11.895 2,9.8 C2,7.705 3.705,6 5.8,6 L8.4,6 C8.732,6 9,6.268 9,6.6 C9,6.932 8.732,7.2 8.4,7.2 L5.8,7.2 C4.366,7.2 3.2,8.367 3.2,9.8 C3.2,11.234 4.366,12.4 5.8,12.4 L8.4,12.4 C8.732,12.4 9,12.669 9,13 C9,13.331 8.732,13.6 8.4,13.6 M14.0001,10.4003 L6.0001,10.4003 C5.6681,10.4003 5.4001,10.1313 5.4001,9.8003 C5.4001,9.4683 5.6681,9.2003 6.0001,9.2003 L14.0001,9.2003 C14.3321,9.2003 14.6001,9.4683 14.6001,9.8003 C14.6001,10.1313 14.3321,10.4003 14.0001,10.4003 M14.1998,13.6 L11.5998,13.6 C11.2688,13.6 10.9998,13.331 10.9998,13 C10.9998,12.669 11.2688,12.4 11.5998,12.4 L14.1998,12.4 C15.6338,12.4 16.7998,11.234 16.7998,9.8 C16.7998,8.367 15.6338,7.2 14.1998,7.2 L11.5998,7.2 C11.2688,7.2 10.9998,6.932 10.9998,6.6 C10.9998,6.268 11.2688,6 11.5998,6 L14.1998,6 C16.2948,6 17.9998,7.705 17.9998,9.8 C17.9998,11.895 16.2948,13.6 14.1998,13.6" id="Shape"></path>
            </g>
        </g>
    </g>
</svg>