<svg xmlns="http://www.w3.org/2000/svg" viewBox="0 0 16 16">
    <path fill="#000" fill-rule="evenodd" d="M7.847 8.153c.81.811.81 2.034 0 2.845l-1.4 1.4c-.811.81-2.034.81-2.844 0a1.964 1.964 0 0 1-.007-2.837l1.25-1.2-.693-.722-1.258 1.208a2.978 2.978 0 0 0 0 4.258 3 3 0 0 0 2.13.895 3 3 0 0 0 2.128-.895l1.4-1.4a2.98 2.98 0 0 0 0-4.259l-.706.707m4.258-4.257a2.979 2.979 0 0 0-4.258 0l-1.4 1.4a2.979 2.979 0 0 0 0 4.258l.707-.707a1.967 1.967 0 0 1 0-2.844l1.4-1.4a1.966 1.966 0 0 1 2.844 0c.81.81.81 2.033.007 2.836l-1.25 1.2.692.722 1.258-1.207a2.979 2.979 0 0 0 0-4.258"/>
</svg>
