<svg xmlns="http://www.w3.org/2000/svg" viewBox="0 0 16 16">
    <path d="M8.028 16a.599.599 0 0 1-.47-.227l-4.056-5.108C1.403 7.82 1.518 4 3.756 1.762A6 6 0 0 1 8.027 0h.001c1.617 0 3.134.626 4.27 1.762 2.238 2.238 2.354 6.059.268 8.886l-4.068 5.125a.599.599 0 0 1-.47.227m0-14.8a4.804 4.804 0 0 0-3.423 1.411c-1.822 1.821-1.887 4.971-.15 7.325l3.572 4.499 3.586-4.516c1.724-2.337 1.66-5.486-.164-7.308A4.8 4.8 0 0 0 8.03 1.2h-.002m0 7.94a3.004 3.004 0 0 1 0-6 3.004 3.004 0 0 1 0 6m0-4.8a1.801 1.801 0 1 0 .004 3.602 1.801 1.801 0 0 0-.003-3.603"/>
</svg>
