<svg xmlns="http://www.w3.org/2000/svg" viewBox="0 0 20 20">
    <path fill="#000" fill-rule="evenodd" d="M14.718 8.704V6.371A4.376 4.376 0 0 0 10.347 2a4.376 4.376 0 0 0-4.371 4.371v2.333A2.004 2.004 0 0 0 4 10.702V16c0 1.1.9 2 2 2h8.695c1.1 0 2-.9 2-2v-5.298a2.005 2.005 0 0 0-1.977-1.998M15.495 16a.81.81 0 0 1-.8.8H6a.81.81 0 0 1-.8-.8v-5.298c0-.434.366-.8.8-.8h8.695c.434 0 .8.366.8.8V16M10.347 3.2a3.175 3.175 0 0 1 3.171 3.171v2.331H7.177V6.371a3.174 3.174 0 0 1 3.17-3.171m0 9.055a1.2 1.2 0 1 0 0 2.399 1.2 1.2 0 0 0 0-2.399"/>
</svg>
