<svg xmlns="http://www.w3.org/2000/svg" viewBox="0 0 16 16">
    <path fill="#000" fill-rule="evenodd" d="M12.718 6.704V4.371A4.376 4.376 0 0 0 8.347 0a4.376 4.376 0 0 0-4.371 4.371v2.333A2.004 2.004 0 0 0 2 8.702V14c0 1.1.9 2 2 2h8.695c1.1 0 2-.9 2-2V8.702a2.005 2.005 0 0 0-1.977-1.998M13.495 14a.81.81 0 0 1-.8.8H4a.81.81 0 0 1-.8-.8V8.702c0-.434.366-.8.8-.8h8.695c.434 0 .8.366.8.8V14M8.347 1.2a3.175 3.175 0 0 1 3.171 3.171v2.331H5.177V4.371A3.174 3.174 0 0 1 8.347 1.2m0 9.055a1.2 1.2 0 1 0 0 2.399 1.2 1.2 0 0 0 0-2.399"/>
</svg>
