<svg xmlns="http://www.w3.org/2000/svg" viewBox="0 0 16 16">
    <path d="M12.222 6.707V4.373A4.378 4.378 0 0 0 7.85 0a4.378 4.378 0 0 0-4.372 4.373v2.334A2.005 2.005 0 0 0 1.5 8.705v5.3c0 1.1.9 2.001 2 2.001h8.7c1.1 0 2-.9 2-2v-5.3a2.005 2.005 0 0 0-1.978-2m.778 7.3a.81.81 0 0 1-.8.8H3.5a.81.81 0 0 1-.8-.8v-5.3c0-.435.367-.8.8-.8h8.7c.433 0 .8.365.8.8v5.3M7.85 1.2a3.176 3.176 0 0 1 3.172 3.173v2.332H4.678V4.373A3.176 3.176 0 0 1 7.85 1.2m0 9.06a1.2 1.2 0 1 0 .001 2.399 1.2 1.2 0 0 0 0-2.4"/>
</svg>
