<svg xmlns="http://www.w3.org/2000/svg" viewBox="0 0 20 20">
    <path fill="#000" fill-rule="evenodd" d="M14.718,8.704 L14.718,6.371 C14.718,3.961 12.757,2 10.347,2 C7.937,2 5.976,3.961 5.976,6.371 L5.976,8.704 C4.887,8.717 4,9.61 4,10.702 L4,16 C4,17.1 4.9,18 6,18 L14.695,18 C15.795,18 16.695,17.1 16.695,16 L16.695,10.702 C16.695,9.609 15.807,8.717 14.718,8.704 L14.718,8.704 Z M15.495,16 C15.495,16.434 15.129,16.8 14.695,16.8 L6,16.8 C5.566,16.8 5.2,16.434 5.2,16 L5.2,10.702 C5.2,10.268 5.566,9.902 6,9.902 L14.695,9.902 C15.129,9.902 15.495,10.268 15.495,10.702 L15.495,16 L15.495,16 Z M10.347,3.2 C12.095,3.2 13.518,4.623 13.518,6.371 L13.518,8.702 L7.177,8.702 L7.177,6.371 C7.177,4.623 8.599,3.2 10.347,3.2 L10.347,3.2 Z M10.3473,12.2552 C9.6853,12.2552 9.1483,12.7922 9.1483,13.4542 C9.1483,14.1162 9.6853,14.6532 10.3473,14.6532 C11.0093,14.6532 11.5463,14.1162 11.5463,13.4542 C11.5463,12.7922 11.0093,12.2552 10.3473,12.2552 L10.3473,12.2552 Z"/>
</svg>
