<svg xmlns="http://www.w3.org/2000/svg" viewBox="0 0 16 16">
    <path d="M5.165 2.307v7.905c0 1.139.146 1.867.49 2.4.79 1.238 2.53 1.59 5.05.923l-.293-1.05c-2.366.565-3.542-.172-3.542-2.312v-3.34c0-.314.26-.568.582-.568h2.965V4.99H7.452a.575.575 0 0 1-.582-.568V2.18l-1.705.127zm2.87 7.866c0 1.435.53 1.698 2.613 1.07a.585.585 0 0 1 .734.393l.597 2.137a.565.565 0 0 1-.386.69c-3.26 1.004-5.743.606-6.926-1.248-.482-.748-.667-1.67-.667-3.003v-8.43c0-.297.234-.544.538-.567l2.87-.213a.576.576 0 0 1 .626.566v2.288H11c.322 0 .582.254.582.567v2.41c0 .313-.26.567-.582.567H8.034v2.773z"/>
</svg>
