<svg xmlns="http://www.w3.org/2000/svg" viewBox="0 0 20 20">
    <path fill="#000" fill-rule="evenodd" d="M14.875 3a5.672 5.672 0 0 0-4.688 2.5H4.876C3.812 5.5 3 6.813 3 8.625c0 1.813.813 3.125 1.875 3.125h1.438L9 16.313c.375.625 1.125.812 1.688.437.624-.375.812-1.125.437-1.688L9.187 11.75h1a5.672 5.672 0 0 0 4.688 2.5c1.813 0 3.125-2.438 3.125-5.625C18 5.437 16.687 3 14.875 3m0 10c-.563 0-1.188-.813-1.563-2.063a2.453 2.453 0 0 0 1.563-2.312 2.453 2.453 0 0 0-1.563-2.313c.376-1.25 1-2.062 1.563-2.062.875 0 1.875 1.875 1.875 4.375S15.75 13 14.875 13"/>
</svg>
