<svg xmlns="http://www.w3.org/2000/svg" viewBox="0 0 20 20">
    <path fill="#000" fill-rule="evenodd" d="M17.334 7.7l-.901-.647V3.434C16.433 2.644 15.79 2 15 2H5c-.79 0-1.433.644-1.433 1.434v3.619l-.901.647A1.6 1.6 0 0 0 2 8.999v7.431a1.6 1.6 0 0 0 1.6 1.6h12.8a1.6 1.6 0 0 0 1.6-1.6V8.999a1.6 1.6 0 0 0-.666-1.299m-.534 8.719l-5.824-3.499L16.8 9.58v6.839m-13.2.411a.4.4 0 0 1-.4-.4V9.648l11.954 7.182H3.6M5 3.201h10c.127 0 .233.107.233.233v5.661l-5.436 3.117-5.03-3.023V3.434c0-.126.107-.233.233-.233m1.667 5.195H10a.6.6 0 1 0 0-1.2H6.667a.6.6 0 1 0 0 1.2m0-2.516h6.667a.6.6 0 0 0 0-1.2H6.667a.6.6 0 1 0 0 1.2"/>
</svg>
