<svg xmlns="http://www.w3.org/2000/svg" viewBox="0 0 16 16">
    <path fill="#000" fill-rule="evenodd" d="M15.334 5.7l-.901-.647V1.434C14.433.644 13.79 0 13 0H3c-.79 0-1.433.644-1.433 1.434v3.619L.666 5.7A1.6 1.6 0 0 0 0 6.999v7.431a1.6 1.6 0 0 0 1.6 1.6h12.8a1.6 1.6 0 0 0 1.6-1.6V6.999a1.6 1.6 0 0 0-.666-1.299m-.534 8.719L8.976 10.92 14.8 7.58v6.839m-13.2.411a.4.4 0 0 1-.4-.4V7.648l11.954 7.182H1.6M3 1.201h10c.127 0 .233.107.233.233v5.661l-5.436 3.117-5.03-3.023V1.434c0-.126.107-.233.233-.233m1.667 5.195H8a.6.6 0 1 0 0-1.2H4.667a.6.6 0 1 0 0 1.2m0-2.516h6.667a.6.6 0 0 0 0-1.2H4.667a.6.6 0 1 0 0 1.2"/>
</svg>
