<svg xmlns="http://www.w3.org/2000/svg" viewBox="0 0 20 20">
    <path fill="#000" fill-rule="evenodd" d="M15,3 L5,3 C3.9,3 3,3.9 3,5 L3,15 C3,16.1 3.9,17 5,17 L15,17 C16.1,17 17,16.1 17,15 L17,5 C17,3.9 16.1,3 15,3 L15,3 Z M14.015,8.091 L9.348,12.758 C9.236,12.87 9.083,12.934 8.924,12.934 C8.765,12.934 8.613,12.87 8.5,12.758 L5.985,10.243 C5.751,10.009 5.751,9.629 5.985,9.395 C6.22,9.16 6.599,9.16 6.834,9.395 L8.924,11.485 L13.166,7.242 C13.401,7.008 13.781,7.008 14.015,7.242 C14.249,7.477 14.249,7.857 14.015,8.091 L14.015,8.091 Z"/>
</svg>
