<svg xmlns="http://www.w3.org/2000/svg" viewBox="0 0 17 17">
    <path d="M1.313 12.356c-.165-.264-.32-.536-.466-.817a6.568 6.568 0 0 1-.631-1.873 6.479 6.479 0 0 1 .218-3.078c.207-.644.5-1.257.88-1.84h.766a8.36 8.36 0 0 0-.755 1.828 7.752 7.752 0 0 0-.012 3.957c.165.626.42 1.234.767 1.823h-.767zM2.51 6.514h.89v.594h.026c.071-.105.148-.201.23-.289a1.26 1.26 0 0 1 .628-.367 1.741 1.741 0 0 1 1.176.12.98.98 0 0 1 .474.536c.16-.22.344-.394.553-.52.209-.127.47-.19.784-.19.45 0 .802.11 1.052.33.25.22.375.589.375 1.106v2.946h-.94V8.288a6 6 0 0 0-.017-.466.952.952 0 0 0-.095-.363.54.54 0 0 0-.235-.236.93.93 0 0 0-.429-.082c-.32 0-.55.099-.693.297a1.42 1.42 0 0 0-.215.842v2.5h-.94V8.04c0-.297-.054-.521-.161-.672-.108-.152-.304-.227-.59-.227a.864.864 0 0 0-.648.289 1.074 1.074 0 0 0-.206.346 1.318 1.318 0 0 0-.079.47v2.534h-.94V6.514zm11.197 4.266h-.891v-.578h-.017c-.126.248-.31.425-.552.532a2.037 2.037 0 0 1-1.646-.017 1.753 1.753 0 0 1-.624-.482 2.066 2.066 0 0 1-.371-.722 3.13 3.13 0 0 1-.124-.895c0-.385.053-.718.157-.999a2 2 0 0 1 .417-.693c.173-.181.371-.315.594-.4a1.89 1.89 0 0 1 1.085-.09 1.781 1.781 0 0 1 .747.33c.107.085.196.185.268.3h.016V4.889h.941v5.892zm-3.284-2.088c0 .182.023.36.07.536.047.177.118.333.215.47.096.138.218.248.367.33.148.083.324.125.528.125a1.056 1.056 0 0 0 .912-.479c.096-.143.168-.304.214-.483a2.16 2.16 0 0 0 .07-.548c0-.473-.105-.842-.317-1.106a1.047 1.047 0 0 0-.863-.396 1.065 1.065 0 0 0-.928.49c-.096.147-.165.312-.206.496a2.58 2.58 0 0 0-.062.565zm4.514-3.944c.165.264.319.538.462.82a7.152 7.152 0 0 1 .631 1.878 6.397 6.397 0 0 1-.215 3.078 7.48 7.48 0 0 1-.878 1.832h-.768a8.19 8.19 0 0 0 .755-1.82 7.752 7.752 0 0 0 .012-3.957 7.33 7.33 0 0 0-.767-1.831h.768z"/>
</svg>
