<svg xmlns="http://www.w3.org/2000/svg" viewBox="0 0 16 16">
    <path fill="#000" fill-rule="evenodd" d="M12.65 3H2.854A2.242 2.242 0 0 0 .619 5.236v6.228A2.242 2.242 0 0 0 2.855 13.7h9.794a2.242 2.242 0 0 0 2.236-2.236V5.236A2.242 2.242 0 0 0 12.649 3m0 9.358H2.855a.906.906 0 0 1-.894-.894V10.37h11.582v1.095c0 .485-.409.894-.894.894M1.961 8.722c.006-.007.016-.009.024-.016l1.28-1.28c.16-.16.438-.16.597 0l.509.507a1.806 1.806 0 0 0 2.493 0l.55-.548a.431.431 0 0 1 .595 0l.549.548a1.767 1.767 0 0 0 2.495 0l.548-.548a.422.422 0 0 1 .597 0l1.32 1.321c.009.007.018.01.025.016v.306H1.961v-.306m.894-4.38h9.794c.485 0 .894.41.894.894v1.597l-.396-.397a1.807 1.807 0 0 0-2.494 0l-.55.549a.434.434 0 0 1-.596 0l-.549-.549a1.806 1.806 0 0 0-2.494 0l-.549.549a.43.43 0 0 1-.595 0l-.509-.509a1.765 1.765 0 0 0-2.494 0l-.356.357V5.236c0-.484.409-.895.894-.895"/>
</svg>
