<svg xmlns="http://www.w3.org/2000/svg" viewBox="0 0 16 16">
    <path fill="#000" fill-rule="evenodd" d="M15.496 12.3l-2.47-3.08.01-.27c0-.06.02-.11.06-.15l1.05-1.11c.52-.55.52-1.42 0-1.97l-1.05-1.11a.204.204 0 0 1-.06-.15l-.04-1.53c-.02-.75-.63-1.36-1.39-1.38l-1.62-.05L8.816.39c-.55-.52-1.41-.52-1.96 0l-1.11 1.05a.24.24 0 0 1-.15.06l-1.53.05c-.76.02-1.37.63-1.39 1.38l-.04 1.53c-.01.06-.03.11-.07.15l-1.05 1.11c-.52.55-.52 1.42 0 1.97l1.05 1.11c.04.04.06.09.07.15l.02.67-2.15 2.68a.63.63 0 0 0-.09.62c.09.2.28.34.5.36l2.22.18.66 2.12a.586.586 0 0 0 .57.42c.18 0 .35-.08.47-.22l2.14-2.67c.25.2.55.3.86.3.35 0 .7-.13.98-.39l.08-.07 2.27 2.83c.11.14.29.22.47.22.03 0 .07 0 .11-.01a.6.6 0 0 0 .46-.41l.66-2.12 2.21-.18a.605.605 0 0 0 .42-.98m-7.36-.29l-.15.14c-.07.07-.18.08-.27.03-.02-.01-.03-.02-.04-.03l-1.11-1.05c-.26-.24-.59-.38-.94-.39l-1.53-.04a.238.238 0 0 1-.22-.23l-.05-1.53c0-.2-.05-.4-.14-.58-.06-.13-.14-.25-.24-.36l-1.06-1.11a.23.23 0 0 1 0-.31l1.05-1.11c.25-.26.39-.59.39-.94l.05-1.53c0-.12.1-.22.22-.22l1.53-.05c.35-.01.68-.15.94-.39l1.11-1.05c.05-.04.1-.06.16-.06.05 0 .11.02.15.06l1.35 1.27c.1.1.24.16.39.16l1.85.06c.12 0 .21.1.22.22l.04 1.53c.01.35.15.68.39.94l1.05 1.11c.08.09.08.22 0 .31l-1.05 1.11c-.04.04-.07.08-.1.13-.18.23-.28.51-.29.81l-.04 1.53c-.01.12-.1.22-.22.23l-1.53.04c-.35.01-.69.15-.94.39l-.97.91m2.784-5.304a3.09 3.09 0 0 0-6.172 0 3.09 3.09 0 0 0 6.172 0M7.834 8.592a1.888 1.888 0 1 1 .004-3.776 1.888 1.888 0 0 1-.004 3.776"/>
</svg>
