<svg xmlns="http://www.w3.org/2000/svg" viewBox="0 0 17 17">
    <path d="M.48 15.9a.599.599 0 0 1-.467-.709l.497-2.418a.65.65 0 0 1 .05-.146 1.896 1.896 0 0 1 1.069-.947l2.97-1.06a.11.11 0 0 0 .073-.102v-.434a.76.76 0 0 0-.28-.588 3.198 3.198 0 0 1-1.172-2.47V5.782a3.222 3.222 0 0 1 6.437 0v1.246c0 .95-.425 1.847-1.167 2.462a.787.787 0 0 0-.284.604v.425c0 .045.028.086.07.101l2.973 1.06c.466.166.846.503 1.068.947.022.048.04.097.05.147l.497 2.418a.599.599 0 0 1-.588.723S.806 15.966.48 15.9zm14.92-1.549a.6.6 0 0 1-.587-.479l-.48-2.331a.708.708 0 0 0-.364-.294l-2.97-1.059a1.31 1.31 0 0 1-.87-1.232v-.424c0-.593.263-1.15.719-1.529.466-.385.733-.946.733-1.539V4.219A2.02 2.02 0 0 0 8.89 2.316a.599.599 0 1 1-.404-1.13 3.222 3.222 0 0 1 4.295 3.033v1.245c0 .951-.425 1.849-1.167 2.463a.785.785 0 0 0-.284.605v.424c0 .046.028.086.07.102l2.973 1.06c.467.166.846.503 1.068.946.022.047.04.096.05.147l.497 2.418a.599.599 0 0 1-.588.722z"/>
</svg>
