<svg xmlns="http://www.w3.org/2000/svg" viewBox="0 0 16 16">
    <path fill="#000" fill-rule="evenodd" d="M10.344 11.438c.437.229.823.53 1.156.906.333.333.5.74.5 1.219a4.784 4.784 0 0 1-.172 1.234 2.953 2.953 0 0 1-.312.765A.905.905 0 0 1 11 16H1a.897.897 0 0 1-.516-.453 3.285 3.285 0 0 1-.312-.766 4.433 4.433 0 0 1-.14-.765C.01 13.776 0 13.625 0 13.562c0-.479.167-.885.5-1.218a4.074 4.074 0 0 1 1.188-.906 8.77 8.77 0 0 1 1.468-.626c.271-.062.516-.12.735-.171.218-.052.421-.089.609-.11a1.458 1.458 0 0 0-.11-.234 35.58 35.58 0 0 0-.202-.36 6.903 6.903 0 0 1-.5-1.093 12.36 12.36 0 0 1-.47-1.563A8.577 8.577 0 0 1 3 5.22c0-.23.02-.443.063-.64A5.24 5.24 0 0 1 3.219 4a3.09 3.09 0 0 1 1.11-1.39A2.726 2.726 0 0 1 6 2.093 2.726 2.726 0 0 1 8.124 3c.27.27.49.604.656 1 .063.188.115.38.156.578.042.198.063.412.063.64 0 .792-.073 1.48-.219 2.063a12.36 12.36 0 0 1-.937 2.657 35.58 35.58 0 0 0-.203.359 1.458 1.458 0 0 0-.11.234c.188.021.39.058.61.11.218.052.463.109.734.171a7.314 7.314 0 0 1 1.469.626zm5.281-2.907c.25.25.375.531.375.844 0 .167-.031.385-.094.656-.062.271-.125.469-.187.594a.72.72 0 0 1-.297.375.794.794 0 0 1-.422.125h-2.5a3.628 3.628 0 0 0-.36-.656 4.118 4.118 0 0 0-.515-.656 92.683 92.683 0 0 0-1.25-.688A12.222 12.222 0 0 0 11 5.219a5.25 5.25 0 0 0-.563-2.438A7.396 7.396 0 0 0 9.75 1.75a4.058 4.058 0 0 0-.875-.813A2.737 2.737 0 0 1 11 0c.396 0 .781.083 1.156.25a2.958 2.958 0 0 1 1.781 2.266 2.95 2.95 0 0 1 .016 1.125l-.11.609c-.062.208-.13.411-.202.61-.073.197-.141.4-.204.609a3.323 3.323 0 0 0-.25.562 4.05 4.05 0 0 1-.218.532A3.43 3.43 0 0 0 12.78 7c-.041.125-.083.24-.125.344.25.041.552.104.906.187.417.104.792.24 1.126.407.374.166.687.364.937.593z"/>
</svg>
