<svg xmlns="http://www.w3.org/2000/svg" viewBox="0 0 17 16">
    <path d="M13.193 10.353a2.824 2.824 0 1 1 0 5.647 2.824 2.824 0 0 1 0-5.647zM7.547 0a3.57 3.57 0 0 1 3.566 3.566v1.429a3.543 3.543 0 0 1-1.292 2.728 1.02 1.02 0 0 0-.371.788V9c0 .103.066.197.164.232l1.784.636a3.78 3.78 0 0 0-1.036.829l-1.128-.401a1.38 1.38 0 0 1-.914-1.296V8.51c0-.643.285-1.247.78-1.657.56-.466.884-1.144.884-1.86V3.567a2.44 2.44 0 0 0-4.875 0v1.429c0 .718.325 1.397.89 1.862.493.407.775 1.007.775 1.644v.497c0 .58-.367 1.1-.914 1.296L2.453 11.51a.931.931 0 0 0-.493.406l-.553 2.693A.565.565 0 0 1 .3 14.38l.57-2.772a.58.58 0 0 1 .048-.138c.24-.48.65-.844 1.155-1.025L5.48 9.23a.247.247 0 0 0 .165-.232V8.5c0-.3-.133-.581-.365-.772a3.536 3.536 0 0 1-1.3-2.734V3.566A3.57 3.57 0 0 1 7.547 0zm3.764 13.176a1.882 1.882 0 0 0 2.93 1.565l-2.612-2.612c-.2.3-.318.66-.318 1.047zm1.882-1.882c-.357 0-.691.1-.976.273l2.586 2.586a1.882 1.882 0 0 0-1.61-2.859z"/>
</svg>
