<svg xmlns="http://www.w3.org/2000/svg" viewBox="0 0 16 16">
    <path d="M6 1.5a3.001 3.001 0 0 1 2.941 2.407l-.001-.008 5.46.001a.6.6 0 0 1 0 1.2l-5.46.001.004-.022a3.001 3.001 0 0 1-5.888 0l.004.022L1.6 5.1a.6.6 0 1 1 0-1.2h1.46A2.999 2.999 0 0 1 6 1.5zm0 1.2a1.8 1.8 0 1 0 0 3.6 1.8 1.8 0 0 0 0-3.6zm4 5.8a3.001 3.001 0 0 0-2.941 2.407l.001-.008-5.46.001a.6.6 0 0 0 0 1.2l5.46.001-.004-.022a3.001 3.001 0 0 0 5.888 0l-.004.022 1.46-.001a.6.6 0 0 0 0-1.2h-1.46A2.999 2.999 0 0 0 10 8.5zm0 1.2a1.8 1.8 0 1 1 0 3.6 1.8 1.8 0 0 1 0-3.6z"/>
</svg>
