<svg xmlns="http://www.w3.org/2000/svg" viewBox="0 0 20 20">
    <path fill="#000" fill-rule="evenodd" d="M16.267,14.5506 L4.6,14.5506 C4.269,14.5506 4,14.2816 4,13.9506 C4,13.6196 4.269,13.3516 4.6,13.3516 L16.267,13.3516 C16.599,13.3516 16.867,13.6196 16.867,13.9506 C16.867,14.2816 16.599,14.5506 16.267,14.5506 L16.267,14.5506 Z M16.267,10.3665 L4.6,10.3665 C4.269,10.3665 4,10.0975 4,9.7665 C4,9.4345 4.269,9.1665 4.6,9.1665 L16.267,9.1665 C16.599,9.1665 16.867,9.4345 16.867,9.7665 C16.867,10.0975 16.599,10.3665 16.267,10.3665 L16.267,10.3665 Z M16.267,6.2 L4.6,6.2 C4.269,6.2 4,5.931 4,5.6 C4,5.268 4.269,5 4.6,5 L16.267,5 C16.599,5 16.867,5.268 16.867,5.6 C16.867,5.931 16.599,6.2 16.267,6.2 L16.267,6.2 Z"/>
</svg>
