<svg xmlns="http://www.w3.org/2000/svg" viewBox="0 0 16 16">
    <path d="M10 8.5a2.999 2.999 0 0 1 2.94 2.4h1.46a.6.6 0 0 1 0 1.2l-1.46.001-.034.149a3.001 3.001 0 0 1-5.85-.171l.004.022L1.6 12.1a.6.6 0 0 1 0-1.2l5.46-.001.038-.162A3.002 3.002 0 0 1 9.82 8.505zm0 1.2a1.8 1.8 0 1 0 0 3.6 1.8 1.8 0 0 0 0-3.6zM6 1.5c1.393 0 2.565.95 2.902 2.237l.037.162L14.4 3.9a.6.6 0 0 1 0 1.2l-5.46.001.004-.022a3.001 3.001 0 0 1-5.85.17l-.034-.148L1.6 5.1a.6.6 0 1 1 0-1.2h1.46A2.999 2.999 0 0 1 6 1.5zm0 1.2a1.8 1.8 0 1 0 0 3.6 1.8 1.8 0 0 0 0-3.6z"/>
</svg>
