<svg xmlns="http://www.w3.org/2000/svg" viewBox="0 0 20 20">
    <path fill="#000" fill-rule="evenodd" d="M5,16.267 L5,4.6 C5,4.269 5.269,4 5.6,4 C5.931,4 6.199,4.269 6.199,4.6 L6.199,16.267 C6.199,16.599 5.931,16.867 5.6,16.867 C5.269,16.867 5,16.599 5,16.267 L5,16.267 L5,16.267 L5,16.267 Z M9.1841,16.267 L9.1841,4.6 C9.1841,4.269 9.4531,4 9.7841,4 C10.1161,4 10.3841,4.269 10.3841,4.6 L10.3841,16.267 C10.3841,16.599 10.1161,16.867 9.7841,16.867 C9.4531,16.867 9.1841,16.599 9.1841,16.267 L9.1841,16.267 L9.1841,16.267 L9.1841,16.267 Z M13.3506,16.267 L13.3506,4.6 C13.3506,4.269 13.6196,4 13.9506,4 C14.2826,4 14.5506,4.269 14.5506,4.6 L14.5506,16.267 C14.5506,16.599 14.2826,16.867 13.9506,16.867 C13.6196,16.867 13.3506,16.599 13.3506,16.267 L13.3506,16.267 L13.3506,16.267 L13.3506,16.267 Z"/>
</svg>
