<svg xmlns="http://www.w3.org/2000/svg" viewBox="0 0 16 17">
    <path d="M4.107 6.208h7.785a.6.6 0 0 0 0-1.2H4.107a.6.6 0 1 0 0 1.2zm-.054 3.6h7.893a.6.6 0 0 0 0-1.2H4.053a.6.6 0 1 0 0 1.2zM14 1H2C.9 1 0 1.9 0 3V12.2a1.6 1.6 0 0 0 1.6 1.6h3.95l2.021 2.112a.809.809 0 0 0 .885-.01l1.918-2.102H14c1.1 0 2-.9 2-2V3c0-1.1-.9-2-2-2m0 1.2c.434 0 .8.366.8.8v8.8a.81.81 0 0 1-.8.8h-3.626c-.337 0-.659.142-.887.391L8 14.622 6.417 12.97a1.2 1.2 0 0 0-.867-.37H1.6a.4.4 0 0 1-.4-.4V3c0-.434.366-.8.8-.8h12"/>
</svg>
