<svg xmlns="http://www.w3.org/2000/svg" viewBox="0 0 17 17">
    <path d="M13.373 8.793c0 .308.104.555.338.789.234.233.481.338.789.338.308 0 .555-.105.79-.338.233-.234.337-.481.337-.79 0-.307-.104-.555-.338-.789a1.052 1.052 0 0 0-.789-.338c-.308 0-.555.105-.79.338a1.052 1.052 0 0 0-.337.79zm-.873 0c0-.542.198-1.01.594-1.407a1.922 1.922 0 0 1 1.406-.593c.542 0 1.01.197 1.406.593.396.396.594.865.594 1.407 0 .541-.198 1.01-.594 1.406a1.922 1.922 0 0 1-1.406.594c-.542 0-1.01-.198-1.406-.594a1.922 1.922 0 0 1-.594-1.406zm-5.127 0c0 .308.104.555.338.789.234.233.481.338.789.338.308 0 .555-.105.79-.338.233-.234.337-.481.337-.79 0-.307-.104-.555-.338-.789a1.052 1.052 0 0 0-.789-.338c-.308 0-.555.105-.79.338a1.052 1.052 0 0 0-.337.79zm-.873 0c0-.542.198-1.01.594-1.407A1.922 1.922 0 0 1 8.5 6.793c.542 0 1.01.197 1.406.593.396.396.594.865.594 1.407 0 .541-.198 1.01-.594 1.406a1.922 1.922 0 0 1-1.406.594c-.542 0-1.01-.198-1.406-.594A1.922 1.922 0 0 1 6.5 8.793zm-2.873 0c0-.308-.104-.556-.338-.79a1.052 1.052 0 0 0-.789-.338c-.308 0-.555.105-.79.338a1.052 1.052 0 0 0-.337.79c0 .308.104.555.338.789.234.233.481.338.789.338.308 0 .555-.105.79-.338.233-.234.337-.481.337-.79zm.873 0c0 .541-.198 1.01-.594 1.406a1.922 1.922 0 0 1-1.406.594c-.542 0-1.01-.198-1.406-.594A1.922 1.922 0 0 1 .5 8.793c0-.542.198-1.01.594-1.407A1.922 1.922 0 0 1 2.5 6.793c.542 0 1.01.197 1.406.593.396.396.594.865.594 1.407z"/>
</svg>
