<svg xmlns="http://www.w3.org/2000/svg" viewBox="0 0 20 20">
    <path fill="#000" fill-rule="evenodd" d="M3,9.6 C3,8.716 3.716,8 4.6,8 C5.484,8 6.2,8.716 6.2,9.6 C6.2,10.484 5.484,11.2 4.6,11.2 C3.716,11.2 3,10.484 3,9.6 L3,9.6 L3,9.6 L3,9.6 Z M8.0012,9.6008 C8.0012,8.7168 8.7172,8.0008 9.6012,8.0008 C10.4852,8.0008 11.2012,8.7168 11.2012,9.6008 C11.2012,10.4848 10.4852,11.2008 9.6012,11.2008 C8.7172,11.2008 8.0012,10.4848 8.0012,9.6008 L8.0012,9.6008 L8.0012,9.6008 L8.0012,9.6008 Z M13.002,9.6008 C13.002,8.7168 13.718,8.0008 14.602,8.0008 C15.486,8.0008 16.202,8.7168 16.202,9.6008 C16.202,10.4848 15.486,11.2008 14.602,11.2008 C13.718,11.2008 13.002,10.4848 13.002,9.6008 L13.002,9.6008 L13.002,9.6008 L13.002,9.6008 Z"/>
</svg>
