<svg xmlns="http://www.w3.org/2000/svg" viewBox="0 0 20 20">
    <path fill="#000" fill-rule="evenodd" d="M7.37 14.96l2.25 3a.6.6 0 0 0 .96 0l2.25-3a.6.6 0 0 0-.48-.96h-4.5a.6.6 0 0 0-.48.96m3.772.251l-1.035 1.399-1.048-1.398h2.083m3.818-2.382l3-2.25a.6.6 0 0 0 0-.96l-3-2.25a.6.6 0 0 0-.96.48v4.5a.6.6 0 0 0 .96.48m.26-3.766l1.382 1.034-1.368 1.026-.015-2.06M12.83 5.24l-2.25-3a.6.6 0 0 0-.96 0l-2.25 3a.6.6 0 0 0 .48.96h4.5a.6.6 0 0 0 .48-.96m-3.776-.246l1.055-1.382 1.058 1.41-2.113-.028M5.24 7.37l-3 2.25a.6.6 0 0 0 0 .96l3 2.25a.6.6 0 0 0 .96-.48v-4.5a.6.6 0 0 0-.96-.48m-.225 3.79L3.61 10.093 5 9.05l.015 2.11"/>
</svg>
