<svg xmlns="http://www.w3.org/2000/svg" viewBox="0 0 16 16">
    <path d="M5.37 12.96l2.25 3a.6.6 0 0 0 .96 0l2.25-3a.6.6 0 0 0-.48-.96h-4.5a.6.6 0 0 0-.48.96m3.772.251L8.107 14.61 7.06 13.212h2.083m3.818-2.382l3-2.25a.6.6 0 0 0 0-.96l-3-2.25a.6.6 0 0 0-.96.48v4.5a.6.6 0 0 0 .96.48m.26-3.766l1.382 1.034-1.368 1.026-.015-2.06M10.83 3.24l-2.25-3a.6.6 0 0 0-.96 0l-2.25 3a.6.6 0 0 0 .48.96h4.5a.6.6 0 0 0 .48-.96m-3.776-.246L8.11 1.612l1.058 1.41-2.113-.028M3.24 5.37l-3 2.25a.6.6 0 0 0 0 .96l3 2.25a.6.6 0 0 0 .96-.48v-4.5a.6.6 0 0 0-.96-.48m-.225 3.79L1.61 8.093 3 7.05l.015 2.11"/>
</svg>
