<svg xmlns="http://www.w3.org/2000/svg" viewBox="0 0 16 16">
    <path d="M7.03 14.52c.277 0 .501.23.501.5v.477c0 .276-.215.5-.502.5L1.875 16c-.52 0-.964-.194-1.328-.58A1.983 1.983 0 0 1 0 14.007V1.992C0 1.438.182.968.547.58.91.194 1.354 0 1.875 0h11.313c.52 0 .963.194 1.328.58.364.388.546.858.546 1.412l-.002 3.524c0 .272-.219.492-.505.492h-.39a.5.5 0 0 1-.505-.503V2.477c0-.556-.45-1.007-1.003-1.007H2.403c-.554 0-1.003.45-1.003 1.002v11.046c0 .553.44 1.002.999 1.002h4.63zm5.5.134c.19.193.345.13.345-.156v-1.42h2.623a.502.502 0 0 0 .502-.492v-2.168a.504.504 0 0 0-.502-.498l-2.623-.028V8.497c0-.274-.158-.338-.358-.137l-2.753 2.766a.509.509 0 0 0-.012.71l2.778 2.818z"/>
</svg>
