<svg xmlns="http://www.w3.org/2000/svg" viewBox="0 0 16 16">
    <path d="M4.282 11.274a.67.67 0 0 1 .936 0 .66.66 0 0 1 0 .945l-2.22 2.173a.667.667 0 0 1-.936 0l-1.196-1.17a.66.66 0 0 1 0-.946.67.67 0 0 1 .935 0l.733.718zm9.97 1.103c.306 0 .554.28.554.625s-.248.625-.553.625H7.025c-.305 0-.553-.28-.553-.625s.248-.625.553-.625h7.228zm-11.718.617L2.53 13l.35.332-.346-.338zm1.748-6.72a.67.67 0 0 1 .936 0 .66.66 0 0 1 0 .945l-2.22 2.173a.667.667 0 0 1-.936 0L.866 8.223a.66.66 0 0 1 0-.946.67.67 0 0 1 .935 0l.733.718zm9.97 1.099c.306 0 .554.28.554.625s-.248.625-.553.625H7.025c-.305 0-.553-.28-.553-.625s.248-.625.553-.625h7.228zm-11.718.621L2.53 8l.35.332-.346-.338zm1.748-6.72a.67.67 0 0 1 .936 0 .66.66 0 0 1 0 .945l-2.22 2.173a.667.667 0 0 1-.936 0L.866 3.223a.66.66 0 0 1 0-.946.67.67 0 0 1 .935 0l.733.718zm9.97 1.098c.306 0 .554.28.554.625s-.248.625-.553.625H7.025c-.305 0-.553-.28-.553-.625s.248-.625.553-.625h7.228zm-11.718.622L2.53 3l.35.332-.346-.338z"/>
</svg>
