<svg xmlns="http://www.w3.org/2000/svg" viewBox="0 0 16 16">
    <path d="M14.253 13.627H7.025c-.305 0-.553-.28-.553-.625s.248-.625.553-.625h7.228c.305 0 .553.28.553.625s-.248.625-.553.625zm0-5.004H7.025c-.305 0-.553-.28-.553-.625s.248-.625.553-.625h7.228c.305 0 .553.28.553.625s-.248.625-.553.625zM2.998 4.392a.667.667 0 0 1-.936 0L.866 3.223a.66.66 0 0 1 0-.946.67.67 0 0 1 .935 0l1.078 1.056L2.53 3l1.753-1.726a.67.67 0 0 1 .936 0 .66.66 0 0 1 0 .945l-2.22 2.173zm0 5a.667.667 0 0 1-.936 0L.866 8.223a.66.66 0 0 1 0-.946.67.67 0 0 1 .935 0l1.078 1.056L2.53 8l1.753-1.726a.67.67 0 0 1 .936 0 .66.66 0 0 1 0 .945l-2.22 2.173zm0 5a.667.667 0 0 1-.936 0l-1.196-1.17a.66.66 0 0 1 0-.946.67.67 0 0 1 .935 0l1.078 1.056L2.53 13l1.753-1.726a.67.67 0 0 1 .936 0 .66.66 0 0 1 0 .945l-2.22 2.173zm11.255-10.77H7.025c-.305 0-.553-.28-.553-.625s.248-.625.553-.625h7.228c.305 0 .553.28.553.625s-.248.625-.553.625z"/>
</svg>
