<svg xmlns="http://www.w3.org/2000/svg" viewBox="0 0 16 16">
    <path d="M14.253 13.627H7.025c-.305 0-.553-.28-.553-.625s.248-.625.553-.625h7.228c.305 0 .553.28.553.625s-.248.625-.553.625zm0-5.004H7.025c-.305 0-.553-.28-.553-.625s.248-.625.553-.625h7.228c.305 0 .553.28.553.625s-.248.625-.553.625zM2.998 4.392l2.22-2.173a.66.66 0 0 0 0-.945.67.67 0 0 0-.936 0L2.53 3l.35.332L1.8 2.276a.67.67 0 0 0-.934 0 .66.66 0 0 0 0 .946l1.196 1.17a.666.666 0 0 0 .936 0zm0 5l2.22-2.173a.66.66 0 0 0 0-.945.67.67 0 0 0-.936 0L2.53 8l.35.332L1.8 7.276a.67.67 0 0 0-.934 0 .66.66 0 0 0 0 .946l1.196 1.17a.666.666 0 0 0 .936 0zm0 5l2.22-2.173a.66.66 0 0 0 0-.945.67.67 0 0 0-.936 0L2.53 13l.35.332-1.08-1.056a.67.67 0 0 0-.934 0 .66.66 0 0 0 0 .946l1.196 1.17a.666.666 0 0 0 .936 0zm11.255-10.77H7.025c-.305 0-.553-.28-.553-.625s.248-.625.553-.625h7.228c.305 0 .553.28.553.625s-.248.625-.553.625z"/>
</svg>
