<svg xmlns="http://www.w3.org/2000/svg" viewBox="0 0 20 20">
    <path fill="#000" fill-rule="evenodd" d="M12.69 15.412H5.36a4.029 4.029 0 0 0 .662-2.223V9.418c0-.21.025-.413.06-.613l-.984-.984a4.897 4.897 0 0 0-.276 1.597v3.77a2.848 2.848 0 0 1-.528 1.656l-.455.64a.715.715 0 0 0 .582 1.128h3.402a2.138 2.138 0 0 0 3.997 0h2.07m2.58-.814l-1.358-1.357a2.866 2.866 0 0 1-.292-1.253v-3.77a5 5 0 0 0-3.58-4.768 1.666 1.666 0 1 0-2.709-.039 4.993 4.993 0 0 0-2.093 1.155L4.024 3.353a.6.6 0 1 0-.85.848l12.446 12.445a.601.601 0 0 0 .848-.848M7.284 6.612a3.772 3.772 0 0 1 2.538-.993 3.803 3.803 0 0 1 3.8 3.799v3.531L7.282 6.612m2.151-2.946a.467.467 0 0 1 .934 0 .466.466 0 0 1-.934 0"/>
</svg>
