<svg xmlns="http://www.w3.org/2000/svg" viewBox="0 0 16 16">
    <path d="M3.336 14.996c-.163-.164-.544-.327-.599-.573-.027-.246.245-.737.463-.791 2.613-.464 4.546-2.21 6.615-3.684.082-.055.19-.164.272-.191.218-.028.436.027.653.027-.054.19-.054.464-.163.573-.599.573-1.252 1.064-1.824 1.637-1.36 1.337-3.076 2.129-4.818 2.838-.136.055-.272.082-.599.164m4.982-1.828c.762.027 1.47.19 2.15.082 1.062-.164 1.797-.928 2.232-1.883.545-1.147 0-2.047-1.252-2.184a.71.71 0 0 1-.435-.3c-.545-.791-1.062-.846-1.824-.245a65.802 65.802 0 0 1-3.893 2.92 7.249 7.249 0 0 1-2.34.927c-.246.082-.627-.272-.953-.463.244-.219.462-.628.734-.683 2.178-.382 3.811-1.773 5.58-2.947.11-.082.082-.355.191-.491.164-.246.354-.682.545-.682 1.28 0 2.586-.028 3.675.928a3.47 3.47 0 0 1-.409 5.648 9.8 9.8 0 0 1-1.932.955c-1.198.437-2.042-.245-2.07-1.582m.736-8.787c-.871.054-1.715.136-2.586.136-.218 0-.463-.273-.68-.437.217-.19.435-.518.68-.545.844-.055 1.715 0 2.559-.028.462-.027 1.034-.163 1.034.492 0 .19-.572.382-.898.573l-.11-.191M6.196 7.137c-.899-.055-1.688.027-2.205-.873-.327-.574-.518-3.03-.164-3.548.136-.164.381-.327.545-.3.163.027.38.3.38.491.055.519-.026 1.037 0 1.555.028 1.037.572 1.529 1.525 1.474 1.361-.082 2.722-.164 4.056-.273.871-.054 1.252-.518 1.143-1.364-.217-1.747-.653-2.183-2.422-2.156-1.062 0-2.096.164-3.158.19-.327.028-.653-.19-.953-.327.245-.245.49-.627.79-.71 1.796-.463 3.62-.327 5.39.192.49.136 1.007.71 1.197 1.228.245.737.273 1.583.3 2.401.027.928-.545 1.556-1.47 1.61-.953.082-1.933.082-2.913.137-.218 0-.517.082-.626.246-1.089 1.61-2.722 2.292-4.546 2.565-.3.054-.68-.137-1.007-.273-.054-.027-.082-.437-.027-.464.326-.137.68-.3 1.007-.3 1.28-.055 2.26-.655 3.158-1.501"/>
</svg>
