<svg xmlns="http://www.w3.org/2000/svg" viewBox="0 0 16 16">
    <path fill="#000" fill-rule="evenodd" d="M13.698 3.814c0-1.1-.9-2-2-2h-1.193v-.762a.6.6 0 0 0-1.201 0v.762h-4.91v-.762a.6.6 0 1 0-1.201 0v.762H2c-1.1 0-2 .9-2 2v9.698c0 1.1.9 2 2 2h6.955c.33 0 .6-.27.6-.6 0-.33-.27-.6-.6-.6H2a.81.81 0 0 1-.8-.8V6.423h11.298l-.001 1.773c0 .33.27.6.6.6.33 0 .6-.27.6-.6l.001-4.382M1.2 5.224v-1.41c0-.434.366-.8.8-.8h1.193v.326a.6.6 0 0 0 1.201 0v-.326h4.91v.326a.6.6 0 1 0 1.201 0v-.326h1.193c.434 0 .8.366.8.8v1.41H1.2m14.197 6.856h-1.7v-1.7a.6.6 0 1 0-1.2 0v1.7h-1.7a.6.6 0 1 0 0 1.2h1.7v1.7a.6.6 0 1 0 1.2 0v-1.7h1.7a.599.599 0 1 0 0-1.2"/>
</svg>
