<svg xmlns="http://www.w3.org/2000/svg" viewBox="0 0 16 16">
    <path d="M8 0a8.005 8.005 0 0 1 8 8c0 4.411-3.589 8-8 8-.121 0-.233 0-.354-.011A7.968 7.968 0 0 1 0 8c0-4.411 3.589-8 8-8zm0 1.2C4.25 1.2 1.2 4.25 1.2 8a6.778 6.778 0 0 0 6.52 6.792c.113.009.194.008.28.009 3.75 0 6.8-3.051 6.8-6.801 0-.125 0-.249-.007-.374A6.805 6.805 0 0 0 8 1.2zM3.693 6c.13.205.261.428.392.668a43.285 43.285 0 0 1 .724 1.411c.106.224.195.42.27.588V6h.777v4.333h-.693a25.11 25.11 0 0 0-1.386-2.877v2.877H3V6h.693zm5.551 0v.714H7.48v.973h1.533v.714H7.48v1.218h1.918v.714H6.619V6h2.625zm1.393 0a794.536 794.536 0 0 0-.049 3.367 31.53 31.53 0 0 0 .434-1.491l.098-.343h.63c.019.089.047.198.084.329a77.809 77.809 0 0 1 .27.945c.053.182.106.369.157.56a46.604 46.604 0 0 0-.021-1.631A2306.885 2306.885 0 0 1 12.219 6h.798a497.866 497.866 0 0 0-.091 2.216 52.183 52.183 0 0 1-.154 2.117h-.714a24.19 24.19 0 0 1-.308-.949 37.541 37.541 0 0 0-.308-.969 45.468 45.468 0 0 0-.63 1.918h-.714A53.16 53.16 0 0 1 9.839 6h.798z"/>
</svg>
