<svg xmlns="http://www.w3.org/2000/svg" viewBox="0 0 16 16">
    <path d="M14.8 2.2H1.2v11.1h13.6V2.2zm1.2-.6v12.3a.6.6 0 0 1-.6.6H.6a.6.6 0 0 1-.6-.6V1.6A.6.6 0 0 1 .6 1h14.8a.6.6 0 0 1 .6.6zM8.6 5.594v.673a.6.6 0 0 1-.6.6c-2.273 0-3.38.777-3.808 2.156C5.135 8.236 6.255 8.022 8 8.02a.6.6 0 0 1 .6.6v.673l2.907-1.85L8.6 5.594zm-1.2.091V4.501a.6.6 0 0 1 .922-.506l4.625 2.943a.6.6 0 0 1 0 1.012l-4.625 2.944a.6.6 0 0 1-.922-.507V9.231c-1.794.065-2.555.481-3.512 2.057-.315.518-1.113.295-1.113-.312 0-.943.042-1.496.23-2.172.512-1.826 1.91-2.964 4.395-3.119z"/>
</svg>
