<svg xmlns="http://www.w3.org/2000/svg" viewBox="0 0 16 16">
    <path d="M8 0a7.977 7.977 0 0 1 5.672 2.328A7.977 7.977 0 0 1 16 8c0 1.104-.208 2.14-.625 3.11a8.214 8.214 0 0 1-1.703 2.546A7.897 7.897 0 0 1 8 16a7.785 7.785 0 0 1-3.11-.625 8.08 8.08 0 0 1-4.265-4.266A7.785 7.785 0 0 1 0 8a7.897 7.897 0 0 1 2.344-5.672A8.214 8.214 0 0 1 4.89.625 7.785 7.785 0 0 1 8 0zM4.969 5.938h-.844v2.75h-.031l-1.719-2.75H1.5v4.093h.844v-2.75l1.719 2.75h.906V5.937zM8.875 9.28H6.656v-1h2v-.719h-2v-.875h2.188v-.75H5.75v4.094h3.125v-.75zM14.5 5.937h-.875l-.656 2.813h-.031l-.688-2.813h-.844l-.719 2.782h-.03l-.626-2.781h-.906l1.063 4.093h.937l.688-2.781.687 2.781h.906L14.5 5.937z"/>
</svg>
