<svg xmlns="http://www.w3.org/2000/svg" viewBox="0 0 20 20">
    <path fill="#000" fill-rule="evenodd" d="M10 18c-.12 0-.233 0-.354-.01A7.968 7.968 0 0 1 2 10a8.005 8.005 0 1 1 16 0c0 4.411-3.589 8-8 8m0-14.8c-3.75 0-6.8 3.05-6.8 6.8a6.778 6.778 0 0 0 6.52 6.792c.113.01.194.008.28.01 3.75 0 6.8-3.052 6.8-6.802 0-.125 0-.249-.007-.374A6.805 6.805 0 0 0 10 3.2M7.946 9.284A1.57 1.57 0 1 1 8.03 6.14a1.574 1.574 0 0 1 .967 2.741c-.3.27-.676.402-1.05.402m0-1.945a.374.374 0 0 0-.374.353.375.375 0 0 0 .353.393.428.428 0 0 0 .27-.095.373.373 0 0 0-.25-.651m4.11 6.521a1.565 1.565 0 0 1-1.572-1.656 1.575 1.575 0 1 1 2.622 1.255v.001c-.3.268-.676.4-1.05.4m0-1.945a.373.373 0 1 0 0 0m-3.617 2.451a.6.6 0 0 1-.554-.83l3.124-7.532a.599.599 0 1 1 1.108.46l-3.124 7.531a.6.6 0 0 1-.554.371"/>
</svg>
