<svg xmlns="http://www.w3.org/2000/svg" viewBox="0 0 17 16">
    <path d="M11.152.794H4.849c-.6 0-1.151.315-1.441.825L.212 7.205a1.602 1.602 0 0 0 0 1.59l3.196 5.587c.29.508.842.824 1.44.824h6.304c.599 0 1.15-.316 1.44-.824l3.197-5.586a1.602 1.602 0 0 0 0-1.591l-3.196-5.587a1.656 1.656 0 0 0-1.441-.824zm0 1.2c.169 0 .322.085.4.22L14.747 7.8a.4.4 0 0 1 0 .399l-3.195 5.587a.458.458 0 0 1-.4.218H4.849a.458.458 0 0 1-.4-.219L1.253 8.2a.405.405 0 0 1 0-.4l3.196-5.587a.458.458 0 0 1 .4-.219h6.303zM8 4.668a3.333 3.333 0 1 0 0 6.665 3.333 3.333 0 0 0 0-6.665m0 1.2a2.136 2.136 0 1 1-.005 4.27A2.136 2.136 0 0 1 8 5.868"/>
</svg>
