<svg xmlns="http://www.w3.org/2000/svg" viewBox="0 0 16 17">
    <path d="M9.977.75v.962h5.02c.553 0 1.003.45 1.003 1.003v12.03c0 .553-.45 1.002-1.004 1.002H9.977v1.003L0 15.006V2.454L9.748.75h.23zm5.02 1.965h-5.02V4.72h3.012v1.002H9.977v1.003h3.012v1.002H9.977V8.73h3.012v1.002H9.977v1.003h3.012v1.002H9.977v3.008h5.02V2.715zM7.975 5.722l-1.091.072-.637 3.951-.025.159-.019.161-.014.165-.009.167h-.013l-.016-.197-.017-.17-.02-.145-.02-.117-.728-3.875-1.03.067-.745 3.705-.03.169-.025.163-.017.158-.009.154-.017-.001-.009-.193-.013-.168-.014-.146-.017-.123-.556-3.623-.938.061 1.003 5.365 1.042.068.71-3.584.025-.138.02-.153.018-.166.015-.182h.012l.01.176.014.164.02.154.024.142.722 3.69 1.131.073 1.263-6.003z"/>
</svg>
