<svg xmlns="http://www.w3.org/2000/svg" viewBox="0 0 17 17">
    <path d="M10.007 14.71v2.004L.03 14.97V2.418L9.778.714h.23V2.68h5.018c.554 0 1.004.45 1.004 1.003v10.025c0 .553-.45 1.002-1.004 1.002h-5.019zm0-11.028v2.273c.296-.17.638-.268 1.004-.268v2.005h2.008a2.006 2.006 0 0 1-3.012 1.737v1.27h4.015v1.003h-4.015v2.005h5.02V3.682h-5.02zm2.008 1.002c1.11 0 2.007.897 2.007 2.005h-2.007V4.684zm-7.252.008l-2.339.136v7.792l1.474.084V9.961l.725.013c.212.004.415-.009.606-.038a2.433 2.433 0 0 0 1.463-.729 2.567 2.567 0 0 0 .714-1.414c.03-.187.047-.383.047-.589 0-.444-.058-.832-.174-1.16a1.948 1.948 0 0 0-.518-.806 2.012 2.012 0 0 0-.847-.45 3.647 3.647 0 0 0-1.151-.096zm-.865 3.909V6.12l.598-.023c.205-.007.384.012.539.058.155.046.286.12.39.22.106.102.185.23.237.385.053.157.08.34.08.55 0 .214-.027.403-.08.564a.965.965 0 0 1-.627.645c-.155.054-.334.08-.54.08l-.597.002z"/>
</svg>
