<svg xmlns="http://www.w3.org/2000/svg" viewBox="0 0 16 16">
    <path d="M9.977 13.995V16L0 14.256V1.704L9.748 0h.23v1.965h5.018c.554 0 1.004.449 1.004 1.002v10.025c0 .554-.45 1.003-1.004 1.003H9.977zm0-11.028V5.24c.296-.17.638-.268 1.004-.268v2.005h2.008a2.006 2.006 0 0 1-3.012 1.737v1.271h4.015v1.002H9.977v2.005h5.02V2.967h-5.02zm2.008 1.003c1.11 0 2.007.897 2.007 2.005h-2.007V3.97zm-7.252.008l-2.339.135v7.793l1.474.084V9.247l.725.013c.212.004.415-.009.606-.038a2.433 2.433 0 0 0 1.463-.729 2.567 2.567 0 0 0 .714-1.414c.03-.187.047-.383.047-.589 0-.444-.058-.832-.174-1.16a1.948 1.948 0 0 0-.518-.807 2.012 2.012 0 0 0-.847-.449 3.647 3.647 0 0 0-1.151-.096zm-.865 3.909V5.406l.598-.024c.205-.007.384.012.539.059.155.046.286.119.39.22.106.101.185.23.237.385.053.157.08.339.08.55 0 .214-.027.402-.08.564a.965.965 0 0 1-.627.645c-.155.054-.334.08-.54.08l-.597.002z"/>
</svg>
