<svg xmlns="http://www.w3.org/2000/svg" viewBox="0 0 16 17">
    <path d="M10 14.75v2L.003 15 0 2.5 10 .75v1h5a1 1 0 0 1 1 1v11a1 1 0 0 1-1 1h-5zm0-12v1h1v1h-1v1h1v1h-1v1h1v1h-1v1h1v1h-1v1h1v1h-1v1h5v-11h-5zm2 10v-1h2v1h-2zm0-2v-1h2v1h-2zm0-2v-1h2v1h-2zm0-2v-1h2v1h-2zm0-2v-1h2v1h-2zm-4.06.011l-1.737.1-1.057 2.335a16.512 16.512 0 0 0-.204.67h-.018a5.771 5.771 0 0 0-.194-.639l-.911-2.228-1.677.097 1.787 3.653-1.948 3.644 1.633.094 1.098-2.391.051-.166a3.964 3.964 0 0 0 .097-.363l.018.001c.013.063.024.122.036.175.011.054.023.102.033.144a2.249 2.249 0 0 0 .063.193l1.141 2.553L8 12.739 5.875 8.716 7.94 4.761z"/>
</svg>
