<svg xmlns="http://www.w3.org/2000/svg" viewBox="0 0 16 17">
    <path d="M9.977 15.803v1.003L0 15.06V2.51L9.748.806h.23v.962h5.018c.554 0 1.004.45 1.004 1.003V14.8c0 .553-.45 1.002-1.004 1.002H9.977zm0-13.032v2.005h3.012v1.002H9.977v1.003h3.012v1.002H9.977v1.003h3.012v1.002H9.977v1.003h3.012v1.002H9.977v3.008h5.02V2.77h-5.02zM7.976 5.778l-1.091.071-.637 3.952-.025.159-.019.161-.014.164-.009.168h-.013l-.016-.198-.017-.17-.02-.144-.02-.118-.728-3.874-1.03.067-.745 3.705-.03.168-.025.164-.017.157-.009.155-.017-.001-.009-.193-.013-.168-.014-.147-.017-.122-.556-3.623-.938.061 1.003 5.365 1.042.068.71-3.584.025-.139.02-.152.018-.166.015-.182h.012l.01.176.014.164.02.153.024.143.722 3.69 1.131.073 1.263-6.003z"/>
</svg>
