<svg xmlns="http://www.w3.org/2000/svg" viewBox="0 0 16 16">
    <path fill="#000" fill-rule="evenodd" d="M2.168 10.9a1.1 1.1 0 0 0-.758.261c-.21.175-.327.423-.354.739l.1.108h.46l.1-.09c.013-.149.059-.253.134-.319.073-.066.176-.099.322-.099.142 0 .243.03.307.084.052.05.081.128.081.24 0 .112-.032.192-.093.244-.066.054-.172.084-.319.084h-.2l-.1.1v.352l.1.1h.2c.166 0 .282.031.356.093.074.058.112.15.112.283a.362.362 0 0 1-.11.27.497.497 0 0 1-.358.122.464.464 0 0 1-.328-.114c-.09-.08-.137-.196-.144-.358l-.1-.096H1.1l-.1.107c.026.347.15.62.372.806.199.167.461.251.78.251.334 0 .61-.095.823-.286a.938.938 0 0 0 .309-.722.704.704 0 0 0-.17-.482.9.9 0 0 0-.432-.262l.001.191c.357-.117.545-.363.545-.719 0-.276-.1-.497-.297-.658a1.193 1.193 0 0 0-.763-.23m11.668 2.402H5.662a.6.6 0 0 1 0-1.199h8.172a.599.599 0 1 1 0 1.2M2.14 5.9c-.336 0-.61.115-.818.345-.2.213-.302.493-.306.838l.1.101h.468l.1-.096c.007-.206.05-.358.123-.45.07-.096.171-.142.317-.142.143 0 .243.03.305.086.058.055.091.146.091.274a.577.577 0 0 1-.163.386 2.568 2.568 0 0 1-.374.304 3.928 3.928 0 0 0-.675.54A1.2 1.2 0 0 0 1 8.912l.1.1h1.992l.1-.1V8.5l-.1-.1H1.684l.091.14c.055-.122.22-.28.496-.46.3-.201.496-.353.61-.476a1.09 1.09 0 0 0 .307-.744.895.895 0 0 0-.297-.694A1.091 1.091 0 0 0 2.14 5.9m11.72 2.398H5.688a.6.6 0 0 1 0-1.2h8.172a.6.6 0 1 1 0 1.2M1.996 1.031a1.684 1.684 0 0 1-.72.42l-.076.097v.464l.128.096c.277-.08.507-.203.691-.37l-.167-.074v2.292l.1.1h.468l.1-.1V1.1l-.1-.1h-.352l-.072.03M13.86 3.298H5.688a.6.6 0 0 1 0-1.2h8.172a.6.6 0 1 1 0 1.2"/>
</svg>
