<svg xmlns="http://www.w3.org/2000/svg" viewBox="0 0 16 16">
    <path d="M1.388 11.998c-.364 0-.667.102-.901.31-.25.208-.389.502-.42.878l.118.129h.547l.119-.108c.016-.176.07-.3.16-.378.086-.079.209-.118.382-.118.169 0 .29.035.365.1.062.058.096.152.096.285 0 .133-.038.228-.11.29-.079.065-.205.1-.38.1h-.237l-.119.119v.418l.119.12h.238c.197 0 .335.037.423.11.087.069.133.178.133.336a.43.43 0 0 1-.132.32.59.59 0 0 1-.424.146.552.552 0 0 1-.39-.135c-.107-.095-.163-.234-.172-.426l-.118-.114H.119L0 14.508c.031.412.179.736.442.957.236.2.548.299.927.299.398 0 .726-.114.978-.34.245-.223.368-.512.368-.859a.837.837 0 0 0-.201-.573 1.07 1.07 0 0 0-.515-.31l.002.226c.424-.14.647-.432.647-.855a.958.958 0 0 0-.353-.781 1.418 1.418 0 0 0-.907-.274m13.87 2.856H5.542a.714.714 0 0 1 0-1.426h9.714a.712.712 0 1 1 0 1.426m-13.902-8.8c-.399 0-.726.138-.972.41a1.424 1.424 0 0 0-.364.996l.119.12h.556l.119-.114c.009-.245.06-.425.146-.535.083-.113.204-.168.377-.168.17 0 .288.035.363.102.069.066.108.174.108.326a.686.686 0 0 1-.194.458 3.052 3.052 0 0 1-.445.362c-.4.275-.669.49-.801.642A1.427 1.427 0 0 0 0 9.635l.119.119h2.368l.119-.12v-.489l-.12-.119H.814l.109.167c.065-.146.261-.332.589-.548.356-.239.59-.42.725-.565.242-.268.365-.562.365-.884 0-.337-.118-.612-.353-.825a1.297 1.297 0 0 0-.893-.317m13.932 2.851H5.573a.714.714 0 0 1 0-1.426h9.714a.712.712 0 1 1 0 1.426M1.184.267a2.001 2.001 0 0 1-.856.5L.238.88v.552l.151.114c.33-.095.603-.24.822-.44l-.198-.088v2.725l.119.119h.556l.119-.12V.35L1.687.23H1.27l-.085.037M15.287 2.96H5.573a.714.714 0 0 1 0-1.427h9.714a.712.712 0 1 1 0 1.427"/>
</svg>
