<svg xmlns="http://www.w3.org/2000/svg" viewBox="0 0 16 16">
    <path d="M2.726 2.706A6.239 6.239 0 0 1 7.933 0c2.062 0 4.116.909 5.353 2.813 1.467.982 2.33 2.342 2.33 3.816 0 .227-.02.453-.061.676.29.343.445.81.445 1.383 0 1.099-.568 1.794-1.565 1.977-.197 2.904-1.713 4.492-4.434 4.58A2.986 2.986 0 0 1 7.933 16c-.815 0-1.5-.254-2.02-.76-2.742-.143-4.258-1.723-4.425-4.57C.538 10.494 0 9.79 0 8.689c0-.5.11-.918.319-1.245-.06-.267-.09-.54-.09-.814 0-1.53.931-2.937 2.497-3.923zm-.76 1.492A3.553 3.553 0 0 0 .927 6.88c.166-.09.353-.157.56-.2a8.485 8.485 0 0 1 .48-2.483zm12.058.161c.23.69.377 1.466.419 2.328.173.036.334.087.48.152a3.48 3.48 0 0 0-.899-2.48zM7.933 1.171c-2.625 0-5.284 1.91-5.284 6.04v.586H2.06c-.656 0-.885.23-.885.891 0 .657.22.872.87.856l.603-.015v.6c0 2.66 1.127 3.902 3.541 3.95l.267.005.172.205c.304.361.723.54 1.304.54.59 0 1.04-.185 1.391-.563l.175-.187h.257c2.364 0 3.488-1.24 3.523-3.958l.008-.578h.58c.714 0 .957-.227.957-.855 0-.634-.252-.875-.97-.891l-.575-.014v-.572c0-2.387-.83-3.999-2.254-5a5.81 5.81 0 0 0-3.092-1.04zM9.05 7.274h2.59c.352 0 .637.284.637.635v1.737c0 .35-.285.634-.637.634H9.05a.636.636 0 0 1-.637-.634V7.909c0-.35.285-.635.637-.635zm-4.72 0h2.59c.352 0 .637.284.637.635v1.737c0 .35-.285.634-.637.634H4.33a.636.636 0 0 1-.637-.634V7.909c0-.35.285-.635.637-.635zm.049 2.323H6.87v-1.64H4.379v1.64zm4.72 0h2.492v-1.64H9.099v1.64z"/>
</svg>
