<svg xmlns="http://www.w3.org/2000/svg" viewBox="0 0 16 16">
    <path d="M7.933 0c2.062 0 4.117.909 5.353 2.815 1.467.98 2.33 2.34 2.33 3.814 0 .228-.02.454-.061.677.29.343.445.808.445 1.382 0 1.099-.568 1.794-1.565 1.977-.197 2.904-1.713 4.492-4.434 4.58A2.986 2.986 0 0 1 7.933 16c-.815 0-1.5-.254-2.02-.76-2.742-.143-4.258-1.723-4.425-4.57C.538 10.494 0 9.79 0 8.689c0-.5.11-.92.32-1.247a3.664 3.664 0 0 1-.09-.812c0-1.53.93-2.936 2.496-3.923A6.239 6.239 0 0 1 7.933 0zm0 1.17c-2.625 0-5.284 1.91-5.284 6.041v.586H2.06c-.656 0-.885.23-.885.891 0 .657.22.872.87.856l.603-.015v.6c0 2.66 1.127 3.902 3.541 3.95l.267.005.172.205c.304.361.723.54 1.304.54.59 0 1.04-.185 1.391-.563l.175-.187h.257c2.364 0 3.488-1.24 3.523-3.958l.008-.578h.58c.714 0 .957-.227.957-.855 0-.634-.252-.875-.97-.891l-.575-.014v-.572c0-2.387-.83-3.999-2.254-5a5.81 5.81 0 0 0-3.092-1.04zm3.707 6.104c.352 0 .637.284.637.635v1.737c0 .35-.285.634-.637.634H9.05a.636.636 0 0 1-.637-.634V7.909c0-.35.285-.635.637-.635h2.59zm-4.72 0c.352 0 .637.284.637.635v1.737c0 .35-.285.634-.637.634H4.33a.636.636 0 0 1-.637-.634V7.909c0-.35.285-.635.637-.635h2.59zm-.05.683H4.38v1.64H6.87v-1.64zm4.721 0H9.099v1.64h2.492v-1.64zm-9.624-3.76l-.13.144a3.49 3.49 0 0 0-.911 2.54c.166-.09.353-.157.56-.2a8.484 8.484 0 0 1 .481-2.485zm12.057.163l.054.166c.2.648.326 1.368.365 2.161.173.036.333.086.48.152l.007-.21a3.48 3.48 0 0 0-.906-2.27z"/>
</svg>
