<svg xmlns="http://www.w3.org/2000/svg" viewBox="0 0 16 16">
    <path d="M12.344 4.344c.479 0 .896.172 1.25.515.354.344.531.766.531 1.266v5.969c0 .5-.177.927-.531 1.281a1.71 1.71 0 0 1-1.25.531H8.625l-1.906 1.938A.75.75 0 0 1 6.28 16a.563.563 0 0 1-.594-.594v-1.5h-2.03a1.71 1.71 0 0 1-1.25-.531 1.746 1.746 0 0 1-.532-1.281V6.125c0-.5.177-.922.531-1.266.354-.343.771-.515 1.25-.515h.531v-.532a3.777 3.777 0 0 1 1.11-2.703A3.786 3.786 0 0 1 8 0a3.777 3.777 0 0 1 2.703 1.11 3.786 3.786 0 0 1 1.11 2.702v.532h.53zm-6.938 0h5.188v-.532c0-.729-.25-1.348-.75-1.859A2.48 2.48 0 0 0 8 1.187a2.48 2.48 0 0 0-1.844.766c-.5.51-.75 1.13-.75 1.86v.53zm7.532 1.781a.574.574 0 0 0-.172-.422.574.574 0 0 0-.422-.172H3.656a.574.574 0 0 0-.422.172.574.574 0 0 0-.171.422v5.969c0 .166.057.312.171.437a.55.55 0 0 0 .422.188h2.625c.396 0 .594.198.594.594v.624l1.094-1.062c.083-.104.218-.156.406-.156h3.969a.55.55 0 0 0 .422-.188.627.627 0 0 0 .171-.437V6.125zM5.155 8.438a.699.699 0 0 1 .688.719.699.699 0 0 1-.688.718.699.699 0 0 1-.718-.719.699.699 0 0 1 .718-.719zm2.844 0a.699.699 0 0 1 .719.718.699.699 0 0 1-.719.719.699.699 0 0 1-.719-.719A.699.699 0 0 1 8 8.437zm2.844 0a.699.699 0 0 1 .719.718.699.699 0 0 1-.72.719.699.699 0 0 1-.688-.719.699.699 0 0 1 .689-.719z"/>
</svg>
