<svg xmlns="http://www.w3.org/2000/svg" viewBox="0 0 16 16">
    <path d="M11.61 0c.729 0 1.343.25 1.843.75s.75 1.115.75 1.844v12.812a.574.574 0 0 1-.172.422.574.574 0 0 1-.422.172H2.422a.627.627 0 0 1-.438-.172.55.55 0 0 1-.187-.422V2.594c0-.73.255-1.344.766-1.844.51-.5 1.13-.75 1.859-.75h7.187zm1.406 2.594c0-.375-.136-.703-.407-.985a1.334 1.334 0 0 0-1-.421H4.422c-.396 0-.73.14-1 .421-.271.282-.406.61-.406.985v12.219h3.406v-3c0-.396.198-.594.594-.594h2c.395 0 .593.198.593.594v3h3.407V2.592zm-6.97 0c.168 0 .308.057.423.172a.574.574 0 0 1 .172.421v.72a.574.574 0 0 1-.172.421.574.574 0 0 1-.422.172h-.719c-.396 0-.594-.198-.594-.594v-.719c0-.166.058-.307.172-.421a.574.574 0 0 1 .422-.172h.719zm4.657 0c.167 0 .307.057.422.172a.574.574 0 0 1 .172.421v.72c0 .395-.198.593-.594.593h-.719a.574.574 0 0 1-.421-.172.574.574 0 0 1-.172-.422v-.719c0-.166.057-.307.171-.421a.574.574 0 0 1 .422-.172h.72zm0 2.719c.167 0 .307.057.422.171a.574.574 0 0 1 .172.422v.719c0 .396-.198.594-.594.594h-.719a.574.574 0 0 1-.421-.172.574.574 0 0 1-.172-.422v-.719c0-.166.057-.307.171-.422a.574.574 0 0 1 .422-.171h.72zm-4.656 0c.167 0 .307.057.422.171a.574.574 0 0 1 .172.422v.719a.574.574 0 0 1-.172.422.574.574 0 0 1-.422.172h-.719c-.396 0-.594-.198-.594-.594v-.719c0-.166.058-.307.172-.422a.574.574 0 0 1 .422-.171h.719zm0 2.718c.167 0 .307.058.422.172a.574.574 0 0 1 .172.422v.719a.574.574 0 0 1-.172.422.574.574 0 0 1-.422.171h-.719c-.396 0-.594-.197-.594-.593v-.719c0-.167.058-.307.172-.422a.574.574 0 0 1 .422-.172h.719zm4.656 0c.167 0 .307.058.422.172a.574.574 0 0 1 .172.422v.719c0 .396-.198.594-.594.594h-.719a.574.574 0 0 1-.421-.172.574.574 0 0 1-.172-.422v-.719c0-.167.057-.307.171-.422a.574.574 0 0 1 .422-.172h.72z"/>
</svg>
