<svg xmlns="http://www.w3.org/2000/svg" viewBox="0 0 16 16">
    <path fill="#000" fill-rule="evenodd" d="M13.969 13.5c.187.23.208.469.062.719a.646.646 0 0 1-.625.375H10a2.29 2.29 0 0 1-.781 1.015C8.865 15.87 8.459 16 8 16c-.458 0-.865-.13-1.219-.39A2.29 2.29 0 0 1 6 14.593H2.594a.646.646 0 0 1-.625-.375c-.146-.25-.125-.49.062-.719l.438-.656c.354-.48.531-1.031.531-1.656V7.405a4.877 4.877 0 0 1 1.063-3.031 5.25 5.25 0 0 1 1.171-1.078 4.922 4.922 0 0 1 1.485-.672 1.724 1.724 0 0 1-.313-.969c0-.458.162-.849.485-1.172A1.633 1.633 0 0 1 8.094 0c.458 0 .849.161 1.172.484.323.323.484.714.484 1.172 0 .375-.115.709-.344 1a5.423 5.423 0 0 1 2.578 1.766A4.875 4.875 0 0 1 13 7.406v3.782c0 .624.177 1.177.531 1.656l.438.656zM8.094 1.187a.436.436 0 0 0-.344.141.478.478 0 0 0-.125.328c0 .313.156.469.469.469.291 0 .437-.156.437-.469a.478.478 0 0 0-.125-.328.4.4 0 0 0-.312-.14zm4.375 12.22a3.925 3.925 0 0 1-.688-2.22v-3.78c0-.522-.099-1.011-.297-1.47A3.832 3.832 0 0 0 9.47 3.922 3.665 3.665 0 0 0 8 3.625c-.52 0-1.01.099-1.469.297a3.832 3.832 0 0 0-2.015 2.015 3.665 3.665 0 0 0-.297 1.47v3.78c0 .792-.23 1.532-.688 2.22h8.938z"/>
</svg>
