<svg xmlns="http://www.w3.org/2000/svg" viewBox="0 0 16 16">
    <path d="M13.094 8c.291.27.583.573.875.906.291.334.541.677.75 1.031.208.355.338.709.39 1.063.052.354-.015.688-.203 1-.166.292-.411.5-.734.625a3.252 3.252 0 0 1-1.172.188 8.465 8.465 0 0 1-2.469-.438c-.083.396-.198.807-.344 1.234a7.102 7.102 0 0 1-.515 1.172 2.998 2.998 0 0 1-.719.875c-.281.23-.599.344-.953.344-.604 0-1.12-.339-1.547-1.016a8.077 8.077 0 0 1-.984-2.578 30.81 30.81 0 0 1-1.235.297c-.427.094-.838.14-1.234.14-.417 0-.797-.062-1.14-.187A1.364 1.364 0 0 1 1.093 12c-.313-.542-.287-1.161.078-1.86A8.113 8.113 0 0 1 2.906 8c-.291-.27-.583-.573-.875-.906a6.817 6.817 0 0 1-.75-1.032A2.937 2.937 0 0 1 .891 5a1.473 1.473 0 0 1 .203-1 1.465 1.465 0 0 1 .969-.734 4.28 4.28 0 0 1 .984-.125c.385-.01.849.046 1.39.171l1.032.282c.083-.396.198-.802.343-1.219.146-.417.318-.802.516-1.156.198-.354.438-.646.719-.875C7.328.114 7.646 0 8 0c.604 0 1.12.333 1.547 1 .427.667.755 1.531.984 2.594.396-.125.813-.23 1.25-.313.438-.083.86-.125 1.266-.125s.776.063 1.11.188c.333.125.583.344.75.656.312.52.286 1.135-.079 1.844A7.997 7.997 0 0 1 13.094 8zm.781-3.406c-.063-.125-.344-.209-.844-.25-.5-.042-1.26.104-2.281.437A19.598 19.598 0 0 1 11 8v.156c1.125-.833 1.917-1.583 2.375-2.25.458-.666.625-1.104.5-1.312zM8 1.187c-.146 0-.36.209-.64.625-.282.417-.537 1.146-.766 2.188.479.188.963.396 1.453.625a15.137 15.137 0 0 1 1.61.875c-.167-1.396-.428-2.464-.782-3.203-.354-.74-.646-1.11-.875-1.11zM9.594 8c0-.438-.156-.813-.469-1.125A1.534 1.534 0 0 0 8 6.406c-.438 0-.813.157-1.125.469A1.534 1.534 0 0 0 6.406 8c0 .438.157.813.469 1.125.313.313.688.469 1.125.469.438 0 .813-.156 1.125-.469.313-.313.469-.688.469-1.125zm-7.469 3.375c.063.125.344.208.844.25.5.042 1.26-.104 2.281-.438A21.18 21.18 0 0 1 5 8v-.186c-1.125.854-1.917 1.609-2.375 2.265-.458.656-.625 1.089-.5 1.297zm1.719-4.156a19.967 19.967 0 0 1 2.812-1.907A11.725 11.725 0 0 0 4.188 4.5c-.709-.167-1.22-.214-1.532-.14-.312.072-.49.15-.531.234-.083.125-.016.411.203.86.219.447.724 1.036 1.516 1.765zM8 14.78c.146 0 .36-.203.64-.61.282-.405.537-1.13.766-2.171a19.35 19.35 0 0 1-1.453-.64 27.673 27.673 0 0 1-1.61-.86c.167 1.396.428 2.458.782 3.188.354.729.646 1.093.875 1.093zm5.875-3.406c.083-.104.016-.38-.203-.828-.219-.448-.724-1.037-1.516-1.766-.416.334-.844.646-1.281.938-.438.291-.896.583-1.375.875a.548.548 0 0 1-.156.062c1.291.563 2.344.88 3.156.953.813.073 1.27-.005 1.375-.234z"/>
</svg>
