<svg xmlns="http://www.w3.org/2000/svg" viewBox="0 0 16 16">
    <path fill="#000" fill-rule="evenodd" d="M12.784 7.435c.168 0 .309.053.424.157.115.105.172.24.172.408 0 .397-.198.596-.596.596H10.4c-.397 0-.596-.199-.596-.596 0-.167.057-.303.172-.408a.607.607 0 0 1 .424-.157h2.384zm2.07-3.168c.503.376.754.889.754 1.537v8.44c0 .48-.147.893-.44 1.238a1.35 1.35 0 0 1-1.066.518H1.898a1.35 1.35 0 0 1-1.067-.518 1.852 1.852 0 0 1-.439-1.239v-8.44c0-.647.251-1.16.753-1.536l2.008-1.35L3.875.44A.572.572 0 0 1 4.25.031.311.311 0 0 1 4.392 0h7.2l.157.031a.572.572 0 0 1 .376.408l.722 2.479 2.008 1.349zm-5.96-1.098L10.306 4.8l1.412-1.506-.502-1.725-2.322 1.6zm-4.612.125L5.694 4.8l1.412-1.631-2.322-1.6-.502 1.725zm3.138 1.35L6.133 6.085a.54.54 0 0 1-.439.189.602.602 0 0 1-.44-.189L3.436 4.173l-1.6 1.098a.627.627 0 0 0-.25.533v8.44a.7.7 0 0 0 .125.423c.083.115.146.172.188.172h5.49L7.42 4.643zm6.996 1.16a.627.627 0 0 0-.251-.533l-1.6-1.098-1.82 1.913a.602.602 0 0 1-.44.189c-.208 0-.355-.063-.438-.189L8.612 4.675v10.164h5.49c.042 0 .105-.057.188-.172a.7.7 0 0 0 .126-.424v-8.44z"/>
</svg>
