<svg xmlns="http://www.w3.org/2000/svg" viewBox="0 0 16 16">
    <path fill="#000" fill-rule="evenodd" d="M15.092 11.202a.536.536 0 0 1 .454-.047.634.634 0 0 1 .36.297c.084.167.1.324.047.47a.637.637 0 0 1-.297.344L8.83 15.773a1.76 1.76 0 0 1-1.69 0L.343 12.266a.637.637 0 0 1-.297-.344.582.582 0 0 1 .047-.47.637.637 0 0 1 .344-.297.582.582 0 0 1 .47.047l6.795 3.506a.604.604 0 0 0 .594 0l6.795-3.506zM.814 6.004a1.395 1.395 0 0 1-.783-1.252c0-.543.261-.96.783-1.253L7.17.211a1.73 1.73 0 0 1 1.628 0L15.155 3.5c.542.313.814.73.814 1.252a1.469 1.469 0 0 1-.814 1.252L8.798 9.293c-.25.125-.521.187-.814.187-.292 0-.563-.062-.814-.187L.814 6.004zm.564-1.44c-.105.062-.157.125-.157.187 0 .063.052.126.157.188l6.356 3.288c.167.104.344.104.532 0l6.356-3.288c.105-.062.157-.125.157-.188 0-.062-.052-.125-.157-.187L8.266 1.276a.994.994 0 0 0-.282-.063.556.556 0 0 0-.25.063L1.378 4.564zm13.714 3.319a.536.536 0 0 1 .454-.047.634.634 0 0 1 .36.297c.084.167.1.324.047.47a.637.637 0 0 1-.297.344L8.83 12.485a1.995 1.995 0 0 1-1.69 0L.343 8.947a.637.637 0 0 1-.297-.344.582.582 0 0 1 .047-.47.637.637 0 0 1 .344-.297.582.582 0 0 1 .47.047l6.795 3.538a.604.604 0 0 0 .594 0l6.795-3.538z"/>
</svg>
