<svg xmlns="http://www.w3.org/2000/svg" viewBox="0 0 16 16">
    <path d="M15.703 15.255a.535.535 0 0 1-.079.454.651.651 0 0 1-.391.266h-.125c-.334 0-.533-.157-.595-.47l-.595-2.85a.85.85 0 0 0-.501-.438l-3.632-1.283a1.434 1.434 0 0 1-.705-.533 1.428 1.428 0 0 1-.266-.845v-.532c0-.334.073-.653.22-.955.145-.303.344-.57.594-.799.313-.25.548-.548.705-.892.156-.345.235-.705.235-1.08V3.795A2.539 2.539 0 0 0 8 1.195a2.539 2.539 0 0 0-2.568 2.599v1.504c0 .814.314 1.471.94 1.972.543.48.814 1.065.814 1.754v.532a1.434 1.434 0 0 1-.97 1.378l-3.633 1.283a.85.85 0 0 0-.5.439l-.596 2.849a.651.651 0 0 1-.266.391.535.535 0 0 1-.454.079.651.651 0 0 1-.391-.266.535.535 0 0 1-.079-.454l.627-2.944c0-.02.005-.041.015-.062a.139.139 0 0 0 .016-.063c.292-.543.71-.908 1.252-1.096l3.601-1.284c.105-.041.157-.125.157-.25v-.532a.956.956 0 0 0-.376-.814 3.75 3.75 0 0 1-1.378-2.912V3.795c0-.522.1-1.013.298-1.472a3.84 3.84 0 0 1 2.02-2.02C6.987.105 7.478.006 8 .006c.522 0 1.012.1 1.472.297a3.84 3.84 0 0 1 2.02 2.02c.197.46.297.95.297 1.472v1.503A3.75 3.75 0 0 1 10.41 8.21a.956.956 0 0 0-.376.814v.532c0 .125.052.209.157.25l3.6 1.284a1.987 1.987 0 0 1 1.253 1.096c0 .02.005.042.016.063.01.02.015.041.015.062l.627 2.944z"/>
</svg>
