<svg xmlns="http://www.w3.org/2000/svg" viewBox="0 0 16 16">
    <path d="M13.605 0c.23 0 .417.078.563.235.146.156.22.35.22.58v14.402c0 .23-.074.418-.22.564a.763.763 0 0 1-.563.219H3.992a2.273 2.273 0 0 1-1.69-.705 2.351 2.351 0 0 1-.69-1.706V2.411c0-.668.23-1.237.69-1.706A2.273 2.273 0 0 1 3.991 0h9.613zm-.407 12.4H3.992a1.15 1.15 0 0 0-.845.344 1.15 1.15 0 0 0-.345.845c0 .355.115.647.345.877.23.23.511.344.845.344h9.206V12.4zm0-11.21H3.992c-.334 0-.616.12-.845.36-.23.24-.345.527-.345.861v9.112a2.414 2.414 0 0 1 1.19-.314h9.206V1.19zM5.746 9.362a.572.572 0 0 1-.314-.329.572.572 0 0 1 0-.454l2.004-4.822c.105-.23.293-.344.564-.344.271 0 .46.115.564.344l2.004 4.822a.572.572 0 0 1 0 .454.572.572 0 0 1-.314.329.814.814 0 0 1-.25.031c-.25 0-.438-.125-.564-.375l-.563-1.41H7.123l-.563 1.41a.69.69 0 0 1-.345.344.61.61 0 0 1-.47 0zm1.878-2.943h.752L8 5.542l-.376.877z"/>
</svg>
