<svg xmlns="http://www.w3.org/2000/svg" viewBox="0 0 16 16">
    <path d="M4.969 0c.604 0 1.11.208 1.515.625.407.417.61.917.61 1.5v2.844c0 .604-.203 1.11-.61 1.515-.406.407-.911.61-1.515.61H2.125a2.072 2.072 0 0 1-1.5-.61A2.031 2.031 0 0 1 0 4.97V2.125c0-.583.208-1.083.625-1.5A2.046 2.046 0 0 1 2.125 0h2.844zm.843 2.125a.811.811 0 0 0-.25-.594.811.811 0 0 0-.593-.25H2.125a.811.811 0 0 0-.594.25.811.811 0 0 0-.25.594v2.844c0 .229.084.427.25.593.167.167.365.25.594.25h2.844c.229 0 .427-.083.593-.25a.811.811 0 0 0 .25-.593V2.125zM13.876 0c.583 0 1.083.208 1.5.625.417.417.625.917.625 1.5v2.844c0 .604-.208 1.11-.625 1.515-.417.407-.917.61-1.5.61h-2.844c-.604 0-1.11-.203-1.515-.61a2.057 2.057 0 0 1-.61-1.515V2.125c0-.583.203-1.083.61-1.5A2.031 2.031 0 0 1 11.03 0h2.844zm.844 2.125a.811.811 0 0 0-.25-.594.811.811 0 0 0-.594-.25h-2.844a.811.811 0 0 0-.594.25.811.811 0 0 0-.25.594v2.844c0 .229.084.427.25.593.167.167.365.25.594.25h2.844c.23 0 .427-.083.594-.25a.811.811 0 0 0 .25-.593V2.125zm-9.75 6.75c.604 0 1.11.208 1.515.625.407.417.61.917.61 1.5v2.844c0 .604-.203 1.11-.61 1.515-.406.407-.911.61-1.515.61H2.125a2.072 2.072 0 0 1-1.5-.61A2.031 2.031 0 0 1 0 13.844V11c0-.583.208-1.083.625-1.5a2.046 2.046 0 0 1 1.5-.625h2.844zm.843 2.156a.864.864 0 0 0-.25-.61.788.788 0 0 0-.593-.265H2.125a.788.788 0 0 0-.594.266.864.864 0 0 0-.25.61v2.843c0 .23.084.427.25.594.167.166.365.25.594.25h2.844c.229 0 .427-.084.593-.25a.811.811 0 0 0 .25-.594v-2.844zm8.063-2.156c.583 0 1.083.208 1.5.625.417.417.625.917.625 1.5v2.844c0 .604-.208 1.11-.625 1.515-.417.407-.917.61-1.5.61h-2.844c-.604 0-1.11-.203-1.515-.61a2.057 2.057 0 0 1-.61-1.515V11c0-.583.203-1.083.61-1.5a2.031 2.031 0 0 1 1.515-.625h2.844zm.844 2.156a.864.864 0 0 0-.25-.61.788.788 0 0 0-.594-.265h-2.844a.788.788 0 0 0-.594.266.864.864 0 0 0-.25.61v2.843c0 .23.084.427.25.594.167.166.365.25.594.25h2.844c.23 0 .427-.084.594-.25a.811.811 0 0 0 .25-.594v-2.844z"/>
</svg>
