<svg xmlns="http://www.w3.org/2000/svg" viewBox="0 0 16 16">
    <path d="M8 0c1.104 0 2.14.208 3.11.625a8.08 8.08 0 0 1 4.265 4.266C15.792 5.859 16 6.896 16 8s-.208 2.14-.625 3.11a8.08 8.08 0 0 1-4.266 4.265A7.785 7.785 0 0 1 8 16a7.785 7.785 0 0 1-3.11-.625 8.08 8.08 0 0 1-4.265-4.266A7.785 7.785 0 0 1 0 8c0-1.104.208-2.14.625-3.11A8.08 8.08 0 0 1 4.891.626 7.785 7.785 0 0 1 8 0zm0 14.813c.938 0 1.818-.178 2.64-.532a6.898 6.898 0 0 0 3.641-3.64A6.608 6.608 0 0 0 14.812 8c0-.938-.177-1.818-.53-2.64a6.898 6.898 0 0 0-3.641-3.641A6.608 6.608 0 0 0 8 1.187c-.938 0-1.818.178-2.64.532a6.898 6.898 0 0 0-3.641 3.64A6.608 6.608 0 0 0 1.187 8c0 .938.178 1.818.532 2.64a6.898 6.898 0 0 0 3.64 3.641A6.608 6.608 0 0 0 8 14.812zm2.75-10.907a.57.57 0 0 1 .422-.156.57.57 0 0 1 .422.156c.104.125.156.271.156.438a.55.55 0 0 1-.156.406L9.375 6.969h1.594c.166 0 .307.057.422.172a.627.627 0 0 1 0 .86.55.55 0 0 1-.422.187H8.594v1.124h2.375a.55.55 0 0 1 .422.188.627.627 0 0 1 0 .86.574.574 0 0 1-.422.171H8.594v1.813a.574.574 0 0 1-.172.422.574.574 0 0 1-.422.171.574.574 0 0 1-.422-.171.574.574 0 0 1-.172-.422V10.53H5.031a.574.574 0 0 1-.422-.172.627.627 0 0 1 0-.86.55.55 0 0 1 .422-.187h2.375V8.188H5.031A.55.55 0 0 1 4.61 8a.627.627 0 0 1 0-.86.574.574 0 0 1 .422-.171h1.594L4.406 4.75a.55.55 0 0 1-.156-.406c0-.167.052-.313.156-.438a.663.663 0 0 1 .438-.156.55.55 0 0 1 .406.156L8 6.656l2.75-2.75z"/>
</svg>
