<svg xmlns="http://www.w3.org/2000/svg" viewBox="0 0 16 16">
    <path fill="#000" fill-rule="evenodd" d="M15.625 3.031c.25.104.375.292.375.563v11.531a.574.574 0 0 1-.172.422.574.574 0 0 1-.422.172H.594a.574.574 0 0 1-.422-.172.574.574 0 0 1-.172-.422V3.594c0-.271.125-.459.375-.563.25-.104.48-.052.688.156L4 6.345 6.875 3.78a1.796 1.796 0 0 1-.813-1.562c0-.542.188-1 .563-1.375A1.87 1.87 0 0 1 8 .28c.542 0 1 .188 1.375.563.375.375.563.833.563 1.375 0 .666-.271 1.187-.813 1.562L12 6.344l2.938-3.157c.208-.208.437-.26.687-.156zM8 1.47a.673.673 0 0 0-.516.218.752.752 0 0 0-.203.532c0 .187.068.354.203.5A.673.673 0 0 0 8 2.938c.208 0 .38-.073.516-.22a.714.714 0 0 0 .203-.5.752.752 0 0 0-.203-.53.673.673 0 0 0-.516-.22zM1.219 5.125v5.844H14.78V5.125l-2.312 2.5a.606.606 0 0 1-.406.172.6.6 0 0 1-.438-.14L8 4.406l-3.625 3.25a.6.6 0 0 1-.438.14.606.606 0 0 1-.406-.172l-2.312-2.5zM14.78 14.5v-2.313H1.22V14.5H14.78z"/>
</svg>
