<svg xmlns="http://www.w3.org/2000/svg" viewBox="0 0 16 16">
    <path d="M13.292 1.409c.542 0 1.012.198 1.409.595.396.397.594.866.594 1.409v10.583c0 .543-.198 1.012-.594 1.41a1.926 1.926 0 0 1-1.41.594H2.709a1.926 1.926 0 0 1-1.409-.595 1.926 1.926 0 0 1-.594-1.409V3.413c0-.543.198-1.012.594-1.41a1.926 1.926 0 0 1 1.41-.594h1.44V.595c0-.167.057-.308.172-.423a.628.628 0 0 1 .861 0 .551.551 0 0 1 .188.423v.814h5.26V.595c0-.167.063-.308.188-.423a.628.628 0 0 1 .861 0 .575.575 0 0 1 .172.423v.814h1.44zm.814 4.885H1.894v7.702c0 .23.079.423.235.58.157.156.35.234.58.234h10.583c.23 0 .422-.078.579-.235a.787.787 0 0 0 .235-.579V6.294zm0-2.881a.787.787 0 0 0-.235-.58.787.787 0 0 0-.58-.234h-1.44v.438a.575.575 0 0 1-.172.423.628.628 0 0 1-.861 0 .551.551 0 0 1-.188-.423V2.6H5.37v.438a.551.551 0 0 1-.188.423.628.628 0 0 1-.861 0 .575.575 0 0 1-.172-.423V2.6h-1.44a.787.787 0 0 0-.58.235.787.787 0 0 0-.235.579v1.66h12.212v-1.66z"/>
</svg>
