<svg xmlns="http://www.w3.org/2000/svg" viewBox="0 0 16 16">
    <path d="M.77 15.988a.6.6 0 0 1-.468-.709l.606-2.946a.617.617 0 0 1 .051-.146c.254-.511.69-.897 1.227-1.089l3.62-1.291a.263.263 0 0 0 .175-.247v-.528a1.06 1.06 0 0 0-.387-.82 3.757 3.757 0 0 1-1.382-2.905V3.789a3.794 3.794 0 0 1 7.58 0v1.518a3.764 3.764 0 0 1-1.374 2.899c-.25.207-.394.512-.394.837v.518c0 .11.07.21.174.247l3.62 1.29c.537.192.973.579 1.226 1.089.024.046.04.095.051.146l.605 2.946a.599.599 0 0 1-.588.722S1.095 16.053.77 15.988z"/>
</svg>
