<svg xmlns="http://www.w3.org/2000/svg" viewBox="0 0 16 16">
    <path fill="#000" fill-rule="evenodd" d="M13.719 0c.625 0 1.161.224 1.61.672.447.448.671.984.671 1.61v11.437c0 .625-.224 1.161-.672 1.61a2.196 2.196 0 0 1-1.61.671H2.282a2.196 2.196 0 0 1-1.61-.672A2.196 2.196 0 0 1 0 13.718V2.282C0 1.656.224 1.12.672.671A2.196 2.196 0 0 1 2.282 0h11.437zm.906 2.281a.873.873 0 0 0-.266-.64.873.873 0 0 0-.64-.266H2.28a.873.873 0 0 0-.64.266.873.873 0 0 0-.266.64V13.72c0 .25.089.463.266.64.177.177.39.266.64.266H13.72c.25 0 .463-.089.64-.266a.873.873 0 0 0 .266-.64V2.28zm-3 2.563a.636.636 0 0 1 .469-.188c.187 0 .354.063.5.188a.747.747 0 0 1 .187.5.636.636 0 0 1-.187.468L7.25 11.157a.636.636 0 0 1-.469.188.676.676 0 0 1-.5-.188L3.406 8.281a.747.747 0 0 1-.187-.5c0-.187.062-.343.187-.468a.688.688 0 0 1 .5-.22c.188 0 .344.074.469.22l2.406 2.375 4.844-4.844z"/>
</svg>
