<svg xmlns="http://www.w3.org/2000/svg" viewBox="0 0 16 16">
    <path d="M7.822 0c.522 0 1.012.1 1.471.297a3.84 3.84 0 0 1 2.02 2.02c.198.46.297.95.297 1.472v1.503a3.75 3.75 0 0 1-1.377 2.912 1.01 1.01 0 0 0-.407.845v.5c0 .126.062.21.188.251.354.147.48.397.375.752a.632.632 0 0 1-.313.36.565.565 0 0 1-.47.016 1.434 1.434 0 0 1-.704-.533 1.428 1.428 0 0 1-.266-.845v-.501c0-.73.282-1.326.845-1.785.626-.5.94-1.158.94-1.972V3.789c0-.73-.25-1.347-.752-1.848a2.511 2.511 0 0 0-1.847-.751c-.71 0-1.32.25-1.832.751a2.485 2.485 0 0 0-.767 1.848v1.503c0 .814.323 1.482.97 2.003.543.439.815 1.013.815 1.723v.532a1.434 1.434 0 0 1-.97 1.378L2.404 12.21c-.23.105-.397.25-.501.439l-.595 2.849c-.083.334-.282.501-.595.501-.02 0-.036-.005-.047-.016-.01-.01-.036-.015-.078-.015a.676.676 0 0 1-.391-.25.495.495 0 0 1-.079-.44l.626-2.942c0-.042.006-.073.016-.094a.139.139 0 0 0 .016-.063 2.098 2.098 0 0 1 1.22-1.096L5.63 9.8c.104-.041.157-.125.157-.25v-.532a1.07 1.07 0 0 0-.376-.814 3.75 3.75 0 0 1-1.378-2.912V3.789c0-.522.1-1.013.298-1.472A3.84 3.84 0 0 1 6.35.297C6.808.1 7.3 0 7.82 0zm5.98 8.767c.585 0 1.08.209 1.487.626.408.418.611.919.611 1.503a2.092 2.092 0 0 1-1.252 1.91c-.167.105-.25.23-.25.376v.25a.628.628 0 0 1-.173.439.551.551 0 0 1-.423.188.6.6 0 0 1-.438-.188.6.6 0 0 1-.188-.439v-.25c0-.313.089-.6.266-.861a1.82 1.82 0 0 1 .705-.61.808.808 0 0 0 .563-.815.875.875 0 0 0-.266-.642.875.875 0 0 0-.642-.266.854.854 0 0 0-.814.47.559.559 0 0 1-.36.313.581.581 0 0 1-.454-.063.637.637 0 0 1-.297-.344.582.582 0 0 1 .047-.47 2.084 2.084 0 0 1 1.879-1.127zm0 5.824c.188 0 .35.068.486.204a.663.663 0 0 1 .203.485.7.7 0 0 1-.689.72.7.7 0 0 1-.72-.72.7.7 0 0 1 .72-.689z"/>
</svg>
