<svg xmlns="http://www.w3.org/2000/svg" viewBox="0 0 16 16">
    <path fill="#000" fill-rule="evenodd" d="M9.969 7.188A.6.6 0 0 1 10.406 7c.167 0 .302.063.406.188.126.104.188.24.188.406a.6.6 0 0 1-.188.437l-2.374 2.406a.75.75 0 0 1-.438.157.75.75 0 0 1-.438-.156L5.188 8.03A.6.6 0 0 1 5 7.594c0-.167.063-.302.188-.407A.504.504 0 0 1 5.593 7a.6.6 0 0 1 .437.188L8 9.155l1.969-1.969zM8 0c1.104 0 2.14.208 3.11.625a8.08 8.08 0 0 1 4.265 4.266C15.792 5.859 16 6.896 16 8s-.208 2.14-.625 3.11a8.08 8.08 0 0 1-4.266 4.265A7.785 7.785 0 0 1 8 16a7.785 7.785 0 0 1-3.11-.625 8.08 8.08 0 0 1-4.265-4.266A7.785 7.785 0 0 1 0 8c0-1.104.208-2.14.625-3.11A8.08 8.08 0 0 1 4.891.626 7.785 7.785 0 0 1 8 0zm0 14.813c.938 0 1.818-.178 2.64-.532a6.898 6.898 0 0 0 3.641-3.64A6.608 6.608 0 0 0 14.812 8c0-.938-.177-1.818-.53-2.64a6.898 6.898 0 0 0-3.641-3.641A6.608 6.608 0 0 0 8 1.187c-.938 0-1.818.178-2.64.532a6.898 6.898 0 0 0-3.641 3.64A6.608 6.608 0 0 0 1.187 8c0 .938.178 1.818.532 2.64a6.898 6.898 0 0 0 3.64 3.641A6.608 6.608 0 0 0 8 14.812z"/>
</svg>
