<svg xmlns="http://www.w3.org/2000/svg" viewBox="0 0 16 16">
    <path d="M9.046 9.904a2.755 2.755 0 0 1 3.805 0 2.695 2.695 0 0 1 .342 3.386l1.792 1.792a.536.536 0 0 1-.38.918.537.537 0 0 1-.38-.158l-1.793-1.79a2.693 2.693 0 0 1-3.386-4.148zM10.524 0a2.557 2.557 0 0 1 2.558 2.557v5.231h-1.18v-5.23c0-.761-.617-1.378-1.378-1.378H3.417c-.76 0-1.377.617-1.377 1.377v11.958h3.63v-2.941a.6.6 0 0 1 .6-.6h.67v4.721H1.45a.59.59 0 0 1-.59-.59V2.557A2.557 2.557 0 0 1 3.417 0h7.107zm.424 10.192a1.6 1.6 0 0 0-1.14.473 1.602 1.602 0 0 0 0 2.283 1.617 1.617 0 1 0 1.14-2.756zm-5.955-2.33a.59.59 0 0 1 .59.59v.708a.59.59 0 0 1-.59.59h-.708a.59.59 0 0 1-.59-.59V8.45a.59.59 0 0 1 .59-.59zm0-2.676a.59.59 0 0 1 .59.59v.708a.59.59 0 0 1-.59.59h-.708a.59.59 0 0 1-.59-.59v-.708a.59.59 0 0 1 .59-.59zm4.604 0a.59.59 0 0 1 .59.59v.708a.59.59 0 0 1-.59.59h-.709a.59.59 0 0 1-.59-.59v-.708a.59.59 0 0 1 .59-.59zM4.993 2.512a.59.59 0 0 1 .59.59v.708a.59.59 0 0 1-.59.59h-.708a.59.59 0 0 1-.59-.59v-.708a.59.59 0 0 1 .59-.59zm4.604 0a.59.59 0 0 1 .59.59v.708a.59.59 0 0 1-.59.59h-.709a.59.59 0 0 1-.59-.59v-.708a.59.59 0 0 1 .59-.59z"/>
</svg>
