<svg xmlns="http://www.w3.org/2000/svg" viewBox="0 0 16 16">
    <path fill="#000" fill-rule="evenodd" d="M15.93 7.72a.663.663 0 0 1 0 .56 11.83 11.83 0 0 1-1.575 2.324 10.946 10.946 0 0 1-1.903 1.731 8.078 8.078 0 0 1-2.152 1.092 7.3 7.3 0 0 1-4.6 0 8.146 8.146 0 0 1-2.137-1.092 10.946 10.946 0 0 1-1.902-1.73A11.83 11.83 0 0 1 .086 8.28a.544.544 0 0 1 0-.562A11.83 11.83 0 0 1 1.66 5.396a10.946 10.946 0 0 1 1.902-1.731A8.146 8.146 0 0 1 5.7 2.573a7.252 7.252 0 0 1 4.6 0c.76.25 1.476.613 2.152 1.092.676.478 1.31 1.055 1.903 1.73A11.83 11.83 0 0 1 15.93 7.72zm-7.922 4.865c1.31 0 2.547-.395 3.711-1.185 1.165-.79 2.163-1.924 2.994-3.4-.831-1.476-1.83-2.61-2.994-3.4a6.496 6.496 0 0 0-3.711-1.185c-1.31 0-2.547.395-3.712 1.185-1.164.79-2.162 1.924-2.994 3.4.832 1.476 1.83 2.61 2.994 3.4a6.496 6.496 0 0 0 3.712 1.185zm0-7.673c.873 0 1.606.297 2.199.89.592.592.889 1.325.889 2.198s-.297 1.606-.89 2.199a2.987 2.987 0 0 1-2.198.889 2.987 2.987 0 0 1-2.199-.89A2.987 2.987 0 0 1 4.92 8c0-.873.296-1.606.889-2.199a2.987 2.987 0 0 1 2.199-.889zm0 4.99c.54 0 .993-.181 1.357-.545.363-.364.545-.816.545-1.357 0-.54-.182-.993-.545-1.357a1.842 1.842 0 0 0-1.357-.546c-.54 0-.993.182-1.357.546A1.842 1.842 0 0 0 6.105 8c0 .54.182.993.546 1.357.364.364.816.546 1.357.546z"/>
</svg>
