<svg xmlns="http://www.w3.org/2000/svg" viewBox="0 0 16 16">
    <path fill="#000" fill-rule="evenodd" d="M12.375 6.719c.542 0 1.005.192 1.39.578.386.385.579.849.579 1.39V14c0 .542-.198 1.01-.594 1.406a1.922 1.922 0 0 1-1.406.594H3.656c-.541 0-1.01-.198-1.406-.594A1.922 1.922 0 0 1 1.656 14V8.687c0-.541.193-1.005.578-1.39a1.896 1.896 0 0 1 1.391-.578V4.375A4.423 4.423 0 0 1 6.297.344 4.254 4.254 0 0 1 8 0a4.423 4.423 0 0 1 4.031 2.672c.23.531.344 1.099.344 1.703v2.344zm-7.531 0h6.312V4.375c0-.438-.083-.849-.25-1.234a3.383 3.383 0 0 0-.672-1.016A3.06 3.06 0 0 0 8 1.187a3.076 3.076 0 0 0-2.234.938c-.282.292-.506.63-.672 1.016-.167.385-.25.796-.25 1.234v2.344zm8.281 2a.815.815 0 0 0-.219-.578.735.735 0 0 0-.562-.235H3.656a.786.786 0 0 0-.578.235.786.786 0 0 0-.234.578V14c0 .23.078.422.234.578a.786.786 0 0 0 .578.235h8.688c.229 0 .416-.079.562-.235a.815.815 0 0 0 .219-.578V8.719zM8 10.25a1.185 1.185 0 0 1 1.188 1.219c0 .333-.115.614-.344.844-.23.229-.51.343-.844.343-.333 0-.615-.114-.844-.344-.229-.229-.343-.51-.343-.843 0-.354.114-.646.343-.875.23-.23.51-.344.844-.344z"/>
</svg>
