<svg xmlns="http://www.w3.org/2000/svg" viewBox="0 0 16 16">
    <path d="M8 0c1.104 0 2.14.208 3.11.625a8.08 8.08 0 0 1 4.265 4.266C15.792 5.859 16 6.896 16 8s-.208 2.14-.625 3.11a8.08 8.08 0 0 1-4.266 4.265A7.785 7.785 0 0 1 8 16a7.785 7.785 0 0 1-3.11-.625 8.08 8.08 0 0 1-4.265-4.266A7.785 7.785 0 0 1 0 8c0-1.104.208-2.14.625-3.11A8.08 8.08 0 0 1 4.891.626 7.785 7.785 0 0 1 8 0zm0 14.969c.875 0 1.708-.162 2.5-.485a7.154 7.154 0 0 0 2.094-1.296l-.156-.844a.99.99 0 0 0-.376-.281l-2.718-.97c-.521-.208-.781-.583-.781-1.124v-.375c0-.563.218-1.021.656-1.375.437-.375.656-.865.656-1.469V5.625c0-.542-.182-.995-.547-1.36A1.808 1.808 0 0 0 8 3.72c-.52 0-.964.182-1.328.547a1.845 1.845 0 0 0-.547 1.359V6.75c0 .604.219 1.094.656 1.469.438.354.657.812.657 1.375v.375c0 .541-.26.916-.782 1.125l-2.718.969a.75.75 0 0 0-.376.28l-.156.782-.031.063a7.67 7.67 0 0 0 2.11 1.296A6.52 6.52 0 0 0 8 14.97zm5.469-2.688A6.733 6.733 0 0 0 14.938 8c0-.958-.183-1.86-.547-2.703a7.018 7.018 0 0 0-1.485-2.203 7.018 7.018 0 0 0-2.203-1.485A6.741 6.741 0 0 0 8 1.063c-.958 0-1.86.182-2.703.546a7.018 7.018 0 0 0-2.203 1.485 7.018 7.018 0 0 0-1.485 2.203A6.741 6.741 0 0 0 1.063 8a6.733 6.733 0 0 0 1.469 4.281l.03-.219c0-.02.006-.041.016-.062a.139.139 0 0 0 .016-.063c.229-.437.552-.718.969-.843l2.75-1c.062 0 .093-.042.093-.125v-.375a.63.63 0 0 0-.281-.563A2.815 2.815 0 0 1 5.328 8a3.027 3.027 0 0 1-.266-1.25V5.625a2.956 2.956 0 0 1 1.781-2.703c.355-.156.74-.235 1.157-.235a2.956 2.956 0 0 1 2.078.86 2.956 2.956 0 0 1 .86 2.078V6.75c0 .917-.355 1.667-1.063 2.25a.77.77 0 0 0-.281.594v.375c0 .083.031.125.094.125l2.75 1c.416.125.74.406.968.844 0 .02.005.041.016.062.01.02.015.042.015.063l.032.218z"/>
</svg>
