<svg xmlns="http://www.w3.org/2000/svg" viewBox="0 0 16 16">
    <path fill="#000" fill-rule="evenodd" d="M14.83 13.249c.105.19.084.39-.063.6-.148.19-.327.275-.538.254l-2.182-.095-1.328 1.77a.633.633 0 0 1-.506.222h-.063a.686.686 0 0 1-.506-.348L8 11.921l-1.644 3.731A.686.686 0 0 1 5.85 16h-.063a.633.633 0 0 1-.506-.221l-1.328-1.771-2.182.095c-.211.02-.39-.063-.538-.253-.147-.211-.168-.411-.063-.601l2.308-5.186a9.319 9.319 0 0 1-.19-.332 2.231 2.231 0 0 1-.158-.363 4.064 4.064 0 0 1-.316-.996 5.91 5.91 0 0 1-.095-1.06A5.193 5.193 0 0 1 4.27 1.55c.232-.231.49-.448.774-.648A5.113 5.113 0 0 1 8 0a5.113 5.113 0 0 1 2.957.901 5.602 5.602 0 0 1 1.913 2.324c.274.633.41 1.328.41 2.087 0 .359-.031.712-.094 1.06-.063.347-.169.68-.316.996a2.231 2.231 0 0 1-.159.363 9.32 9.32 0 0 1-.19.332l2.309 5.186zm-7.589-2.688a6.248 6.248 0 0 1-1.296-.348 5.14 5.14 0 0 1-1.613-1.075l-1.644 3.7 1.55-.063c.189-.042.358.031.505.221l.917 1.202 1.581-3.637zM8 9.391c.548 0 1.065-.1 1.55-.3.484-.2.916-.5 1.296-.901.4-.38.7-.817.901-1.313.2-.495.3-1.017.3-1.565 0-1.138-.4-2.108-1.201-2.909A3.874 3.874 0 0 0 8 1.233c-1.117 0-2.066.39-2.846 1.17a3.962 3.962 0 0 0-1.201 2.91c0 .547.1 1.07.3 1.564.2.496.5.933.901 1.313.38.4.812.7 1.297.9.484.201 1 .301 1.549.301zm5.312 3.447l-1.644-3.7a5.14 5.14 0 0 1-1.613 1.075 6.248 6.248 0 0 1-1.296.348l1.58 3.637.918-1.202c.147-.19.316-.263.506-.221l1.55.063zM8 2.972c.632 0 1.175.227 1.628.68.454.453.68 1.007.68 1.66 0 .654-.226 1.207-.68 1.66-.453.454-.996.68-1.628.68a2.222 2.222 0 0 1-1.628-.68 2.258 2.258 0 0 1-.68-1.66c0-.653.226-1.207.68-1.66.453-.453.996-.68 1.628-.68zM8 6.42c.295 0 .548-.11.759-.332.21-.221.316-.48.316-.775 0-.295-.105-.553-.316-.774A1.011 1.011 0 0 0 8 4.206c-.295 0-.548.11-.759.332-.21.22-.316.48-.316.774 0 .295.105.554.316.775.21.221.464.332.759.332z"/>
</svg>
