<svg xmlns="http://www.w3.org/2000/svg" viewBox="0 0 16 16">
    <path d="M15.813 13.406c.124.104.187.24.187.406a.6.6 0 0 1-.188.438l-1.562 1.563a.6.6 0 0 1-.438.187c-.187 0-.322-.063-.406-.188l-3.469-3.437a1.802 1.802 0 0 1-.5-1.219c0-.229.053-.469.157-.719l-.406-.406a5.587 5.587 0 0 1-3.532 1.25 5.87 5.87 0 0 1-2.14-.406A5.571 5.571 0 0 1 0 5.656c0-.77.14-1.495.422-2.172a5.616 5.616 0 0 1 1.234-1.828 5.143 5.143 0 0 1 1.86-1.25 5.83 5.83 0 0 1 4.25 0c.698.271 1.328.688 1.89 1.25a5.616 5.616 0 0 1 1.235 1.828c.28.677.421 1.401.421 2.172 0 1.313-.427 2.49-1.28 3.532l.405.406a1.717 1.717 0 0 1 1.016-.125c.344.062.651.219.922.469l3.438 3.468zM2.5 8.781a4.506 4.506 0 0 0 3.156 1.313A4.387 4.387 0 0 0 8.781 8.78a4.391 4.391 0 0 0 .985-4.797A4.35 4.35 0 0 0 8.78 2.5a4.043 4.043 0 0 0-1.453-.984 4.506 4.506 0 0 0-3.36 0 4.391 4.391 0 0 0-2.437 2.468 4.579 4.579 0 0 0 0 3.328c.209.542.531 1.032.969 1.47zm12.063 5.031l-3.032-3.03a.582.582 0 0 0-.375-.126.582.582 0 0 0-.375.125c-.083.084-.125.209-.125.375 0 .167.042.292.125.375l3.031 3.031.75-.75z"/>
</svg>
