<svg xmlns="http://www.w3.org/2000/svg" viewBox="0 0 16 16">
    <path d="M.676 2.952h14.648a.676.676 0 0 0 0-1.352H.676a.676.676 0 1 0 0 1.352m0 3.995h3.995a.676.676 0 1 0 0-1.352H.676a.676.676 0 1 0 0 1.352m8.884.645l1.51-1.509a.676.676 0 0 0-.957-.956L7.45 7.79a.676.676 0 0 0 0 .956l2.663 2.664a.676.676 0 0 0 .957-.956l-1.497-1.51h5.75a.676.676 0 0 0 0-1.352H9.56m-8.884 3.35h3.995a.676.676 0 0 0 0-1.352H.676a.676.676 0 0 0 0 1.352m0 3.995h14.648a.676.676 0 0 0 0-1.352H.676a.676.676 0 0 0 0 1.352"/>
</svg>
