<svg xmlns="http://www.w3.org/2000/svg" viewBox="0 0 16 16">
    <path d="M0 8.428A8.007 8.007 0 0 1 8.028.4a8.074 8.074 0 0 1 7.736 5.84c.581 2.468.161 4.966-2.068 6.113-1.568.736-2.881.645-4.88.025-1.688-.524-2.008-.555-2.318-.183-.015.02 0 .157.152.645.04.126.062.2.085.282.2.715.181 1.26-.237 1.762-.575.87-2.074.81-3.068.113A7.934 7.934 0 0 1 0 8.428m1.268 0a6.668 6.668 0 0 0 2.885 5.529c.489.342 1.198.37 1.331.17.124-.154.13-.31.03-.663a8.266 8.266 0 0 0-.074-.246c-.29-.926-.33-1.315.077-1.825.82-.984 1.413-.928 3.676-.226 1.723.535 2.755.607 3.944.049 1.531-.788 1.856-2.721 1.4-4.66a6.8 6.8 0 0 0-6.509-4.888 6.74 6.74 0 0 0-6.76 6.76M11.389 6.45a1.978 1.978 0 1 1 0 3.957 1.978 1.978 0 0 1 0-3.957m0 1.268a.71.71 0 1 0 0 1.42.71.71 0 0 0 0-1.42M9.137 3.214a.898.898 0 1 1 0 1.796.898.898 0 0 1 0-1.796m-3.38.95a.898.898 0 1 1 0 1.796.898.898 0 0 1 0-1.796M3.856 7.44a.898.898 0 1 1 0 1.796.898.898 0 0 1 0-1.796"/>
</svg>
