<svg xmlns="http://www.w3.org/2000/svg" viewBox="0 0 16 16">
    <path fill="#000" fill-rule="evenodd" d="M0 8.6A7.58 7.58 0 0 1 7.6 1a7.643 7.643 0 0 1 7.323 5.528c.55 2.336.153 4.702-1.958 5.787-1.484.697-2.727.611-4.618.024-1.6-.496-1.902-.525-2.195-.173-.015.019-.001.149.143.61.038.12.059.19.08.267.19.678.172 1.194-.223 1.668-.545.823-1.964.766-2.905.108A7.51 7.51 0 0 1 0 8.6m1.2 0a6.313 6.313 0 0 0 2.732 5.233c.462.324 1.133.351 1.26.161.117-.145.122-.292.028-.627a7.825 7.825 0 0 0-.07-.232c-.274-.877-.313-1.246.072-1.728.777-.932 1.338-.88 3.48-.214 1.631.506 2.609.574 3.734.046 1.45-.746 1.757-2.576 1.325-4.41A6.437 6.437 0 0 0 7.6 2.2a6.38 6.38 0 0 0-6.4 6.4m9.582-1.873a1.873 1.873 0 1 1 0 3.746 1.873 1.873 0 0 1 0-3.746m0 1.2a.673.673 0 1 0 0 1.346.673.673 0 0 0 0-1.346M8.65 3.664a.85.85 0 1 1 0 1.7.85.85 0 0 1 0-1.7m-3.2.9a.85.85 0 1 1 0 1.7.85.85 0 0 1 0-1.7m-1.8 3.1a.85.85 0 1 1 0 1.7.85.85 0 0 1 0-1.7"/>
</svg>
