<svg xmlns="http://www.w3.org/2000/svg" viewBox="0 0 20 20">
    <path fill="#000" fill-rule="evenodd" d="M14,4 L7.6,4 C4.512,4 2,6.512 2,9.6 C2,12.688 4.512,15.2 7.6,15.2 L12.996,15.2 C13.327,15.2 13.596,14.931 13.596,14.6 C13.596,14.269 13.327,14 12.996,14 L7.6,14 C5.174,14 3.2,12.026 3.2,9.6 C3.2,7.174 5.174,5.2 7.6,5.2 L14,5.2 C15.544,5.2 16.8,6.456 16.8,8 C16.8,9.544 15.544,10.8 14,10.8 L7.813,10.8 C7.152,10.8 6.614,10.262 6.614,9.6 C6.614,8.938 7.152,8.4 7.813,8.4 L12.996,8.4 C13.327,8.4 13.596,8.132 13.596,7.8 C13.596,7.469 13.327,7.2 12.996,7.2 L7.813,7.2 C6.49,7.2 5.414,8.277 5.414,9.6 C5.414,10.923 6.49,12 7.813,12 L14,12 C16.206,12 18,10.206 18,8 C18,5.794 16.206,4 14,4 L14,4 Z"/>
</svg>
