<svg xmlns="http://www.w3.org/2000/svg" viewBox="0 0 20 20">
    <path fill="#000" fill-rule="evenodd" d="M17.5784057,4.4785 L15.5204057,2.4215 C14.9584057,1.8595 14.0444057,1.8595 13.4834057,2.4215 L3.40540569,12.4995 C3.23040569,12.6745 3.10740569,12.8935 3.04840569,13.1315 L2.01840569,17.2545 C1.96640569,17.4585 2.02640569,17.6755 2.17540569,17.8245 C2.29040569,17.9385 2.44240569,17.9995 2.60040569,17.9995 C2.64840569,17.9995 2.69740569,17.9935 2.74540569,17.9815 L6.86540569,16.9515 C7.10640569,16.8925 7.32740569,16.7675 7.50140569,16.5915 L17.5784057,6.5165 C18.1394057,5.9545 18.1394057,5.0415 17.5784057,4.4785 L17.5784057,4.4785 L17.5784057,4.4785 L17.5784057,4.4785 Z M4.08440569,14.0165 L5.99940569,15.9315 L3.43040569,16.5735 L4.08440569,14.0165 L4.08440569,14.0165 L4.08440569,14.0165 L4.08440569,14.0165 Z M7.06440569,15.3005 L4.68240569,12.9185 L12.2434057,5.3585 L14.6374057,7.7525 L7.06440569,15.3005 L7.06440569,15.3005 L7.06440569,15.3005 L7.06440569,15.3005 Z M16.7294057,5.6675 L15.4874057,6.9055 L13.0914057,4.5095 L14.3324057,3.2705 C14.3784057,3.2235 14.4404057,3.1995 14.5014057,3.1995 C14.5634057,3.1995 14.6254057,3.2235 14.6714057,3.2705 L16.7294057,5.3265 C16.8234057,5.4205 16.8234057,5.5735 16.7294057,5.6675 L16.7294057,5.6675 L16.7294057,5.6675 L16.7294057,5.6675 Z"/>
</svg>
