<svg xmlns="http://www.w3.org/2000/svg" viewBox="0 0 20 20">
    <path fill="#000" fill-rule="evenodd" d="M17.578 4.479L15.52 2.42a1.441 1.441 0 0 0-2.037 0L3.405 12.5a1.355 1.355 0 0 0-.357.632l-1.03 4.123a.598.598 0 0 0 .727.727l4.12-1.03c.241-.06.462-.185.636-.36L17.578 6.517a1.444 1.444 0 0 0 0-2.038M4.084 14.017L6 15.931l-2.569.641.654-2.556m2.98 1.284l-2.382-2.383 7.561-7.56 2.394 2.395L7.064 15.3m9.665-9.633l-1.242 1.239-2.396-2.396 1.241-1.24a.237.237 0 0 1 .34 0l2.057 2.057a.241.241 0 0 1 0 .34"/>
</svg>
