<svg xmlns="http://www.w3.org/2000/svg" viewBox="0 0 16 16">
    <path d="M3.881 7.928l-.04-.078-.416-.977a.585.585 0 0 1 .13-.649l.546-.534.545-.536.124-.12c.198-.192.26-.282.265-.347a1.941 1.941 0 0 0-.116-.668l-.023-.086a4.877 4.877 0 0 1-.089-.369 17.373 17.373 0 0 1-.282-2.086c-.015-.208-.077-.272-.203-.3l-2.887.03-.106-.008c-.016-.003.004-.01-.062.064-.046.046-.06.079-.06.133 0 1.871.348 3.627 1.04 5.264a14.36 14.36 0 0 0 2.886 4.278 13.35 13.35 0 0 0 4.226 2.85c1.65.699 3.384 1.039 5.26 1.023.064.005.085-.002.07.018.076-.094.104-.161.104-.209v-2.459c0-.352-.086-.478-.352-.538-.22-.05-.29-.063-.715-.13a22.955 22.955 0 0 1-1.905-.405 1.913 1.913 0 0 0-.4-.093c-.159-.012-.295.084-.609.449l-.122.142c-.068.078-.124.14-.181.2-.133.136-.204.219-.346.396a5.968 5.968 0 0 1-.42.48.612.612 0 0 1-.749.1 32.385 32.385 0 0 1-1.718-1.096 8.615 8.615 0 0 1-.825-.654 11.623 11.623 0 0 1-.707-.695 7.838 7.838 0 0 1-.717-.736c-.22-.256-.43-.523-.632-.802a4.782 4.782 0 0 1-.34-.549 7.224 7.224 0 0 0-.174-.303zm1.22-.29c.13.236.193.34.276.453.185.254.376.497.575.73.186.219.389.426.643.658.226.24.45.46.672.66.22.199.456.386.71.563a18.66 18.66 0 0 0 1.206.785l.032-.04c.164-.203.256-.31.42-.478.04-.041.082-.088.137-.152l.118-.137c.548-.638.943-.915 1.617-.867.209.015.36.051.664.141a21.782 21.782 0 0 0 1.75.369c.448.072.542.09.792.146.86.194 1.287.825 1.287 1.693v2.46c0 .337-.13.657-.413.997-.285.28-.656.407-1.01.377-1.99.02-3.89-.354-5.702-1.121a14.569 14.569 0 0 1-4.612-3.113 15.56 15.56 0 0 1-3.127-4.64A14.55 14.55 0 0 1 0 1.398c0-.37.142-.703.368-.92.278-.343.67-.506 1.1-.455L4.409 0c.776.119 1.266.629 1.32 1.395a16.217 16.217 0 0 0 .334 2.232l.023.083c.135.49.179.727.154 1.063-.034.442-.227.723-.621 1.105l-.119.114-.544.536-.26.255.242.57c.047.077.088.15.164.286z"/>
</svg>
