<svg xmlns="http://www.w3.org/2000/svg" viewBox="0 0 16 16">
    <path fill="#000" fill-rule="evenodd" d="M3.15 6.969a12.175 12.175 0 0 0 1.06 1.747c.208.29.422.566.64.826.218.26.452.504.702.733.25.27.499.52.748.749.25.228.52.447.811.655a21.58 21.58 0 0 0 1.778 1.154l1.902-1.997a1.12 1.12 0 0 1 .406-.249c.166-.02.322.02.468.125a3.633 3.633 0 0 1 .717.187c.25.104.51.166.78.187.125.02.25.036.374.047.125.01.26.026.406.047a5.493 5.493 0 0 1 .842.062c.27-.042.478.031.623.218.167.208.25.416.25.624v3.057a.999.999 0 0 1-.25.623.751.751 0 0 1-.623.219 14.03 14.03 0 0 1-5.77-1.154 14.748 14.748 0 0 1-4.679-3.213 16.116 16.116 0 0 1-3.181-4.803A15.281 15.281 0 0 1 0 .887.81.81 0 0 1 .25.295a.622.622 0 0 1 .623-.25L3.93.014c.27.041.478.135.624.28.145.146.218.354.218.624 0 .125.005.255.016.39.01.135.015.276.015.421.02.146.042.281.062.406l.063.374c.02.146.041.286.062.421.021.135.052.265.094.39.041.125.078.255.109.39s.068.275.11.42c.062.084.072.23.03.437a2.525 2.525 0 0 1-.187.406L3.15 6.969z"/>
</svg>
