<svg xmlns="http://www.w3.org/2000/svg" viewBox="0 0 20 20">
    <path fill="#000" fill-rule="evenodd" d="M16,3 L4,3 C2.9,3 2,3.9 2,5 L2,15.4 C2,16.5 2.9,17.4 4,17.4 L16,17.4 C17.1,17.4 18,16.5 18,15.4 L18,5 C18,3.9 17.1,3 16,3 L16,3 Z M4,4.2 L16,4.2 C16.434,4.2 16.8,4.566 16.8,5 L16.8,15.13 L13.176,11.199 C13.063,11.076 12.902,11.006 12.735,11.006 C12.568,11.006 12.407,11.076 12.294,11.199 L11.086,12.509 L8.792,10.022 C8.566,9.776 8.137,9.776 7.91,10.022 L3.2,15.132 L3.2,5 C3.2,4.566 3.566,4.2 4,4.2 L4,4.2 Z M13.1129,10.2665 C14.1059,10.2665 14.9129,9.4585 14.9129,8.4665 C14.9129,7.4735 14.1059,6.6665 13.1129,6.6665 C12.1209,6.6665 11.3129,7.4735 11.3129,8.4665 C11.3129,9.4585 12.1209,10.2665 13.1129,10.2665 L13.1129,10.2665 Z"/>
</svg>
