<svg xmlns="http://www.w3.org/2000/svg" viewBox="0 0 16 16">
    <path d="M8.868 10.677V16H7.041v-5.323h-3.37c-.294 0-.52-.1-.677-.299-.158-.2-.226-.478-.205-.835l1.922-1.921.125-5.606h-.283a.745.745 0 0 1-.724-.284.807.807 0 0 1-.284-.693.892.892 0 0 1 .284-.724c.21-.189.451-.294.724-.315l6.898.031c.273 0 .514.105.724.315a.88.88 0 0 1 .284.693.943.943 0 0 1-.284.693.884.884 0 0 1-.346.22 2.34 2.34 0 0 1-.41.095h-.283l.157 5.607 1.921 1.89c0 .755-.304 1.133-.913 1.133l-3.307-.031-.126.031z"/>
</svg>
