<svg xmlns="http://www.w3.org/2000/svg" viewBox="0 0 16 16">
    <path d="M3.183 1.185A1.04 1.04 0 0 0 2.156 2.24V13.76c0 .582.46 1.054 1.027 1.054h9.634a1.04 1.04 0 0 0 1.027-1.054V2.24a1.04 1.04 0 0 0-1.027-1.054H3.183zM12.817 0A2.212 2.212 0 0 1 15 2.239V13.76A2.212 2.212 0 0 1 12.817 16H3.183A2.212 2.212 0 0 1 1 13.761V2.24C1 1.002 1.978 0 3.183 0h9.634zM7.47 6.703a.568.568 0 0 0-.742-.11l-2.81 1.81a.601.601 0 0 0-.181.818.57.57 0 0 0 .797.186l2.393-1.542 1.44 1.679c.18.209.477.261.714.127l3.05-1.728a.6.6 0 0 0 .227-.806.57.57 0 0 0-.785-.232L8.93 8.403z"/>
</svg>
