<svg xmlns="http://www.w3.org/2000/svg" viewBox="0 0 20 20">
    <path fill="#000" fill-rule="evenodd" d="M10.271028,10.271028 L16.7424693,10.271028 C17.0733953,10.271028 17.3420958,10.0023274 17.3420958,9.67140147 C17.3428029,9.33976839 17.0741024,9.07106781 16.7417622,9.07106781 L10.271028,9.07177492 L10.271028,2.60033366 C10.2717351,2.26870058 10.0030345,2 9.67069436,2 C9.33976839,2 9.07106781,2.26870058 9.07106781,2.59962655 L9.07106781,9.07106781 L2.59962655,9.07106781 C2.26870058,9.07106781 2,9.33976839 2,9.67069436 C2,9.83615735 2.06717514,9.98677109 2.17606959,10.0956655 C2.28425693,10.2038529 2.43487067,10.271028 2.60033366,10.271028 L9.07177492,10.271028 L9.07106781,16.7417622 C9.07106781,16.9072252 9.13824296,17.0578389 9.2471374,17.1667333 C9.35532474,17.2749207 9.50593848,17.3420958 9.67140147,17.3420958 C10.0023274,17.3420958 10.271028,17.0733953 10.271028,16.7424693 L10.271028,10.271028 L10.271028,10.271028 L10.271028,10.271028 Z"/>
</svg>
