<svg xmlns="http://www.w3.org/2000/svg" viewBox="0 0 16 16">
    <path fill="#000" fill-rule="evenodd" d="M.218 11.65a2.068 2.068 0 0 1-.124-.81V3.23c0-.582.114-.988.343-1.217.25-.25.675-.374 1.278-.374h9.42L.218 11.651zM15.782.89a.768.768 0 0 1 .202.562.838.838 0 0 1-.265.561l-1.56 1.404v7.423c0 .54-.114.977-.342 1.31-.25.27-.676.405-1.279.405h-2.09c-.104 0-.176.146-.218.437a6.22 6.22 0 0 0-.062.904c0 .354-.032.666-.094.936-.062.291-.177.437-.343.437-.062 0-.24-.073-.53-.219a5.092 5.092 0 0 1-.39-.218 77.298 77.298 0 0 1-.452-.28l-.5-.312-.498-.344-.5-.311-.498-.312-.468-.281-.406-.218a1.159 1.159 0 0 0-.592-.219H4.21l-2.87 2.651a.869.869 0 0 1-.53.188.747.747 0 0 1-.593-.25.79.79 0 0 1-.202-.577c.01-.218.098-.4.265-.546L14.628.828a.692.692 0 0 1 .577-.218c.218.02.41.114.577.28z"/>
</svg>
