<svg xmlns="http://www.w3.org/2000/svg" viewBox="0 0 20 20">
    <path fill="#000" fill-rule="evenodd" d="M5.944 14.71a.595.595 0 0 1-.461-.216L2.139 10.48a.6.6 0 0 1 0-.768l3.344-4.015a.597.597 0 0 1 .844-.077c.255.212.29.59.077.844L3.38 10.096l3.023 3.63a.598.598 0 0 1-.46.984M8.92 16.19a.6.6 0 0 1-.589-.716l2.157-10.99a.6.6 0 1 1 1.178.231L9.51 15.706a.6.6 0 0 1-.588.485m5.135-1.481a.598.598 0 0 1-.46-.983l3.023-3.631-3.023-3.632a.598.598 0 1 1 .921-.767l3.344 4.015a.598.598 0 0 1 0 .768l-3.344 4.014a.595.595 0 0 1-.461.216"/>
</svg>
