<svg xmlns="http://www.w3.org/2000/svg" viewBox="0 0 16 16">
    <path d="M3.944 12.71a.595.595 0 0 1-.461-.216L.139 8.48a.6.6 0 0 1 0-.768l3.344-4.015a.597.597 0 0 1 .844-.077c.255.212.29.59.077.844L1.38 8.096l3.023 3.63a.598.598 0 0 1-.46.984M6.92 14.19a.6.6 0 0 1-.589-.716L8.49 2.485a.6.6 0 1 1 1.178.231L7.51 13.706a.6.6 0 0 1-.588.485m5.135-1.481a.598.598 0 0 1-.46-.983l3.023-3.631-3.023-3.632a.598.598 0 1 1 .921-.767l3.344 4.015a.598.598 0 0 1 0 .768l-3.344 4.014a.595.595 0 0 1-.461.216"/>
</svg>
