<svg xmlns="http://www.w3.org/2000/svg" viewBox="0 0 16 16">
    <path d="M12 0a1.5 1.5 0 0 1 1.5 1.5V3h1A1.5 1.5 0 0 1 16 4.5v5a1.5 1.5 0 0 1-1.5 1.5h-1v3.5A1.5 1.5 0 0 1 12 16H4a1.5 1.5 0 0 1-1.5-1.5V11h-1A1.5 1.5 0 0 1 0 9.5v-5A1.5 1.5 0 0 1 1.5 3h1V1.5A1.5 1.5 0 0 1 4 0h8zm0 8.2H4a.3.3 0 0 0-.3.3v6a.3.3 0 0 0 .3.3h8a.3.3 0 0 0 .3-.3v-6a.3.3 0 0 0-.3-.3zm-3.6 3.6a.6.6 0 0 1 0 1.2H5.6a.6.6 0 0 1 0-1.2h2.8zm2-2.3a.6.6 0 0 1 0 1.2H5.6a.6.6 0 0 1 0-1.2h4.8zm4.1-5.3h-13a.3.3 0 0 0-.3.3v5a.3.3 0 0 0 .3.3h1V8.5A1.5 1.5 0 0 1 4 7h8a1.5 1.5 0 0 1 1.5 1.5v1.3h1a.3.3 0 0 0 .3-.3v-5a.3.3 0 0 0-.3-.3zm-2.5-3H4a.3.3 0 0 0-.3.3V3h8.6V1.5a.3.3 0 0 0-.3-.3z"/>
</svg>
