<svg xmlns="http://www.w3.org/2000/svg" viewBox="0 0 16 16">
    <path fill="#000" fill-rule="evenodd" d="M13.25 1H2.75C1.793 1 1 1.793 1 2.75v10.5c0 .957.793 1.75 1.75 1.75h10.5c.957 0 1.75-.793 1.75-1.75V2.75C15 1.793 14.207 1 13.25 1m-6.043 9.734c-.492.52-1.203.766-2.16.766-.957 0-1.668-.246-2.16-.766C2.203 10.105 1.875 9.176 1.875 8c0-1.203.328-2.133 1.012-2.734.492-.52 1.203-.766 2.16-.766.957 0 1.668.246 2.16.766.684.601 1.012 1.53 1.012 2.734 0 1.176-.328 2.105-1.012 2.734m-2.16-5.058c-.547 0-.984.191-1.313.601-.328.41-.492.985-.492 1.723 0 .738.164 1.313.492 1.723.329.41.766.601 1.313.601.547 0 .984-.191 1.312-.601.301-.41.465-.985.465-1.723 0-.738-.164-1.313-.465-1.723a1.584 1.584 0 0 0-1.312-.601m8.558 5.633h-1.312V8.328a1.13 1.13 0 0 0-.11-.574c-.136-.246-.355-.383-.71-.383-.438 0-.739.191-.903.547-.082.191-.11.437-.11.738v2.653H9.177V6.44h1.23v.711c.164-.246.328-.437.465-.547.274-.19.602-.3 1.012-.3.492 0 .902.136 1.23.41.328.246.492.683.492 1.312v3.282"/>
</svg>
