<svg xmlns="http://www.w3.org/2000/svg" viewBox="0 0 16 16">
    <path d="M6.978 3.375h8.497A.622.622 0 0 0 16 2.756a.631.631 0 0 0-.63-.63v.011H6.874a.622.622 0 0 0 .105 1.238zm0 5.246h5.35a.622.622 0 0 0 .525-.62.631.631 0 0 0-.63-.629h-5.35a.622.622 0 0 0-.525.62c0 .345.284.629.63.629zm8.393 3.997H6.873a.622.622 0 0 0-.525.619c0 .346.284.63.63.63h8.497a.622.622 0 0 0 .525-.62.631.631 0 0 0-.63-.63zm-12.38-1.9a.635.635 0 0 0 0-.198V5.274A2.351 2.351 0 0 0 4.67 3.02c0-1.301-1.06-2.36-2.36-2.36a2.362 2.362 0 0 0-.525 4.647v5.245a.452.452 0 0 0 0 .168 2.352 2.352 0 1 0 1.206 0zm-1.73-7.752c0-.577.471-1.049 1.048-1.049a1.052 1.052 0 0 1 0 2.098c-.577 0-1.049-.472-1.049-1.049zm2.097 10.071a1.103 1.103 0 1 1-1.049-1.154h.053c.577.032 1.028.525.996 1.102v.052z"/>
</svg>
