<svg xmlns="http://www.w3.org/2000/svg" viewBox="0 0 16 16">
    <path d="M7.988 16c-.294 0-.587-.067-.85-.203l-6.814-3.53A.601.601 0 0 1 .876 11.2l6.814 3.53a.66.66 0 0 0 .595 0l6.814-3.53a.601.601 0 0 1 .552 1.067l-6.814 3.53a1.86 1.86 0 0 1-.849.203m0-3.322c-.294 0-.587-.067-.85-.203L.324 8.945a.599.599 0 1 1 .552-1.066l6.814 3.53a.657.657 0 0 0 .595 0l6.814-3.53a.599.599 0 1 1 .552 1.065l-6.814 3.531a1.86 1.86 0 0 1-.849.203m0-3.193c-.281 0-.562-.065-.812-.195L.801 5.987A1.422 1.422 0 0 1 0 4.742c0-.512.307-.989.801-1.245L7.176.194a1.794 1.794 0 0 1 1.624 0l6.375 3.303c.494.256.8.733.8 1.245 0 .512-.306.99-.8 1.245L8.8 9.29c-.25.13-.531.195-.812.195m0-8.286a.58.58 0 0 0-.261.061L1.352 4.563c-.092.048-.152.118-.152.18 0 .06.06.13.152.178l6.375 3.303c.157.08.365.08.522 0l6.375-3.303c.092-.048.151-.118.151-.179 0-.06-.059-.13-.151-.179L8.249 1.26a.58.58 0 0 0-.261-.06"/>
</svg>
