<svg xmlns="http://www.w3.org/2000/svg" viewBox="0 0 16 16">
    <path d="M10.53 13.431a.6.6 0 1 1 1.2 0c0 1.14-.924 2.068-2.06 2.068H2.09a2.06 2.06 0 0 1-2.06-2.068V5.967C.03 4.827.954 3.9 2.09 3.9h2.49a.6.6 0 1 1 0 1.2H2.09c-.472 0-.86.39-.86.868v7.464a.86.86 0 0 0 .86.868h7.58c.472 0 .86-.39.86-.868zM5.784 2.345l-1.932 7.21a.86.86 0 0 0 .606 1.06l7.322 1.963a.866.866 0 0 0 1.056-.616l1.931-7.21a.86.86 0 0 0-.606-1.06L6.84 1.728a.866.866 0 0 0-1.056.616zm-1.159-.31A2.066 2.066 0 0 1 7.15.57l7.322 1.962a2.06 2.06 0 0 1 1.454 2.53l-1.931 7.21a2.066 2.066 0 0 1-2.525 1.465l-7.322-1.962a2.06 2.06 0 0 1-1.455-2.53l1.932-7.21zM6.91 6.848a.6.6 0 0 1-.57-1.056L8.61 4.57a.6.6 0 0 1 .795.213l.785 1.273 2.225-1.199a.6.6 0 0 1 .57 1.057L10.26 7.38a.6.6 0 0 1-.795-.213L8.68 5.894l-1.771.954zm-.835 1.458l3.912 1.049a.6.6 0 1 1-.31 1.159L5.764 9.465a.6.6 0 1 1 .31-1.159z"/>
</svg>
