<svg xmlns="http://www.w3.org/2000/svg" viewBox="0 0 16 16">
    <path d="M7.149 12.487L.324 8.967a.599.599 0 0 1 .553-1.062l6.825 3.518a.66.66 0 0 0 .596 0l6.824-3.518a.601.601 0 0 1 .81.257.596.596 0 0 1-.257.805l-6.824 3.52a1.87 1.87 0 0 1-1.702 0zm0 3.31L.324 12.28a.598.598 0 0 1-.256-.808.602.602 0 0 1 .81-.256l6.824 3.519a.664.664 0 0 0 .596 0l6.824-3.519a.598.598 0 1 1 .553 1.064l-6.824 3.519a1.87 1.87 0 0 1-1.702 0zm.971-11.46a.7.7 0 1 1-.003-1.399.7.7 0 0 1 .003 1.399zm6.535.6a.199.199 0 0 0 0-.354L8.091 1.218a.201.201 0 0 0-.183 0L1.346 4.562a.199.199 0 0 0 0 .355l4.226 2.178c.295.152.41.513.258.807a.602.602 0 0 1-.81.256L.793 5.978a1.392 1.392 0 0 1 .006-2.481L7.36.153c.402-.205.88-.204 1.281.002l6.564 3.365a1.392 1.392 0 0 1 0 2.481L8.567 9.404A.804.804 0 0 1 7.4 8.695l.06-2.962a.6.6 0 0 1 1.202 0l-.06 2.308 6.054-3.103z"/>
</svg>
