<svg xmlns="http://www.w3.org/2000/svg" viewBox="0 0 16 16">
    <path d="M8.535 8.757h.009-.009zm7.383 2.7a.601.601 0 0 1-.257.81l-6.814 3.53a1.86 1.86 0 0 1-1.699 0l-6.814-3.53A.601.601 0 0 1 .886 11.2L7.7 14.73a.66.66 0 0 0 .595 0l6.814-3.53a.602.602 0 0 1 .809.257zm0-3.32a.6.6 0 0 1-.257.807l-6.814 3.531a1.86 1.86 0 0 1-1.699 0L.334 8.945a.599.599 0 1 1 .552-1.066L7.7 11.41a.657.657 0 0 0 .595 0l6.814-3.53a.599.599 0 0 1 .809.257zM8.81.193l6.375 3.303c.494.256.8.733.8 1.245 0 .512-.306.99-.8 1.245L8.81 9.29a1.764 1.764 0 0 1-1.624 0L.811 5.987A1.422 1.422 0 0 1 .01 4.742c0-.512.307-.989.801-1.245L7.186.194a1.794 1.794 0 0 1 1.624 0z"/>
</svg>
