<svg xmlns="http://www.w3.org/2000/svg" viewBox="0 0 16 16">
    <path d="M14.937 13.28a2.106 2.106 0 0 0-.888-1.187c-.095-.063-.127-.125-.127-.219v-6.5a3.51 3.51 0 0 0-.412-1.78c-.476-.75-1.205-1.157-2.061-1.375-.317-.063-.634-.063-.951-.094h-.92V0l-.095.094-3.076 3.03s-.031 0-.063.032c0-.094-.032-.187-.032-.281A2.133 2.133 0 0 0 4.22 1.062a2.178 2.178 0 0 0-2.188 1.75c0 .032-.032.063-.032.125v.532l.095.312c.127.5.444.875.888 1.187.063.032.095.094.095.188v6.718c0 .063-.032.156-.095.188a2.1 2.1 0 0 0-.951 1.5l-.032.03v.532c0 .031.032.094.032.125a2.208 2.208 0 0 0 1.997 1.75 2.229 2.229 0 0 0 2.188-1.469 2.09 2.09 0 0 0-.856-2.437c-.095-.063-.095-.125-.095-.219V5.187c0-.125.032-.187.127-.25.475-.312.76-.75.887-1.312.032-.125.064-.25.064-.438L9.61 6.375V4.25h1.141c.571.031 1.015.562 1.015 1.187v6.437c0 .125-.063.188-.127.219a2.09 2.09 0 0 0-.856 2.406c.285.875 1.11 1.5 2.06 1.5.952 0 1.808-.625 2.062-1.531.063-.094.063-.219.095-.344v-.531c0-.094-.032-.219-.063-.313zm-9.671.594c0 .594-.507 1.062-1.11 1.062a1.109 1.109 0 0 1-1.078-1.093c0-.594.507-1.063 1.11-1.063.57 0 1.078.5 1.078 1.094zm7.578 1.062a1.109 1.109 0 0 1-1.078-1.093c0-.594.475-1.063 1.078-1.063.602 0 1.078.5 1.078 1.094 0 .594-.476 1.062-1.078 1.062zM4.188 4.25c-.603 0-1.11-.469-1.11-1.063 0-.593.507-1.062 1.11-1.062.57 0 1.078.469 1.078 1.062 0 .594-.507 1.063-1.078 1.063z"/>
</svg>
