<?xml version="1.0" encoding="UTF-8" standalone="no"?>
<svg width="20px" height="20px" viewBox="0 0 20 20" version="1.1" xmlns="http://www.w3.org/2000/svg" xmlns:xlink="http://www.w3.org/1999/xlink">
    <defs></defs>
    <g id="Icons" stroke="none" stroke-width="1" fill="none" fill-rule="evenodd">
        <g id="Web" transform="translate(-97.000000, -1036.000000)" fill="#000000">
            <g id="brand/qq" transform="translate(97.000000, 1036.000000)">
                <polygon id="Shape" points="10.3684303 3 10.1842463 3.0273 10.0000622 3.05474 9.81587812 3.08204 9.60527232 3.136766 9.42110173 3.19138 9.26319117 3.24612 9.07899363 3.30072 8.92109654 3.35546 8.73691247 3.4375 8.57900192 3.51954 8.44736488 3.60158 8.28944085 3.683606 8.15795201 3.79296 8.0263015 3.9023 7.92108618 4.01178 7.73690211 4.17572 7.60526507 4.3125 7.47376276 4.47658 7.34212572 4.64066 7.21062341 4.777286 7.10525988 4.94138 7.00003109 5.10546 6.97375758 5.1602 6.92107581 5.242226 6.81584702 5.37888 6.76316526 5.54296 6.68420998 5.67974 6.63166295 5.81638 6.57898119 5.95316 6.52629942 6.0898 6.4737524 6.19928 6.44747888 6.335906 6.3685236 6.55474 6.34210188 6.77342 6.31584184 6.9375 6.28956833 7.10158 6.28956833 7.4023 6.23688656 7.45704 6.21061305 7.51178 6.1842048 7.56638 6.15793128 7.621106 6.13165777 7.75776 6.07896253 7.86724 6.07896253 7.97658 6.07896253 8.05862 6.07896253 8.14066 6.00002073 8.2773 5.92106545 8.38678 5.89479194 8.49612 5.84211017 8.60546 5.84211017 8.7148 5.81582318 8.79684 5.81582318 9.04296 5.81582318 9.0977 5.84211017 9.20704 5.86851842 9.28908 5.81582318 9.31638 5.68419962 9.42572 5.5264238 9.5898 5.42106027 9.67184 5.31583148 9.75388 5.26328445 9.83592 5.21060268 9.89066 5.07896564 10.0273 4.94746334 10.16408 4.86850806 10.30072 4.76326579 10.4648 4.65791574 10.60158 4.55268695 10.76566 4.47373167 10.92974 4.39477639 11.09368 4.31580764 11.25776 4.26327408 11.39454 4.21059232 11.558606 4.15791056 11.7227 4.13163704 11.88678 4.07895528 12.02342 4.05266829 12.1602 4.02640825 12.29684 4.02640825 12.43362 4 12.67974 4 13.0352 4.02640825 13.14454 4.05266829 13.33592 4.05266829 13.41796 4.07895528 13.4727 4.10536353 13.55474 4.13163704 13.60934 4.21059232 13.74612 4.26327408 13.80072 4.36850288 13.77342 4.47373167 13.74612 4.55268695 13.71868 4.65791574 13.664066 4.73687102 13.60934 4.78955278 13.5273 4.89478157 13.44526 4.94746334 13.36322 5.02640514 13.28132 5.07896564 13.19928 5.13164741 13.14454 5.15792092 13.0625 5.2368762 12.925706 5.26328445 12.84368 5.28954449 12.78908 5.36851324 12.78908 5.39478675 12.95316 5.44746852 13.0898 5.50001555 13.25388 5.55268384 13.36322 5.60537907 13.5 5.68419962 13.60934 5.73688138 13.74612 5.78956314 13.85546 5.84211017 13.9375 5.89479194 14.04684 6.05270249 14.210906 6.15793128 14.3477 6.28956833 14.484326 6.39479712 14.59368 6.50002591 14.67572 6.63166295 14.8125 6.71061823 14.8398 6.65793647 14.89454 6.55270767 14.89454 6.44747888 14.92184 6.3685236 14.92184 6.28956833 14.949266 6.21061305 14.97658 6.13165777 15.00388 6.05270249 15.03132 6.00002073 15.08592 5.92106545 15.08592 5.89479194 15.14066 5.84211017 15.16796 5.78956314 15.19526 5.73688138 15.2773 5.71060787 15.33204 5.63165259 15.44138 5.60537907 15.52342 5.57897082 15.57816 5.57897082 15.63276 5.57897082 15.769526 5.57897082 15.82428 5.57897082 15.87888 5.55268384 15.93362 5.55268384 15.98822 5.57897082 16.042946 5.57897082 16.0977 5.60537907 16.20704 5.6579261 16.28908 5.68419962 16.34368 5.73688138 16.37112 5.76315489 16.42572 5.81582318 16.45316 5.89479194 16.5352 6.00002073 16.589786 6.13165777 16.64454 6.23688656 16.69928 6.3685236 16.75388 6.52629942 16.80862 6.65793647 16.83592 6.81584702 16.89066 6.97375758 16.91796 7.15794165 16.91796 7.31583873 16.94526 7.63167332 17 7.97376794 17 8.57900192 17 8.73691247 17 8.86841478 16.9727 8.97377831 16.9727 9.10528061 16.94526 9.28946468 16.91796 9.42110173 16.89066 9.52633052 16.83592 9.76319635 16.75388 9.86841167 16.69928 9.97365394 16.64454 10.131551 16.5625 10.289475 16.48046 10.3946904 16.39842 10.4736591 16.34368 10.6052962 16.34368 10.710525 16.34368 10.894709 16.37112 11.0526196 16.37112 11.1315749 16.37112 11.1842566 16.39842 11.2894719 16.45316 11.3947142 16.48046 11.5788983 16.5352 11.7894906 16.61724 12.0000829 16.67184 12.184267 16.72658 12.3947246 16.781306 12.6053034 16.80862 12.8157745 16.83592 13.0263668 16.863206 13.2105509 16.89066 13.3947215 16.89066 13.9736954 16.89066 14.1578795 16.863206 14.31579 16.863206 14.4999741 16.83592 14.6578846 16.80862 14.8157817 16.75388 14.9737058 16.72658 15.0262528 16.69928 15.1052081 16.67184 15.2368451 16.61724 15.3420604 16.5625 15.4473027 16.50776 15.5526662 16.45316 15.657895 16.37112 15.7368503 16.28908 15.7893973 16.23434 15.8420791 16.1523 15.8683391 16.07026 15.8947608 16.01566 15.9210344 15.96092 15.9210344 15.90632 15.9210344 15.79684 15.8947608 15.74224 15.8683391 15.6602 15.8420791 15.60546 15.8158056 15.55072 15.7631238 15.46868 15.7368503 15.41408 15.657895 15.35934 15.5526662 15.25 15.4210157 15.16796 15.2631186 15.08592 15.1316163 14.97658 14.8157817 14.8125 14.7368399 14.7852 14.6841582 14.73046 14.8420687 14.56638 14.921024 14.484326 14.9737058 14.4023 15.0789345 14.23822 15.1841633 14.07428 15.2631186 13.9375 15.3684821 13.80072 15.4737109 13.5 15.5526662 13.25388 15.6052132 13.0898 15.657895 13.0352 15.657895 12.98046 15.7368503 12.98046 15.8158056 13.14454 15.8947608 13.30862 15.9472944 13.41796 15.9999896 13.4727 16.0526579 13.58204 16.1316132 13.69138 16.1841737 13.74612 16.210582 13.80072 16.3158107 13.88276 16.4210395 13.9102 16.4999948 13.9102 16.5526766 13.88276 16.6052236 13.85546 16.6841789 13.77342 16.7104524 13.71868 16.7631342 13.69138 16.7894077 13.60934 16.8158159 13.55474 16.8420894 13.4727 16.868363 13.41796 16.9210312 13.25388 16.9473182 13.0898 16.9737265 12.89842 17 12.78908 17 12.46092 16.9737265 12.24224 16.9210312 11.99612 16.8947712 11.75 16.8420894 11.61322 16.8158159 11.47658 16.7631342 11.3398 16.7368607 11.20316 16.6841789 11.06638 16.6052236 10.92974 16.5262683 10.71092 16.4210395 10.51954 16.3420843 10.32816 16.263129 10.16408 16.1579002 9.999986 16.1052184 9.86322 15.9472944 9.67184 15.7893973 9.39842 15.7368503 9.31638 15.7368503 9.26178 15.7631238 9.179726 15.7893973 9.0977 15.8420791 8.93362 15.8420791 8.85158 15.8420791 8.74224 15.8683391 8.6875 15.8683391 8.60546 15.8420791 8.52342 15.8420791 8.46868 15.8158056 8.33204 15.7893973 8.19526 15.7631238 8.08592 15.7105768 7.94928 15.657895 7.86724 15.6052132 7.75776 15.5526662 7.67572 15.4737109 7.56638 15.4473027 7.45704 15.4210157 7.21092 15.3947557 7.04684 15.3684821 6.85546 15.3158004 6.63678 15.2631186 6.39066 15.2368451 6.25388 15.2105716 6.14454 15.1578764 6.00776 15.1316163 5.87112 15.0789345 5.73434 15.0262528 5.5977 14.894737 5.32428 14.8420687 5.2148 14.7631134 5.050706 14.6841582 4.94138 14.6052029 4.777286 14.4999741 4.64066 14.4210188 4.53132 14.2895165 4.39454 14.1841395 4.25776 14.0789242 4.14842 13.9474219 4.03908 13.8684666 3.98434 13.7895113 3.92974 13.6578608 3.82026 13.4999637 3.71092 13.3157662 3.60158 13.1315821 3.51954 12.9474115 3.4375 12.7632274 3.35546 12.5789086 3.27342 12.3684511 3.21868 12.184267 3.16408 11.9736747 3.10934 11.7894906 3.08204 11.5788983 3.05474 11.3947142 3.0273 11.1842566 3"></polygon>
            </g>
        </g>
    </g>
</svg>