<svg xmlns="http://www.w3.org/2000/svg" viewBox="0 0 16 16">
    <path fill="#000" fill-rule="evenodd" d="M8.368 1l-.184.027L8 1.055l-.184.027-.211.055-.184.054-.158.055-.184.055-.158.054-.184.083-.158.082-.132.082-.158.082-.131.109-.132.109-.105.11-.184.164-.132.137-.131.164-.132.164-.131.136-.106.164L5 3.105l-.026.055-.053.082-.105.137-.053.164-.079.137-.052.136-.053.137-.053.137-.052.109-.027.137-.078.219-.027.218-.026.165-.026.164v.3l-.053.055-.026.055-.027.054-.026.055-.026.137-.053.109v.274L4 6.277l-.079.11-.026.109-.053.109v.11l-.026.082v.301l.026.109.027.082-.053.027-.132.11-.158.164-.105.082-.105.082-.053.082-.052.055-.132.136-.132.137-.078.137-.106.164-.105.137-.105.164-.079.164-.079.164-.079.164-.053.137-.052.164-.053.164-.026.164-.053.136-.026.137-.027.137v.137L2 10.68v.355l.026.11.027.191v.082l.026.055.026.082.027.054.079.137.052.055.106-.028.105-.027.079-.027.105-.055.079-.055.053-.082.105-.082.052-.082.079-.082.053-.082.053-.054.026-.082.079-.137.026-.082.027-.055h.079l.026.164.052.137.053.164.053.109.052.137.079.109.053.137.053.109.052.083.053.109.158.164.105.137.132.136.105.11.105.082.132.137.079.027-.053.055h-.105l-.106.027h-.078l-.079.027-.079.028-.079.027-.079.027-.053.055h-.079l-.026.055-.053.027-.052.027-.053.082-.026.055-.079.109-.027.082-.026.055v.301l-.026.055v.054l.026.055v.055l.026.109.053.082.026.055.053.027.026.055.053.027.079.082.105.055.132.055.105.054.132.055.157.055.132.027.158.055.158.027h.184l.158.027.316.055h1.105l.131-.027h.106l.131-.028.184-.027.132-.027.105-.055.237-.082.105-.055.106-.054.158-.082.157-.083.106-.082.079-.054h.237l.184.027h.237l.052.027.105.055.106.027.184.055.21.082.211.055.184.055.211.054.21.028.211.027.21.027.185.028H11.974l.184-.028h.158l.184-.027.158-.027.158-.055.158-.027.052-.028.079-.027.132-.055.105-.054.105-.055.106-.055.105-.082.079-.082.052-.055.053-.082.026-.082.027-.054.026-.055v-.164l-.026-.055-.027-.082-.026-.055-.026-.054-.053-.082-.026-.055-.079-.055-.105-.109-.132-.082-.158-.082-.131-.109-.316-.164-.079-.028-.053-.055.158-.164.079-.082.053-.082.105-.164.105-.164.079-.136.105-.137.106-.301.079-.246.052-.164.053-.055v-.055h.079l.079.165.079.164.052.109.053.055.053.109.079.109.052.055.027.055.105.082.105.027h.079l.053-.027.052-.028.079-.082.026-.054.053-.028.026-.082.027-.054.026-.082.026-.055.053-.164.026-.164.027-.192.026-.109v-.328l-.026-.219-.053-.246-.026-.246-.053-.137-.026-.136-.053-.137-.026-.137-.053-.137-.079-.136-.079-.219-.105-.191-.079-.192-.079-.164L14.158 8l-.053-.137-.158-.191-.158-.274-.052-.082v-.054l.026-.082.026-.082.053-.164v-.192l.026-.054v-.083l-.026-.082v-.054l-.026-.137-.027-.137-.026-.109-.052-.137-.053-.082-.053-.109-.052-.082-.079-.11-.027-.109-.026-.246-.026-.164-.027-.192-.052-.218-.053-.246-.026-.137-.026-.109-.053-.137-.026-.137-.053-.137-.053-.136-.131-.274-.053-.109-.079-.164-.079-.11-.079-.164-.105-.136-.079-.11-.131-.136-.106-.137-.105-.11-.132-.109-.079-.055-.078-.054-.132-.11-.158-.109-.184-.109-.184-.082-.185-.082-.184-.083-.184-.082-.211-.054-.184-.055-.21-.055-.185-.027-.21-.027-.184-.028L9.184 1z"/>
</svg>
