<svg xmlns="http://www.w3.org/2000/svg" viewBox="0 0 20 20">
    <path fill="#000" fill-rule="evenodd" d="M8.68333333,18.2 C9.01470418,18.2 9.28333333,17.9313708 9.28333333,17.6 L9.28333333,11.5166667 C9.28333333,11.1852958 9.01470418,10.9166667 8.68333333,10.9166667 L2.6,10.9166667 C2.26862915,10.9166667 2,11.1852958 2,11.5166667 L2,17.6 C2,17.9313708 2.26862915,18.2 2.6,18.2 L8.68333333,18.2 L8.68333333,18.2 Z M3.221521,16.9999998 L3.20000002,12.1277099 L8.08333353,12.1166667 L8.08333353,16.9999998 L3.221521,16.9999998 L3.221521,16.9999998 Z M6.18333333,15.7 C6.51470418,15.7 6.78333333,15.4313708 6.78333333,15.1 L6.78333333,14.0166667 C6.78333333,13.6852958 6.51470418,13.4166667 6.18333333,13.4166667 L5.1,13.4166667 C4.76862915,13.4166667 4.5,13.6852958 4.5,14.0166667 L4.5,15.1 C4.5,15.4313708 4.76862915,15.7 5.1,15.7 L6.18333333,15.7 L6.18333333,15.7 Z M17.6,17 L11.35,17 C11.0186292,17 10.75,17.2686292 10.75,17.6 C10.75,17.9313708 11.0186292,18.2 11.35,18.2 L17.6,18.2 C17.9313708,18.2 18.2,17.9313708 18.2,17.6 C18.2,17.2686292 17.9313708,17 17.6,17 L17.6,17 Z M15.1,15.7 C15.4313708,15.7 15.7,15.4313708 15.7,15.1 L15.7,14.0166667 C15.7,13.6852958 15.4313708,13.4166667 15.1,13.4166667 L14.0166667,13.4166667 C13.6852958,13.4166667 13.4166667,13.6852958 13.4166667,14.0166667 L13.4166667,15.1 C13.4166667,15.4313708 13.6852958,15.7 14.0166667,15.7 L15.1,15.7 L15.1,15.7 Z M16.9999999,12.1166667 L17,14.1833333 C17,14.5147042 17.2686292,14.7833333 17.6,14.7833333 C17.9313708,14.7833333 18.2,14.5147042 18.2,14.1833333 L18.2,11.5166667 C18.2,11.1852958 17.9313708,10.9166667 17.6,10.9166667 L14.2666667,10.9166667 C13.9352958,10.9166667 13.6666667,11.1852958 13.6666667,11.5166667 C13.6666667,11.8480375 13.9352958,12.1166667 14.2666667,12.1166667 L16.9999999,12.1166667 L16.9999999,12.1166667 Z M8.68333333,9.28333333 C9.01470418,9.28333333 9.28333333,9.01470418 9.28333333,8.68333333 L9.28333333,2.6 C9.28333333,2.26862915 9.01470418,2 8.68333333,2 L2.6,2 C2.26862915,2 2,2.26862915 2,2.6 L2,8.68333333 C2,9.01470418 2.26862915,9.28333333 2.6,9.28333333 L8.68333333,9.28333333 L8.68333333,9.28333333 Z M3.21920166,8.08333311 L3.20000002,3.20000002 L8.08333311,3.20000002 L8.08333311,8.08333311 L3.21920166,8.08333311 L3.21920166,8.08333311 Z M6.18333333,6.78333333 C6.51470418,6.78333333 6.78333333,6.51470418 6.78333333,6.18333333 L6.78333333,5.1 C6.78333333,4.76862915 6.51470418,4.5 6.18333333,4.5 L5.1,4.5 C4.76862915,4.5 4.5,4.76862915 4.5,5.1 L4.5,6.18333333 C4.5,6.51470418 4.76862915,6.78333333 5.1,6.78333333 L6.18333333,6.78333333 L6.18333333,6.78333333 Z M17.6,9.28333333 C17.9313708,9.28333333 18.2,9.01470418 18.2,8.68333333 L18.2,2.6 C18.2,2.26862915 17.9313708,2 17.6,2 L11.5166667,2 C11.1852958,2 10.9166667,2.26862915 10.9166667,2.6 L10.9166667,8.68333333 C10.9166667,9.01470418 11.1852958,9.28333333 11.5166667,9.28333333 L17.6,9.28333333 L17.6,9.28333333 Z M12.1166667,8.08333311 L12.1166667,3.21987305 L16.9999998,3.20000002 L16.9999998,8.08333311 L12.1166667,8.08333311 L12.1166667,8.08333311 Z M15.1,6.78333333 C15.4313708,6.78333333 15.7,6.51470418 15.7,6.18333333 L15.7,5.1 C15.7,4.76862915 15.4313708,4.5 15.1,4.5 L14.0166667,4.5 C13.6852958,4.5 13.4166667,4.76862915 13.4166667,5.1 L13.4166667,6.18333333 C13.4166667,6.51470418 13.6852958,6.78333333 14.0166667,6.78333333 L15.1,6.78333333 L15.1,6.78333333 Z"/>
</svg>
