<svg xmlns="http://www.w3.org/2000/svg" viewBox="0 0 20 20">
    <path fill="#000" fill-rule="evenodd" d="M8.683 18.2a.6.6 0 0 0 .6-.6v-6.083a.6.6 0 0 0-.6-.6H2.6a.6.6 0 0 0-.6.6V17.6a.6.6 0 0 0 .6.6h6.083M3.222 17L3.2 12.128l4.883-.011V17H3.222m2.961-1.3a.6.6 0 0 0 .6-.6v-1.083a.6.6 0 0 0-.6-.6H5.1a.6.6 0 0 0-.6.6V15.1a.6.6 0 0 0 .6.6h1.083M17.6 17h-6.25a.6.6 0 0 0 0 1.2h6.25a.6.6 0 0 0 0-1.2m-2.5-1.3a.6.6 0 0 0 .6-.6v-1.083a.6.6 0 0 0-.6-.6h-1.083a.6.6 0 0 0-.6.6V15.1a.6.6 0 0 0 .6.6H15.1m1.9-3.583v2.066a.6.6 0 1 0 1.2 0v-2.666a.6.6 0 0 0-.6-.6h-3.333a.6.6 0 1 0 0 1.2H17M8.683 9.283a.6.6 0 0 0 .6-.6V2.6a.6.6 0 0 0-.6-.6H2.6a.6.6 0 0 0-.6.6v6.083a.6.6 0 0 0 .6.6h6.083m-5.464-1.2L3.2 3.2h4.883v4.883H3.22m2.964-1.3a.6.6 0 0 0 .6-.6V5.1a.6.6 0 0 0-.6-.6H5.1a.6.6 0 0 0-.6.6v1.083a.6.6 0 0 0 .6.6h1.083m11.417 2.5a.6.6 0 0 0 .6-.6V2.6a.6.6 0 0 0-.6-.6h-6.083a.6.6 0 0 0-.6.6v6.083a.6.6 0 0 0 .6.6H17.6m-5.483-1.2V3.22L17 3.2v4.883h-4.883m2.983-1.3a.6.6 0 0 0 .6-.6V5.1a.6.6 0 0 0-.6-.6h-1.083a.6.6 0 0 0-.6.6v1.083a.6.6 0 0 0 .6.6H15.1"/>
</svg>
