<svg xmlns="http://www.w3.org/2000/svg" viewBox="0 0 16 16">
    <path fill="#000" fill-rule="evenodd" d="M6.683 16.2a.6.6 0 0 0 .6-.6V9.517a.6.6 0 0 0-.6-.6H.6a.6.6 0 0 0-.6.6V15.6a.6.6 0 0 0 .6.6h6.083M1.222 15L1.2 10.128l4.883-.011V15H1.222m2.961-1.3a.6.6 0 0 0 .6-.6v-1.083a.6.6 0 0 0-.6-.6H3.1a.6.6 0 0 0-.6.6V13.1a.6.6 0 0 0 .6.6h1.083M15.6 15H9.35a.6.6 0 0 0 0 1.2h6.25a.6.6 0 0 0 0-1.2m-2.5-1.3a.6.6 0 0 0 .6-.6v-1.083a.6.6 0 0 0-.6-.6h-1.083a.6.6 0 0 0-.6.6V13.1a.6.6 0 0 0 .6.6H13.1m1.9-3.583v2.066a.6.6 0 1 0 1.2 0V9.517a.6.6 0 0 0-.6-.6h-3.333a.6.6 0 1 0 0 1.2H15M6.683 7.283a.6.6 0 0 0 .6-.6V.6a.6.6 0 0 0-.6-.6H.6a.6.6 0 0 0-.6.6v6.083a.6.6 0 0 0 .6.6h6.083m-5.464-1.2L1.2 1.2h4.883v4.883H1.22m2.964-1.3a.6.6 0 0 0 .6-.6V3.1a.6.6 0 0 0-.6-.6H3.1a.6.6 0 0 0-.6.6v1.083a.6.6 0 0 0 .6.6h1.083m11.417 2.5a.6.6 0 0 0 .6-.6V.6a.6.6 0 0 0-.6-.6H9.517a.6.6 0 0 0-.6.6v6.083a.6.6 0 0 0 .6.6H15.6m-5.483-1.2V1.22L15 1.2v4.883h-4.883m2.983-1.3a.6.6 0 0 0 .6-.6V3.1a.6.6 0 0 0-.6-.6h-1.083a.6.6 0 0 0-.6.6v1.083a.6.6 0 0 0 .6.6H13.1"/>
</svg>
