<svg xmlns="http://www.w3.org/2000/svg" viewBox="0 0 16 16">
    <path d="M6.6 16a.593.593 0 0 0 .593-.593V9.4a.593.593 0 0 0-.592-.592H.593A.593.593 0 0 0 0 9.399v6.008c0 .328.265.593.593.593H6.6m-5.395-1.185l-.02-4.812 4.822-.011v4.823H1.206m2.926-1.284a.593.593 0 0 0 .592-.593v-1.07a.593.593 0 0 0-.592-.592h-1.07a.593.593 0 0 0-.593.592v1.07c0 .328.265.593.593.593h1.07m11.275 1.284H9.235a.593.593 0 0 0 0 1.185h6.172a.593.593 0 1 0 0-1.185m-2.469-1.284a.593.593 0 0 0 .593-.593v-1.07a.593.593 0 0 0-.593-.592h-1.07a.593.593 0 0 0-.592.592v1.07c0 .328.265.593.592.593h1.07m1.877-3.54v2.042a.593.593 0 0 0 1.185 0V9.399a.593.593 0 0 0-.593-.592h-3.292a.593.593 0 0 0 0 1.185h2.7M6.6 7.193a.593.593 0 0 0 .592-.592V.593A.593.593 0 0 0 6.601 0H.593A.593.593 0 0 0 0 .593V6.6c0 .327.265.592.593.592H6.6M1.204 6.008l-.019-4.823h4.823v4.823H1.204m2.928-1.284a.593.593 0 0 0 .592-.592v-1.07a.593.593 0 0 0-.592-.593h-1.07a.593.593 0 0 0-.593.593v1.07c0 .327.265.592.593.592h1.07m11.275 2.47A.593.593 0 0 0 16 6.6V.593A.593.593 0 0 0 15.407 0H9.4a.593.593 0 0 0-.592.593V6.6c0 .327.265.592.592.592h6.008M9.992 6.008V1.205l4.823-.02v4.823H9.992m2.946-1.284a.593.593 0 0 0 .593-.592v-1.07a.593.593 0 0 0-.593-.593h-1.07a.593.593 0 0 0-.592.593v1.07c0 .327.265.592.592.592h1.07"/>
</svg>
