<svg xmlns="http://www.w3.org/2000/svg" viewBox="0 0 16 16">
    <path d="M13.827 0c.176 0 .395.055.659.165.175.065.34.186.493.362.132.153.253.34.363.56.043.11.082.219.115.329.033.11.05.23.05.362v12.444c0 .132-.017.253-.05.362-.033.11-.072.22-.115.33-.11.241-.23.428-.363.56a1.247 1.247 0 0 1-.493.361c-.264.11-.483.165-.659.165H2.14c-.176 0-.395-.055-.659-.165a1.247 1.247 0 0 1-.493-.362 1.306 1.306 0 0 1-.362-.56 1.69 1.69 0 0 1-.132-.69v-3.556H2.14v3.555h11.687V1.778H2.14v3.555H.494V1.778c0-.264.044-.494.132-.692C.713.866.834.68.988.526 1.14.352 1.306.23 1.48.166 1.745.055 1.964 0 2.14 0h11.687zM8.56 8.889H.494V7.11H8.56L6.387 4.774l1.185-1.251L11.753 8l-4.181 4.477-1.185-1.25L8.56 8.888z"/>
</svg>
