<svg xmlns="http://www.w3.org/2000/svg" viewBox="0 0 16 16">
    <path fill="#000" fill-rule="evenodd" d="M14 0H5.2c-1.1 0-2 .9-2 2v1.2H2c-1.1 0-2 .9-2 2V14c0 1.1.9 2 2 2h8.8c1.1 0 2-.9 2-2v-1.2H14c1.1 0 2-.9 2-2V2c0-1.1-.9-2-2-2m-2.4 14a.81.81 0 0 1-.8.8H2a.81.81 0 0 1-.8-.8V5.2c0-.434.366-.8.8-.8h8.8c.434 0 .8.366.8.8V14m3.2-3.2a.81.81 0 0 1-.8.8h-1.2V5.2c0-1.1-.9-2-2-2H4.4V2c0-.434.366-.8.8-.8H14c.434 0 .8.366.8.8v8.8M7.315 7.011a.601.601 0 0 0-.849.85l1.377 1.375H3.51a.6.6 0 0 0 0 1.2h4.332l-1.375 1.376a.6.6 0 1 0 .85.848l2.398-2.4a.597.597 0 0 0 0-.848l-2.399-2.4"/>
</svg>
