<svg xmlns="http://www.w3.org/2000/svg" viewBox="0 0 16 16">
    <path d="M1 8.65h5.333L5.683 8v6.667l.65-.65H1l.65.65V8c0-2.843.991-4.597 2.932-5.4a.65.65 0 0 0-.497-1.2C1.619 2.418.35 4.664.35 8v6.667c0 .359.291.65.65.65h5.333a.65.65 0 0 0 .65-.65V8a.65.65 0 0 0-.65-.65H1a.65.65 0 1 0 0 1.3zm8.667 0H15L14.35 8v6.667l.65-.65H9.667l.65.65V8c0-2.843.99-4.597 2.931-5.4a.65.65 0 1 0-.496-1.2C10.285 2.418 9.017 4.664 9.017 8v6.667c0 .359.29.65.65.65H15a.65.65 0 0 0 .65-.65V8a.65.65 0 0 0-.65-.65H9.667a.65.65 0 1 0 0 1.3z"/>
</svg>
