<svg xmlns="http://www.w3.org/2000/svg" viewBox="0 0 20 20">
    <path fill="#000" fill-rule="evenodd" d="M8.791 15.152H4.6a.6.6 0 0 1-.6-.6V9.315C4 6.64 5.006 4.866 6.99 4.046a.599.599 0 1 1 .459 1.108C6.08 5.721 5.348 6.888 5.22 8.715h3.571a.6.6 0 0 1 .6.6v5.237a.6.6 0 0 1-.6.6M5.2 13.953h2.99V9.915H5.2v4.038m10.4 1.2h-4.19a.6.6 0 0 1-.6-.6V9.314c0-2.676 1.006-4.449 2.989-5.269a.6.6 0 1 1 .459 1.108c-1.369.567-2.101 1.734-2.228 3.561h3.57a.6.6 0 0 1 .6.6v5.237a.6.6 0 0 1-.6.6m-3.591-1.199H15V9.915h-2.991v4.038"/>
</svg>
