<svg xmlns="http://www.w3.org/2000/svg" viewBox="0 0 16 16">
    <path d="M6.283 15.313H.787A.788.788 0 0 1 0 14.526V7.658c0-3.51 1.32-5.835 3.921-6.91A.785.785 0 1 1 4.523 2.2C2.728 2.944 1.768 4.475 1.6 6.87h4.683c.434 0 .787.351.787.787v6.868a.788.788 0 0 1-.787.787m-4.71-1.572h3.922V8.445H1.574v5.296m13.64 1.572H9.717a.787.787 0 0 1-.787-.787V7.658c0-3.51 1.32-5.835 3.92-6.91a.786.786 0 1 1 .602 1.453c-1.795.743-2.755 2.274-2.922 4.67h4.682c.434 0 .787.351.787.787v6.868a.788.788 0 0 1-.787.787m-4.71-1.572h3.923V8.445h-3.922v5.296"/>
</svg>
