<svg xmlns="http://www.w3.org/2000/svg" viewBox="0 0 16 16">
    <path d="M1 8.65a.65.65 0 1 1 0-1.3h5.333a.65.65 0 0 1 .65.65v6.667a.65.65 0 0 1-.65.65H1a.65.65 0 0 1-.65-.65V8c0-3.335 1.269-5.581 3.735-6.6a.65.65 0 0 1 .497 1.2C2.64 3.404 1.65 5.158 1.65 8v6.667l-.65-.65h5.333l-.65.65V8l.65.65H1zm8.667 0a.65.65 0 1 1 0-1.3H15a.65.65 0 0 1 .65.65v6.667a.65.65 0 0 1-.65.65H9.667a.65.65 0 0 1-.65-.65V8c0-3.335 1.268-5.581 3.735-6.6a.65.65 0 0 1 .496 1.2c-1.94.803-2.931 2.557-2.931 5.4v6.667l-.65-.65H15l-.65.65V8l.65.65H9.667z"/>
</svg>
