<svg xmlns="http://www.w3.org/2000/svg" viewBox="0 0 16 16">
    <path d="M6.333 7.35a.65.65 0 0 1 .65.65v6.667a.65.65 0 0 1-.65.65H1a.65.65 0 0 1-.65-.65V8c0 .359.291.65.65.65h.65V8c0-.203.005-.4.015-.593l.004-.057zm8.667 0a.65.65 0 0 1 .65.65v6.667a.65.65 0 0 1-.65.65H9.667a.65.65 0 0 1-.65-.65V8c0 .359.29.65.65.65h.649V8c0-.203.006-.4.016-.593l.003-.057zm-8.667 6.667l-.65-.001v.65l.65-.65zm-4.683-.001H1l.65.65v-.65zm13.35 0h-.65v.65l.65-.65zm-4.684 0h-.65l.65.65v-.65zM5.683 8.65H1.65v5.366h4.033V8.65zm8.667 0h-4.034v5.366h4.034V8.65zM5.683 8v.65h.65L5.683 8zm8.667 0v.65H15L14.35 8zM4.085 1.4a.65.65 0 0 1 .497 1.2c-1.733.717-2.709 2.192-2.898 4.524l-.015.226H1A.65.65 0 0 0 .35 8l.004-.32c.08-3.159 1.344-5.294 3.731-6.28zm8.667 0a.65.65 0 0 1 .496 1.2c-1.732.717-2.708 2.192-2.897 4.524l-.016.226h-.668a.65.65 0 0 0-.65.65l.004-.32c.079-3.159 1.344-5.294 3.73-6.28z"/>
</svg>
