<?xml version="1.0" encoding="UTF-8" standalone="no"?>
<svg width="20px" height="20px" viewBox="0 0 20 20" version="1.1" xmlns="http://www.w3.org/2000/svg" xmlns:xlink="http://www.w3.org/1999/xlink">
    <defs></defs>
    <g id="Icons" stroke="none" stroke-width="1" fill="none" fill-rule="evenodd">
        <g id="Web" transform="translate(-97.000000, -1466.000000)" fill="#000000">
            <g id="editor/quote" transform="translate(97.000000, 1466.000000)">
                <path d="M8.791,15.1522654 L4.6,15.1522654 C4.269,15.1522654 4,14.8832654 4,14.5522654 L4,9.31526542 C4,6.63926542 5.006,4.86626542 6.99,4.04626542 C7.296,3.91926542 7.647,4.06526542 7.773,4.37126542 C7.9,4.67726542 7.755,5.02826542 7.449,5.15426542 C6.08,5.72126542 5.348,6.88826542 5.22,8.71526542 L8.791,8.71526542 C9.122,8.71526542 9.391,8.98326542 9.391,9.31526542 L9.391,14.5522654 C9.391,14.8832654 9.122,15.1522654 8.791,15.1522654 M5.2,13.9532654 L8.19,13.9532654 L8.19,9.91526542 L5.2,9.91526542 L5.2,13.9532654 M15.6,15.1522654 L11.41,15.1522654 C11.078,15.1522654 10.81,14.8832654 10.81,14.5522654 L10.81,9.31526542 C10.81,6.63926542 11.816,4.86626542 13.799,4.04626542 C14.107,3.91826542 14.458,4.06526542 14.583,4.37126542 C14.709,4.67726542 14.564,5.02826542 14.258,5.15426542 C12.889,5.72126542 12.157,6.88826542 12.03,8.71526542 L15.6,8.71526542 C15.931,8.71526542 16.2,8.98326542 16.2,9.31526542 L16.2,14.5522654 C16.2,14.8832654 15.931,15.1522654 15.6,15.1522654 M12.009,13.9532654 L15,13.9532654 L15,9.91526542 L12.009,9.91526542 L12.009,13.9532654" id="Shape"></path>
            </g>
        </g>
    </g>
</svg>