<svg xmlns="http://www.w3.org/2000/svg" viewBox="0 0 16 16">
    <path fill="#000" fill-rule="evenodd" d="M6.791 13.152H2.6a.6.6 0 0 1-.6-.6V7.315C2 4.64 3.006 2.866 4.99 2.046a.599.599 0 1 1 .459 1.108C4.08 3.721 3.348 4.888 3.22 6.715h3.571a.6.6 0 0 1 .6.6v5.237a.6.6 0 0 1-.6.6M3.2 11.953h2.99V7.915H3.2v4.038m10.4 1.2H9.41a.6.6 0 0 1-.6-.6V7.314c0-2.676 1.006-4.449 2.989-5.269a.6.6 0 1 1 .459 1.108c-1.369.567-2.101 1.734-2.228 3.561h3.57a.6.6 0 0 1 .6.6v5.237a.6.6 0 0 1-.6.6m-3.591-1.199H13V7.915h-2.991v4.038"/>
</svg>
