<svg xmlns="http://www.w3.org/2000/svg" viewBox="0 0 16 16">
    <path d="M13 0H3A2.2 2.2 0 0 0 .8 2.2v11.6c0 .318.07.634.203.923l.071.14a2.2 2.2 0 0 0 2.85.933l4.073-1.885 4.08 1.886A2.2 2.2 0 0 0 15.2 13.8V2.2A2.2 2.2 0 0 0 13 0zm0 1.2a1 1 0 0 1 1 1v11.6a1 1 0 0 1-1.42.908l-4.163-1.925a1 1 0 0 0-.84 0L3.42 14.707A1 1 0 0 1 2 13.799V2.2a1 1 0 0 1 1-1h10zm-1.215 3.229a.6.6 0 0 0-.765-.07l-.083.07-3.968 3.966-1.85-1.85-.083-.07a.6.6 0 0 0-.835.835l.07.083 2.274 2.275.083.07a.6.6 0 0 0 .683 0l.083-.07 4.391-4.39.07-.084a.6.6 0 0 0-.07-.765z"/>
</svg>
