<svg xmlns="http://www.w3.org/2000/svg" viewBox="0 0 16 16">
    <path d="M2.508 12.067a6.595 6.595 0 0 0 5.373 2.715A6.704 6.704 0 0 0 14.563 8.1a.6.6 0 0 1 1.2 0 7.904 7.904 0 0 1-7.882 7.882 7.803 7.803 0 0 1-6.176-2.987l-.365 2.686a.6.6 0 1 1-1.189-.162l.583-4.296a.6.6 0 0 1 .674-.514l4.368.582a.6.6 0 1 1-.159 1.19l-3.109-.414m10.747-7.933a6.595 6.595 0 0 0-5.373-2.716A6.704 6.704 0 0 0 1.2 8.1a.6.6 0 1 1-1.2 0A7.904 7.904 0 0 1 7.882.218a7.803 7.803 0 0 1 6.176 2.987L14.423.52a.6.6 0 0 1 1.19.162l-.584 4.296a.6.6 0 0 1-.674.514l-4.368-.582a.6.6 0 0 1 .159-1.19l3.109.415"/>
</svg>
