<svg xmlns="http://www.w3.org/2000/svg" viewBox="0 0 16 16">
    <path d="M6.384 13.706a2.937 2.937 0 0 1-4.09 0 2.937 2.937 0 0 1 0-4.09l1.83-1.83A.732.732 0 0 0 3.09 6.75L1.258 8.58a4.401 4.401 0 0 0 0 6.162 4.401 4.401 0 0 0 6.161 0l1.831-1.83a.732.732 0 1 0-1.036-1.036m-.428-7.752l1.83-1.83a2.937 2.937 0 0 1 4.09 0 2.937 2.937 0 0 1 0 4.09l-1.83 1.83A.732.732 0 0 0 12.91 9.25l1.831-1.83a4.401 4.401 0 0 0 0-6.162 4.401 4.401 0 0 0-6.161 0L6.75 3.088a.732.732 0 0 0 1.036 1.036m-1.465 6.59l4.394-4.393a.732.732 0 0 0-1.036-1.036L5.285 9.68a.732.732 0 1 0 1.036 1.036m4.392 2.124c-.059.025-.097.11-.09.159l.361 2.423c.01.063.076.091.124.072l1.149-.452c.059-.023.072-.097.046-.139l-1.297-2.062a.146.146 0 0 0-.168-.052l-.125.051m1.613-1.515c-.027.059.003.147.042.178l1.92 1.526c.05.04.117.015.14-.032l.532-1.114c.027-.057-.014-.12-.061-.133l-2.358-.624a.146.146 0 0 0-.16.077l-.055.122M3.09 4.644c.022-.06-.014-.146-.055-.173L1.014 3.082a.093.093 0 0 0-.138.042L.423 4.272c-.024.06.022.12.07.129l2.396.457a.146.146 0 0 0 .153-.087l.048-.126m2-1.325c.06-.022.102-.106.096-.155L4.908.728a.093.093 0 0 0-.121-.076l-1.165.411c-.06.021-.075.095-.05.137l1.226 2.11a.146.146 0 0 0 .166.058l.127-.048"/>
</svg>
