<svg xmlns="http://www.w3.org/2000/svg" viewBox="0 0 20 20">
    <path fill="#000" fill-rule="evenodd" d="M8.23 14.23a2.407 2.407 0 0 1-3.35 0 2.407 2.407 0 0 1 0-3.35l1.5-1.5a.6.6 0 0 0-.85-.85l-1.5 1.5a3.606 3.606 0 0 0 0 5.05 3.606 3.606 0 0 0 5.05 0l1.5-1.5a.6.6 0 0 0-.85-.85m-.35-6.35l1.5-1.5a2.407 2.407 0 0 1 3.35 0 2.407 2.407 0 0 1 0 3.35l-1.5 1.5a.6.6 0 0 0 .85.85l1.5-1.5a3.606 3.606 0 0 0 0-5.05 3.606 3.606 0 0 0-5.05 0l-1.5 1.5a.6.6 0 0 0 .85.85m-1.2 5.4l3.6-3.6a.6.6 0 0 0-.85-.85l-3.6 3.6a.6.6 0 0 0 .85.85m3.598 1.74c-.048.02-.08.09-.074.13L12 15.636a.076.076 0 0 0 .102.059l.94-.37c.05-.02.06-.08.038-.114l-1.062-1.69a.12.12 0 0 0-.138-.043l-.102.042M13.1 12.28c-.022.048.003.12.035.145l1.573 1.25c.04.033.096.013.114-.025l.437-.913c.022-.047-.012-.099-.05-.109l-1.933-.511a.12.12 0 0 0-.13.062l-.046.1M5.532 6.807c.018-.05-.012-.12-.045-.143L3.831 5.526a.076.076 0 0 0-.113.034l-.372.94c-.019.049.019.098.058.106l1.963.375a.12.12 0 0 0 .126-.072l.039-.103m1.64-1.085c.048-.019.082-.088.078-.128L7.02 3.597a.076.076 0 0 0-.099-.063l-.954.337c-.05.017-.062.078-.042.113L6.931 5.71a.12.12 0 0 0 .137.048l.103-.038"/>
</svg>
