<svg xmlns="http://www.w3.org/2000/svg" viewBox="0 0 16 16">
    <path d="M15.42 8.83a.58.58 0 1 0 0-1.161H9.451a.58.58 0 1 0 0 1.161h5.967zm0 4.839a.58.58 0 1 0 0-1.161H9.451a.58.58 0 1 0 0 1.16h5.967zm0-9.678a.58.58 0 1 0 0-1.16H9.451a.58.58 0 1 0 0 1.16h5.967zM4.603.905a.58.58 0 0 1 .821-.003L7.8 3.262a.58.58 0 0 1 0 .823L5.425 6.444a.58.58 0 0 1-.818-.824L5.98 4.253H5.33a4.155 4.155 0 0 0-4.164 3.932l-.005.206a4.153 4.153 0 0 0 4.169 4.137h1.9a.58.58 0 1 1 0 1.162h-1.9A5.314 5.314 0 0 1 0 8.39a5.314 5.314 0 0 1 5.33-5.299h.652L4.607 1.726a.58.58 0 0 1-.07-.74z"/>
</svg>
