<svg xmlns="http://www.w3.org/2000/svg" viewBox="0 0 16 16">
    <path d="M5.982 5.042H5.33A4.153 4.153 0 0 0 1.16 9.18a4.153 4.153 0 0 0 4.169 4.137h1.9a.58.58 0 0 1 0 1.161h-1.9A5.314 5.314 0 0 1 0 9.18a5.314 5.314 0 0 1 5.33-5.3h.652L4.607 2.515a.58.58 0 0 1 .818-.824L7.8 4.05a.58.58 0 0 1 0 .823l-2.375 2.36a.58.58 0 1 1-.818-.824l1.375-1.367zM15.42 9.62a.58.58 0 1 0 0-1.162H9.452a.58.58 0 0 0 0 1.162h5.967zm0 4.838a.58.58 0 1 0 0-1.161H9.452a.58.58 0 0 0 0 1.161h5.967zm0-9.677a.58.58 0 1 0 0-1.161H9.452a.58.58 0 0 0 0 1.16h5.967z"/>
</svg>
