<svg xmlns="http://www.w3.org/2000/svg" viewBox="0 0 16 16">
    <path d="M5.982 3.092H5.33A5.314 5.314 0 0 0 0 8.392a5.314 5.314 0 0 0 5.33 5.298h1.9a.58.58 0 0 0 0-1.162h-1.9A4.153 4.153 0 0 1 1.16 8.391 4.153 4.153 0 0 1 5.33 4.254h.652L4.607 5.62a.58.58 0 0 0 .818.824L7.8 4.084a.58.58 0 0 0 0-.823L5.425.902a.58.58 0 0 0-.818.824l1.375 1.366zM15.42 8.83H9.452a.58.58 0 1 1 0-1.161h5.967a.58.58 0 1 1 0 1.161zm0 4.839H9.452a.58.58 0 0 1 0-1.161h5.967a.58.58 0 1 1 0 1.16zm0-9.678H9.452a.58.58 0 1 1 0-1.16h5.967a.58.58 0 1 1 0 1.16z"/>
</svg>
