<svg xmlns="http://www.w3.org/2000/svg" viewBox="0 0 16 16">
    <path d="M5.982 3.092L4.607 1.726a.58.58 0 0 1 .818-.824L7.8 3.262a.58.58 0 0 1 0 .823L5.425 6.444a.58.58 0 0 1-.818-.824l1.375-1.366H5.33A4.153 4.153 0 0 0 1.16 8.39a4.153 4.153 0 0 0 4.169 4.137h1.9a.58.58 0 1 1 0 1.162h-1.9A5.314 5.314 0 0 1 0 8.39a5.314 5.314 0 0 1 5.33-5.299h.652zM15.42 8.83H9.452a.58.58 0 1 1 0-1.161h5.967a.58.58 0 1 1 0 1.161zm0 4.839H9.452a.58.58 0 0 1 0-1.161h5.967a.58.58 0 1 1 0 1.16zm0-9.678H9.452a.58.58 0 1 1 0-1.16h5.967a.58.58 0 1 1 0 1.16z"/>
</svg>
