<svg xmlns="http://www.w3.org/2000/svg" viewBox="0 0 20 20">
    <path fill="#000" fill-rule="evenodd" d="M17.4 9.41a.6.6 0 0 0-.6.6A6.808 6.808 0 0 1 10 16.8h-.008A6.81 6.81 0 0 1 5.197 5.185 6.758 6.758 0 0 1 10 3.2h.01a6.73 6.73 0 0 1 5.163 2.403L12.904 5.6a.6.6 0 0 0-.002 1.201l3.45.004h.002a.6.6 0 0 0 .6-.599l.005-3.449a.6.6 0 0 0-1.201-.002l-.002 1.691A7.919 7.919 0 0 0 10.01 2H10a7.944 7.944 0 0 0-5.65 2.336A8.01 8.01 0 0 0 9.99 18H10a8.01 8.01 0 0 0 8-7.99.6.6 0 0 0-.6-.6M9.58 6.054a.6.6 0 0 0-.6.6v3.68c0 .214.115.412.3.519l3.188 1.84a.598.598 0 0 0 .819-.22.6.6 0 0 0-.22-.82L10.18 9.99V6.655a.6.6 0 0 0-.6-.6"/>
</svg>
