<svg xmlns="http://www.w3.org/2000/svg" viewBox="0 0 16 16">
    <path fill="#000" fill-rule="evenodd" d="M15.4 7.41a.6.6 0 0 0-.6.6A6.808 6.808 0 0 1 8 14.8h-.008A6.81 6.81 0 0 1 3.197 3.185 6.758 6.758 0 0 1 8 1.2h.008a6.73 6.73 0 0 1 5.165 2.403L10.904 3.6h-.002a.6.6 0 0 0 0 1.201l3.45.004a.6.6 0 0 0 .6-.599L14.96.756a.6.6 0 0 0-1.201-.002l-.002 1.691A7.919 7.919 0 0 0 8.01 0H8a7.944 7.944 0 0 0-5.65 2.336A8.01 8.01 0 0 0 7.99 16H8a8.01 8.01 0 0 0 8-7.99.6.6 0 0 0-.6-.6M7.58 4.054a.6.6 0 0 0-.6.6v3.68c0 .214.115.412.3.519l3.188 1.84a.598.598 0 0 0 .819-.22.6.6 0 0 0-.22-.82L8.18 7.99V4.655a.6.6 0 0 0-.6-.6"/>
</svg>
