<svg xmlns="http://www.w3.org/2000/svg" viewBox="0 0 16 16">
    <path fill="#000" fill-rule="evenodd" d="M.6 7.409a.6.6 0 0 1 .601.6A6.808 6.808 0 0 0 8 14.801h.009a6.81 6.81 0 0 0 4.794-11.616A6.758 6.758 0 0 0 8.001 1.2h-.009a6.73 6.73 0 0 0-5.164 2.403l2.268-.004h.001A.6.6 0 0 1 5.098 4.8l-3.45.004h-.001a.6.6 0 0 1-.6-.599L1.042.756A.6.6 0 0 1 2.243.754l.002 1.691A7.919 7.919 0 0 1 7.99 0h.011c2.133 0 4.139.829 5.649 2.336A8.01 8.01 0 0 1 8.01 16h-.009A8.01 8.01 0 0 1 0 8.01a.6.6 0 0 1 .6-.601m6.98-3.354a.6.6 0 0 0-.6.6v3.68c0 .213.114.411.3.518l3.187 1.84a.598.598 0 0 0 .819-.22.6.6 0 0 0-.22-.819L8.18 7.99V4.654a.6.6 0 0 0-.6-.6"/>
</svg>
