<svg xmlns="http://www.w3.org/2000/svg" viewBox="0 0 20 20">
    <path fill="#000" fill-rule="evenodd" d="M2.6 9.409a.6.6 0 0 1 .601.6A6.808 6.808 0 0 0 10 16.801h.009a6.81 6.81 0 0 0 4.794-11.616A6.758 6.758 0 0 0 10.001 3.2h-.009a6.73 6.73 0 0 0-5.164 2.403l2.268-.004h.001A.6.6 0 0 1 7.098 6.8l-3.45.004h-.001a.6.6 0 0 1-.6-.599l-.005-3.449a.6.6 0 0 1 1.201-.002l.002 1.691A7.919 7.919 0 0 1 9.99 2h.011c2.133 0 4.139.829 5.649 2.336A8.01 8.01 0 0 1 10.01 18h-.009A8.01 8.01 0 0 1 2 10.01a.6.6 0 0 1 .6-.601m6.98-3.355a.6.6 0 0 0-.6.6v3.68c0 .215.114.412.3.52l3.187 1.84a.598.598 0 0 0 .819-.22.6.6 0 0 0-.22-.82L10.18 9.99V6.654a.6.6 0 0 0-.6-.6"/>
</svg>
