<svg xmlns="http://www.w3.org/2000/svg" viewBox="0 0 16 16">
    <path fill="#000" fill-rule="evenodd" d="M2.6 0a.6.6 0 0 0-.6.6v14a.6.6 0 0 0 .6.6h11.455a.6.6 0 0 0 .6-.6V.6a.6.6 0 0 0-.6-.6H2.6m10.855 1.206L13.473 14 3.2 14.012V1.207L2.6 1.2l10.855.006M5.145 12.2h6.364a.6.6 0 1 0 0-1.2H5.145a.6.6 0 0 0 0 1.2m0-2.5h6.364a.6.6 0 1 0 0-1.2H5.145a.6.6 0 1 0 0 1.2m0-6.518a.6.6 0 0 0-.6.6v2.545a.6.6 0 0 0 .6.6h2.546a.6.6 0 0 0 .6-.6V3.782a.6.6 0 0 0-.6-.6H5.145m1.946 1.214l.02 1.331-1.366-.013V4.387l1.346.01M10.236 6.7h1.273a.6.6 0 1 0 0-1.2h-1.273a.6.6 0 0 0 0 1.2m0-2.2h1.273a.6.6 0 1 0 0-1.2h-1.273a.6.6 0 0 0 0 1.2"/>
</svg>
