<svg xmlns="http://www.w3.org/2000/svg" viewBox="0 0 16 16">
    <path fill="#000" fill-rule="evenodd" d="M2.032 0A.632.632 0 0 0 1.4.632v14.736c0 .35.283.632.632.632h12.057a.632.632 0 0 0 .632-.632V.632A.632.632 0 0 0 14.089 0H2.032m11.425 1.27l.02 13.467-10.814.012V1.27l-.631-.007 11.425.007M4.711 12.842h6.699a.632.632 0 0 0 0-1.263H4.71a.632.632 0 1 0 0 1.263m0-2.631h6.699a.632.632 0 0 0 0-1.264H4.71a.632.632 0 0 0 0 1.264m0-6.862a.632.632 0 0 0-.632.632v2.68c0 .348.283.63.632.63h2.68a.632.632 0 0 0 .631-.63V3.98a.632.632 0 0 0-.632-.632H4.711m2.048 1.279l.02 1.4-1.436-.013V4.618l1.416.01m3.31 2.425h1.34a.632.632 0 0 0 0-1.264h-1.34a.632.632 0 1 0 0 1.264m0-2.316h1.34a.632.632 0 0 0 0-1.263h-1.34a.632.632 0 1 0 0 1.263"/>
</svg>
