<svg xmlns="http://www.w3.org/2000/svg" viewBox="0 0 20 20">
    <path fill="#000" fill-rule="evenodd" d="M4.6 2a.6.6 0 0 0-.6.6v14a.6.6 0 0 0 .6.6h11.455a.6.6 0 0 0 .6-.6v-14a.6.6 0 0 0-.6-.6H4.6m10.855 1.206L15.473 16 5.2 16.012V3.207L4.6 3.2l10.855.006M7.145 14.2h6.364a.6.6 0 1 0 0-1.2H7.145a.6.6 0 0 0 0 1.2m0-2.5h6.364a.6.6 0 1 0 0-1.2H7.145a.6.6 0 0 0 0 1.2m0-6.518a.6.6 0 0 0-.6.6v2.545a.6.6 0 0 0 .6.6h2.546a.6.6 0 0 0 .6-.6V5.782a.6.6 0 0 0-.6-.6H7.145m1.946 1.214l.02 1.331-1.366-.013V6.387l1.346.01M12.236 8.7h1.273a.6.6 0 1 0 0-1.2h-1.273a.6.6 0 0 0 0 1.2m0-2.2h1.273a.6.6 0 1 0 0-1.2h-1.273a.6.6 0 0 0 0 1.2"/>
</svg>
