<svg xmlns="http://www.w3.org/2000/svg" viewBox="0 0 20 20">
    <path fill="#000" fill-rule="evenodd" d="M3 13.204V17h3.804c0-.547-.09-1.063-.243-1.518a4.75 4.75 0 0 0-.822-1.215 5.23 5.23 0 0 0-1.217-.79A4.11 4.11 0 0 0 3 13.204zm0-5.102v2.52a7.05 7.05 0 0 1 2.526.486c.761.365 1.43.82 2.009 1.367a7.556 7.556 0 0 1 1.339 2.065c.335.76.487 1.58.487 2.46h2.587c0-1.245-.244-2.4-.73-3.462a9.337 9.337 0 0 0-1.888-2.855A9.262 9.262 0 0 0 6.53 8.8 9.75 9.75 0 0 0 3 8.102zM3 3v2.581c1.583 0 3.074.304 4.444.88 1.4.578 2.647 1.398 3.652 2.46a11.211 11.211 0 0 1 2.465 3.615c.578 1.366.883 2.885.883 4.464H17c0-1.944-.335-3.766-1.096-5.436A14.104 14.104 0 0 0 12.891 7.1 13.688 13.688 0 0 0 3 3z"/>
</svg>
