<svg xmlns="http://www.w3.org/2000/svg" viewBox="0 0 16 16">
    <path d="M0 11.661V16h4.348c0-.625-.104-1.215-.278-1.735a5.428 5.428 0 0 0-.94-1.389 5.978 5.978 0 0 0-1.39-.902A4.696 4.696 0 0 0 0 11.66zm0-5.83v2.88c1.009 0 1.983.209 2.887.556.87.416 1.635.937 2.296 1.562a8.635 8.635 0 0 1 1.53 2.36A6.88 6.88 0 0 1 7.27 16h2.956a9.385 9.385 0 0 0-.835-3.957 10.67 10.67 0 0 0-2.156-3.262 10.585 10.585 0 0 0-3.2-2.152A11.144 11.144 0 0 0 0 5.83zM0 0v2.95c1.809 0 3.513.347 5.078 1.007 1.6.659 3.026 1.596 4.174 2.81a12.813 12.813 0 0 1 2.818 4.131A13.09 13.09 0 0 1 13.078 16H16c0-2.221-.383-4.304-1.252-6.213a16.119 16.119 0 0 0-3.444-5.102A15.644 15.644 0 0 0 0 0z"/>
</svg>
