<svg xmlns="http://www.w3.org/2000/svg" viewBox="0 0 16 16">
    <path d="M10.89 13.569l.987.987 2.679-2.679L4.123 1.444 1.444 4.123l.987.987 1.48-1.48a.3.3 0 0 1 .424 0l.28.28a.3.3 0 0 1 0 .425l-1.48 1.48L4.37 7.048l1.127-1.127a.3.3 0 0 1 .424 0l.28.28a.3.3 0 0 1 0 .425L5.076 7.753l1.233 1.234 1.48-1.48a.3.3 0 0 1 .424 0l.28.28a.3.3 0 0 1 0 .425l-1.479 1.48 1.234 1.233 1.127-1.127a.3.3 0 0 1 .424 0l.28.28a.3.3 0 0 1 0 .425L8.953 11.63l1.233 1.234 1.48-1.48a.3.3 0 0 1 .424 0l.281.281a.3.3 0 0 1 0 .424l-1.48 1.48zM4.546.175l11.279 11.28a.598.598 0 0 1 0 .845L12.3 15.825a.598.598 0 0 1-.846 0L.175 4.545a.598.598 0 0 1 0-.845L3.7.175a.598.598 0 0 1 .846 0z"/>
</svg>
