<svg xmlns="http://www.w3.org/2000/svg" viewBox="0 0 16 16">
    <path d="M4.546.175l11.279 11.28a.598.598 0 0 1 0 .845L12.3 15.825a.598.598 0 0 1-.846 0L.175 4.545a.598.598 0 0 1 0-.845L3.7.175a.598.598 0 0 1 .846 0zm-.423 1.27L1.444 4.122l.987.986 1.48-1.479a.3.3 0 0 1 .424 0l.28.28a.3.3 0 0 1 0 .425L3.137 5.814 4.37 7.048l1.127-1.127a.3.3 0 0 1 .424 0l.28.28a.3.3 0 0 1 0 .425L5.076 7.753l1.233 1.233 1.48-1.479a.3.3 0 0 1 .424 0l.28.28a.3.3 0 0 1 0 .425L7.014 9.691l1.234 1.234 1.127-1.127a.3.3 0 0 1 .424 0l.28.28a.3.3 0 0 1 0 .425L8.953 11.63l1.233 1.233 1.48-1.479a.3.3 0 0 1 .424 0l.281.281a.3.3 0 0 1 0 .424l-1.48 1.479.987.988 2.679-2.679L4.123 1.444z"/>
</svg>
