<svg xmlns="http://www.w3.org/2000/svg" viewBox="0 0 20 20">
    <path fill="#000" fill-rule="evenodd" d="M17.4 13.018h-.64V6.017c0-1.1-.9-2-2-2h-2.228a1.597 1.597 0 0 0-1.524-1.138H10.6v-.105a.6.6 0 1 0-1.2 0v.105h-.408c-.721 0-1.324.482-1.524 1.138H5.24c-1.1 0-2 .9-2 2v7H2.6a.6.6 0 1 0 0 1.2h4.212l-1.79 2.677a.6.6 0 1 0 .999.666l2.234-3.343H9.4v3.01a.6.6 0 0 0 1.2 0v-3.01h1.278l2.235 3.343a.599.599 0 0 0 .833.166.6.6 0 0 0 .166-.832l-1.79-2.677H17.4a.6.6 0 1 0 0-1.2m-12.96-7c0-.434.366-.8.8-.8h2.24a1.598 1.598 0 0 0 1.512 1.099h2.016c.706 0 1.3-.463 1.512-1.1h2.24c.434 0 .8.367.8.8v6.962H4.44V6.017m4.152-1.538c0-.217.183-.4.4-.4h2.016c.217 0 .4.183.4.4v.236c0 .217-.183.4-.4.4H8.992a.405.405 0 0 1-.4-.4v-.236m5.423 3.127l-3.727 2-.947-1.354a.601.601 0 0 0-.79-.178L5.406 9.865a.6.6 0 1 0 .594 1.043l2.672-1.52.94 1.343c.175.25.508.33.775.185l4.196-2.252a.6.6 0 0 0-.567-1.058"/>
</svg>
