<svg xmlns="http://www.w3.org/2000/svg" viewBox="0 0 16 17">
    <path d="M8 .306a4.645 4.645 0 0 1 4.633 4.633v2.02c0 1.077-.371 2.07-.993 2.859A5.27 5.27 0 0 1 16 15.04v.673a.593.593 0 0 1-.593.593H.593A.593.593 0 0 1 0 15.713v-.673a5.273 5.273 0 0 1 4.36-5.224 4.597 4.597 0 0 1-.993-2.857v-2.02A4.645 4.645 0 0 1 8 .306zM5.581 10.918h-.275a4.092 4.092 0 0 0-4.12 4.122v.08h4.427l1.049-2.097-1.081-2.105zm2.726 2.694h-.615l-.754 1.508h2.123l-.754-1.508zm2.387-2.693l-.276-.001-1.081 2.105 1.049 2.097h4.429v-.08a4.092 4.092 0 0 0-4.121-4.121zM8 11.592c-.264 0-.523-.022-.775-.065l.463.9h.624l.463-.9c-.252.043-.511.065-.775.065zm1.675-6.336a4.294 4.294 0 0 1-5.123 1.236v.467A3.46 3.46 0 0 0 8 10.407a3.46 3.46 0 0 0 3.448-3.448l-.001-.374a4.012 4.012 0 0 1-1.772-1.329zM8 1.491a3.46 3.46 0 0 0-3.448 3.448v.218c.571.347 1.17.536 1.764.536a3.135 3.135 0 0 0 2.832-1.816.593.593 0 0 1 1.072.003 3.095 3.095 0 0 0 1.227 1.396V4.94A3.46 3.46 0 0 0 8 1.49z"/>
</svg>
