<svg xmlns="http://www.w3.org/2000/svg" viewBox="0 0 16 17">
    <path d="M12.633 6.163v.796a4.607 4.607 0 0 1-.991 2.857A5.273 5.273 0 0 1 16 15.04v.673a.593.593 0 0 1-.593.593h-5.374a.59.59 0 0 1-.025 0H5.992a.59.59 0 0 1-.025 0H.593A.593.593 0 0 1 0 15.713v-.673a5.273 5.273 0 0 1 4.358-5.224 4.607 4.607 0 0 1-.991-2.857V5.485v-.546A4.645 4.645 0 0 1 8 .306a4.645 4.645 0 0 1 4.633 4.633v1.224zm-8.08.33v.466A3.46 3.46 0 0 0 8 10.407a3.46 3.46 0 0 0 3.448-3.448v-.373a4.011 4.011 0 0 1-1.773-1.33 4.294 4.294 0 0 1-5.123 1.236zm0-1.336c.57.347 1.17.536 1.763.536a3.135 3.135 0 0 0 2.832-1.816.593.593 0 0 1 1.072.003 3.095 3.095 0 0 0 1.228 1.397v-.338A3.46 3.46 0 0 0 8 1.49a3.46 3.46 0 0 0-3.448 3.448v.218zm2.673 6.37l.462.9h.624l.462-.9a4.622 4.622 0 0 1-1.548 0zm-.287 3.594H9.06l-.754-1.509h-.614l-.754 1.509zm-1.325 0l1.048-2.098-1.08-2.104h-.276a4.092 4.092 0 0 0-4.12 4.12v.082h4.428zm4.804-4.202l-1.08 2.104 1.048 2.098h4.429v-.081a4.092 4.092 0 0 0-4.121-4.121h-.276z"/>
</svg>
