<svg xmlns="http://www.w3.org/2000/svg" viewBox="0 0 16 16">
    <path fill="#000" fill-rule="evenodd" d="M14.488 10.796v2.967c0 .484-.41.895-.895.895H2.407a.907.907 0 0 1-.895-.895v-1.847-1.12a.672.672 0 0 0-1.342 0v2.967A2.244 2.244 0 0 0 2.407 16h11.186a2.244 2.244 0 0 0 2.237-2.237v-2.967a.672.672 0 0 0-1.342 0m.671-2.125H.841a.672.672 0 0 1 0-1.342H15.16a.67.67 0 1 1 0 1.342M2.407 0A2.244 2.244 0 0 0 .17 2.237v2.967a.672.672 0 0 0 1.342 0V2.237c0-.485.41-.895.895-.895h11.186c.486 0 .895.41.895.895v2.967a.672.672 0 0 0 1.342 0V2.237A2.244 2.244 0 0 0 13.593 0H2.407"/>
</svg>
