<svg xmlns="http://www.w3.org/2000/svg" viewBox="0 0 16 16">
    <path d="M.638 14.79a.554.554 0 0 1-.544-.667l.56-2.723a.57.57 0 0 1 .046-.135c.235-.472.638-.83 1.135-1.007l3.347-1.193a.243.243 0 0 0 .16-.228v-.488a.98.98 0 0 0-.357-.758 3.472 3.472 0 0 1-1.278-2.686V3.502a3.507 3.507 0 0 1 7.006 0v1.403a3.48 3.48 0 0 1-1.27 2.68 1.002 1.002 0 0 0-.364.774v.479c0 .101.065.194.161.228a.554.554 0 1 1-.373 1.044 1.355 1.355 0 0 1-.897-1.272v-.48c0-.63.28-1.224.766-1.627.55-.458.868-1.123.868-1.826V3.502a2.395 2.395 0 0 0-4.788 0v1.403c0 .706.32 1.373.874 1.83.484.399.762.987.762 1.614v.488c0 .569-.36 1.081-.898 1.272l-3.347 1.195a.916.916 0 0 0-.483.399l-.544 2.644a.555.555 0 0 1-.542.443m13.447-1.337a2.532 2.532 0 0 0-.321-3.181 2.59 2.59 0 0 0-3.576 0 2.513 2.513 0 0 0 0 3.576 2.523 2.523 0 0 0 3.182.32l1.684 1.684a.505.505 0 1 0 .715-.715l-1.684-1.684m-3.181-.321a1.507 1.507 0 0 1 0-2.145 1.504 1.504 0 0 1 2.144 0 1.518 1.518 0 0 1-2.144 2.145"/>
</svg>
