<svg xmlns="http://www.w3.org/2000/svg" viewBox="0 0 16 16">
    <path fill="#000" fill-rule="evenodd" d="M6.37 9.224a.448.448 0 0 1-.327-.142.453.453 0 0 1-.14-.33V6.526c0-.125.046-.23.14-.313a.476.476 0 0 1 .327-.126.44.44 0 0 1 .297.126c.093.083.14.188.14.313v2.228a.453.453 0 0 1-.14.33.416.416 0 0 1-.297.14zm0 1.505a.484.484 0 0 1-.499-.47c0-.335.167-.502.5-.502.124 0 .233.047.327.141a.49.49 0 0 1 .14.36.453.453 0 0 1-.14.33.448.448 0 0 1-.328.141zm9.513 4.706c.146.168.146.324 0 .47a.336.336 0 0 1-.25.095.298.298 0 0 1-.218-.094l-1.56-1.537c-.29.23-.607.418-.95.564a3.166 3.166 0 0 1-3.43-.737A3.264 3.264 0 0 1 9.473 9.6c.301-.293.65-.523 1.045-.69a3.166 3.166 0 0 1 2.495 0 3.187 3.187 0 0 1 1.965 2.98c0 .753-.219 1.412-.655 1.977l1.559 1.568zm-4.117-.972c.707 0 1.31-.246 1.809-.738a2.472 2.472 0 0 0 .749-1.835c0-.71-.25-1.317-.749-1.82a2.457 2.457 0 0 0-1.809-.752c-.707 0-1.31.25-1.809.753a2.486 2.486 0 0 0-.748 1.82c0 .731.25 1.343.748 1.834a2.484 2.484 0 0 0 1.81.738zM.85 13.867c0 .209.073.381.218.517a.71.71 0 0 0 .5.204h6.86l-.03.816H1.723a1.65 1.65 0 0 1-1.216-.502 1.67 1.67 0 0 1-.5-1.224V1.725c0-.48.167-.888.5-1.223A1.65 1.65 0 0 1 1.723 0h5.895c.166 0 .301.063.405.188l4.086 4.643a.36.36 0 0 1 .11.204c.01.073.015.152.015.236v2.29h-.842V5.427H8.897c-.479 0-.89-.172-1.232-.517a1.733 1.733 0 0 1-.515-1.27V.783H1.567a.685.685 0 0 0-.499.22.693.693 0 0 0-.218.502v12.36zm7.236-10.04c0 .189.073.356.218.502.146.147.312.22.5.22h1.683l-2.401-2.73v2.008z"/>
</svg>
