<svg xmlns="http://www.w3.org/2000/svg" viewBox="0 0 16 16">
    <path d="M15.824 13.398L12.37 9.944a1.714 1.714 0 0 0-1.92-.344l-.423-.423a5.589 5.589 0 0 0-.383-7.524A5.655 5.655 0 0 0 0 5.648a5.634 5.634 0 0 0 5.649 5.646 5.628 5.628 0 0 0 3.527-1.27l.424.424a1.706 1.706 0 0 0 .345 1.92l3.454 3.454a.593.593 0 0 0 .424.176.593.593 0 0 0 .424-.176l1.577-1.577a.599.599 0 0 0 0-.847m-2.001 1.152l-3.03-3.03a.516.516 0 0 1 .728-.728l3.03 3.029-.728.729M2.503 8.794a4.454 4.454 0 0 1 6.292-6.292 4.454 4.454 0 0 1-6.292 6.292"/>
</svg>
