<svg xmlns="http://www.w3.org/2000/svg" viewBox="0 0 20 20">
    <path fill="#000" fill-rule="evenodd" d="M12.2 14.594H2.6a.6.6 0 0 0 0 1.2h9.6a.599.599 0 1 0 0-1.2m-9.6-3.57h4.8a.6.6 0 0 0 0-1.2H2.6a.6.6 0 1 0 0 1.2m0-4.824h14.8a.6.6 0 0 0 0-1.2H2.6a.6.6 0 1 0 0 1.2m13.226 5.876a3.005 3.005 0 0 0-.38-3.775 3.072 3.072 0 0 0-4.244 0 2.982 2.982 0 0 0-.879 2.121 2.982 2.982 0 0 0 3 3c.578 0 1.155-.167 1.655-.497l1.998 1.997a.6.6 0 1 0 .848-.848l-1.998-1.998m-3.775-.38a1.788 1.788 0 0 1 0-2.546 1.784 1.784 0 0 1 2.545 0 1.801 1.801 0 0 1-2.545 2.545"/>
</svg>
