<svg xmlns="http://www.w3.org/2000/svg" viewBox="0 0 17 16">
    <path d="M13.138 14.801a1.292 1.292 0 1 1 .004-2.584 1.292 1.292 0 0 1-.004 2.584zM3.489 9.459a1.29 1.29 0 1 1 .002-2.58 1.29 1.29 0 0 1-.002 2.58zM13.138 1.2a1.292 1.292 0 1 1-.003 2.583 1.292 1.292 0 0 1 .003-2.583zm0 9.822c-.801 0-1.507.386-1.963.975L5.916 8.71a2.462 2.462 0 0 0 0-1.081l5.444-3.403a2.493 2.493 0 1 0-.712-1.737c0 .244.046.475.112.697l-5.391 3.37A2.473 2.473 0 0 0 1 8.17a2.476 2.476 0 1 0 4.369 1.614l5.32 3.324a2.492 2.492 0 1 0 2.449-2.086z"/>
</svg>
