<svg xmlns="http://www.w3.org/2000/svg" viewBox="0 0 16 17">
    <path d="M15.314 1c.38 0 .686.307.686.686v5.028a.685.685 0 1 1-1.372 0V3.342l-8.386 8.387a.686.686 0 0 1-.97-.97l8.387-8.388h-3.372a.686.686 0 1 1 0-1.37h5.027zm0 9.142c.377 0 .686.309.686.686v3.886A2.292 2.292 0 0 1 13.714 17H2.286A2.292 2.292 0 0 1 0 14.714V3.285A2.292 2.292 0 0 1 2.286 1h3.883c.377 0 .686.308.686.685a.688.688 0 0 1-.686.686H2.286a.927.927 0 0 0-.915.914v11.429c0 .496.419.914.915.914h11.428a.926.926 0 0 0 .915-.914v-3.886c0-.377.308-.686.685-.686z"/>
</svg>
