<?xml version="1.0" encoding="UTF-8"?>
<svg width="16px" height="16px" viewBox="0 0 16 16" version="1.1" xmlns="http://www.w3.org/2000/svg" xmlns:xlink="http://www.w3.org/1999/xlink">
    <!-- Generator: sketchtool 51.3 (57544) - http://www.bohemiancoding.com/sketch -->
    <title>sharp-up2</title>
    <desc>Created with sketchtool.</desc>
    <defs></defs>
    <g id="Icons" stroke="none" stroke-width="1" fill="none" fill-rule="evenodd">
        <g id="Deprecated" transform="translate(-402.000000, -102.000000)" fill="#000000">
            <g id="sharp-up2" transform="translate(402.000000, 102.000000)">
                <path d="M8.59297314,2.02445509 L8.59297314,15.4072245 C8.59297314,15.7346053 8.32757849,16 8.00019759,16 C7.6728167,16 7.40742204,15.7346053 7.40742204,15.4072245 L7.40742204,2.02405991 L3.23434548,6.19713647 C3.00285223,6.42862972 2.62752751,6.42862972 2.39603426,6.19713647 C2.16454101,5.96564322 2.16454101,5.5903185 2.39603426,5.35882525 L7.57201218,0.182847337 C7.67991783,0.0701664012 7.83186359,-4.97379915e-14 8.00019759,-4.97379915e-14 C8.17193091,-4.97379915e-14 8.32660742,0.0730288794 8.43486601,0.189725519 L13.6039657,5.35882525 C13.835459,5.5903185 13.835459,5.96564322 13.6039657,6.19713647 C13.3724725,6.42862972 12.9971478,6.42862972 12.7656545,6.19713647 L8.59297314,2.02445509" id="Shape"></path>
            </g>
        </g>
    </g>
</svg>