<svg xmlns="http://www.w3.org/2000/svg" viewBox="0 0 20 20">
    <path fill="#000" fill-rule="evenodd" d="M9.2478,16.1458719 L9.2478,2.6 C9.2478,2.26862915 9.51642915,2 9.8478,2 C10.1791708,2 10.4478,2.26862915 10.4478,2.6 L10.4478,16.1462719 L14.6717359,11.9223359 C14.9060505,11.6880214 15.2859495,11.6880214 15.5202641,11.9223359 C15.7545786,12.1566505 15.7545786,12.5365495 15.5202641,12.7708641 L10.2812039,18.0099242 C10.1719832,18.1239784 10.0181856,18.195 9.8478,18.195 C9.67397368,18.195 9.51741205,18.1210811 9.40783406,18.0029622 L4.17573593,12.7708641 C3.94142136,12.5365495 3.94142136,12.1566505 4.17573593,11.9223359 C4.41005051,11.6880214 4.78994949,11.6880214 5.02426407,11.9223359 L9.2478,16.1458719 L9.2478,16.1458719 L9.2478,16.1458719 Z"/>
</svg>
