<?xml version="1.0" encoding="UTF-8"?>
<svg width="16px" height="16px" viewBox="0 0 16 16" version="1.1" xmlns="http://www.w3.org/2000/svg" xmlns:xlink="http://www.w3.org/1999/xlink">
    <!-- Generator: sketchtool 51.3 (57544) - http://www.bohemiancoding.com/sketch -->
    <title>sharp-up</title>
    <desc>Created with sketchtool.</desc>
    <defs></defs>
    <g id="Icons" stroke="none" stroke-width="1" fill="none" fill-rule="evenodd">
        <g id="Arrow" transform="translate(-56.000000, -164.000000)" fill="#000000">
            <g id="sharp-up" transform="translate(56.000000, 164.000000)">
                <path d="M7.52074899,0.244046401 L1.59482306,8.39219455 C1.30996086,8.78388007 1.58975598,9.33333333 2.07407407,9.33333333 L5.18518519,9.34695698 L5.18518519,15.4074074 C5.18518519,15.7346873 5.45049793,16 5.77777778,16 L10.2222222,16 C10.5495021,16 10.8148148,15.7346873 10.8148148,15.4074074 L10.8045987,9.33333333 L13.9259259,9.33333333 C14.410244,9.33333333 14.6900391,8.78388007 14.4051769,8.39219455 L8.47925101,0.244046401 C8.24259996,-0.0813488005 7.75740004,-0.0813488005 7.52074899,0.244046401 L7.52074899,0.244046401 M12.766344,8.14814815 L10.2222222,8.14814815 C9.89494237,8.14814815 9.62962963,8.41346089 9.62962963,8.74074074 L9.61626684,14.8148148 L6.37037037,14.7859881 L6.37037037,8.74074074 C6.37037037,8.41346089 6.10505763,8.14814815 5.77777778,8.14814815 L3.22533829,8.16526877 L8.0092789,1.51106752 L12.766344,8.14814815 L12.766344,8.14814815" id="Shape"></path>
            </g>
        </g>
    </g>
</svg>