<svg xmlns="http://www.w3.org/2000/svg" viewBox="0 0 16 16">
    <path d="M15.4 4.354h-3.645l.28-3.708a.6.6 0 0 0-.554-.643.596.596 0 0 0-.643.553l-.286 3.798H5.999l.28-3.708a.6.6 0 0 0-.553-.643.595.595 0 0 0-.643.553l-.287 3.798h-3.58a.6.6 0 1 0 0 1.2h3.49l-.369 4.894H.601a.6.6 0 1 0 0 1.2h3.645l-.28 3.709a.6.6 0 0 0 .553.643h.046a.6.6 0 0 0 .598-.553l.286-3.8h4.552l-.279 3.71a.6.6 0 0 0 .553.643h.045a.6.6 0 0 0 .598-.553l.287-3.8h3.58a.6.6 0 0 0 0-1.2h-3.49l.369-4.893H15.4a.6.6 0 1 0 0-1.2m-5.308 6.094H5.54l.369-4.894h4.552l-.369 4.894"/>
</svg>
