<?xml version="1.0" encoding="UTF-8"?>
<svg width="16px" height="17px" viewBox="0 0 16 17" version="1.1" xmlns="http://www.w3.org/2000/svg" xmlns:xlink="http://www.w3.org/1999/xlink">
    <!-- Generator: sketchtool 51.3 (57544) - http://www.bohemiancoding.com/sketch -->
    <title>app/share-stroke</title>
    <desc>Created with sketchtool.</desc>
    <defs></defs>
    <g id="Icons" stroke="none" stroke-width="1" fill="none" fill-rule="evenodd">
        <g id="Web" transform="translate(-529.000000, -629.000000)" fill="#000000">
            <g id="app/share-stroke" transform="translate(529.000000, 630.000000)">
                <path d="M15.3141714,5.71428571e-05 C15.6936,5.71428571e-05 15.9998857,0.307485714 15.9998857,0.685771429 L15.9998857,5.71434286 C15.9998857,6.09377143 15.6936,6.40005714 15.3141714,6.40005714 C14.9347429,6.40005714 14.6284571,6.09377143 14.6284571,5.71434286 L14.6284571,2.34177143 L6.24217143,10.7292 C6.10731429,10.8629143 5.93245714,10.9292 5.75645714,10.9292 C5.5816,10.9292 5.4056,10.8629143 5.27188571,10.7292 C5.00445714,10.4606286 5.00445714,10.0263429 5.27188571,9.75891429 L13.6593143,1.37148571 L10.2867429,1.37148571 C9.90731429,1.37148571 9.59988571,1.0652 9.59988571,0.685771429 C9.59988571,0.307485714 9.90731429,5.71428571e-05 10.2867429,5.71428571e-05 L15.3141714,5.71428571e-05 Z M15.3142857,9.14245714 C15.6914286,9.14245714 16,9.45102857 16,9.82817143 L16,13.7138857 C16,14.9710286 14.9714286,15.9996 13.7142857,15.9996 L2.28571429,15.9996 C1.02857143,15.9996 0,14.9710286 0,13.7138857 L0,2.28531429 C0,1.02817143 1.02857143,-0.0004 2.28571429,-0.0004 L6.16914286,-0.0004 C6.54628571,-0.0004 6.85485714,0.308171429 6.85485714,0.685314286 C6.85485714,1.06245714 6.54628571,1.37102857 6.16914286,1.37102857 L2.28571429,1.37102857 C1.78971429,1.37102857 1.37142857,1.79045714 1.37142857,2.28531429 L1.37142857,13.7138857 C1.37142857,14.2098857 1.78971429,14.6281714 2.28571429,14.6281714 L13.7142857,14.6281714 C14.2102857,14.6281714 14.6285714,14.2098857 14.6285714,13.7138857 L14.6285714,9.82817143 C14.6285714,9.45102857 14.9371429,9.14245714 15.3142857,9.14245714 Z" id="Combined-Shape"></path>
            </g>
        </g>
    </g>
</svg>