<svg xmlns="http://www.w3.org/2000/svg" viewBox="0 0 16 17">
    <path d="M15.314 1h-5.027a.687.687 0 1 0 0 1.371h3.372L5.272 10.76a.687.687 0 0 0 .97.97l8.386-8.387v3.372a.685.685 0 1 0 1.372 0V1.686A.686.686 0 0 0 15.314 1zm0 9.142a.688.688 0 0 0-.685.686v3.886a.926.926 0 0 1-.915.914H2.286a.926.926 0 0 1-.915-.914V3.285c0-.495.419-.914.915-.914h3.883a.688.688 0 0 0 .686-.686A.688.688 0 0 0 6.169 1H2.286A2.292 2.292 0 0 0 0 3.285v11.429A2.292 2.292 0 0 0 2.286 17h11.428A2.292 2.292 0 0 0 16 14.714v-3.886a.688.688 0 0 0-.686-.686z"/>
</svg>
