<svg xmlns="http://www.w3.org/2000/svg" viewBox="0 0 16 16">
    <path d="M6.17 0c.376 0 .685.308.685.685a.688.688 0 0 1-.686.686H2.286a.927.927 0 0 0-.915.914v11.429c0 .496.419.914.915.914h11.428a.926.926 0 0 0 .915-.914V9.828c0-.377.308-.686.685-.686.377 0 .686.309.686.686v3.886A2.292 2.292 0 0 1 13.714 16H2.286A2.292 2.292 0 0 1 0 13.714V2.285A2.292 2.292 0 0 1 2.286 0zm9.144 0c.38 0 .686.307.686.686v5.028a.685.685 0 1 1-1.372 0V2.342l-8.386 8.387a.686.686 0 0 1-.97-.97l8.387-8.388h-3.372a.686.686 0 1 1 0-1.37z"/>
</svg>
