<?xml version="1.0" encoding="UTF-8"?>
<svg width="16px" height="16px" viewBox="0 0 16 16" version="1.1" xmlns="http://www.w3.org/2000/svg" xmlns:xlink="http://www.w3.org/1999/xlink">
    <!-- Generator: sketchtool 51.3 (57544) - http://www.bohemiancoding.com/sketch -->
    <title>sharp-down2</title>
    <desc>Created with sketchtool.</desc>
    <defs></defs>
    <g id="Icons" stroke="none" stroke-width="1" fill="none" fill-rule="evenodd">
        <g id="Deprecated" transform="translate(-362.000000, -102.000000)" fill="#000000">
            <g id="sharp-down2" transform="translate(362.000000, 102.000000)">
                <path d="M7.40702686,13.9755449 L7.40702686,0.592775548 C7.40702686,0.265394653 7.67242151,-4.97379915e-14 7.99980241,-4.97379915e-14 C8.3271833,-4.97379915e-14 8.59257796,0.265394653 8.59257796,0.592775548 L8.59257796,13.9759401 L12.7656545,9.80286353 C12.9971478,9.57137028 13.3724725,9.57137028 13.6039657,9.80286353 C13.835459,10.0343568 13.835459,10.4096815 13.6039657,10.6411748 L8.42798782,15.8171527 C8.32008217,15.9298336 8.16813641,16 7.99980241,16 C7.82806909,16 7.67339258,15.9269711 7.56513399,15.8102745 L2.39603426,10.6411748 C2.16454101,10.4096815 2.16454101,10.0343568 2.39603426,9.80286353 C2.62752751,9.57137028 3.00285223,9.57137028 3.23434548,9.80286353 L7.40702686,13.9755449 L7.40702686,13.9755449" id="Shape"></path>
            </g>
        </g>
    </g>
</svg>