<svg xmlns="http://www.w3.org/2000/svg" viewBox="0 0 16 16">
    <path d="M5.982 13.082a1.273 1.273 0 1 1 0 2.545 1.273 1.273 0 0 1 0-2.545zm7.4 0a1.273 1.273 0 1 1 0 2.545 1.273 1.273 0 0 1 0-2.545zM3.29.3a.6.6 0 0 1 .588.482l.577 2.882H15.4a.6.6 0 0 1 .59.712l-1.078 5.649a1.942 1.942 0 0 1-1.934 1.566H6.451a1.945 1.945 0 0 1-1.946-1.565L3.381 4.408a.597.597 0 0 1-.01-.053L2.799 1.5H.6A.6.6 0 1 1 .6.3zm11.384 4.564H4.696l.986 4.927c.07.354.385.607.757.6h6.55a.744.744 0 0 0 .745-.596l.94-4.931z"/>
</svg>
