<svg xmlns="http://www.w3.org/2000/svg" viewBox="0 0 16 16">
    <path d="M5.982 15.627a1.273 1.273 0 1 0 0-2.545 1.273 1.273 0 0 0 0 2.545zm7.4 0a1.273 1.273 0 1 0 0-2.545 1.273 1.273 0 0 0 0 2.545zM2.799 1.5l.572 2.855a.597.597 0 0 0 .01.053l1.124 5.618a1.945 1.945 0 0 0 1.946 1.565h6.527c.93.018 1.75-.642 1.934-1.566l1.077-5.649a.6.6 0 0 0-.589-.712H4.456L3.879.782A.6.6 0 0 0 3.291.3H.6a.6.6 0 1 0 0 1.2h2.2zm1.897 3.364h9.979l-.94 4.931a.744.744 0 0 1-.745.596H6.44a.749.749 0 0 1-.758-.6l-.986-4.927z"/>
</svg>
