<svg xmlns="http://www.w3.org/2000/svg" viewBox="0 0 16 16">
    <path d="M6.667 12.198c0 .769-.278 1.428-.834 1.978A2.748 2.748 0 0 1 3.83 15c-.781 0-1.448-.276-2-.829A2.736 2.736 0 0 1 1 12.162c0-.769.276-1.432.829-1.99a2.68 2.68 0 0 1 1.973-.839H5.47V6.667H3.802a2.68 2.68 0 0 1-1.973-.838 2.745 2.745 0 0 1-.829-2c0-.781.276-1.448.829-2a2.725 2.725 0 0 1 2-.829c.78 0 1.449.275 2.004.824.556.55.834 1.209.834 1.978V5.47h2.666V3.802c0-.769.278-1.428.834-1.978A2.748 2.748 0 0 1 12.17 1c.787 0 1.455.276 2.005.829.55.552.824 1.219.824 2 0 .775-.275 1.441-.824 2a2.676 2.676 0 0 1-1.978.838H10.53v2.666h1.668c.769 0 1.428.28 1.978.838.55.559.824 1.222.824 1.991 0 .787-.275 1.457-.824 2.01A2.721 2.721 0 0 1 12.17 15c-.78 0-1.449-.275-2.004-.824a2.683 2.683 0 0 1-.834-1.978V10.53H6.667v1.668zm0-2.865h2.666V6.667H6.667v2.666zM5.47 3.83c0-.452-.16-.836-.481-1.154A1.588 1.588 0 0 0 3.83 2.2c-.445 0-.828.159-1.149.476-.32.318-.481.702-.481 1.154 0 .452.16.838.481 1.159.321.32.707.481 1.159.481h1.63V3.83zm-1.63 6.7c-.452 0-.838.16-1.159.481-.32.321-.481.704-.481 1.15 0 .45.16.837.481 1.158.321.32.707.481 1.159.481.445 0 .828-.16 1.149-.481.32-.321.481-.704.481-1.15V10.53H3.84zm6.69-5.06h1.64c.445 0 .828-.16 1.149-.481.32-.321.481-.707.481-1.159 0-.452-.159-.836-.476-1.154A1.571 1.571 0 0 0 12.17 2.2c-.452 0-.838.159-1.159.476-.32.318-.481.702-.481 1.154v1.64zm0 6.7c0 .445.16.828.481 1.149.321.32.707.481 1.159.481.452 0 .836-.16 1.154-.481.317-.321.476-.707.476-1.159 0-.445-.16-.828-.481-1.149a1.568 1.568 0 0 0-1.15-.481H10.53v1.64z"/>
</svg>
