<svg xmlns="http://www.w3.org/2000/svg" viewBox="0 0 16 16">
    <path d="M3.833 13.003a1.333 1.333 0 1 1-2.666 0 1.333 1.333 0 0 1 2.666 0zm.025-5.005a1.333 1.333 0 1 1-2.666 0 1.333 1.333 0 0 1 2.666 0m10.395 5.63H7.025c-.305 0-.553-.28-.553-.626 0-.345.248-.625.553-.625h7.228c.305 0 .553.28.553.625s-.248.625-.553.625m0-5.004H7.025c-.305 0-.553-.28-.553-.625s.248-.625.553-.625h7.228c.305 0 .553.28.553.625s-.248.625-.553.625M2.998 4.392l2.22-2.173a.66.66 0 0 0 0-.945.67.67 0 0 0-.936 0L2.53 3l.35.332L1.8 2.276a.67.67 0 0 0-.934 0 .66.66 0 0 0 0 .946l1.196 1.17a.666.666 0 0 0 .936 0zm11.255-.77H7.025c-.305 0-.553-.28-.553-.625s.248-.625.553-.625h7.228c.305 0 .553.28.553.625s-.248.625-.553.625"/>
</svg>
