<svg xmlns="http://www.w3.org/2000/svg" viewBox="0 0 16 16">
    <path d="M2.5 11.67a1.333 1.333 0 1 1 0 2.665 1.333 1.333 0 0 1 0-2.666zm11.753.707c.305 0 .553.28.553.625s-.248.625-.553.625H7.025c-.305 0-.553-.28-.553-.625s.248-.625.553-.625h7.228zM2.525 6.665a1.333 1.333 0 1 1 0 2.666 1.333 1.333 0 0 1 0-2.666zm11.728.708c.305 0 .553.28.553.625s-.248.625-.553.625H7.025c-.305 0-.553-.28-.553-.625s.248-.625.553-.625h7.228zm-9.97-6.1a.67.67 0 0 1 .935 0 .66.66 0 0 1 0 .946l-2.22 2.173a.667.667 0 0 1-.936 0L.866 3.223a.66.66 0 0 1 0-.946.67.67 0 0 1 .935 0l.733.718zm9.97 1.1c.305 0 .553.28.553.624 0 .345-.248.625-.553.625H7.025c-.305 0-.553-.28-.553-.625s.248-.625.553-.625h7.228z"/>
</svg>
