<svg xmlns="http://www.w3.org/2000/svg" viewBox="0 0 16 16">
    <path d="M3.833 13.003a1.333 1.333 0 1 1-2.666 0 1.333 1.333 0 0 1 2.666 0zm.025-5.005a1.333 1.333 0 1 1-2.666 0 1.333 1.333 0 0 1 2.666 0zm10.395 5.63H7.025c-.305 0-.553-.28-.553-.626 0-.345.248-.625.553-.625h7.228c.305 0 .553.28.553.625s-.248.625-.553.625zm0-5.005H7.025c-.305 0-.553-.28-.553-.625s.248-.625.553-.625h7.228c.305 0 .553.28.553.625s-.248.625-.553.625zM2.998 4.392a.667.667 0 0 1-.936 0L.866 3.223a.66.66 0 0 1 0-.946.67.67 0 0 1 .935 0l1.078 1.056L2.53 3l1.753-1.726a.67.67 0 0 1 .936 0 .66.66 0 0 1 0 .945l-2.22 2.173zm11.255-.77H7.025c-.305 0-.553-.28-.553-.625s.248-.625.553-.625h7.228c.305 0 .553.28.553.625s-.248.625-.553.625z"/>
</svg>
