<svg xmlns="http://www.w3.org/2000/svg" viewBox="0 0 16 16">
    <path d="M2.882 2.419h4c.257 0 .465.208.465.465v4a.465.465 0 0 1-.465.465h-4a.465.465 0 0 1-.465-.465v-4c0-.257.208-.465.465-.465zm6.236 0h4c.257 0 .465.208.465.465v4a.465.465 0 0 1-.465.465h-4a.465.465 0 0 1-.465-.465v-4c0-.257.208-.465.465-.465zM2.882 8.65h4c.257 0 .465.208.465.465v4a.465.465 0 0 1-.465.465h-4a.465.465 0 0 1-.465-.465v-4c0-.257.208-.465.465-.465zm6.236 0h4c.257 0 .465.208.465.465v4a.465.465 0 0 1-.465.465h-4a.465.465 0 0 1-.465-.465v-4c0-.257.208-.465.465-.465zm-6.7-7.535c-.719 0-1.302.583-1.302 1.303V13.58c0 .72.583 1.303 1.303 1.303H13.58c.72 0 1.303-.583 1.303-1.303V2.42c0-.72-.583-1.303-1.303-1.303H2.42zm0-1.116h11.163A2.419 2.419 0 0 1 16 2.419V13.58A2.419 2.419 0 0 1 13.581 16H2.42A2.419 2.419 0 0 1 0 13.581V2.42A2.419 2.419 0 0 1 2.419 0z"/>
</svg>
