<svg xmlns="http://www.w3.org/2000/svg" viewBox="0 0 16 16">
    <path d="M2.419 1.116c-.72 0-1.303.583-1.303 1.303V13.58c0 .72.583 1.303 1.303 1.303H13.58c.72 0 1.303-.583 1.303-1.303V2.42c0-.72-.583-1.303-1.303-1.303H2.42zm0-1.116H13.58A2.419 2.419 0 0 1 16 2.419V13.58A2.419 2.419 0 0 1 13.581 16H2.42A2.419 2.419 0 0 1 0 13.581V2.42A2.419 2.419 0 0 1 2.419 0zm.5 8.652H13.08a.5.5 0 0 1 .5.5v3.93a.5.5 0 0 1-.5.5H2.92a.5.5 0 0 1-.5-.5v-3.93a.5.5 0 0 1 .5-.5zm0-6.233H13.08a.5.5 0 0 1 .5.5v3.93a.5.5 0 0 1-.5.5H2.92a.5.5 0 0 1-.5-.5v-3.93a.5.5 0 0 1 .5-.5z"/>
</svg>
