<svg xmlns="http://www.w3.org/2000/svg" viewBox="0 0 16 16">
    <path d="M13.581 0A2.419 2.419 0 0 1 16 2.419V13.58A2.419 2.419 0 0 1 13.581 16H2.42A2.419 2.419 0 0 1 0 13.581V2.42A2.419 2.419 0 0 1 2.419 0H13.58zm0 1.116H2.42c-.72 0-1.303.583-1.303 1.303V13.58c0 .72.583 1.303 1.303 1.303H13.58c.72 0 1.303-.583 1.303-1.303V2.42c0-.72-.583-1.303-1.303-1.303zm-6.7 7.535c.258 0 .466.208.466.465v4a.465.465 0 0 1-.465.465h-4a.465.465 0 0 1-.465-.465v-4c0-.257.208-.465.465-.465h4zm6.237 0c.257 0 .465.208.465.465v4a.465.465 0 0 1-.465.465h-4a.465.465 0 0 1-.465-.465v-4c0-.257.208-.465.465-.465h4zM6.882 2.42c.257 0 .465.208.465.465v4a.465.465 0 0 1-.465.465h-4a.465.465 0 0 1-.465-.465v-4c0-.257.208-.465.465-.465h4zm6.236 0c.257 0 .465.208.465.465v4a.465.465 0 0 1-.465.465h-4a.465.465 0 0 1-.465-.465v-4c0-.257.208-.465.465-.465h4z"/>
</svg>
