<svg xmlns="http://www.w3.org/2000/svg" viewBox="0 0 16 16">
    <path d="M9.672 7.736L8.264 6.328l2.477-1.716.647.648-1.716 2.476zM14 0H5.2c-1.1 0-2 .9-2 2v1.2H2c-1.1 0-2 .9-2 2V14c0 1.1.9 2 2 2h8.8c1.1 0 2-.9 2-2v-1.2H14c1.1 0 2-.9 2-2V2c0-1.1-.9-2-2-2zm.8 10.8a.81.81 0 0 1-.8.8H5.2a.81.81 0 0 1-.8-.8V2c0-.434.366-.8.8-.8H14c.434 0 .8.366.8.8v8.8zm-2.209-6.035l-1.356-1.356v-.001l-.534-.533a.601.601 0 0 0-.849.849l.026.026-2.476 1.716-.283-.283a.601.601 0 0 0-.849.849l.638.637.787.788-1.619 1.619a.601.601 0 0 0 .85.849l1.618-1.62.787.788.638.637a.6.6 0 1 0 .848-.849l-.283-.283 1.717-2.476.026.026a.6.6 0 1 0 .848-.849l-.534-.534zM11.6 14a.81.81 0 0 1-.8.8H2a.81.81 0 0 1-.8-.8V5.2c0-.434.366-.8.8-.8h1.2v6.4c0 1.1.9 2 2 2h6.4V14z"/>
</svg>
