<svg xmlns="http://www.w3.org/2000/svg" viewBox="0 0 16 16">
    <path d="M9.672 7.736L8.264 6.328l2.477-1.716.647.648-1.716 2.476zM14 0c1.1 0 2 .9 2 2v8.8c0 1.1-.9 2-2 2h-1.2V14c0 1.1-.9 2-2 2H2c-1.1 0-2-.9-2-2V5.2c0-1.1.9-2 2-2h1.2V2c0-1.1.9-2 2-2zM3.2 4.4H2a.81.81 0 0 0-.8.8V14c0 .434.366.8.8.8h8.8a.81.81 0 0 0 .8-.8v-1.2H5.2c-1.1 0-2-.9-2-2V4.4zM14 1.2H5.2a.81.81 0 0 0-.8.8v8.8c0 .434.366.8.8.8H14a.81.81 0 0 0 .8-.8V2a.81.81 0 0 0-.8-.8zM9.852 2.875a.603.603 0 0 1 .85 0l.532.533.001.001 1.89 1.89a.6.6 0 1 1-.848.849l-.026-.026-1.717 2.476.283.283a.6.6 0 1 1-.848.849l-.638-.637-.787-.788-1.619 1.62a.6.6 0 1 1-.849-.849l1.62-1.619-.788-.788-.638-.637a.601.601 0 0 1 .85-.849l.282.283L9.878 3.75l-.026-.026a.601.601 0 0 1 0-.849z"/>
</svg>
