<svg xmlns="http://www.w3.org/2000/svg" viewBox="0 0 17 17">
    <path d="M9.73 3.213a5.202 5.202 0 0 1 3.69 4.964v3.456c0 .42.13.828.374 1.17l.416.587a1.254 1.254 0 0 1-1.022 1.983h-2.984a2.143 2.143 0 0 1-3.936 0H3.284a1.254 1.254 0 0 1-1.023-1.982l.418-.588c.21-.295.338-.644.367-.987a.6.6 0 1 1 1.196.1 3.216 3.216 0 0 1-.585 1.582l-.418.588a.054.054 0 0 0-.003.057c.01.018.028.03.048.03h9.904c.02 0 .039-.012.048-.03a.054.054 0 0 0-.004-.058l-.416-.586a3.216 3.216 0 0 1-.596-1.866V8.177a3.997 3.997 0 0 0-5.088-3.828.6.6 0 0 1-.335-1.152l.08-.023a1.667 1.667 0 1 1 2.853.039zM8.315 1.867a.467.467 0 1 0 .001.933.467.467 0 0 0 0-.933zM2.697 9.042l2.176-2.175H3.12a.6.6 0 1 1 0-1.2h3.2a.6.6 0 0 1 .424 1.024L4.57 8.867H6.32a.6.6 0 1 1 0 1.2h-3.2a.6.6 0 0 1-.424-1.025z"/>
</svg>
