<svg xmlns="http://www.w3.org/2000/svg" viewBox="0 0 17 17">
    <path d="M8.315.667A1.667 1.667 0 0 1 9.73 3.214a5.202 5.202 0 0 1 3.684 4.73l.006.233v3.456c0 .36.095.711.276 1.02l.098.15.416.587a1.254 1.254 0 0 1-.883 1.975l-.14.008h-2.984a2.143 2.143 0 0 1-3.934 0H3.284a1.254 1.254 0 0 1-1.098-1.864l.075-.118.418-.588c.21-.295.338-.644.367-.987a.6.6 0 1 1 1.196.1 3.206 3.206 0 0 1-.466 1.403l-.12.18-.417.587a.054.054 0 0 0-.003.057.055.055 0 0 0 .029.026l.02.004h9.903a.055.055 0 0 0 .052-.069l-.008-.019-.416-.586a3.216 3.216 0 0 1-.589-1.644l-.007-.222V8.177a3.997 3.997 0 0 0-5.088-3.828.6.6 0 0 1-.335-1.152l.082-.023A1.667 1.667 0 0 1 8.316.667zm-1.994 5a.6.6 0 0 1 .488.95l-.064.074L4.57 8.867H6.32a.6.6 0 0 1 .097 1.192l-.097.008h-3.2a.6.6 0 0 1-.488-.95l.064-.075 2.176-2.175H3.12a.6.6 0 0 1-.097-1.193l.097-.007h3.2z"/>
</svg>
