<svg xmlns="http://www.w3.org/2000/svg" viewBox="0 0 17 17">
    <path d="M8.315.667A1.667 1.667 0 0 1 9.73 3.214a5.2 5.2 0 0 1 3.69 4.963v3.456c0 .42.13.828.374 1.17l.416.587a1.254 1.254 0 0 1-1.022 1.983h-2.985a2.143 2.143 0 0 1-3.934 0H3.284a1.254 1.254 0 0 1-1.023-1.982l.418-.588c.21-.295.338-.644.367-.987a.6.6 0 1 1 1.196.1 3.216 3.216 0 0 1-.585 1.582l-.418.588a.054.054 0 0 0-.003.057c.01.018.028.03.048.03h9.904c.02 0 .039-.012.048-.03a.054.054 0 0 0-.004-.058l-.416-.586a3.216 3.216 0 0 1-.596-1.866V8.177a3.997 3.997 0 0 0-5.088-3.828.6.6 0 0 1-.335-1.152l.082-.023A1.667 1.667 0 0 1 8.316.667zm-1.994 5a.6.6 0 0 1 .424 1.024L4.57 8.867H6.32a.6.6 0 1 1 0 1.2h-3.2a.6.6 0 0 1-.424-1.025l2.176-2.175H3.12a.6.6 0 1 1 0-1.2z"/>
</svg>
