<svg xmlns="http://www.w3.org/2000/svg" viewBox="0 0 17 17">
    <path d="M6.877 3.174a5.146 5.146 0 0 0-.08.023.6.6 0 1 0 .335 1.152 3.997 3.997 0 0 1 5.088 3.827v3.457c0 .67.208 1.321.596 1.866l.416.586a.054.054 0 0 1 .004.058.055.055 0 0 1-.048.03H3.284a.055.055 0 0 1-.048-.03.054.054 0 0 1 .003-.057l.418-.588a3.216 3.216 0 0 0 .585-1.581.6.6 0 0 0-1.196-.1 2.017 2.017 0 0 1-.367.986l-.418.588a1.254 1.254 0 0 0 1.023 1.982h2.984a2.143 2.143 0 0 0 3.936 0h2.984a1.255 1.255 0 0 0 1.022-1.983l-.416-.586a2.017 2.017 0 0 1-.374-1.17V8.176a5.202 5.202 0 0 0-3.69-4.964 1.667 1.667 0 1 0-2.853-.039zm1.438-1.307a.467.467 0 1 1 0 .933.467.467 0 0 1 0-.933zM2.697 9.042a.6.6 0 0 0 .424 1.025h3.2a.6.6 0 0 0 0-1.2H4.57L6.745 6.69a.6.6 0 0 0-.424-1.024h-3.2a.6.6 0 1 0 0 1.2h1.752L2.697 9.042z"/>
</svg>
