<svg xmlns="http://www.w3.org/2000/svg" viewBox="0 0 17 16">
    <path d="M13.177 12.033a3.358 3.358 0 1 1 0-4.75.6.6 0 1 0 .849-.848 4.558 4.558 0 1 0-6.446 6.447 4.558 4.558 0 0 0 6.446-6.447.6.6 0 0 0-.849.849 3.358 3.358 0 0 1 0 4.749zM9.75 10.008a.6.6 0 0 0 .363.55l1.81.782a.6.6 0 0 0 .475-1.102l-1.81-.78.362.55v-2.16a.6.6 0 1 0-1.2 0v2.16zm-9.203 1.37c-.302 0-.547.268-.547.6 0 .33.245.598.547.598h4.106c.303 0 .547-.268.547-.599 0-.33-.244-.6-.547-.6H.547zM5 7.807c.29 0 .526-.269.526-.6 0-.332-.236-.6-.526-.6H.527c-.292 0-.527.268-.527.6 0 .331.235.6.527.6H5zm10.4-4.825a.6.6 0 0 0 0-1.2H.6a.6.6 0 1 0 0 1.2h14.8z"/>
</svg>
