<svg xmlns="http://www.w3.org/2000/svg" viewBox="0 0 17 16">
    <path d="M13.177 12.033a3.358 3.358 0 1 1 0-4.75.6.6 0 1 0 .849-.848 4.558 4.558 0 1 0-6.446 6.447 4.558 4.558 0 0 0 6.446-6.447.6.6 0 0 0-.849.849 3.358 3.358 0 0 1 0 4.749zm-8.524-.656c.303 0 .547.27.547.6 0 .331-.244.6-.547.6H.547c-.302 0-.547-.269-.547-.6 0-.33.245-.6.547-.6zM10.35 7.25a.6.6 0 0 1 .6.6v1.763l1.448.626a.6.6 0 0 1 .344.697l-.031.092a.6.6 0 0 1-.789.313l-1.81-.781a.6.6 0 0 1-.362-.551v-2.16a.6.6 0 0 1 .6-.6zM5 6.609c.29 0 .526.267.526.6 0 .33-.236.6-.526.6H.527c-.292 0-.527-.27-.527-.6 0-.333.235-.6.527-.6zm10.4-4.826a.6.6 0 1 1 0 1.2H.6a.6.6 0 1 1 0-1.2z"/>
</svg>
