<svg xmlns="http://www.w3.org/2000/svg" viewBox="0 0 17 16">
    <path d="M13.177 12.033a3.358 3.358 0 1 1 0-4.75.6.6 0 1 0 .849-.848 4.558 4.558 0 1 0-6.446 6.447 4.558 4.558 0 0 0 6.446-6.447.6.6 0 0 0-.849.849 3.358 3.358 0 0 1 0 4.749zM9.75 10.008v-2.16a.6.6 0 1 1 1.2 0v2.16l-.362-.55 1.81.78a.6.6 0 1 1-.476 1.102l-1.81-.781a.6.6 0 0 1-.362-.551zm-9.203 1.37h4.106c.303 0 .547.268.547.6 0 .33-.244.598-.547.598H.547c-.302 0-.547-.268-.547-.599 0-.33.245-.6.547-.6zM5 7.807H.527c-.292 0-.527-.269-.527-.6 0-.332.235-.6.527-.6H5c.29 0 .526.268.526.6 0 .331-.236.6-.526.6zm10.4-4.825H.6a.6.6 0 1 1 0-1.2h14.8a.6.6 0 1 1 0 1.2z"/>
</svg>
