<svg xmlns="http://www.w3.org/2000/svg" viewBox="0 0 17 16">
    <path d="M13.608 9.085a8.067 8.067 0 0 1 1.136 1.457v-.601a8.067 8.067 0 0 1-1.136 1.457c-.879.888-1.835 1.408-2.826 1.408-.991 0-1.947-.52-2.825-1.408A8.067 8.067 0 0 1 6.82 9.941v.601a8.067 8.067 0 0 1 1.136-1.457c.878-.888 1.834-1.408 2.825-1.408.991 0 1.947.52 2.826 1.408zm-6.5-.857a9.264 9.264 0 0 0-1.33 1.713.612.612 0 0 0 0 .601 9.264 9.264 0 0 0 1.33 1.713c1.083 1.095 2.312 1.763 3.674 1.763s2.592-.668 3.674-1.762a9.264 9.264 0 0 0 1.33-1.714.612.612 0 0 0 0-.601 9.264 9.264 0 0 0-1.33-1.713c-1.082-1.094-2.312-1.763-3.674-1.763s-2.591.669-3.674 1.763zm4.52 1.16a1.217 1.217 0 0 1 0 1.708 1.187 1.187 0 0 1-1.691 0 1.217 1.217 0 0 1 0-1.709 1.187 1.187 0 0 1 1.69 0zM.617 11.712A.613.613 0 0 0 0 12.32c0 .334.277.605.618.605h3.764c.342 0 .618-.271.618-.605a.612.612 0 0 0-.618-.607H.618zm3.828-3.607c.306 0 .554-.271.554-.606 0-.335-.248-.606-.554-.606H.554c-.306 0-.554.27-.554.606 0 .335.248.606.554.606h3.892zM.6 3.231h14.8c.331 0 .6-.272.6-.606a.603.603 0 0 0-.6-.607H.6c-.332 0-.6.271-.6.607 0 .334.268.606.6.606z"/>
</svg>
