<svg xmlns="http://www.w3.org/2000/svg" viewBox="0 0 16 16">
    <path d="M.608 8A.604.604 0 0 1 0 7.4c0-.331.272-.6.608-.6h6.244c.335 0 .607.269.607.6 0 .331-.272.6-.607.6H.608zm0 5A.604.604 0 0 1 0 12.4c0-.331.272-.6.608-.6h4.218c.336 0 .608.269.608.6 0 .331-.272.6-.608.6H.608zm0-10A.604.604 0 0 1 0 2.4c0-.331.272-.6.608-.6h8.269c.335 0 .607.269.607.6 0 .331-.272.6-.607.6H.607zm11.148 9.052V2.1c0-.332.273-.6.608-.6.336 0 .608.268.608.6v9.952l1.99-1.967a.613.613 0 0 1 .86 0 .593.593 0 0 1 0 .848l-3.028 2.991a.606.606 0 0 1-.43.176.604.604 0 0 1-.43-.176l-3.028-2.991a.595.595 0 0 1 0-.848.614.614 0 0 1 .86 0l1.99 1.967z"/>
</svg>
