<svg xmlns="http://www.w3.org/2000/svg" viewBox="0 0 16 16">
    <path d="M14.138 3.559c.127.034.238.11.318.211l1.27.843a.62.62 0 0 1 .176.849.597.597 0 0 1-.835.178l-.48-.319v10.066c0 .339-.27.613-.603.613a.608.608 0 0 1-.602-.613V4.521L8.768 1.458a1.386 1.386 0 0 0-1.536 0L2.618 4.521v10.866c0 .339-.27.613-.602.613a.608.608 0 0 1-.603-.613V5.321l-.48.319a.597.597 0 0 1-.835-.178.62.62 0 0 1 .175-.849l1.27-.843a.603.603 0 0 1 .32-.211L6.572.432a2.575 2.575 0 0 1 2.854 0l4.71 3.127zM5.083 9.974h5.834a.6.6 0 0 1 .6.6v.026a.6.6 0 0 1-.6.6H5.083a.6.6 0 0 1-.6-.6v-.026a.6.6 0 0 1 .6-.6zm0-2.248h5.834a.6.6 0 0 1 .6.6v.026a.6.6 0 0 1-.6.6H5.083a.6.6 0 0 1-.6-.6v-.026a.6.6 0 0 1 .6-.6zm0 4.495h5.834a.6.6 0 0 1 .6.6v.026a.6.6 0 0 1-.6.6H5.083a.6.6 0 0 1-.6-.6v-.026a.6.6 0 0 1 .6-.6z"/>
</svg>
