<svg xmlns="http://www.w3.org/2000/svg" viewBox="0 0 16 16">
    <path d="M9.427.432l4.717 3.129c.123.034.23.107.309.205l1.274.847a.62.62 0 0 1 .175.849.597.597 0 0 1-.835.178l-.48-.319v10.066c0 .339-.27.613-.603.613a.608.608 0 0 1-.602-.613L13.38 4.521 8.768 1.458a1.386 1.386 0 0 0-1.536 0L2.618 4.521v10.866c0 .339-.27.613-.602.613a.608.608 0 0 1-.603-.613L1.412 5.321l-.48.319a.597.597 0 0 1-.834-.178.62.62 0 0 1 .175-.849l1.274-.847a.603.603 0 0 1 .309-.205L6.573.43a2.575 2.575 0 0 1 2.854 0zm1.49 11.79a.6.6 0 0 1 .6.6v.025a.6.6 0 0 1-.6.6H5.083a.6.6 0 0 1-.6-.6v-.026a.6.6 0 0 1 .6-.6h5.834zm0-2.248a.6.6 0 0 1 .6.6v.026a.6.6 0 0 1-.6.6H5.083a.6.6 0 0 1-.6-.6v-.026a.6.6 0 0 1 .6-.6h5.834zm0-2.248a.6.6 0 0 1 .6.6v.026a.6.6 0 0 1-.6.6H5.083a.6.6 0 0 1-.6-.6v-.026a.6.6 0 0 1 .6-.6h5.834z"/>
</svg>
