<svg xmlns="http://www.w3.org/2000/svg" viewBox="0 0 16 16">
    <path d="M4.023 11.215h-1.57A1.853 1.853 0 0 1 .6 9.363V4.502c0-1.023.83-1.852 1.853-1.852h4.213a.464.464 0 0 0 .247-.071L10.56.285a1.854 1.854 0 0 1 2.84 1.567v10.161a1.851 1.851 0 0 1-2.84 1.568l-3.647-2.294a.464.464 0 0 0-.247-.072H5.413v4.09c0 .927-1.39.927-1.39 0v-4.09zM6.666 4.04H2.453a.463.463 0 0 0-.463.463v4.861c0 .256.207.463.463.463h4.213c.35 0 .691.1.987.285l3.647 2.294a.463.463 0 0 0 .71-.392V1.853a.463.463 0 0 0-.71-.393L7.653 3.754a1.854 1.854 0 0 1-.987.285z"/>
</svg>
