<?xml version="1.0" encoding="UTF-8"?>
<svg width="16px" height="16px" viewBox="0 0 16 16" version="1.1" xmlns="http://www.w3.org/2000/svg" xmlns:xlink="http://www.w3.org/1999/xlink">
    <!-- Generator: sketchtool 51.3 (57544) - http://www.bohemiancoding.com/sketch -->
    <title>spread</title>
    <desc>Created with sketchtool.</desc>
    <defs></defs>
    <g id="Icons" stroke="none" stroke-width="1" fill="none" fill-rule="evenodd">
        <g id="Deprecated" transform="translate(-344.000000, -164.000000)" fill="#000000">
            <g id="spread" transform="translate(344.000000, 164.000000)">
                <path d="M11.9589322,12.7474333 C11.9589322,12.5065024 12.0410678,12.3039014 12.2053388,12.1396304 C12.3696099,11.9753593 12.5722108,11.8932238 12.8131417,11.8932238 L15.1129363,11.8932238 C15.3538672,11.8932238 15.5619439,11.9753593 15.7371663,12.1396304 C15.9123888,12.3039014 15.9890486,12.5065024 15.9671458,12.7474333 L15.9671458,15.0800821 C15.945243,15.321013 15.8521561,15.5290897 15.687885,15.7043121 C15.523614,15.8795346 15.321013,15.9671458 15.0800821,15.9671458 L12.8788501,15.9671458 C12.6379192,15.9671458 12.4298426,15.8795346 12.2546201,15.7043121 C12.0793977,15.5290897 11.9917864,15.321013 11.9917864,15.0800821 L11.9589322,12.7474333 Z M11.9917864,6.83367556 C11.9917864,6.5927447 12.0793977,6.37919233 12.2546201,6.19301848 C12.4298426,6.00684463 12.6379192,5.9137577 12.8788501,5.9137577 L15.0800821,5.9137577 C15.321013,5.9137577 15.523614,6.00684463 15.687885,6.19301848 C15.8521561,6.37919233 15.945243,6.5927447 15.9671458,6.83367556 L15.9671458,9.10061602 C15.9890486,9.34154689 15.9123888,9.55509925 15.7371663,9.7412731 C15.5619439,9.92744695 15.3538672,10.0205339 15.1129363,10.0205339 L12.8131417,10.0205339 C12.5722108,10.0205339 12.3696099,9.92744695 12.2053388,9.7412731 C12.0410678,9.55509925 11.9589322,9.34154689 11.9589322,9.10061602 L11.9917864,6.83367556 Z M5.97946612,0.854209446 C5.97946612,0.613278576 6.06707734,0.410677618 6.24229979,0.246406571 C6.41752225,0.0821355236 6.6255989,0 6.86652977,0 L9.13347023,0 C9.3744011,0 9.58247775,0.0821355236 9.75770021,0.246406571 C9.93292266,0.410677618 10.0205339,0.613278576 10.0205339,0.854209446 L9.98767967,3.18685832 C9.98767967,3.42778919 9.90006845,3.63039014 9.724846,3.79466119 C9.54962355,3.95893224 9.34154689,4.04106776 9.10061602,4.04106776 L6.89938398,4.04106776 C6.65845311,4.04106776 6.45037645,3.95893224 6.275154,3.79466119 C6.09993155,3.63039014 6.01232033,3.42778919 6.01232033,3.18685832 L5.97946612,0.854209446 Z M15.1129363,0 C15.3538672,0 15.5619439,0.0821355236 15.7371663,0.246406571 C15.9123888,0.410677618 15.9890486,0.613278576 15.9671458,0.854209446 L15.9671458,3.18685832 C15.945243,3.42778919 15.8521561,3.63039014 15.687885,3.79466119 C15.523614,3.95893224 15.321013,4.04106776 15.0800821,4.04106776 L12.8788501,4.04106776 C12.6379192,4.04106776 12.4298426,3.95893224 12.2546201,3.79466119 C12.0793977,3.63039014 11.9917864,3.42778919 11.9917864,3.18685832 L11.9589322,0.854209446 C11.9589322,0.613278576 12.0410678,0.410677618 12.2053388,0.246406571 C12.3696099,0.0821355236 12.5722108,0 12.8131417,0 L15.1129363,0 L15.1129363,0 Z M5.97946612,6.83367556 C5.97946612,6.5927447 6.06707734,6.37919233 6.24229979,6.19301848 C6.41752225,6.00684463 6.6255989,5.9137577 6.86652977,5.9137577 L9.13347023,5.9137577 C9.3744011,5.9137577 9.58247775,6.00684463 9.75770021,6.19301848 C9.93292266,6.37919233 10.0205339,6.5927447 10.0205339,6.83367556 L9.98767967,9.10061602 C9.98767967,9.34154689 9.90006845,9.55509925 9.724846,9.7412731 C9.54962355,9.92744695 9.34154689,10.0205339 9.10061602,10.0205339 L6.89938398,10.0205339 C6.65845311,10.0205339 6.45037645,9.92744695 6.275154,9.7412731 C6.09993155,9.55509925 6.01232033,9.34154689 6.01232033,9.10061602 L5.97946612,6.83367556 Z M0.0328542094,6.83367556 C0.0547570157,6.5927447 0.147843943,6.37919233 0.31211499,6.19301848 C0.476386037,6.00684463 0.678986995,5.9137577 0.919917864,5.9137577 L3.1211499,5.9137577 C3.36208077,5.9137577 3.57015743,6.00684463 3.74537988,6.19301848 C3.92060233,6.37919233 4.00821355,6.5927447 4.00821355,6.83367556 L4.04106776,9.10061602 C4.04106776,9.34154689 3.95893224,9.55509925 3.79466119,9.7412731 C3.63039014,9.92744695 3.42778919,10.0205339 3.18685832,10.0205339 L0.854209446,10.0205339 C0.613278576,10.0205339 0.410677618,9.92744695 0.246406571,9.7412731 C0.0821355236,9.55509925 8.8817842e-16,9.34154689 8.8817842e-16,9.10061602 L0.0328542094,6.83367556 Z M8.8817842e-16,12.7474333 C8.8817842e-16,12.5065024 0.0821355236,12.3039014 0.246406571,12.1396304 C0.410677618,11.9753593 0.613278576,11.8932238 0.854209446,11.8932238 L3.18685832,11.8932238 C3.42778919,11.8932238 3.63039014,11.9753593 3.79466119,12.1396304 C3.95893224,12.3039014 4.04106776,12.5065024 4.04106776,12.7474333 L4.00821355,15.0800821 C4.00821355,15.321013 3.92060233,15.5290897 3.74537988,15.7043121 C3.57015743,15.8795346 3.36208077,15.9671458 3.1211499,15.9671458 L0.919917864,15.9671458 C0.678986995,15.9671458 0.476386037,15.8795346 0.31211499,15.7043121 C0.147843943,15.5290897 0.0547570157,15.321013 0.0328542094,15.0800821 L8.8817842e-16,12.7474333 Z M6.01232033,12.7474333 C6.01232033,12.5065024 6.09993155,12.3039014 6.275154,12.1396304 C6.45037645,11.9753593 6.65845311,11.8932238 6.89938398,11.8932238 L9.10061602,11.8932238 C9.34154689,11.8932238 9.54962355,11.9753593 9.724846,12.1396304 C9.90006845,12.3039014 9.98767967,12.5065024 9.98767967,12.7474333 L10.0205339,15.0800821 C10.0205339,15.321013 9.93292266,15.5290897 9.75770021,15.7043121 C9.58247775,15.8795346 9.3744011,15.9671458 9.13347023,15.9671458 L6.86652977,15.9671458 C6.6255989,15.9671458 6.41752225,15.8795346 6.24229979,15.7043121 C6.06707734,15.5290897 5.97946612,15.321013 5.97946612,15.0800821 L6.01232033,12.7474333 Z M8.8817842e-16,0.854209446 C8.8817842e-16,0.613278576 0.0821355236,0.410677618 0.246406571,0.246406571 C0.410677618,0.0821355236 0.613278576,0 0.854209446,0 L3.18685832,0 C3.42778919,0 3.63039014,0.0821355236 3.79466119,0.246406571 C3.95893224,0.410677618 4.04106776,0.613278576 4.04106776,0.854209446 L4.00821355,3.18685832 C4.00821355,3.42778919 3.92060233,3.63039014 3.74537988,3.79466119 C3.57015743,3.95893224 3.36208077,4.04106776 3.1211499,4.04106776 L0.919917864,4.04106776 C0.678986995,4.04106776 0.476386037,3.95893224 0.31211499,3.79466119 C0.147843943,3.63039014 0.0547570157,3.42778919 0.0328542094,3.18685832 L8.8817842e-16,0.854209446 Z" id="Shape"></path>
            </g>
        </g>
    </g>
</svg>