<svg xmlns="http://www.w3.org/2000/svg" viewBox="0 0 16 16">
    <path fill="#000" fill-rule="evenodd" d="M11.959 12.747c0-.24.082-.443.246-.607a.826.826 0 0 1 .608-.247h2.3c.24 0 .449.082.624.247a.705.705 0 0 1 .23.607v2.333c-.022.241-.115.45-.28.624a.8.8 0 0 1-.607.263H12.88a.853.853 0 0 1-.624-.263.853.853 0 0 1-.263-.624l-.033-2.333zm.033-5.913c0-.241.087-.455.263-.641a.829.829 0 0 1 .624-.28h2.201c.241 0 .444.094.608.28.164.186.257.4.28.64v2.268a.795.795 0 0 1-.23.64.829.829 0 0 1-.625.28h-2.3a.779.779 0 0 1-.608-.28.94.94 0 0 1-.246-.64l.033-2.267zM5.979.854a.8.8 0 0 1 .263-.608A.882.882 0 0 1 6.867 0h2.266c.241 0 .45.082.625.246a.8.8 0 0 1 .263.608l-.033 2.333a.8.8 0 0 1-.263.608.882.882 0 0 1-.624.246H6.899a.882.882 0 0 1-.624-.246.8.8 0 0 1-.263-.608L5.98.854zM15.113 0c.24 0 .449.082.624.246a.705.705 0 0 1 .23.608v2.333a.954.954 0 0 1-.28.608.826.826 0 0 1-.607.246H12.88a.882.882 0 0 1-.624-.246.8.8 0 0 1-.263-.608L11.959.854c0-.24.082-.443.246-.608A.826.826 0 0 1 12.813 0h2.3zM5.979 6.834c0-.241.088-.455.263-.641a.829.829 0 0 1 .625-.28h2.266c.241 0 .45.094.625.28.175.186.263.4.263.64l-.033 2.268c0 .24-.088.454-.263.64a.829.829 0 0 1-.624.28H6.899a.829.829 0 0 1-.624-.28.908.908 0 0 1-.263-.64L5.98 6.834zm-5.946 0c.022-.241.115-.455.28-.641a.779.779 0 0 1 .607-.28H3.12c.241 0 .45.094.624.28.176.186.263.4.263.64l.033 2.268a.94.94 0 0 1-.246.64.779.779 0 0 1-.608.28H.854a.779.779 0 0 1-.608-.28.94.94 0 0 1-.246-.64l.033-2.267zM0 12.747c0-.24.082-.443.246-.607a.826.826 0 0 1 .608-.247h2.333c.24 0 .443.082.608.247a.826.826 0 0 1 .246.607l-.033 2.333c0 .241-.087.45-.263.624a.853.853 0 0 1-.624.263H.92a.8.8 0 0 1-.608-.263 1.024 1.024 0 0 1-.28-.624L0 12.747zm6.012 0a.8.8 0 0 1 .263-.607.882.882 0 0 1 .624-.247h2.202c.24 0 .449.082.624.247a.8.8 0 0 1 .263.607l.033 2.333c0 .241-.088.45-.263.624a.853.853 0 0 1-.625.263H6.867a.853.853 0 0 1-.625-.263.853.853 0 0 1-.263-.624l.033-2.333zM0 .854C0 .614.082.411.246.246A.826.826 0 0 1 .854 0h2.333c.24 0 .443.082.608.246a.826.826 0 0 1 .246.608l-.033 2.333a.8.8 0 0 1-.263.608.882.882 0 0 1-.624.246H.92a.826.826 0 0 1-.608-.246.954.954 0 0 1-.28-.608L0 .854z"/>
</svg>
