<?xml version="1.0" encoding="UTF-8"?>
<svg width="16px" height="16px" viewBox="0 0 16 16" version="1.1" xmlns="http://www.w3.org/2000/svg" xmlns:xlink="http://www.w3.org/1999/xlink">
    <!-- Generator: sketchtool 51.3 (57544) - http://www.bohemiancoding.com/sketch -->
    <title>sprint</title>
    <desc>Created with sketchtool.</desc>
    <defs></defs>
    <g id="Icons" stroke="none" stroke-width="1" fill="none" fill-rule="evenodd">
        <g id="Deprecated" transform="translate(-242.000000, -300.000000)" fill="#000000">
            <g id="sprint" transform="translate(242.000000, 301.000000)">
                <path d="M9.58550682,4.39216421 C8.37762848,5.18708979 7.66003171,5.79677817 7.47150065,6.14586202 C7.35592938,6.35985363 7.3581904,6.41120163 7.41188665,6.47483552 C7.50909411,6.5900333 7.72102797,6.71315329 8.16838029,6.91333265 C8.29670025,6.97045134 8.29670025,6.97045134 8.43103334,7.0303566 C9.94874531,7.71125376 10.5740506,8.44824759 10.0361254,9.88242898 C9.69580404,10.7897719 8.66219052,11.8013779 6.92616651,12.9939616 C6.64878874,13.1845097 6.26991956,13.1134492 6.07993851,12.8352434 C5.88995745,12.5570377 5.96080649,12.1770375 6.23818425,11.9864893 C7.7808744,10.9267188 8.67005247,10.0564729 8.8966001,9.45246629 C9.13188855,8.82515545 8.93646976,8.59483205 7.9339154,8.14505211 C7.80476959,8.08746246 7.80476959,8.08746246 7.6723324,8.02850759 C7.053679,7.75167514 6.74106502,7.57006646 6.48255973,7.26371923 C6.0849029,6.7924675 6.05872473,6.19796017 6.40097828,5.56424397 C6.68512677,5.03811502 7.38529294,4.41219752 8.5303608,3.63036264 L8.29802272,3.4626176 C6.83458092,2.40603186 4.85844255,2.4178308 3.40764616,3.4918166 C3.13714416,3.69206201 2.79940566,3.77458382 2.59975623,3.50327433 C2.4001068,3.23196485 2.45754416,2.84969408 2.72804617,2.64944868 C4.60433981,1.26047863 7.16005052,1.24521923 9.05269828,2.61168605 L10.370599,3.56319309 C11.7919264,4.58937273 13.7461957,4.42671394 14.9794346,3.17958801 C15.216186,2.94017063 15.6016195,2.93858236 15.8403243,3.17604051 C16.0790291,3.41349867 16.0372181,3.65995204 15.8004667,3.89936942 C14.1455976,5.5728733 11.5231862,5.79114325 9.61592349,4.41412464 L9.58550682,4.39216421 Z M11.3438513,2.54401353 C10.6434322,2.54401353 10.0756304,1.97451671 10.0756304,1.27200677 C10.0756304,0.569496828 10.6434322,0 11.3438513,0 C12.0442704,0 12.6120723,0.569496828 12.6120723,1.27200677 C12.6120723,1.97451671 12.0442704,2.54401353 11.3438513,2.54401353 Z M5.27704592,8.08757757 C5.43250384,7.78858694 5.80018579,7.67260688 6.09828655,7.82852886 C6.39638731,7.98445083 6.51202219,8.35323036 6.35656428,8.65222099 C5.02827056,11.2069148 3.20902943,13.1349615 0.90518744,14.422665 C0.611509228,14.5868128 0.240764001,14.4810969 0.0771047999,14.186542 C-0.0865544013,13.8919872 0.018846833,13.5201352 0.312525046,13.3559875 C2.40341095,12.1873131 4.05613572,10.4357418 5.27704592,8.08757757 Z" id="icon-sprint"></path>
            </g>
        </g>
    </g>
</svg>