<svg xmlns="http://www.w3.org/2000/svg" viewBox="0 0 16 16">
    <path d="M9.586 5.392c-1.208.795-1.926 1.405-2.114 1.754-.116.214-.114.265-.06.329.097.115.309.238.756.438l.263.117c1.518.681 2.143 1.418 1.605 2.852-.34.908-1.374 1.92-3.11 3.112a.608.608 0 0 1-.846-.159.612.612 0 0 1 .158-.849c1.543-1.06 2.432-1.93 2.659-2.534.235-.627.04-.857-.963-1.307l-.262-.116c-.618-.277-.93-.459-1.19-.765-.397-.472-.423-1.066-.081-1.7.284-.526.984-1.152 2.13-1.934l-.233-.167a4.141 4.141 0 0 0-4.89.029c-.27.2-.609.283-.808.011a.612.612 0 0 1 .128-.854 5.356 5.356 0 0 1 6.325-.037l1.318.951a3.553 3.553 0 0 0 4.608-.383.607.607 0 0 1 .861-.004c.239.237.197.484-.04.723a4.768 4.768 0 0 1-6.184.515l-.03-.022zm1.758-1.848a1.27 1.27 0 1 1 .004-2.54 1.27 1.27 0 0 1-.004 2.54zM5.277 9.088a.608.608 0 1 1 1.08.564c-1.329 2.555-3.148 4.483-5.452 5.77a.612.612 0 0 1-.593-1.067c2.091-1.168 3.744-2.92 4.965-5.267z"/>
</svg>
