<svg xmlns="http://www.w3.org/2000/svg" viewBox="0 0 16 16">
    <path d="M2 4.7h12a2 2 0 0 1 2 2v7a2 2 0 0 1-2 2H2a2 2 0 0 1-2-2v-7a2 2 0 0 1 2-2zm.381-.3h-1.2c0-.953 1.006-1.6 2.155-1.6h9.328c1.15 0 2.155.647 2.155 1.6h-1.2c0-.151-.387-.4-.955-.4H3.336c-.568 0-.955.249-.955.4zm1.596-2h-1.2c0-.828.816-1.4 1.741-1.4h6.851c.926 0 1.742.572 1.742 1.4h-1.2c0-.055-.206-.2-.542-.2H4.52c-.336 0-.542.145-.542.2zm7.278 11.208a.6.6 0 0 0 .3-1.12L8.2 10.551V7.3a.6.6 0 0 0-1.2 0v3.598c0 .214.114.412.3.519l3.656 2.11a.59.59 0 0 0 .299.081z"/>
</svg>
