<?xml version="1.0" encoding="UTF-8"?>
<svg width="16px" height="16px" viewBox="0 0 16 16" version="1.1" xmlns="http://www.w3.org/2000/svg" xmlns:xlink="http://www.w3.org/1999/xlink">
    <!-- Generator: sketchtool 51.3 (57544) - http://www.bohemiancoding.com/sketch -->
    <title>stack-clock-fill</title>
    <desc>Created with sketchtool.</desc>
    <defs></defs>
    <g id="Icons" stroke="none" stroke-width="1" fill="none" fill-rule="evenodd">
        <g id="Deprecated" transform="translate(-282.000000, -329.000000)" fill="#000000" fill-rule="nonzero">
            <g id="stack-clock-fill" transform="translate(282.000000, 329.000000)">
                <path d="M2,4.6999999 L14,4.6999999 C15.1045695,4.6999999 16,5.5954304 16,6.6999999 L16,13.6999999 C16,14.8045694 15.1045695,15.6999999 14,15.6999999 L2,15.6999999 C0.8954305,15.6999999 1.3527075e-16,14.8045694 0,13.6999999 L0,6.6999999 C-1.3527075e-16,5.5954304 0.8954305,4.6999999 2,4.6999999 Z M2.38125,4.39999971 L1.18125,4.39999971 C1.18125,3.44676423 2.1867667,2.79999971 3.3359375,2.79999971 L12.6640625,2.79999971 C13.8132333,2.79999971 14.81875,3.44676423 14.81875,4.39999971 L13.61875,4.39999971 C13.61875,4.2486657 13.2321521,3.99999971 12.6640625,3.99999971 L3.3359375,3.99999971 C2.7678479,3.99999971 2.38125,4.2486657 2.38125,4.39999971 Z M3.97656236,2.40000001 L2.77656236,2.40000001 C2.77656236,1.57180447 3.59266805,1 4.51835924,1 L11.3691406,1 C12.2948318,1 13.1109375,1.57180447 13.1109375,2.40000001 L11.9109375,2.40000001 C11.9109375,2.34453994 11.7046434,2.2 11.3691406,2.2 L4.51835924,2.2 C4.18285643,2.2 3.97656236,2.34453994 3.97656236,2.40000001 Z M11.255,13.6079999 C11.463,13.6079999 11.664,13.5009999 11.775,13.3079999 C11.941,13.0209999 11.842,12.6539999 11.555,12.4879999 L8.2,10.5509999 L8.2,7.2999999 C8.2,6.9689999 7.931,6.6999999 7.6,6.6999999 C7.268,6.6999999 7,6.9689999 7,7.2999999 L7,10.8979999 C7,11.1119999 7.114,11.3099999 7.3,11.4169999 L10.956,13.5269999 C11.05,13.5819999 11.153,13.6079999 11.255,13.6079999 Z"></path>
            </g>
        </g>
    </g>
</svg>