<svg xmlns="http://www.w3.org/2000/svg" viewBox="0 0 16 16">
    <path d="M14 4.7a2 2 0 0 1 2 2v7a2 2 0 0 1-2 2H2a2 2 0 0 1-2-2v-7a2 2 0 0 1 2-2h12zm0 1.2H2a.8.8 0 0 0-.8.8v7a.8.8 0 0 0 .8.8h12a.8.8 0 0 0 .8-.8v-7a.8.8 0 0 0-.8-.8zM5.689 7.863a.6.6 0 0 1 .848.026l1.536 1.633 1.52-1.628a.6.6 0 1 1 .854.843l-1.522 1.609 1.532 1.629a.6.6 0 0 1 .046.767l-.072.081a.6.6 0 0 1-.848-.026l-1.536-1.633-1.52 1.628a.6.6 0 0 1-.854-.843l1.521-1.61-1.531-1.628a.6.6 0 0 1-.046-.767zM12.664 2.8c1.15 0 2.155.647 2.155 1.6h-1.2c0-.151-.387-.4-.955-.4H3.336c-.568 0-.955.249-.955.4h-1.2c0-.953 1.006-1.6 2.155-1.6zM11.37 1c.926 0 1.742.572 1.742 1.4h-1.2c0-.055-.206-.2-.542-.2H4.52c-.336 0-.542.145-.542.2h-1.2c0-.828.816-1.4 1.741-1.4z"/>
</svg>
