<?xml version="1.0" encoding="UTF-8"?>
<svg width="16px" height="16px" viewBox="0 0 16 16" version="1.1" xmlns="http://www.w3.org/2000/svg" xmlns:xlink="http://www.w3.org/1999/xlink">
    <!-- Generator: sketchtool 51.3 (57544) - http://www.bohemiancoding.com/sketch -->
    <title>stack-tick</title>
    <desc>Created with sketchtool.</desc>
    <defs></defs>
    <g id="Icons" stroke="none" stroke-width="1" fill="none" fill-rule="evenodd">
        <g id="Deprecated" transform="translate(-202.000000, -329.000000)" fill="#000000" fill-rule="nonzero">
            <g id="stack-tick" transform="translate(202.000000, 329.000000)">
                <path d="M2,5.8999999 C1.5581722,5.8999999 1.2,6.2581721 1.2,6.6999999 L1.2,13.6999999 C1.2,14.1418277 1.5581722,14.4999999 2,14.4999999 L14,14.4999999 C14.4418278,14.4999999 14.8,14.1418277 14.8,13.6999999 L14.8,6.6999999 C14.8,6.2581721 14.4418278,5.8999999 14,5.8999999 L2,5.8999999 Z M2,4.6999999 L14,4.6999999 C15.1045695,4.6999999 16,5.5954304 16,6.6999999 L16,13.6999999 C16,14.8045694 15.1045695,15.6999999 14,15.6999999 L2,15.6999999 C0.8954305,15.6999999 1.3527075e-16,14.8045694 0,13.6999999 L0,6.6999999 C-1.3527075e-16,5.5954304 0.8954305,4.6999999 2,4.6999999 Z M2.38125,4.39999971 L1.18125,4.39999971 C1.18125,3.44676423 2.1867667,2.79999971 3.3359375,2.79999971 L12.6640625,2.79999971 C13.8132333,2.79999971 14.81875,3.44676423 14.81875,4.39999971 L13.61875,4.39999971 C13.61875,4.2486657 13.2321521,3.99999971 12.6640625,3.99999971 L3.3359375,3.99999971 C2.7678479,3.99999971 2.38125,4.2486657 2.38125,4.39999971 Z M3.97656236,2.40000001 L2.77656236,2.40000001 C2.77656236,1.57180447 3.59266805,1 4.51835924,1 L11.3691406,1 C12.2948318,1 13.1109375,1.57180447 13.1109375,2.40000001 L11.9109375,2.40000001 C11.9109375,2.34453994 11.7046434,2.2 11.3691406,2.2 L4.51835924,2.2 C4.18285643,2.2 3.97656236,2.34453994 3.97656236,2.40000001 Z M5.83701529,9.40077071 C5.60996128,9.15941388 5.23023927,9.14781916 4.98888245,9.37487316 C4.74752562,9.60192717 4.73593089,9.98164918 4.9629849,10.223006 L6.92534189,12.3089778 C7.15829177,12.5566019 7.55024478,12.5613973 7.78918321,12.3195466 L11.2568098,8.80965522 C11.4897008,8.57392566 11.4873997,8.19403364 11.2516701,7.96114265 C11.0159405,7.72825166 10.6360485,7.73055277 10.4031575,7.96628233 L7.37293296,11.0334405 L5.83701529,9.40077071 Z"></path>
            </g>
        </g>
    </g>
</svg>