<svg xmlns="http://www.w3.org/2000/svg" viewBox="0 0 16 16">
    <path d="M14 4.7a2 2 0 0 1 2 2v7a2 2 0 0 1-2 2H2a2 2 0 0 1-2-2v-7a2 2 0 0 1 2-2h12zm-6.4 2a.6.6 0 0 0-.6.6v3.598c0 .214.114.412.3.519l3.656 2.11a.597.597 0 0 0 .819-.219.6.6 0 0 0-.22-.82L8.2 10.551V7.3a.6.6 0 0 0-.6-.6zm5.064-3.9c1.15 0 2.155.647 2.155 1.6h-1.2c0-.151-.387-.4-.955-.4H3.336c-.568 0-.955.249-.955.4h-1.2c0-.953 1.006-1.6 2.155-1.6zM11.37 1c.926 0 1.742.572 1.742 1.4h-1.2c0-.055-.206-.2-.542-.2H4.52c-.336 0-.542.145-.542.2h-1.2c0-.828.816-1.4 1.741-1.4z"/>
</svg>
