<svg xmlns="http://www.w3.org/2000/svg" viewBox="0 0 20 20">
    <path fill="#000" fill-rule="evenodd" d="M16,2 L7.2,2 C6.1,2 5.2,2.9 5.2,4 L5.2,5.2 L4,5.2 C2.9,5.2 2,6.1 2,7.2 L2,16 C2,17.1 2.9,18 4,18 L12.8,18 C13.9,18 14.8,17.1 14.8,16 L14.8,14.8 L16,14.8 C17.1,14.8 18,13.9 18,12.8 L18,4 C18,2.9 17.1,2 16,2 L16,2 Z M13.6,16 C13.6,16.434 13.234,16.8 12.8,16.8 L4,16.8 C3.566,16.8 3.2,16.434 3.2,16 L3.2,7.2 C3.2,6.766 3.566,6.4 4,6.4 L12.8,6.4 C13.234,6.4 13.6,6.766 13.6,7.2 L13.6,16 L13.6,16 Z M16.8,12.8 C16.8,13.234 16.434,13.6 16,13.6 L14.8,13.6 L14.8,7.2 C14.8,6.1 13.9,5.2 12.8,5.2 L6.4,5.2 L6.4,4 C6.4,3.566 6.766,3.2 7.2,3.2 L16,3.2 C16.434,3.2 16.8,3.566 16.8,4 L16.8,12.8 L16.8,12.8 Z M8.3942,12.5991 L5.1942,12.5991 C4.8622,12.5991 4.5942,12.8681 4.5942,13.1991 C4.5942,13.5301 4.8622,13.7991 5.1942,13.7991 L8.3942,13.7991 C8.7262,13.7991 8.9942,13.5301 8.9942,13.1991 C8.9942,12.8681 8.7262,12.5991 8.3942,12.5991 L8.3942,12.5991 Z M11.5939,9.3999 L5.1939,9.3999 C4.8629,9.3999 4.5939,9.6689 4.5939,9.9999 C4.5939,10.3319 4.8629,10.5999 5.1939,10.5999 L11.5939,10.5999 C11.9259,10.5999 12.1939,10.3319 12.1939,9.9999 C12.1939,9.6689 11.9259,9.3999 11.5939,9.3999 L11.5939,9.3999 Z"/>
</svg>
