<svg xmlns="http://www.w3.org/2000/svg" viewBox="0 0 16 16">
    <path d="M10.181 6.66a1.2 1.2 0 0 1-.902-.647l-1.28-2.525-1.278 2.525a1.2 1.2 0 0 1-.903.646l-2.794.395 2.001 1.9a1.2 1.2 0 0 1 .356 1.079l-.48 2.723 2.552-1.308a1.2 1.2 0 0 1 1.094 0l2.552 1.308-.48-2.723a1.2 1.2 0 0 1 .356-1.078l2-1.9-2.794-.396zm4.37-.595a.522.522 0 0 1 .423.348.503.503 0 0 1-.133.524l-3.04 2.888.718 4.077a.506.506 0 0 1-.209.5.536.536 0 0 1-.553.04L8 12.515l-3.758 1.925a.549.549 0 0 1-.553-.039.506.506 0 0 1-.209-.5L4.2 9.825l-3.04-2.888a.502.502 0 0 1-.133-.524.52.52 0 0 1 .423-.348l4.201-.594L7.53 1.76c.177-.348.765-.348.942 0l1.878 3.71 4.202.594z"/>
</svg>
