<svg xmlns="http://www.w3.org/2000/svg" viewBox="0 0 16 16">
    <path fill="#000" fill-rule="evenodd" d="M3.427 15.248a.6.6 0 0 1-.592-.701l.82-4.782L.183 6.379a.599.599 0 0 1 .332-1.024l4.8-.697L7.463.307c.202-.41.874-.41 1.076 0l2.147 4.35 4.802.698a.6.6 0 0 1 .332 1.024l-3.474 3.386.82 4.782a.6.6 0 0 1-.871.633L8 12.922 3.706 15.18a.602.602 0 0 1-.28.068M1.89 6.368l2.829 2.758a.6.6 0 0 1 .172.532l-.668 3.894 3.498-1.84a.6.6 0 0 1 .559 0l3.497 1.84-.668-3.894a.603.603 0 0 1 .172-.532l2.83-2.758L10.2 5.8a.598.598 0 0 1-.452-.328l-1.75-3.543-1.747 3.543A.601.601 0 0 1 5.8 5.8l-3.91.568"/>
</svg>
