<svg xmlns="http://www.w3.org/2000/svg" viewBox="0 0 20 20">
    <path fill="#000" fill-rule="evenodd" d="M10 2a7.995 7.995 0 1 0 0 16 7.995 7.995 0 1 0 0-16zm0 1a6.996 6.996 0 1 0-.008 14.008A6.996 6.996 0 0 0 10 3zm3.063 6.344c-.375 0-.688.312-.688.656 0 .375.313.688.688.688.343 0 .656-.313.656-.688a.682.682 0 0 0-.656-.656zm-3.063 0a.66.66 0 0 0-.656.656c0 .375.281.688.656.688a.667.667 0 0 0 .656-.688.66.66 0 0 0-.656-.656zm-3.063 0a.682.682 0 0 0-.656.656c0 .375.313.688.656.688A.694.694 0 0 0 7.625 10c0-.344-.313-.656-.688-.656z"/>
</svg>
