<svg xmlns="http://www.w3.org/2000/svg" viewBox="0 0 16 16">
    <path fill="#000" fill-rule="evenodd" d="M8 0c1.104 0 2.14.208 3.11.625a8.08 8.08 0 0 1 4.265 4.266C15.792 5.859 16 6.896 16 8s-.208 2.14-.625 3.11a8.08 8.08 0 0 1-4.266 4.265A7.785 7.785 0 0 1 8 16a7.785 7.785 0 0 1-3.11-.625 8.08 8.08 0 0 1-4.265-4.266A7.785 7.785 0 0 1 0 8c0-1.104.208-2.14.625-3.11A8.08 8.08 0 0 1 4.891.626 7.785 7.785 0 0 1 8 0zm3.031 9.531c.188-.166.209-.364.063-.594L8.28 5.563a.478.478 0 0 0-.344-.157c-.166 0-.28.052-.343.157l-2.688 3.53c-.187.23-.166.428.063.595a.457.457 0 0 0 .281.093c.125 0 .24-.052.344-.156L7.5 7.094v5.75c0 .27.146.406.438.406.291 0 .437-.135.437-.406V7.03l2.031 2.438c.188.229.396.25.625.062zm-.281-5.094c.292 0 .438-.145.438-.437 0-.27-.146-.406-.438-.406h-5.5c-.292 0-.438.135-.438.406 0 .292.146.438.438.438h5.5z"/>
</svg>
