<svg xmlns="http://www.w3.org/2000/svg" viewBox="0 0 16 16">
    <path fill="#000" fill-rule="evenodd" d="M8 0a7.995 7.995 0 1 0 0 16A7.995 7.995 0 1 0 8 0zm0 1a6.996 6.996 0 1 0-.008 14.008A6.996 6.996 0 0 0 8 1zm3.063 6.344c-.375 0-.688.312-.688.656 0 .375.313.688.688.688.343 0 .656-.313.656-.688a.682.682 0 0 0-.656-.656zM8 7.344A.66.66 0 0 0 7.344 8c0 .375.281.688.656.688A.667.667 0 0 0 8.656 8 .66.66 0 0 0 8 7.344zm-3.063 0A.682.682 0 0 0 4.281 8c0 .375.313.688.656.688A.694.694 0 0 0 5.625 8c0-.344-.313-.656-.688-.656z"/>
</svg>
