<svg xmlns="http://www.w3.org/2000/svg" viewBox="0 0 16 16">
    <path d="M7.386 3.68L10.89.176a.6.6 0 0 1 .848 0l3.572 3.571a.6.6 0 0 1 0 .849L11.806 8.1l2.79 2.79a.6.6 0 0 1 .164.307l.715 3.571a.6.6 0 0 1-.706.706l-3.572-.714a.6.6 0 0 1-.306-.164l-2.79-2.79-3.505 3.504a.6.6 0 0 1-.849 0L.176 11.738a.6.6 0 0 1 0-.848L3.68 7.385.176 3.881a.6.6 0 0 1 0-.848L3.033.176a.6.6 0 0 1 .849 0L7.386 3.68zm-.849.848l-3.08-3.08-2.008 2.01 3.08 3.079 2.008-2.009zm4.42 4.42L8.95 10.957l2.662 2.662 2.51.502-.502-2.51-2.662-2.663zm-7.075.513a.6.6 0 0 1-.849.849l-.29-.29-1.294 1.294 2.722 2.723 9.866-9.866-2.723-2.722-1.294 1.294 1.005 1.004a.6.6 0 1 1-.849.849L9.172 3.59 7.877 4.885l.29.29a.6.6 0 1 1-.848.85l-.29-.291-1.295 1.294L6.74 8.033a.6.6 0 1 1-.848.848L4.886 7.877 3.592 9.17l.29.29z"/>
</svg>
