<?xml version="1.0" encoding="UTF-8" standalone="no"?>
<svg width="20px" height="20px" viewBox="0 0 20 20" version="1.1" xmlns="http://www.w3.org/2000/svg" xmlns:xlink="http://www.w3.org/1999/xlink">
    <defs></defs>
    <g id="Icons" stroke="none" stroke-width="1" fill="none" fill-rule="evenodd">
        <g id="Web" transform="translate(-193.000000, -1134.000000)" fill="#000000">
            <g id="community/state-other" transform="translate(193.000000, 1134.000000)">
                <path d="M10,2 C5.59376,2 2,5.59376 2,10 C2,14.43744 5.59376,18 10,18 C14.40624,18 18,14.43744 18,10 C18,5.59376 14.40624,2 10,2 L10,2 Z M10,3 C6.14454,3 3,6.14454 3,10 C3,13.88276 6.14454,17 10,17 C13.85546,17 17,13.88276 17,10 C17,6.14454 13.85546,3 10,3 L10,3 Z M13.06256,9.34368 C12.68752,9.34368 12.37504,9.65632 12.37504,10 C12.37504,10.37504 12.68752,10.68752 13.06256,10.68752 C13.40624,10.68752 13.71872,10.37504 13.71872,10 C13.71872,9.65632 13.40624,9.34368 13.06256,9.34368 L13.06256,9.34368 Z M10,9.34368 C9.62496,9.34368 9.34368,9.65632 9.34368,10 C9.34368,10.37504 9.62496,10.68752 10,10.68752 C10.37504,10.68752 10.65632,10.37504 10.65632,10 C10.65632,9.65632 10.37504,9.34368 10,9.34368 L10,9.34368 Z M6.93744,9.34368 C6.59376,9.34368 6.28128,9.65632 6.28128,10 C6.28128,10.37504 6.59376,10.68752 6.93744,10.68752 C7.31248,10.68752 7.62496,10.37504 7.62496,10 C7.62496,9.65632 7.31248,9.34368 6.93744,9.34368 L6.93744,9.34368 Z" id="Shape"></path>
            </g>
        </g>
    </g>
</svg>