<?xml version="1.0" encoding="UTF-8"?>
<svg width="16px" height="16px" viewBox="0 0 16 16" version="1.1" xmlns="http://www.w3.org/2000/svg" xmlns:xlink="http://www.w3.org/1999/xlink">
    <!-- Generator: sketchtool 51.3 (57544) - http://www.bohemiancoding.com/sketch -->
    <title>community/state</title>
    <desc>Created with sketchtool.</desc>
    <defs></defs>
    <g id="Icons" stroke="none" stroke-width="1" fill="none" fill-rule="evenodd">
        <g id="Web" transform="translate(-240.000000, -1136.000000)" fill="#000000">
            <g id="community/state" transform="translate(240.000000, 1136.000000)">
                <path d="M8.0004,-0.000400000001 C3.5814,-0.000400000001 0.0004,3.5816 0.0004,7.9996 C0.0004,12.4186 3.5814,15.9996 8.0004,15.9996 C12.4184,15.9996 16.0004,12.4186 16.0004,7.9996 C16.0004,3.5816 12.4184,-0.000400000001 8.0004,-0.000400000001 L8.0004,-0.000400000001 Z M12,9 C12.5522847,9 13,8.55228475 13,8 C13,7.44771525 12.5522847,7 12,7 C11.4477153,7 11,7.44771525 11,8 C11,8.55228475 11.4477153,9 12,9 Z M4,9 C4.55228475,9 5,8.55228475 5,8 C5,7.44771525 4.55228475,7 4,7 C3.44771525,7 3,7.44771525 3,8 C3,8.55228475 3.44771525,9 4,9 Z M8,9 C8.55228475,9 9,8.55228475 9,8 C9,7.44771525 8.55228475,7 8,7 C7.44771525,7 7,7.44771525 7,8 C7,8.55228475 7.44771525,9 8,9 Z" id="Fill-1"></path>
            </g>
        </g>
    </g>
</svg>