<?xml version="1.0" encoding="UTF-8"?>
<svg width="17px" height="17px" viewBox="0 0 17 17" version="1.1" xmlns="http://www.w3.org/2000/svg" xmlns:xlink="http://www.w3.org/1999/xlink">
    <!-- Generator: sketchtool 51.3 (57544) - http://www.bohemiancoding.com/sketch -->
    <title>stationery</title>
    <desc>Created with sketchtool.</desc>
    <defs></defs>
    <g id="Icons" stroke="none" stroke-width="1" fill="none" fill-rule="evenodd">
        <g id="Deprecated" transform="translate(-82.000000, -214.000000)" fill="#000000" fill-rule="nonzero">
            <g id="stationery" transform="translate(82.033050, 214.305779)">
                <path d="M7.3859355,3.67975358 L10.8898161,0.175872931 C11.1241307,-0.0584416438 11.5040297,-0.0584416438 11.7383443,0.175872931 L15.3097044,3.747233 C15.5440189,3.98154758 15.5440189,4.36144657 15.3097044,4.59576114 L11.8058237,8.09964179 L14.5962036,10.8900216 C14.6799639,10.973782 14.737057,11.0804614 14.7602879,11.196616 L15.4745736,14.7680446 C15.5585402,15.1878773 15.1883882,15.5580292 14.7685555,15.4740627 L11.197127,14.759777 C11.0809723,14.736546 10.9742929,14.679453 10.8905326,14.5956926 L8.10015271,11.8053128 L4.59562414,15.3098414 C4.36130957,15.5441559 3.98141058,15.5441559 3.747096,15.3098414 L0.175735931,11.7384813 C-0.0585786438,11.5041667 -0.0585786438,11.1242677 0.175735931,10.8899531 L3.68026451,7.38542457 L0.17624686,3.88140693 C-0.0580677152,3.64709235 -0.0580677152,3.26719336 0.17624686,3.03287879 L3.03338972,0.175735931 C3.26770429,-0.0585786438 3.64760328,-0.0585786438 3.88191785,0.175735931 L7.3859355,3.67975358 Z M6.53740736,4.52828171 L3.45765379,1.44852814 L1.44903907,3.45714286 L4.52879264,6.53689643 L6.53740736,4.52828171 Z M10.9572956,8.94816992 L8.94868085,10.9567846 L11.6106039,13.6187077 L14.1213723,14.1208614 L13.6192186,11.610093 L10.9572956,8.94816992 Z M3.88191785,9.46145022 C4.11623243,9.69576479 4.11623243,10.0756638 3.88191785,10.3099784 C3.64760328,10.5442929 3.26770429,10.5442929 3.03338972,10.3099784 L2.74307836,10.019667 L1.44852814,11.3142172 L4.17136007,14.0370491 L14.0369121,4.17149707 L11.3140802,1.44866514 L10.0201779,2.74256743 L11.024775,3.7471645 C11.2590896,3.98147908 11.2590896,4.36137807 11.024775,4.59569264 C10.7904604,4.83000722 10.4105614,4.83000722 10.1762469,4.59569264 L9.17164979,3.59109557 L7.87732078,4.88542457 L8.16763214,5.17573593 C8.40194672,5.41005051 8.40194672,5.78994949 8.16763214,6.02426407 C7.93331757,6.25857864 7.55341858,6.25857864 7.319104,6.02426407 L7.02879264,5.73395271 L5.73446364,7.02828171 L6.73906071,8.03287879 C6.97337529,8.26719336 6.97337529,8.64709235 6.73906071,8.88140693 C6.50474614,9.1157215 6.12484715,9.1157215 5.89053257,8.88140693 L4.8859355,7.87680985 L3.59160649,9.17113886 L3.88191785,9.46145022 Z" id="Shape"></path>
            </g>
        </g>
    </g>
</svg>