<svg xmlns="http://www.w3.org/2000/svg" viewBox="0 0 16 16">
    <path d="M1.255 8.355a6.431 6.431 0 0 0 12.863 0c0-.003-1.93-.008-5.79-.014a.627.627 0 0 1-.627-.627v-5.79a6.434 6.434 0 0 0-6.446 6.431zM7.686.67c.234 0 .467.01.698.031.324.03.571.3.571.625v5.761h5.761c.325 0 .596.248.625.571A7.686 7.686 0 1 1 7.686.67zM10.666 0A5.333 5.333 0 0 1 16 5.333c0 .347-.28.628-.627.628h-4.706a.627.627 0 0 1-.628-.628V.628c0-.347.28-.628.628-.628zm.628 1.303v3.403h3.403a4.081 4.081 0 0 0-3.403-3.403z"/>
</svg>
