<svg xmlns="http://www.w3.org/2000/svg" viewBox="0 0 17 17">
    <path d="M3.066.482a.6.6 0 0 1 .849 0l3.503 3.503L10.923.482a.6.6 0 0 1 .848 0l3.572 3.571a.6.6 0 0 1 0 .849l-3.505 3.503 2.791 2.79a.6.6 0 0 1 .14.222l.024.085.715 3.572a.6.6 0 0 1-.706.706l-3.572-.714a.6.6 0 0 1-.306-.165l-2.79-2.79-3.505 3.505a.6.6 0 0 1-.849 0L.21 12.044a.6.6 0 0 1 0-.848L3.713 7.69.21 4.187a.6.6 0 0 1-.07-.765l.07-.083zm7.924 8.772l-2.009 2.008 2.663 2.662 2.51.503-.502-2.511-2.662-2.662zm.357-7.5l-1.294 1.294 1.005 1.005a.6.6 0 1 1-.849.848L9.205 3.897 7.91 5.19l.29.29a.6.6 0 1 1-.848.849l-.29-.29-1.294 1.294L6.772 8.34a.6.6 0 1 1-.848.848L4.919 8.183 3.625 9.477l.29.29a.6.6 0 0 1-.849.849l-.29-.29-1.294 1.294 2.722 2.723 9.866-9.866-2.723-2.723zm-7.856 0L1.482 3.763l3.08 3.079L6.57 4.834l-3.08-3.08z"/>
</svg>
