<svg xmlns="http://www.w3.org/2000/svg" viewBox="0 0 16 17">
    <path d="M15.397 1.5c.333 0 .603.271.603.606v5.192c0 1.02-.493 1.924-1.252 2.486v5.11c0 .335-.27.606-.603.606H1.855a.604.604 0 0 1-.603-.606v-5.11A3.083 3.083 0 0 1 0 7.298V2.106C0 1.77.27 1.5.603 1.5h14.794zm-4.931 7.634a3.06 3.06 0 0 1-4.932 0 3.058 3.058 0 0 1-3.077 1.186v3.968h11.085l.001-3.968a3.07 3.07 0 0 1-3.077-1.186zm4.329-6.422H1.205v4.586a1.867 1.867 0 1 0 3.726 0c0-.808 1.206-.808 1.206 0a1.867 1.867 0 1 0 3.726 0c0-.808 1.206-.808 1.206 0a1.866 1.866 0 1 0 3.726 0V2.712z"/>
</svg>
