<svg xmlns="http://www.w3.org/2000/svg" viewBox="0 0 16 17">
    <path d="M13.542 10.32a3.07 3.07 0 0 1-3.076-1.186 3.06 3.06 0 0 1-4.932 0 3.058 3.058 0 0 1-3.076 1.186v3.968h11.084V10.32zm1.206-.536v5.11c0 .335-.27.606-.603.606H1.855a.604.604 0 0 1-.603-.606v-5.11A3.083 3.083 0 0 1 0 7.298V2.106C0 1.77.27 1.5.603 1.5h14.794c.333 0 .603.271.603.606v5.192c0 1.02-.493 1.924-1.252 2.486zM1.205 7.298a1.867 1.867 0 1 0 3.726 0c0-.808 1.206-.808 1.206 0a1.867 1.867 0 1 0 3.726 0c0-.808 1.206-.808 1.206 0a1.866 1.866 0 1 0 3.726 0V2.712H1.205v4.586z"/>
</svg>
