<?xml version="1.0" encoding="UTF-8"?>
<svg width="16px" height="16px" viewBox="0 0 16 16" version="1.1" xmlns="http://www.w3.org/2000/svg" xmlns:xlink="http://www.w3.org/1999/xlink">
    <!-- Generator: sketchtool 51.3 (57544) - http://www.bohemiancoding.com/sketch -->
    <title>story-points</title>
    <desc>Created with sketchtool.</desc>
    <defs></defs>
    <g id="Icons" stroke="none" stroke-width="1" fill="none" fill-rule="evenodd">
        <g id="Deprecated" transform="translate(-282.000000, -215.000000)" fill="#000000" fill-rule="nonzero">
            <g id="story-points" transform="translate(282.000000, 215.000000)">
                <path d="M12.8239061,10.0050823 C12.8821736,10.0017097 12.9408871,10 13,10 C14.6568542,10 16,11.3431458 16,13 C16,14.6568542 14.6568542,16 13,16 C11.4103515,16 10.1094781,14.7636064 10.0065609,13.2 L5.99343909,13.2 C5.89052187,14.7636064 4.58964854,16 3,16 C1.34314575,16 0,14.6568542 0,13 C0,11.3431458 1.34314575,10 3,10 C3.15118374,10 3.29975551,10.0111832 3.44493322,10.0327674 L6.07006565,5.29690312 C5.41579118,4.74658724 5,3.92185024 5,3 C5,1.34314575 6.34314575,0 8,0 C9.65685425,0 11,1.34314575 11,3 C11,3.82990854 10.6630116,4.58110921 10.1184059,5.12423081 L12.8239061,10.0050823 Z M11.6317084,10.3294992 L9.11351244,5.7865534 C8.76922332,5.92425579 8.39345717,6 8,6 C7.69536772,6 7.40134041,5.95459472 7.12431652,5.8701826 L4.58451397,10.4521077 C5.15723606,10.8090338 5.60085732,11.3536924 5.82929429,12 L10.1707057,12 C10.427138,11.2744864 10.9547287,10.6770629 11.6317084,10.3294992 Z M8,4.8 C8.99411255,4.8 9.8,3.99411255 9.8,3 C9.8,2.00588745 8.99411255,1.2 8,1.2 C7.00588745,1.2 6.2,2.00588745 6.2,3 C6.2,3.99411255 7.00588745,4.8 8,4.8 Z M3,14.8 C3.99411255,14.8 4.8,13.9941125 4.8,13 C4.8,12.0058875 3.99411255,11.2 3,11.2 C2.00588745,11.2 1.2,12.0058875 1.2,13 C1.2,13.9941125 2.00588745,14.8 3,14.8 Z M13,14.8 C13.9941125,14.8 14.8,13.9941125 14.8,13 C14.8,12.0058875 13.9941125,11.2 13,11.2 C12.0058875,11.2 11.2,12.0058875 11.2,13 C11.2,13.9941125 12.0058875,14.8 13,14.8 Z"></path>
            </g>
        </g>
    </g>
</svg>