<svg xmlns="http://www.w3.org/2000/svg" viewBox="0 0 16 16">
    <path d="M9.254 8.6c.23.077.44.158.628.243.506.229.9.475 1.182.739.282.264.475.544.577.84.103.295.155.59.155.885 0 .34-.08.667-.242.98-.16.314-.4.591-.718.833a3.74 3.74 0 0 1-1.175.578 5.487 5.487 0 0 1-1.611.214c-.457 0-.92-.049-1.39-.147a4.17 4.17 0 0 1-1.283-.49 2.801 2.801 0 0 1-1.41-2.343h-1.61c0 .563.122 1.107.368 1.63.247.525.611.988 1.095 1.39a5.478 5.478 0 0 0 1.786.96 7.679 7.679 0 0 0 2.444.357c.814 0 1.553-.099 2.215-.296a5.234 5.234 0 0 0 1.692-.826 3.6 3.6 0 0 0 1.45-2.92A3.259 3.259 0 0 0 12.286 8.6h2.864a.65.65 0 1 0 0-1.3H9.702c-.418-.13-.875-.254-1.37-.37a15.603 15.603 0 0 1-1.981-.57 4.347 4.347 0 0 1-1.182-.632 1.761 1.761 0 0 1-.57-.738 2.5 2.5 0 0 1-.148-.88 2.264 2.264 0 0 1 .812-1.719 3.3 3.3 0 0 1 1.088-.59 4.967 4.967 0 0 1 1.605-.229c.6 0 1.134.085 1.604.255.47.17.864.392 1.182.665.318.273.56.589.725.947.166.358.248.725.248 1.1h1.612a3.924 3.924 0 0 0-1.417-3.095 5.018 5.018 0 0 0-1.692-.912 7.226 7.226 0 0 0-2.262-.33c-.788 0-1.498.106-2.129.316a5.104 5.104 0 0 0-1.611.853 3.72 3.72 0 0 0-1.02 1.262 3.43 3.43 0 0 0-.356 1.53c0 .592.111 1.106.335 1.545.224.439.553.817.987 1.135.226.165.478.317.757.457H1.15a.65.65 0 1 0 0 1.3h8.104z"/>
</svg>
