<svg xmlns="http://www.w3.org/2000/svg" viewBox="0 0 16 16">
    <path d="M9.254 8.6H1.15a.65.65 0 1 1 0-1.3h3.769a5.297 5.297 0 0 1-.757-.457 3.21 3.21 0 0 1-.987-1.135 3.356 3.356 0 0 1-.335-1.544c0-.537.118-1.048.355-1.53a3.72 3.72 0 0 1 1.02-1.263c.444-.358.981-.642 1.612-.853A6.709 6.709 0 0 1 7.956.203c.841 0 1.595.11 2.262.329.667.219 1.231.523 1.692.913a3.924 3.924 0 0 1 1.417 3.095h-1.612c0-.376-.082-.743-.248-1.101a2.779 2.779 0 0 0-.725-.947 3.752 3.752 0 0 0-1.182-.665 4.697 4.697 0 0 0-1.604-.255c-.627 0-1.162.076-1.605.229a3.3 3.3 0 0 0-1.088.59 2.247 2.247 0 0 0-.812 1.72c0 .321.05.615.148.879.098.264.288.51.57.738.282.228.676.439 1.182.631.506.193 1.166.383 1.98.57.496.117.953.24 1.37.371h5.449a.65.65 0 1 1 0 1.3h-2.864a3.259 3.259 0 0 1 1.121 2.627 3.6 3.6 0 0 1-1.45 2.92 5.234 5.234 0 0 1-1.692.826 7.761 7.761 0 0 1-2.215.296 7.679 7.679 0 0 1-2.444-.356 5.478 5.478 0 0 1-1.786-.96 4.041 4.041 0 0 1-1.095-1.39 3.792 3.792 0 0 1-.369-1.632h1.612a2.801 2.801 0 0 0 1.41 2.344 4.17 4.17 0 0 0 1.282.49c.47.098.933.147 1.39.147.608 0 1.145-.071 1.61-.214a3.74 3.74 0 0 0 1.176-.578c.318-.242.557-.52.718-.832.161-.314.242-.64.242-.98 0-.296-.052-.591-.155-.887a2.118 2.118 0 0 0-.577-.84 4.336 4.336 0 0 0-1.182-.738 6.69 6.69 0 0 0-.628-.243z"/>
</svg>
