<svg xmlns="http://www.w3.org/2000/svg" viewBox="0 0 16 16">
    <path d="M10.966 2.138h1.188A2.246 2.246 0 0 1 14.4 4.385V5h-.8v-.615c0-.8-.647-1.447-1.446-1.447h-1.188l.855.856a.4.4 0 0 1-.565.566L9.717 2.82a.4.4 0 0 1 0-.565L11.256.717a.4.4 0 0 1 .565.566l-.855.855zM8 4.8V1.998A1.993 1.993 0 0 0 6.002 0H1.998A1.993 1.993 0 0 0 0 1.998v4.004C0 7.113.895 8 1.998 8H4.8c0-.425.082-.83.231-1.2H1.998a.793.793 0 0 1-.798-.798V1.998c0-.444.353-.798.798-.798h4.004c.444 0 .798.353.798.798v3.033c.37-.149.775-.231 1.2-.231zM6 8c0-1.105.887-2 2-2h6c1.105 0 2 .887 2 2v6c0 1.105-.887 2-2 2H8c-1.105 0-2-.887-2-2V8zm1.2 0v6c0 .446.355.8.8.8h6c.446 0 .8-.355.8-.8V8c0-.446-.355-.8-.8-.8H8c-.446 0-.8.355-.8.8z"/>
</svg>
