<svg xmlns="http://www.w3.org/2000/svg" viewBox="0 0 16 16">
    <path d="M6.002 0C7.105 0 8 .887 8 1.998V4.8c-.425 0-.83.082-1.2.231V1.998a.793.793 0 0 0-.798-.798H1.998a.793.793 0 0 0-.798.798v4.004c0 .445.354.798.798.798l3.034-.001c-.15.37-.232.776-.232 1.2V8H1.998A1.993 1.993 0 0 1 0 6.002V1.998C0 .895.887 0 1.998 0h4.004zm5.82 3.794a.4.4 0 0 1-.566.566L9.717 2.82a.4.4 0 0 1 0-.565L11.256.717a.4.4 0 0 1 .565.566l-.856.855h1.189c1.189 0 2.162.924 2.24 2.093l.006.154V5h-.8v-.615c0-.8-.647-1.447-1.446-1.447h-1.189zM6 8c0-1.105.887-2 2-2h6c1.105 0 2 .887 2 2v6c0 1.105-.887 2-2 2H8c-1.105 0-2-.887-2-2V8zm1.2 0v6c0 .446.355.8.8.8h6c.446 0 .8-.355.8-.8V8c0-.446-.355-.8-.8-.8H8c-.446 0-.8.355-.8.8z"/>
</svg>
