<svg xmlns="http://www.w3.org/2000/svg" viewBox="0 0 20 20">
    <path fill="#000" fill-rule="evenodd" d="M13.236,14.927 C15.9673708,14.927 18.2,12.6943708 18.2,9.963 C18.2,7.23177632 15.9675181,5 13.236,5 L5.963,5 C3.23162915,5 1,7.23162915 1,9.963 C1,12.6945181 3.23177632,14.927 5.963,14.927 L13.236,14.927 L13.236,14.927 Z M13.236,13.727 L5.963,13.727 C3.89460295,13.727 2.2,12.0318613 2.2,9.963 C2.2,7.89437085 3.89437085,6.2 5.963,6.2 L13.236,6.2 C15.3048613,6.2 17,7.89460295 17,9.963 C17,12.0316292 15.3046292,13.727 13.236,13.727 L13.236,13.727 Z M5.9632,7.9088 C4.82854745,7.9088 3.9082,8.82871065 3.9082,9.9638 C3.9082,11.0981079 4.8287659,12.0178 5.9632,12.0178 C7.0976341,12.0178 8.0182,11.0981079 8.0182,9.9638 C8.0182,8.82871065 7.09785255,7.9088 5.9632,7.9088 L5.9632,7.9088 Z M5.9632,9.1088 C6.43523834,9.1088 6.8182,9.49157991 6.8182,9.9638 C6.8182,10.435111 6.43514737,10.8178 5.9632,10.8178 C5.49125263,10.8178 5.1082,10.435111 5.1082,9.9638 C5.1082,9.49157991 5.49116166,9.1088 5.9632,9.1088 L5.9632,9.1088 Z"/>
</svg>
