<svg xmlns="http://www.w3.org/2000/svg" viewBox="0 0 16 16">
    <path d="M5.08 1.982v8.356c0 1.204.15 1.974.505 2.538.814 1.308 2.608 1.68 5.205.975l-.303-1.11c-2.438.597-3.65-.182-3.65-2.444V6.765a.6.6 0 0 1 .6-.6h3.055V4.819H7.437a.6.6 0 0 1-.6-.6V1.848l-1.757.134zm2.957 8.315c0 1.517.547 1.794 2.693 1.131a.6.6 0 0 1 .756.416l.616 2.258a.6.6 0 0 1-.398.73c-3.359 1.061-5.918.64-7.136-1.32-.497-.79-.688-1.765-.688-3.174V1.426a.6.6 0 0 1 .554-.598L7.391.602a.6.6 0 0 1 .646.598v2.419h3.055a.6.6 0 0 1 .6.6v2.546a.6.6 0 0 1-.6.6H8.037v2.932z"/>
</svg>
