<svg xmlns="http://www.w3.org/2000/svg" viewBox="0 0 20 20">
    <path fill="#000" fill-rule="evenodd" d="M2,3.6 L2,16.3272727 C2,16.6586436 2.26862915,16.9272727 2.6,16.9272727 L16.6,16.9272727 C16.9313708,16.9272727 17.2,16.6586436 17.2,16.3272727 L17.2,3.6 C17.2,3.26862915 16.9313708,3 16.6,3 L2.6,3 C2.26862915,3 2,3.26862915 2,3.6 L2,3.6 L2,3.6 Z M3.2,8.65454545 L6.45454545,8.65454545 L6.45454545,15.7416859 L3.2,15.7465967 L3.2,8.65454545 Z M16.0026259,8.65454545 L16.0067855,15.7272727 L7.65454545,15.7398753 L7.65454545,8.65454545 L16.0026259,8.65454545 Z M16.0019202,7.45454545 L3.2,7.45454545 L3.2,4.21716416 L16,4.18951625 L16.0019202,7.45454545 Z"/>
</svg>
