<svg xmlns="http://www.w3.org/2000/svg" viewBox="0 0 16 18">
    <path d="M8 1.25a8 8 0 1 1 0 16 8 8 0 0 1 0-16zm0 1.185a6.815 6.815 0 1 0 0 13.63 6.815 6.815 0 0 0 0-13.63zM6.275 8.56L4.214 6.5a.593.593 0 0 1 .838-.838l2.06 2.06a1.939 1.939 0 1 1-.838.838zm1.128.426a.754.754 0 1 0 .135-.135.597.597 0 0 1-.135.135zM3.6 7.913a.593.593 0 0 1 1.125.375c-.112.334-.172.74-.172 1.16a.593.593 0 1 1-1.185 0c0-.541.079-1.074.232-1.535zm9.034 1.535a.593.593 0 1 1-1.185 0A3.46 3.46 0 0 0 8 6c-.419 0-.825.06-1.16.171a.593.593 0 0 1-.374-1.124c.46-.154.993-.232 1.534-.232a4.645 4.645 0 0 1 4.633 4.633z"/>
</svg>
