<?xml version="1.0" encoding="UTF-8"?>
<svg width="16px" height="17px" viewBox="0 0 16 17" version="1.1" xmlns="http://www.w3.org/2000/svg" xmlns:xlink="http://www.w3.org/1999/xlink">
    <!-- Generator: sketchtool 51.3 (57544) - http://www.bohemiancoding.com/sketch -->
    <title>tachometer</title>
    <desc>Created with sketchtool.</desc>
    <defs></defs>
    <g id="Icons" stroke="none" stroke-width="1" fill="none" fill-rule="evenodd">
        <g id="Deprecated" transform="translate(-162.000000, -270.000000)" fill="#000000" fill-rule="nonzero">
            <g id="tachometer" transform="translate(162.000000, 270.750000)">
                <path d="M8,0 C12.418189,0 16,3.58181105 16,8 C16,12.418189 12.418189,16 8,16 C3.58181105,16 0,12.418189 0,8 C0,3.58181106 3.58181106,0 8,0 Z M8,1.18518519 C4.23637077,1.18518519 1.18518519,4.23637077 1.18518519,8 C1.18518519,11.7636293 4.23637075,14.8148148 8,14.8148148 C11.7636293,14.8148148 14.8148148,11.7636293 14.8148148,8 C14.8148148,4.23637075 11.7636293,1.18518519 8,1.18518519 Z M6.27482009,7.31040343 L4.21397039,5.24955374 C3.98254859,5.01813193 3.98254859,4.64292306 4.21397039,4.41150126 C4.44539219,4.18007945 4.82060107,4.18007945 5.05202287,4.41150126 L7.11287257,6.47235095 C7.37869843,6.33542824 7.68029421,6.25813693 8,6.25813693 C9.07138759,6.25813693 9.93939394,7.12614327 9.93939394,8.19753086 C9.93939394,9.26891846 9.07138759,10.1369248 8,10.1369248 C6.92861241,10.1369248 6.06060606,9.26891846 6.06060606,8.19753086 C6.06060606,7.87782508 6.13789737,7.5762293 6.27482009,7.31040343 Z M7.40334379,7.73589749 C7.30455932,7.86343537 7.24579125,8.02356371 7.24579125,8.19753086 C7.24579125,8.61435876 7.58317211,8.95173962 8,8.95173962 C8.41682789,8.95173962 8.75420875,8.61435876 8.75420875,8.19753086 C8.75420875,7.78070297 8.41682789,7.44332211 8,7.44332211 C7.82603285,7.44332211 7.6659045,7.50209018 7.53836663,7.60087465 C7.51994866,7.62641219 7.49924822,7.65081325 7.4762653,7.67379617 C7.45328239,7.69677908 7.42888132,7.71747952 7.40334379,7.73589749 Z M3.59943346,6.6633353 C3.70292843,6.35285037 4.03852545,6.18505185 4.34901038,6.28854682 C4.65949531,6.39204179 4.82729383,6.72763881 4.72379886,7.03812374 C4.61244642,7.37218108 4.55218855,7.77892166 4.55218855,8.19753086 C4.55218855,8.52481072 4.28687581,8.79012346 3.95959596,8.79012346 C3.63231611,8.79012346 3.36700337,8.52481072 3.36700337,8.19753086 C3.36700337,7.65654414 3.44591498,7.12389077 3.59943346,6.6633353 Z M12.6329966,8.19753086 C12.6329966,8.52481072 12.3676839,8.79012346 12.040404,8.79012346 C11.7131242,8.79012346 11.4478115,8.52481072 11.4478115,8.19753086 C11.4478115,6.3025885 9.89494237,4.74971942 8,4.74971942 C7.58139078,4.74971942 7.17465022,4.80997728 6.84059289,4.92132973 C6.53010796,5.0248247 6.19451094,4.8570262 6.09101596,4.54654127 C5.98752098,4.23605634 6.15531949,3.90045932 6.46580442,3.79696434 C6.92635989,3.64344584 7.45901325,3.56453423 8,3.56453423 C10.5495021,3.56453423 12.6329966,5.64802879 12.6329966,8.19753086 Z"></path>
            </g>
        </g>
    </g>
</svg>