<svg xmlns="http://www.w3.org/2000/svg" viewBox="0 0 16 16">
    <path fill="#000" fill-rule="evenodd" d="M.188 8.656A1.155 1.155 0 0 1 0 8c0-.25.063-.469.188-.656l3.312-5a1.34 1.34 0 0 1 .25-.313c.063-.083.156-.166.281-.25a.486.486 0 0 1 .203-.078 2.07 2.07 0 0 1 .64-.078h9.407c.271 0 .5.042.688.125.229.104.396.23.5.375.083.104.156.203.219.297.062.094.114.193.156.297.104.208.156.437.156.687v9.188c0 .25-.052.479-.156.687a1.615 1.615 0 0 1-.156.297 4.274 4.274 0 0 1-.22.297c-.103.146-.27.27-.5.375a1.69 1.69 0 0 1-.687.125H4.875a2.07 2.07 0 0 1-.844-.156 1.135 1.135 0 0 1-.281-.25 1.34 1.34 0 0 1-.25-.313l-3.313-5zm5.468-2.719c-.604 0-1.125.22-1.562.657a2.17 2.17 0 0 0-.657 1.593c0 .626.22 1.162.657 1.61a2.11 2.11 0 0 0 1.562.672 2.11 2.11 0 0 0 1.563-.672c.437-.448.656-.985.656-1.61a2.17 2.17 0 0 0-.656-1.593 2.134 2.134 0 0 0-1.563-.657z"/>
</svg>
