<svg xmlns="http://www.w3.org/2000/svg" viewBox="0 0 20 20">
    <path fill="#000" fill-rule="evenodd" d="M3.631 4A1.68 1.68 0 0 0 2 5.715v8.574a1.68 1.68 0 0 0 1.631 1.715h10.141c.539 0 1.042-.291 1.338-.774l2.627-4.287c.35-.571.35-1.311 0-1.882L15.11 4.774A1.576 1.576 0 0 0 13.772 4H3.631m10.141 1.2c.12 0 .238.075.315.201l2.627 4.287a.615.615 0 0 1 0 .628l-2.627 4.287c-.077.126-.195.201-.315.201H3.631c-.234 0-.431-.236-.431-.515V5.715c0-.279.197-.515.431-.515h10.141m-.192 3.201a1.601 1.601 0 1 0 0 3.203 1.601 1.601 0 0 0 0-3.203m0 1.2a.4.4 0 1 1 0 .801.4.4 0 0 1 0-.8"/>
</svg>
