<svg xmlns="http://www.w3.org/2000/svg" viewBox="0 0 20 20">
    <path fill="#000" fill-rule="evenodd" d="M3.631,4 C2.734,4 2,4.772 2,5.715 L2,14.289 C2,15.232 2.734,16.004 3.631,16.004 L13.772,16.004 C14.311,16.004 14.814,15.713 15.11,15.23 L17.737,10.943 C18.087,10.372 18.087,9.632 17.737,9.061 L15.11,4.774 C14.814,4.291 14.311,4 13.772,4 L3.631,4 L3.631,4 Z M13.772,5.2 C13.892,5.2 14.01,5.275 14.087,5.401 L16.714,9.688 C16.829,9.876 16.829,10.128 16.714,10.316 L14.087,14.603 C14.01,14.729 13.892,14.804 13.772,14.804 L3.631,14.804 C3.397,14.804 3.2,14.568 3.2,14.289 L3.2,5.715 C3.2,5.436 3.397,5.2 3.631,5.2 L13.772,5.2 L13.772,5.2 Z M13.5804,8.4014 C12.6964,8.4014 11.9794,9.1184 11.9794,10.0014 C11.9794,10.8854 12.6964,11.6024 13.5804,11.6024 C14.4644,11.6024 15.1804,10.8854 15.1804,10.0014 C15.1804,9.1184 14.4644,8.4014 13.5804,8.4014 L13.5804,8.4014 Z M13.5804,9.6014 C13.8014,9.6014 13.9804,9.7814 13.9804,10.0014 C13.9804,10.2224 13.8014,10.4024 13.5804,10.4024 C13.3594,10.4024 13.1794,10.2224 13.1794,10.0014 C13.1794,9.7814 13.3594,9.6014 13.5804,9.6014 L13.5804,9.6014 Z"/>
</svg>
