<svg xmlns="http://www.w3.org/2000/svg" viewBox="0 0 16 16">
    <path fill="#000" fill-rule="evenodd" d="M8.844 4.469c.75.062 1.448.255 2.094.578a5.93 5.93 0 0 1 1.687 1.25 5.71 5.71 0 0 1 1.531 3.922v4.187c0 .438-.15.813-.453 1.125a1.52 1.52 0 0 1-1.14.469H3.437c-.437 0-.812-.156-1.124-.469a1.534 1.534 0 0 1-.47-1.125V10.22c0-.75.136-1.459.407-2.125a5.828 5.828 0 0 1 4.844-3.625 1.102 1.102 0 0 1-.188-.625V3.78a2.306 2.306 0 0 1-.718-.734 1.887 1.887 0 0 1-.282-1.016c0-.562.203-1.041.61-1.437A2.01 2.01 0 0 1 7.969 0a2.01 2.01 0 0 1 1.453.594c.406.396.61.875.61 1.437 0 .375-.095.714-.282 1.016a2.306 2.306 0 0 1-.719.734v.063c0 .229-.062.437-.187.625zM6.406 9.156H4.125v2.281h2.281v-2.28zm5.719 0H9.844v2.281h2.281v-2.28z"/>
</svg>
