<svg xmlns="http://www.w3.org/2000/svg" viewBox="0 0 16 16">
    <path d="M8 0c.74 0 1.467.1 2.166.297a.593.593 0 0 1-.32 1.14A6.82 6.82 0 0 0 1.186 8a6.815 6.815 0 1 0 13.377-1.844.593.593 0 0 1 1.14-.32A8.006 8.006 0 0 1 8 16 8 8 0 1 1 8 0zm0 3.457c.39 0 .775.05 1.147.146a.593.593 0 1 1-.299 1.147A3.365 3.365 0 0 0 4.642 8a3.358 3.358 0 1 0 6.61-.837.593.593 0 0 1 1.149-.295A4.55 4.55 0 0 1 8 12.543a4.543 4.543 0 0 1 0-9.086zM12.965.452c.18-.173.35-.143.402.061l.013.075.19 1.929 1.837.187c.251.026.322.177.192.353l-.05.059-1.994 2.041a1.27 1.27 0 0 1-.74.328h-.108l-1.124-.075L9.168 7.8a1.185 1.185 0 1 1-.835-.938l2.321-2.38-.091-1.188a1.221 1.221 0 0 1 .255-.768l.074-.081L12.965.452z"/>
</svg>
