<svg xmlns="http://www.w3.org/2000/svg" viewBox="0 0 16 16">
    <path d="M13.5 1.5A1.5 1.5 0 0 1 15 3v11.5a1.5 1.5 0 0 1-1.5 1.5h-11A1.5 1.5 0 0 1 1 14.5V3a1.5 1.5 0 0 1 1.5-1.5H3v1a2.5 2.5 0 0 0 2.336 2.495L5.5 5h5a2.5 2.5 0 0 0 2.495-2.336L13 2.5v-1h.5zM9.174 5.926l-.083-.07a.6.6 0 0 0-.835.835l.07.083 1.408 1.409c-2.971.096-4.647 1.54-4.822 4.282a.6.6 0 1 0 1.198.076c.127-2.005 1.223-3.042 3.468-3.156l.245-.009-1.497 1.5-.07.083a.6.6 0 0 0 .835.834l.083-.069 2.475-2.475.07-.083a.6.6 0 0 0 0-.682l-.07-.083-2.475-2.475-.083-.07.083.07zM10 0a2 2 0 1 1 0 4H6a2 2 0 1 1 0-4h4zm0 1.2H6a.8.8 0 1 0 0 1.6h4a.8.8 0 1 0 0-1.6z"/>
</svg>
