<svg xmlns="http://www.w3.org/2000/svg" viewBox="0 0 16 16">
    <path d="M9.492 2.069c.317 0 .574.25.574.56 0 .308-.257.559-.574.559H1.147V13.88h10.957V6.669c0-.309.257-.56.573-.56.317 0 .574.251.574.56v7.771c0 .31-.257.56-.574.56H.573A.567.567 0 0 1 0 14.44V2.628c0-.309.257-.56.573-.56zm.938 3.95a.583.583 0 0 1 .81.01.55.55 0 0 1-.01.792l-5.16 4.912a.583.583 0 0 1-.805-.005L2.716 9.24a.55.55 0 0 1 0-.792.583.583 0 0 1 .811 0l2.148 2.097zM11.735 1l.096.093v3.773l-.096.094h-.85l-.096-.094V1.093L10.885 1h.85zm2.415 0c.26 0 .503.04.729.122a1.61 1.61 0 0 1 .982.985c.093.244.139.528.139.852 0 .283-.037.546-.112.788a1.628 1.628 0 0 1-.926 1.06 1.986 1.986 0 0 1-.812.153h-1.668l-.095-.094V1.093L12.482 1h1.668zm-.211.884h-.511v2.191h.662c.113 0 .221-.017.327-.053a.693.693 0 0 0 .271-.17.874.874 0 0 0 .195-.318 2.06 2.06 0 0 0 .021-.99.925.925 0 0 0-.169-.358.732.732 0 0 0-.305-.222 1.31 1.31 0 0 0-.491-.08z"/>
</svg>
