<svg xmlns="http://www.w3.org/2000/svg" viewBox="0 0 16 16">
    <path d="M3.882 8.519l2.438 2.438 4.361-4.63a.6.6 0 0 1 .838.86L6.734 12.23a.6.6 0 0 1-.843-.005L3.033 9.367a.6.6 0 1 1 .849-.848zm9.716 6.279V6.654a.601.601 0 1 1 1.202 0V15.4c0 .332-.27.601-.601.601H.6A.601.601 0 0 1 0 15.399V1.8C0 1.47.27 1.2.601 1.2h8.517a.601.601 0 1 1 0 1.202H1.202v12.396h12.396zM11.76 4.962a.201.201 0 0 1-.074-.192l.456-1.768-1.285-.91a.203.203 0 0 1-.048-.202.19.19 0 0 1 .151-.134l1.7-.029.472-1.626c.063-.135.273-.135.336 0l.47 1.626 1.701.029c.071.01.13.062.152.134a.204.204 0 0 1-.048.202l-1.286.91.457 1.768a.201.201 0 0 1-.075.192.18.18 0 0 1-.197.015L13.3 3.837l-1.342 1.14a.18.18 0 0 1-.198-.015z"/>
</svg>
