<svg xmlns="http://www.w3.org/2000/svg" viewBox="0 0 16 16">
    <path d="M15.333 0H.667C.267 0 0 .267 0 .667v14.666c0 .4.267.667.667.667h14.666c.4 0 .667-.267.667-.667V.667c0-.4-.267-.667-.667-.667M6.467 12.2a.644.644 0 0 1 0 .933.605.605 0 0 1-.467.2.605.605 0 0 1-.467-.2l-.866-.866-.867.866a.605.605 0 0 1-.467.2.605.605 0 0 1-.466-.2.644.644 0 0 1 0-.933l.866-.867-.866-.866a.644.644 0 0 1 0-.934.644.644 0 0 1 .933 0l.867.867.866-.867a.644.644 0 0 1 .934 0 .644.644 0 0 1 0 .934l-.867.866.867.867m6.2 1.4H10c-.4 0-.667-.32-.667-.8 0-.48.267-.8.667-.8h2.667c.4 0 .666.32.666.8 0 .48-.266.8-.666.8m0-2.667H10c-.4 0-.667-.32-.667-.8 0-.48.267-.8.667-.8h2.667c.4 0 .666.32.666.8 0 .48-.266.8-.666.8M6 5.333h-.667V6c0 .4-.266.667-.666.667S4 6.4 4 6v-.667h-.667c-.4 0-.666-.266-.666-.666S2.933 4 3.333 4H4v-.667c0-.4.267-.666.667-.666s.666.266.666.666V4H6c.4 0 .667.267.667.667S6.4 5.333 6 5.333m6.667.267H10c-.4 0-.667-.32-.667-.8 0-.48.267-.8.667-.8h2.667c.4 0 .666.32.666.8 0 .48-.266.8-.666.8"/>
</svg>
