<svg xmlns="http://www.w3.org/2000/svg" viewBox="0 0 16 16">
    <path fill="#000" fill-rule="evenodd" d="M12.25 1h-7.5a1.842 1.842 0 0 0-1.875 1.875v9.375c0 .375.25.625.625.625v1.25c0 .375.25.625.625.625H6c.375 0 .625-.25.625-.625v-1.25h3.75v1.25c0 .375.25.625.625.625h1.875c.375 0 .625-.25.625-.625v-1.25c.375 0 .625-.25.625-.625V2.875A1.842 1.842 0 0 0 12.25 1M6.625 11h-1.25c-.375 0-.625-.25-.625-.625s.25-.625.625-.625h1.25c.375 0 .625.25.625.625S7 11 6.625 11m-2.5-7.917c0-.46.376-.833.839-.833h7.072c.463 0 .839.373.839.833v3.542h-8.75V3.083m-2.5 2.292C1.25 5.375 1 5.625 1 6v1.875c0 .375.25.625.625.625s.625-.25.625-.625V6c0-.375-.25-.625-.625-.625m13.75 0c-.375 0-.625.25-.625.625v1.875c0 .375.25.625.625.625S16 8.25 16 7.875V6c0-.375-.25-.625-.625-.625"/>
</svg>
