<svg xmlns="http://www.w3.org/2000/svg" viewBox="0 0 20 20">
    <path fill="#000" fill-rule="evenodd" d="M17.375,4.875 L13.9375,4.875 L12.875,3.25 C12.75,3.125 12.5625,3 12.375,3 L8.625,3 C8.4375,3 8.25,3.125 8.125,3.25 L7.0625,4.875 L3.625,4.875 C3.25,4.875 3,5.125 3,5.5 L3,16.125 C3,16.5 3.25,16.75 3.625,16.75 L17.375,16.75 C17.75,16.75 18,16.5 18,16.125 L18,5.5 C18,5.125 17.75,4.875 17.375,4.875 L17.375,4.875 Z M10.5,13.625 C8.75,13.625 7.375,12.25 7.375,10.5 C7.375,8.75 8.75,7.375 10.5,7.375 C12.25,7.375 13.625,8.75 13.625,10.5 C13.625,12.25 12.25,13.625 10.5,13.625 L10.5,13.625 Z M3.625,3 L6.125,3 L6.125,4.25 L3.625,4.25 L3.625,3 L3.625,3 Z"/>
</svg>
