<svg xmlns="http://www.w3.org/2000/svg" viewBox="0 0 20 20">
    <path fill="#000" fill-rule="evenodd" d="M16.697 17.125l-1.875-3.75c-.125-.25-.312-.375-.562-.375l-.375 1.25 1.25 2.5h-10.5l1.25-2.5L5.51 13c-.25 0-.438.125-.563.375l-1.875 3.75c-.125.188-.062.438 0 .625a.93.93 0 0 0 .563.25h12.5a.746.746 0 0 0 .562-.313.867.867 0 0 0 0-.562M9.885 3c-2.438 0-5 1.875-5 5 0 2.875 4.062 7.063 4.562 7.563.125.124.25.187.438.187a.567.567 0 0 0 .437-.188c.5-.5 4.563-4.687 4.563-7.562 0-3.125-2.563-5-5-5m0 6.875A1.842 1.842 0 0 1 8.01 8c0-1.063.812-1.875 1.875-1.875 1.062 0 1.875.813 1.875 1.875a1.842 1.842 0 0 1-1.875 1.875"/>
</svg>
