<svg xmlns="http://www.w3.org/2000/svg" viewBox="0 0 16 16">
    <path fill="#000" fill-rule="evenodd" d="M4.03 10.09H1.606c-.364 0-.606.243-.606.607v3.03c0 .364.242.606.606.606H4.03c.364 0 .606-.242.606-.606v-3.03c0-.364-.242-.606-.606-.606M8.88 7.667H6.455c-.364 0-.607.242-.607.606v5.454c0 .364.243.606.607.606h2.424c.363 0 .606-.242.606-.606V8.273c0-.364-.243-.606-.606-.606m4.848-2.425h-2.424c-.364 0-.606.243-.606.606v7.88c0 .363.242.605.606.605h2.424c.364 0 .606-.242.606-.606V5.848c0-.363-.242-.606-.606-.606M3.424 7.061a.55.55 0 0 0 .424-.182l2-2 1.394 1.394a.586.586 0 0 0 .849 0l3.212-3.212v.97c0 .363.242.605.606.605s.606-.242.606-.606V1.606c0-.06 0-.182-.06-.242a.73.73 0 0 0-.303-.303C12.09 1 11.97 1 11.909 1H9.485c-.364 0-.606.242-.606.606s.242.606.606.606h.97L7.667 5 6.273 3.606a.586.586 0 0 0-.849 0L3 6.03a.586.586 0 0 0 0 .849.55.55 0 0 0 .424.182"/>
</svg>
