<svg xmlns="http://www.w3.org/2000/svg" viewBox="0 0 16 16">
    <path d="M1.71 3.2c-.214-.356-.64-.498-.925-.284-.356.213-.498.64-.285.995l6.756 11.733a.747.747 0 0 0 .64.356c.142 0 .213 0 .355-.071.356-.213.427-.64.285-.996L1.709 3.2m13.867 2.631l-3.2-5.547A.599.599 0 0 0 11.878 0c-.213 0-.427 0-.569.213-.924.854-1.991.925-3.058.925H7.47c-1.422 0-2.987.142-4.195 1.92l3.982 6.826A.555.555 0 0 0 7.54 9.6c.854-1.493 1.85-1.564 3.2-1.564h.711c1.28 0 2.703-.072 4.054-1.28.213-.214.213-.57.07-.925"/>
</svg>
