<svg xmlns="http://www.w3.org/2000/svg" viewBox="0 0 16 16">
    <path fill="#000" fill-rule="evenodd" d="M14.75 16h.625c.375 0 .625-.25.625-.625V9.75c0-.375-.25-.625-.625-.625h-.625V16m-12.5-.625v-6.25h-.625c-.375 0-.625.25-.625.625v5.625c0 .375.25.625.625.625h.625v-.625M12.875 1h-8.75c-.375 0-.625.25-.625.625v13.75c0 .375.25.625.625.625h3.75v-2.5h1.25V16h3.75c.375 0 .625-.25.625-.625V1.625c0-.375-.25-.625-.625-.625M7.25 11.625H5.375v-1.25H7.25v1.25m0-2.5H5.375v-1.25H7.25v1.25m0-2.5H5.375v-1.25H7.25v1.25m0-2.5H5.375v-1.25H7.25v1.25m4.375 7.5H9.75v-1.25h1.875v1.25m0-2.5H9.75v-1.25h1.875v1.25m0-2.5H9.75v-1.25h1.875v1.25m0-2.5H9.75v-1.25h1.875v1.25"/>
</svg>
