<svg xmlns="http://www.w3.org/2000/svg" viewBox="0 0 20 20">
    <path fill="#000" fill-rule="evenodd" d="M11.75 16.75h-2.5c-.375 0-.625.25-.625.625s.25.625.625.625h2.5c.375 0 .625-.25.625-.625s-.25-.625-.625-.625M10.5 6.125A4.348 4.348 0 0 0 6.125 10.5c0 1.688 1 3.25 2.5 3.938V15.5c0 .375.25.625.625.625h2.5c.375 0 .625-.25.625-.625v-1.063c1.5-.687 2.5-2.25 2.5-3.937A4.348 4.348 0 0 0 10.5 6.125m-5.625 3.75h-1.25c-.375 0-.625.25-.625.625s.25.625.625.625h1.25c.375 0 .625-.25.625-.625s-.25-.625-.625-.625m2.063-2.938a.604.604 0 0 0 0-.875l-.875-.875a.604.604 0 0 0-.875 0 .604.604 0 0 0 0 .875l.875.875a.675.675 0 0 0 .437.188.675.675 0 0 0 .438-.188M10.5 5.5c.375 0 .625-.25.625-.625v-1.25c0-.375-.25-.625-.625-.625s-.625.25-.625.625v1.25c0 .375.25.625.625.625m5.313-.313a.604.604 0 0 0-.876 0l-.874.875a.604.604 0 0 0 0 .875.675.675 0 0 0 .437.188.675.675 0 0 0 .438-.188l.874-.875a.604.604 0 0 0 0-.875m1.563 4.688h-1.25c-.375 0-.625.25-.625.625s.25.625.625.625h1.25c.375 0 .625-.25.625-.625s-.25-.625-.625-.625"/>
</svg>
