<?xml version="1.0" encoding="UTF-8" standalone="no"?>
<svg width="20px" height="20px" viewBox="0 0 20 20" version="1.1" xmlns="http://www.w3.org/2000/svg" xmlns:xlink="http://www.w3.org/1999/xlink">
    <defs></defs>
    <g id="Icons" stroke="none" stroke-width="1" fill="none" fill-rule="evenodd">
        <g id="Web" transform="translate(-97.000000, -2442.000000)" fill="#000000">
            <g id="team/team-talk" transform="translate(97.000000, 2442.000000)">
                <path d="M18,9.25 C18,5.8125 14.625,3 10.5,3 C6.375,3 3,5.8125 3,9.25 C3,12.6875 6.375,15.5 10.5,15.5 C11.125,15.5 11.75,15.4375 12.375,15.3125 L15.875,16.6875 C15.9375,16.6875 16,16.75 16.125,16.75 C16.25,16.75 16.375,16.6875 16.5,16.625 C16.6875,16.5 16.75,16.25 16.75,16.0625 L16.4375,13.125 C17.4375,12 18,10.625 18,9.25 L18,9.25 M11.75,11.125 L7.375,11.125 L7.375,9.875 L11.75,9.875 L11.75,11.125 L11.75,11.125 M13.625,8.625 L7.375,8.625 L7.375,7.375 L13.625,7.375 L13.625,8.625 L13.625,8.625" id="Shape"></path>
            </g>
        </g>
    </g>
</svg>