<svg xmlns="http://www.w3.org/2000/svg" viewBox="0 0 20 20">
    <path fill="#000" fill-rule="evenodd" d="M12.835 13.891l-1.986-5.87a.634.634 0 0 0-.595-.456H7.607a.634.634 0 0 0-.596.457l-1.985 5.87c-.066.26 0 .521.132.651l3.31 3.261A.72.72 0 0 0 8.93 18a.72.72 0 0 0 .464-.196l3.308-3.26c.199-.196.265-.457.133-.653m2.58-3.456L12.703 7.5c-.264-.26-.661 0-.529.326l1.654 4.565c.067.261.397.326.53.13l1.059-1.238c.198-.261.198-.653 0-.848M7.077 6c.133.13.331.26.53.26h2.647c.198 0 .397-.13.53-.26l1.323-1.957a.585.585 0 0 0 0-.652c-.066-.26-.265-.391-.53-.391H6.283a.697.697 0 0 0-.595.326.585.585 0 0 0 0 .652L7.078 6"/>
</svg>
