<svg xmlns="http://www.w3.org/2000/svg" viewBox="0 0 16 16">
    <path fill="#000" fill-rule="evenodd" d="M9.75 14.75h-2.5c-.375 0-.625.25-.625.625s.25.625.625.625h2.5c.375 0 .625-.25.625-.625s-.25-.625-.625-.625M8.5 4.125A4.348 4.348 0 0 0 4.125 8.5c0 1.688 1 3.25 2.5 3.938V13.5c0 .375.25.625.625.625h2.5c.375 0 .625-.25.625-.625v-1.063c1.5-.687 2.5-2.25 2.5-3.937A4.348 4.348 0 0 0 8.5 4.125m-5.625 3.75h-1.25c-.375 0-.625.25-.625.625s.25.625.625.625h1.25c.375 0 .625-.25.625-.625s-.25-.625-.625-.625m2.063-2.938a.604.604 0 0 0 0-.875l-.875-.875a.604.604 0 0 0-.875 0 .604.604 0 0 0 0 .876l.874.875a.675.675 0 0 0 .438.187.675.675 0 0 0 .438-.188M8.5 3.5c.375 0 .625-.25.625-.625v-1.25C9.125 1.25 8.875 1 8.5 1s-.625.25-.625.625v1.25c0 .375.25.625.625.625m5.313-.313a.604.604 0 0 0-.876 0l-.874.876a.604.604 0 0 0 0 .875.675.675 0 0 0 .437.187.675.675 0 0 0 .438-.188l.874-.875a.604.604 0 0 0 0-.875m1.563 4.688h-1.25c-.375 0-.625.25-.625.625s.25.625.625.625h1.25c.375 0 .625-.25.625-.625s-.25-.625-.625-.625"/>
</svg>
