<svg xmlns="http://www.w3.org/2000/svg" viewBox="0 0 16 16">
    <path fill="#000" fill-rule="evenodd" d="M11.357 11.617L9.24 5.357a.676.676 0 0 0-.635-.487H5.781a.676.676 0 0 0-.636.487l-2.117 6.26c-.07.279 0 .557.14.696l3.53 3.478c.141.14.353.209.494.209.142 0 .353-.07.495-.209l3.529-3.478c.212-.209.282-.487.141-.696M14.11 7.93L11.216 4.8c-.282-.278-.706 0-.565.348l1.765 4.87c.07.278.423.347.565.139l1.129-1.322c.212-.278.212-.696 0-.905M5.216 3.2c.141.14.353.278.565.278h2.823c.212 0 .424-.139.565-.278l1.412-2.087a.624.624 0 0 0 0-.696C10.51.14 10.298 0 10.016 0H4.369a.744.744 0 0 0-.635.348.624.624 0 0 0 0 .695L5.216 3.2"/>
</svg>
