<svg xmlns="http://www.w3.org/2000/svg" viewBox="0 0 16 16">
    <path fill="#000" fill-rule="evenodd" d="M15.375 1H1.625C1.25 1 1 1.25 1 1.625v13.75c0 .375.25.625.625.625h13.75c.375 0 .625-.25.625-.625V1.625C16 1.25 15.75 1 15.375 1M7.062 12.438c.25.25.25.624 0 .874a.567.567 0 0 1-.437.188.567.567 0 0 1-.438-.188l-.812-.812-.813.813a.567.567 0 0 1-.437.187.567.567 0 0 1-.438-.188.604.604 0 0 1 0-.874l.813-.813-.813-.813a.604.604 0 0 1 0-.874c.25-.25.626-.25.876 0l.812.812.813-.813c.25-.25.625-.25.875 0s.25.626 0 .876l-.813.812.813.813m5.812 1.062h-2.5c-.375 0-.625-.25-.625-.625s.25-.625.625-.625h2.5c.375 0 .625.25.625.625s-.25.625-.625.625m0-2.5h-2.5c-.375 0-.625-.25-.625-.625s.25-.625.625-.625h2.5c.375 0 .625.25.625.625s-.25.625-.625.625m-6.25-5H6v.625c0 .375-.25.625-.625.625S4.75 7 4.75 6.625V6h-.625C3.75 6 3.5 5.75 3.5 5.375s.25-.625.625-.625h.625v-.625c0-.375.25-.625.625-.625S6 3.75 6 4.125v.625h.625c.375 0 .625.25.625.625S7 6 6.625 6m6.25 0h-2.5C10 6 9.75 5.75 9.75 5.375s.25-.625.625-.625h2.5c.375 0 .625.25.625.625S13.25 6 12.875 6"/>
</svg>
