<svg xmlns="http://www.w3.org/2000/svg" viewBox="0 0 20 20">
    <path fill="#000" fill-rule="evenodd" d="M16.6971688,17.125 L14.8221688,13.375 C14.6971688,13.125 14.5096688,13 14.2596688,13 L13.8846688,14.25 L15.1346688,16.75 L4.63466878,16.75 L5.88466878,14.25 L5.50966878,13 C5.25966878,13 5.07216878,13.125 4.94716878,13.375 L3.07216878,17.125 C2.94716878,17.3125 3.00966878,17.5625 3.07216878,17.75 C3.19716878,17.875 3.44716878,18 3.63466878,18 L16.1346688,18 C16.3221688,18 16.5721688,17.875 16.6971688,17.6875 C16.7596688,17.5 16.7596688,17.3125 16.6971688,17.125 L16.6971688,17.125 Z M9.88466878,3 C7.44716878,3 4.88466878,4.875 4.88466878,8 C4.88466878,10.875 8.94716878,15.0625 9.44716878,15.5625 C9.57216878,15.6875 9.69716878,15.75 9.88466878,15.75 C10.0721688,15.75 10.1971688,15.6875 10.3221688,15.5625 C10.8221688,15.0625 14.8846688,10.875 14.8846688,8 C14.8846688,4.875 12.3221688,3 9.88466878,3 L9.88466878,3 Z M9.88466878,9.875 C8.82216878,9.875 8.00966878,9.0625 8.00966878,8 C8.00966878,6.9375 8.82216878,6.125 9.88466878,6.125 C10.9471688,6.125 11.7596688,6.9375 11.7596688,8 C11.7596688,9.0625 10.9471688,9.875 9.88466878,9.875 L9.88466878,9.875 Z"/>
</svg>
