<svg xmlns="http://www.w3.org/2000/svg" viewBox="0 0 16 16">
    <path fill="#000" fill-rule="evenodd" d="M12.875 1a5.672 5.672 0 0 0-4.688 2.5H2.876C1.812 3.5 1 4.813 1 6.625c0 1.813.813 3.125 1.875 3.125h1.438L7 14.313c.375.624 1.125.812 1.688.437.624-.375.812-1.125.437-1.688L7.187 9.75h1a5.672 5.672 0 0 0 4.688 2.5C14.688 12.25 16 9.812 16 6.625 16 3.437 14.687 1 12.875 1m0 10c-.563 0-1.188-.813-1.563-2.063a2.453 2.453 0 0 0 1.563-2.312 2.453 2.453 0 0 0-1.563-2.313c.376-1.25 1-2.062 1.563-2.062.875 0 1.875 1.875 1.875 4.375S13.75 11 12.875 11"/>
</svg>
