<?xml version="1.0" encoding="UTF-8" standalone="no"?>
<svg width="20px" height="20px" viewBox="0 0 20 20" version="1.1" xmlns="http://www.w3.org/2000/svg" xmlns:xlink="http://www.w3.org/1999/xlink">
    <defs></defs>
    <g id="Icons" stroke="none" stroke-width="1" fill="none" fill-rule="evenodd">
        <g id="Web" transform="translate(-49.000000, -2392.000000)" fill="#000000">
            <g id="team/team-flag" transform="translate(49.000000, 2392.000000)">
                <path d="M4.15059625,5.8125 C3.96309625,5.5 3.58809625,5.375 3.33809625,5.5625 C3.02559625,5.75 2.90059625,6.125 3.08809625,6.4375 L9.02559625,16.75 C9.15059625,16.9375 9.33809625,17.0625 9.58809625,17.0625 C9.71309625,17.0625 9.77559625,17.0625 9.90059625,17 C10.2130962,16.8125 10.2755962,16.4375 10.1505962,16.125 L4.15059625,5.8125 M16.3380962,8.125 L13.5255962,3.25 C13.4630962,3.125 13.2755962,3 13.0880962,3 C12.9005962,3 12.7130962,3 12.5880962,3.1875 C11.7755962,3.9375 10.8380962,4 9.90059625,4 L9.21309625,4 C7.96309625,4 6.58809625,4.125 5.52559625,5.6875 L9.02559625,11.6875 C9.15059625,11.625 9.21309625,11.5625 9.27559625,11.4375 C10.0255962,10.125 10.9005962,10.0625 12.0880962,10.0625 L12.7130962,10.0625 C13.8380962,10.0625 15.0880962,10 16.2755962,8.9375 C16.4630962,8.75 16.4630962,8.4375 16.3380962,8.125" id="Shape"></path>
            </g>
        </g>
    </g>
</svg>