<svg xmlns="http://www.w3.org/2000/svg" viewBox="0 0 20 20">
    <path fill="#000" fill-rule="evenodd" d="M17.375 3H3.625C3.25 3 3 3.25 3 3.625v13.75c0 .375.25.625.625.625h13.75c.375 0 .625-.25.625-.625V3.625C18 3.25 17.75 3 17.375 3M9.062 14.438c.25.25.25.624 0 .874a.567.567 0 0 1-.437.188.567.567 0 0 1-.438-.188l-.812-.812-.813.813a.567.567 0 0 1-.437.187.567.567 0 0 1-.438-.188.604.604 0 0 1 0-.874l.813-.813-.813-.813a.604.604 0 0 1 0-.874c.25-.25.625-.25.875 0l.813.812.813-.813c.25-.25.624-.25.874 0s.25.626 0 .876l-.812.812.813.813m5.812 1.062h-2.5c-.375 0-.625-.25-.625-.625s.25-.625.625-.625h2.5c.375 0 .625.25.625.625s-.25.625-.625.625m0-2.5h-2.5c-.375 0-.625-.25-.625-.625s.25-.625.625-.625h2.5c.375 0 .625.25.625.625s-.25.625-.625.625m-6.25-5H8v.625c0 .375-.25.625-.625.625S6.75 9 6.75 8.625V8h-.625C5.75 8 5.5 7.75 5.5 7.375s.25-.625.625-.625h.625v-.625c0-.375.25-.625.625-.625S8 5.75 8 6.125v.625h.625c.375 0 .625.25.625.625S9 8 8.625 8m6.25 0h-2.5c-.375 0-.625-.25-.625-.625s.25-.625.625-.625h2.5c.375 0 .625.25.625.625S15.25 8 14.875 8"/>
</svg>
