<svg xmlns="http://www.w3.org/2000/svg" viewBox="0 0 20 20">
    <path fill="#000" fill-rule="evenodd" d="M14.25 3h-7.5a1.842 1.842 0 0 0-1.875 1.875v9.375c0 .375.25.625.625.625v1.25c0 .375.25.625.625.625H8c.375 0 .625-.25.625-.625v-1.25h3.75v1.25c0 .375.25.625.625.625h1.875c.375 0 .625-.25.625-.625v-1.25c.375 0 .625-.25.625-.625V4.875A1.842 1.842 0 0 0 14.25 3M8.625 13h-1.25c-.375 0-.625-.25-.625-.625s.25-.625.625-.625h1.25c.375 0 .625.25.625.625S9 13 8.625 13m-2.5-7.917c0-.46.376-.833.839-.833h7.072c.463 0 .839.373.839.833v3.542h-8.75V5.083m-2.5 2.292C3.25 7.375 3 7.625 3 8v1.875c0 .375.25.625.625.625s.625-.25.625-.625V8c0-.375-.25-.625-.625-.625m13.75 0c-.375 0-.625.25-.625.625v1.875c0 .375.25.625.625.625s.625-.25.625-.625V8c0-.375-.25-.625-.625-.625"/>
</svg>
