<svg xmlns="http://www.w3.org/2000/svg" viewBox="0 0 20 20">
    <path fill="#000" fill-rule="evenodd" d="M16.75 18h.625c.375 0 .625-.25.625-.625V11.75c0-.375-.25-.625-.625-.625h-.625V18m-12.5-.625v-6.25h-.625c-.375 0-.625.25-.625.625v5.625c0 .375.25.625.625.625h.625v-.625M14.875 3h-8.75c-.375 0-.625.25-.625.625v13.75c0 .375.25.625.625.625h3.75v-2.5h1.25V18h3.75c.375 0 .625-.25.625-.625V3.625c0-.375-.25-.625-.625-.625M9.25 13.625H7.375v-1.25H9.25v1.25m0-2.5H7.375v-1.25H9.25v1.25m0-2.5H7.375v-1.25H9.25v1.25m0-2.5H7.375v-1.25H9.25v1.25m4.375 7.5H11.75v-1.25h1.875v1.25m0-2.5H11.75v-1.25h1.875v1.25m0-2.5H11.75v-1.25h1.875v1.25m0-2.5H11.75v-1.25h1.875v1.25"/>
</svg>
