<svg xmlns="http://www.w3.org/2000/svg" viewBox="0 0 20 20">
    <path fill="#000" fill-rule="evenodd" d="M4.15 5.813c-.187-.313-.562-.438-.812-.25-.312.187-.437.562-.25.875L9.026 16.75a.656.656 0 0 0 .562.313c.125 0 .188 0 .313-.063.312-.188.375-.563.25-.875l-6-10.313m12.187 2.313L13.526 3.25a.526.526 0 0 0-.438-.25c-.187 0-.375 0-.5.188-.812.75-1.75.812-2.687.812h-.688c-1.25 0-2.625.125-3.687 1.688l3.5 6a.488.488 0 0 0 .25-.25c.75-1.313 1.625-1.376 2.812-1.376h.625c1.125 0 2.375-.062 3.563-1.124.187-.188.187-.5.062-.813"/>
</svg>
