<svg xmlns="http://www.w3.org/2000/svg" viewBox="0 0 16 16">
    <path d="M14.667 16h.666c.4 0 .667-.267.667-.667v-6c0-.4-.267-.666-.667-.666h-.666V16m-13.334-.667V8.667H.667c-.4 0-.667.266-.667.666v6c0 .4.267.667.667.667h.666v-.667M12.667 0H3.333c-.4 0-.666.267-.666.667v14.666c0 .4.266.667.666.667h4v-2.667h1.334V16h4c.4 0 .666-.267.666-.667V.667c0-.4-.266-.667-.666-.667m-6 11.333h-2V10h2v1.333m0-2.666h-2V7.333h2v1.334m0-2.667h-2V4.667h2V6m0-2.667h-2V2h2v1.333m4.666 8h-2V10h2v1.333m0-2.666h-2V7.333h2v1.334m0-2.667h-2V4.667h2V6m0-2.667h-2V2h2v1.333"/>
</svg>
