<svg xmlns="http://www.w3.org/2000/svg" viewBox="0 0 16 16">
    <path d="M15.31 15.067l-2-4c-.133-.267-.333-.4-.6-.4L12.31 12l1.334 2.667h-11.2L3.777 12l-.4-1.333c-.267 0-.467.133-.6.4l-2 4c-.133.2-.067.466 0 .666.133.134.4.267.6.267H14.71c.2 0 .467-.133.6-.333.067-.2.067-.4 0-.6M8.044 0C5.444 0 2.71 2 2.71 5.333c0 3.067 4.334 7.534 4.867 8.067.133.133.267.2.467.2s.333-.067.466-.2c.534-.533 4.867-5 4.867-8.067C13.377 2 10.644 0 8.044 0m0 7.333c-1.134 0-2-.866-2-2 0-1.133.866-2 2-2 1.133 0 2 .867 2 2 0 1.134-.867 2-2 2"/>
</svg>
