<svg xmlns="http://www.w3.org/2000/svg" viewBox="0 0 16 16">
    <path d="M14.667 12.033H9.333c0 .4-.266.667-.666.667H7.333c-.4 0-.666-.267-.666-.667H1.333c-.4 0-.666.267-.666.667v2c0 .4.266.667.666.667h13.334c.4 0 .666-.267.666-.667v-2c0-.4-.266-.667-.666-.667m.666-9.333h-4V1.367c0-.4-.266-.667-.666-.667H5.333c-.4 0-.666.267-.666.667V2.7h-4c-.4 0-.667.267-.667.667v6.666c0 .4.267.667.667.667h6v-.667c0-.4.266-.666.666-.666h1.334c.4 0 .666.266.666.666v.667h6c.4 0 .667-.267.667-.667V3.367c0-.4-.267-.667-.667-.667"/>
</svg>
