<svg xmlns="http://www.w3.org/2000/svg" viewBox="0 0 20 20">
    <path fill="#000" fill-rule="evenodd" d="M10.5 3A7.509 7.509 0 0 0 3 10.5c0 4.136 3.364 7.5 7.5 7.5s7.5-3.364 7.5-7.5S14.636 3 10.5 3m3.323 4.705l-2.14 3.982-3.976 2.145c-.345.185-.72-.19-.535-.536l2.14-3.983 3.976-2.144c.345-.186.72.19.535.536m-2.948 9.17a.375.375 0 1 1-.75 0V15.75a.375.375 0 1 1 .75 0v1.125m-5.625-6H4.125a.375.375 0 1 1 0-.75H5.25a.375.375 0 1 1 0 .75m4.875-6.75a.375.375 0 1 1 .75 0V5.25a.375.375 0 1 1-.75 0V4.125m6.75 6.75H15.75a.375.375 0 1 1 0-.75h1.125a.375.375 0 1 1 0 .75"/>
</svg>
