<svg xmlns="http://www.w3.org/2000/svg" viewBox="0 0 20 20">
    <path fill="#000" fill-rule="evenodd" d="M3,6.125 L3,16.125 C3,16.47 3.28,16.75 3.625,16.75 L17.375,16.75 C17.72,16.75 18,16.47 18,16.125 L18,6.125 L3,6.125 L3,6.125 Z M8.441875,11.566875 L6.125,13.88375 L5.24125,13 L7.11625,11.125 L5.24125,9.25 L6.125,8.36625 L8.441875,10.683125 C8.68625,10.9275 8.68625,11.3225 8.441875,11.566875 L8.441875,11.566875 Z M13.625,13.625 L9.875,13.625 L9.875,12.375 L13.625,12.375 L13.625,13.625 L13.625,13.625 Z M5.5,4.875 L5.5,3 L3.625,3 C3.28,3 3,3.28 3,3.625 L3,4.875 L5.5,4.875 L5.5,4.875 Z M18,4.875 L18,3.625 C18,3.28 17.72,3 17.375,3 L6.75,3 L6.75,4.875 L18,4.875 L18,4.875 Z"/>
</svg>
