<svg xmlns="http://www.w3.org/2000/svg" viewBox="0 0 16 16">
    <path d="M11.366.75a.586.586 0 0 1 1.142-.16l.372 1.222a.583.583 0 0 1-.39.724l-1.235.38a.578.578 0 0 1-.727-.379.583.583 0 0 1 .381-.721 6.807 6.807 0 0 0-9.746 6.14c0 1.584.545 3.083 1.527 4.286a.578.578 0 0 1-.084.816.583.583 0 0 1-.818-.084A7.908 7.908 0 0 1 0 7.956 7.968 7.968 0 0 1 7.981 0c1.189 0 2.34.26 3.385.75zm-6.17 14.617a.584.584 0 0 1-1.122.272l-.477-1.186a.581.581 0 0 1 .325-.754l1.198-.483a.58.58 0 0 1 .756.317.581.581 0 0 1-.293.74 6.807 6.807 0 0 0 9.254-6.35 6.747 6.747 0 0 0-1.269-3.95.578.578 0 0 1 .135-.808.583.583 0 0 1 .81.134A7.904 7.904 0 0 1 16 7.923a7.968 7.968 0 0 1-10.805 7.444zm3.731-7.999l1.483-1.446a.599.599 0 0 1 .832 0c.23.224.23.587 0 .81L9.759 8.18 7.72 10.166a.599.599 0 0 1-.832 0L4.813 8.143a.563.563 0 0 1 0-.81.599.599 0 0 1 .832 0l1.66 1.617 1.622-1.582z"/>
</svg>
