<svg xmlns="http://www.w3.org/2000/svg" viewBox="0 0 16 16">
    <path d="M3.356 5.633a.63.63 0 0 1 0-1.262h7.08a.63.63 0 1 1 0 1.262h-7.08zm.272 3.278a.63.63 0 1 1 0-1.262H6.35a.63.63 0 0 1 0 1.262H3.628zm11.796 5.37l-2.516 1.453a1.153 1.153 0 0 1-1.73-.999V11.83c0-.887.963-1.442 1.73-.997l2.515 1.452a1.153 1.153 0 0 1 0 1.997zm-.794-.999l-2.19-1.263v2.528l2.19-1.265zm-.254-4.806a.63.63 0 0 1-1.262 0V2.208a.95.95 0 0 0-.946-.946h-9.96a.95.95 0 0 0-.946.946v9.96a.95.95 0 0 0 .946.946h6.479a.63.63 0 0 1 0 1.262h-6.48A2.212 2.212 0 0 1 0 12.168v-9.96C0 .992.992 0 2.208 0h9.96c1.216 0 2.208.992 2.208 2.208v6.268z"/>
</svg>
