<svg xmlns="http://www.w3.org/2000/svg" viewBox="0 0 16 16">
    <path fill="#000" fill-rule="evenodd" d="M4.978 8.889H2.133A2.14 2.14 0 0 0 0 11.022v2.845A2.14 2.14 0 0 0 2.133 16h2.845a2.14 2.14 0 0 0 2.133-2.133v-2.845a2.14 2.14 0 0 0-2.133-2.133m0 1.28c.463 0 .853.39.853.853v2.845c0 .462-.39.853-.853.853H2.133a.866.866 0 0 1-.853-.853v-2.845c0-.463.391-.853.853-.853h2.845m8.893-1.28h-2.845a2.14 2.14 0 0 0-2.133 2.133v2.845A2.14 2.14 0 0 0 11.026 16h2.845a2.14 2.14 0 0 0 2.133-2.133v-2.845a2.14 2.14 0 0 0-2.133-2.133m0 1.28c.463 0 .853.39.853.853v2.845c0 .462-.39.853-.853.853h-2.845a.866.866 0 0 1-.853-.853v-2.845c0-.463.391-.853.853-.853h2.845M4.979 0H2.134A2.14 2.14 0 0 0 0 2.133v2.845a2.14 2.14 0 0 0 2.133 2.133h2.845a2.14 2.14 0 0 0 2.133-2.133V2.133A2.14 2.14 0 0 0 4.979 0m0 1.28c.462 0 .853.39.853.853v2.845c0 .462-.39.853-.853.853H2.134a.866.866 0 0 1-.853-.853V2.133c0-.463.391-.853.853-.853h2.845M13.872 0h-2.845a2.14 2.14 0 0 0-2.133 2.133v2.845a2.14 2.14 0 0 0 2.133 2.133h2.845a2.14 2.14 0 0 0 2.133-2.133V2.133A2.14 2.14 0 0 0 13.872 0m0 1.28c.463 0 .853.39.853.853v2.845c0 .462-.39.853-.853.853h-2.845a.866.866 0 0 1-.853-.853V2.133c0-.463.391-.853.853-.853h2.845"/>
</svg>
