<svg xmlns="http://www.w3.org/2000/svg" viewBox="0 0 16 16">
    <path fill="#000" fill-rule="evenodd" d="M4.667 8.333H2c-1.1 0-2 .9-2 2V13c0 1.1.9 2 2 2h2.667c1.1 0 2-.9 2-2v-2.667c0-1.1-.9-2-2-2m0 1.2c.434 0 .8.366.8.8V13a.81.81 0 0 1-.8.8H2a.812.812 0 0 1-.8-.8v-2.667c0-.434.367-.8.8-.8h2.667m8.337-1.2h-2.667c-1.1 0-2 .9-2 2V13c0 1.1.9 2 2 2h2.667c1.1 0 2-.9 2-2v-2.667c0-1.1-.9-2-2-2m0 1.2c.434 0 .8.366.8.8V13a.81.81 0 0 1-.8.8h-2.667a.812.812 0 0 1-.8-.8v-2.667c0-.434.367-.8.8-.8h2.667M4.668 0H2C.9 0 0 .9 0 2v2.667c0 1.1.9 2 2 2h2.667c1.1 0 2-.9 2-2V2c0-1.1-.9-2-2-2m0 1.2c.433 0 .8.366.8.8v2.667a.81.81 0 0 1-.8.8H2a.812.812 0 0 1-.8-.8V2c0-.434.366-.8.8-.8h2.667M13.005 0h-2.667c-1.1 0-2 .9-2 2v2.667c0 1.1.9 2 2 2h2.667c1.1 0 2-.9 2-2V2c0-1.1-.9-2-2-2m0 1.2c.434 0 .8.366.8.8v2.667a.81.81 0 0 1-.8.8h-2.667a.812.812 0 0 1-.8-.8V2c0-.434.367-.8.8-.8h2.667"/>
</svg>
