<svg xmlns="http://www.w3.org/2000/svg" viewBox="0 0 20 20">
    <path fill="#000" fill-rule="evenodd" d="M12.8347849,13.8913043 L10.8494908,8.02173913 C10.7833143,7.76086957 10.5186084,7.56521739 10.2539025,7.56521739 L7.6068437,7.56521739 C7.34213782,7.56521739 7.07743194,7.76086957 7.01125547,8.02173913 L5.02596135,13.8913043 C4.95978488,14.1521739 5.02596135,14.4130435 5.15831429,14.5434783 L8.46713782,17.8043478 C8.59949076,17.9347826 8.79802017,18 8.93037311,18 C9.06272606,18 9.26125547,17.9347826 9.39360841,17.8043478 L12.7024319,14.5434783 C12.9009614,14.3478261 12.9671378,14.0869565 12.8347849,13.8913043 L12.8347849,13.8913043 L12.8347849,13.8913043 Z M15.4156672,10.4347826 L12.7024319,7.5 C12.4377261,7.23913043 12.0406672,7.5 12.1730202,7.82608696 L13.8274319,12.3913043 C13.8936084,12.6521739 14.2244908,12.7173913 14.3568437,12.5217391 L15.4156672,11.2826087 C15.6141966,11.0217391 15.6141966,10.6304348 15.4156672,10.4347826 L15.4156672,10.4347826 L15.4156672,10.4347826 Z M7.07743194,6 C7.20978488,6.13043478 7.40831429,6.26086957 7.6068437,6.26086957 L10.2539025,6.26086957 C10.4524319,6.26086957 10.6509614,6.13043478 10.7833143,6 L12.1068437,4.04347826 C12.2391966,3.84782609 12.2391966,3.58695652 12.1068437,3.39130435 C12.0406672,3.13043478 11.8421378,3 11.5774319,3 L6.28331429,3 C6.01860841,3 5.820079,3.13043478 5.68772606,3.32608696 C5.55537311,3.52173913 5.55537311,3.7826087 5.68772606,3.97826087 L7.07743194,6 L7.07743194,6 L7.07743194,6 Z"/>
</svg>
