<svg xmlns="http://www.w3.org/2000/svg" viewBox="0 0 16 16">
    <path d="M3.5 11a2 2 0 1 1 0 4 2 2 0 0 1 0-4zm0 1.2a.8.8 0 1 0 0 1.6.8.8 0 0 0 0-1.6zm10.935.177c.291 0 .527.28.527.625s-.236.625-.527.625H7.55c-.291 0-.527-.28-.527-.625s.236-.625.527-.625h6.885zM3.5 6a2 2 0 1 1 0 4 2 2 0 0 1 0-4zm0 1.2a.8.8 0 1 0 0 1.6.8.8 0 0 0 0-1.6zm10.935.173c.291 0 .527.28.527.625s-.236.625-.527.625H7.55c-.291 0-.527-.28-.527-.625s.236-.625.527-.625h6.885zm-8.607-6.1a.684.684 0 0 1 0 .946L3.713 4.392a.62.62 0 0 1-.892 0l-1.14-1.17a.684.684 0 0 1 0-.946.616.616 0 0 1 .892 0l.694.714 1.67-1.716a.616.616 0 0 1 .89 0zm8.607 1.1c.291 0 .527.28.527.624 0 .345-.236.625-.527.625H7.55c-.291 0-.527-.28-.527-.625s.236-.625.527-.625h6.885z"/>
</svg>
