<svg xmlns="http://www.w3.org/2000/svg" viewBox="0 0 16 16">
    <path d="M14.435 13.627H7.55c-.291 0-.527-.28-.527-.625s.236-.625.527-.625h6.885c.291 0 .527.28.527.625s-.236.625-.527.625m0-5.004H7.55c-.291 0-.527-.28-.527-.625s.236-.625.527-.625h6.885c.291 0 .527.28.527.625s-.236.625-.527.625M3.267 2.99l1.67-1.716a.616.616 0 0 1 .89 0 .684.684 0 0 1 0 .945L3.714 4.392a.62.62 0 0 1-.892 0l-1.14-1.17a.684.684 0 0 1 0-.946.616.616 0 0 1 .892 0l.694.714zm11.168.632H7.55c-.291 0-.527-.28-.527-.625s.236-.625.527-.625h6.885c.291 0 .527.28.527.625s-.236.625-.527.625M3.5 6a2 2 0 1 1 0 4 2 2 0 0 1 0-4zm0 1.2a.8.8 0 1 0 0 1.6.8.8 0 0 0 0-1.6zm0 3.8a2 2 0 1 1 0 4 2 2 0 0 1 0-4zm0 1.2a.8.8 0 1 0 0 1.6.8.8 0 0 0 0-1.6z"/>
</svg>
