<?xml version="1.0" encoding="UTF-8"?>
<svg width="16px" height="16px" viewBox="0 0 16 16" version="1.1" xmlns="http://www.w3.org/2000/svg" xmlns:xlink="http://www.w3.org/1999/xlink">
    <!-- Generator: sketchtool 51.3 (57544) - http://www.bohemiancoding.com/sketch -->
    <title>top-up</title>
    <desc>Created with sketchtool.</desc>
    <defs></defs>
    <g id="Icons" stroke="none" stroke-width="1" fill="none" fill-rule="evenodd">
        <g id="Operation" transform="translate(-164.000000, -236.000000)" fill="#000000">
            <g id="arrow/top-up" transform="translate(164.000000, 236.000000)">
                <path d="M13.9866294,16.1876 L2.6416294,16.1876 C2.3106294,16.1876 2.0416294,15.9186 2.0416294,15.5876 C2.0416294,15.2566 2.3106294,14.9886 2.6416294,14.9886 L13.9866294,14.9886 C14.3186294,14.9886 14.5866294,15.2566 14.5866294,15.5876 C14.5866294,15.9186 14.3186294,16.1876 13.9866294,16.1876 M10.4573294,13.33 L6.1713294,13.33 C5.8393294,13.33 5.5713294,13.062 5.5713294,12.731 L5.5713294,8.331 L2.6003294,8.331 C2.3693294,8.331 2.1593294,8.199 2.0593294,7.991 C1.9593294,7.783 1.9873294,7.536 2.1313294,7.356 L7.8453294,0.213 C8.0743294,-0.071 8.5543294,-0.071 8.7833294,0.213 L14.4973294,7.356 C14.6413294,7.536 14.6693294,7.783 14.5693294,7.991 C14.4693294,8.199 14.2593294,8.331 14.0283294,8.331 L11.0573294,8.331 L11.0573294,12.731 C11.0573294,13.062 10.7883294,13.33 10.4573294,13.33 M6.7713294,12.131 L9.8563294,12.131 L9.8563294,7.731 C9.8563294,7.4 10.1253294,7.131 10.4573294,7.131 L12.7803294,7.131 L8.3143294,1.548 L3.8483294,7.131 L6.1713294,7.131 C6.5023294,7.131 6.7713294,7.4 6.7713294,7.731 L6.7713294,12.131" id="Shape"></path>
            </g>
        </g>
    </g>
</svg>