<svg xmlns="http://www.w3.org/2000/svg" viewBox="0 0 16 16">
    <path d="M7.003 9.942a.601.601 0 0 0 0-.85L4.521 6.612a.601.601 0 0 0-.849.849l1.459 1.459H.6a.6.6 0 1 0 0 1.2h4.529l-1.457 1.456a.6.6 0 1 0 .849.848l2.482-2.481zm7.797.422a.81.81 0 0 1-.8.8h-.841V5.841c0-1.1-.9-2-2-2H5.836V3c0-.434.366-.8.8-.8H14c.434 0 .8.366.8.8v7.364zM14 1H6.636c-1.1 0-2 .9-2 2v.841h-.841c-1.1 0-2 .9-2 2V7.2c0 .33.27.6.6.6.33 0 .6-.27.6-.6V5.841c0-.434.366-.8.8-.8h7.364c.434 0 .8.366.8.8v7.364a.81.81 0 0 1-.8.8H3.795a.81.81 0 0 1-.8-.8v-1.31a.62.62 0 0 0-.6-.634.62.62 0 0 0-.6.634v1.31c0 1.1.9 2 2 2h7.364c1.1 0 2-.9 2-2v-.841h.84c1.1 0 2-.9 2-2V3c0-1.1-.9-2-2-2z"/>
</svg>
