<svg xmlns="http://www.w3.org/2000/svg" viewBox="0 0 20 20">
    <path fill="#000" fill-rule="evenodd" d="M17.4 4.726h-4.498V3.96c0-1.08-.88-1.96-1.96-1.96H9.058c-1.081 0-1.96.88-1.96 1.96v.766H2.6a.6.6 0 0 0 0 1.201h1.296L5.786 16.7c.05.287.299.496.591.496h7.246a.6.6 0 0 0 .591-.496l1.89-10.773H17.4a.6.6 0 0 0 0-1.201M5.114 5.927h2.025l.727 10.07h-.985L5.114 5.927m3.955 10.07l-.726-10.07h3.314l-.726 10.07H9.069m4.05 0h-.985l.726-10.07h2.026l-1.767 10.07M9.058 3.201h1.884c.419 0 .76.34.76.759v.766H8.298V3.96a.76.76 0 0 1 .76-.759"/>
</svg>
