<svg xmlns="http://www.w3.org/2000/svg" viewBox="0 0 16 16">
    <path d="M15.4 2.726h-4.498V1.96c0-1.08-.88-1.96-1.96-1.96H7.058c-1.081 0-1.96.88-1.96 1.96v.766H.6a.6.6 0 0 0 0 1.201h1.296L3.786 14.7c.05.287.299.496.591.496h7.246a.6.6 0 0 0 .591-.496l1.89-10.773H15.4a.6.6 0 0 0 0-1.201M3.114 3.927h2.025l.727 10.07h-.985L3.114 3.927m3.955 10.07l-.726-10.07h3.314l-.726 10.07H7.069m4.05 0h-.985l.726-10.07h2.026l-1.767 10.07M7.058 1.201h1.884c.419 0 .76.34.76.759v.766H6.298V1.96a.76.76 0 0 1 .76-.759"/>
</svg>
