<svg xmlns="http://www.w3.org/2000/svg" viewBox="0 0 20 20">
    <path fill="#000" fill-rule="evenodd" d="M17.893 14.375l-4.517-6.498a.598.598 0 0 0-.985 0l-.35.503-2.39-3.44c-.226-.324-.762-.324-.986 0l-6.558 9.435a.603.603 0 0 0-.039.621.602.602 0 0 0 .532.321h14.8a.602.602 0 0 0 .532-.32.603.603 0 0 0-.039-.622m-9.02-7.633l1.212 4.453-2.032 2.923H3.748l5.125-7.376M10.98 9.91l-.427-1.57.76 1.092-.333.478m1.634-.249l1.213 4.458h-4.31l3.097-4.458m2.457 4.458l-.76-2.797 1.942 2.797H15.07"/>
</svg>
