<svg xmlns="http://www.w3.org/2000/svg" viewBox="0 0 20 20">
    <path fill="#000" fill-rule="evenodd" d="M17.4 9.409a.6.6 0 0 0-.601.6A6.808 6.808 0 0 1 10 16.801h-.009A6.81 6.81 0 0 1 5.197 5.185 6.758 6.758 0 0 1 9.999 3.2h.009a6.73 6.73 0 0 1 5.164 2.403l-2.268-.004h-.001a.6.6 0 0 0-.001 1.201l3.45.004h.001a.6.6 0 0 0 .6-.599l.005-3.449a.6.6 0 1 0-1.201-.002l-.002 1.691A7.919 7.919 0 0 0 10.01 2h-.011A7.944 7.944 0 0 0 4.35 4.336 8.01 8.01 0 0 0 9.99 18h.009A8.01 8.01 0 0 0 18 10.01a.6.6 0 0 0-.6-.601z"/>
</svg>
