<svg xmlns="http://www.w3.org/2000/svg" viewBox="0 0 16 16">
    <path d="M14.156 4.061c.125-.062.25-.187.344-.28a3.23 3.23 0 0 0 1.063-1.531l-.407.219a4.679 4.679 0 0 1-1.687.562A3.503 3.503 0 0 0 10.875 2l-.406.063c-.25.062-.5.124-.719.218a3.172 3.172 0 0 0-1.844 2.217 2.823 2.823 0 0 0-.031 1.53 6.98 6.98 0 0 1-1.469-.187 9.583 9.583 0 0 1-4-1.936 5.73 5.73 0 0 1-1-.937c-.094-.125-.218-.218-.281-.343h-.031a5.26 5.26 0 0 0-.344.843c-.313 1.249.187 2.28.75 2.967.156.218.437.343.594.53-.125.063-.313 0-.438-.03-.25-.063-.906-.313-1.031-.344A3.18 3.18 0 0 0 2.188 9.4c.28.157.656.407 1.062.407-.219.187-1.156.093-1.469.062.407 1.03 1.031 1.749 2.094 2.124.281.094.594.156.969.156-.188.25-.625.437-.875.593-.594.313-3.657.781-3.969.781.094.031.188.094.281.156.313.188.594.344.938.5.593.25 1.218.437 1.937.625 1.407.343 3.407.187 4.625-.188 3.438-1.093 5.625-3.591 6.438-7.276.156-.625.156-1.343.156-2.093l.5-.406A4.885 4.885 0 0 0 16 3.562c-.563.156-1.156.5-1.844.5z"/>
</svg>
