<?xml version="1.0" encoding="UTF-8"?>
<svg width="16px" height="16px" viewBox="0 0 16 16" version="1.1" xmlns="http://www.w3.org/2000/svg" xmlns:xlink="http://www.w3.org/1999/xlink">
    <!-- Generator: sketchtool 51.3 (57544) - http://www.bohemiancoding.com/sketch -->
    <title>list/ul-sort</title>
    <desc>Created with sketchtool.</desc>
    <defs></defs>
    <g id="Icons" stroke="none" stroke-width="1" fill="none" fill-rule="evenodd">
        <g id="Web" transform="translate(-148.000000, -1858.000000)" fill="#000000">
            <g id="list/ul-sort" transform="translate(148.000000, 1858.000000)">
                <path d="M2.83629273,14.0426996 C2.83629273,14.8262254 2.20167223,15.4608459 1.41814636,15.4608459 C0.634620498,15.4608459 0,14.8262254 0,14.0426996 C0,13.2591737 0.634620498,12.6245532 1.41814636,12.6245532 C2.20167223,12.6245532 2.83629273,13.2591737 2.83629273,14.0426996 M5.60392354,14.7514182 C5.2127515,14.7514182 4.89485036,14.4335171 4.89485036,14.042345 C4.89485036,13.651173 5.2127515,13.3344536 5.60392354,13.3344536 L11.7161344,13.3344536 C12.1084882,13.3344536 12.4252076,13.651173 12.4252076,14.042345 C12.4252076,14.4335171 12.1084882,14.7514182 11.7161344,14.7514182 L5.60392354,14.7514182 M2.86583744,8.12808381 C2.86583744,8.91160968 2.23121695,9.54623017 1.44769108,9.54623017 C0.664165214,9.54623017 0.0295447159,8.91160968 0.0295447159,8.12808381 C0.0295447159,7.34455794 0.664165214,6.70993744 1.44769108,6.70993744 C2.23121695,6.70993744 2.86583744,7.34455794 2.86583744,8.12808381 M5.63335008,8.83727517 C5.24217804,8.83727517 4.92427689,8.51937403 4.92427689,8.12820199 C4.92427689,7.73584816 5.24217804,7.41912881 5.63335008,7.41912881 L12.9273495,7.41912881 C13.3197034,7.41912881 13.6364227,7.73584816 13.6364227,8.12820199 C13.6364227,8.51937403 13.3197034,8.83727517 12.9273495,8.83727517 L5.63335008,8.83727517 M2.86583744,2.21819519 C2.86583744,3.00172106 2.23121695,3.63634156 1.44769108,3.63634156 C0.664165214,3.63634156 0.0295447159,3.00172106 0.0295447159,2.21819519 C0.0295447159,1.43466933 0.664165214,0.800048828 1.44769108,0.800048828 C2.23121695,0.800048828 2.86583744,1.43466933 2.86583744,2.21819519 M15.2909268,2.92726837 L5.63335008,2.92726837 C5.24217804,2.92726837 4.92427689,2.60936723 4.92427689,2.21819519 C4.92427689,1.82584137 5.24217804,1.50912201 5.63335008,1.50912201 L15.2909268,1.50912201 C15.6832806,1.50912201 16,1.82584137 16,2.21819519 C16,2.60936723 15.6832806,2.92726837 15.2909268,2.92726837" id="Shape"></path>
            </g>
        </g>
    </g>
</svg>