<svg xmlns="http://www.w3.org/2000/svg" viewBox="0 0 16 16">
    <path fill="#000" fill-rule="evenodd" d="M2.836 14.043a1.418 1.418 0 1 1-2.835 0 1.418 1.418 0 0 1 2.835 0m12.426.708H5.604a.71.71 0 0 1 0-1.417h9.658a.708.708 0 1 1 0 1.417M2.866 8.128a1.418 1.418 0 1 1-2.836 0 1.418 1.418 0 0 1 2.836 0m12.425.71H5.633a.71.71 0 0 1 0-1.419h9.658a.708.708 0 1 1 0 1.418M2.866 2.218A1.418 1.418 0 1 1 .03 2.22a1.418 1.418 0 0 1 2.836 0m12.425.708H5.633a.71.71 0 0 1 0-1.418h9.658a.708.708 0 1 1 0 1.418"/>
</svg>
