<svg xmlns="http://www.w3.org/2000/svg" viewBox="0 0 16 16">
    <path fill="#000" fill-rule="evenodd" d="M.572 4.651A.572.572 0 0 1 0 4.08V.813C0 .497.256.24.572.24h14.856c.316 0 .572.256.572.572v3.266a.572.572 0 0 1-.572.572h-.615v10.536a.572.572 0 0 1-.572.572H1.759a.572.572 0 0 1-.573-.572V4.651H.572m13.097 9.974V4.65H2.33v9.964M1.195 1.385v2.122h13.66V1.385M7.429 8.628l-.952.953a.572.572 0 0 1-.81-.81l1.93-1.928a.572.572 0 0 1 .809 0l1.929 1.928a.572.572 0 0 1-.81.81l-.952-.953v2.687a.572.572 0 0 1-1.144 0V8.628"/>
</svg>
