<svg xmlns="http://www.w3.org/2000/svg" viewBox="0 0 16 16">
    <path fill="#000" fill-rule="evenodd" d="M.6 16.001a.599.599 0 0 1-.588-.722l.606-2.946a.617.617 0 0 1 .05-.146c.255-.51.69-.897 1.228-1.089l3.62-1.291a.263.263 0 0 0 .175-.247v-.528a1.06 1.06 0 0 0-.387-.82 3.757 3.757 0 0 1-1.382-2.905V3.789a3.794 3.794 0 0 1 7.579 0v1.518a3.766 3.766 0 0 1-1.373 2.899c-.25.207-.394.512-.394.837v.518c0 .11.07.21.174.247a.599.599 0 1 1-.403 1.13 1.466 1.466 0 0 1-.971-1.377v-.518c0-.683.302-1.325.828-1.761a2.567 2.567 0 0 0 .939-1.975V3.789a2.591 2.591 0 0 0-5.18 0v1.518c0 .763.346 1.485.946 1.98.524.431.824 1.067.824 1.745v.528c0 .616-.39 1.17-.971 1.377l-3.621 1.292a.99.99 0 0 0-.523.432l-.588 2.861a.6.6 0 0 1-.587.479m13.783-.701a.7.7 0 1 1-1.4.001.7.7 0 0 1 1.4-.001m-1.3-1.846v-.25c0-.638.379-1.216.965-1.472a.915.915 0 0 0-.365-1.748.91.91 0 0 0-.808.488.6.6 0 1 1-1.063-.558 2.11 2.11 0 1 1 2.716 2.917.41.41 0 0 0-.245.374v.249c0 .33-.272.6-.6.6-.498 0-.6-.6-.6-.6z"/>
</svg>
