<?xml version="1.0" encoding="UTF-8" standalone="no"?>
<svg width="20px" height="20px" viewBox="0 0 20 20" version="1.1" xmlns="http://www.w3.org/2000/svg" xmlns:xlink="http://www.w3.org/1999/xlink">
    <defs></defs>
    <g id="Icons" stroke="none" stroke-width="1" fill="none" fill-rule="evenodd">
        <g id="Web" transform="translate(-481.000000, -1418.000000)" fill="#000000">
            <g id="editor/underline" transform="translate(481.000000, 1418.000000)">
                <path d="M4.6,15.8 L15.2599731,15.8 C15.591344,15.8 15.8599731,15.5313708 15.8599731,15.2 C15.8599731,14.8686292 15.591344,14.6 15.2599731,14.6 L4.6,14.6 C4.26862915,14.6 4,14.8686292 4,15.2 C4,15.5313708 4.26862915,15.8 4.6,15.8 L4.6,15.8 M12.7204969,5.2 L12.7204969,9.92919255 C12.7204969,11.4707858 11.4707906,12.720492 9.92919739,12.720492 C8.38759569,12.720492 7.1378882,11.470787 7.1378882,9.92919255 L7.1378882,5.2 L7.5068323,5.2 L7.5068323,4 L5.5689441,4 L5.5689441,5.2 L5.9378882,5.2 L5.9378882,9.92919255 C5.9378882,12.1335293 7.72485452,13.920492 9.92919739,13.920492 C12.1335323,13.920492 13.9204969,12.1335275 13.9204969,9.92919255 L13.9204969,5.2 L14.289441,5.2 L14.289441,4 L12.3515528,4 L12.3515528,5.2 L12.7204969,5.2 L12.7204969,5.2" id="Shape"></path>
            </g>
        </g>
    </g>
</svg>