<?xml version="1.0" encoding="UTF-8"?>
<svg width="16px" height="16px" viewBox="0 0 16 16" version="1.1" xmlns="http://www.w3.org/2000/svg" xmlns:xlink="http://www.w3.org/1999/xlink">
    <!-- Generator: sketchtool 51.3 (57544) - http://www.bohemiancoding.com/sketch -->
    <title>editor/unordered-list-s</title>
    <desc>Created with sketchtool.</desc>
    <defs></defs>
    <g id="Icons" stroke="none" stroke-width="1" fill="none" fill-rule="evenodd">
        <g id="Web" transform="translate(-624.000000, -1423.000000)" fill="#000000">
            <g id="editor/unordered-list-s" transform="translate(624.000000, 1423.000000)">
                <path d="M3.6,12.9056 C3.6,13.5686 3.063,14.1056 2.4,14.1056 C1.737,14.1056 1.2,13.5686 1.2,12.9056 C1.2,12.2426 1.737,11.7056 2.4,11.7056 C3.063,11.7056 3.6,12.2426 3.6,12.9056 Z M14.1139,13.5053 L5.9419,13.5053 C5.6109,13.5053 5.3419,13.2363 5.3419,12.9053 C5.3419,12.5743 5.6109,12.3063 5.9419,12.3063 L14.1139,12.3063 C14.4459,12.3063 14.7139,12.5743 14.7139,12.9053 C14.7139,13.2363 14.4459,13.5053 14.1139,13.5053 Z M3.625,7.9008 C3.625,8.5638 3.088,9.1008 2.425,9.1008 C1.762,9.1008 1.225,8.5638 1.225,7.9008 C1.225,7.2378 1.762,6.7008 2.425,6.7008 C3.088,6.7008 3.625,7.2378 3.625,7.9008 Z M14.1388,8.5009 L5.9668,8.5009 C5.6358,8.5009 5.3668,8.2319 5.3668,7.9009 C5.3668,7.5689 5.6358,7.3009 5.9668,7.3009 L14.1388,7.3009 C14.4708,7.3009 14.7388,7.5689 14.7388,7.9009 C14.7388,8.2319 14.4708,8.5009 14.1388,8.5009 Z M3.625,2.9 C3.625,3.563 3.088,4.1 2.425,4.1 C1.762,4.1 1.225,3.563 1.225,2.9 C1.225,2.237 1.762,1.7 2.425,1.7 C3.088,1.7 3.625,2.237 3.625,2.9 Z M14.1388,3.5 L5.9668,3.5 C5.6358,3.5 5.3668,3.231 5.3668,2.9 C5.3668,2.568 5.6358,2.3 5.9668,2.3 L14.1388,2.3 C14.4708,2.3 14.7388,2.568 14.7388,2.9 C14.7388,3.231 14.4708,3.5 14.1388,3.5 Z" id="unordered-list-s"></path>
            </g>
        </g>
    </g>
</svg>