<?xml version="1.0" encoding="UTF-8" standalone="no"?>
<svg width="20px" height="20px" viewBox="0 0 20 20" version="1.1" xmlns="http://www.w3.org/2000/svg" xmlns:xlink="http://www.w3.org/1999/xlink">
    <defs></defs>
    <g id="Icons" stroke="none" stroke-width="1" fill="none" fill-rule="evenodd">
        <g id="Web" transform="translate(-529.000000, -1418.000000)" fill="#000000">
            <g id="editor/unordered-list" transform="translate(529.000000, 1418.000000)">
                <path d="M5.7,12.8 C4.76142915,12.8 4,13.5614292 4,14.5 C4,15.4385708 4.76142915,16.2 5.7,16.2 C6.63857085,16.2 7.4,15.4385708 7.4,14.5 C7.4,13.5614292 6.63857085,12.8 5.7,12.8 M5.7,14 C5.97582915,14 6.2,14.2241708 6.2,14.5 C6.2,14.7758292 5.97582915,15 5.7,15 C5.42417085,15 5.2,14.7758292 5.2,14.5 C5.2,14.2241708 5.42417085,14 5.7,14 M9.81428571,15.2 L16.3142857,15.2 C16.6456566,15.2 16.9142857,14.9313708 16.9142857,14.6 C16.9142857,14.2686292 16.6456566,14 16.3142857,14 L9.81428571,14 C9.48291486,14 9.21428571,14.2686292 9.21428571,14.6 C9.21428571,14.9313708 9.48291486,15.2 9.81428571,15.2 M5.7,8.4 C4.76142915,8.4 4,9.16142915 4,10.1 C4,11.0385708 4.76142915,11.8 5.7,11.8 C6.63857085,11.8 7.4,11.0385708 7.4,10.1 C7.4,9.16142915 6.63857085,8.4 5.7,8.4 M5.7,9.6 C5.97582915,9.6 6.2,9.82417085 6.2,10.1 C6.2,10.3758292 5.97582915,10.6 5.7,10.6 C5.42417085,10.6 5.2,10.3758292 5.2,10.1 C5.2,9.82417085 5.42417085,9.6 5.7,9.6 M9.81428571,10.6000006 L16.3142857,10.6000006 C16.6456566,10.6000006 16.9142857,10.3313714 16.9142857,10.0000006 C16.9142857,9.66862972 16.6456566,9.40000057 16.3142857,9.40000057 L9.81428571,9.40000057 C9.48291486,9.40000057 9.21428571,9.66862972 9.21428571,10.0000006 C9.21428571,10.3313714 9.48291486,10.6000006 9.81428571,10.6000006 M5.7,4 C4.76142915,4 4,4.76142915 4,5.7 C4,6.63857085 4.76142915,7.4 5.7,7.4 C6.63857085,7.4 7.4,6.63857085 7.4,5.7 C7.4,4.76142915 6.63857085,4 5.7,4 M5.7,5.2 C5.97582915,5.2 6.2,5.42417085 6.2,5.7 C6.2,5.97582915 5.97582915,6.2 5.7,6.2 C5.42417085,6.2 5.2,5.97582915 5.2,5.7 C5.2,5.42417085 5.42417085,5.2 5.7,5.2 M9.81428571,6.2 L16.3142857,6.2 C16.6456566,6.2 16.9142857,5.93137085 16.9142857,5.6 C16.9142857,5.26862915 16.6456566,5 16.3142857,5 L9.81428571,5 C9.48291486,5 9.21428571,5.26862915 9.21428571,5.6 C9.21428571,5.93137085 9.48291486,6.2 9.81428571,6.2" id="Shape"></path>
            </g>
        </g>
    </g>
</svg>