<svg xmlns="http://www.w3.org/2000/svg" viewBox="0 0 16 16">
    <path d="M2.836 14.043a1.418 1.418 0 1 1-2.835 0 1.418 1.418 0 0 1 2.835 0m12.426.591H5.604c-.391 0-.71-.291-.71-.65 0-.359.319-.65.71-.65h9.658c.392 0 .709.291.709.65 0 .359-.317.65-.71.65M2.867 8.128a1.418 1.418 0 1 1-2.836 0 1.418 1.418 0 0 1 2.836 0m12.425.591H5.633c-.39 0-.709-.291-.709-.65 0-.36.318-.65.71-.65h9.657c.392 0 .709.29.709.65 0 .359-.317.65-.71.65M2.867 2.22a1.418 1.418 0 1 1-2.836 0 1.418 1.418 0 0 1 2.836 0m12.425.59H5.633c-.39 0-.709-.291-.709-.65 0-.36.318-.65.71-.65h9.657c.392 0 .709.29.709.65 0 .359-.317.65-.71.65"/>
</svg>
