<svg xmlns="http://www.w3.org/2000/svg" viewBox="0 0 16 16">
    <path d="M2.106 11.403a2.107 2.107 0 1 0 .001 4.213 2.107 2.107 0 0 0 0-4.213m0 1.486a.62.62 0 1 1-.002 1.24.62.62 0 0 1 .001-1.24m5.098 1.487h8.053a.743.743 0 0 0 0-1.487H7.204a.743.743 0 0 0 0 1.487M2.106 5.951a2.107 2.107 0 1 0 .001 4.214 2.107 2.107 0 0 0 0-4.214m0 1.487a.62.62 0 1 1-.002 1.24.62.62 0 0 1 .001-1.24m5.098 1.239h8.053a.743.743 0 0 0 0-1.487H7.204a.743.743 0 1 0 0 1.487M2.106.5a2.107 2.107 0 1 0 .001 4.213 2.107 2.107 0 0 0 0-4.213m0 1.487a.62.62 0 1 1-.002 1.24.62.62 0 0 1 .001-1.24m5.098 1.239h8.053a.743.743 0 0 0 0-1.487H7.204a.743.743 0 0 0 0 1.487"/>
</svg>
