<svg xmlns="http://www.w3.org/2000/svg" viewBox="0 0 20 20">
    <path fill="#000" fill-rule="evenodd" d="M5.7 12.8a1.7 1.7 0 1 0 0 3.4 1.7 1.7 0 0 0 0-3.4m0 1.2a.5.5 0 1 1 0 1 .5.5 0 0 1 0-1m4.114 1.2h6.5a.6.6 0 1 0 0-1.2h-6.5a.6.6 0 0 0 0 1.2M5.7 8.4a1.7 1.7 0 1 0 0 3.4 1.7 1.7 0 0 0 0-3.4m0 1.2a.5.5 0 1 1 0 1 .5.5 0 0 1 0-1m4.114 1h6.5a.6.6 0 1 0 0-1.2h-6.5a.6.6 0 0 0 0 1.2M5.7 4a1.7 1.7 0 1 0 0 3.4 1.7 1.7 0 0 0 0-3.4m0 1.2a.5.5 0 1 1 0 1 .5.5 0 0 1 0-1m4.114 1h6.5a.6.6 0 1 0 0-1.2h-6.5a.6.6 0 1 0 0 1.2"/>
</svg>
