<svg xmlns="http://www.w3.org/2000/svg" viewBox="0 0 16 16">
    <path d="M7.96.3a1.5 1.5 0 0 1 1.327 2.2 5.292 5.292 0 0 1 3.928 5.143v3.922c0 .9.208 1.535.598 1.933a.6.6 0 0 1-.428 1.02h-3.75a2.06 2.06 0 0 1-1.883 1.247 2.06 2.06 0 0 1-1.883-1.247H2.615a.6.6 0 0 1-.428-1.02c.39-.398.598-1.032.598-1.933a.6.6 0 0 1 1.2 0c0 .666-.096 1.252-.292 1.753h8.614a4.808 4.808 0 0 1-.292-1.753V7.643c0-2.27-1.8-4.106-4.015-4.106-.494 0-.975.091-1.426.267a.6.6 0 1 1-.435-1.119c.166-.064.334-.12.505-.167A1.5 1.5 0 0 1 7.96.3zM8.167 7a1 1 0 1 1 0 2 1 1 0 0 1 0-2zM4.833 7a1 1 0 1 1 0 2 1 1 0 0 1 0-2zM1.5 7a1 1 0 1 1 0 2 1 1 0 0 1 0-2z"/>
</svg>
