<?xml version="1.0" encoding="UTF-8" standalone="no"?>
<svg width="20px" height="20px" viewBox="0 0 20 20" version="1.1" xmlns="http://www.w3.org/2000/svg" xmlns:xlink="http://www.w3.org/1999/xlink">
    <defs></defs>
    <g id="Icons" stroke="none" stroke-width="1" fill="none" fill-rule="evenodd">
        <g id="Web" transform="translate(-433.000000, -792.000000)" fill="#000000">
            <g id="arrow/upload" transform="translate(433.000000, 792.000000)">
                <path d="M10,2 C5.582,2 2,5.582 2,10 C2,14.418 5.582,18 10,18 C14.418,18 18,14.418 18,10 C18,5.582 14.418,2 10,2 L10,2 M10.5998,13.5144 C10.5998,13.8464 10.3308,14.1144 9.9998,14.1144 C9.6678,14.1144 9.3998,13.8464 9.3998,13.5144 L9.3998,7.9334 L7.0908,10.2424 C6.8568,10.4764 6.4758,10.4764 6.2428,10.2424 C6.1258,10.1254 6.0668,9.9714 6.0668,9.8184 C6.0668,9.6644 6.1258,9.5114 6.2428,9.3934 L9.5758,6.0604 C9.8098,5.8264 10.1898,5.8264 10.4238,6.0604 L13.7578,9.3934 C13.9918,9.6284 13.9918,10.0084 13.7578,10.2424 C13.5228,10.4764 13.1428,10.4764 12.9088,10.2424 L10.5998,7.9334" id="Shape"></path>
            </g>
        </g>
    </g>
</svg>