<svg xmlns="http://www.w3.org/2000/svg" viewBox="0 0 16 16">
    <path d="M1.2 12.076L5.9 7.11a.6.6 0 0 1 .86-.012l2.175 2.175 1.328-1.328a.6.6 0 0 1 .849 0l.662.661a.6.6 0 1 1-.849.849l-.237-.238-1.329 1.329a.6.6 0 0 1-.848 0L6.348 8.383l-4.364 4.61A.892.892 0 0 0 2.1 13h5.872a.6.6 0 0 1 0 1.2H2.1c-1.156 0-2.1-.944-2.1-2.1v-9C0 1.944.944 1 2.1 1h10c1.156 0 2.1.944 2.1 2.1v4.679a.6.6 0 0 1-1.2 0V3.1c0-.494-.406-.9-.9-.9h-10c-.494 0-.9.406-.9.9v8.976zM11.913 5a1.802 1.802 0 1 1-3.604-.004A1.802 1.802 0 0 1 11.913 5zm-1.2 0a.6.6 0 1 0-1.201.001.6.6 0 0 0 1.2-.001zm4.264 7.815l-.966-.967v3.551a.6.6 0 1 1-1.2 0v-3.551l-.967.967a.6.6 0 0 1-.848-.848l1.99-1.991a.595.595 0 0 1 .85 0l1.99 1.991a.6.6 0 1 1-.849.848z"/>
</svg>
