<svg xmlns="http://www.w3.org/2000/svg" viewBox="0 0 20 20">
    <path fill="#000" fill-rule="evenodd" d="M16.331 7.307l-4.838-4.838A1.6 1.6 0 0 0 10.361 2H5.6C4.72 2 4 2.72 4 3.6v12.8c0 .88.72 1.6 1.6 1.6h9.6c.88 0 1.6-.72 1.6-1.6V8.439a1.6 1.6 0 0 0-.469-1.132M15.2 16.8H5.6a.405.405 0 0 1-.4-.4V3.6c0-.217.183-.4.4-.4h4.401v3.883c0 .917.75 1.667 1.667 1.667H15.6v7.65c0 .217-.183.4-.4.4M11.201 3.874l3.676 3.676h-3.209a.473.473 0 0 1-.467-.467V3.874m-2.367 8.8l.966-.967v3.551a.6.6 0 1 0 1.2 0v-3.55l.967.966a.6.6 0 0 0 .848-.848l-1.99-1.99a.595.595 0 0 0-.85 0l-1.99 1.99a.6.6 0 1 0 .849.848"/>
</svg>
