<svg xmlns="http://www.w3.org/2000/svg" viewBox="0 0 16 16">
    <path d="M13.411 9.8c.16 0 .312.062.424.176l1.991 1.991a.6.6 0 1 1-.849.848l-.966-.967v3.551a.6.6 0 1 1-1.2 0v-3.551l-.967.967a.6.6 0 0 1-.848-.848l1.99-1.991a.595.595 0 0 1 .425-.176zM12.1 1c1.156 0 2.1.944 2.1 2.1v4.679a.6.6 0 0 1-1.2 0V3.1c0-.494-.406-.9-.9-.9h-10c-.494 0-.9.406-.9.9l-.001 8.976L5.9 7.11a.6.6 0 0 1 .86-.012l2.175 2.175 1.328-1.328a.6.6 0 0 1 .849 0l.662.661a.6.6 0 1 1-.849.849l-.237-.238-1.329 1.329a.6.6 0 0 1-.848 0L6.348 8.383l-4.363 4.61A.892.892 0 0 0 2.1 13h5.872a.6.6 0 0 1 0 1.2H2.1c-1.156 0-2.1-.944-2.1-2.1v-9C0 1.944.944 1 2.1 1h10zm-1.987 2.2a1.801 1.801 0 1 1-.003 3.603 1.801 1.801 0 0 1 .003-3.603zm0 1.2a.6.6 0 1 0 0 1.201.6.6 0 0 0 0-1.201z"/>
</svg>
