<svg xmlns="http://www.w3.org/2000/svg" viewBox="0 0 16 17">
    <path d="M.457 15.733a.57.57 0 0 1-.445-.675l.576-2.807a.588.588 0 0 1 .049-.14 2.084 2.084 0 0 1 1.169-1.037l3.45-1.23a.25.25 0 0 0 .166-.235v-.503a1.01 1.01 0 0 0-.369-.782 3.58 3.58 0 0 1-1.317-2.768V4.11a3.615 3.615 0 0 1 7.222 0v1.446A3.588 3.588 0 0 1 9.649 8.32a1.033 1.033 0 0 0-.375.797v.494c0 .104.067.2.166.235a.57.57 0 1 1-.384 1.077A1.397 1.397 0 0 1 8.13 9.61v-.494c0-.65.287-1.262.789-1.678a2.446 2.446 0 0 0 .894-1.882V4.11a2.47 2.47 0 0 0-4.934 0v1.446c0 .727.328 1.415.9 1.887.5.41.785 1.017.785 1.663v.503c0 .587-.371 1.114-.925 1.312l-3.45 1.23a.944.944 0 0 0-.498.412l-.56 2.726a.572.572 0 0 1-.675.444zm12.137-2.847a.558.558 0 0 0-.562-.553h-.525a1.775 1.775 0 0 1 2.797-.812.569.569 0 0 0 .79-.084.548.548 0 0 0-.085-.778 2.944 2.944 0 0 0-1.82-.631 2.885 2.885 0 0 0-2.906 2.858c0 .306.251.554.563.554h1.186c.31 0 .562-.248.562-.554zm2.844-.553H14.25a.558.558 0 0 0-.562.553c0 .305.252.553.562.553h.526a1.775 1.775 0 0 1-2.796.813.57.57 0 0 0-.791.084.548.548 0 0 0 .085.778c.514.407 1.16.63 1.82.63A2.886 2.886 0 0 0 16 12.887a.558.558 0 0 0-.562-.553"/>
</svg>
