<svg xmlns="http://www.w3.org/2000/svg" viewBox="0 0 16 16">
    <path d="M14.07 3.088c1.066 0 1.93.863 1.93 1.93v8.201a1.93 1.93 0 0 1-1.93 1.93H1.93A1.93 1.93 0 0 1 0 13.218V2.711C0 1.656.856.8 1.911.8h4.152c.617 0 1.16.405 1.322.95l.442 1.129c.038.125.151.21.282.21h5.961zm0 1.116H8.11a1.391 1.391 0 0 1-1.335-.96L6.33 2.114a.28.28 0 0 0-.268-.2H1.911a.795.795 0 0 0-.795.796v10.508c0 .449.364.813.813.813H14.07a.814.814 0 0 0 .814-.813V5.017a.813.813 0 0 0-.814-.813zm-1.958 3.257a.558.558 0 0 1 .789.79l-2.035 2.034a.558.558 0 0 1-.789 0l-1.198-1.2a.558.558 0 1 1 .789-.789l.804.805 1.64-1.64zm-6.72 1.284l.716.716a.558.558 0 0 1-.789.789l-.716-.716-.716.716a.558.558 0 0 1-.789-.789l.716-.716-.716-.717a.558.558 0 0 1 .789-.789l.716.717.716-.716a.558.558 0 1 1 .79.789l-.717.716z"/>
</svg>
