<svg xmlns="http://www.w3.org/2000/svg" viewBox="0 0 20 20">
    <path fill="#000" fill-rule="evenodd" d="M16.822 18.001a.6.6 0 0 1-.587-.479l-.588-2.862a.993.993 0 0 0-.523-.431l-3.619-1.291a1.466 1.466 0 0 1-.97-1.377v-.518c0-.683.301-1.325.827-1.761a2.567 2.567 0 0 0 .94-1.975V5.789a2.592 2.592 0 0 0-5.18 0v1.518c0 .763.345 1.485.945 1.979.524.432.824 1.069.824 1.746v.528c0 .616-.39 1.17-.97 1.377L4.3 14.229a.99.99 0 0 0-.525.432l-.588 2.861a.6.6 0 0 1-1.176-.243l.606-2.946a.617.617 0 0 1 .051-.146c.254-.511.69-.897 1.227-1.089l3.62-1.291a.263.263 0 0 0 .175-.247v-.528a1.06 1.06 0 0 0-.387-.82 3.757 3.757 0 0 1-1.382-2.905V5.789a3.794 3.794 0 0 1 7.58 0v1.518a3.764 3.764 0 0 1-1.374 2.899c-.25.207-.394.512-.394.837v.518c0 .11.07.21.174.247l3.62 1.29c.537.192.973.579 1.226 1.089.024.046.04.095.051.146l.605 2.946a.599.599 0 0 1-.588.722"/>
</svg>
