<svg xmlns="http://www.w3.org/2000/svg" viewBox="0 0 16 16">
    <path d="M13.88 13.105l-.643-.644a.607.607 0 0 1 .859-.86l1.68 1.682a.607.607 0 0 1 0 .86l-1.68 1.68a.607.607 0 0 1-.86-.86l.645-.644H1.965A1.964 1.964 0 0 1 0 12.355V1.948C0 .873.872 0 1.947 0h4.112a1.42 1.42 0 0 1 1.36.978l.44 1.12c.03.1.121.168.226.168h5.905c1.085 0 1.965.88 1.965 1.966v5.071a.607.607 0 1 1-1.215 0V4.232a.75.75 0 0 0-.75-.751H8.085c-.64 0-1.205-.42-1.373-.986l-.44-1.12a.224.224 0 0 0-.213-.16H1.947a.733.733 0 0 0-.732.733v10.407c0 .414.335.75.75.75H13.88zm-3.398-7.173a.607.607 0 1 1 .86.859l-3.636 3.637a.607.607 0 0 1-.86 0L4.705 8.285a.607.607 0 1 1 .859-.86L7.276 9.14l3.206-3.207z"/>
</svg>
