<svg xmlns="http://www.w3.org/2000/svg" viewBox="0 0 16 16">
    <path d="M3.256 4.421a.632.632 0 0 1 0-1.263h6.821a.632.632 0 1 1 0 1.263H3.256zm.263 3.158a.632.632 0 0 1 0-1.263H6.14a.632.632 0 0 1 0 1.263H3.52zm9.113 5.053v-1.474a.632.632 0 0 1 1.263 0v1.474h1.473a.632.632 0 0 1 0 1.263h-1.473v1.474a.632.632 0 1 1-1.263 0v-1.474h-1.474a.632.632 0 1 1 0-1.263h1.474zm1.263-4.444a.632.632 0 1 1-1.263 0V2.211a.952.952 0 0 0-.948-.948H2.211a.952.952 0 0 0-.948.948v9.473c0 .52.428.948.948.948h6.18a.632.632 0 0 1 0 1.263h-6.18A2.215 2.215 0 0 1 0 11.685V2.21C0 .993.993 0 2.21 0h9.474c1.217 0 2.21.993 2.21 2.21v5.978z"/>
</svg>
