<svg xmlns="http://www.w3.org/2000/svg" viewBox="0 0 16 16">
    <path d="M1.194 13.134c0 .498.4.9.895.9H13.91a.896.896 0 0 0 .895-.9V5.566c0-.498-.4-.9-.895-.9H8.1a1.589 1.589 0 0 1-1.51-1.094l-.363-1.097a.4.4 0 0 0-.38-.275H2.09a.898.898 0 0 0-.895.9v10.034zM0 3.1C0 1.94.936 1 2.089 1h3.759c.684 0 1.292.44 1.51 1.094l.365 1.1a.395.395 0 0 0 .377.272h5.811c1.154 0 2.089.94 2.089 2.1v7.568c0 1.161-.934 2.1-2.089 2.1H2.09A2.094 2.094 0 0 1 0 13.134V3.1zm10.407 3.677a.595.595 0 0 1 .844 0 .602.602 0 0 1 0 .849L7.68 11.218a.595.595 0 0 1-.844 0L4.729 9.102a.602.602 0 0 1 0-.849.595.595 0 0 1 .844 0l1.684 1.693 3.15-3.169z"/>
</svg>
