<?xml version="1.0" encoding="UTF-8"?>
<svg width="16px" height="16px" viewBox="0 0 16 16" version="1.1" xmlns="http://www.w3.org/2000/svg" xmlns:xlink="http://www.w3.org/1999/xlink">
    <!-- Generator: sketchtool 51.3 (57544) - http://www.bohemiancoding.com/sketch -->
    <title>test-case/usercase-library</title>
    <desc>Created with sketchtool.</desc>
    <defs></defs>
    <g id="Icons" stroke="none" stroke-width="1" fill="none" fill-rule="evenodd">
        <g id="Artboard" transform="translate(-88.000000, -214.000000)" fill="#000000" fill-rule="nonzero">
            <g id="test-case/usercase-library" transform="translate(88.000000, 215.000000)">
                <path d="M1.1935938,12.1339743 C1.1935938,12.631789 1.59400069,13.0339743 2.08878916,13.0339743 L13.9112108,13.0339743 C14.4065887,13.0339743 14.8064062,12.632196 14.8064062,12.1339743 L14.8064062,4.566 C14.8064062,4.06837085 14.4061834,3.666 13.9112108,3.666 L8.09952861,3.666 C7.41330606,3.666 6.80486551,3.22492768 6.59041826,2.57173666 L6.22678952,1.47499088 C6.17190315,1.31065636 6.0191871,1.2 5.84761497,1.2 L2.08878916,1.2 C1.59481126,1.2 1.1935938,1.60337085 1.1935938,2.1 L1.1935938,12.1339743 Z M0,2.1 C0,0.94062915 0.935607604,0 2.08878916,0 L5.84761497,0 C6.53249613,0 7.14034471,0.440440359 7.35871465,1.09426334 L7.72331257,2.19393584 C7.77668163,2.35649213 7.92774309,2.466 8.09952861,2.466 L13.9112108,2.466 C15.0653871,2.466 16,3.40562915 16,4.566 L16,12.1339743 C16,13.2950615 15.0656693,14.2339743 13.9112108,14.2339743 L2.08878916,14.2339743 C0.935043062,14.2339743 0,13.2947783 0,12.1339743 L0,2.1 Z M10.407232,5.77727979 C10.6402597,5.54292911 11.0181306,5.54287057 11.2512302,5.77714903 C11.4843298,6.01142749 11.4843881,6.39132647 11.2513603,6.62567716 L7.67896245,10.2183557 C7.44590929,10.4527319 7.06798824,10.4527612 6.83489915,10.2184211 L4.72934285,8.10156397 C4.49627916,7.8672494 4.49627916,7.48735041 4.72934285,7.25303583 C4.96240653,7.01872126 5.34027743,7.01872126 5.57334112,7.25303583 L7.25683325,8.94556352 L10.407232,5.77727979 Z" id="usercase-library"></path>
            </g>
        </g>
    </g>
</svg>