<svg xmlns="http://www.w3.org/2000/svg" viewBox="0 0 20 20">
    <path fill="#000" fill-rule="evenodd" d="M14.276 17.913a.6.6 0 0 1-.587-.479l-.48-2.332a.708.708 0 0 0-.363-.293l-2.971-1.058a1.311 1.311 0 0 1-.87-1.232v-.425c0-.593.263-1.15.72-1.53.465-.384.732-.946.732-1.537V7.78a2.02 2.02 0 0 0-4.036 0v1.246c0 .595.268 1.157.736 1.543.454.373.715.926.715 1.514v.434c0 .551-.35 1.046-.868 1.232L4.03 14.81a.712.712 0 0 0-.364.292l-.478 2.332a.601.601 0 0 1-1.176-.242l.497-2.42a.65.65 0 0 1 .05-.146 1.896 1.896 0 0 1 1.069-.946l2.97-1.06a.11.11 0 0 0 .073-.102v-.434a.76.76 0 0 0-.28-.588 3.198 3.198 0 0 1-1.172-2.47V7.782a3.222 3.222 0 0 1 6.437 0v1.246c0 .95-.425 1.848-1.167 2.462a.787.787 0 0 0-.284.604v.425c0 .045.028.086.07.101l2.973 1.06c.466.166.846.503 1.068.947.022.048.04.097.05.147l.497 2.419a.599.599 0 0 1-.588.721m3.124-1.562a.6.6 0 0 1-.587-.479l-.48-2.331a.708.708 0 0 0-.364-.294l-2.97-1.059a1.31 1.31 0 0 1-.87-1.232v-.424c0-.593.263-1.15.719-1.529.466-.385.733-.946.733-1.539V6.219a2.02 2.02 0 0 0-2.691-1.903.599.599 0 1 1-.404-1.13 3.222 3.222 0 0 1 4.295 3.033v1.245c0 .951-.425 1.849-1.167 2.463a.785.785 0 0 0-.284.605v.424c0 .046.028.086.07.102l2.973 1.06c.467.166.846.503 1.068.946.022.047.04.096.05.147l.497 2.418a.599.599 0 0 1-.588.722"/>
</svg>
