<svg xmlns="http://www.w3.org/2000/svg" viewBox="0 0 16 16">
    <path d="M10.83 10.627a1.8 1.8 0 0 1 1.01.896.715.715 0 0 1 .055.163l.424 2.065a.682.682 0 1 1-1.338.276l-.386-1.935a.434.434 0 0 0-.223-.18l-2.536-.903a1.29 1.29 0 0 1-.856-1.213v-.363c0-.557.247-1.08.676-1.436.358-.297.563-.728.563-1.182V5.752a1.554 1.554 0 0 0-3.104 0v1.063c0 .457.206.889.566 1.186.427.351.673.872.673 1.425v.37c0 .542-.343 1.03-.855 1.213l-2.538.904a.646.646 0 0 0-.2.123l-.408 1.991a.684.684 0 0 1-1.339-.276l.425-2.067a.727.727 0 0 1 .057-.164 1.789 1.789 0 0 1 1.008-.893l2.484-.886v-.315a.479.479 0 0 0-.176-.371 2.9 2.9 0 0 1-1.064-2.24V5.752a2.922 2.922 0 0 1 5.837 0v1.063c0 .863-.386 1.677-1.058 2.233a.501.501 0 0 0-.18.385v.307l2.483.887zm2.667-1.334c.44.157.798.474 1.01.897.025.055.044.109.055.163l.424 2.064a.682.682 0 1 1-1.338.276l-.387-1.934a.434.434 0 0 0-.223-.18l-2.535-.904a1.288 1.288 0 0 1-.856-1.213V8.1c0-.556.246-1.08.675-1.436.359-.297.564-.727.564-1.183V4.42a1.554 1.554 0 0 0-2.07-1.464.682.682 0 1 1-.459-1.286 2.922 2.922 0 0 1 3.894 2.75V5.48c0 .864-.385 1.678-1.057 2.234a.5.5 0 0 0-.181.385v.307l2.484.886z"/>
</svg>
