<svg xmlns="http://www.w3.org/2000/svg" viewBox="0 0 16 16">
    <path d="M13.714 14.694a.98.98 0 0 0 .98-.98V5.008a.98.98 0 0 0-.98-.98H5.007a.98.98 0 0 0-.98.98v8.708c0 .54.439.98.98.98h8.707zm0 1.306H5.007a2.286 2.286 0 0 1-2.286-2.285V5.007a2.286 2.286 0 0 1 2.286-2.286h8.707A2.286 2.286 0 0 1 16 5.007v8.708A2.286 2.286 0 0 1 13.714 16zM1.306 10.644a.653.653 0 1 1-1.306 0V2.286A2.286 2.286 0 0 1 2.286 0h8.358a.653.653 0 1 1 0 1.306H2.286a.98.98 0 0 0-.98.98v8.358zm5.878-.63a.653.653 0 0 1 0-1.306h4.353a.653.653 0 0 1 0 1.306H7.184zm2.83 1.524a.653.653 0 1 1-1.307 0V7.184a.653.653 0 0 1 1.307 0v4.354z"/>
</svg>
