<svg xmlns="http://www.w3.org/2000/svg" viewBox="0 0 16 16">
    <path d="M2.4 15.4a.6.6 0 0 1-1.2 0V9.783a.6.6 0 1 1 1.2 0V15.4zm-.204-5.136a.6.6 0 0 1-.996-.45v-8.32a.6.6 0 0 1 .204-.452c.157-.137.446-.306.89-.462A8.138 8.138 0 0 1 4.963.2C6.04.2 6.78.386 8.324.927c1.422.499 2.065.66 2.965.66.972 0 1.72-.12 2.273-.313.298-.105.454-.196.495-.232a.6.6 0 0 1 .995.451v8.32a.6.6 0 0 1-.204.451 2.796 2.796 0 0 1-.89.462c-.683.24-1.565.38-2.669.38-1.077 0-1.818-.185-3.362-.726-1.422-.499-2.064-.66-2.965-.66-.972 0-1.72.12-2.272.313a1.859 1.859 0 0 0-.495.231zM4.963 8.52c1.077 0 1.818.186 3.362.727 1.422.499 2.065.66 2.965.66.972 0 1.72-.12 2.273-.313.119-.042.215-.081.29-.116V2.442a8.34 8.34 0 0 1-2.563.345c-1.077 0-1.818-.186-3.362-.727-1.422-.499-2.064-.66-2.965-.66-.972 0-1.72.12-2.272.313a3.328 3.328 0 0 0-.291.116v7.035a8.34 8.34 0 0 1 2.563-.344z"/>
</svg>
