<?xml version="1.0" encoding="UTF-8"?>
<svg width="16px" height="16px" viewBox="0 0 16 16" version="1.1" xmlns="http://www.w3.org/2000/svg" xmlns:xlink="http://www.w3.org/1999/xlink">
    <!-- Generator: sketchtool 51.3 (57544) - http://www.bohemiancoding.com/sketch -->
    <title>app/view-board</title>
    <desc>Created with sketchtool.</desc>
    <defs></defs>
    <g id="Icons" stroke="none" stroke-width="1" fill="none" fill-rule="evenodd">
        <g id="Web" transform="translate(-387.000000, -631.000000)" fill="#000000" fill-rule="nonzero">
            <g id="app/view-board" transform="translate(387.000000, 631.000000)">
                <path d="M0,3.00585866 C0,1.89805351 0.894513756,1 1.99406028,1 L14.0059397,1 C15.1072288,1 16,1.89706013 16,3.00585866 L16,12.9941413 C16,14.1019465 15.1054862,15 14.0059397,15 L1.99406028,15 C0.892771196,15 0,14.1029399 0,12.9941413 L0,3.00585866 Z M4.8,2.2 L1.99791312,2.2 C1.56042005,2.2 1.2,2.56138307 1.2,3.00585866 L1.2,12.9941413 C1.2,13.4408274 1.55787226,13.8 1.99791312,13.8 L4.8,13.8 L4.8,2.2 Z M11.2,13.8 L14.0020868,13.8 C14.4421276,13.8 14.7999999,13.4408274 14.7999999,12.9941413 L14.7999999,3.00585866 C14.7999999,2.56138307 14.4395799,2.2 14.0020868,2.2 L11.2,2.2 L11.2,13.8 Z M6.20000005,2.19999962 L6.20000005,13.8 L9.79999995,13.8 L9.79999995,2.19999962 L6.20000005,2.19999962 Z" id="Combined-Shape"></path>
            </g>
        </g>
    </g>
</svg>