<svg xmlns="http://www.w3.org/2000/svg" viewBox="0 0 20 20">
    <path fill="#000" fill-rule="evenodd" d="M17.4 4.6h-2.613v-1a.6.6 0 0 0-.6-.6H2.6a.6.6 0 0 0-.6.6v11.2c0 1.214.99 2.2 2.206 2.2h11.588A2.208 2.208 0 0 0 18 14.794V5.2a.6.6 0 0 0-.6-.6M3.2 14.8V4.2h10.387v10.594c0 .365.097.704.255 1.007H4.206A1.005 1.005 0 0 1 3.2 14.8m13.6-.006a1.008 1.008 0 0 1-2.013 0V5.8H16.8v8.994M5.242 12.4a.617.617 0 0 0-.632.6c0 .332.283.6.632.6h4.636c.35 0 .632-.268.632-.6 0-.33-.282-.6-.632-.6H5.242m-.031-2h3.2a.6.6 0 1 0 0-1.2h-3.2a.6.6 0 1 0 0 1.2m6.4-4.4h-6.4a.6.6 0 0 0 0 1.2h6.4a.6.6 0 1 0 0-1.2"/>
</svg>
