<svg xmlns="http://www.w3.org/2000/svg" viewBox="0 0 16 16">
    <path fill="#000" fill-rule="evenodd" d="M15.4 2.6h-2.613v-1a.6.6 0 0 0-.6-.6H.6a.6.6 0 0 0-.6.6v11.2C0 14.014.99 15 2.206 15h11.588A2.208 2.208 0 0 0 16 12.794V3.2a.6.6 0 0 0-.6-.6M1.2 12.8V2.2h10.387v10.594c0 .365.097.704.255 1.007H2.206A1.005 1.005 0 0 1 1.2 12.8m13.6-.006a1.008 1.008 0 0 1-2.013 0V3.8H14.8v8.994M3.242 10.4a.617.617 0 0 0-.632.6c0 .332.283.6.632.6h4.636c.35 0 .632-.268.632-.6 0-.33-.282-.6-.632-.6H3.242m-.031-2h3.2a.6.6 0 1 0 0-1.2h-3.2a.6.6 0 1 0 0 1.2M9.61 4h-6.4a.6.6 0 0 0 0 1.2h6.4a.6.6 0 1 0 0-1.2"/>
</svg>
