<?xml version="1.0" encoding="UTF-8" standalone="no"?>
<svg width="20px" height="20px" viewBox="0 0 20 20" version="1.1" xmlns="http://www.w3.org/2000/svg" xmlns:xlink="http://www.w3.org/1999/xlink">
    <defs></defs>
    <g id="Icons" stroke="none" stroke-width="1" fill="none" fill-rule="evenodd">
        <g id="Web" transform="translate(-337.000000, -2148.000000)" fill="#000000">
            <g id="tip/warning" transform="translate(337.000000, 2148.000000)">
                <path d="M10,14.344 C9.558,14.344 9.2,13.986 9.2,13.544 C9.2,13.102 9.558,12.744 10,12.744 C10.442,12.744 10.8,13.102 10.8,13.544 C10.8,13.986 10.442,14.344 10,14.344 L10,14.344 L10,14.344 M9.401,6.257 C9.401,5.925 9.669,5.657 10.001,5.657 C10.332,5.657 10.601,5.925 10.601,6.257 L10.601,11.057 C10.601,11.388 10.332,11.657 10.001,11.657 C9.669,11.657 9.401,11.388 9.401,11.057 L9.401,6.257 L9.401,6.257 L9.401,6.257 M10,2 C5.582,2 2,5.582 2,10 C2,14.419 5.582,18 10,18 C14.418,18 18,14.419 18,10 C18,5.582 14.418,2 10,2 L10,2 L10,2" id="Shape"></path>
            </g>
        </g>
    </g>
</svg>