<?xml version="1.0" encoding="UTF-8"?>
<svg width="16px" height="16px" viewBox="0 0 16 16" version="1.1" xmlns="http://www.w3.org/2000/svg" xmlns:xlink="http://www.w3.org/1999/xlink">
    <!-- Generator: sketchtool 51.3 (57544) - http://www.bohemiancoding.com/sketch -->
    <title>tip/warning</title>
    <desc>Created with sketchtool.</desc>
    <defs></defs>
    <g id="Icons" stroke="none" stroke-width="1" fill="none" fill-rule="evenodd">
        <g id="Web" transform="translate(-339.000000, -2150.000000)" fill="#000000">
            <g id="tip/warning" transform="translate(339.000000, 2150.000000)">
                <path d="M8,12.344 C7.558,12.344 7.2,11.986 7.2,11.544 C7.2,11.102 7.558,10.744 8,10.744 C8.442,10.744 8.8,11.102 8.8,11.544 C8.8,11.986 8.442,12.344 8,12.344 L8,12.344 L8,12.344 M7.401,4.257 C7.401,3.925 7.669,3.657 8.001,3.657 C8.332,3.657 8.601,3.925 8.601,4.257 L8.601,9.057 C8.601,9.388 8.332,9.657 8.001,9.657 C7.669,9.657 7.401,9.388 7.401,9.057 L7.401,4.257 L7.401,4.257 L7.401,4.257 M8,0 C3.582,0 0,3.582 0,8 C0,12.419 3.582,16 8,16 C12.418,16 16,12.419 16,8 C16,3.582 12.418,0 8,0 L8,0 L8,0" id="Shape"></path>
            </g>
        </g>
    </g>
</svg>