<svg xmlns="http://www.w3.org/2000/svg" viewBox="0 0 16 16">
    <path d="M15.302 11.905l.027.031s-.384.071-.587.086c-.376.113-.722.31-1.013.574a.207.207 0 0 1-.2.195.211.211 0 0 1-.21-.214.2.2 0 0 1 .146-.186 2.3 2.3 0 0 0 .525-.71c.106-.29.12-.658.188-.881a.923.923 0 1 1 1.124 1.105zm-1.188-1.677a.207.207 0 0 1-.2-.195 2.618 2.618 0 0 0-1.015-.574 7.364 7.364 0 0 1-.586-.086l.026-.031a.936.936 0 1 1 1.125-1.106c.069.224.083.591.189.88a2.3 2.3 0 0 0 .524.711.2.2 0 0 1 .146.187.212.212 0 0 1-.209.214zm-1.508-3.503a.768.768 0 0 0-.467.172c0-.03.007-.058.007-.087 0-2.642-2.494-4.785-5.57-4.785-3.077 0-5.571 2.142-5.571 4.785a4.555 4.555 0 0 0 2.063 3.715c.063.09.102.192.115.3-.015.147-.479 1.338-.335 1.367l1.005-.684c.221-.124.465-.206.717-.239a6.35 6.35 0 0 0 3.834.055.784.784 0 0 0-.028.141c0 .303.171.58.441.717a7.347 7.347 0 0 1-4.347.044c-.214.14-1.015.658-1.293.787l-.007.003a.632.632 0 0 1-.07.03l-.012-.003a.905.905 0 0 1-.788-.081.804.804 0 0 1-.45-.93l-.011-.01.024-.044c.153-.31.23-.65.227-.995A5.45 5.45 0 0 1 0 6.767C0 3.582 2.944 1 6.576 1c3.631 0 6.573 2.582 6.573 5.767 0 .06-.011.115-.013.174a.779.779 0 0 0-.53-.217zm-2.863 3.45l-.027-.032s.384-.071.587-.085c.376-.113.723-.31 1.013-.575a.207.207 0 0 1 .2-.194.211.211 0 0 1 .21.213.2.2 0 0 1-.146.187 2.3 2.3 0 0 0-.523.71c-.107.29-.12.657-.189.881a.923.923 0 1 1-1.125-1.106zm1.188 1.591a.207.207 0 0 1 .2.195c.29.265.636.461 1.013.574.203.015.586.086.586.086l-.026.031a.936.936 0 1 1-1.125 1.106c-.069-.224-.082-.591-.189-.88a2.3 2.3 0 0 0-.524-.711.2.2 0 0 1-.146-.187.211.211 0 0 1 .211-.215v.001z"/>
</svg>
