<svg xmlns="http://www.w3.org/2000/svg" viewBox="0 0 16 16">
    <path d="M9.312 6.161a4.845 4.845 0 0 1 1.5-.243c.188 0 .376.03.563.06C10.875 3.702 8.437 2 5.656 2 2.531 2 0 4.126 0 6.8c0 1.548.844 2.854 2.25 3.826l-.562 1.701 1.968-.972c.75.122 1.313.274 2 .274.188 0 .375 0 .532-.03a4.653 4.653 0 0 1 .094-2.673 4.613 4.613 0 0 1 3.03-2.765zm-5.656-.395a.717.717 0 0 1-.719-.698c0-.365.344-.669.72-.669.437 0 .75.304.75.669 0 .395-.313.698-.75.698zM7.688 4.37c.406 0 .718.334.718.729a.697.697 0 0 1-.718.699c-.407 0-.75-.304-.75-.699a.75.75 0 0 1 .75-.729zM16 10.353c0-2.187-2.094-3.98-4.563-4.1-.093 0-.187-.031-.25-.031-2.687 0-4.812 1.853-4.812 4.13 0 .76.219 1.459.625 2.066.844 1.215 2.375 2.035 4.188 2.035a6.82 6.82 0 0 0 1.718-.303l1.531.85-.406-1.397c1.125-.85 1.969-1.974 1.969-3.25zm-6.344-.699a.56.56 0 0 1-.562-.577c0-.304.25-.547.562-.547.313 0 .563.243.563.547a.56.56 0 0 1-.563.577zm3.094 0a.56.56 0 0 1-.562-.577c0-.304.25-.547.562-.547.344 0 .594.243.594.547 0 .334-.25.577-.594.577z"/>
</svg>
