<svg xmlns="http://www.w3.org/2000/svg" viewBox="0 0 16 16">
    <path d="M11.85 7.842l-.25-.097c-.281-.16-.062-.419-.062-.419s.125-.226.187-.58a1.45 1.45 0 0 0-.312-1.324 1.073 1.073 0 0 0-.719-.387c-.219-.032-.437-.032-.625-.032a6.296 6.296 0 0 0-1.75.516c-.843.323-.624-.13-.5-.807 0-.839-.25-2.258-2.499-1.42-2.249.84-4.186 3.776-4.186 3.776C-.178 9.036.009 10.52.009 10.52c.313 3.323 3.562 4.227 6.092 4.453 2.625.225 6.186-1 7.249-3.518 1.093-2.484-.875-3.485-1.5-3.614zm-5.561 6.196c-2.656.129-4.78-1.291-4.78-3.227 0-1.904 2.124-3.42 4.78-3.55 2.624-.16 4.717 1.033 4.717 2.937s-2.093 3.71-4.717 3.84zM5.758 8.52c-2.656.323-2.343 3.033-2.343 3.033s-.032.84.718 1.259a2.873 2.873 0 0 0 3.937-.743c.78-1.161.312-3.904-2.312-3.55zm-.656 3.775c-.5.065-.906-.258-.906-.71 0-.451.375-.903.843-.968.563-.064.938.29.938.743 0 .451-.407.87-.875.935zm1.53-1.452c-.156.13-.343.13-.437-.032a.457.457 0 0 1 .094-.549c.219-.16.406-.129.5.033.094.161.031.42-.156.548zm6.499-4.195a.443.443 0 0 0 .437-.387v-.064c.313-3.163-2.374-2.614-2.374-2.614a.434.434 0 0 0-.437.452c0 .258.187.484.437.484 1.937-.484 1.5 1.678 1.5 1.678 0 .258.187.451.437.451zm-.313-5.517a4.615 4.615 0 0 0-2.155 0c-.031 0-.031.032-.063.032a.696.696 0 0 0-.468.677c0 .388.28.678.625.678 0 0 .343-.032.562-.13.187-.064 1.218-.096 2.156.582a3.202 3.202 0 0 1 .968 1.097c.531 1.29.219 2.13.188 2.323 0 0-.125.323-.125.646 0 .387.28.613.624.613.282 0 .532-.033.594-.581h.031c1-3.776-1.28-5.518-2.937-5.937z"/>
</svg>
