<svg xmlns="http://www.w3.org/2000/svg" viewBox="0 0 16 16">
    <path d="M14.977.176a.6.6 0 0 1 .848.848l-4.393 4.393h3.39a.6.6 0 0 1 .591.503l.008.098a.6.6 0 0 1-.6.6H9.99a.61.61 0 0 1-.037-.002l-.038-.003a.519.519 0 0 1-.102-.021l-.035-.013a.599.599 0 0 1-.389-.631l.001-4.762a.6.6 0 1 1 1.2 0v3.376zM6.022 9.38a.612.612 0 0 1 .23.046l.022.01a.597.597 0 0 1 .348.544v4.832a.6.6 0 0 1-1.2 0l-.001-3.39-4.397 4.399a.6.6 0 0 1-.765.069l-.083-.07a.6.6 0 0 1 0-.848l4.391-4.392H1.19a.6.6 0 0 1-.592-.502L.59 9.98a.6.6 0 0 1 .6-.6z"/>
</svg>
