<?xml version="1.0" encoding="UTF-8"?>
<svg width="17px" height="17px" viewBox="0 0 17 17" version="1.1" xmlns="http://www.w3.org/2000/svg" xmlns:xlink="http://www.w3.org/1999/xlink">
    <!-- Generator: sketchtool 51.3 (57544) - http://www.bohemiancoding.com/sketch -->
    <title>window-max</title>
    <desc>Created with sketchtool.</desc>
    <defs></defs>
    <g id="Icons" stroke="none" stroke-width="1" fill="none" fill-rule="evenodd">
        <g id="Deprecated" transform="translate(-200.000000, -200.000000)" fill="#000000" fill-rule="nonzero">
            <g id="window-max" transform="translate(200.000000, 200.000000)">
                <path d="M14.1453719,1.4 L10.756,1.4 C10.4246292,1.4 10.156,1.13137085 10.156,0.8 C10.156,0.46862915 10.4246292,0.2 10.756,0.2 L15.588,0.2 C15.6226053,0.2 15.6565263,0.202929604 15.6895286,0.208554327 C15.809558,0.227994746 15.9248168,0.283988614 16.0173641,0.376535931 C16.1544797,0.513651545 16.2113583,0.70062002 16.188,0.879095813 L16.188,5.632 C16.188,5.96337085 15.9193708,6.232 15.588,6.232 C15.2566292,6.232 14.988,5.96337085 14.988,5.632 L14.988,2.25442814 L10.6003641,6.64206407 C10.3660495,6.87637864 9.98615051,6.87637864 9.75183593,6.64206407 C9.51752136,6.40774949 9.51752136,6.02785051 9.75183593,5.79353593 L14.1453719,1.4 Z M2.25422814,15.0002 L5.632,15.0002 C5.96337085,15.0002 6.232,15.2688292 6.232,15.6002 C6.232,15.9315708 5.96337085,16.2002 5.632,16.2002 L0.839434023,16.2002 C0.787211036,16.2032097 0.734669628,16.1994256 0.683247341,16.1888476 C0.407762227,16.1345168 0.2,15.8916211 0.2,15.6002 L0.2,10.7682 C0.2,10.4368292 0.46862915,10.1682 0.8,10.1682 C1.13137085,10.1682 1.4,10.4368292 1.4,10.7682 L1.4,14.1573719 L5.79743593,9.75993593 C6.03175051,9.52562136 6.41164949,9.52562136 6.64596407,9.75993593 C6.88027864,9.99425051 6.88027864,10.3741495 6.64596407,10.6084641 L2.25422814,15.0002 Z" id="Combined-Shape"></path>
            </g>
        </g>
    </g>
</svg>