<svg xmlns="http://www.w3.org/2000/svg" viewBox="0 0 17 17">
    <path d="M15.588.2a.61.61 0 0 1 .176.025l.041.016a.373.373 0 0 1 .053.021c.007.006.015.01.022.014a.599.599 0 0 1 .31.588l-.002 4.768a.6.6 0 0 1-1.2 0V2.254L10.6 6.642a.6.6 0 0 1-.765.07l-.083-.07a.6.6 0 0 1 0-.848L14.144 1.4h-3.388a.6.6 0 0 1-.592-.503L10.156.8a.6.6 0 0 1 .6-.6zm-9.79 9.56a.6.6 0 1 1 .848.848L2.253 15h3.379a.6.6 0 0 1 .592.503l.008.097a.6.6 0 0 1-.6.6H.8a.612.612 0 0 1-.162-.022A.6.6 0 0 1 .2 15.6v-4.832a.6.6 0 0 1 1.2 0l-.001 3.389z"/>
</svg>
