<svg xmlns="http://www.w3.org/2000/svg" viewBox="0 0 16 16">
    <path d="M13.282 4.148l.49-.486c.234-.23.6-.242.82-.024.22.217.208.58-.025.812l-.58.574A6.965 6.965 0 0 1 15.2 8.96 7.07 7.07 0 0 1 8.1 16 7.07 7.07 0 0 1 1 8.96c0-1.458.447-2.812 1.212-3.936l-.58-.574c-.232-.231-.243-.595-.024-.812.22-.218.586-.207.82.024l.49.486A7.104 7.104 0 0 1 7.29 1.965v-.851H6.097c-.33 0-.597-.25-.597-.557C5.5.249 5.768 0 6.097 0h3.58c.33 0 .597.25.597.557 0 .307-.268.557-.597.557h-1.17v.818a7.105 7.105 0 0 1 4.775 2.216zM8.1 14.935a6 6 0 0 0 6.026-5.975A6 6 0 0 0 8.1 2.985 6 6 0 0 0 2.074 8.96 6 6 0 0 0 8.1 14.935zm.375-5.739h3.698c.31 0 .562.25.562.557a.56.56 0 0 1-.562.557h-4.26a.56.56 0 0 1-.562-.557V5.205a.56.56 0 0 1 .562-.557c.31 0 .562.25.562.557v3.991z"/>
</svg>
