<svg xmlns="http://www.w3.org/2000/svg" viewBox="0 0 20 20">
    <path fill="#000" fill-rule="evenodd" d="M17.977 5.453c-.063-.362-.5-.393-.5-.393h-5.715c-.407 0-.563.544-.563.544l-3.404 7.002c-.156.332-.312 0-.312 0L4.734 7.173c-.187-.272 0-.392 0-.392h2.312c.406.06.5.392.5.392L8.7 9.557l1-2.142-.906-1.872C8.607 5.06 8.2 5 8.2 5H2.58c-.875.332-.5.996-.5.996l4.653 9.447c.531.694.906.543.906.543.5 0 .812-.543.812-.543l4.06-8.33c.156-.332.344-.332.344-.332h2.467c.187.03.094.332.094.332l-2.811 5.583c-.125.302-.344 0-.344 0l-.906-1.962-.999 1.872a.536.536 0 0 0 0 .332l1.25 2.505c.968 1.116 1.655.06 1.655.06l4.622-9.416c.187-.332.094-.634.094-.634z"/>
</svg>
