<svg xmlns="http://www.w3.org/2000/svg" viewBox="0 0 16 17">
    <path d="M5.689 8.889c.178.267.533.444.8.355.444-.177.622-.622.355-1.066A3.74 3.74 0 0 0 3.467 6.4C1.689 6.578.177 7.911 0 9.778v.444c0 .445.444.711.889.622a.774.774 0 0 0 .533-.71 2.353 2.353 0 0 1 2.311-2.312c.8 0 1.6.445 1.956 1.067zm6.755.089c.178-.09.356-.09.623 0 .8.089 1.422.71 1.51 1.422a1.731 1.731 0 0 1-1.688 1.867H5.956c-.356 0-.712.266-.712.622 0 .355.267.711.712.711h7.022A2.997 2.997 0 0 0 16 10.578a2.997 2.997 0 0 0-3.022-3.022h-.09A4.96 4.96 0 0 0 8.179 4c-1.6 0-3.022.711-3.911 1.956.444.088.889.177 1.333.444a3.492 3.492 0 0 1 2.489-.978c1.6 0 2.933.978 3.378 2.49v.266c.089.533.533.889.977.8z"/>
</svg>
