<svg xmlns="http://www.w3.org/2000/svg" viewBox="0 0 16 17">
    <path d="M8.178 4a4.96 4.96 0 0 1 4.71 3.556h.09A2.997 2.997 0 0 1 16 10.578a2.997 2.997 0 0 1-3.022 3.022H5.956a.701.701 0 0 1-.712-.711c0-.356.356-.622.712-.622h6.933c.978 0 1.778-.89 1.689-1.867a1.701 1.701 0 0 0-1.511-1.422c-.267-.09-.445-.09-.623 0-.444.089-.888-.267-.977-.8V7.91a3.442 3.442 0 0 0-3.378-2.489c-.978 0-1.867.356-2.489.978a3.932 3.932 0 0 0-1.333-.444A4.721 4.721 0 0 1 8.177 4zM3.467 6.4a3.74 3.74 0 0 1 3.377 1.778c.267.444.09.889-.355 1.066-.267.09-.622-.088-.8-.355a2.32 2.32 0 0 0-1.956-1.067 2.353 2.353 0 0 0-2.31 2.311.774.774 0 0 1-.534.711c-.445.09-.889-.177-.889-.622v-.444C.178 7.91 1.689 6.578 3.467 6.4z"/>
</svg>
