<svg xmlns="http://www.w3.org/2000/svg" viewBox="0 0 16 16">
    <path fill="#000" fill-rule="evenodd" d="M7.969 11.325A10.058 10.058 0 0 1 5.812 9.82a4.28 4.28 0 0 0-.5 2.039c0 .627.125 1.223.376 1.82A4.516 4.516 0 0 0 8.063 16a4.517 4.517 0 0 0 2.28-2.29 4.327 4.327 0 0 1-2.374-2.385m3.968-1.317c-.5 0-1-.094-1.406-.251a9.99 9.99 0 0 1-1.968 1.38 4.41 4.41 0 0 0 3.75 2.07c.812 0 1.562-.219 2.218-.564.094-.376.125-.753.125-1.13 0-.72-.156-1.442-.5-2.101a4.45 4.45 0 0 1-2.219.596m1.47-6.086c-.063 0-.095-.032-.157-.032v.032a4.71 4.71 0 0 1-1.062 2.29c.03.157.03.314.03.502 0 1.035-.53 1.945-1.187 2.666.188.032.375.032.563.032A4.435 4.435 0 0 0 16 5.616a4.908 4.908 0 0 0-2.594-1.694m-3.937.502c.156-.032.343-.063.531-.063h.063a2.09 2.09 0 0 1 1.78 1.004 4.335 4.335 0 0 0 .626-2.29c0-1.193-.469-2.29-1.22-3.075h-.061a4.069 4.069 0 0 0-2.813 1.13c.813.878 1.094 1.944 1.094 3.042v.252m-2.938.094A1.987 1.987 0 0 1 8.25 5.616c.187-.377.469-.66.781-.816v-.126A4.424 4.424 0 0 0 4.594.22c-.063 0-.125 0-.157-.032A4.514 4.514 0 0 0 3.281 3.2v.031h.125c1.219 0 2.344.502 3.125 1.287M4.22 6.839v-.157c0-1.223.75-1.976 1.593-2.196a4.43 4.43 0 0 0-3-.533A4.518 4.518 0 0 0 0 5.71a4.571 4.571 0 0 0 1.656 2.792A4.152 4.152 0 0 1 4.22 6.839m1.25 2.479a3.954 3.954 0 0 1-1.125-1.945 4.504 4.504 0 0 0-2.407 2.101 4.493 4.493 0 0 0-.343 3.263 4.145 4.145 0 0 0 2.125.565 4.1 4.1 0 0 0 1.062-.126 5.47 5.47 0 0 1-.156-1.223c0-.941.312-1.851.844-2.635"/>
</svg>
