<svg xmlns="http://www.w3.org/2000/svg" viewBox="0 0 16 16">
    <path d="M5.542 8.786h2.961c0-.82-.201-1.112-.316-1.142H5.628c.03-.058.115-1.902.144-3.511h2.415c.057-.615-.086-1.142-.345-1.171H3.559c.057-.263.115-.556.23-.878.143-.44.287-.878.373-1.054-.057-.058-.172-.029-.43.059a1.715 1.715 0 0 0-.72.38 1.405 1.405 0 0 0-.345.469c-.258.673-.805 2.604-1.523 3.95 1.12-.087 1.667-.731 1.84-1.258.086-.176.115-.38.172-.527h1.495c0 .673-.029 1.903-.144 3.541-1.293 0-1.897-.029-2.616-.029-.402.117-.604.761-.66 1.17h3.161c-.086.615-.115.937-.345 1.844a7.956 7.956 0 0 1-2.07 3.337 6.823 6.823 0 0 1-.948.848c-.029.03-.029.03-.029.059.316.293 1.466 0 1.696-.088.23-.088.431-.146.604-.292.604-.527 1.351-1.698 1.81-3.454 1.726 2.049 2.1 2.663 2.53 3.16h.058c.144-.497.23-1.316.058-1.726l-.115-.205c-.834-1.024-.834-1.024-1.783-2.048-.546.439-.66.556-.66.556s.114-.468.143-.673c.144-.527.144-.79.201-1.317m9.285-6.029H9.366c-.058 0-.173.088-.173.176v10.389c0 .058.058.146.173.146h.862c.057 0 .144.586.374 1.2 1.207-.79 1.724-1.112 1.983-1.2h2.242c.087 0 .144-.058.144-.146 0-6.936.029-3.307.029-10.419 0-.087-.115-.146-.173-.146m-1.006 9.453c0 .058-.057.088-.086.088h-1.178c-.03 0-.058.029-.058.029a11.33 11.33 0 0 1-1.437.907c-.115-.41-.23-.936-.259-.936h-.345c-.058 0-.086-.03-.086-.088V4.016c0-.059.057-.117.086-.117h3.277c.029 0 .086.058.086.087v8.224"/>
</svg>
