<?xml version="1.0" encoding="UTF-8"?>
<svg width="16px" height="16px" viewBox="0 0 16 16" version="1.1" xmlns="http://www.w3.org/2000/svg" xmlns:xlink="http://www.w3.org/1999/xlink">
    <!-- Generator: sketchtool 51.3 (57544) - http://www.bohemiancoding.com/sketch -->
    <title>file/zoom-in</title>
    <desc>Created with sketchtool.</desc>
    <defs></defs>
    <g id="Icons" stroke="none" stroke-width="1" fill="none" fill-rule="evenodd">
        <g id="Web" transform="translate(-386.000000, -1565.000000)" fill="#000000" fill-rule="nonzero">
            <g id="file/zoom-in" transform="translate(386.000000, 1565.000000)">
                <path d="M11.2234337,12.0719619 L14.5757359,15.4242641 C14.8100505,15.6585786 15.1899495,15.6585786 15.4242641,15.4242641 C15.6585786,15.1899495 15.6585786,14.8100505 15.4242641,14.5757359 L12.0719619,11.2234337 C13.0260259,10.0789374 13.6,8.60649811 13.6,7 C13.6,3.35492065 10.6450793,0.4 7,0.4 C3.35492065,0.4 0.4,3.35492065 0.4,7 C0.4,10.6450793 3.35492065,13.6 7,13.6 C8.60649811,13.6 10.0789374,13.0260259 11.2234337,12.0719619 L11.2234337,12.0719619 L11.2234337,12.0719619 L11.2234337,12.0719619 L11.2234337,12.0719619 L11.2234337,12.0719619 Z M1.6,7 C1.6,4.01766235 4.01766235,1.6 7,1.6 C9.98233765,1.6 12.4,4.01766235 12.4,7 C12.4,9.98233765 9.98233765,12.4 7,12.4 C4.01766235,12.4 1.6,9.98233765 1.6,7 L1.6,7 L1.6,7 L1.6,7 L1.6,7 Z M7.6,7.6 L7.6,9 C7.6,9.33137085 7.33137085,9.6 7,9.6 C6.66862915,9.6 6.4,9.33137085 6.4,9 L6.4,7.6 L5,7.6 C4.66862915,7.6 4.4,7.33137085 4.4,7 C4.4,6.66862915 4.66862915,6.4 5,6.4 L6.4,6.4 L6.4,5 C6.4,4.66862915 6.66862915,4.4 7,4.4 C7.33137085,4.4 7.6,4.66862915 7.6,5 L7.6,6.4 L9,6.4 C9.33137085,6.4 9.6,6.66862915 9.6,7 C9.6,7.33137085 9.33137085,7.6 9,7.6 L7.6,7.6 L7.6,7.6 L7.6,7.6 L7.6,7.6 L7.6,7.6 L7.6,7.6 Z" id="Combined-Shape"></path>
            </g>
        </g>
    </g>
</svg>