<svg xmlns="http://www.w3.org/2000/svg" viewBox="0 0 512 512"><path d="M257 345q15 0 29.5-6t25-16 17-24 6.5-30v-20q0-32-23.5-54T256 173q-17 0-31.5 7t-25 18.5-17 27T176 259q0 36 23.5 61t57.5 25zm5-345q52 0 98 20t79.5 55 53 82T512 258q0 18-3.5 39.5T497 338q-9 22-22 34t-25.5 17.5-22 6.5-10.5 1q-31 0-48-12.5T344 359q-35 33-87 33-26 0-49.5-10.5t-41-28.5-27.5-42.5-10-51.5 10-51.5 27.5-42.5 41-28.5T258 126q45 0 80 30 1-9 8-15t16-6q10 0 17.5 7t7.5 17v85q0 4 .5 7.5t.5 7.5-.5 8-.5 8v55q0 2 6.5 5.5T417 339l4-1 10-4 12.5-8.5L455 311q6-11 8-26t2-29q0-45-15.5-83t-43-66T342 63t-80-16q-44 0-83 16.5t-68 45T65 175t-17 81q0 44 17 82t46 66.5 68 45 83 16.5q29 0 55-3t49-15q8-5 17.5-2t14.5 12q5 8 2 17t-11 14q-30 16-62.5 19.5T262 512q-54 0-102-20t-83.5-55-56-81.5T0 256t20.5-99.5 56-81.5T160 20 262 0z"/></svg>