<svg xmlns="http://www.w3.org/2000/svg" viewBox="0 0 512 512"><path d="M491 212q18 18 18 46t-19 50q-7 7-14 11l-1 1q-3 2-12 5.5t-18 3.5h-25v120q0 25-18 44t-41 19H151q-23 0-38.5-16.5T97 454V329H61q-3 0-7.5-2t-9.5-4q-5-3-12-7-2-2-4.5-4t-4.5-5Q3 287 3 258q0-27 17-46L204 19q8-9 18.5-13.5T244 0h3q24 0 41 18zm-13 46q0-14-8-24L267 40l-1-1q-8-8-19-8h-2q-11 0-19 8v1L43 233q-9 9-9 25 0 17 11 28l5 5q9 6 15 7h62v157q0 11 7 18.5t17 7.5h210q10 0 19-9 10-12 10-23V298h55q1 1 3 0 1 0 11-4l1-1q2-1 3.5-2.5l3.5-3.5q11-13 11-29zM345 150q3 0 3 2 1 2 0 3l-72 111h59q3 0 3 3v25q0 4-3 4h-62v60q0 4-3 4h-29q-4 0-4-4v-60h-62q-4 0-4-4v-25q0-3 4-3h60l-71-110q-1-3 0-4 2-2 3-2h35q1 0 3 2l51 88 51-88q1-2 3-2h35z"/></svg>