<svg xmlns="http://www.w3.org/2000/svg" viewBox="0 0 512 512"><path d="M273 275q47-6 48 27 3 44-48 42v-69zM256 0q53 0 99.5 20T437 75t55 81.5 20 99.5-20 99.5-55 81.5-81.5 55-99.5 20-99.5-20T75 437t-55-81.5T0 256t20-99.5T75 75t81.5-55T256 0zm114 313q1-14-.5-28.5T358 258q-8-10-18-15t-21-7-23-2.5-23-2.5v-66q23-1 31 5.5t13 28.5h45q2-36-12-54t-47-21q-8-1-15-1.5t-15-.5q-1-7-1-13t-1-12h-32v21q-18 5-35 7.5t-33 9.5q-19 8-23 25.5t-3 34.5q0 14 2.5 27.5T158 247q14 20 36.5 21.5T238 272v75q-11-2-21.5-3.5T200 337q-7-6-8.5-16.5T186 300h-45q1 17 2 32t11 28q8 11 18 15.5t21.5 7 23 3T240 387v28h33v-28q31-4 49.5-8.5t29-12.5 14-20.5T370 313zM193 196q0-16 12.5-24t33.5-6v63q-46 2-46-33z"/></svg>