<svg xmlns="http://www.w3.org/2000/svg" viewBox="0 0 512 512"><path d="M508 100q4 8 4 21v324q0 13-4 21-3 8-10 17-7 7-17 12-9 4-19 4H50q-10 0-19-4-10-5-17-12-7-9-10-17-4-8-4-21V121q0-13 4-21 3-8 10-17 7-7 17-12 12-5 19-5h83l39-45q8-8 17-8h134q4 0 9 2.5t8 5.5l39 45h83q7 0 19 5 10 5 17 12 7 9 10 17zM256 417q28 0 52.5-10.5T351 378t28.5-42.5T390 283t-10.5-52.5T351 188t-42.5-28.5T256 149t-52.5 10.5T161 188t-28.5 42.5T122 283t10.5 52.5T161 378t42.5 28.5T256 417zm0-215q35 0 59 24t24 58q0 35-24 59t-59 24-59-24-24-59q0-34 24-58t59-24z"/></svg>