<svg xmlns="http://www.w3.org/2000/svg" viewBox="0 0 512 512"><path d="M256 0q53 0 99.5 20T437 75t55 81.5 20 99.5-20 99.5-55 81.5-81.5 55-99.5 20-99.5-20T75 437t-55-81.5T0 256t20-99.5T75 75t81.5-55T256 0zm0 475q45 0 85-17t70-47 47-70 17-85-17-85-47-70-70-47-85-17-85 17-70 47-47 70-17 85 17 85 47 70 70 47 85 17zm88-157q6 6 6 13 0 9-6 13-5 6-13 6-7 0-13-6l-62-62-62 62q-6 6-13 6-9 0-13-6-6-5-6-12.5t6-13.5l62-62-62-62q-14-14 0-26 5-5 13-5t13 5l62 62 62-62q5-5 13-5t13 5q6 5 6 13 0 7-6 13l-62 62z"/></svg>