<svg xmlns="http://www.w3.org/2000/svg" viewBox="0 0 512 512"><path d="M363 154l36 36-179 181-92-93 36-36 56 57zM256 462q21 0 40.5-4t38.5-12q37-16 66-44 27-27 44-66 16-36 16-80 0-43-16-79-17-39-44-66-29-28-66-44-36-16-79-16-44 0-79 16t-67 44q-29 30-43 66-17 39-17 79 0 41 17 80 14 36 43 66 32 28 67 44 38 16 79 16zm0-462q51 0 100 20 45 19 81 55 36 34 55 82 20 48 20 99 0 52-20 100-10 23-23.5 44T437 438q-34 34-81 55-47 19-100 19-55 0-100-19-47-21-82-55-34-34-54-82T0 256q0-51 20-99 19-47 54-82 18-17 38.5-31T156 20Q204 0 256 0z"/></svg>