<svg xmlns="http://www.w3.org/2000/svg" viewBox="0 0 512 512"><path d="M255 0q53 0 99.5 20T436 75t55 81.5 20 99.5-20 99.5-55 81.5-81.5 55-99.5 20-100-20-81.5-55T19 355.5-1 256t20-99.5T73.5 75 155 20 255 0zm0 485q47 0 89-18t73-49 49-72.5 18-89.5q0-47-18-89t-49-73-73-49-89-18q-48 0-89.5 18t-73 49T43 167t-18 89q0 48 18 89.5T92.5 418t73 49 89.5 18zm12-359q1 0 9.5 2t19 7 20.5 14.5 15 25.5q1 3 2 11t-1 19.5-10 25.5-26 28q-1 0-6 4.5t-11 12-10.5 18T264 318q0 6-4.5 10t-9.5 4q-13 0-13-14 0-19 6.5-34t14.5-25.5 14.5-16 7.5-5.5q13-10 18.5-19.5T306 200q2-9 0-16-1 0-1-1-3-10-9.5-16t-13.5-9q-8-4-17-5-30-2-45 13-7 6-10 13.5t-5 13.5q-2 7-2 14 0 6-4.5 10t-9.5 4q-13 0-13-14l.5-6.5L179 185l7.5-19 14.5-19q23-23 66-21zm-16 237q14 0 14 14v7q0 14-14 14-13 0-13-14v-7q0-14 13-14z"/></svg>