<?xml version="1.0" encoding="UTF-8" standalone="no"?><svg   xmlns:svg="http://www.w3.org/2000/svg"   xmlns="http://www.w3.org/2000/svg"   version="1.1"   width="512"   height="512"   viewBox="0 0 512 512">  <path     d="M492 156Q512 204 512 256Q512 307 492 355Q473 403 437 437Q403 471 356 492Q307 512 256 512Q204 512 156 492Q109 471 74 437Q39 402 20 355Q0 311 0 256Q0 200 20 156Q40 108 74 74Q109 40 156 19Q201 0 256 0Q309 0 356 19Q403 40 437 74Q455 91 468.5 112T492 156zM384 256L255 128L225 157L298 230H119V273H307L225 354L255 384z"     id="circle-right2" /></svg>