<svg xmlns="http://www.w3.org/2000/svg" viewBox="0 0 512 512"><path d="M499 325q0 5-2 8l-50 85q-2 5-6 6-3 2-8 0l-62-25q-2 2-7 6t-11.5 7.5-13 6.5-10.5 4l-11 66q-2 4-4 5-2 2-8 2H206q-6 0-7-2-2-1-4-6l-11-64q-3 0-9.5-3.5l-13-7-12-7.5-6.5-6-62 23q-8 3-10 2-5 0-5-3l-50-87q-1-2-1-6t3-7l52-44q0-2-.5-9t-.5-14.5.5-14.5.5-10l-52-38q-3-3-3.5-4l-1.5-3q-2-4 0-9l51-85q3-5 7-6t10 0l60 26q5-6 19.5-15T182 86l11-67q0-2 4-6 3-2 7-2l100-1q3 0 6 3 2 1 4 9l10 63q8 1 22.5 10t19.5 14l62-23q5-3 9-1 4 0 6 2l49 88q1 2 1 7 0 4-3 5l-52 44q1 2 1 8.5v30l-1 10.5 57 37zm-243 15q18 0 33.5-7t27-18.5T335 287t7-34-7-34-18.5-27.5-27-18.5-33.5-7q-36 0-61.5 25.5T169 253t25.5 61.5T256 340z"/></svg>