<svg xmlns="http://www.w3.org/2000/svg" viewBox="0 0 512 512"><path d="M378 401q0-11 7.5-18.5T404 375h70q11 0 19 7.5t7 18.5v71q-1 11-8.5 19t-18.5 8h-67q-11 0-19-8t-8-19zm1-180q0-11 8-19.5t19-8.5h67q11 0 18.5 8.5T500 221v69q1 11-7 19.5t-19 8.5h-70q-11 0-18.5-8.5T378 290zM196 39q0-11 8-18.5t19-7.5h69q11 0 19 7.5t8 18.5l-1 71q0 11-8 18.5t-19 7.5h-67q-11 0-19-7.5t-8-18.5zm278-26q11 0 19 7.5t7 18.5v71q-1 11-8.5 18.5T473 136h-67q-11 0-19-7.5t-8-18.5l-1-71q0-11 7.5-18.5T404 13h70zM196 221q0-11 8-19.5t19-8.5h69q11 0 19 8.5t8 19.5l-1 69q0 11-8 19.5t-19 8.5h-67q-11 0-19-8.5t-8-19.5zm-181 0q1-11 8.5-19.5T42 193h67q11 0 19 8.5t8 19.5l1 69q0 11-7.5 19.5T111 318H40q-11 0-18.5-8.5T14 290zm-1 180q0-11 7.5-18.5T40 375h71q11 0 18.5 7.5T137 401l-1 71q0 11-8 19t-19 8H42q-11 0-18.5-8T15 472zm183 0q0-11 8-18.5t19-7.5h67q11 0 19 7.5t8 18.5l1 71q0 11-8 19t-19 8h-69q-11 0-19-8t-8-19zM14 39q0-11 7.5-18.5T40 13h71q11 0 18.5 7.5T137 39l-1 71q0 11-8 18.5t-19 7.5H42q-11 0-18.5-7.5T15 110z"/></svg>