<svg xmlns="http://www.w3.org/2000/svg" viewBox="0 0 512 512"><path d="M493 400q8 0 13.5 5t5.5 13-5.5 13.5T493 437h-57v57q0 8-5.5 13.5T417 513t-13-5.5-5-13.5v-57h-57q-8 0-13.5-5.5T323 418t5.5-13 13.5-5h57v-57q0-8 5-13.5t13-5.5 13.5 5.5T436 343v57h57zM282 38H172V1h110v37zm119 57V63q0-10-7-17.5T376 38h-16V1h16q26 0 44.5 18T439 63v32h-38zm0 156v-78h38v78h-38zM172 402h110v38H172v-38zM37 330v47q0 11 7.5 18t17.5 7h32v38H62q-26 0-44-18.5T0 377v-47h37zm0-157v78H0v-78h37zM0 95V63q0-26 18-44T62 1h32v37H62q-10 0-17.5 7.5T37 63v32H0zm493 305q8 0 13.5 5t5.5 13-5.5 13.5T493 437h-57v57q0 8-5.5 13.5T417 513t-13-5.5-5-13.5v-57h-57q-8 0-13.5-5.5T323 418t5.5-13 13.5-5h57v-57q0-8 5-13.5t13-5.5 13.5 5.5T436 343v57h57zM282 38H172V1h110v37zm119 57V63q0-10-7-17.5T376 38h-16V1h16q26 0 44.5 18T439 63v32h-38zm0 156v-78h38v78h-38zM172 402h110v38H172v-38zM37 330v47q0 11 7.5 18t17.5 7h32v38H62q-26 0-44-18.5T0 377v-47h37zm0-157v78H0v-78h37zM0 95V63q0-26 18-44T62 1h32v37H62q-10 0-17.5 7.5T37 63v32H0z"/></svg>