<svg xmlns="http://www.w3.org/2000/svg" viewBox="0 0 512 512"><path d="M431 175q13 5 26.5 13.5t24 19.5 17 23.5T505 257q0 6-4 23.5t-10 40-13 47-13 44.5-10.5 33.5L450 459q-3 7-7 16t-11.5 17.5-19.5 14-29 5.5H222q-36 0-54-5t-25-9q-15-7-24.5-22t-9.5-32V249q0-14 5.5-30t13.5-27l39-49q3-5 6-12.5t3-12.5l-1-70q0-26 21-40 23-15 47-4l3 2q16 10 29 25.5t22 34 14 38 5 36.5q0 3-1 13t-3 20zm-31 257q2-5 9.5-30.5T426 346t16-56.5 7-33.5q0-4-9.5-14T413 224H242l16-33 4-10 2-7q2-6 3-16t2-14q0-10-3.5-22T257 98t-12.5-22.5T228 59v64q1 14-4.5 29T210 178l-37 47q-3 4-6 11.5t-3 12.5v187q0 2 2 4.5t3 3.5l6 3q5 2 12 3 12 3 39 3h154q8 0 11-3.5t8-14.5zM42 215q14 0 24 9.5T76 248v231q0 14-10 23t-24 9-23.5-9T9 479V248q0-14 9.5-23.5T42 215z"/></svg>