<svg xmlns="http://www.w3.org/2000/svg" viewBox="0 0 512 512"><path d="M456 192q0 3-2 7t-4 9v1q-7 14-17.5 34T411 280q-12 21-26 42l-13 24h65L312 513l28-114h-52l18-75q-20 4-52 15-9 4-20 2-10-2-24.5-8.5T175 308q-10-8-15-16-5-7-6.5-13.5t6.5-9.5q7-2 27.5-5t40.5-6q14-2 24-3t18-2q9-1 15-2h-58q-23 0-45-.5t-31-2.5q-10-1-20.5-9.5T111 218t-16-26.5T85 163q-3-5-1-9 1-3 6-4.5t18 2.5 41.5 10.5T208 175q34 8 75 16-52-16-93-30-18-6-35-12t-31.5-11.5-24-9.5-11.5-7q-5-5-11-18T66 73.5t-8.5-34T55 8q0-2 2-4 2-4 9-3 39 17 79 35 34 15 74 31.5T294 97q34 13 65.5 23t54 20.5 34.5 23 8 28.5z"/></svg>