<svg xmlns="http://www.w3.org/2000/svg" viewBox="0 0 512 512"><path d="M256 0q53 0 99.5 20T437 75t55 81.5 20 99.5-20 99.5-55 81.5-81.5 55-99.5 20-99.5-20T75 437t-55-81.5T0 256t20-99.5T75 75t81.5-55T256 0zm165 132q-9 11-36 34t-74 43q3 6 5.5 12.5T322 234q1 2 1.5 3.5t1.5 3.5q21-3 45-3 31 0 56 3.5t37 5.5q-3-64-42-115zm-32-34q-35-30-81-42t-91-3q10 14 30 44t42 69q45-17 68.5-38T389 98zM163 71q-40 20-68.5 55.5T55 206q20 0 69-4t111-19q-23-40-43.5-70.5T163 71zM49 256q0 74 48 133 6-10 20-28t35.5-38 50.5-39.5 66-31.5h2q-3-6-6-12.5t-6-12.5q-35 10-68.5 16t-61.5 9-49 3.5-30 .5h-1zm207 208q40 0 76-15-3-17-12.5-57.5T290 299q-38 14-66 32.5T177.5 368 148 401t-15 22q55 41 123 41zm124-42q31-23 51.5-56t28.5-71q-10-3-31.5-7t-50.5-4q-9 0-18 .5t-18 1.5q17 47 25.5 83t12.5 53z"/></svg>