<?xml version="1.0" encoding="UTF-8" standalone="no"?><svg   xmlns:svg="http://www.w3.org/2000/svg"   xmlns="http://www.w3.org/2000/svg"   version="1.1"   width="512"   height="512"   viewBox="0 0 512 512">  <path     d="M256 0Q309 0 355.5 20T437 75T492 156.5T512 256T492 355.5T437 437T355.5 492T256 512T156.5 492T75 437T20 355.5T0 256T20 156.5T75 75T156.5 20T256 0zM421 132Q412 143 385 166T311 209Q314 215 316.5 221.5T322 234Q323 236 323.5 237.5T325 241Q346 238 370 238Q401 238 426 241.5T463 247Q460 183 421 132zM389 98Q354 68 308 56T217 53Q227 67 247 97T289 166Q334 149 357.5 128T389 98zM163 71Q123 91 94.5 126.5T55 206Q75 206 124 202T235 183Q212 143 191.5 112.5T163 71zM49 256Q49 330 97 389Q103 379 117 361T152.5 323T203 283.5T269 252H271Q268 246 265 239.5T259 227Q224 237 190.5 243T129 252T80 255.5T50 256H49zM256 464Q296 464 332 449Q329 432 319.5 391.5T290 299Q252 313 224 331.5T177.5 368T148 401T133 423Q188 464 256 464zM380 422Q411 399 431.5 366T460 295Q450 292 428.5 288T378 284Q369 284 360 284.5T342 286Q359 333 367.5 369T380 422z"     id="dribbble" /></svg>