<svg xmlns="http://www.w3.org/2000/svg" viewBox="0 0 512 512"><path d="M263 1q52 2 97 22.5t79 55 53.5 80T512 256q0 53-20 100t-55 81.5-81.5 54.5-99.5 20-99.5-20T75 437.5 20 356 0 256q0-52 20-98.5t54-81 80-55T253 1q2-1 4-1t3 .5 3 .5zm170 153q-31-54-88-82 8 17 14 37.5t10 44.5h64zM256 52q-16 1-32.5 26.5T197 154h120q-10-49-26-74.5T260 52h-4zm-86 19q-59 28-91 83h66q5-24 11-45t14-38zm-31 236q-2-12-2-24.5v-52l1-25.5H58q-3 13-5 25.5T51 256q0 14 2 26.5t5 24.5h81zm-60 52q32 55 91 83-8-17-14-38t-11-45H79zm178 101q15 0 32-25t28-76H197q11 51 28 76t32 25zm67-153q2-11 2-24v-53.5l-2-24.5H190q-1 12-1.5 24.5T188 256v27l2 24h134zm20 134q58-27 89-82h-64q-5 23-11 44t-14 38zm110-134q3-12 5-24.5t2-26.5q0-13-2-25.5t-5-25.5h-78q1 13 1.5 25.5t.5 25.5q0 14-.5 26.5T376 307h78z"/></svg>