<svg xmlns="http://www.w3.org/2000/svg" viewBox="0 0 512 512"><path d="M139 219q-6-8-8-12-4-10-4-15t4-15q2-4 8-12 8-6 12-8 10-4 15-4t15 4q4 2 12 8 4 4 8 12 3 8 3 15 0 8-3 15-2 3-3.5 6t-4.5 6q-4 4-12 8-8 3-15 3-8 0-15-3-8-4-12-8zm180 0q-3-3-4.5-6t-3.5-6q-3-7-3-15 0-7 3-15 4-8 8-12 8-6 12-8 10-4 15-4t15 4q4 2 12 8 6 8 8 12 4 10 4 15t-4 15q-2 4-8 12-4 4-12 8-8 3-15 3-8 0-15-3-3-2-6-3.5t-6-4.5zm173-62q20 48 20 100 0 51-20 99-20 46-54 80-35 35-82 56-48 20-100 20t-100-20q-47-21-82-56-34-34-54-80-20-48-20-99 0-52 20-100 19-46 54-81t82-56Q204 0 256 0t100 20q47 21 82 56 34 35 54 81zm-47 179q17-39 17-79 0-42-17-81-8-18-19-34t-25-30q-27-27-66-44-36-16-79-16t-79 16q-39 17-66 44-14 14-25 30t-19 34q-17 39-17 81 0 40 17 79 8 18 19 34t25 30q27 27 66 44 36 16 79 16t79-16q39-17 66-44 14-14 25-30t19-34zm-84-44q6-8 15-8t15 7q7 7 7.5 16.5T392 324q-63 74-135 74h-5q-29-1-53.5-12.5t-41.5-25-27-25-11-12.5q-6-8-5.5-17.5T122 290q7-6 15.5-5.5T152 293l8 9 21.5 19.5 32 19.5 40.5 10q54 2 107-59z"/></svg>