<svg xmlns="http://www.w3.org/2000/svg" viewBox="0 0 512 512"><path d="M335 247q3 0 14.5 2t23.5 4q14 3 32 5-8-12-16-22-7-8-15-15t-15-7q-8 0-12 5.5t-7 11.5q-4 7-5 16zM437 69q3 6 10 15t14 32.5 12 67 5 117.5-16.5 116.5T426 481q-23 25-51 31h-57q-13 0-26.5-3.5t-25-12.5-19-24-7.5-38 12.5-35.5T281 380q18-7 42-8v40h-5q-2 0-6-.5t-8-.5q-8 0-13.5 5t-5.5 19q0 13 9 24 4 5 9 9h55q10 0 15.5-4.5t8.5-9.5q4-6 4-15v-47q0-20-18.5-35T316 342q-17 0-30-8t-23-19q-11-12-20-28v58q0 2-4 10t-16.5 15.5T187 382t-60-2q-32-4-51-29t-29-55.5-13.5-60T30 191q0-14 4.5-25t9.5-19q6-9 14-14h100l22-22V39q0-7 .5-14t4-12.5 13-9T225 0q17 0 30.5 5.5T277 18q10 8 16 18h63q9 0 21.5 3t24.5 8 22 10.5T437 69zm-301 42H52L158 6v84z"/></svg>