<svg xmlns="http://www.w3.org/2000/svg" viewBox="0 0 512 512"><path d="M227 145q-14 0-14-13V55q9 2 20 4.5t20 7.5l13 10 21 21 12 17q4 8 6 15t4 15h-82zm279 102q6 5 6 11 0 7-6 11L348 380q-7 4-13 2-7-5-7-12v-53h-19v97q0 16-11.5 27.5T269 453H38q-15 0-26.5-11.5T0 414V94q0-16 11.5-27.5T38 55h146v79q0 17 12 29t29 12h84v27q5-1 9.5-1.5t9.5-.5v-55q0-7 7-11 5-4 13 1zM44 180q-6 0-10.5 4T29 194q0 7 4.5 11t10.5 4h62q16 0 16-15 0-14-16-14H44zm0 77q-6 0-10.5 4T29 271q0 7 4.5 11t10.5 4h103q14 0 14-15 0-14-14-14H44zm114 106q1-8 2-14.5t3-14.5H44q-6 0-10.5 4T29 348q0 7 4.5 11t10.5 4h114zm320-105l-124-88v43q0 5-4 8.5t-9 3.5q-137 1-156 125 17-20 35-32t37.5-18 40-7.5T341 291q2 0 4.5 1.5t4.5 2.5q4 4 4 9v41z"/></svg>