<?xml version="1.0" encoding="UTF-8" standalone="no"?><svg   xmlns:svg="http://www.w3.org/2000/svg"   xmlns="http://www.w3.org/2000/svg"   version="1.1"   width="512"   height="512"   viewBox="0 0 512 512">  <path     d="M464 138V462Q464 473 460 481Q456 490 449 498Q445 502 441 504.5T432 509Q423 512 412 512H101Q90 512 81 509Q70 505 64 498Q56 490 53 481Q48 471 48 462V51Q48 42 53 32Q55 24 64 15T81 4Q89 0 101 0H325zM112 224H211V192H112V224zM112 304H277V272H112V304zM343 352H112V384H343V352zM448 160L320 32V160H448z"     id="file3" /></svg>