<svg xmlns="http://www.w3.org/2000/svg" viewBox="0 0 512 512"><path d="M324 191q13 12 21 29 7 19 7 36 0 18-7 37-8 17-21 29-6 6-13 11t-16 9q-15 7-37 7-21 0-36-7-9-4-16-9t-13-11q-13-12-21-29-7-19-7-37 0-17 7-36 8-17 21-29 11-13 29-20 15-7 36-7 22 0 37 7 18 7 29 20zm188 42v46h-49q-3 38-19 68-15 31-39 55-24 26-56 41-31 15-70 20v49h-45v-49q-38-3-68-19-33-16-55-39-26-25-41-57-17-33-20-69H0v-46h50q3-37 19-69 15-32 39-56 12-12 26-22t30-18q32-14 70-19V0h45v49q38 5 68 19 31 17 55 40 26 24 41 56 17 34 20 69h49zm-103 87q13-29 13-64 0-34-13-63-12-30-34-52t-52-34q-29-13-65-13-35 0-64 13-30 12-52 34-21 20-34 52-13 29-13 63 0 35 13 64 12 30 34 52 11 11 24 19.5t28 14.5q32 13 64 13 17 0 33.5-3.5T323 406t28-14.5 24-19.5 19.5-24 14.5-28z"/></svg>