<svg xmlns="http://www.w3.org/2000/svg" viewBox="0 0 512 512"><path d="M460 426q2 6 2 10v17q-1 3-1 6t-2 5q-6 22-24 35.5T394 513t-40.5-13.5T329 465q-7-22 0-42.5t27-34.5q4-2 4-7V175q0-15-9-26t-23-12h-36v68q-26-26-51.5-51T189 103q0 5-.5 8t-1.5 6q-6 27-28 42-4 3-4 8v214q0 5 3 7 20 14 27.5 35t-.5 43-27 35-42 12q-23-2-40.5-17.5T53 457q0-1-.5-2t-.5-2v-17l1-1q4-30 30-48 3-1 3-6V166q0-4-3-6-23-16-28-38-1-2-1.5-5t-1.5-5V95q0-2 .5-2.5T53 91q5-25 24-40.5T122 35q25 0 43.5 16.5T188 93q0 2 .5 4.5t.5 4.5q1-1 2-1l97-97 3-3v68h29q8 1 15 1t15 2q20 5 37 15.5t28 28.5q8 14 10.5 28t2.5 29v208q0 4 4 7 20 13 28 38zm-305 19q0-14-10-24.5T121 410t-24.5 10T86 444t10 24 24 11q14 0 24.5-10t10.5-24zm-34-308q14 0 24-10t10-24-10-24-24-10-24.5 10T86 103t10.5 24 24.5 10zm273 342q14 0 24-10t10-24-10-24.5-24-10.5-24 10-10 24 10 24 24 11z"/></svg>