<svg xmlns="http://www.w3.org/2000/svg" viewBox="0 0 512 512"><path d="M444 138v18l-1 1q-4 33-32 51-3 2-3 6 0 34-12 65-23 59-79 79-14 5-28 6.5t-28 1.5q-15 1-28 6t-24 18q3 1 4 4 14 17 16 39t-9 42q-11 19-30.5 29t-39.5 8q-23-3-39.5-17T88 459q-1-3-3-11v-18l1-1q4-33 32-51 3-3 3-7V141q0-4-4-7-22-16-29-40-2-8-3-11V64q0-1 .5-1.5T86 60q5-24 23.5-40.5T152 1q25-2 45 12t28 37 0 46.5-28 37.5q-4 3-4 8v167q4-1 8-4 16-7 33-9.5t34-2.5q50-2 64-50 2-7 2.5-13.5T336 216q1-5-5-10-20-14-27.5-36.5t.5-45.5q7-23 26-37t43-13q23 0 42 14.5t26 37.5zM121 74q0 15 10.5 25.5T157 110t25.5-10.5T193 73q-1-15-11.5-25.5T156 37q-14 0-24.5 11T121 74zm36 402q14 0 24.5-10.5T193 440q0-16-10.5-26.5T157 403t-25.5 10.5T121 439t10.5 26 25.5 11zm215-293q15 0 25.5-10.5T408 146q0-14-10.5-25T372 110t-25.5 11-10.5 26 10.5 25.5T372 183z"/></svg>