<svg xmlns="http://www.w3.org/2000/svg" viewBox="0 0 512 512"><path d="M351 366q30-11 46-34t20-55q2-16 2.5-31.5T414 215q-3-9-8-17t-9-16q-4-5-2-10 8-30-3-59-1-6-8-6-25 1-45 17-10 7-19.5 8t-20.5-2q-26-5-50.5-4t-49.5 7q-6 2-13-2-12-8-24-14t-26-9q-10-2-13-.5t-5 12.5q-8 28-1 52 2 6-1 8-18 23-22 48t1 52q13 80 95 95 5 1 9 1.5t7 .5l-6 16-7 16q-2 5-5 6-44 17-69-23-6-11-14.5-18.5T83 364h-3l-6 2-6 2q2 2 3.5 4.5T75 377q11 8 18.5 18.5T106 419q8 16 20.5 23.5T156 452q9 1 18 .5t18-.5q0 11 .5 23t-.5 24q0 8-5 10.5t-13 .5q-6-2-11.5-4.5T152 501q-39-18-69-46.5T33 390 5 313t-3-84 23-81 46-68 64-50 77-27q54-9 105 4t91.5 43.5T476 127t34 101q6 46-3.5 89.5t-32 81-56 66T343 508q-4 2-6 2-17 5-17-14v-64q0-14-2.5-28T304 379q13-4 24.5-6.5T351 366z"/></svg>