<svg xmlns="http://www.w3.org/2000/svg" viewBox="0 0 512 512"><path d="M189 320q-14-6-26-14t-22-19q-21-21-33-48-11-26-11-59 0-34 11-59 12-28 33-49 19-19 48-32 27-12 59-12t59 12q28 12 48 32 21 21 33 49 12 27 12 59 0 31-12 59-12 27-33 48-20 21-48 33-28 11-59 11t-59-11zm0-34q9 6 20 9-2-3-3.5-6.5T202 282q-2-5-6-13-2-4-2.5-7.5T191 255l-3-15h-45q7 12 13 18 5 8 15 16 7 6 18 12zm82-29q2-5 3-8.5t3-8.5h-58q2 5 3 8.5t3 8.5q2 8 7 15 2 4 3.5 7.5t3.5 7.5l9 14q2-3 4.5-6.5t4.5-7.5 3.5-7.5 3.5-7.5 4-7.5 3-7.5zm69 1q6-6 13-18h-45q0 4-1 7.5t-2 7.5q-2 4-2.5 7t-2.5 7q-2 3-3 6.5t-3 6.5-3.5 6.5-3.5 6.5q11-3 20-9 5-3 9.5-6t9.5-6l7.5-7.5 6.5-8.5zm-25-109v8q0 2 .5 4t.5 4v38q0 2-.5 3.5t-.5 3.5h51q2-4 2-7 1-2 1-4t1-4q0-4 1-7v-16q-1-3-1-8-1-2-1-4t-1-4q0-1-2-7h-51zm-8-75q-9-6-20-9 2 3 3.5 6l3.5 7q2 3 3 6.5t3 6.5q2 4 2.5 7t2.5 7q1 3 2 6.5t1 7.5h45q-3-5-6-9t-7-9q-3-4-6.5-7.5L326 86q-5-3-9.5-6t-9.5-6zm-82 29q-2 4-3 8t-3 8h58q-2-4-3-8t-3-8q-1-5-3-8.5t-4-7.5-3.5-7.5T257 72l-9-14-9 15q-2 4-3.5 7.5T232 87q-2 5-4 8.5t-3 7.5zm-15 85q0 2 .5 3.5t.5 3.5q1 3 1 8 0 2 .5 3.5t.5 3.5h70q0-2 .5-3.5t.5-3.5q1-2 1-4t1-4q0-2 .5-3.5t.5-3.5v-16q0-5-1-7v-8q-1-2-1-4t-1-4h-71q0 2-.5 4t-.5 4q0 5-1 8 0 2-.5 3.5t-.5 3.5v16zm-54-87q-3 5-6.5 9t-6.5 9h45q2-10 3-14 2-4 2.5-7t2.5-7q2-3 3-6.5t3-6.5q3-8 7-13-11 3-20 9l-18 12zm-27 102q1 2 1 3.5t1 3.5h52v-7q0-2-.5-4t-.5-4v-7q-1-3-1-8v-15q1-3 1-8t1-8h-52q-1 2-1 3.5t-1 3.5q0 2-.5 4t-.5 4q-1 3-1 8 0 2-.5 4t-.5 4 .5 4 .5 4q0 5 1 7 0 2 .5 4t.5 4zm336-23q0 43-16 81t-43.5 67.5-64.5 47-79 20.5v88h87v28H147v-28h87v-88q-21-1-41-6.5T154 375v1l-2-2q-11-5-23-13l16-23v1l7-11 23 15-6 9q37 17 79 17 39 0 73.5-15t60-40.5 40.5-60 15-73.5q0-42-16-77.5T376 41l-5 8-23-15 6-11 15-23q44 29 70 76t26 104z"/></svg>