<?xml version="1.0" encoding="UTF-8" standalone="no"?><svg   xmlns:svg="http://www.w3.org/2000/svg"   xmlns="http://www.w3.org/2000/svg"   version="1.1"   width="512"   height="512"   viewBox="0 0 512 512">  <path     d="M372 53H365Q385 79 385 120Q385 146 373 163T334 201Q317 214 312 220T307 236Q307 241 319 253T345 274Q379 297 393 322.5T407 386Q407 412 394.5 435T359 475T304 502T234 512T163.5 505T107 484.5T69 452.5T55 410Q55 385 68.5 363T105.5 324.5T160.5 298.5T228 289H231Q222 273 222 255V247T224 238Q164 237 127 203.5T90 117Q90 92 102.5 71T136.5 34T186 9T245 0H408H443L416 22L379 51L376 53H372zM173 107Q176 125 183.5 140.5T201.5 168T224.5 187T251 194Q277 195 292 172T302 114Q297 80 275 59T224 37Q197 36 182.5 54.5T173 107zM316 350Q313 348 309 345T300 338Q298 338 291.5 333.5T281 326H282L279 325L281 326Q261 321 245 321Q223 321 203.5 326.5T169.5 341.5T146.5 363.5T138 390Q138 419 165.5 440T234 461Q291 461 316 443T341 392Q341 387 339 379T332 364.5T316 350z"     id="google" /></svg>