<svg xmlns="http://www.w3.org/2000/svg" viewBox="0 0 512 512"><path d="M372 53h-7q20 26 20 67 0 26-12 43t-39 38q-17 13-22 19t-5 16q0 5 12 17t26 21q34 23 48 48.5t14 63.5q0 26-12.5 49T359 475t-55 27-70 10-70.5-7-56.5-20.5-38-32T55 410q0-25 13.5-47t37-38.5 55-26T228 289h3q-9-16-9-34v-8l2-9q-60-1-97-34.5T90 117q0-25 12.5-46t34-37T186 9t59-9h198l-27 22-37 29-3 2h-4zm-199 54q3 18 10.5 33.5t18 27.5 23 19 26.5 7q26 1 41-22t10-58q-5-34-27-55t-51-22q-27-1-41.5 17.5T173 107zm143 243q-3-2-7-5t-9-7q-2 0-8.5-4.5T281 326h1l-3-1 2 1q-20-5-36-5-22 0-41.5 5.5t-34 15-23 22T138 390q0 29 27.5 50t68.5 21q57 0 82-18t25-51q0-5-2-13t-7-14.5-16-14.5z"/></svg>