<svg xmlns="http://www.w3.org/2000/svg" viewBox="0 0 512 512"><path d="M178 263q-11-16-21-32.5T139 197q-6-12-8.5-24.5T144 149q2-2 2-6v-8q0-13-1.5-25.5T145 85q6-42 39.5-65T266 0q49 4 76 32.5t27 80.5q-1 2-1 7t-1 11q-2 7-1 12t7 11q11 9 8.5 20.5T373 197q-9 17-18.5 33.5T334 263q-17 23-37 35t-41 12-41.5-12-36.5-35zm-11-102q-12-5-16.5-2t-3.5 14q0 7 4 17 10 18 20 35.5t21 34.5q12 18 29 27t35 9 35-9 29-27q9-13 15.5-26l13.5-27q5-8 9.5-16t6.5-16q2-11-2.5-15.5t-16.5.5q1-10 1.5-18.5T350 124q-12 0-16-1-29-3-57-10t-52-27q-16-14-27-12.5T173 92q-13 17-11 33.5t5 35.5zm122 191l-24 20 24 59-33 23-33-23 24-59-24-20 13-17h40zm153 28q14 6 24.5 19t16.5 28.5 7 32-4 30.5-15 18-24 4H65q-14 0-24-4t-15-18-4-30.5 7-32T45.5 399 70 380q26-11 53-20t55-18q-2 45 18 74.5t48 55.5q6 6 12 6t12-6q28-26 48-55.5t18-74.5q28 9 55 18t53 20z"/></svg>