<svg xmlns="http://www.w3.org/2000/svg" viewBox="0 0 512 512"><path d="M68 378v-79H1v-88h67v-79l146 121zm23-101l-5 56 89-76-84-77v53H24v44h67zm9-153l-5-3 106-56q12-5 25-5 4 0 9.5 1t10.5 3l231 100q10 5 12 10.5t3 8.5q0 2-2 8t-12 11L268 305q-8 5-24 5-4 0-9.5-.5T224 307l-16-7 4-3 17-14 4 2q5 2 12.5 1.5T258 284l203-101-225-97q-5-2-12-2t-12 2l-97 51zm411 198q2 2 2 4 0 4-4 7-77 27-139 47-26 9-51.5 17t-46 14.5-34 10.5-15.5 4q-9 2-17 2t-15.5-2-15.5-9l-49-46 6-5 8-7q11 8 23.5 16t17.5 10q3 2 7 4.5t12 4 21.5 1T258 389q38-11 77-25 32-11 69.5-27t68.5-35q2-1 5-2 4-1 13 2zm-43-89q3-3 7-4 3-1 7.5-.5t9.5 4.5l18 11q2 3 3 6 2 5-6 8-20 9-42 20-19 9-41.5 19.5T381 316q-41 18-77 32.5T254 365q-11 2-24 0t-30-9l-12-6-23-12 4-4 13-11q7 3 13.5 6t11.5 5q4 2 17.5 4t17.5 2q3 0 7-1 3-1 6.5-1t8.5-2q4-1 15.5-5.5T305 320t29-13.5 26-13.5q16-8 34.5-19t35.5-20q19-11 38-21z"/></svg>