<svg xmlns="http://www.w3.org/2000/svg" viewBox="0 0 512 512"><path d="M489 205q20 20 20 49 0 27-17 46L308 493q-8 9-18.5 13.5T268 512h-3q-25 0-41-18L21 300Q3 282 3 254t19-50q6-6 14-11l1-1q3-2 12-5.5t18-3.5h25V63q0-25 18-44t41-19h210q23 0 38.5 16.5T415 58v125h36q2 0 7 2.5t10 4.5l12 6q2 2 4.5 4t4.5 5zm-20 74q9-9 9-25 0-17-11-28l-5-5q-9-6-15-7h-62V57q0-11-7-18.5T361 31H151q-10 0-19 9-10 12-10 23v151H67q-1 1-3 1-2 1-4.5 1t-6.5 2l-1 1q-2 1-7 6-11 13-11 29 0 14 8 24l203 194 1 1q8 8 19 8h2q11 0 19-8v-1zM345 150q3 0 3 2 2 2 0 4l-72 110h59q3 0 3 3v25q0 4-3 4h-62v60q0 4-3 4h-29q-4 0-4-4v-60h-62q-4 0-4-4v-25q0-3 4-3h60l-71-110q-2-2 0-4t3-2h35q1 0 3 2l51 88 51-88q2-2 3-2h35z"/></svg>