<svg xmlns="http://www.w3.org/2000/svg" viewBox="0 0 512 512"><path d="M491 319q23 24 21.5 58.5T487 437q-26 27-51 51-13 12-29.5 18t-33 5.5-32.5-7-29-18.5q-15-15-29.5-30.5T252 426q-15-13-23-30.5t-8.5-36 6-36T247 291q-1-2-3-4l-23-23q-11 11-23.5 18t-28.5 9q-19 2-36.5-1.5T101 272q-21-19-41.5-39T20 192Q9 180 4.5 165.5t-4.5-30T5.5 105 22 79q27-31 58-58 12-11 28-16t32-4.5T171.5 7 199 25l34 34 34 34q24 25 25 62t-27 66q7 6 13 12.5t14 13.5q11-11 24.5-17.5T346 221q19-2 36 2.5t31 17.5q40 38 78 78zM221 177q21-22 0-43l-31.5-31.5L158 70q-9-8-20-8.5T117 69l-48 48q-8 8-8 19t8 19q33 35 68 68 9 8 20.5 7t19.5-9q-5-5-9-9.5t-7-9.5q-7-8-5.5-19t9.5-19 18.5-9 18.5 6q5 3 9.5 7t9.5 9zm221 219q8-8 8.5-19t-7.5-20q-33-35-68-68-9-8-20-7t-21 11q4 3 7.5 5.5t6.5 6.5q9 11 8.5 23t-9.5 20-21 8-22-9q-3-3-6-6.5t-6-6.5q-22 23-1 44 16 16 31 31.5t31 30.5q10 10 22 10.5t22-9.5l22.5-22.5z"/></svg>