<?xml version="1.0" encoding="UTF-8" standalone="no"?><svg   xmlns:svg="http://www.w3.org/2000/svg"   xmlns="http://www.w3.org/2000/svg"   version="1.1"   width="512"   height="512"   viewBox="0 0 512 512">  <path     d="M6 171H116V501H6V171zM62 12Q91 12 107 28.5T123 69T106.5 109.5T61 126Q33 126 16.5 109.5T0 69T17 28.5T62 12zM386 164Q440 164 476 200T512 312V501H402V325Q402 291 389 270.5T347 250Q324 250 310 263T290 290Q288 295 287.5 302T287 317V501H177V348V171H287V218Q286 218 286 219H287V218Q292 210 300 200.5T319.5 183T347.5 169.5T386 164z"     id="linkedin" /></svg>