<svg xmlns="http://www.w3.org/2000/svg" viewBox="0 0 512 512"><path d="M153 229h205v52H153v-52zm347-38q13 30 12 64 1 34-12 64-6 16-14 29t-17 24q-25 25-50 36-26 13-61 13h-77v-53h78q21 0 42-8 20-9 32-24 16-18 23-37 8-21 9-44-1-23-9-44-7-19-23-37-12-15-32-24-21-8-42-8h-78V89h77q35 0 61 13 25 11 50 36 9 11 17 24t14 29zM112 360q21 8 43 8h75v53h-76q-33 0-60-13-29-12-48-36-23-23-33-53-11-29-13-64 2-35 13-64 10-30 33-53 19-24 48-36 27-13 60-13h76v53h-75q-22 0-43 8-18 9-33 24-13 16-22 37-9 22-8 44-1 22 8 44 9 21 22 37 15 15 33 24z"/></svg>