<svg xmlns="http://www.w3.org/2000/svg" viewBox="0 0 512 512"><path d="M507 361q-1 5-1.5 9t-1.5 8q-4 9-10 14-4 6-13 10-7 4-14 4 0-2 .5-3t.5-3V128q2-9-3-17-2-5-4-8t-4-7q-4-3-7.5-5.5T442 86q-8-3-16-3H92q0-6 3-11 3-8 8-15 4-3 7.5-5.5T118 47t7.5-3 8.5-1h331q7 0 17 4 3 2 6.5 4.5T496 57q4 6 9 15 3 9 2 17v272zm-88-204q2 4 2.5 8t.5 9v247q-1 5-1.5 9t-2.5 9q-1 6-9 14-6 6-14 10-10 4-15 4H48q-4 0-7.5-1t-8.5-3q-4-2-7.5-4.5T19 453q-6-5-10-14l-3-18 1-247q-1-8 2-17 2-4 4.5-7.5T18 143q6-6 14-11 7-3 17-3h331q8 0 16 3 4 2 7.5 4.5t7.5 6.5q5 7 8 14zm-39 63l-1-46-164 114L48 174l1 46 165 112z"/></svg>