<svg xmlns="http://www.w3.org/2000/svg" viewBox="0 0 512 512"><path d="M331 366q21 11 37 29 16 16 16 39 0 3-1 14.5t-4.5 25-10 24.5-16.5 14H32q-10-3-16.5-14.5T5.5 473 1 448.5 0 434q0-23 16-39 15-17 38-29 11-6 22.5-11t24.5-9q13-3 23.5-5.5T144 337q-1-3-3.5-7.5T134 318t-8-15.5-8-19.5q-9-24-15-50-7-28-7-66 0-11 2-20.5t5-18.5q8-19 21-32 7-7 14.5-12.5T155 74q15-7 37-7t37 7q9 4 16.5 9.5T260 96q13 13 21 32 3 9 5 18.5t2 20.5q0 38-7 66-6 26-15 50-4 11-8 19.5t-7 15.5q-4 7-6.5 11.5T241 337q9 1 19.5 3.5T284 346q13 4 24.5 9t22.5 11zm169-93q12 12 12 27 0 8-3 21t-6 19q-3 8-9.5 12t-13.5 4h-80q-3-8-11.5-21T372 314q-9-5-20-11t-20-11q4-12 7.5-25.5T346 237q6-31 6-70 0-43-18-78-10-18-22-33t-28-26q27-30 68-30 19 0 37 8 17 7 31 21 13 13 21 32 3 10 5 19.5t2 19.5q0 8-1.5 16.5T443 136q-3 10-6.5 19.5T430 175q-5 9-8 18t-7 17-6 14-4 11q12 2 29 6 20 5 36 13 18 8 30 19z"/></svg>