<svg xmlns="http://www.w3.org/2000/svg" viewBox="0 0 521 512"><path d="M296 123q-24 2-47.5 3.5T201 128q-6 0-12.5-5.5T176 112q6-5 12-12t13-8q23-2 47-1t47 0q13-1 25.5-.5T333 109q0 5-12 10.5T300 130q-1-2-2-3.5t-2-3.5zM86 512q-5-5-12.5-9.5T64 491q-1-7 5-17t12-12q36-6 68-20.5t61-33 57-40 57-41.5q2-2 5-4t5-3q6-1 12 0t12 1q-2 5-2.5 11.5T352 342q-17 16-34 30t-33 30q-38 37-83.5 60.5T108 506q-4 2-8.5 3zm183-67q21 1 40.5 3.5t38.5-.5q29-5 49.5-24t32.5-45q15-32 2-54t-48-26q-10-2-16-11-15-22-30.5-24T301 279q-35 28-70.5 55T158 386q-20 13-41.5 21T72 420q-7 2-16.5-5T37 403q7-6 13-14.5T64 378q30-5 56.5-16.5T172 335t49-32 48-33q3-2 3.5-8t3.5-10q5-7 10-16t10-9q35 0 70 4t65 30q21 17 33.5 43t13 55-14 58-47.5 51q-34 22-71 35-33 12-54-4.5T269 445zm-78-221q-12-1-23.5-1.5t-22-3-19.5-9-16-18.5q-5-8-8-26.5t-4.5-39 0-39T104 62q4-5 9.5-8.5T124 51t9.5 7 4.5 11q2 14 .5 28.5T138 126q2 57 56 54 38-2 75-4.5t74-5.5q48-3 42-50-3-24-8-39.5T362 56t-26-12-40-3q-29 0-58 3t-58 4q-9 1-18-3.5L145 36q7-7 14-15.5T174 10q50-13 99.5-10T372 17q14 4 26.5 17.5T416 62q7 20 8.5 42.5T427 150q1 26-13.5 41.5T373 209t-53 2.5-54 2.5q-6 0-13 2t-10 7q-30 45-73 65.5T76 317q-8 2-18-2t-19-8q-2-1-2.5-8.5T38 290q9-4 18.5-7.5T75 279q35-2 63-17t53-38z"/></svg>