<?xml version="1.0" encoding="UTF-8" standalone="no"?><svg   xmlns:svg="http://www.w3.org/2000/svg"   xmlns="http://www.w3.org/2000/svg"   version="1.1"   width="512"   height="512"   viewBox="0 0 512 512">  <path     d="M256 0Q309 0 356 20T437.5 74.5T492 156T512 256T492 355.5T437.5 437T356 492T256 512T156.5 492T75 437T20 355.5T0 256T20 156T75 74.5T156.5 20T256 0zM159 190H132V278H131L76 190H48V321H75V233L130 321H159V190zM284 297H213V265H277V242H213V214H283V190H184V321H284V297zM464 190H436L415 280H414L392 190H365L342 279H341L321 190H292L326 321H356L378 232L400 321H429z"     id="new" /></svg>