<svg xmlns="http://www.w3.org/2000/svg" viewBox="0 0 512 512"><path d="M117 365h396v71H117v-71zm0-144h396v72H117v-72zM513 78v72H117V78h396zM81 313H3v-4q2-15 7-24 4-5 8-9.5t10-8.5q2-2 5-3.5t6-3.5q3-3 9-7 3-3 7-9 3-3 3-9 0-3-1-5 0-1-2-5-2-2-4-3-2-2-6.5-2t-7.5 2q-3 1-4 4-2 2-2 3.5t-1 3.5q-1 3-1 10v3H5v-3q0-9 3-17 4-10 7-14 6-6 13-9 4-2 8-3t9-1q7 0 17 4 8 3 11 9 3 3 7 11 1 4 1 12v6.5l-2 5.5q-1 4-5 10-2 2-4 4.5t-4 4.5-4.5 3.5T57 273l-9 6q-2 2-4 2.5t-4 2.5q-3 2-7 6v1h48v22zm-13 81q5 3 8 8 6 8 6 19 0 9-4 14-3 6-8 11-5 4-13 7-8 2-15 2-10 0-16-3-6-1-13-8-6-6-7-12-3-7-3-16v-3h23v3q0 9 4 14 5 5 12 5 8 0 12-4 5-5 5-11 0-4-2-8-1-2-5-4t-8-2q-2 0-3.5-.5T37 405l-5 1v-19h4q2 0 3.5-.5t3.5-.5 6-2q3-1 4-4 2-4 2-6 0-4-4-8-3-4-9-4-4 0-6 2-2 1-5 4-2 2-2 5-1 3-1 7v3H5v-3q0-7 3-15 4-8 7-12 3-2 5.5-4t6.5-4q14-5 28-1 7 2 11 6 6 3 9 9t3 14q0 7-4 15-2 2-3 3.5t-3 2.5zM34 95H8V74h13q6-2 8-3 4-1 6-5 2-2 4-7v-2h20v113H34V95z"/></svg>