<svg xmlns="http://www.w3.org/2000/svg" viewBox="0 0 512 512"><path d="M256 0q53 0 99.5 20T437 75t55 81.5 20 99.5-20 99.5-55 81.5-81.5 55-99.5 20-99.5-20T75 437t-55-81.5T0 256t20-99.5T75 75t81.5-55T256 0zm0 474q45 0 84.5-17t69.5-47 47-69.5 17-84.5-17-84.5-47-69.5-69.5-47T256 38t-84.5 17-69.5 47-47 69.5T38 256t17 84.5 47 69.5 69.5 47 84.5 17zm88-349q5-5 13.5-5t13.5 5q5 6 5 14t-5 13l-71 71h51q8 0 13.5 5.5T370 242t-5.5 14-13.5 6h-76v36h76q8 0 13.5 6t5.5 14-5.5 13.5T351 337h-76v58q0 8-5.5 13.5T256 414t-13.5-5.5T237 395v-58h-76q-8 0-13.5-5.5T142 318t5.5-14 13.5-6h76v-36h-76q-8 0-13.5-6t-5.5-14 5.5-13.5T161 223h51l-71-71q-5-5-5-13t5-14q6-5 14-5t13 5l88 88z"/></svg>