<svg xmlns="http://www.w3.org/2000/svg" viewBox="0 0 512 512"><path d="M510 243q4 9 0 18-22 42-50.5 74.5t-61 55.5-69 35-73.5 12q-38 0-74-12t-68.5-35-61-55.5T2 261q-5-9 0-18 22-42 50.5-74.5t61-55.5T182 78t74-12q37 0 73.5 12t69 35 61 55.5T510 243zM256 399q63 0 119-38t96-109q-40-71-96-109t-119-38-119 38-96 109q40 71 96 109t119 38zm0-246q42 0 70.5 28.5T355 252t-28.5 70.5T256 351t-70.5-28.5T157 252t28.5-70.5T256 153zm0 160q26 0 43.5-17.5T317 252t-17.5-43.5T256 191t-43.5 17.5T195 252t17.5 43.5T256 313z"/></svg>