<svg xmlns="http://www.w3.org/2000/svg" viewBox="0 0 512 512"><path d="M447 432q9 11 2 23-6 12-20 12H320q-8 20-25 32.5T256 512t-39-12.5-25-32.5H83q-14 0-20-12-7-12 2-23l14-21q17-23 17-53V237q0-27 9-52t25-45 37.5-34.5T215 84q-10-15-10-31 0-22 15.5-37.5T259 0q22 0 37.5 15.5T312 53q0 18-11 32 25 8 46 22.5t36.5 34 24 44T416 237v121q0 30 17 53zM259 38q-7 0-11 4.5T244 53q0 15 15 15 14 0 14-15 0-6-4-10.5T259 38zm140 391q-22-33-22-71V237q0-25-9.5-47t-26-38.5-38.5-26-47-9.5-47 9.5-38.5 26-26 38.5-9.5 47v121q0 38-22 71h286z"/></svg>