<svg xmlns="http://www.w3.org/2000/svg" viewBox="0 0 512 512"><path d="M411 470q2 8-2.5 14.5T396 493h-4q-16 0-19-15l-15-74q-5-7-11-10l-95-33q-13-5-20.5-15.5T224 322v-14q0-28 23-49 23-18 23-49v-39q0-27-18.5-45.5T206 107q-26 0-45 18.5T142 171v39q0 29 24 50 22 19 22 48v14q0 13-7.5 23.5T161 361l-95 33q-6 3-12 10l-15 74q-2 8-8 12.5T17 493t-12.5-8.5T2 470l16-77q0-1 .5-2t.5-2q11-22 34-30l95-34q2-2 2-3v-14q0-11-9-19-17-15-27-35.5T104 210v-39q0-21 8-40t22-33 32.5-22 39.5-8 40 8 33 22 22 33 8 40v39q0 23-10 43.5T272 289q-9 8-9 19v14q0 2 2 3l94 34q23 8 34 30 2 2 2 4zm99-49q2 8-2.5 14t-12.5 8q-1 0-1.5.5t-2.5.5q-14 0-18-16l-15-74q-5-6-12-9l-95-34q-12-5-19.5-15.5T324 272v-14q0-14 6-26.5t17-21.5q23-21 23-49v-40q0-26-19-45t-45-19q-13 0-22 4-8 2-15-1t-9-11q-3-8 .5-15t10.5-9q16-6 35-6 21 0 39.5 8T378 49t22 32.5 8 39.5v40q0 23-9.5 43.5T371 239q-9 8-9 19v14q0 3 2 3l95 34q23 8 34 30 0 1 .5 2t.5 3z"/></svg>