<svg xmlns="http://www.w3.org/2000/svg" viewBox="0 0 512 512"><path d="M250 0q25 0 47 9.5t38.5 26 26 38.5 9.5 47v48q0 27-11.5 51.5T327 262q-13 10-13 27v16q0 6 6 8 17 7 12 24-3 8-10 11.5t-15 .5q-14-5-22.5-17t-8.5-27v-16q0-35 27-57 30-24 30-63v-48q0-35-24-59t-59-24q-34 0-58.5 24T167 121v48q0 39 31 64 26 21 26 55v17q0 15-8.5 27T193 349L77 390q-11 5-16 14l-19 91q-4 16-19 16-1 0-1.5-.5T19 510q-8-2-12.5-8T4 488l20-94q0-2 .5-3t.5-2q13-26 39-35l116-41q5-2 5-8v-17q0-15-12-26-21-17-32.5-41.5T129 169v-48q0-25 9.5-47t26-38.5 38.5-26T250 0zm191 280q28 0 47.5 20t19.5 48q0 20-11 36.5T468 409q-8 5-8 12v8q0 8-5.5 14t-13.5 6-14-6-6-14v-8q0-15 8.5-27.5T452 374q18-7 18-26 0-12-8.5-20.5T441 319q-18 0-26 15-4 8-11.5 10t-14.5-2-9.5-11 1.5-15q9-17 24.5-26.5T441 280zm0 186q9 0 15.5 6.5T463 488q0 10-6.5 16.5T441 511q-10 0-16.5-6.5T418 488q0-9 6.5-15.5T441 466z"/></svg>