<svg xmlns="http://www.w3.org/2000/svg" viewBox="0 0 512 512"><path d="M371 0q35 0 59 24t24 59v410q0 8-5.5 13.5T435 512H77q-8 0-14-5.5T57 493V83q0-35 24.5-59T141 0h230zm45 83q0-18-13-31.5T371 38H141q-19 0-32 13.5T96 83v391h109v-96q0-19 19-19h64q19 0 19 19v96h109V83zm-223 0q8 0 13.5 5.5T212 102v23q0 8-5.5 13.5T193 144h-23q-19 0-19-19v-23q0-8 5.5-13.5T170 83h23zm149 0q8 0 13.5 5.5T361 102v23q0 19-19 19h-23q-8 0-13.5-5.5T300 125v-23q0-8 5.5-13.5T319 83h23zm0 87q8 0 13.5 5.5T361 189v23q0 19-19 19h-23q-8 0-13.5-5.5T300 212v-23q0-8 5.5-13.5T319 170h23zm-149 0q8 0 13.5 5.5T212 189v23q0 8-5.5 13.5T193 231h-23q-19 0-19-19v-23q0-8 5.5-13.5T170 170h23zm0 87q8 0 13.5 5.5T212 276v23q0 8-5.5 13.5T193 318h-23q-19 0-19-19v-23q0-8 5.5-13.5T170 257h23zm149 0q8 0 13.5 5.5T361 276v23q0 19-19 19h-23q-8 0-13.5-5.5T300 299v-23q0-8 5.5-13.5T319 257h23z"/></svg>