<svg xmlns="http://www.w3.org/2000/svg" viewBox="0 0 512 512"><path d="M506 430q6 5 6 13t-6 14l-50 50q-6 6-14 6-9 0-13-6L318 397q-16-18-16-39 0-11 5-23l-13-13q-51 40-113 40-35 0-68.5-13T53 310t-39.5-59T0 182q0-37 13.5-69.5T53 54q26-27 59.5-40t68-13 68 13T309 54q26 26 39.5 58.5T362 182q0 63-41 113l13 13q16-7 32.5-4t29.5 15zM80 282q21 21 47.5 31.5T181 324t53-10.5 47-31.5 31.5-47 10.5-53-10.5-53.5T281 81q-20-21-46.5-31.5T181 39q-28 0-54 10.5T80 81t-31 47.5T39 182t10 53 31 47zm386 161l-97-97q-5-4-12-4t-12 4q-4 4-4 12t4 12l97 97z"/></svg>