<svg xmlns="http://www.w3.org/2000/svg" viewBox="0 0 512 512"><path d="M483 358q7-4 14.5-1.5T509 366q4 8 1.5 15t-9.5 11L283 504q-11 7-27 7-14 0-27-7L12 392q-7-4-9.5-11T4 366q4-7 11-9.5t15 1.5l217 112q9 5 19 0zM27 192q-12-6-18.5-17T2 152q0-26 25-40L230 7q26-13 52 0l203 105q26 15 26 40 0 12-7 23t-19 17L282 297q-12 6-26 6t-26-6zm18-46q-5 3-5 6t5 6l203 105q8 5 17 0l203-105q5-3 5-6t-5-6L265 41q-6-2-9-2-4 0-8 2zm438 106q7-4 14.5-1.5T509 260q4 8 1.5 15t-9.5 11L283 399q-12 6-27 6-14 0-27-6L12 286q-7-4-9.5-11T4 260q4-7 11-9.5t15 1.5l217 113q9 5 19 0z"/></svg>