<svg xmlns="http://www.w3.org/2000/svg" viewBox="0 0 512 512"><path d="M419 256q14 13 28 29t24 33 12.5 34-6.5 32q-8 14-23.5 20t-37.5 6q-34 0-79-14-4 19-11 39.5T309.5 473t-23 28-30.5 11q-29 0-49.5-32.5T175 397q-19 5-39.5 9.5T96 411q-20 0-36.5-6T35 384q-15-26 2.5-59.5T93 256q-14-13-28-29t-24-33-12.5-34 6.5-32q4-7 11-13.5t20-10 31.5-4T142 106l33 9q4-19 11-39t16.5-37 23-28T256 0q29 0 49.5 32t31.5 83q19-6 40-10t40.5-4 35.5 6 24 21q15 25-2.5 59T419 256zm25-109q-3-6-27-8t-73 14q4 25 6 51t2 52v5q54-40 76-72t16-42zM256 38q-7 0-20.5 20T211 128q23 9 46.5 20t46.5 25q2 1 2.5 1.5t2.5 1.5q-8-67-25-102.5T256 38zm51 218q0-21-15-36t-36-15-36 15-15 36 15 36 36 15 36-15 15-36zM68 364q3 6 27 8t73-14q-4-24-6-50t-2-52v-6q-54 41-76 72.5T68 364zm55-133q41-33 85-58 2-1 2.5-1.5t2.5-1.5q-43-19-79-26-34-8-49-4.5T68 147q-4 6 6.5 27.5T123 231zm133 242q7 0 20.5-19.5T301 384q-23-9-46.5-20.5T208 339q-2-1-2.5-1.5T203 336q8 67 25 102t28 35zm188-109q4-5-6.5-26.5T389 281q-20 16-41 30t-44 28q-4 2-5 2 62 27 101 30.5t44-7.5z"/></svg>