<svg xmlns="http://www.w3.org/2000/svg" viewBox="0 0 512 512"><path d="M472 422q5 9-2 19-7 9-17 8l-69-3-42 56q-6 7-16 7h-2q-11-2-16-11l-52-118-52 118q-5 9-16 11h-2q-10 0-16-7l-42-56-69 3q-10 1-17-8-7-10-2-19l73-164q-3-5-6-10.5t-5-11.5q-7-15-10-31.5T89 171q0-36 13-66 14-31 36-53 11-11 24.5-20.5T191 16q30-13 65-13t65 13q15 6 28.5 15.5T374 52q22 22 36 53 13 30 13 66 0 17-3 33.5T410 236q-2 6-5 11.5t-6 10.5zm-240-85q-20-3-41-11-27-11-51-34L88 409l49-2q9-2 16 7l29 38zm24-37q26 0 49-9.5t41-28.5q19-18 28.5-41.5T384 171q0-54-38-92-37-37-90-37t-90 37q-38 38-38 92 0 26 9.5 49.5T166 262q18 19 41 28.5t49 9.5zm168 109l-52-117q-24 23-51 34-21 8-41 11l50 115 29-38q7-9 16-7zM256 97q30 0 51.5 21.5T329 171t-21.5 52.5T256 245t-51.5-21.5T183 171t21.5-52.5T256 97zm0 109q14 0 24-10.5t10-24.5-10-24.5-24-10.5-24 10.5-10 24.5 10 24.5 24 10.5z"/></svg>