<svg xmlns="http://www.w3.org/2000/svg" viewBox="0 0 512 512"><path d="M396 215q26 0 44.5 18.5T459 278v170q0 26-19 45t-45 19H117q-26 0-45-19t-19-45V278q0-26 18.5-44.5T116 215v-75q0-29 11-54.5T157 41t44.5-30T256 0t54.5 11T355 41t30 44.5 11 54.5v75zm-241 0h202v-75q0-21-8-39.5T327.5 68t-32-22-39.5-8-39.5 8-32 22-21.5 32.5-8 39.5v75zm265 64q0-11-7-18.5t-18-7.5H117q-11 0-18.5 7.5T91 279v169q0 11 7.5 18.5T117 474h278q11 0 18-7.5t7-18.5V279zm-164 49q16 0 27 11t11 28q0 16-11 27t-27 11-27-11-11-27q0-17 11-28t27-11z"/></svg>