<?xml version="1.0" encoding="UTF-8" standalone="no"?><svg   xmlns:svg="http://www.w3.org/2000/svg"   xmlns="http://www.w3.org/2000/svg"   version="1.1"   width="512"   height="512"   viewBox="0 0 512 512">  <path     d="M408 239Q416 239 421.5 244T427 257Q427 276 408 276H332Q313 276 313 257Q313 249 318.5 244T332 239H408zM474 138Q498 156 498 187V456Q498 479 484 495.5T450 512H61Q41 512 27 495.5T13 456V187Q13 156 37 138L101 95L124 16Q127 6 136 3Q138 2 140.5 2H144H366H370T375 3Q384 6 387 16L410 95zM284 103L329 155L374 107L358 52zM137 107L182 155L227 103L153 52zM237 150L196 196Q191 202 182 202Q174 202 168 196L110 135L59 170Q51 176 51 187V456Q51 464 55 469.5T61 475H236zM460 187Q460 176 452 170L401 135L343 196Q337 202 329 202Q319 202 315 196L275 151V475H450Q452 475 456 469.5T460 456V187z"     id="org-dress" /></svg>