<svg xmlns="http://www.w3.org/2000/svg" viewBox="0 0 512 512"><path d="M502 488q2 8-2.5 14.5T487 511h-4q-16 0-19-15l-19-91q-6-11-16-14l-116-41q-14-5-22.5-17t-8.5-27v-17q0-16 7-30.5t19-25.5q15-12 22.5-28.5T338 170v-48q0-35-23.5-59T256 39t-58.5 24-23.5 59v48q0 39 30 63 26 23 26 56v17q0 15-8.5 27T199 350L83 391q-10 3-16 14l-19 91q-2 8-8.5 12.5T25 511t-12.5-8.5T10 488l20-94q0-1 .5-2t.5-2q14-26 40-35l115-41q5-2 5-8v-17q0-17-12-26-21-17-32.5-41.5T135 170v-48q0-25 9.5-47t26-38.5 38.5-26T256 1t47 9.5 38.5 26 26 38.5 9.5 47v48q0 27-11.5 51.5T333 263q-12 9-12 26v17q0 6 5 8l115 41q28 9 40 35 0 1 .5 2t.5 2l20 94z"/></svg>