<svg xmlns="http://www.w3.org/2000/svg" viewBox="0 0 512 512"><path d="M159 0q29 0 48.5 20T227 68v91q0 29-19.5 48.5T159 227H68q-28 0-48-19.5T0 159V68q0-28 20-48T68 0h91zm27 68q0-11-8-19t-19-8H68q-11 0-19 8t-8 19v91q0 11 8 19t19 8h91q11 0 19-8t8-19V68zM444 0q28 0 48 20t20 48v91q0 29-20 48.5T444 227h-91q-29 0-48.5-19.5T285 159V68q0-28 19.5-48T353 0h91zm27 68q0-11-8-19t-19-8h-91q-11 0-19 8t-8 19v91q0 11 8 19t19 8h91q11 0 19-8t8-19V68zM159 284q29 0 48.5 20t19.5 48v91q0 29-19.5 48.5T159 511H68q-28 0-48-19.5T0 443v-91q0-28 20-48t48-20h91zm27 69q0-11-8-19.5t-19-8.5H68q-11 0-19 8.5T41 353v91q0 11 8 19t19 8h91q11 0 19-8t8-19v-91zm258-69q28 0 48 20t20 48v91q0 29-20 48.5T444 511h-91q-29 0-48.5-19.5T285 443v-91q0-28 19.5-48t48.5-20h91zm27 69q0-11-8-19.5t-19-8.5h-91q-11 0-19 8.5t-8 19.5v91q0 11 8 19t19 8h91q11 0 19-8t8-19v-91z"/></svg>