<?xml version="1.0" encoding="UTF-8" standalone="no"?><svg   xmlns:svg="http://www.w3.org/2000/svg"   xmlns="http://www.w3.org/2000/svg"   version="1.1"   width="512"   height="512"   viewBox="0 0 512 512">  <path     d="M500 96Q512 101 512 114V483Q512 491 506.5 496.5T493 502H19Q11 502 5.5 496.5T0 483V114Q0 101 12 96T34 101L128 202L220 120Q194 102 194 70Q194 44 212 26T256 8T300 26T318 70Q318 102 292 120L384 202L478 101Q488 91 500 96zM256 46Q246 46 239.5 53T233 70Q233 79 239.5 86T256 93T272.5 86T279 70Q279 60 272.5 53T256 46zM39 163V350H473V163L399 243Q394 248 386 248.5T372 244L256 140L140 244Q134 249 126 248.5T113 243zM473 463V389H39V463H473z"     id="org-crown" /></svg>