<?xml version="1.0" encoding="UTF-8" standalone="no"?><svg   xmlns:svg="http://www.w3.org/2000/svg"   xmlns="http://www.w3.org/2000/svg"   version="1.1"   width="512"   height="512"   viewBox="0 0 512 512">  <path     d="M506 430Q512 435 512 443T506 457L456 507Q450 513 442 513Q433 513 429 507L318 397Q302 379 302 358Q302 347 307 335L294 322Q243 362 181 362Q146 362 112.5 349T53 310T13.5 251T0 182Q0 145 13.5 112.5T53 54Q79 27 112.5 14T180.5 1T248.5 14T309 54Q335 80 348.5 112.5T362 182Q362 245 321 295L334 308Q350 301 366.5 304T396 319zM80 282Q101 303 127.5 313.5T181 324T234 313.5T281 282T312.5 235T323 182T312.5 128.5T281 81Q261 60 234.5 49.5T181 39Q153 39 127 49.5T80 81T49 128.5T39 182T49 235T80 282zM466 443L369 346Q364 342 357 342T345 346Q341 350 341 358T345 370L442 467z"     id="org-search" /></svg>