<svg xmlns="http://www.w3.org/2000/svg" viewBox="0 0 512 512"><path d="M256 0q53 0 99.5 20T437 75t55 81.5 20 99.5-20 99.5-55 81.5-81.5 55-99.5 20-99.5-20T75 437t-55-81.5T0 256t20-99.5T75 75t81.5-55T256 0zm0 479q42 0 80-15.5t67-41.5l-5-27q-5-6-12-9l-87-31q-25-10-25-36v-12q0-27 21-44 21-18 21-47v-36q0-26-17.5-43.5T256 119t-42.5 17.5T196 180v36q0 29 21 47 21 17 21 44v12q0 26-25 36l-87 31q-8 3-12 9l-5 25-1 2q30 26 67.5 41.5T256 479zm175-86q23-29 35-63.5t12-73.5q0-46-17.5-86.5T413 99t-70.5-47.5T256 34t-86.5 17.5T99 99t-47.5 70.5T34 256q0 39 12 73.5T81 393l1-7q0-1 .5-2t.5-2q11-21 31-27l88-32q3 0 3-4v-12q0-12-9-18-17-14-25.5-33t-8.5-40v-36q0-19 7.5-36.5t20-30 29.5-20 37-7.5q19 0 36.5 7.5t30 20 20 30T350 180v36q0 44-34 72-9 8-9 19v12q0 4 3 4l88 32q20 6 31 27 0 1 .5 2t.5 2z"/></svg>