<svg xmlns="http://www.w3.org/2000/svg" viewBox="0 0 512 512"><path d="M408 239q8 0 13.5 5t5.5 13q0 19-19 19h-76q-19 0-19-19 0-8 5.5-13t13.5-5h76zm66-101q24 18 24 49v269q0 23-14 39.5T450 512H61q-20 0-34-16.5T13 456V187q0-31 24-49l64-43 23-79q3-10 12-13 2-1 4.5-1H370l5 1q9 3 12 13l23 79zm-190-35l45 52 45-48-16-55zm-147 4l45 48 45-52-74-51zm100 43l-41 46q-5 6-14 6-8 0-14-6l-58-61-51 35q-8 6-8 17v269q0 8 4 13.5t6 5.5h175zm223 37q0-11-8-17l-51-35-58 61q-6 6-14 6-10 0-14-6l-40-45v324h175q2 0 6-5.5t4-13.5V187z"/></svg>