<svg xmlns="http://www.w3.org/2000/svg" viewBox="0 0 512 512"><path d="M395 139q23 0 40 16.5t17 40.5v191q0 24-17 41t-40 17H276l-61 62q-7 5-14 5-5 0-7-1-12-5-12-18v-48h-65q-23 0-40-17t-17-41V196q0-24 17-40.5t40-16.5h17v-17q0-25 9.5-47.5t26-39 39-26T256 0t47.5 9.5 39 26 26 39T378 122v17h17zm-222 0h166v-17q0-35-24-59.5T256 38t-59 24.5-24 59.5v17zm241 57q0-8-5.5-13.5T395 177H117q-8 0-13.5 5.5T98 196v191q0 8 5.5 14t13.5 6h84q19 0 19 19v20l35-34q4-5 13-5h127q8 0 13.5-6t5.5-14V196zm-249 74q9 0 15.5 6.5T187 293t-6.5 16.5T165 316q-10 0-16.5-6.5T142 293t6.5-16.5T165 270zm91 0q10 0 16.5 6.5T279 293t-6.5 16.5T256 316t-16.5-6.5T233 293t6.5-16.5T256 270zm91 0q10 0 16.5 6.5T370 293t-6.5 16.5T347 316q-9 0-15.5-6.5T325 293t6.5-16.5T347 270z"/></svg>