<?xml version="1.0" encoding="UTF-8" standalone="no"?><svg   xmlns:svg="http://www.w3.org/2000/svg"   xmlns="http://www.w3.org/2000/svg"   version="1.1"   width="512"   height="512"   viewBox="0 0 512 512">  <path     d="M483 358Q490 354 497.5 356.5T509 366Q513 374 510.5 381T501 392L283 504Q272 511 256 511Q242 511 229 504L12 392Q5 388 2.5 381T4 366Q8 359 15 356.5T30 358L247 470Q256 475 266 470zM27 192Q15 186 8.5 175T2 152Q2 126 27 112L230 7Q256 -6 282 7L485 112Q511 127 511 152Q511 164 504 175T485 192L282 297Q270 303 256 303T230 297zM45 146Q40 149 40 152T45 158L248 263Q256 268 265 263L468 158Q473 155 473 152T468 146L265 41Q259 39 256 39Q252 39 248 41zM483 252Q490 248 497.5 250.5T509 260Q513 268 510.5 275T501 286L283 399Q271 405 256 405Q242 405 229 399L12 286Q5 282 2.5 275T4 260Q8 253 15 250.5T30 252L247 365Q256 370 266 365z"     id="org-projects" /></svg>