<svg xmlns="http://www.w3.org/2000/svg" viewBox="0 0 512 512"><path d="M492 138q20 43 20 90 0 30-12 55-11 26-30 45-17 18-44 31-26 10-57 10h-51q-4 0-7.5 1t-8.5 3q-8 5-13 10-7 5-10 13t-3 16q0 9 3 16 2 3 3.5 6.5t3.5 6.5q7 6 10 13 2 5 2 15 0 9-3 16-4 9-10 14-2 3-5.5 5.5T272 509q-9 3-16 3-52 0-100-20-23-10-43.5-24T74 437q-35-34-54-81-11-23-15.5-48.5T0 256q0-56 20-100 19-46 54-82 36-35 82-54Q204 0 256 0q53 0 100 18t81 49q33 29 55 71zM99 255q17 0 29.5-12.5T141 213t-12.5-29.5T99 171t-29.5 12.5T57 213t12.5 29.5T99 255zm86-114q17 0 29.5-12.5T227 99t-12.5-29.5T185 57q-18 0-30.5 12.5T142 99t12.5 29.5T185 141zm142 1q17 0 29.5-12.5T369 100q0-18-12.5-30.5T327 57q-18 0-30 12.5T285 100q0 17 12 29.5t30 12.5zm86 113q17 0 29.5-12.5T455 213t-12.5-29.5T413 171q-18 0-30.5 12.5T370 213t12.5 29.5T413 255z"/></svg>