<svg xmlns="http://www.w3.org/2000/svg" viewBox="0 0 512 512"><path d="M378 59q27 0 51.5 10.5t43 28.5 29 42.5T512 193q0 54-39 95-38 38-93 38H211q-33 0-56.5-23.5T131 246q0-34 23-57t57-23h107q11 0 19 8t8 19q0 10-8 18t-18 8H211q-11 0-19 8t-8 19 8.5 19.5T212 274h166q32 0 58-24 23-23 23-57 0-35-23-58.5T380 111H187q-27 0-51.5 10T92 151q-39 39-39 95 0 28 10.5 52.5t29 42.5 43 28.5T188 380h89q11 1 18.5 8.5T303 407q0 12-7 19t-19 7h-92q-38 0-72-15.5t-59-41T14.5 317 0 245q0-37 14-70.5t38.5-59 57-40.5T180 59h198z"/></svg>