<svg xmlns="http://www.w3.org/2000/svg" viewBox="0 0 512 512"><path d="M366 243q20 13 0 25l-159 93q-8 5-14.5 1.5T186 348V163q0-10 6-14t15 1q14 8 26.5 15.5T260 181q26 15 52 30.5t52 30.5q1 0 2 1zM256 0q53 0 99.5 20T437 75t55 81.5 20 99.5-20 99.5-55 81.5-81.5 55-99.5 20-99.5-20T75 437t-55-81.5T0 256t20-99.5T75 75t81.5-55T256 0zm154 410q31-31 47-69 17-42 17-85t-17-85q-16-38-47-69-28-30-69-47-20-9-41.5-13T256 38q-47 0-85 17-41 17-69 47-31 31-47 69-17 38-17 85 0 22 4 43.5T55 341q16 38 47 69t69 47q42 17 85 17t85-17q38-16 69-47z"/></svg>