<svg xmlns="http://www.w3.org/2000/svg" viewBox="0 0 512 512"><path d="M502 346v12l-1 4-1 7-1 6-2 6-1 2-1 3-1 2-1 3-2 1-1 2-2 2-1 1-2 1-2 1h-3l-4-1-3-2-1-1-1-2-2-2-3-4-2-4-2-2-2-4-3-6-3-6h-3v2l-2 2-2 6-3 9-4 11-4 5-3 5-4 6-4 6-2 3-3 3-6 6 2 2 3 1 12 6 5 4 6 3 5 3 4 4 3 2 1 2 2 3 1 2 1 2 1 3 1 2v6l-1 2-1 2-1 3-2 3-2 2-2 2-1 1-4 3-4 2-4 2-4 2-5 2-3 1-2 1-6 1-6 2-6 1-7 1h-6l-7 1h-29l-7-1-8-1-8-1-8-1-8-2-7-2-8-2-8-3-7-2-4-1-4-2-2-1h-9l-7-1h-9l-3 2-4 3-6 3-6 3-4 2-4 2-9 3-4 2-5 1-7 1-5 1h-4l-5 1h-42l-12-2-6-1h-7l-6-1-6-2-5-1-6-2-5-2-4-2-5-2-4-2-3-3-2-1-1-2-2-1-1-2-1-2-1-1-1-4v-2l-1-2v-2l1-2v-11l1-2 1-3 2-3 1-1 1-2 2-3 2-1 2-1 1-2h3l2-2 3-1 3-1 3-1 3-1h3l4-1h4l2-1v-1l-3-1-5-5-4-3-4-4-5-5-4-5-6-6-2-4-2-3-2-4-2-5-3-4-2-5-2-4-2-6-2-5-1-6-2-1-1 1-1 2-1 3-3 5-1 3-2 2-2 3-3 3-2 3-4 3-2 3-3 2-4 2-3 1-4 1-4 1-2-1v-1l-3-5-1-2-1-3-1-2v-3l-1-7-1-4v-13l1-9v-5l1-5 1-5 2-5 1-6 2-6 2-6 2-5 3-6 3-6 3-6 4-6 4-5 4-6 3-5 5-5 5-5 2-2 2-3 4-3 4-3 6-6 5-4 2-1-1-3-1-4v-11l1-3v-4l2-4 1-4 3-4 3-5v-10l2-4 1-5 1-2 1-2 1-2 2-2v-11l1-6 1-6 1-8 3-8 1-5 2-4 2-5 2-5 2-5 3-5 2-6 4-5 2-3 1-2 4-6 4-6 5-5 5-6 5-6 5-5 7-6 4-4 5-4 5-4 6-3 5-3 6-3 7-3 6-2 7-2 6-2 7-2 8-2 7-1 7-1 7-1h31l8 1 7 1 8 1 7 1 8 2 7 2 8 2 7 3 7 3 7 3 7 3 7 4 6 4 5 4 3 2 3 2 5 4 4 4 4 5 5 5 3 4 4 5 3 6 3 4 3 6 2 4 5 10 2 5 2 5 1 5 2 5 1 4 1 5 2 9 2 8 1 7 1 6 1 9 1 4 3 4 2 3 2 4 2 3 2 5 1 4 1 5 1 5v2l1 3v3l-1 2v7l-2 6-1 3-1 3v2l2 3 6 10 6 7 2 5 4 6 3 6 3 7 4 7 3 8 3 5 2 5 1 5 2 5 1 5 2 5 1 9 2 9z"/></svg>