<svg xmlns="http://www.w3.org/2000/svg" viewBox="0 0 512 512"><path d="M116 102q-3 4-6 7l-7 7Q77 99 51.5 82T0 48V0h48q14 20 26.5 40.5T101 81q4 5 7 10t8 11zm292 294l52 34 52 34v48h-48l-54-81q-4-5-7-10t-8-11q3-4 6-7.5t7-6.5zm71-198q-24 27-51.5 51T373 299l-18.5-18.5L333 258q21-21 42.5-42t41.5-43q17-17 24-36 12-30-12-55-25-23-56-11-17 6-32 21-23 21-44 43t-44 45q-11-12-22-23l-24-24q29-26 56-54t57-52q18-14 39-20t42-4 40.5 11.5T476 40t23.5 36.5 9 41.5-6.5 42-23 38zM171 420q22-21 43-43t44-45l23 23 23 24q-29 26-55.5 54T191 485q-18 14-39 20t-42 3.5T69.5 497 35 472t-23.5-36.5-9-41.5 7-42T32 313q24-27 51.5-50.5T139 213q8 8 18 18.5t22 21.5q-22 22-43 42.5T94 338q-15 17-24 36-12 31 12 55 25 25 56 12 18-7 33-21z"/></svg>