<svg xmlns="http://www.w3.org/2000/svg" viewBox="0 0 512 512"><path d="M282 140v131l-121 72-20-34 102-61V140h39zM243 13q17 0 33 1.5t32 6.5q34 10 59 25 14 8 26 17.5T416 85q21 21 37 50l59-59v167H347l70-72q-13-25-30-44-18-19-40-34-22-14-49-22t-55-8q-39 0-74 16-37 16-60 42-14 12-24.5 27.5T66 181q-15 36-15 74 0 39 15 75 16 35 43 61 24 25 60 41 36 15 74 15 32 0 61-9 27-10 52-27 24-18 41-40 19-25 29-51h54q-10 37-33 71-23 33-54 56-31 25-69 38-39 14-81 14-51 0-95-19t-77-53q-17-17-30-35.5T19 350 5 304t-5-49q0-48 20-94 9-22 22-41.5T71 83q34-31 78-51 44-19 94-19z"/></svg>