<svg xmlns="http://www.w3.org/2000/svg" viewBox="0 0 512 512"><path d="M269 140v108l102 61-20 34-120-72V140h38zm0-127q50 0 94 19 46 20 78 52t52 78q10 22 14.5 45.5T512 255q0 53-19 95-19 47-52 77-32 34-77 53-42 19-95 19-46 0-81-14-39-14-69-37-32-24-54-57-21-31-33-71h55q11 30 28 51 9 12 19.5 22t21.5 19q25 17 53 26 14 5 29 7.5t31 2.5q38 0 74-15 35-15 61-42 25-25 42-61 16-37 16-75 0-36-16-73-16-35-42-61-26-27-61-42-35-16-74-16-26 0-55 8-14 4-25.5 9.5T166 93q-11 8-21.5 16T125 127q-19 22-30 44l71 72H0V76l59 59q14-26 37-50 23-23 49-39 14-8 29-14t30-11q34-8 65-8z"/></svg>