<svg xmlns="http://www.w3.org/2000/svg" viewBox="0 0 512 512"><path d="M204 294q-6 0-10.5-4.5T189 279v-71q0-6 4.5-10t10.5-4q5 0 9.5 4t4.5 10v71q0 6-4.5 10.5T204 294zm0 48q-7 0-11.5-4.5T188 327q0-16 16-16 6 0 10.5 4.5T219 327q0 6-4.5 10.5T204 342zm305 150q7 8 0 15-3 3-8 3-4 0-7-3l-50-49q-14 11-30.5 18t-36.5 7q-21 0-40-8t-33.5-22.5T281 419t-8-40 8-40 22.5-33 33.5-22 40-8 40 8 33 22 22 33 8 40q0 36-21 63zm-132-31q34 0 58-23.5t24-58.5q0-34-24-58t-58-24-58 24-24 58q0 35 24 58.5t58 23.5zM27 442q0 10 7 16.5t16 6.5h220l-1 26H55q-23 0-39-16T0 436V55q0-23 16-39T55 0h189q8 0 13 6l131 148q3 3 3.5 6.5t.5 7.5v73h-27v-68h-80q-23 0-39.5-16.5T229 116V25H50q-9 0-16 7t-7 16v394zm232-320q0 9 7 16t16 7h54l-77-87v64z"/></svg>