<svg xmlns="http://www.w3.org/2000/svg" viewBox="0 0 512 512"><path d="M511 157H0V92h511v65zm-254 64q-15 30-18 62H0v-62h257zm-11 127q10 28 20.5 41.5T284 411H0v-63h246zm266 43l-36 36-44-45q-8 5-21 9.5t-29 4.5q-23 0-39-8-18-8-31-21-14-14-21-31-8-19-8-39t8-39q7-17 21-31t31-22q18-8 38.5-8t38.5 8q9 4 16.5 9.5T451 227q14 14 21 31 8 20 7 39 0 14-3.5 25.5T467 344zm-85-75q4-8 4-19 0-12-4-20-2-5-4.5-9t-6.5-7q-5-6-15-11-8-4-20-4-11 0-19 4-5 2-9 4.5t-7 6.5q-4 3-6.5 7t-4.5 9q-4 8-4 20 0 11 4 19 2 5 4.5 9t6.5 7q6 8 16 11 19 9 39 0 8-3 15-11 8-6 11-16z"/></svg>