<svg xmlns="http://www.w3.org/2000/svg" viewBox="0 0 512 512"><path d="M167 218q-19-19-27-41-10-21-10-48 0-28 10-51 9-23 27-41 16-16 40-27 23-10 50-10 29 0 50 10 23 10 40 27t28 41q9 24 9 51 0 26-9 48-10 23-28 41-18 20-40 28-21 10-50 10-27 0-50-10-23-9-40-28zm90 166q0 25 9 47t24 39 36 27.5 45 13.5v1H58q-23 0-40-17T1 455v-8q0-34 28-56 27-24 68-39 40-16 84-24 22-4 40.5-6t35.5-2h8.5l8.5 1q-17 28-17 63zm253 107q3 5 3 9 0 5-3 8-4 4-8 4-5 0-9-4l-45-46q-26 23-63 23-23 0-39-8-17-7-31-21-12-12-22-32-7-17-7-39t7-39q10-20 22-32 7-7 14.5-12.5T346 292q19-8 39-8 19 0 38 8 17 7 32 22 6 7 11.5 15t9.5 17q7 17 7 39 0 34-19 60zm-56-76q6-15 6-30 0-16-6-30t-16-24q-11-11-24-17-14-6-29-6t-30 6q-13 6-24 17-10 10-16 24t-6 30q0 15 6 30 6 14 16 24 11 11 24 17 15 6 30 6t29-6q13-6 24-17 10-10 16-24zm-106-69q21-21 52-16-12 3-23.5 9T356 355q-10 9-16 20.5t-9 22.5q-2-14 2-27.5t15-24.5z"/></svg>