<svg xmlns="http://www.w3.org/2000/svg" viewBox="0 0 512 512"><path d="M256 0q53 0 99.5 20T437 75t55 81.5 20 99.5-20 100-55 81.5-81.5 54.5-99.5 20-99.5-20T75 437.5 20 356 0 256t20-99.5T75 75t81.5-55T256 0zm0 485q47 0 89-18t73-49 49-72.5 18-89.5q0-47-18-89t-49-73-73-49-89-18q-74 0-123.5 34T58 146 33 256t25 110 74.5 85T256 485zm-98-250q9 0 15.5 6.5T180 256q0 9-6.5 15.5T158 278q-8 0-14.5-6.5T137 256q0-8 6.5-14.5T158 235zm98 0q9 0 15 6.5t6 14.5q0 9-6 15.5t-15 6.5-15-6.5-6-15.5q0-8 6-14.5t15-6.5zm98 0q8 0 14.5 6.5T375 256q0 9-6.5 15.5T354 278q-9 0-15.5-6.5T332 256q0-8 6.5-14.5T354 235z"/></svg>