<svg xmlns="http://www.w3.org/2000/svg" viewBox="0 0 512 512"><path d="M1 257q0-53 20-99.5T76 76t81.5-55T257 1t99.5 20T438 76t55 81.5 20 99.5-20 99.5-55 81.5-81.5 55-99.5 20-99.5-20T76 438t-55-81.5T1 257zm41 0q0 44 17 83.5t46 68.5 68.5 46 83.5 17 83-17 68.5-46 46.5-68.5 17-83.5-17-83-46.5-68.5T340 59t-83-17-83.5 17-68.5 46.5T59 174t-17 83zm118 115q0-12 4-21l75-167 55 30-63 139q-2 4-2 7 0 2 3 2t11-2.5 17.5-6.5 19-9 15.5-9q11-8 13-10.5t6-10.5l4-8 5 7 18 23-3 3q-7 16-18 25t-35 23q-47 26-87 26-16 0-28-12-10-13-10-29zm94-230q0-4 2-12 8-17 29-26 16-8 32-9t28 7q13 7 13 20 0 6-3 12-8 17-29 26-15 8-34 8-15 0-25-6-8-5-10.5-10t-2.5-10z"/></svg>