<?xml version="1.0" encoding="UTF-8" standalone="no"?><svg   xmlns:svg="http://www.w3.org/2000/svg"   xmlns="http://www.w3.org/2000/svg"   version="1.1"   width="512"   height="512"   viewBox="0 0 512 512">  <path     d="M461 49Q482 49 497 64T512 100V407Q512 428 497 443T461 458H52Q30 458 15 443T0 407V100Q0 79 15 64T52 49H461zM169 296H57V400H169V296zM169 155H57V259H169V155zM313 296H200V400H313V296zM313 155H200V259H313V155zM456 296H343V400H456V296zM456 155H343V259H456V155z"     id="table" /></svg>