<svg xmlns="http://www.w3.org/2000/svg" viewBox="0 0 512 512"><path d="M116 347q11 0 17.5 6t6.5 17v117q0 11-6.5 17t-17.5 6H23q-23 0-23-23V370q0-23 23-23h93zm373-186q23 0 23 23v303q0 23-23 23h-93q-11 0-17.5-6t-6.5-17V184q0-11 6.5-17t17.5-6h93zM93 231q-9 0-16-7-8-8-8-17t8-16l93-93q7-7 16-7t16 7l54 54L363 45h-37q-11 0-17-6.5T303 21q0-23 23-23h97.5l4.5 2q9 6 12 12 2 2 2 4.5V114q0 11-6 17.5t-17 6.5-17-6.5-6-17.5V77L272 200q-7 8-16 8t-16-8l-54-53-77 77q-7 7-16 7zm210 23q23 0 23 23v210q0 23-23 23h-94q-23 0-23-23V277q0-23 23-23h94z"/></svg>