<svg xmlns="http://www.w3.org/2000/svg" viewBox="0 0 512 512"><path d="M491 86q9 0 15 6t6 16v213q0 10-6 15.5t-15 5.5H299v-21q0-21-22-21h-42q-22 0-22 21v21H21q-9 0-15-5.5T0 321V108q0-10 6-16t15-6h128V44q0-22 22-22h170q22 0 22 22v42h128zm-22 299q10 0 16 6t6 15v64q0 22-22 22H43q-22 0-22-22v-64q0-9 6-15t16-6h170q0 21 22 21h42q22 0 22-21h170zm22-299q9 0 15 6t6 16v213q0 10-6 15.5t-15 5.5H299v-21q0-21-22-21h-42q-22 0-22 21v21H21q-9 0-15-5.5T0 321V108q0-10 6-16t15-6h128V44q0-22 22-22h170q22 0 22 22v42h128zm-22 299q10 0 16 6t6 15v64q0 22-22 22H43q-22 0-22-22v-64q0-9 6-15t16-6h170q0 21 22 21h42q22 0 22-21h170z"/></svg>