<svg xmlns="http://www.w3.org/2000/svg" viewBox="0 0 512 512"><path d="M491 0q9 0 15 6t6 15v470q0 9-6 15t-15 6H21q-9 0-15-6t-6-15V21q0-9 6-15t15-6h470zM179 363l28-28q13-15 0-30-15-13-30 0l-28 28-27-28q-7-6-15.5-6T92 305q-15 15 0 30l27 28-27 27q-7 7-7 15.5t7 14.5q6 7 15 7 8 0 15-7l27-27 28 27q6 7 15 7t15-7q6-6 6-14.5t-6-15.5zm13-192q21 0 21-22 0-9-5.5-15t-15.5-6h-21v-21q0-22-22-22-9 0-15 6t-6 16v21h-21q-10 0-16 6t-6 15q0 22 22 22h21v21q0 10 6 15.5t15 5.5q22 0 22-21v-21h21zm213 256q22 0 22-22 0-9-6-15t-16-6h-85q-10 0-15.5 6t-5.5 15q0 22 21 22h85zm0-86q22 0 22-21t-22-21h-85q-21 0-21 21t21 21h85zm0-170q22 0 22-22 0-9-6-15t-16-6h-85q-10 0-15.5 6t-5.5 15q0 22 21 22h85z"/></svg>