<svg xmlns="http://www.w3.org/2000/svg" viewBox="0 0 512 512"><path d="M135 134q-6 7-15 7-8 0-14-7l-30-29q-7-7-7-15.5T76 75q6-7 14.5-7t15.5 7l29 30q7 6 7 14.5t-7 14.5zM65 235q21 0 21 21t-21 21H22q-9 0-15-5.5T1 256t6-15.5 15-5.5h43zM257 85q-21 0-21-21V21q0-9 5.5-15T257 0t15.5 6 5.5 15v43q0 21-21 21zm235 150q9 0 15 5.5t6 15.5-6 15.5-15 5.5h-43q-21 0-21-21t21-21h43zM438 75q7 6 7 14.5t-7 15.5l-30 29q-6 7-14 7-9 0-15-7-7-6-7-14.5t7-14.5l29-30q7-7 15.5-7t14.5 7zM300 469q9 0 15 6t6 16q0 9-6 15t-15 6h-86q-9 0-15-6t-6-15q0-10 6-16t15-6h86zm-43-362q31 0 58 11.5t47.5 32 32 47.5 11.5 58q0 44-23.5 80.5T321 390v37q0 9-6 15t-15 6h-86q-9 0-15-6t-6-15v-37q-38-17-61.5-53.5T108 256q0-31 11.5-58t32-47.5 47.5-32 58-11.5z"/></svg>