<svg xmlns="http://www.w3.org/2000/svg" viewBox="0 0 512 512"><path d="M488 482q3 10 0 19-3 5-8.5 8t-10.5 3H42q-5 0-10.5-2.5T23 503q-2-5-2.5-10.5T23 482l64-128q6-13 19-13l13 43-43 85h359l-43-85 13-43q12 0 19 13zM255 235q-27 0-45.5-18.5T191 171q0-28 18.5-46t45.5-18q28 0 46 18t18 46q0 27-18 45.5T255 235zm0-235q31 0 62 11.5T372 45t39 54 15 72q0 24-10.5 51.5t-26.5 55-35 53-36 46-30.5 34.5-17.5 18q-6 6-15 6-8 0-14-6-4-4-17.5-18t-31-34.5-36.5-46-34.5-53-26-54.5T85 171q0-40 15-72t39-54 54.5-33.5T255 0zm233 482q3 10 0 19-3 5-8.5 8t-10.5 3H42q-5 0-10.5-2.5T23 503q-2-5-2.5-10.5T23 482l64-128q6-13 19-13l13 43-43 85h359l-43-85 13-43q12 0 19 13zM255 235q-27 0-45.5-18.5T191 171q0-28 18.5-46t45.5-18q28 0 46 18t18 46q0 27-18 45.5T255 235zm0-235q31 0 62 11.5T372 45t39 54 15 72q0 24-10.5 51.5t-26.5 55-35 53-36 46-30.5 34.5-17.5 18q-6 6-15 6-8 0-14-6-4-4-17.5-18t-31-34.5-36.5-46-34.5-53-26-54.5T85 171q0-40 15-72t39-54 54.5-33.5T255 0z"/></svg>