<svg xmlns="http://www.w3.org/2000/svg" viewBox="0 0 512 512"><path d="M21 169q22 0 22 21v64q0 21-22 21-9 0-15-5.5T0 254v-64q0-10 6-15.5t15-5.5zm470 0q9 0 15 5.5t6 15.5v64q0 10-6 15.5t-15 5.5q-22 0-22-21v-64q0-21 22-21zM384 19q27 0 45.5 18.5T448 83v320q0 10-6 16t-15 6v42q0 22-22 22h-64q-9 0-15-6t-6-16v-42H192v42q0 10-6 16t-15 6h-64q-22 0-22-22v-42q-9 0-15-6t-6-16V83q0-27 18.5-45.5T128 19h256zM192 361q21 0 21-22 0-9-5.5-15t-15.5-6h-43q-9 0-15 6t-6 15q0 10 6 16t15 6h43zM405 90q0-11-8.5-19.5T377 62H135q-11 0-19.5 8.5T107 90v121h298V90z"/></svg>