<svg xmlns="http://www.w3.org/2000/svg" viewBox="0 0 512 512"><path d="M492 162q20 45 20 94 0 48-19 95-18 43-52 77t-77 53q-44 19-96 19-42 0-81-14-36-13-69-38-31-23-54-56-16-23-25-52h76q3 6 6.5 11t6.5 10q15 19 38 37 21 15 47 24 28 9 60.5 8t61.5-13q31-13 55-38 25-24 39-56 14-33 14-67t-14-67q-7-17-16.5-30.5T391 133t-25.5-21.5T335 95q-28-13-58.5-14T218 88q-12 4-22.5 8.5T175 108q-21 13-38 31-15 18-24 34l80 81H0V59l64 65q14-22 31-39 20-23 49-39 14-8 28.5-14.5T203 21q39-11 80.5-8.5T362 32q23 9 42.5 22T441 83q16 17 29 36.5t22 42.5z"/></svg>