<svg xmlns="http://www.w3.org/2000/svg" viewBox="0 0 512 512"><path d="M21 159q9-23 22-42.5T72 80q35-32 79-51 37-17 78.5-19.5T310 18q15 5 30 11t29 14q29 18 49 39 17 17 31 39l64-64v194H320l80-81q-11-18-24-33-8-9-17.5-17T338 105q-10-6-20.5-11T295 85q-28-8-58.5-6.5T178 92q-31 14-56 39-25 24-38 55-14 33-14 67t14 67q14 32 39 56 24 25 55 38 29 13 61.5 14t60.5-9q26-9 47-24 22-15 37-37 8-10 14-20h76q-9 28-25 51-23 33-54 57-30 23-69 37-19 8-39.5 11t-41.5 3q-52 0-96-19t-77-53q-34-33-52-77-19-47-19-95 0-49 20-94z"/></svg>