<svg xmlns="http://www.w3.org/2000/svg" viewBox="0 0 512 512"><path d="M328 333q8 8 12.5 22t5.5 25q1 2 1 6v8q0 18-15 23-6 2-9 2H24q-10 0-17-7t-7-18v-8q0-12 4.5-28.5T19 333q17-17 46-28 14-6 28-10t29-7q14-2 27-3.5t24-1.5 23 1 26 4h3q8 2 14.5 3.5T253 295q16 5 29 10 27 11 46 28zm165-2q8 8 13 22t6 26v13q0 11-7 18t-17 7H377q5-12 5-23v-8q0-6-1-9-1-17-8-37t-21-34l-1-1-1-1q-8-6-15.5-11.5T318 282q5-1 10.5-1H339q11 0 23 1.5t26 3.5h2q15 3 29 7t28 10q29 11 46 28zM163 224q-32 0-55-23t-23-56q0-32 23-55t55-23q33 0 56 23t23 55q0 33-23 56t-56 23zm198 0q-32 0-55-23t-23-56q0-32 23-55t55-23 55 23 23 55q0 33-23 56t-55 23z"/></svg>