<svg xmlns="http://www.w3.org/2000/svg" viewBox="0 0 512 512"><path d="M512 312q0 32-18 59t-45 48l13 46-49-28q-14 4-27.5 7t-27.5 3q-44 0-79-18.5T224 380q-20-31-20-68 0-28 12-53t33-43.5 49-29 60-10.5q2 0 4 .5t4 .5q30 2 56.5 13t46.5 29 31.5 42 11.5 51zm-203-23q8 0 13-5.5t5-13.5-5-13-13-5-13 5-5 13 5 13.5 13 5.5zm99 0q19 0 19-19 0-8-5.5-13t-13.5-5-13 5-5 13 5 13.5 13 5.5zM298 174q-35 11-60 35t-37 56q-8 24-8 49 0 19 5 39-4 1-8 1h-9q-17 0-31.5-3t-32.5-6l-63 32 18-56q-34-24-53-56T0 195q0-33 14-62t39-50 57.5-33.5T181 37q33 0 63.5 10t55 27.5T341 116t23 52q-5-1-9-1.5t-9-.5q-24 0-48 8zm-52-59q-10 0-17 7t-7 17 7 16.5 17 6.5 16.5-6.5T269 139t-6.5-17-16.5-7zm-129 46q11 0 17.5-6.5T141 138q0-9-6.5-15.5T117 116q-9 0-16 6.5T94 138q0 10 7 16.5t16 6.5z"/></svg>