<svg xmlns="http://www.w3.org/2000/svg" viewBox="0 0 512 512"><path d="M379 249q7 2 20.5 8.5t24 20 13.5 34-10 49.5-39 51-58.5 35.5-68 19.5-66.5 3q-30-3-63-10t-61-23-47.5-41T0 332q-2-14 2-31 3-14 10.5-33.5T36 225q18-26 40-49 18-20 42.5-39t51.5-29 43-8 24 10.5 10.5 20T250 152q-3 16-3.5 24.5t19.5.5q7-3 17-7 8-3 18-5t21-4h10l10 1q14 2 23 12t10.5 21-.5 20q-1 5-2 8t-2 5-2 5-2 5q-2 6 4 8zM201 441q31-1 59-11.5t48-27 32-37.5 12-43-12-39.5-32-29.5-48-18-59-4q-32 2-60 11t-48.5 23.5-32.5 34T48 341q0 23 12 42t32.5 32.5T141 436t60 5zm-17-171q31-4 50.5 7.5t27.5 30 6.5 39T258 380q-20 26-54.5 35.5T132 403q-9-5-14-11.5t-7-12.5q-3-7-2-15-1-24 6-43 6-17 21.5-32t47.5-19zm-21 117q11-2 19.5-10t8.5-19-8-18-22-5q-11 2-19 10.5t-8 19.5 8.5 17.5T163 387zm49-45q5-3 6-8t-1-9q-5-9-16-1-4 3-4.5 8t1.5 9q5 8 14 1zm208-130q-14 0-14-14 3-19-1-32-3-11-13.5-18t-33.5-2q-6 0-10-4.5t-4-10.5q0-14 14-14 24-3 42 4 15 6 26.5 23t7.5 54v2q-2 12-14 12zM410 41q20 5 41.5 18T489 94t21.5 54.5T504 225h-1q-2 13-7 15.5t-12 2.5q-8 0-14-5t-6-14q0-6 2-14 1-4 2-6 1-5 4-23.5T462 132q-8-15-22-27-3-3-9-7-23-16-43.5-18T362 80q-3 2-6 2t-6 1-6 1q-8 0-14-6t-6-15q0-16 15-21 1 0 1-.5t1-.5q7-2 26.5-4t42.5 4z"/></svg>