<svg xmlns="http://www.w3.org/2000/svg" viewBox="0 0 512 512"><path d="M209 146q-19-19-45-30t-55-11h-4v-1q0-28 10-52t27-44q1 1 5 1 25 0 49.5 8.5T241 44q24 21 36 49t12 58v4q-16 8-25 26-9-17-23.5-25.5T209 146zm220-19q52 14 83 54-4 26-17 50t-36 41q-20 16-42.5 23t-45.5 7h-9l-9-1q16-17 27-38.5t11-46.5q0-11-1-16 26-29 34-73v-1q2 0 2.5.5t2.5.5zm-240 19v-1 1zm114-11q0-26-7.5-51T268 38q40-36 90-36h2q18 19 28.5 44t10.5 54q0 41-20 73-10-16-25-24t-32-8h-2q-7 0-17 2v-8zM175 299q-13 19-20 40t-7 44q0 17 5 39-15 4-34 4-38 0-68-18-5-18-5-38 0-35 16-66 13-24 33-41t44-26q4 18 13.5 33.5T175 299zm207 22q37 0 71-19 16 31 16 67 0 20-4 36-16 8-33.5 13t-37.5 5q-18 0-34-4-28-7-50-23t-36-39q10-5 27.5-16t35.5-28q21 8 45 8zm-127 42q10 25 29.5 45t46.5 31q-11 26-30.5 44T258 512q-24-10-44-29t-32-45q-12-28-12-58 0-17 4-33.5t12-31.5q20 19 40 31t29 17zM135 220q-23 5-44.5 18T53 273q-22-17-35-40T0 184q16-21 38.5-36T90 128q6-1 12.5-1.5t12.5-.5q38 0 71 19-20 5-35.5 23T135 215v5z"/></svg>