<svg xmlns="http://www.w3.org/2000/svg" viewBox="0 0 512 512"><path d="M456 120q0-3-3-3H339q-3 0-3 4v280q0 3 3 3 7 0 10 1t4.5 4 2.5 9.5 4 17.5q18-10 33.5-21t18.5-11h41q3 0 3-3V120zm35-42q2 0 4 1.5t2 3.5v208.5l-1 75.5-2 55.5-3 21.5h-78q-7 2-22 11.5T344 485q-6-16-8.5-28.5T331 444h-30q-6 0-6-5V84q0-2 2-4t4-2h190zM168 284q-2 17-5 36t-7 32l4-4q2-2 6.5-5.5T179 333q12 13 19.5 20.5t13 14.5 12 14.5T241 403l4 7q3 9 3 22 0 20-5 37h-2q-6-6-12-14t-15.5-20-24-30-36.5-44q-12 45-29.5 74.5T90 479q-7 5-21.5 11T27 496q-13 0-17-4 0-1 1-2 53-40 80.5-92T128 284H18q2-11 7-24t16-16q19 0 38 .5t53 .5q3-42 4-73t1-48H85q-3 7-6 16.5t-10 19-20 17-34 8.5q19-36 29.5-66.5t19-53 20-35T117 18q2 0 3 1-2 4-5 12t-6 17.5-6 19.5-4 17h149q6 1 9 9.5t3 21.5v9h-84q0 21-1 42t-1.5 38-1.5 28-1 12h89q3 1 7 9.5t4 29.5H168z"/></svg>