<svg xmlns="http://www.w3.org/2000/svg" viewBox="0 0 512 512"><path d="M456 120q0-3-3-3H339q-3 0-3 4v280q0 3 3 3h12q1 0 3.5 10.5T360 436q37-21 50-31l2-1h41q3 0 3-3V120zm35-42q2 0 4 1.5t2 3.5v147.5l-.5 32.5-.5 32.5V439q0 5-5 5h-78q-7 2-22 11.5T344 485q-6-16-8.5-28.5T331 444h-30q-6 0-6-5V84q0-2 2-4t4-2h190zM168 284q-2 14-2.5 22.5T161 329q-1 4-3 14-1 4-2 9l4-4q2-2 6.5-5.5T179 333q12 13 19.5 20.5t13 14.5 12 14.5T241 403l4 7q5 11 3.5 28.5T243 469h-2q-6-6-12-14t-15.5-20-24-30-36.5-44q-12 45-29.5 74.5T90 479q-5 4-10 6t-11 4q-3 1-11 3t-17.5 3.5-18 1T10 492q0-1 1-2 9-7 17.5-14T44 461q25-24 43-51.5t29-62.5q6-23 8-35t4-28H18q2-11 7-24t16-16q19 0 38 .5t53 .5q3-42 4-73t1-48H85q-2 4-3 8.5t-3 9.5q-5 14-20 27.5T15 185q9-17 17.5-37t15-39 12-34.5T68 50q5-11 12-16 6-5 11.5-8t13.5-5q13-4 15-2-2 5-5.5 15T107 55q-3 8-4.5 15.5T99 85h149q7 1 10.5 12.5T260 125h-84q0 21-1 42t-1.5 38-1.5 28-1 12h89q3 1 7 9.5t4 29.5H168z"/></svg>