<?xml version="1.0" standalone="no"?> 
<!DOCTYPE svg PUBLIC "-//W3C//DTD SVG 1.1//EN" "http://www.w3.org/Graphics/SVG/1.1/DTD/svg11.dtd" >
<svg xmlns="http://www.w3.org/2000/svg">
<defs>
  <font id="tb-icons" horiz-adv-x="17">
    <font-face font-family="tb-icons"
      units-per-em="1000" ascent="1000"
      descent="0" />
    <missing-glyph horiz-adv-x="0" />
    <glyph glyph-name="activities-trend"
      unicode="&#xEA01;"
      horiz-adv-x="1000" d=" M212.4999999999999 174.6499999999998C212.4999999999999 133.2124999999991 178.9375 99.6500000000004 137.5000000000002 99.6500000000004C96.0624999999999 99.6500000000004 62.5 133.2124999999991 62.5 174.6499999999998C62.5 216.0875000000004 96.0624999999999 249.6500000000008 137.5000000000002 249.6500000000008C178.9375 249.6500000000008 212.4999999999999 216.0875000000004 212.4999999999999 174.6499999999998M358.8687500000001 137.1687500000007C338.1812499999999 137.1687500000007 321.36875 153.9812499999993 321.36875 174.6687500000004C321.36875 195.3562499999997 338.1812499999999 212.1062499999997 358.8687500000001 212.1062499999997L557.1187499999999 212.1062499999997C577.86875 212.1062499999997 594.61875 195.3562499999997 594.61875 174.6687500000004C594.61875 153.9812499999993 577.86875 137.1687500000007 557.1187499999999 137.1687500000007L358.8687500000001 137.1687500000007M214.0624999999998 487.4500000000008C214.0624999999998 446.0125000000002 180.4999999999999 412.4499999999998 139.0625000000001 412.4499999999998C97.6249999999999 412.4499999999998 64.0624999999999 446.0125000000002 64.0624999999999 487.4500000000008C64.0624999999999 528.8874999999997 97.6249999999999 562.45 139.0625000000001 562.45C180.4999999999999 562.45 214.0624999999998 528.8874999999997 214.0624999999998 487.4500000000008M360.4250000000003 449.9437499999993C339.7375 449.9437499999993 322.9250000000002 466.7562499999996 322.9250000000002 487.4437500000006C322.9250000000002 508.1937500000003 339.7375 524.9437500000003 360.4250000000003 524.9437500000003L746.1750000000001 524.9437500000003C766.9250000000001 524.9437500000003 783.6750000000001 508.1937500000003 783.6750000000001 487.4437500000006C783.6750000000001 466.7562499999996 766.9250000000001 449.9437499999993 746.1750000000001 449.9437499999993L360.4250000000003 449.9437499999993M214.0624999999998 800.0000000000007C214.0624999999998 758.5625 180.4999999999999 724.9999999999997 139.0625000000001 724.9999999999997C97.6249999999999 724.9999999999997 64.0624999999999 758.5625 64.0624999999999 800.0000000000007C64.0624999999999 841.4374999999995 97.6249999999999 875 139.0625000000001 875C180.4999999999999 875 214.0624999999998 841.4374999999995 214.0624999999998 800.0000000000007M871.1750000000001 762.4999999999993L360.4250000000003 762.4999999999993C339.7375 762.4999999999993 322.9250000000002 779.3124999999997 322.9250000000002 800.0000000000007C322.9250000000002 820.7500000000003 339.7375 837.5000000000003 360.4250000000003 837.5000000000003L871.1750000000001 837.5000000000003C891.9250000000001 837.5000000000003 908.675 820.7500000000003 908.675 800.0000000000007C908.675 779.3124999999997 891.9250000000001 762.4999999999993 871.1750000000001 762.4999999999993" />
    <glyph glyph-name="add-stage"
      unicode="&#xEA02;"
      horiz-adv-x="1000" d=" M889.11704375 1000C919.2334 1000 945.24298125 989.368998625 967.1457875 968.106995875C989.04859375 946.844993125 1000 920.4389575 1000 888.88888875L1000 111.1111125000001C1000 79.56104375 989.04859375 53.15500625 967.1457875 31.89300625C945.24298125 10.631 919.2334 0 889.11704375 0L110.8829568750001 0C80.7665981250001 0 54.7570157499999 10.631 32.8542094374999 31.89300625C10.951403125 53.15500625 0 79.56104375 0 111.1111125000001L0 888.88888875C0 920.4389575 10.951403125 946.844993125 32.8542094374999 968.106995875C54.7570157499999 989.368998625 80.7665981250001 1000 110.8829568750001 1000L889.11704375 1000L889.11704375 1000L889.11704375 1000zM774.2754062500001 555.877058125L552.82341125 555.877058125L552.82341125 775.321505625L445.1449193750001 775.321505625L445.1449193750001 555.877058125L225.7245968749999 555.877058125L225.7245968749999 446.154835L445.1449193750001 446.154835L445.1449193750001 224.67849375L552.82341125 224.67849375L552.82341125 446.154835L774.2754062500001 446.154835L774.2754062500001 555.877058125L774.2754062500001 555.877058125L774.2754062500001 555.877058125z" />
    <glyph glyph-name="add-user"
      unicode="&#xEA03;"
      horiz-adv-x="941.1764705882352" d=" M61.3575847058824 86.4636705882464C59.1143952941175 86.4636705882464 56.8151258235294 86.7404823529529 54.5719362941175 87.1833882352964C36.3460214705882 90.8373705882268 24.6253562941176 108.3875411764786 28.3826987058822 126.4359882352973L62.3109399999999 289.5363294117703C62.9278170588237 292.3598588235216 63.8811729411766 295.0726647058861 65.1710064705882 297.6193764705868C79.4152600000001 325.8546705882349 103.8660258823528 347.2802764705889 133.9808452941176 357.9100352941062L337.045575882353 429.3840829411827C342.8778688235296 431.4325258823481 346.8034505882354 436.9688582352918 346.8034505882354 443.0588235294208L346.8034505882354 472.2906576470557C346.8034505882354 489.8961935294157 338.8962076470588 506.4498270588261 325.1005917647059 517.6885811764645C275.8625817647058 557.7162629411653 247.5983941176468 616.3460205882395 247.5983941176468 678.5190311764595L247.5983941176468 762.5605535294038C247.5983941176468 878.2145329411886 342.9339482352941 972.3321799411838 460.1406005882354 972.3321799411838C577.2911729411765 972.3321799411838 672.6267294117646 878.2145329411886 672.6267294117646 762.5605535294038L672.6267294117646 678.5190311764595C672.6267294117646 616.6228376470613 644.5307764705883 558.1591694117647 595.6292470588234 518.0207611764779C581.6093129411767 506.5605535294119 573.5338305882351 489.6747405882439 573.5338305882351 471.6816611764765L573.5338305882351 443.0034599999999C573.5338305882351 436.913494705871 577.4594123529411 431.377162352954 583.2917052941176 429.3287199999909C600.788582352941 423.1833911764678 609.9295823529411 404.1937705882287 603.6486470588237 386.9204176470543C597.4238000000001 369.6470588235357 578.0762894117648 360.5121117647126 560.6915705882354 366.7681647058785C528.1092429411767 378.2837352941094 506.2381452941175 408.8996529411656 506.2381452941175 443.0034599999999L506.2381452941175 471.6816611764765C506.2381452941175 509.494809411776 523.1742258823531 545.0380623529408 552.6721682352942 569.1764705882313C586.0956917647056 596.5813147058725 605.3310411764706 636.4429064705934 605.3310411764706 678.5190311764595L605.3310411764706 762.5605535294038C605.3310411764706 841.6193770588186 540.2224664705883 905.8961935294224 460.1406005882354 905.8961935294224C380.0587347058825 905.8961935294224 314.8940794117645 841.6193770588186 314.8940794117645 762.5605535294038L314.8940794117645 678.5190311764595C314.8940794117645 636.2768164705866 334.2415894117649 596.3044982353067 367.8894317647059 568.8996541176386C397.2752147058822 545.0380623529408 414.0991358823531 509.8269894117627 414.0991358823531 472.2906576470557L414.0991358823531 443.0588235294208C414.0991358823531 408.9550176470713 392.2280382352939 378.2837352941094 359.6457105882352 366.8235294117575L156.5809794117645 295.2941176470578C144.1873576470589 290.9204176470506 133.8686858823529 282.5051882353044 127.2512764705884 271.377164705882L94.2763905882353 112.9827000000019C91.0237658823531 97.3148764705911 77.0038311764706 86.4636705882464 61.3575847058824 86.4636705882464M879.8469647058824 280.2352941176544L784.5114117647059 280.2352941176544L784.5114117647059 374.3529411764726C784.5114117647059 392.7335647058767 769.4820411764704 407.5709352941083 750.8635705882352 407.5709352941083C732.3011764705882 407.5709352941083 717.2157294117645 392.7335647058767 717.2157294117645 374.3529411764726L717.2157294117645 280.2352941176544L621.8801705882354 280.2352941176544C603.2616999999998 280.2352941176544 588.23233 265.3425588235169 588.23233 247.0172999999919C588.23233 228.6920411764668 603.2616999999998 213.8546705882351 621.8801705882354 213.8546705882351L717.2157294117645 213.8546705882351L717.2157294117645 119.7370235294169C717.2157294117645 101.4117647058919 732.3011764705882 86.5190294117545 750.8635705882352 86.5190294117545C769.4820411764704 86.5190294117545 784.5114117647059 101.4117647058919 784.5114117647059 119.7370235294169L784.5114117647059 213.8546705882351L879.8469647058824 213.8546705882351C898.4654411764707 213.8546705882351 913.4948117647058 228.6920411764668 913.4948117647058 247.0172999999919C913.4948117647058 265.3425588235169 898.4654411764707 280.2352941176544 879.8469647058824 280.2352941176544" />
    <glyph glyph-name="alert-clock"
      unicode="&#xEA04;"
      horiz-adv-x="1000" d=" M269.2312162500001 111.5663062499976L183.5147456250001 25.8498375000045C168.870085 11.2051750000006 168.870085 -12.5385125000008 183.5147456250001 -27.1831687499998C198.1594068749999 -41.8278312500036 221.9030931249999 -41.8278312500036 236.5477543750001 -27.1831687499998L337.8890881249999 74.1581624999981C388.2484537500002 52.5882124999981 443.711541875 40.6458312500035 501.9635418749999 40.6458312500035C567.8074793749998 40.6458312500035 630.08818125 55.9039437499962 685.4626937499999 83.077218750006L795.7230812500003 -27.1831687499998C810.3677375 -41.8278312500036 834.1114250000002 -41.8278312500036 848.7560874999999 -27.1831687499998C863.4007500000002 -12.5385125000008 863.4007500000002 11.2051750000006 848.7560874999999 25.8498375000045L751.2751374999999 123.3307874999952C853.11334375 199.3801750000017 919.0468750000002 320.8559250000036 919.0468750000002 457.7291668749979C919.0468750000002 688.0752612500061 732.3096375000002 874.8125000000044 501.9635418749999 874.8125000000044C271.6174468750001 874.8125000000044 84.880208125 688.0752612500061 84.880208125 457.7291668749979C84.880208125 313.5632187500051 158.0268849999999 186.4792625000007 269.2312162500001 111.5663062499976M844.0468750000001 457.7291668749979C844.0468750000001 268.804424999999 690.8882812499999 115.6458312500064 501.9635418749999 115.6458312500064C313.038803125 115.6458312500064 159.8802081250002 268.804424999999 159.8802081250002 457.7291668749979C159.8802081250002 646.6539049999938 313.038803125 799.8125000000016 501.9635418749999 799.8125000000016C690.8882812499999 799.8125000000016 844.0468750000001 646.6539049999938 844.0468750000001 457.7291668749979M464.46875 457.7291668749979C464.46875 447.7835481250026 468.4196312500002 438.2452768749943 475.4522456250001 431.2126625000019L604.3064124999997 302.3584937500061C618.9510731249999 287.713837499993 642.6947625000001 287.713837499993 657.3394187499999 302.3584937500061C671.9840812499998 317.0031562499958 671.9840812499998 340.7468437499972 657.3394187499999 355.3915062500011L539.4687500000001 473.6552093749964L539.4687500000001 656.8437499999931C539.4687500000001 677.5544281250063 522.679428125 694.3437500000016 501.9687500000001 694.3437500000016C481.2580718750002 694.3437500000016 464.46875 677.5544281250063 464.46875 656.8437499999931M901.2005312499998 902.8851037499948L721.0963624999999 1013.7184368749956C703.4579375000001 1024.572849937499 680.3599375 1019.0733247499963 669.5055187499999 1001.4349034374987C658.6511062499998 983.7964824999972 664.1506312500001 960.698476250002 681.7890562499999 949.8440631249993L861.8932187500002 839.0107299999983C879.5316437500001 828.1563168749955 902.6296499999999 833.6558418750002 913.4840625000002 851.2942631249985C924.338475 868.9326843749967 918.83895 892.0306906250062 901.2005312499998 902.8851037499948M142.049486875 839.0107299999983L322.1536537500001 949.8440631249993C339.7920750000001 960.698476250002 345.2915999999999 983.7964824999972 334.4371868750003 1001.4349034374987C323.5827737500001 1019.0733247499963 300.4847675 1024.572849937499 282.84634625 1013.7184368749956L102.7421799999999 902.8851037499948C85.1037587499999 892.0306906250062 79.604233125 868.9326843749967 90.4586462500001 851.2942631249985C101.3130593749998 833.6558418750002 124.4110656249999 828.1563168749955 142.049486875 839.0107299999983" />
    <glyph glyph-name="align-center"
      unicode="&#xEA05;"
      horiz-adv-x="1000" d=" M382.1435218750002 237.5624999999957C360.9630956249998 237.5624999999957 343.75 254.374999999996 343.75 275.0625000000042C343.75 295.7499999999982 360.9630956249998 312.5 382.1435218750002 312.5L649.1064749999999 312.5C670.3508937500002 312.5 687.5 295.7499999999982 687.5 275.0625000000042C687.5 254.374999999996 670.3508937500002 237.5624999999957 649.1064749999999 237.5624999999957L382.1435218750002 237.5624999999957M256.76216375 487.4999999999972C235.7921200000002 487.4999999999972 218.75 504.3124999999975 218.75 525.0000000000057C218.75 545.7499999999982 235.7921200000002 562.5 256.76216375 562.5L774.4878375000002 562.5C795.5212312499999 562.5 812.5 545.7499999999982 812.5 525.0000000000057C812.5 504.3124999999975 795.5212312499999 487.4999999999972 774.4878375000002 487.4999999999972L256.76216375 487.4999999999972M162.8879731250002 737.4999999999972C141.9864412499998 737.4999999999972 125 754.3124999999975 125 775.0000000000057C125 795.7499999999982 141.9864412499998 812.5 162.8879731250002 812.5L868.3620250000001 812.5C889.3267062499999 812.5 906.25 795.7499999999982 906.25 775.0000000000057C906.25 754.3124999999975 889.3267062499999 737.4999999999972 868.3620250000001 737.4999999999972L162.8879731250002 737.4999999999972" />
    <glyph glyph-name="align-left"
      unicode="&#xEA06;"
      horiz-adv-x="1000" d=" M162.4999999999997 237.1687499999951C141.8125000000004 237.1687499999951 125 253.9812499999954 125 274.6687500000036C125 295.3562499999976 141.8125000000004 312.1062499999994 162.4999999999997 312.1062499999994L423.2500000000004 312.1062499999994C444 312.1062499999994 460.75 295.3562499999976 460.75 274.6687500000036C460.75 253.9812499999954 444 237.1687499999951 423.2500000000004 237.1687499999951L162.4999999999997 237.1687499999951M164.0562499999998 487.4437499999971C143.3687499999996 487.4437499999971 126.5562500000002 504.2562499999974 126.5562500000002 524.9437500000056C126.5562500000002 545.6937499999981 143.3687499999996 562.4437499999999 164.0562499999998 562.4437499999999L674.8062499999996 562.4437499999999C695.5562500000001 562.4437499999999 712.3062500000001 545.6937499999981 712.3062500000001 524.9437500000056C712.3062500000001 504.2562499999974 695.5562500000001 487.4437499999971 674.8062499999996 487.4437499999971L164.0562499999998 487.4437499999971M164.0562499999998 737.4999999999972C143.3687499999996 737.4999999999972 126.5562500000002 754.3124999999975 126.5562500000002 775.0000000000057C126.5562500000002 795.7499999999982 143.3687499999996 812.5 164.0562499999998 812.5L862.3062499999996 812.5C883.0562500000001 812.5 899.8062500000001 795.7499999999982 899.8062500000001 775.0000000000057C899.8062500000001 754.3124999999975 883.0562500000001 737.4999999999972 862.3062499999996 737.4999999999972L164.0562499999998 737.4999999999972" />
    <glyph glyph-name="align-right"
      unicode="&#xEA07;"
      horiz-adv-x="1000" d=" M862.3062499999996 237.1687499999951C882.9937500000007 237.1687499999951 899.8062499999993 253.9812499999954 899.8062499999993 274.6687500000036C899.8062499999993 295.3562499999976 882.9937500000007 312.1062499999994 862.3062499999996 312.1062499999994L601.5562499999997 312.1062499999994C580.8062500000002 312.1062499999994 564.0562500000001 295.3562499999976 564.0562500000001 274.6687500000036C564.0562500000001 253.9812499999954 580.8062500000002 237.1687499999951 601.5562499999997 237.1687499999951L862.3062499999996 237.1687499999951L862.3062499999996 237.1687499999951M860.7499999999994 487.4437499999971C881.4375000000006 487.4437499999971 898.2500000000009 504.2562499999974 898.2500000000009 524.9437500000056C898.2500000000009 545.6937499999981 881.4375000000006 562.4437499999999 860.7499999999994 562.4437499999999L349.9999999999997 562.4437499999999C329.2500000000001 562.4437499999999 312.5 545.6937499999981 312.5 524.9437500000056C312.5 504.2562499999974 329.2500000000001 487.4437499999971 349.9999999999997 487.4437499999971L860.7499999999994 487.4437499999971L860.7499999999994 487.4437499999971M860.7499999999994 737.4999999999972C881.4375000000006 737.4999999999972 898.2500000000009 754.3124999999975 898.2500000000009 775.0000000000057C898.2500000000009 795.7499999999982 881.4375000000006 812.5 860.7499999999994 812.5L162.4999999999997 812.5C141.7500000000001 812.5 125 795.7499999999982 125 775.0000000000057C125 754.3124999999975 141.7500000000001 737.4999999999972 162.4999999999997 737.4999999999972L860.7499999999994 737.4999999999972L860.7499999999994 737.4999999999972" />
    <glyph glyph-name="archive"
      unicode="&#xEA08;"
      horiz-adv-x="1000" d=" M74.1537543749997 709.2818831249997L74.1537543749997 50.7896312499998C74.1537543749997 31.0416687499994 90.1626431249998 15.0327749999999 109.9106081250003 15.0327749999999L890.0655562499998 15.0327749999999C909.81351875 15.0327749999999 925.82240625 31.0416687499994 925.82240625 50.7896312499998L925.82240625 709.2818831249997L964.24314375 709.2818831249997C983.9911125 709.2818831249997 1000 725.2907718750006 1000 745.0387368749994L1000 949.2103694999994C1000 968.9583343125003 983.9911125 984.9672228749994 964.24314375 984.9672228749994L35.7568533750001 984.9672228749994C16.0088885625003 984.9672228749994 0 968.9583343125003 0 949.2103694999994L0 745.0387368749994C0 725.2907718750006 16.0088885625003 709.2818831249997 35.7568533750001 709.2818831249997L74.1537543749997 709.2818831249997L74.1537543749997 709.2818831249997L74.1537543749997 709.2818831249997M854.3087125 86.5033437499996L145.6674624999996 86.5464812500001L145.6674612500004 709.2818831249997L854.3086999999998 709.2818831249997L854.3087125 86.5033437499996L854.3087125 86.5033437499996M71.9826593750001 913.453514375L929.8037375000004 913.453514375L928.4862687499995 780.7955912499995L71.9826593750001 780.7955912499995L71.9826593750001 913.453514375L71.9826593750001 913.453514375M535.7449343749998 376.8640131249992L595.2762775 436.3953556250007C609.2401968749996 450.3592756250008 631.8801812499996 450.3592756250008 645.8441062500002 436.3953556250007C659.8080250000003 422.4314356250005 659.8080250000003 399.7914487499994 645.8441062500002 385.8275287499993L525.28391375 265.2673374999993C511.3199937499999 251.3034187500001 488.6800062500001 251.3034187500001 474.7160862499999 265.2673374999993L354.1558956250004 385.8275287499993C340.1919762499999 399.7914487499994 340.1919762499999 422.4314356250005 354.1558956250004 436.3953556250007C368.1198156249996 450.3592756250008 390.7598031250004 450.3592756250008 404.7237225 436.3953556250007L464.2312275 376.8878506249997L464.2312275 544.7824793749999C464.2312275 564.5304437499999 480.2401162500001 580.5393325000008 499.9880812499997 580.5393325000008C519.7360456249997 580.5393325000008 535.7449343749998 564.5304437499999 535.7449343749998 544.7824793749999L535.7449343749998 376.8640131249992L535.7449343749998 376.8640131249992" />
    <glyph glyph-name="arrange"
      unicode="&#xEA09;"
      horiz-adv-x="1000" d=" M991.7864500000002 843.942505C997.26215 834.3600275000001 1000 821.3552362500001 1000 804.9281312500001L1000 110.88295625C1000 95.8247749999999 996.5776875 81.4510625 989.7330625 67.76180625C984.2573562500002 55.44148125 976.72826875 43.8056125000001 967.1457874999998 32.8542125C954.8254625 23.27173125 942.5051312499997 15.74264375 930.1848062499998 10.2669374999999C913.7577000000002 3.4223125 900.0684437499999 0 889.1170437499998 0L110.8829568749998 0C99.9315537499999 0 86.2422999999999 3.4223125 69.8151949999999 10.2669374999999C57.4948664999999 15.74264375 45.1745379999999 23.27173125 32.8542094375002 32.8542125C23.2717316875002 43.8056125000001 15.7426420000002 55.44148125 10.2669404375 67.76180625C3.4223134812499 85.5578375 0 99.9315562500001 0 110.88295625L0 804.9281312500001C0 821.3552362500001 2.7378507875002 834.3600275000001 8.213552375 843.942505L16.42710475 860.36961L30.8008213750002 876.796714375L100.6160162500001 969.199178625C108.8295687500001 978.781656375 118.41204625 986.3107460625 129.3634500000001 991.786447625C138.9459275 997.2621492125 151.26625625 1000 166.324435625 1000L833.6755624999998 1000C847.36481875 1000 859.0006875 997.2621492125 868.5831625000002 991.786447625C880.9034937499999 984.9418206875 888.43258125 977.412731 891.17043125 969.199178625L969.19918125 876.796714375L983.57289375 860.36961L991.7864500000002 843.942505L991.7864500000002 843.942505zM798.76796875 589.322381875C801.5058187499999 592.0602325 802.8747437499999 595.48254625 802.8747437499999 599.5893225C802.8747437499999 600.9582475 801.5058187499999 604.38056125 798.76796875 609.8562631249999L737.166325 667.351129375L728.9527749999997 671.4579056250001C724.8459937499998 671.4579056250001 721.4236812500001 670.08898 718.6858312500002 667.351129375L437.371663125 388.090349375L330.5954825000002 492.813141875C325.1197812500002 495.5509925 321.6974675 496.919918125 320.328541875 496.919918125C317.59069125 496.919918125 313.483915 495.5509925 308.00821375 492.813141875L250.5133468750001 433.264886875C247.7754962500001 430.5270362500001 246.7488025 427.1047225 247.4332650000002 422.9979468750001C248.1177275 418.8911706250001 249.8288843749999 416.153319375 252.5667349999998 414.7843943750001L427.1047225000002 240.2464062500001C429.8425737500002 237.50855625 433.264886875 236.1396312500001 437.371663125 236.1396312500001C440.10951375 236.1396312500001 443.5318275000002 238.19301875 447.6386037499998 242.29979375L798.76796875 589.322381875L798.76796875 589.322381875zM940.4517437499998 817.24846L827.5154000000002 944.5585215625002L162.217659375 944.5585215625002L80.0821356250001 817.24846L940.4517437499998 817.24846L940.4517437499998 817.24846z" />
    <glyph glyph-name="arrow-down"
      unicode="&#xEA0A;"
      horiz-adv-x="1000" d=" M462.93917875 126.5284437500001L462.93917875 962.9515282500003C462.93917875 983.4128341875 479.526344375 999.999999999997 499.9876506250001 999.999999999997C520.44895625 999.999999999997 537.0361225 983.4128341875 537.0361225 962.9515282500003L537.0361225 126.5037437499999L797.85340625 387.321029375C812.3217375 401.7893575000001 835.77953125 401.7893575000001 850.24785625 387.321029375C864.7161875 372.8527000000001 864.7161875 349.3949062500001 850.24785625 334.926575L526.74923875 11.4279562500001C520.005135625 4.3854 510.5085256250001 0 499.9876506250001 0C489.254318125 0 479.58703625 4.5643062500001 472.820874375 11.85784375L149.75214125 334.926575C135.2838131250001 349.3949062500001 135.2838131250001 372.8527000000001 149.75214125 387.321029375C164.220469375 401.7893575000001 187.6782643749999 401.7893575000001 202.1465925000001 387.321029375L462.93917875 126.5284437500001L462.93917875 126.5284437500001" />
    <glyph glyph-name="arrow-left"
      unicode="&#xEA0B;"
      horiz-adv-x="1000" d=" M916.6875000000002 537.484375L173.8749999999998 537.484375L505.0625000000002 868.6093749999999C519.6874999999999 883.2968750000001 519.6874999999999 907.046875 505.0625000000002 921.6718749999998C490.3750000000002 936.296875 466.6250000000001 936.296875 451.9999999999999 921.6718749999998L56.8124999999999 526.484375C49.8124999999998 519.421875 45.8124999999998 509.9218750000001 45.8124999999998 499.9843750000001C45.8124999999998 490.046875 49.8124999999998 480.484375 56.8124999999999 473.484375L451.9999999999999 78.359375C459.3125000000002 71.046875 468.9375 67.359375 478.4999999999999 67.359375C488.1250000000001 67.359375 497.6875000000001 71.046875 505.0625000000002 78.359375C519.6874999999999 92.984375 519.6874999999999 116.734375 505.0625000000002 131.296875L173.8749999999998 462.484375L916.6875000000002 462.484375C937.4375000000002 462.484375 954.1874999999998 479.234375 954.1874999999998 499.9843750000001C954.1874999999998 520.671875 937.4375000000002 537.484375 916.6875000000002 537.484375" />
    <glyph glyph-name="arrow-right"
      unicode="&#xEA0C;"
      horiz-adv-x="1000" d=" M83.3124999999999 462.515625L826.1250000000002 462.515625L494.9374999999998 131.390625C480.3125000000001 116.703125 480.3125000000001 92.953125 494.9374999999998 78.328125C509.6249999999998 63.703125 533.3750000000003 63.703125 548 78.328125L943.1874999999995 473.515625C950.1875000000002 480.578125 954.1874999999998 490.0781250000001 954.1874999999998 500.0156250000001C954.1874999999998 509.953125 950.1875000000002 519.515625 943.1874999999995 526.515625L548 921.640625C540.6874999999998 928.953125 531.0625 932.6406249999998 521.4999999999997 932.6406249999998C511.8749999999999 932.6406249999998 502.3125000000004 928.953125 494.9374999999998 921.640625C480.3125000000001 907.0156250000002 480.3125000000001 883.265625 494.9374999999998 868.7031249999999L826.1250000000002 537.515625L83.3124999999999 537.515625C62.5625000000003 537.515625 45.8125000000003 520.765625 45.8125000000003 500.0156250000001C45.8125000000003 479.328125 62.5625000000003 462.515625 83.3124999999999 462.515625L83.3124999999999 462.515625L83.3124999999999 462.515625" />
    <glyph glyph-name="arrow-up"
      unicode="&#xEA0D;"
      horiz-adv-x="1000" d=" M675.96171875 873.471556875L675.96171875 37.04846875C675.96171875 16.58716875 659.3745499999999 0 638.9132437500002 0C618.4519387499998 0 601.8647731249995 16.58716875 601.8647731249995 37.04846875L601.8647731249995 873.4962556250001L341.0474881249997 612.6789706249999C326.5791599999997 598.2106425 303.121365 598.2106425 288.653036875 612.6789706249999C274.1847087500001 627.1472987499999 274.1847087500001 650.6050937499999 288.653036875 665.0734218750001L612.15165625 988.5720414375C618.8957593750004 995.6145999249998 628.3923687500002 999.999999999997 638.9132437500002 999.999999999997C649.6465750000002 999.999999999997 659.3138562499998 995.4356950375 666.0800187499998 988.1421550625L989.1487562499996 665.0734218750001C1003.6170812499998 650.6050937499999 1003.6170812499998 627.1472987499999 989.1487562499996 612.6789706249999C974.680425 598.2106425 951.2226312500002 598.2106425 936.7543000000006 612.6789706249999L675.96171875 873.471556875" />
    <glyph glyph-name="at"
      unicode="&#xEA0E;"
      horiz-adv-x="1000" d=" M62.5 483.7500000000006C62.5 233.7500000000006 265.0000000000006 31.25 515.0000000000006 31.25C608.7500000000006 31.25 696.2499999999991 60.0000000000023 769.9999999999995 109.9999999999994L727.4999999999991 171.2500000000006C666.2499999999998 129.9999999999955 593.75 106.2500000000028 516.2499999999994 106.2500000000028C307.4999999999992 106.2500000000028 137.4999999999993 276.2500000000046 137.4999999999993 483.7500000000006C137.4999999999993 692.4999999999955 307.4999999999992 863.749999999996 516.2499999999994 863.749999999996C720.0000000000007 863.749999999996 868.7500000000003 723.7499999999955 868.7500000000003 528.7500000000023C868.7500000000003 385.0000000000051 787.4999999999997 306.2500000000057 711.2499999999998 306.2500000000057C660.0000000000001 306.2500000000057 636.2500000000005 342.5000000000012 657.5000000000007 412.4999999999943L742.4999999999998 709.9999999999937L651.2499999999992 709.9999999999937L631.2499999999997 666.2500000000051C609.9999999999994 696.2500000000063 571.2499999999991 722.4999999999966 518.7500000000007 722.4999999999966C358.7500000000006 722.4999999999966 269.9999999999996 557.5000000000045 269.9999999999996 421.2500000000006C269.9999999999996 312.5 338.7499999999992 251.2499999999989 421.2500000000006 251.2499999999989C478.7499999999998 251.2499999999989 527.4999999999999 281.25 558.7499999999999 319.9999999999932C572.4999999999998 272.4999999999938 616.2500000000009 233.7500000000006 693.7499999999997 233.7500000000006C808.7499999999999 233.7500000000006 942.5000000000008 333.7499999999949 942.5000000000008 528.7500000000023C942.5000000000008 765.0000000000006 759.9999999999998 937.5 515.0000000000006 937.5C265.0000000000006 937.5 62.5 733.7500000000006 62.5 483.7500000000006L62.5 483.7500000000006L62.5 483.7500000000006M377.4999999999995 427.4999999999949C377.4999999999995 515.0000000000006 433.7499999999999 635.0000000000051 527.4999999999999 635.0000000000051C563.7500000000007 635.0000000000051 589.9999999999999 620.0000000000045 607.4999999999999 602.5000000000063L560.0000000000005 439.9999999999978C539.9999999999991 368.7500000000057 494.9999999999992 336.2500000000068 448.7500000000005 336.2500000000068C403.7500000000005 336.2500000000068 377.4999999999995 370.0000000000046 377.4999999999995 427.4999999999949L377.4999999999995 427.4999999999949L377.4999999999995 427.4999999999949" />
    <glyph glyph-name="board"
      unicode="&#xEA0F;"
      horiz-adv-x="1000" d=" M427.6709956250002 415.1272456249995C442.3163624999998 400.48187875 466.0614437500001 400.4826881250008 480.7058118749996 415.1290537500004L939.0183125 873.5040537500005C953.6619749999994 888.1497131249994 953.6603562499994 911.8934000000002 939.0146937499998 926.5370618750007C924.3690375 941.1807245625 900.6253500000004 941.1791056874996 885.9816874999992 926.5334462499997L455.4349368749993 493.4293218750003L314.0165043749992 634.8477543750005C299.3718431249999 649.4924149999993 275.6281568749995 649.4924149999993 260.9834956250001 634.8477543750005C246.3388349999996 620.2030931249993 246.3388349999996 596.4594068750007 260.9834956250001 581.8147456249995M791.6687375000002 143.5966499999993L76.7059356250002 145.8125125000009L74.9812531249994 862.4999968750001L620.8562499999992 862.5000000000007C641.5669249999994 862.5000000000007 658.3562500000006 879.2893218749996 658.3562500000006 900.0000000000003C658.3562500000006 920.7106781249994 641.5669249999994 937.5 620.8562499999992 937.5L37.4812500000008 937.5C16.770571875 937.5 -0.0187500000006 920.7106781249994 -0.0187500000006 900.0000000000003L-0.0187500000006 108.3125000000002C-0.0187500000006 87.6018250000002 16.770571875 70.8125000000006 37.4812500000008 70.8125000000006L829.168750000001 70.8125000000006C849.8794249999993 70.8125000000006 866.6687500000005 87.6018250000002 866.6687500000005 108.3125000000002L866.6687500000005 525.0000000000003C866.6687500000005 545.7106781249994 849.8794249999993 562.5 829.168750000001 562.5C808.4580750000008 562.5 791.6687499999995 545.7106781249994 791.6687499999995 525.0000000000003" />
    <glyph glyph-name="bold"
      unicode="&#xEA10;"
      horiz-adv-x="1000" d=" M250.0000956249995 187.5L250.0000956249995 423.1590268749983L250.1030081250005 487.5000118749995L250 487.5000118749995L250 799.9999999999972L224.9999999999997 799.9999999999972C204.2893218750006 799.9999999999972 187.5 816.7893218750066 187.5 837.5000000000057C187.5 858.2106781250047 204.2893218750006 875 224.9999999999997 875L568.7499999999997 875C675.7635437499996 875 762.4999999999993 788.251562499994 762.4999999999993 681.2500000000057C762.4999999999993 625.0102599999963 738.5388312500005 574.365497499997 700.2662312499997 538.970676874996C774.2011562499993 502.0954018749961 824.9999999999993 425.7175881249964 824.9999999999993 337.5000000000057C824.9999999999993 213.2580749999988 724.2419249999994 112.4999999999972 599.9999999999997 112.4999999999972L325.574493125 112.4999999999972L224.9999999999997 112.4999999999972C204.2893218750006 112.4999999999972 187.5 129.289325000002 187.5 150.0000000000057C187.5 170.7106749999952 204.2893218750006 187.5 224.9999999999997 187.5L250.0000956249995 187.5L250.0000956249995 187.5M324.9999043749998 187.5L599.5574000000001 187.5C682.6223000000002 187.5 749.9999187499996 254.6794250000062 749.9999187499996 337.5000000000057C749.9999187499996 420.3205718749956 682.6223000000002 487.4999999999972 599.5574000000001 487.4999999999972L324.9999043749998 487.4999999999972M324.9999999999993 799.9999999999972L324.9999999999993 562.5L568.7499999999997 562.5C634.3398687500006 562.5 687.5 615.6674749999951 687.5 681.2500000000057C687.5 746.8325250000021 634.3398687500006 799.9999999999972 568.7499999999997 799.9999999999972" />
    <glyph glyph-name="book"
      unicode="&#xEA11;"
      horiz-adv-x="1000" d=" M824.9999999999993 1000L224.9999999999997 1000C170 1000 125 955.0000000000002 125 900.0000000000003L125 99.9999999999997C125 44.9999999999999 170 0 224.9999999999997 0L522.5624999999993 0C549.0624999999998 0 574.5000000000005 10.5000000000005 593.2499999999994 29.2499999999993L895.6874999999993 331.6874999999992C914.4375 350.4375 925.0000000000006 375.8750000000007 925.0000000000006 402.3749999999993L925.0000000000006 900.0000000000003C925.0000000000006 955.0000000000002 880.0000000000008 1000 824.9999999999993 1000L824.9999999999993 1000M573.9374999999995 115.9999999999997L573.9374999999995 321.8750000000004C573.9374999999995 335.3749999999991 585.3749999999991 346.8750000000007 598.9374999999999 346.8750000000007L804.8125000000006 346.8750000000007L573.9374999999995 115.9999999999997L573.9374999999995 115.9999999999997M199.9999999999993 99.9999999999997L199.9999999999993 900.0000000000003C199.9999999999993 913.500000000001 211.4375000000006 925.0000000000006 224.9999999999997 925.0000000000006L824.9999999999993 925.0000000000006C838.5625000000001 925.0000000000006 849.9999999999997 913.500000000001 849.9999999999997 900.0000000000003L849.9999999999997 421.875L598.9374999999999 421.875C543.9375000000002 421.875 498.9375000000002 376.8750000000001 498.9375000000002 321.8750000000004L498.9375000000002 74.9999999999993L224.9999999999997 74.9999999999993C211.4375000000006 74.9999999999993 199.9999999999993 86.4375000000006 199.9999999999993 99.9999999999997L199.9999999999993 99.9999999999997M545.7999999999998 514.9875000000002C566.5499999999995 514.9875000000002 583.2999999999995 531.8000000000005 583.2999999999995 552.4874999999997C583.2999999999995 573.2374999999994 566.5499999999995 589.9874999999995 545.7999999999998 589.9874999999995L316.6124999999998 589.9874999999995C295.9250000000004 589.9874999999995 279.1125000000001 573.2374999999994 279.1125000000001 552.4874999999997C279.1125000000001 531.8000000000005 295.9250000000004 514.9875000000002 316.6124999999998 514.9875000000002L545.7999999999998 514.9875000000002L545.7999999999998 514.9875000000002M316.6437500000008 711.9187500000006L733.331249999999 711.9187500000006C754.0187500000002 711.9187500000006 770.8312500000005 728.7312499999991 770.8312500000005 749.4187500000003C770.8312500000005 770.1687499999998 754.0187500000002 786.9187499999998 733.331249999999 786.9187499999998L316.6437500000008 786.9187499999998C295.8937499999994 786.9187499999998 279.1437499999994 770.1687499999998 279.1437499999994 749.4187500000003C279.1437499999994 728.7312499999991 295.8937499999994 711.9187500000006 316.6437500000008 711.9187500000006L316.6437500000008 711.9187500000006" />
    <glyph glyph-name="bookkeeping-logo"
      unicode="&#xEA12;"
      horiz-adv-x="1000" d=" M500 1000C223.8749999999996 1000 0 776.1250000000005 0 500C0 223.8749999999996 223.8749999999996 0 500 0C776.1250000000005 0 1000 223.8749999999996 1000 500C1000 776.1250000000005 776.1250000000005 1000 500 1000L500 1000M500 75.0000000000028C265.625 75.0000000000028 75.0000000000002 265.625 75.0000000000002 500C75.0000000000002 734.375 265.625 924.9999999999972 500 924.9999999999972C734.375 924.9999999999972 924.9999999999998 734.375 924.9999999999998 500C924.9999999999998 265.625 734.375 75.0000000000028 500 75.0000000000028L500 75.0000000000028M671.5187499999997 755.8000000000006L500.0187499999997 584.3624999999975L328.5812500000001 755.8000000000006C313.9562500000004 770.425000000003 290.2062499999998 770.425000000003 275.5812500000002 755.8000000000006C260.8937500000002 741.1749999999984 260.8937500000002 717.4249999999986 275.5812500000002 702.7374999999978L414.0812499999998 564.2374999999972L314.3937499999998 564.2374999999972C293.7062499999996 564.2374999999972 276.8937500000002 547.4875000000026 276.8937500000002 526.7375000000029C276.8937500000002 505.9875000000034 293.7062499999996 489.2375000000015 314.3937499999998 489.2375000000015L462.5187500000001 489.2375000000015L462.5187500000001 416.9874999999977L314.3937499999998 416.9874999999977C293.7062499999996 416.9874999999977 276.8937500000002 400.1749999999973 276.8937500000002 379.4875000000034C276.8937500000002 358.7374999999966 293.7062499999996 341.9250000000034 314.3937499999998 341.9250000000034L462.5187500000001 341.9250000000034L462.5187500000001 229.2374999999965C462.5187500000001 208.5500000000025 479.2687500000001 191.8000000000006 500.0187499999997 191.8000000000006C520.70625 191.8000000000006 537.5187500000003 208.5500000000025 537.5187500000003 229.2374999999965L537.5187500000003 341.9250000000034L685.70625 341.9250000000034C706.3937500000002 341.9250000000034 723.2062500000005 358.7374999999966 723.2062500000005 379.4875000000034C723.2062500000005 400.1749999999973 706.3937500000002 416.9874999999977 685.70625 416.9874999999977L537.5187500000003 416.9874999999977L537.5187500000003 489.2375000000015L685.70625 489.2375000000015C706.3937500000002 489.2375000000015 723.2062500000005 505.9875000000034 723.2062500000005 526.7375000000029C723.2062500000005 547.4875000000026 706.3937500000002 564.2374999999972 685.70625 564.2374999999972L586.0187500000001 564.2374999999972L724.58125 702.7374999999978C739.2062499999996 717.4249999999986 739.2062499999996 741.1749999999984 724.58125 755.8000000000006C709.9562500000003 770.3624999999975 686.2062499999997 770.425000000003 671.5187499999997 755.8000000000006L671.5187499999997 755.8000000000006" />
    <glyph glyph-name="bookkeeping"
      unicode="&#xEA13;"
      horiz-adv-x="1000" d=" M1000 500C1000 776.1250000000005 776.125 1000 500 1000C223.8750000000001 1000 0 776.1250000000005 0 500C0 223.8749999999996 223.8750000000001 0 500 0C776.125 0 1000 223.8749999999996 1000 500L1000 500L1000 500L1000 500L1000 500M75.0000000000002 500C75.0000000000002 734.375 265.625 924.9999999999972 500 924.9999999999972C734.375 924.9999999999972 924.9999999999998 734.375 924.9999999999998 500C924.9999999999998 265.625 734.375 75.0000000000028 500 75.0000000000028C265.625 75.0000000000028 75.0000000000002 265.625 75.0000000000002 500L75.0000000000002 500L75.0000000000002 500L75.0000000000002 500L75.0000000000002 500L75.0000000000002 500M537.5062499999999 280.3249999999978L537.5062499999999 629.1374999999988L681.8187500000001 484.8250000000007C696.4437500000003 470.1999999999985 720.1937499999999 470.1999999999985 734.8812499999999 484.8250000000007C749.50625 499.4500000000031 749.50625 523.2000000000028 734.8812499999999 537.8874999999965L526.5062499999997 746.2000000000018C511.8812500000001 760.824999999997 488.1312499999999 760.824999999997 473.5062499999998 746.2000000000018L265.1937499999999 537.8874999999965C257.8812500000001 530.5125000000004 254.1937499999998 520.9499999999991 254.1937499999998 511.3249999999994C254.1937499999998 501.7624999999981 257.8812500000001 492.1374999999983 265.1937499999999 484.8250000000007C279.7562500000002 470.1999999999985 303.5687500000002 470.1999999999985 318.1937499999999 484.8250000000007L462.5062500000001 629.1374999999988L462.5062500000001 280.3249999999978C462.5062500000001 259.5749999999981 479.2562500000001 242.8250000000035 500.0062500000002 242.8250000000035C520.6937499999999 242.8250000000035 537.5062499999999 259.5749999999981 537.5062499999999 280.3249999999978L537.5062499999999 280.3249999999978L537.5062499999999 280.3249999999978L537.5062499999999 280.3249999999978L537.5062499999999 280.3249999999978" />
    <glyph glyph-name="briefcase"
      unicode="&#xEA14;"
      horiz-adv-x="1000" d=" M921.875 273.4375L609.375 273.4375C609.375 250 593.75 234.375 570.3125 234.375L492.1875 234.375C468.75 234.375 453.125 250 453.125 273.4375L140.625 273.4375C117.1875 273.4375 101.5625 257.8125 101.5625 234.375L101.5625 117.1875C101.5625 93.75 117.1875 78.125 140.625 78.125L921.875 78.125C945.3125 78.125 960.9375 93.75 960.9375 117.1875L960.9375 234.375C960.9375 257.8125 945.3125 273.4375 921.875 273.4375L921.875 273.4375M960.9375 820.3125L726.5625 820.3125L726.5625 898.4375C726.5625 921.875 710.9375 937.5 687.5 937.5L375 937.5C351.5625 937.5 335.9375 921.875 335.9375 898.4375L335.9375 820.3125L101.5625 820.3125C78.125 820.3125 62.5 804.6875 62.5 781.25L62.5 390.625C62.5 367.1875 78.125 351.5625 101.5625 351.5625L453.125 351.5625L453.125 390.625C453.125 414.0625 468.75 429.6875 492.1875 429.6875L570.3125 429.6875C593.75 429.6875 609.375 414.0625 609.375 390.625L609.375 351.5625L960.9375 351.5625C984.375 351.5625 1000 367.1875 1000 390.625L1000 781.25C1000 804.6875 984.375 820.3125 960.9375 820.3125L960.9375 820.3125" />
    <glyph glyph-name="building"
      unicode="&#xEA15;"
      horiz-adv-x="1000" d=" M725.0062499999999 1000.0125000000004L275.0062500000006 1000.0125000000004C185.381249999999 1000.0125000000004 112.5062499999991 927.0750000000002 112.5062499999991 837.5125000000007L112.5062499999991 37.4499999999998C112.5062499999991 16.7625000000005 129.256250000001 0.0125000000004 150.0062500000006 0.0125000000004L850.0062499999999 0.0125000000004C870.7562499999995 0.0125000000004 887.5062500000013 16.7625000000005 887.5062500000013 37.4499999999998L887.5062500000013 837.5125000000007C887.5062500000013 927.0750000000002 814.6312500000015 1000.0125000000004 725.0062499999999 1000.0125000000004L725.0062499999999 1000.0125000000004M812.5062499999984 74.9499999999994L600.0062499999999 74.9499999999994L600.0062499999999 261.6999999999994C600.0062499999999 282.3875000000005 583.1937499999995 299.2000000000009 562.5062499999984 299.2000000000009L437.5062499999985 299.2000000000009C416.818750000001 299.2000000000009 400.0062500000006 282.3875000000005 400.0062500000006 261.6999999999994L400.0062500000006 74.9499999999994L187.5062499999984 74.9499999999994L187.5062499999984 837.5125000000007C187.5062499999984 885.7625000000003 226.7562500000011 925.0124999999994 275.0062500000006 925.0124999999994L725.0062499999999 925.0124999999994C773.2562499999993 925.0124999999994 812.5062499999984 885.7625000000003 812.5062499999984 837.5125000000007L812.5062499999984 74.9499999999994L812.5062499999984 74.9499999999994M376.2374999999985 497.7750000000008L331.2375000000003 497.7750000000008C310.5499999999992 497.7750000000008 293.7374999999989 480.9625000000004 293.7374999999989 460.2749999999993L293.7374999999989 415.2749999999994C293.7374999999989 394.5875000000001 310.5499999999992 377.7749999999998 331.2375000000003 377.7749999999998L376.2374999999985 377.7749999999998C396.9249999999995 377.7749999999998 413.7374999999999 394.5875000000001 413.7374999999999 415.2749999999994L413.7374999999999 460.2749999999993C413.7374999999999 480.9625000000004 396.9249999999995 497.7750000000008 376.2374999999985 497.7750000000008L376.2374999999985 497.7750000000008M668.7624999999997 497.7750000000008L623.7625000000015 497.7750000000008C603.0750000000005 497.7750000000008 586.2625000000002 480.9625000000004 586.2625000000002 460.2749999999993L586.2625000000002 415.2749999999994C586.2625000000002 394.5875000000001 603.0750000000005 377.7749999999998 623.7625000000015 377.7749999999998L668.7624999999997 377.7749999999998C689.4500000000007 377.7749999999998 706.2625000000012 394.5875000000001 706.2625000000012 415.2749999999994L706.2625000000012 460.2749999999993C706.2625000000012 480.9625000000004 689.4500000000007 497.7750000000008 668.7624999999997 497.7750000000008L668.7624999999997 497.7750000000008M376.2374999999985 667.75625L331.2375000000003 667.75625C310.5499999999992 667.75625 293.7374999999989 650.9437499999997 293.7374999999989 630.2562500000004L293.7374999999989 585.2562500000005C293.7374999999989 564.5687499999995 310.5499999999992 547.7562500000008 331.2375000000003 547.7562500000008L376.2374999999985 547.7562500000008C396.9249999999995 547.7562500000008 413.7374999999999 564.5687499999995 413.7374999999999 585.2562500000005L413.7374999999999 630.2562500000004C413.7374999999999 650.9437499999997 396.9249999999995 667.75625 376.2374999999985 667.75625L376.2374999999985 667.75625M668.7624999999997 667.75625L623.7625000000015 667.75625C603.0750000000005 667.75625 586.2625000000002 650.9437499999997 586.2625000000002 630.2562500000004L586.2625000000002 585.2562500000005C586.2625000000002 564.5687499999995 603.0750000000005 547.7562500000008 623.7625000000015 547.7562500000008L668.7624999999997 547.7562500000008C689.4500000000007 547.7562500000008 706.2625000000012 564.5687499999995 706.2625000000012 585.2562500000005L706.2625000000012 630.2562500000004C706.2625000000012 650.9437499999997 689.4500000000007 667.75625 668.7624999999997 667.75625L668.7624999999997 667.75625M376.2374999999985 837.6874999999995L331.2375000000003 837.6874999999995C310.5499999999992 837.6874999999995 293.7374999999989 820.8749999999991 293.7374999999989 800.1874999999998L293.7374999999989 755.1874999999999C293.7374999999989 734.5000000000006 310.5499999999992 717.6875000000002 331.2375000000003 717.6875000000002L376.2374999999985 717.6875000000002C396.9249999999995 717.6875000000002 413.7374999999999 734.5000000000006 413.7374999999999 755.1874999999999L413.7374999999999 800.1874999999998C413.7374999999999 820.8749999999991 396.9249999999995 837.6874999999995 376.2374999999985 837.6874999999995L376.2374999999985 837.6874999999995M668.7624999999997 837.6874999999995L623.7625000000015 837.6874999999995C603.0750000000005 837.6874999999995 586.2625000000002 820.8749999999991 586.2625000000002 800.1874999999998L586.2625000000002 755.1874999999999C586.2625000000002 734.5000000000006 603.0750000000005 717.6875000000002 623.7625000000015 717.6875000000002L668.7624999999997 717.6875000000002C689.4500000000007 717.6875000000002 706.2625000000012 734.5000000000006 706.2625000000012 755.1874999999999L706.2625000000012 800.1874999999998C706.2625000000012 820.8749999999991 689.4500000000007 837.6874999999995 668.7624999999997 837.6874999999995L668.7624999999997 837.6874999999995" />
    <glyph glyph-name="bulb"
      unicode="&#xEA16;"
      horiz-adv-x="1000" d=" M609.375 78.125L453.125 78.125C429.6875 78.125 414.0625 62.5 414.0625 39.0625C414.0625 15.625 429.6875 0 453.125 0L609.375 0C632.8125 0 648.4375 15.625 648.4375 39.0625C648.4375 62.5 632.8125 78.125 609.375 78.125L609.375 78.125L609.375 78.125M531.25 742.1875C378.90625 742.1875 257.8125 621.09375 257.8125 468.75C257.8125 363.28125 320.3125 265.625 414.0625 222.65625L414.0625 156.25C414.0625 132.8125 429.6875 117.1875 453.125 117.1875L609.375 117.1875C632.8125 117.1875 648.4375 132.8125 648.4375 156.25L648.4375 222.65625C742.1875 265.625 804.6875 363.28125 804.6875 468.75C804.6875 621.09375 683.59375 742.1875 531.25 742.1875L531.25 742.1875L531.25 742.1875M179.6875 507.8125L101.5625 507.8125C78.125 507.8125 62.5 492.1875 62.5 468.75C62.5 445.3125 78.125 429.6875 101.5625 429.6875L179.6875 429.6875C203.125 429.6875 218.75 445.3125 218.75 468.75C218.75 492.1875 203.125 507.8125 179.6875 507.8125L179.6875 507.8125L179.6875 507.8125M308.59375 691.40625C324.21875 707.03125 324.21875 730.46875 308.59375 746.09375L253.90625 800.78125C238.28125 816.40625 214.84375 816.40625 199.21875 800.78125C183.59375 785.15625 183.59375 761.71875 199.21875 746.09375L253.90625 691.40625C261.71875 683.59375 273.4375 679.6875 281.25 679.6875C289.0625 679.6875 300.78125 683.59375 308.59375 691.40625L308.59375 691.40625L308.59375 691.40625M531.25 781.25C554.6875 781.25 570.3125 796.875 570.3125 820.3125L570.3125 898.4375C570.3125 921.875 554.6875 937.5 531.25 937.5C507.8125 937.5 492.1875 921.875 492.1875 898.4375L492.1875 820.3125C492.1875 796.875 507.8125 781.25 531.25 781.25L531.25 781.25L531.25 781.25M863.28125 800.78125C847.65625 816.40625 824.21875 816.40625 808.59375 800.78125L753.90625 746.09375C738.28125 730.46875 738.28125 707.03125 753.90625 691.40625C761.71875 683.59375 773.4375 679.6875 781.25 679.6875C789.0625 679.6875 800.78125 683.59375 808.59375 691.40625L863.28125 746.09375C878.90625 761.71875 878.90625 785.15625 863.28125 800.78125L863.28125 800.78125L863.28125 800.78125M960.9375 507.8125L882.8125 507.8125C859.375 507.8125 843.75 492.1875 843.75 468.75C843.75 445.3125 859.375 429.6875 882.8125 429.6875L960.9375 429.6875C984.375 429.6875 1000 445.3125 1000 468.75C1000 492.1875 984.375 507.8125 960.9375 507.8125L960.9375 507.8125L960.9375 507.8125" />
    <glyph glyph-name="bus"
      unicode="&#xEA17;"
      horiz-adv-x="1000" d=" M765.625 937.5L296.875 937.5C230.46875 937.5 179.6875 886.71875 179.6875 820.3125L179.6875 234.375C179.6875 210.9375 195.3125 195.3125 218.75 195.3125L218.75 117.1875C218.75 93.75 234.375 78.125 257.8125 78.125L375 78.125C398.4375 78.125 414.0625 93.75 414.0625 117.1875L414.0625 195.3125L648.4375 195.3125L648.4375 117.1875C648.4375 93.75 664.0625 78.125 687.5 78.125L804.6875 78.125C828.125 78.125 843.75 93.75 843.75 117.1875L843.75 195.3125C867.1875 195.3125 882.8125 210.9375 882.8125 234.375L882.8125 820.3125C882.8125 886.71875 832.03125 937.5 765.625 937.5L765.625 937.5L765.625 937.5M414.0625 312.5L335.9375 312.5C312.5 312.5 296.875 328.125 296.875 351.5625C296.875 375 312.5 390.625 335.9375 390.625L414.0625 390.625C437.5 390.625 453.125 375 453.125 351.5625C453.125 328.125 437.5 312.5 414.0625 312.5L414.0625 312.5M257.8125 807.2998800000005C257.8125 836.0601743749996 281.3110350000017 859.375 310.2491737500017 859.375L752.2508250000009 859.375C781.2108000000002 859.375 804.6875 836.0618725000002 804.6875 807.2998800000005L804.6875 585.9375L257.8125 585.9375L257.8125 807.2998800000005L257.8125 807.2998800000005M101.5625 664.0625C78.125 664.0625 62.5 648.4375 62.5 625L62.5 507.8125C62.5 484.375 78.125 468.75 101.5625 468.75C125 468.75 140.625 484.375 140.625 507.8125L140.625 625C140.625 648.4375 125 664.0625 101.5625 664.0625L101.5625 664.0625M960.9375 664.0625C937.5 664.0625 921.875 648.4375 921.875 625L921.875 507.8125C921.875 484.375 937.5 468.75 960.9375 468.75C984.375 468.75 1000 484.375 1000 507.8125L1000 625C1000 648.4375 984.375 664.0625 960.9375 664.0625L960.9375 664.0625" />
    <glyph glyph-name="calculator"
      unicode="&#xEA18;"
      horiz-adv-x="1000" d=" M960.9375 937.5L101.5625 937.5C78.125 937.5 62.5 921.875 62.5 898.4375L62.5 39.0625C62.5 15.625 78.125 0 101.5625 0L960.9375 0C984.375 0 1000 15.625 1000 39.0625L1000 898.4375C1000 921.875 984.375 937.5 960.9375 937.5L960.9375 937.5L960.9375 937.5L960.9375 937.5M441.40625 222.65625C457.03125 207.03125 457.03125 183.59375 441.40625 167.96875C433.59375 160.15625 425.78125 156.25 414.0625 156.25C402.34375 156.25 394.53125 160.15625 386.71875 167.96875L335.9375 218.75L285.15625 167.96875C277.34375 160.15625 269.53125 156.25 257.8125 156.25C246.09375 156.25 238.28125 160.15625 230.46875 167.96875C214.84375 183.59375 214.84375 207.03125 230.46875 222.65625L281.25 273.4375L230.46875 324.21875C214.84375 339.84375 214.84375 363.28125 230.46875 378.90625C246.09375 394.53125 269.53125 394.53125 285.15625 378.90625L335.9375 328.125L386.71875 378.90625C402.34375 394.53125 425.78125 394.53125 441.40625 378.90625C457.03125 363.28125 457.03125 339.84375 441.40625 324.21875L390.625 273.4375L441.40625 222.65625L441.40625 222.65625L441.40625 222.65625L441.40625 222.65625M804.6875 156.25L648.4375 156.25C625 156.25 609.375 171.875 609.375 195.3125C609.375 218.75 625 234.375 648.4375 234.375L804.6875 234.375C828.125 234.375 843.75 218.75 843.75 195.3125C843.75 171.875 828.125 156.25 804.6875 156.25L804.6875 156.25L804.6875 156.25L804.6875 156.25M804.6875 312.5L648.4375 312.5C625 312.5 609.375 328.125 609.375 351.5625C609.375 375 625 390.625 648.4375 390.625L804.6875 390.625C828.125 390.625 843.75 375 843.75 351.5625C843.75 328.125 828.125 312.5 804.6875 312.5L804.6875 312.5L804.6875 312.5L804.6875 312.5M414.0625 625L375 625L375 585.9375C375 562.5 359.375 546.875 335.9375 546.875C312.5 546.875 296.875 562.5 296.875 585.9375L296.875 625L257.8125 625C234.375 625 218.75 640.625 218.75 664.0625C218.75 687.5 234.375 703.125 257.8125 703.125L296.875 703.125L296.875 742.1875C296.875 765.625 312.5 781.25 335.9375 781.25C359.375 781.25 375 765.625 375 742.1875L375 703.125L414.0625 703.125C437.5 703.125 453.125 687.5 453.125 664.0625C453.125 640.625 437.5 625 414.0625 625L414.0625 625L414.0625 625L414.0625 625M804.6875 625L648.4375 625C625 625 609.375 640.625 609.375 664.0625C609.375 687.5 625 703.125 648.4375 703.125L804.6875 703.125C828.125 703.125 843.75 687.5 843.75 664.0625C843.75 640.625 828.125 625 804.6875 625L804.6875 625L804.6875 625L804.6875 625" />
    <glyph glyph-name="calendar"
      unicode="&#xEA19;"
      horiz-adv-x="1000" d=" M830.8749999999998 911.7499999999978L740.875 911.7499999999978L740.875 962.5000000000056C740.875 983.1874999999995 724.1249999999999 1000 703.3750000000003 1000C682.6249999999998 1000 665.8749999999998 983.1874999999995 665.8749999999998 962.5000000000056L665.8749999999998 911.7499999999978L334.1250000000003 911.7499999999978L334.1250000000003 962.5000000000056C334.1250000000003 983.1874999999995 317.3750000000002 1000 296.6249999999997 1000C275.9375000000004 1000 259.1250000000001 983.1874999999995 259.1250000000001 962.5000000000056L259.1250000000001 911.7499999999978L169.1250000000002 911.7499999999978C100.3749999999997 911.7499999999978 44.1250000000002 855.5000000000064 44.1250000000002 786.7499999999978L44.1250000000002 125C44.1250000000002 56.2500000000057 100.3749999999997 0 169.1250000000002 0L830.8749999999998 0C899.6250000000003 0 955.8749999999998 56.2500000000057 955.8749999999998 125L955.8749999999998 786.7499999999978C955.8749999999998 855.5000000000064 899.6250000000003 911.7499999999978 830.8749999999998 911.7499999999978L830.8749999999998 911.7499999999978L830.8749999999998 911.7499999999978M830.8749999999998 75.0000000000028L169.1250000000002 75.0000000000028C142.0000000000004 75.0000000000028 119.1250000000004 97.8750000000019 119.1250000000004 125L119.1250000000004 607.3750000000047L880.8749999999997 607.3750000000047L880.8749999999997 125C880.8749999999997 97.8750000000019 857.9999999999997 75.0000000000028 830.8749999999998 75.0000000000028L830.8749999999998 75.0000000000028L830.8749999999998 75.0000000000028M169.1250000000002 836.749999999995L259.1250000000001 836.749999999995L259.1250000000001 810.1249999999993C259.1250000000001 789.4375000000053 275.9375000000004 772.625000000005 296.6249999999997 772.625000000005C317.3750000000002 772.625000000005 334.1250000000003 789.4375000000053 334.1250000000003 810.1249999999993L334.1250000000003 836.749999999995L665.8749999999998 836.749999999995L665.8749999999998 810.1249999999993C665.8749999999998 789.4375000000053 682.6249999999998 772.625000000005 703.3750000000003 772.625000000005C724.1249999999999 772.625000000005 740.875 789.4375000000053 740.875 810.1249999999993L740.875 836.749999999995L830.8749999999998 836.749999999995C857.9999999999997 836.749999999995 880.8749999999997 813.8749999999959 880.8749999999997 786.7499999999978L880.8749999999997 682.3749999999933L119.1250000000004 682.3749999999933L119.1250000000004 786.7499999999978C119.1250000000004 813.8749999999959 142.0000000000004 836.749999999995 169.1250000000002 836.749999999995L169.1250000000002 836.749999999995L169.1250000000002 836.749999999995" />
    <glyph glyph-name="calendar2"
      unicode="&#xEA1A;"
      horiz-adv-x="1000" d=" M849.2500000000001 911.75L759.25 911.75L759.25 962.4999999999998C759.25 983.1875000000002 742.5000000000001 1000 721.7500000000001 1000C701.0000000000001 1000 684.25 983.1875000000002 684.25 962.4999999999998L684.25 911.75L352.5000000000001 911.75L352.5000000000001 962.4999999999998C352.5000000000001 983.1875000000002 335.75 1000 315 1000C294.3125000000003 1000 277.4999999999999 983.1875000000002 277.4999999999999 962.4999999999998L277.4999999999999 911.75L187.5 911.75C118.7499999999999 911.75 62.5 855.5000000000001 62.5 786.75L62.5 125C62.5 56.2499999999999 118.7499999999999 0 187.5 0L849.2500000000001 0C918.0000000000002 0 974.2500000000002 56.2499999999999 974.2500000000002 125L974.2500000000002 786.75C974.2500000000002 855.5000000000001 918.0000000000002 911.75 849.2500000000001 911.75M849.2500000000001 75L187.5 75C160.3750000000002 75 137.5000000000002 97.8750000000001 137.5000000000002 125L137.5000000000002 607.3750000000002L899.2499999999999 607.3750000000002L899.2499999999999 125C899.2499999999999 97.8750000000001 876.3749999999999 75 849.2500000000001 75M187.5 836.7499999999999L277.4999999999999 836.7499999999999L277.4999999999999 810.1250000000002C277.4999999999999 789.4375 294.3125000000003 772.6250000000001 315 772.6250000000001C335.75 772.6250000000001 352.5000000000001 789.4375 352.5000000000001 810.1250000000002L352.5000000000001 836.7499999999999L684.25 836.7499999999999L684.25 810.1250000000002C684.25 789.4375 701.0000000000001 772.6250000000001 721.7500000000001 772.6250000000001C742.5000000000001 772.6250000000001 759.25 789.4375 759.25 810.1250000000002L759.25 836.7499999999999L849.2500000000001 836.7499999999999C876.3749999999999 836.7499999999999 899.2499999999999 813.8749999999999 899.2499999999999 786.75L899.2499999999999 682.375L137.5000000000002 682.375L137.5000000000002 786.75C137.5000000000002 813.8749999999999 160.3750000000002 836.7499999999999 187.5 836.7499999999999M739.9 314.9250000000001L712.5875000000002 314.9250000000001C678.0249999999999 314.9250000000001 650.0875000000002 286.9250000000001 650.0875000000002 252.4250000000001L650.0875000000002 225.1125000000001C650.0875000000002 190.55 678.0249999999999 162.6125000000001 712.5875000000002 162.6125000000001L739.9 162.6125000000001C774.4 162.6125000000001 802.4 190.55 802.4 225.1125000000001L802.4 252.4250000000001C802.4 286.9250000000001 774.4 314.9250000000001 739.9 314.9250000000001" />
    <glyph glyph-name="calendar3"
      unicode="&#xEA1B;"
      horiz-adv-x="1000" d=" M849.2499999999997 911.75L759.2499999999998 911.75L759.2499999999998 962.4999999999998C759.2499999999998 983.1875000000002 742.4999999999998 1000 721.7500000000001 1000C700.9999999999997 1000 684.2500000000005 983.1875000000002 684.2500000000005 962.4999999999998L684.2500000000005 911.75L352.5000000000001 911.75L352.5000000000001 962.4999999999998C352.5000000000001 983.1875000000002 335.75 1000 315.0000000000004 1000C294.3125000000003 1000 277.4999999999999 983.1875000000002 277.4999999999999 962.4999999999998L277.4999999999999 911.75L187.5 911.75C118.7500000000004 911.75 62.5 855.5000000000001 62.5 786.75L62.5 125C62.5 56.2499999999999 118.7500000000004 0 187.5 0L849.2499999999997 0C918.0000000000002 0 974.2499999999995 56.2499999999999 974.2499999999995 125L974.2499999999995 786.75C974.2499999999995 855.5000000000001 918.0000000000002 911.75 849.2499999999997 911.75M849.2499999999997 75L187.5 75C160.3750000000002 75 137.5000000000002 97.8750000000001 137.5000000000002 125L137.5000000000002 607.3750000000002L899.2500000000003 607.3750000000002L899.2500000000003 125C899.2500000000003 97.8750000000001 876.3750000000003 75 849.2499999999997 75M187.5 836.7499999999999L277.4999999999999 836.7499999999999L277.4999999999999 810.1250000000002C277.4999999999999 789.4375 294.3125000000003 772.6250000000001 315.0000000000004 772.6250000000001C335.75 772.6250000000001 352.5000000000001 789.4375 352.5000000000001 810.1250000000002L352.5000000000001 836.7499999999999L684.2500000000005 836.7499999999999L684.2500000000005 810.1250000000002C684.2500000000005 789.4375 700.9999999999997 772.6250000000001 721.7500000000001 772.6250000000001C742.4999999999998 772.6250000000001 759.2499999999998 789.4375 759.2499999999998 810.1250000000002L759.2499999999998 836.7499999999999L849.2499999999997 836.7499999999999C876.3750000000003 836.7499999999999 899.2500000000003 813.8749999999999 899.2500000000003 786.75L899.2500000000003 682.375L137.5000000000002 682.375L137.5000000000002 786.75C137.5000000000002 813.8749999999999 160.3750000000002 836.7499999999999 187.5 836.7499999999999M326.9374999999997 531.25L299.6249999999999 531.25C265.0625 531.25 237.1249999999998 503.25 237.1249999999998 468.75L237.1249999999998 441.4375000000001C237.1249999999998 406.8749999999999 265.0625 378.9375000000001 299.6249999999999 378.9375000000001L326.9374999999997 378.9375000000001C361.4375000000001 378.9375000000001 389.4374999999997 406.8749999999999 389.4374999999997 441.4375000000001L389.4374999999997 468.75C389.4374999999997 503.25 361.4375000000001 531.25 326.9374999999997 531.25" />
    <glyph glyph-name="camera"
      unicode="&#xEA1C;"
      horiz-adv-x="1000" d=" M618.1875000000013 937.5L381.7500000000003 937.5C340.1250000000005 937.5 302.8125000000017 911.6250000000008 288.1250000000009 872.6249999999993L268.1874999999998 819.4374999999993L100.0000000000014 819.4374999999993C45.0000000000017 819.4374999999993 0 774.4374999999994 0 719.4374999999998L0 169.4375000000008C0 114.4374999999993 45.0000000000017 69.4374999999993 100.0000000000014 69.4374999999993L899.9999999999986 69.4374999999993C954.9999999999982 69.4374999999993 1000 114.4374999999993 1000 169.4375000000008L1000 719.4374999999998C1000 774.4374999999994 954.9999999999982 819.4374999999993 899.9999999999986 819.4374999999993L731.7500000000017 819.4374999999993L711.8125000000007 872.6249999999993C697.1874999999983 911.6250000000008 659.8749999999995 937.5 618.1875000000013 937.5M618.1875000000013 862.5000000000007C628.562500000001 862.5000000000007 637.9374999999995 855.9999999999999 641.6250000000013 846.2499999999995L661.5624999999987 793.1249999999999C672.4999999999994 763.8125000000002 700.5000000000017 744.4375000000001 731.7500000000017 744.4375000000001L899.9999999999986 744.4375000000001C913.5625000000013 744.4375000000001 925.0000000000006 733.0000000000006 925.0000000000006 719.4374999999998L925.0000000000006 169.4375000000008C925.0000000000006 155.875 913.5625000000013 144.4375000000005 899.9999999999986 144.4375000000005L100.0000000000014 144.4375000000005C86.4374999999988 144.4375000000005 74.9999999999993 155.875 74.9999999999993 169.4375000000008L74.9999999999993 719.4374999999998C74.9999999999993 733.0000000000006 86.4374999999988 744.4375000000001 100.0000000000014 744.4375000000001L268.1874999999998 744.4375000000001C299.4999999999983 744.4375000000001 327.4374999999985 763.8125000000002 338.4375000000013 793.1249999999999L358.3749999999988 846.2499999999995C361.9999999999983 855.9999999999999 371.437499999999 862.5000000000007 381.7500000000003 862.5000000000007L618.1875000000013 862.5000000000007M499.9812500000012 659.0000000000007C381.4812500000002 659.0000000000007 285.4187500000017 562.9375000000003 285.4187500000017 444.4374999999993C285.4187500000017 325.9375000000003 381.4812500000002 229.8749999999998 499.9812500000012 229.8749999999998C618.4812499999986 229.8749999999998 714.5437500000007 325.9375000000003 714.5437500000007 444.4374999999993C714.5437500000007 562.9375000000003 618.4812499999986 659.0000000000007 499.9812500000012 659.0000000000007M499.9812500000012 583.9999999999997C576.9187500000008 583.9999999999997 639.5437500000014 521.3750000000008 639.5437500000014 444.4374999999993C639.5437500000014 367.4999999999998 576.9187500000008 304.8749999999991 499.9812500000012 304.8749999999991C423.0437500000015 304.8749999999991 360.4187500000009 367.4999999999998 360.4187500000009 444.4374999999993C360.4187500000009 521.3750000000008 423.0437500000015 583.9999999999997 499.9812500000012 583.9999999999997M849.9687499999986 629.2312500000002C849.9687499999986 601.6062499999997 827.5937499999984 579.2312499999994 799.9687500000015 579.2312499999994C772.343750000001 579.2312499999994 749.9687500000007 601.6062499999997 749.9687500000007 629.2312500000002C749.9687500000007 656.8562500000006 772.343750000001 679.2312500000008 799.9687500000015 679.2312500000008C827.5937499999984 679.2312500000008 849.9687499999986 656.8562500000006 849.9687499999986 629.2312500000002" />
    <glyph glyph-name="caret"
      unicode="&#xEA1D;"
      horiz-adv-x="1000" d=" M37.5680843124968 875C6.6663848749968 875 -10.9729353750012 839.7213593749999 7.5680843125028 814.9999999999995L476.3180843750021 189.9999999999996C491.3180843750027 169.9999999999999 521.3180843749967 169.9999999999999 536.3180843749973 189.9999999999996L1005.068081250002 814.9999999999995C1023.6091062499996 839.7213593749999 1005.969781250002 875 975.0680812500008 875L37.5680843124968 875L37.5680843124968 875L37.5680843124968 875L37.5680843124968 875M903.015131250001 800.00000125L507.345148749998 273.63058125L114.0632624999967 800.00000125L903.015131250001 800.00000125" />
    <glyph glyph-name="chain"
      unicode="&#xEA1E;"
      horiz-adv-x="1000" d=" M399.9999999999986 275.0000000000057L237.5000000000007 275.0000000000057C106.562499999999 275.0000000000057 0 381.5625000000012 0 512.5000000000028C0 643.4375000000045 106.562499999999 750 237.5000000000007 750L399.9999999999986 750C420.7500000000017 750 437.5 733.2499999999982 437.5 712.5000000000057C437.5 691.749999999999 420.7500000000017 674.9999999999972 399.9999999999986 674.9999999999972L237.5000000000007 674.9999999999972C147.8749999999991 674.9999999999972 74.9999999999993 602.0625000000024 74.9999999999993 512.5000000000028C74.9999999999993 422.8750000000048 147.8749999999991 349.9999999999943 237.5000000000007 349.9999999999943L399.9999999999986 349.9999999999943C420.7500000000017 349.9999999999943 437.5 333.187499999994 437.5 312.5C437.5 291.8125000000061 420.7500000000017 275.0000000000057 399.9999999999986 275.0000000000057M750.0062499999984 474.981249999999L250.0062499999985 474.981249999999C229.2562499999989 474.981249999999 212.5062500000006 491.7937499999994 212.5062500000006 512.4812499999933C212.5062500000006 533.23125 229.2562499999989 549.9812500000019 250.0062499999985 549.9812500000019L750.0062499999984 549.9812500000019C770.7562500000016 549.9812500000019 787.5062499999999 533.23125 787.5062499999999 512.4812499999933C787.5062499999999 491.7937499999994 770.7562500000016 474.981249999999 750.0062499999984 474.981249999999M762.4874999999988 275.0000000000057L599.987500000001 275.0000000000057C579.3 275.0000000000057 562.4874999999996 291.8125000000061 562.4874999999996 312.5C562.4874999999996 333.187499999994 579.3 349.9999999999943 599.987500000001 349.9999999999943L762.4874999999988 349.9999999999943C852.1125000000005 349.9999999999943 924.9875000000002 422.8750000000048 924.9875000000002 512.5000000000028C924.9875000000002 602.0625000000024 852.1125000000005 674.9999999999972 762.4874999999988 674.9999999999972L599.987500000001 674.9999999999972C579.3 674.9999999999972 562.4874999999996 691.749999999999 562.4874999999996 712.5000000000057C562.4874999999996 733.2499999999982 579.3 750 599.987500000001 750L762.4874999999988 750C893.4250000000006 750 999.9874999999996 643.4375000000045 999.9874999999996 512.5000000000028C999.9874999999996 381.5625000000012 893.4250000000006 275.0000000000057 762.4874999999988 275.0000000000057" />
    <glyph glyph-name="chat-create"
      unicode="&#xEA1F;"
      horiz-adv-x="1000" d=" M862.4999999999972 1000L137.5000000000029 1000C61.6874999999979 1000 0 938.3125000000005 0 862.5000000000007L0 362.5000000000007C0 286.6250000000008 61.6874999999979 224.9999999999997 137.5000000000029 224.9999999999997L319.0625000000012 224.9999999999997L319.0625000000012 86.6249999999998C319.0625000000012 71.5000000000003 328.2499999999971 57.8125000000007 342.25 51.9999999999995C346.8749999999972 50.0624999999992 351.7500000000027 49.1875000000003 356.5625000000026 49.1875000000003C366.3124999999994 49.1875000000003 375.9374999999992 52.9375000000006 383.1249999999997 60.0625000000008L558.9999999999975 235.9375000000004C573.6249999999998 250.5625000000009 573.6249999999998 274.3125000000007 558.9999999999975 288.9999999999997C544.4375000000008 303.5625 520.6875000000011 303.5625 505.9375000000017 289.0625L394.0624999999969 177.1250000000002L394.0624999999969 262.4999999999993C394.0624999999969 283.1875000000004 377.3125000000022 299.9375000000005 356.5625000000026 299.9375000000005L137.5000000000029 299.9375000000005C103.0625000000001 299.9375000000005 75.0000000000028 328.0624999999997 75.0000000000028 362.5000000000007L75.0000000000028 862.5000000000007C75.0000000000028 897.0000000000002 103.0625000000001 925.0000000000006 137.5000000000029 925.0000000000006L862.4999999999972 925.0000000000006C896.9375 925.0000000000006 924.9999999999972 897.0000000000002 924.9999999999972 862.5000000000007L924.9999999999972 564C924.9999999999972 543.3125000000007 941.8124999999974 526.5000000000005 962.4999999999986 526.5000000000005C983.2499999999982 526.5000000000005 1000 543.3125000000007 1000 564L1000 862.5000000000007C1000 938.3125000000005 938.312500000002 1000 862.4999999999972 1000M962.506249999997 299.8375000000007L850.0062499999999 299.8375000000007L850.0062499999999 412.3374999999997C850.0062499999999 433.0874999999992 833.2562499999981 449.8374999999992 812.5062499999984 449.8374999999992C791.8187499999974 449.8374999999992 775.006249999997 433.0874999999992 775.006249999997 412.3374999999997L775.006249999997 299.8375000000007L662.5062499999999 299.8375000000007C641.8187499999988 299.8375000000007 625.0062499999984 283.0250000000003 625.0062499999984 262.3374999999992C625.0062499999984 241.6499999999999 641.8187499999988 224.8999999999999 662.5062499999999 224.8999999999999L775.006249999997 224.8999999999999L775.006249999997 112.3375000000007C775.006249999997 91.6499999999995 791.8187499999974 74.8374999999992 812.5062499999984 74.8374999999992C833.2562499999981 74.8374999999992 850.0062499999999 91.6499999999995 850.0062499999999 112.3375000000007L850.0062499999999 224.8999999999999L962.506249999997 224.8999999999999C983.2562499999966 224.8999999999999 1000.0062499999984 241.6499999999999 1000.0062499999984 262.3374999999992C1000.0062499999984 283.0250000000003 983.2562499999966 299.8375000000007 962.506249999997 299.8375000000007M199.9937499999973 547.6687499999997C179.2437499999977 547.6687499999997 162.493750000003 530.8562499999994 162.493750000003 510.16875C162.493750000003 489.4187500000004 179.2437499999977 472.6687500000004 199.9937499999973 472.6687500000004L499.9937500000016 472.6687500000004C520.7437500000012 472.6687500000004 537.493750000003 489.4187500000004 537.493750000003 510.16875C537.493750000003 530.8562499999994 520.7437500000012 547.6687499999997 499.9937500000016 547.6687499999997L199.9937499999973 547.6687499999997M837.506249999997 710.4499999999998C837.506249999997 731.1999999999994 820.6937499999967 747.9499999999995 800.0062500000026 747.9499999999995L200.0062500000013 747.9499999999995C179.2562500000017 747.9499999999995 162.5062499999999 731.1999999999994 162.5062499999999 710.4499999999998C162.5062499999999 689.7000000000003 179.2562500000017 672.9500000000002 200.0062500000013 672.9500000000002L800.0062500000026 672.9500000000002C820.6937499999967 672.9500000000002 837.506249999997 689.7000000000003 837.506249999997 710.4499999999998" />
    <glyph glyph-name="chat-group"
      unicode="&#xEA20;"
      horiz-adv-x="1000" d=" M929.6875 995.1171875C949.21875 995.1171875 965.8203125 987.9557291875 979.4921875 973.6328125C993.1640625 959.3098958125 1000 941.7317708125 1000 920.8984375L1000 426.7578125C1000 405.9244793750001 993.1640625 388.671875 979.4921875 375C965.8203125 361.328125 949.21875 354.4921875 929.6875 354.4921875L902.34375 354.4921875L902.34375 268.5546875C902.34375 236.00260625 890.9505187499996 208.33333125 868.1640625 185.546875C845.3776062500004 162.76041875 818.359375 151.3671875 787.109375 151.3671875L599.609375 151.3671875L421.875 14.6484375C412.7604168749999 8.13801875 403.6458331250002 4.8828125 394.53125 4.8828125C393.2291668749999 4.8828125 392.2526043749999 5.20833125 391.6015625 5.859375C390.9505206250002 6.51041875 389.3229168749999 6.8359375 386.71875 6.8359375C373.6979168749999 9.44010625 363.9322918749999 15.95051875 357.421875 26.3671875L279.296875 151.3671875L115.234375 151.3671875C83.984375 151.3671875 56.9661458124999 162.76041875 34.1796875 185.546875C11.3932291875001 208.33333125 0 236.00260625 0 268.5546875L0 788.0859375C0 821.9401043750001 11.3932291875001 850.2604168750001 34.1796875 873.046875C56.9661458124999 895.8333331249999 83.984375 907.2265625 115.234375 907.2265625L242.1875 907.2265625L242.1875 920.8984375C242.1875 941.7317708125 249.0234375 959.3098958125 262.6953125 973.6328125C276.3671875 987.9557291875 292.96875 995.1171875 312.5 995.1171875L929.6875 995.1171875L929.6875 995.1171875zM812.5 788.0859375C812.5 795.8984375 809.8958312499996 802.734375 804.6875 808.59375C799.4791687500004 814.453125 793.6197937500004 817.3828125 787.109375 817.3828125L115.234375 817.3828125C108.7239581250001 817.3828125 102.8645831250001 814.453125 97.65625 808.59375C92.4479168749999 802.734375 89.84375 795.8984375 89.84375 788.0859375L89.84375 268.5546875C89.84375 250.32551875 98.3072918749999 241.2109375 115.234375 241.2109375L304.6875 241.2109375C321.6145831250002 241.2109375 333.984375 234.04948125 341.796875 219.7265625L406.25 116.2109375L558.59375 231.4453125C567.7083331250001 237.95573125 576.171875 241.2109375 583.984375 241.2109375L787.109375 241.2109375C804.0364562499996 241.2109375 812.5 250.32551875 812.5 268.5546875L812.5 788.0859375L812.5 788.0859375zM257.8125 645.5078125L650.390625 645.5078125L650.390625 575.1953125L257.8125 575.1953125L257.8125 645.5078125L257.8125 645.5078125zM257.8125 459.9609375L650.390625 459.9609375L650.390625 391.6015625L257.8125 391.6015625L257.8125 459.9609375L257.8125 459.9609375z" />
    <glyph glyph-name="chat-private"
      unicode="&#xEA21;"
      horiz-adv-x="1000" d=" M900.2078999999999 1000C927.9279249999996 1000 951.48995 990.2979903125 970.8939687499995 970.893970875C990.2979875 951.4899515 1000 927.9279281249998 1000 900.2079000000001L1000 299.3763C1000 271.6562687500001 990.2979875 248.09425 970.8939687499995 228.69023125C951.48995 209.2862062500001 927.9279249999996 199.5842 900.2078999999999 199.5842L781.7047812500002 199.5842L781.7047812500002 0L384.6153843749995 199.5842L99.7921000000002 199.5842C72.0720718749996 199.5842 48.5100484999999 209.2862062500001 29.1060291249998 228.69023125C9.7020096874996 248.09425 0 271.6562687500001 0 299.3763L0 900.2079000000001C0 927.9279281249998 9.7020096874996 951.4899515 29.1060291249998 970.893970875C48.5100484999999 990.2979903125 72.0720718749996 1000 99.7921000000002 1000L900.2078999999999 1000L900.2078999999999 1000z" />
    <glyph glyph-name="checkbox-ios-checked"
      unicode="&#xEA22;"
      horiz-adv-x="1000" d=" M812.5 937.5L187.5 937.5C118.7500000000004 937.5 62.5 881.2500000000014 62.5 812.5L62.5 187.5C62.5 118.7500000000004 118.7500000000004 62.5 187.5 62.5L812.5 62.5C881.2499999999997 62.5 937.5 118.7500000000004 937.5 187.5L937.5 812.5C937.5 881.2500000000014 881.2499999999997 937.5 812.5 937.5M812.5 862.5000000000007C839.6249999999999 862.5000000000007 862.4999999999998 839.6250000000016 862.4999999999998 812.5L862.4999999999998 187.5C862.4999999999998 160.3750000000001 839.6249999999999 137.4999999999993 812.5 137.4999999999993L187.5 137.4999999999993C160.3750000000002 137.4999999999993 137.5000000000002 160.3750000000001 137.5000000000002 187.5L137.5000000000002 812.5C137.5000000000002 839.6250000000016 160.3750000000002 862.5000000000007 187.5 862.5000000000007L812.5 862.5000000000007M432.7500000000004 316.6499999999992C422.8125000000001 316.6499999999992 413.2499999999997 320.5875000000002 406.25 327.6500000000002L249.0625 484.7749999999991C234.4375000000003 499.4624999999999 234.4375000000003 523.2124999999996 249.0625 537.8374999999984C263.6874999999997 552.4625000000008 287.4375000000003 552.4625000000008 302.1250000000003 537.8374999999984L432.7500000000004 407.2125L697.8749999999998 672.3375000000011C712.5624999999998 687.0249999999985 736.2500000000001 687.0249999999985 750.9375 672.3375000000011C765.5624999999997 657.7124999999988 765.5624999999997 633.9624999999991 750.9375 619.3375000000003L459.2499999999999 327.6500000000002C452.2500000000003 320.5875000000002 442.6874999999999 316.6499999999992 432.7500000000004 316.6499999999992" />
    <glyph glyph-name="checkbox-thin"
      unicode="&#xEA23;"
      horiz-adv-x="1000" d=" M888.8888875000002 1000C920.4389562500008 1000 946.84499375 989.368998625 968.1069937500002 968.106995875C989.369 946.844993125 1000 920.4389575 1000 888.88888875L1000 111.1111125000001C1000 79.56104375 989.369 53.15500625 968.1069937500002 31.89300625C946.84499375 10.631 920.4389562500008 0 888.8888875000002 0L111.1111112500005 0C79.5610425 0 53.1550068750004 10.631 31.8930041249992 31.89300625C10.6310013749997 53.15500625 0 79.56104375 0 111.1111125000001L0 888.88888875C0 920.4389575 10.6310013749997 946.844993125 31.8930041249992 968.106995875C53.1550068750004 989.368998625 79.5610425 1000 111.1111112500005 1000L888.8888875000002 1000L888.8888875000002 1000L888.8888875000002 1000zM111.1111112500005 111.1111125000001L888.8888875000002 111.1111125000001L888.8888875000002 888.88888875L111.1111112500005 888.88888875L111.1111112500005 111.1111125000001L111.1111112500005 111.1111125000001L111.1111112500005 111.1111125000001z" />
    <glyph glyph-name="checkbox"
      unicode="&#xEA24;"
      horiz-adv-x="1000" d=" M812.5 937.5L187.5 937.5C118.7499999999999 937.5 62.5 881.2500000000014 62.5 812.5L62.5 187.5C62.5 118.7500000000004 118.7499999999999 62.5 187.5 62.5L812.5 62.5C881.2500000000001 62.5 937.5 118.7500000000004 937.5 187.5L937.5 812.5C937.5 881.2500000000014 881.2500000000001 937.5 812.5 937.5L812.5 937.5L812.5 937.5M812.5 862.5000000000007C839.6249999999999 862.5000000000007 862.4999999999998 839.6250000000016 862.4999999999998 812.5L862.4999999999998 187.5C862.4999999999998 160.3750000000001 839.6249999999999 137.4999999999993 812.5 137.4999999999993L187.5 137.4999999999993C160.3750000000002 137.4999999999993 137.5000000000002 160.3750000000001 137.5000000000002 187.5L137.5000000000002 812.5C137.5000000000002 839.6250000000016 160.3750000000002 862.5000000000007 187.5 862.5000000000007L812.5 862.5000000000007L812.5 862.5000000000007L812.5 862.5000000000007" />
    <glyph glyph-name="chevron-down"
      unicode="&#xEA25;"
      horiz-adv-x="1000" d=" M932.640625 697.5859374999995C932.640625 688.0234375 928.953125 678.3984375000002 921.640625 671.0859375L526.515625 275.8984375000005C519.515625 268.8984374999999 509.953125 264.8984375000004 500.0156249999999 264.8984375000004C490.0781249999999 264.8984375000004 480.5781250000001 268.8984374999999 473.515625 275.8984375000005L78.3281250000001 671.0859375C63.703125 685.7109374999997 63.703125 709.4609375000002 78.3281250000001 724.0859375C92.953125 738.7734374999999 116.7031249999999 738.7734374999999 131.3906250000001 724.0859375L500.0156249999999 355.4609375000003L868.703125 724.0859375C883.265625 738.7734374999999 907.015625 738.7734374999999 921.640625 724.0859375C928.953125 716.7734374999997 932.640625 707.1484374999999 932.640625 697.5859374999995L932.640625 697.5859374999995L932.640625 697.5859374999995" />
    <glyph glyph-name="chevron-left"
      unicode="&#xEA26;"
      horiz-adv-x="1000" d=" M697.5859375 67.3593749999997C688.0234375 67.3593749999997 678.3984374999999 71.0468750000005 671.0859375 78.3593749999998L275.8984375 473.484375C268.8984374999999 480.4843749999997 264.8984374999999 490.046875 264.8984374999999 499.9843750000003C264.8984374999999 509.9218749999999 268.8984374999999 519.421875 275.8984375 526.4843749999999L671.0859375 921.6718750000005C685.7109375000001 936.296875 709.4609375000002 936.296875 724.0859375 921.6718750000005C738.7734374999999 907.0468749999998 738.7734374999999 883.2968750000001 724.0859375 868.6093750000001L355.4609375000002 499.9843750000003L724.0859375 131.2968750000004C738.7734374999999 116.734375 738.7734374999999 92.9843750000003 724.0859375 78.3593749999998C716.7734375000001 71.0468750000005 707.1484374999999 67.3593749999997 697.5859375 67.3593749999997" />
    <glyph glyph-name="chevron-right"
      unicode="&#xEA27;"
      horiz-adv-x="1000" d=" M302.4140625000005 932.6406250000005C311.9765625 932.6406250000005 321.6015624999997 928.9531249999995 328.9140625 921.6406250000002L724.1015624999995 526.515625C731.1015625000001 519.5156250000003 735.1015624999997 509.953125 735.1015624999997 500.0156249999997C735.1015624999997 490.0781250000001 731.1015625000001 480.5781250000001 724.1015624999995 473.5156250000001L328.9140625 78.3281249999997C314.2890625000004 63.703125 290.5390624999997 63.703125 275.9140625000001 78.3281249999997C261.2265625000001 92.9531250000002 261.2265625000001 116.7031249999999 275.9140625000001 131.3906249999999L644.5390624999998 500.0156249999997L275.9140625000001 868.7031249999997C261.2265625000001 883.265625 261.2265625000001 907.0156249999995 275.9140625000001 921.6406250000002C283.2265625000004 928.9531249999995 292.8515625000001 932.6406250000005 302.4140625000005 932.6406250000005L302.4140625000005 932.6406250000005" />
    <glyph glyph-name="chevron-up"
      unicode="&#xEA28;"
      horiz-adv-x="1000" d=" M67.3593749999997 302.4140625000005C67.3593749999997 311.9765625 71.0468750000004 321.6015624999998 78.3593749999998 328.9140625L473.4843749999999 724.1015624999995C480.4843749999997 731.1015625000001 490.046875 735.1015624999998 499.9843750000003 735.1015624999998C509.9218749999999 735.1015624999998 519.4218749999999 731.1015625000001 526.4843749999999 724.1015624999995L921.6718750000005 328.9140625C936.296875 314.2890625000004 936.296875 290.5390624999998 921.6718750000005 275.9140625C907.0468749999998 261.2265625000001 883.2968750000001 261.2265625000001 868.6093750000001 275.9140625L499.9843750000003 644.5390624999998L131.2968750000003 275.9140625C116.7343750000001 261.2265625000001 92.9843750000003 261.2265625000001 78.3593749999998 275.9140625C71.0468750000004 283.2265625000004 67.3593749999997 292.8515625000001 67.3593749999997 302.4140625000005L67.3593749999997 302.4140625000005" />
    <glyph glyph-name="circle-arrow-down-o"
      unicode="&#xEA29;"
      horiz-adv-x="1000" d=" M0 500C0 223.875 223.8749999999996 0 500 0C776.1250000000005 0 1000 223.875 1000 500C1000 776.125 776.1250000000005 1000 500 1000C223.8749999999996 1000 0 776.125 0 500L0 500L0 500L0 500L0 500L0 500M925.0000000000006 500C925.0000000000006 265.625 734.375 75.0000000000002 500 75.0000000000002C265.625 75.0000000000002 74.9999999999993 265.625 74.9999999999993 500C74.9999999999993 734.375 265.625 924.9999999999998 500 924.9999999999998C734.375 924.9999999999998 925.0000000000006 734.375 925.0000000000006 500L925.0000000000006 500L925.0000000000006 500L925.0000000000006 500L925.0000000000006 500L925.0000000000006 500L925.0000000000006 500M462.4937500000001 719.6750000000001L462.4937500000001 370.8624999999999L318.1812500000003 515.1750000000002C303.5562499999998 529.7999999999998 279.8062500000001 529.7999999999998 265.1187499999992 515.1750000000002C250.4937500000004 500.5500000000001 250.4937500000004 476.7999999999998 265.1187499999992 462.1125L473.4937499999994 253.8000000000001C488.1187499999999 239.175 511.8687499999996 239.175 526.4937500000002 253.8000000000001L734.8062500000001 462.1125C742.1187499999995 469.4875000000001 745.8062499999993 479.05 745.8062499999993 488.6749999999997C745.8062499999993 498.2375000000001 742.1187499999995 507.8624999999999 734.8062500000001 515.1750000000002C720.2437499999999 529.7999999999998 696.4312499999999 529.7999999999998 681.8062499999993 515.1750000000002L537.4937499999994 370.8624999999999L537.4937499999994 719.6750000000001C537.4937499999994 740.4250000000002 520.7437499999994 757.1750000000002 499.9937499999998 757.1750000000002C479.3062500000005 757.1750000000002 462.4937500000001 740.4250000000002 462.4937500000001 719.6750000000001L462.4937500000001 719.6750000000001L462.4937500000001 719.6750000000001L462.4937500000001 719.6750000000001L462.4937500000001 719.6750000000001L462.4937500000001 719.6750000000001" />
    <glyph glyph-name="circle-arrow-down"
      unicode="&#xEA2A;"
      horiz-adv-x="1000" d=" M500 0C776.125 0 1000 223.875 1000 500C1000 776.125 776.125 1000 500 1000C223.8750000000001 1000 0 776.125 0 500C0 223.875 223.8750000000001 0 500 0L500 0L500 0M462.5125 719.6500000000001C462.5125 740.4000000000001 479.325 757.1500000000002 500.0125 757.1500000000002C520.7625 757.1500000000002 537.5124999999999 740.4000000000001 537.5124999999999 719.6500000000001L537.5124999999999 370.8375L681.825 515.1500000000002C696.45 529.7749999999999 720.2625 529.7749999999999 734.8249999999999 515.1500000000002C742.1375 507.8374999999999 745.8249999999999 498.2125000000001 745.8249999999999 488.6499999999998C745.8249999999999 479.0250000000001 742.1375 469.4625000000001 734.8249999999999 462.0875L526.5125 253.7750000000001C511.8875 239.15 488.1375 239.15 473.5125 253.7750000000001L265.1375000000001 462.0875C250.5125 476.775 250.5125 500.5250000000001 265.1375000000001 515.1500000000002C279.825 529.7749999999999 303.575 529.7749999999999 318.2000000000001 515.1500000000002L462.5125 370.8375" />
    <glyph glyph-name="circle-arrow-left-o"
      unicode="&#xEA2B;"
      horiz-adv-x="1000" d=" M500 1000C223.8749999999996 1000 0 776.125 0 500C0 223.875 223.8749999999996 0 500 0C776.1250000000005 0 1000 223.875 1000 500C1000 776.125 776.1250000000005 1000 500 1000L500 1000L500 1000L500 1000L500 1000L500 1000M500 75.0000000000002C265.625 75.0000000000002 74.9999999999993 265.625 74.9999999999993 500C74.9999999999993 734.375 265.625 924.9999999999998 500 924.9999999999998C734.375 924.9999999999998 925.0000000000006 734.375 925.0000000000006 500C925.0000000000006 265.625 734.375 75.0000000000002 500 75.0000000000002L500 75.0000000000002L500 75.0000000000002L500 75.0000000000002L500 75.0000000000002L500 75.0000000000002L500 75.0000000000002M719.6750000000005 537.5062499999999L370.8624999999995 537.5062499999999L515.1749999999993 681.8187500000001C529.7999999999998 696.4437499999998 529.7999999999998 720.1937499999999 515.1749999999993 734.8812499999999C500.5500000000005 749.50625 476.8000000000008 749.50625 462.1125 734.8812499999999L253.8 526.5062500000001C239.1749999999995 511.8812500000001 239.1749999999995 488.1312499999999 253.8 473.5062499999998L462.1125 265.1937499999999C469.4874999999996 257.88125 479.0500000000009 254.1937499999998 488.6750000000006 254.1937499999998C498.2375000000001 254.1937499999998 507.8624999999999 257.88125 515.1749999999993 265.1937499999999C529.7999999999998 279.7562500000002 529.7999999999998 303.5687500000002 515.1749999999993 318.1937499999998L370.8624999999995 462.5062500000001L719.6750000000005 462.5062500000001C740.4250000000001 462.5062500000001 757.1750000000002 479.2562500000001 757.1750000000002 500.0062500000002C757.1750000000002 520.6937499999999 740.4250000000001 537.5062499999999 719.6750000000005 537.5062499999999L719.6750000000005 537.5062499999999L719.6750000000005 537.5062499999999L719.6750000000005 537.5062499999999L719.6750000000005 537.5062499999999L719.6750000000005 537.5062499999999" />
    <glyph glyph-name="circle-arrow-left"
      unicode="&#xEA2C;"
      horiz-adv-x="1000" d=" M0 500C0 223.875 223.8750000000001 0 500 0C776.125 0 1000 223.875 1000 500C1000 776.125 776.125 1000 500 1000C223.8750000000001 1000 0 776.125 0 500L0 500L0 500M719.6500000000001 537.4875000000002C740.4000000000002 537.4875000000002 757.1500000000002 520.6749999999997 757.1500000000002 499.9875C757.1500000000002 479.2375 740.4000000000002 462.4875 719.6500000000001 462.4875L370.8374999999999 462.4875L515.1500000000002 318.1750000000001C529.7749999999999 303.55 529.7749999999999 279.7375 515.1500000000002 265.1750000000002C507.8374999999999 257.8624999999999 498.2125000000001 254.1750000000001 488.6499999999998 254.1750000000001C479.025 254.1750000000001 469.4625000000001 257.8624999999999 462.0875 265.1750000000002L253.7750000000001 473.4875000000001C239.15 488.1124999999997 239.15 511.8624999999999 253.7750000000001 526.4875L462.0875 734.8625000000002C476.775 749.4874999999998 500.5250000000001 749.4874999999998 515.1500000000002 734.8625000000002C529.7749999999999 720.1750000000002 529.7749999999999 696.4250000000001 515.1500000000002 681.8L370.8374999999999 537.4875000000002" />
    <glyph glyph-name="circle-arrow-right-o"
      unicode="&#xEA2D;"
      horiz-adv-x="1000" d=" M500 0C776.1250000000005 0 1000 223.875 1000 500C1000 776.125 776.1250000000005 1000 500 1000C223.8749999999996 1000 0 776.125 0 500C0 223.875 223.8749999999996 0 500 0L500 0L500 0L500 0L500 0L500 0M500 924.9999999999998C734.375 924.9999999999998 925.0000000000006 734.375 925.0000000000006 500C925.0000000000006 265.625 734.375 75.0000000000002 500 75.0000000000002C265.625 75.0000000000002 74.9999999999993 265.625 74.9999999999993 500C74.9999999999993 734.375 265.625 924.9999999999998 500 924.9999999999998L500 924.9999999999998L500 924.9999999999998L500 924.9999999999998L500 924.9999999999998L500 924.9999999999998L500 924.9999999999998M280.3249999999995 462.4937500000001L629.1375000000006 462.4937500000001L484.8250000000007 318.1812499999999C470.2000000000002 303.5562499999998 470.2000000000002 279.8062500000001 484.8250000000007 265.1187500000001C499.4499999999995 250.49375 523.1999999999992 250.49375 537.8875 265.1187500000001L746.1999999999999 473.4937500000003C760.8250000000005 488.1187499999999 760.8250000000005 511.8687500000001 746.1999999999999 526.4937500000002L537.8875 734.8062500000001C530.5125000000004 742.1187499999999 520.9499999999991 745.8062500000002 511.3249999999994 745.8062500000002C501.7624999999999 745.8062500000002 492.1375000000001 742.1187499999999 484.8250000000007 734.8062500000001C470.2000000000002 720.2437499999999 470.2000000000002 696.4312499999999 484.8250000000007 681.8062500000001L629.1375000000006 537.4937499999999L280.3249999999995 537.4937499999999C259.5749999999999 537.4937499999999 242.8249999999999 520.7437499999999 242.8249999999999 499.9937499999998C242.8249999999999 479.3062500000001 259.5749999999999 462.4937500000001 280.3249999999995 462.4937500000001L280.3249999999995 462.4937500000001L280.3249999999995 462.4937500000001L280.3249999999995 462.4937500000001L280.3249999999995 462.4937500000001L280.3249999999995 462.4937500000001" />
    <glyph glyph-name="circle-arrow-right"
      unicode="&#xEA2E;"
      horiz-adv-x="1000" d=" M1000 500C1000 776.125 776.1250000000005 1000 500 1000C223.8749999999996 1000 0 776.125 0 500C0 223.875 223.8749999999996 0 500 0C776.1250000000005 0 1000 223.875 1000 500L1000 500L1000 500M280.3500000000003 462.5124999999999C259.5999999999999 462.5124999999999 242.8499999999998 479.3250000000003 242.8499999999998 500.0125C242.8499999999998 520.7625 259.5999999999999 537.5125 280.3500000000003 537.5125L629.1624999999997 537.5125L484.8499999999998 681.8249999999999C470.2250000000001 696.45 470.2250000000001 720.2625 484.8499999999998 734.8249999999998C492.1625000000001 742.1375 501.7874999999999 745.8249999999999 511.3500000000002 745.8249999999999C520.9749999999999 745.8249999999999 530.5375000000004 742.1375 537.9125 734.8249999999998L746.2249999999999 526.5124999999999C760.8499999999996 511.8874999999998 760.8499999999996 488.1375000000001 746.2249999999999 473.5125L537.9125 265.1374999999998C523.225 250.5125000000002 499.4750000000004 250.5125000000002 484.8499999999998 265.1374999999998C470.2250000000001 279.8249999999998 470.2250000000001 303.575 484.8499999999998 318.2000000000001L629.1624999999997 462.5124999999999" />
    <glyph glyph-name="circle-arrow-up-o"
      unicode="&#xEA2F;"
      horiz-adv-x="1000" d=" M1000 500C1000 776.125 776.1250000000005 1000 500 1000C223.8749999999996 1000 0 776.125 0 500C0 223.875 223.8749999999996 0 500 0C776.1250000000005 0 1000 223.875 1000 500L1000 500L1000 500L1000 500L1000 500M74.9999999999993 500C74.9999999999993 734.375 265.625 924.9999999999998 500 924.9999999999998C734.375 924.9999999999998 925.0000000000006 734.375 925.0000000000006 500C925.0000000000006 265.625 734.375 75.0000000000002 500 75.0000000000002C265.625 75.0000000000002 74.9999999999993 265.625 74.9999999999993 500L74.9999999999993 500L74.9999999999993 500L74.9999999999993 500L74.9999999999993 500L74.9999999999993 500M537.5062499999999 280.325L537.5062499999999 629.1375L681.8187500000015 484.8249999999998C696.4437500000003 470.2000000000002 720.1937499999999 470.2000000000002 734.8812500000008 484.8249999999998C749.5062499999996 499.4499999999999 749.5062499999996 523.2 734.8812500000008 537.8875L526.5062500000006 746.2C511.8812499999983 760.825 488.1312499999985 760.825 473.5062499999998 746.2L265.1937500000017 537.8875C257.8812500000005 530.5124999999999 254.1937499999989 520.95 254.1937499999989 511.3249999999998C254.1937499999989 501.7624999999999 257.8812500000005 492.1375000000001 265.1937500000017 484.8249999999998C279.7562499999984 470.2000000000002 303.5687500000002 470.2000000000002 318.193749999999 484.8249999999998L462.5062500000006 629.1375L462.5062500000006 280.325C462.5062500000006 259.575 479.2562499999988 242.8249999999998 500.0062499999984 242.8249999999998C520.6937499999995 242.8249999999998 537.5062499999999 259.575 537.5062499999999 280.325L537.5062499999999 280.325L537.5062499999999 280.325L537.5062499999999 280.325L537.5062499999999 280.325" />
    <glyph glyph-name="circle-arrow-up"
      unicode="&#xEA30;"
      horiz-adv-x="1000" d=" M500 1000C223.8749999999996 1000 0 776.125 0 500C0 223.875 223.8749999999996 0 500 0C776.1250000000005 0 1000 223.875 1000 500C1000 776.125 776.1250000000005 1000 500 1000L500 1000M537.4875000000001 280.3499999999999C537.4875000000001 259.5999999999998 520.6749999999997 242.8499999999998 499.9874999999996 242.8499999999998C479.2375 242.8499999999998 462.4875 259.5999999999998 462.4875 280.3499999999999L462.4875 629.1625000000001L318.1750000000001 484.8499999999998C303.5499999999996 470.2250000000001 279.7374999999995 470.2250000000001 265.1750000000002 484.8499999999998C257.8624999999999 492.1625000000001 254.1750000000001 501.7874999999999 254.1750000000001 511.3500000000002C254.1750000000001 520.9749999999999 257.8624999999999 530.5374999999999 265.1750000000002 537.9125L473.4875000000001 746.2249999999999C488.1124999999997 760.85 511.8625000000004 760.85 526.4875 746.2249999999999L734.8625000000002 537.9125C749.4874999999998 523.225 749.4874999999998 499.4749999999999 734.8625000000002 484.8499999999998C720.1750000000002 470.2250000000001 696.4249999999996 470.2250000000001 681.8 484.8499999999998L537.4875000000001 629.1625000000001" />
    <glyph glyph-name="circle-check-o"
      unicode="&#xEA31;"
      horiz-adv-x="1000" d=" M500 1000C223.8750000000001 1000 0 776.1250000000075 0 500C0 223.8749999999925 223.8750000000001 0 500 0C776.125 0 1000 223.8749999999925 1000 500C1000 776.1250000000075 776.125 1000 500 1000M500 925.0000000000114C734.375 925.0000000000114 924.9999999999998 734.375 924.9999999999998 500C924.9999999999998 265.625 734.375 74.9999999999886 500 74.9999999999886C265.625 74.9999999999886 75.0000000000002 265.625 75.0000000000002 500C75.0000000000002 734.375 265.625 925.0000000000114 500 925.0000000000114M430.825 312.5C421.2625000000001 312.5 411.6374999999999 316.1875000000123 404.3250000000001 323.4999999999957L242.6374999999999 485.1250000000107C228.0125000000002 499.7500000000059 228.0125000000002 523.5000000000127 242.6374999999999 538.125000000008C257.3249999999998 552.8124999999875 281.075 552.8124999999875 295.7000000000001 538.125000000008L430.825 403.0625000000043L704.2625 676.5000000000043C718.9499999999999 691.1875000000123 742.7000000000002 691.1875000000123 757.3249999999998 676.5000000000043C771.9499999999999 661.8750000000091 771.9499999999999 638.1250000000023 757.3249999999998 623.500000000007L457.325 323.4999999999957C450.0125000000002 316.1875000000123 440.3875 312.5 430.825 312.5" />
    <glyph glyph-name="circle-check"
      unicode="&#xEA32;"
      horiz-adv-x="1000" d=" M500 1000C223.8750000000001 1000 0 776.1250000000075 0 500C0 223.8749999999925 223.8750000000001 0 500 0C776.125 0 1000 223.8749999999925 1000 500C1000 776.1250000000075 776.125 1000 500 1000M500 925.0000000000114C734.375 925.0000000000114 924.9999999999998 734.375 924.9999999999998 500C924.9999999999998 265.625 734.375 74.9999999999886 500 74.9999999999886C265.625 74.9999999999886 75.0000000000002 265.625 75.0000000000002 500C75.0000000000002 734.375 265.625 925.0000000000114 500 925.0000000000114M430.825 312.5C421.2625000000001 312.5 411.6374999999999 316.1875000000123 404.3250000000001 323.4999999999957L242.6374999999999 485.1250000000107C228.0125000000002 499.7500000000059 228.0125000000002 523.5000000000127 242.6374999999999 538.125000000008C257.3249999999998 552.8124999999875 281.075 552.8124999999875 295.7000000000001 538.125000000008L430.825 403.0625000000043L704.2625 676.5000000000043C718.9499999999999 691.1875000000123 742.7000000000002 691.1875000000123 757.3249999999998 676.5000000000043C771.9499999999999 661.8750000000091 771.9499999999999 638.1250000000023 757.3249999999998 623.500000000007L457.325 323.4999999999957C450.0125000000002 316.1875000000123 440.3875 312.5 430.825 312.5" />
    <glyph glyph-name="circle-chevron-down-o"
      unicode="&#xEA33;"
      horiz-adv-x="1000" d=" M500 1000C223.8749999999996 1000 0 776.1250000000005 0 500C0 223.8749999999996 223.8749999999996 0 500 0C776.1250000000005 0 1000 223.8749999999996 1000 500C1000 776.1250000000005 776.1250000000005 1000 500 1000M500 924.9999999999998C734.375 924.9999999999998 925.0000000000006 734.375 925.0000000000006 500C925.0000000000006 265.625 734.375 75.0000000000002 500 75.0000000000002C265.625 75.0000000000002 74.9999999999993 265.625 74.9999999999993 500C74.9999999999993 734.375 265.625 924.9999999999998 500 924.9999999999998M500.0062500000002 337.4312499999999C490.0687500000007 337.4312499999999 480.5062499999995 341.36875 473.5062499999998 348.43125L323.3812500000006 498.4937499999997C308.7562500000001 513.1812499999996 308.7562500000001 536.86875 323.3812500000006 551.55625C338.0687499999997 566.1812499999996 361.8187499999994 566.1812499999996 376.44375 551.55625L500.0062500000002 427.9937499999998L623.5687500000005 551.55625C638.1937499999992 566.1187500000002 661.9437500000007 566.1812499999996 676.5687499999995 551.55625C691.2562500000004 536.86875 691.2562500000004 513.1812499999996 676.5687499999995 498.4937499999997L526.5062500000006 348.43125C519.5062499999992 341.36875 509.9437499999997 337.4312499999999 500.0062500000002 337.4312499999999" />
    <glyph glyph-name="circle-chevron-down"
      unicode="&#xEA34;"
      horiz-adv-x="1000" d=" M500 1000C776.125 1000 1000 776.1250000000005 1000 500C1000 223.8749999999996 776.125 0 500 0C223.8750000000001 0 0 223.8749999999996 0 500C0 776.1250000000005 223.8750000000001 1000 500 1000L500 1000M740.76915 559.0056781249997C746.90556875 565.1420956250001 750 573.2190893749998 750 581.2436349999998C750 589.268180625 746.90556875 597.3451743750004 740.76915 603.4815912500005C728.5487625 615.8068737499996 708.61851875 615.8068737499996 696.3456875 603.4815912500005L499.980331875 407.2211343749998L303.719875 603.4815912500005C291.4470406250001 615.8068737499996 271.5167962500001 615.8068737499996 259.243961875 603.4815912500005C246.918679375 591.208756875 246.918679375 571.2785125000001 259.243961875 559.0056781249997L477.742375625 340.4548187500006C490.0152099999999 328.1819812500002 509.9454543750001 328.1819812500002 522.270736875 340.4548187500006" />
    </font>
</defs>
</svg>
